<svg width="205" height="29" viewBox="0 0 205 29" fill="none" xmlns="http://www.w3.org/2000/svg">
<path d="M24.9464 2.87991H26.5242V26.4796H24.9464V27.9567H23.335V12.4474H19.4409V25.1033H17.8631V26.5803H16.2518V3.55131H14.7411V2.04066H17.8631V3.55131H19.4409V11.0039H23.335V2.87991H21.8244V1.36926H24.9464V2.87991ZM1.07812 20.7727V19.0271H2.75662V17.2814H4.43512V15.5358H6.11363V13.7902H7.79212V12.0445H9.47063V4.82697H1.51453V3.41703H11.317V4.75983H12.8276V12.0445H11.1491V13.7902H9.13492V15.5358H7.38929V17.2814H5.71078V19.0271H4.03229V20.7727H1.07812Z" fill="#1A1918" stroke="#1A1918" stroke-width="0.3"/>
<path d="M48.3401 15.5694H39.679V14.0587H38.1012V12.6824H36.5234V6.70689H38.1012V5.36409H39.679V3.95415H42.3982V1.26855H45.5873V3.95415H48.3401V5.36409H49.9514V6.70689H51.4957V12.6824H49.9514V14.0587H48.3401V15.5694ZM39.679 12.6824H41.2568V14.0587H46.7287V12.6824H48.3401V6.74046H46.7287V5.36409H41.2568V6.74046H39.679V12.6824ZM41.9953 20.907V19.3964H45.1845V20.907H46.8966V26.5468H58.4111V25.1704H61.4324V26.5468H59.9553V28.0574H45.2181V26.5468H43.5396V20.907H41.9953ZM55.8262 2.7792V1.26855H58.9482V2.7792H60.526V18.6578H58.9482V20.1349H57.3368V2.7792H55.8262Z" fill="#1A1918" stroke="#1A1918" stroke-width="0.3"/>
<path d="M94.5969 2.51065H96.1747V15.3344H94.5969V16.8115H92.9855V8.75467H87.3122V7.31116H92.9855V2.51065H91.4749V1H94.5969V2.51065ZM71.4336 15.133V13.5216H73.3471V11.9774H75.2606V10.4667H77.0398V8.98966H78.5504V3.48418H72.3736V2.04067H87.5472V3.48418H81.8403V8.98966H83.3509V10.3996H85.2309V11.8095H87.0772V13.2195H88.42V14.6294H85.5666V13.2195H83.7202V11.8095H81.8403V10.3996H78.5504V11.9774H76.7712V13.5216H74.8577V15.133H71.4336ZM79.7254 25.5061V20.7056H81.3032V19.3628H82.881V17.9193H90.7028V19.3628H92.3141V20.7056H93.8584V25.5061H92.3141V26.8825H90.7028V28.326H82.881V26.8825H81.3032V25.5061H79.7254ZM82.881 25.5061H84.4588V26.8825H89.0914V25.5061H90.7028V20.7392H89.0914V19.3628H84.4588V20.7392H82.881V25.5061Z" fill="#1A1918" stroke="#1A1918" stroke-width="0.3"/>
<path d="M109.732 14.9819V5.17947H108.222V3.66882H111.31V5.17947H112.921V8.8386H125.678V3.83668H128.867V15.0491H127.323V16.4926H111.31V14.9819H109.732ZM106.174 25.6572V24.1801H117.856V20.051H116.312V18.5403H119.635V20.051H121.247V24.1801H132.627V25.6572H106.174ZM112.921 15.0491H125.678V10.2821H112.921V15.0491Z" fill="#1A1918" stroke="#1A1918" stroke-width="0.3"/>
<path d="M166.764 9.99675H171.866V11.5074H166.764V18.9935H165.186V20.4706H163.575V2.7792H162.064V1.26855H165.186V2.7792H166.764V9.99675ZM142.627 16.7108V15.2337H148.602V9.76176H147.058V8.25111H150.113V9.76176H151.624V15.2337H161.393V16.7108H142.627ZM144.305 3.68559V2.27565H157.868V3.61845H159.378V10.7353H157.868V12.2459H154.645V10.7353H156.223V3.68559H144.305ZM148.233 21.2427V19.7321H151.422V21.2427H153.235V26.5468H164.985V25.1704H168.006V26.5468H166.529V28.0574H151.456V26.5468H149.777V21.2427H148.233Z" fill="#1A1918" stroke="#1A1918" stroke-width="0.3"/>
<path d="M200.062 2.87991V1.36926H203.184V2.87991H204.762V26.4796H203.184V27.9567H201.573V2.87991H200.062ZM181.867 19.3964V12.0445H183.512V10.6346H192.375V4.15557H182.337V2.74563H194.087V4.122H195.732V10.6682H194.087V12.0445H185.191V19.3964H195.127V17.9864H198.149V19.4971H196.638V20.8399H183.479V19.3964H181.867Z" fill="#1A1918" stroke="#1A1918" stroke-width="0.3"/>
</svg>
