<svg width="314" height="30" viewBox="0 0 314 30" fill="none" xmlns="http://www.w3.org/2000/svg">
<path d="M308.588 2.91051V1.39368H311.723V2.91051H313.307V26.6068H311.723V28.0899H310.105V2.91051H308.588ZM290.318 19.4945V12.1126H291.97V10.6969H300.869V4.19139H290.79V2.77568H302.588V4.15768H304.239V10.7306H302.588V12.1126H293.655V19.4945H303.633V18.0788H306.666V19.5956H305.15V20.9439H291.936V19.4945H290.318Z" fill="#1A1918" stroke="#1A1918" stroke-width="0.3"/>
<path d="M280.933 10.1576H286.056V11.6744H280.933V19.1912H279.349V20.6743H277.731V2.91051H276.214V1.39368H279.349V2.91051H280.933V10.1576ZM256.697 16.8991V15.4159H262.697V9.92163H261.147V8.4048H264.214V9.92163H265.731V15.4159H275.54V16.8991H256.697ZM258.383 3.8206V2.4049H272V3.75319H273.517V10.8991H272V12.416H268.765V10.8991H270.349V3.8206H258.383ZM262.326 21.4495V19.9327H265.529V21.4495H267.349V26.7753H279.146V25.3933H282.18V26.7753H280.697V28.2921H265.562V26.7753H263.877V21.4495H262.326Z" fill="#1A1918" stroke="#1A1918" stroke-width="0.3"/>
<path d="M217.796 13.7979V3.95531H216.279V2.43848H219.38V3.95531H220.998V7.62941H233.807V2.60702H237.009V13.8653H235.458V15.3147H219.38V13.7979H217.796ZM214.223 24.5168V23.0337H225.953V18.8877H224.402V17.3708H227.739V18.8877H229.357V23.0337H240.784V24.5168H214.223ZM220.998 13.8653H233.807V9.07882H220.998V13.8653Z" fill="#1A1918" stroke="#1A1918" stroke-width="0.3"/>
<path d="M205.516 2.91051H207.1V15.7867H205.516V17.2698H203.898V9.18007H198.201V7.73066H203.898V2.91051H202.381V1.39368H205.516V2.91051ZM182.258 15.5845V13.9665H184.179V12.416H186.1V10.8991H187.887V9.41602H189.404V3.88802H183.202V2.4386H198.437V3.88802H192.707V9.41602H194.224V10.8317H196.112V12.2474H197.965V13.6631H199.314V15.0789H196.449V13.6631H194.595V12.2474H192.707V10.8317H189.404V12.416H187.617V13.9665H185.696V15.5845H182.258ZM190.584 26V21.1799H192.168V19.8316H193.752V18.3822H201.606V19.8316H203.224V21.1799H204.774V26H203.224V27.382H201.606V28.8315H193.752V27.382H192.168V26H190.584ZM193.752 26H195.336V27.382H199.988V26H201.606V21.2136H199.988V19.8316H195.336V21.2136H193.752V26Z" fill="#1A1918" stroke="#1A1918" stroke-width="0.3"/>
<path d="M142.513 10.7643V9.38231H140.996V5.60709H142.513V4.25879H144.03V2.9105H146.491V0.382446H149.693V2.9105H152.187V4.25879H153.738V5.60709H155.221V9.38231H153.738V10.7643H152.187V12.18H144.03V10.7643H142.513ZM138.367 15.753V14.2699H157.243V15.753H149.322V19.09H147.738V20.4383H146.12V15.753H138.367ZM144.03 9.38231H145.614V10.7643H150.569V9.38231H152.187V5.64079H150.569V4.25879H145.614V5.64079H144.03V9.38231ZM144.333 23.1349V21.6181H147.536V23.1349H149.356V26.7753H161.49V25.3933H164.524V26.7753H163.041V28.2921H147.569V26.7753H145.884V23.1349H144.333ZM154.344 19.5619V18.1799H160.412V2.9105H158.895V1.39367H162.03V2.9105H163.614V20.8765H162.03V22.3596H160.412V19.5619H154.344Z" fill="#1A1918" stroke="#1A1918" stroke-width="0.3"/>
<path d="M111.256 11.371V3.28124H109.739V1.7644H112.84V3.28124H114.458V5.8767H127.098V1.93294H130.3V11.4384H128.75V12.8878H112.84V11.371H111.256ZM107.346 17.8765V16.3934H133.907V17.8765H122.278V27.5168H120.694V28.9999H119.076V17.8765H107.346ZM114.458 11.4384H127.098V7.2587H114.458V11.4384Z" fill="#1A1918" stroke="#1A1918" stroke-width="0.3"/>
<path d="M85.225 15.2811V11.6744H79.8655V10.3261H85.225V6.82056H79.8655V5.47227H85.225V2.91051H83.7082V1.39368H86.8429V2.91051H88.4272V13.798H86.8429V15.2811H85.225ZM62.7422 3.3487V1.83187H65.8433V3.3487H67.4612V5.94417H74.9442V2.00041H78.0453V12.18H76.5285V13.5957H65.8433V12.1126H64.259V3.3487H62.7422ZM67.4612 12.18H74.9442V7.35988H67.4612V12.18ZM70.023 27.0113V23.1349H71.7083V21.6181H83.8767V18.4159H70.36V16.9665H87.2474V21.517H85.5621V23.0338H73.3937V27.0113H88.6631V28.5281H71.7083V27.0113H70.023Z" fill="#1A1918" stroke="#1A1918" stroke-width="0.3"/>
<path d="M38.3267 11.0339V12.6518H34.0795V11.0339H36.8772V9.51705H39.3379V8.00022H41.7985V6.48339H43.4839V3.11266H41.8996V1.59583H45.3041V3.11266H46.8883V6.48339H48.5737V8.00022H51.0343V9.51705H53.495V11.0339H56.2927V12.6518H52.0455V11.0339H49.6186V9.55076H46.8883V8.03393H43.4839V9.55076H40.7536V11.0339H38.3267ZM32.1582 17.5731V16.09H58.7196V17.5731H47.0906V27.5168H45.5063V28.9999H43.8884V17.5731H32.1582Z" fill="#1A1918" stroke="#1A1918" stroke-width="0.3"/>
<path d="M19.4716 2.91051V1.39368H22.6064V2.91051H24.1907V26.6068H22.6064V28.0899H20.9885V2.91051H19.4716ZM1 20.4383V18.753H3.46064V17.0676H5.61791V15.3822H7.77518V13.6969H9.93245V12.0115H12.0897V4.86553H1.67415V3.44982H13.9099V4.79812H15.5279V12.0115H13.8425V13.6969H11.5167V15.3822H9.39313L9.35942 17.0676H7.20215V18.753H5.04488V20.4383H1Z" fill="#1A1918" stroke="#1A1918" stroke-width="0.3"/>
</svg>
