<svg width="28" height="28" viewBox="0 0 28 28" fill="none" xmlns="http://www.w3.org/2000/svg">
<g id="&#240;&#159;&#166;&#134; icon &#34;github outline&#34;">
<path id="Vector" d="M18.9483 25.667C18.6389 25.667 18.3422 25.5441 18.1234 25.3253C17.9046 25.1065 17.7817 24.8098 17.7817 24.5004V21.467C17.8179 21.1181 17.7806 20.7655 17.6721 20.4319C17.5635 20.0983 17.3863 19.7912 17.1517 19.5304C17.0064 19.3728 16.9074 19.1784 16.8653 18.9682C16.8233 18.7581 16.84 18.5405 16.9135 18.3392C16.987 18.138 17.1146 17.9609 17.2821 17.8273C17.4496 17.6937 17.6507 17.6089 17.8633 17.582C20.71 17.2437 23.335 16.3337 23.335 11.3987C23.3359 10.4771 23.0639 9.57592 22.5533 8.80871C22.0822 8.10244 21.9102 7.23822 22.075 6.40537C22.1801 5.86208 22.1801 5.30367 22.075 4.76037C21.2014 5.05575 20.3789 5.48473 19.6367 6.03204C19.4963 6.13169 19.3357 6.19906 19.1663 6.22932C18.9968 6.25957 18.8228 6.25196 18.6567 6.20704C16.5512 5.61211 14.3221 5.61211 12.2167 6.20704C12.0505 6.25196 11.8765 6.25957 11.7071 6.22932C11.5376 6.19906 11.377 6.13169 11.2367 6.03204C10.4899 5.47839 9.65866 5.04897 8.77499 4.76037C8.66404 5.3031 8.66404 5.86265 8.77499 6.40537C8.92792 7.2487 8.74811 8.11848 8.27332 8.83204C7.76496 9.60463 7.49329 10.5089 7.49166 11.4337C7.49166 15.972 9.68499 17.1854 12.975 17.6054C13.1903 17.6321 13.3938 17.7183 13.5628 17.8543C13.7318 17.9903 13.8596 18.1708 13.9317 18.3754C13.9995 18.5739 14.0125 18.787 13.9694 18.9924C13.9263 19.1977 13.8286 19.3876 13.6867 19.542C13.4597 19.7846 13.2856 20.0716 13.1751 20.3848C13.0647 20.6981 13.0204 21.0308 13.045 21.362V24.5004C13.045 24.8098 12.9221 25.1065 12.7033 25.3253C12.4845 25.5441 12.1877 25.667 11.8783 25.667C11.5689 25.667 11.2722 25.5441 11.0534 25.3253C10.8346 25.1065 10.7117 24.8098 10.7117 24.5004V23.8354C9.56525 23.9672 8.40403 23.8136 7.33134 23.3882C6.25865 22.9628 5.30777 22.2788 4.56332 21.397C4.18066 20.9729 3.72155 20.6246 3.20999 20.3704C3.06138 20.3321 2.92176 20.2649 2.79912 20.1726C2.67648 20.0804 2.57321 19.9648 2.49521 19.8327C2.41721 19.7005 2.366 19.5543 2.34452 19.4023C2.32303 19.2504 2.33169 19.0957 2.36999 18.947C2.40829 18.7984 2.47549 18.6588 2.56775 18.5362C2.66001 18.4135 2.77552 18.3103 2.90769 18.2323C3.03986 18.1543 3.18609 18.1031 3.33805 18.0816C3.49001 18.0601 3.64471 18.0687 3.79332 18.107C4.69078 18.434 5.49269 18.9793 6.12666 19.6937C7.29332 20.8604 8.45999 21.887 10.6767 21.467C10.6377 20.8407 10.7291 20.213 10.945 19.6237C8.54166 19.017 5.11166 17.2904 5.11166 11.457C5.10858 10.0753 5.51452 8.72351 6.27832 7.57204C6.42019 7.35948 6.47453 7.10035 6.42999 6.84871C6.19424 5.58938 6.32795 4.28873 6.81499 3.10371C6.88117 2.9457 6.98133 2.8042 7.10836 2.68927C7.23539 2.57434 7.38617 2.48879 7.54999 2.43871C7.94666 2.32204 9.36999 2.08871 12.065 3.83871C14.2466 3.31371 16.5217 3.31371 18.7033 3.83871C21.3983 2.08871 22.8217 2.31037 23.2067 2.43871C23.3705 2.48879 23.5213 2.57434 23.6483 2.68927C23.7753 2.8042 23.8755 2.9457 23.9417 3.10371C24.4297 4.29258 24.5634 5.59723 24.3267 6.86037C24.3028 6.97419 24.3018 7.09161 24.3239 7.20579C24.3459 7.31998 24.3905 7.42862 24.455 7.52537C25.221 8.68015 25.627 10.0363 25.6217 11.422C25.6217 17.337 22.215 19.052 19.7883 19.5887C20.0021 20.2147 20.0893 20.877 20.045 21.537V24.5004C20.0455 24.798 19.9323 25.0847 19.7284 25.3015C19.5245 25.5184 19.2455 25.6492 18.9483 25.667Z" fill="currentColor"/>
</g>
</svg>
