<svg width="24" height="25" viewBox="0 0 24 25" fill="none" xmlns="http://www.w3.org/2000/svg">
<g clip-path="url(#clip0_14940_17503)">
<path d="M14 15.6255V17.6255H10V15.6255H11V10.6255H10V9.62549H13V15.6255H14Z" fill="#6A6967"/>
<path d="M13 6.62549H11V8.62549H13V6.62549Z" fill="#6A6967"/>
<path d="M22 9.62549V7.62549H21V5.62549H20V4.62549H19V3.62549H17V2.62549H15V1.62549H9V2.62549H7V3.62549H5V4.62549H4V5.62549H3V7.62549H2V9.62549H1V15.6255H2V17.6255H3V19.6255H4V20.6255H5V21.6255H7V22.6255H9V23.6255H15V22.6255H17V21.6255H19V20.6255H20V19.6255H21V17.6255H22V15.6255H23V9.62549H22ZM21 15.6255H20V17.6255H19V18.6255H18V19.6255H17V20.6255H15V21.6255H9V20.6255H7V19.6255H6V18.6255H5V17.6255H4V15.6255H3V9.62549H4V7.62549H5V6.62549H6V5.62549H7V4.62549H9V3.62549H15V4.62549H17V5.62549H18V6.62549H19V7.62549H20V9.62549H21V15.6255Z" fill="#6A6967"/>
</g>
<defs>
<clipPath id="clip0_14940_17503">
<rect width="24" height="24" fill="white" transform="translate(0 0.625488)"/>
</clipPath>
</defs>
</svg>
