<svg width="28" height="28" viewBox="0 0 28 28" fill="none" xmlns="http://www.w3.org/2000/svg">
<g id="&#240;&#159;&#166;&#134; icon &#34;link 2&#34;">
<g id="Group">
<path id="Vector" d="M15.503 10.8365L10.8363 15.5032C10.727 15.6116 10.6402 15.7407 10.5809 15.8828C10.5217 16.025 10.4912 16.1775 10.4912 16.3315C10.4912 16.4855 10.5217 16.638 10.5809 16.7802C10.6402 16.9224 10.727 17.0514 10.8363 17.1598C10.9448 17.2692 11.0738 17.356 11.216 17.4152C11.3581 17.4745 11.5106 17.5049 11.6646 17.5049C11.8187 17.5049 11.9711 17.4745 12.1133 17.4152C12.2555 17.356 12.3845 17.2692 12.493 17.1598L17.1596 12.4932C17.3793 12.2735 17.5027 11.9755 17.5027 11.6648C17.5027 11.3542 17.3793 11.0562 17.1596 10.8365C16.94 10.6168 16.642 10.4934 16.3313 10.4934C16.0206 10.4934 15.7227 10.6168 15.503 10.8365Z" fill="currentColor"/>
<path id="Vector_2" d="M14.3265 20.2998L12.8331 21.7814C11.9948 22.6453 10.8678 23.1703 9.66713 23.2564C8.46645 23.3424 7.2761 22.9835 6.32313 22.2481C5.81944 21.833 5.40842 21.317 5.1166 20.7332C4.82479 20.1494 4.65868 19.5109 4.62899 18.8589C4.5993 18.2069 4.70671 17.556 4.94426 16.9481C5.18182 16.3402 5.54424 15.7889 6.00813 15.3298L7.66479 13.6614C7.77414 13.553 7.86093 13.4239 7.92017 13.2818C7.9794 13.1396 8.00989 12.9871 8.00989 12.8331C8.00989 12.6791 7.9794 12.5266 7.92017 12.3844C7.86093 12.2423 7.77414 12.1132 7.66479 12.0048C7.55634 11.8954 7.4273 11.8086 7.28513 11.7494C7.14296 11.6902 6.99047 11.6597 6.83646 11.6597C6.68245 11.6597 6.52995 11.6902 6.38779 11.7494C6.24562 11.8086 6.11658 11.8954 6.00813 12.0048L4.52646 13.4981C3.27831 14.7068 2.51114 16.3273 2.36739 18.0588C2.22363 19.7903 2.71305 21.5151 3.74479 22.9131C4.35715 23.7075 5.13154 24.3625 6.01651 24.8347C6.90148 25.3068 7.87679 25.5852 8.87763 25.6514C9.87848 25.7176 10.882 25.5701 11.8214 25.2187C12.7609 24.8672 13.6148 24.3199 14.3265 23.6131L15.9831 21.9564C16.2028 21.7367 16.3262 21.4388 16.3262 21.1281C16.3262 20.8174 16.2028 20.5195 15.9831 20.2998C15.7634 20.0801 15.4655 19.9567 15.1548 19.9567C14.8441 19.9567 14.5461 20.0801 14.3265 20.2998Z" fill="currentColor"/>
<path id="Vector_3" d="M22.9359 3.75557C21.5283 2.71311 19.7894 2.21871 18.0439 2.3647C16.2984 2.51069 14.6658 3.2871 13.4509 4.5489L12.1909 5.83224C12.0469 5.93693 11.9265 6.0707 11.8374 6.22488C11.7484 6.37907 11.6927 6.55023 11.674 6.7273C11.6553 6.90436 11.674 7.08338 11.7289 7.25276C11.7838 7.42214 11.8736 7.57811 11.9926 7.71057C12.101 7.81992 12.2301 7.90671 12.3722 7.96594C12.5144 8.02517 12.6669 8.05567 12.8209 8.05567C12.9749 8.05567 13.1274 8.02517 13.2696 7.96594C13.4117 7.90671 13.5408 7.81992 13.6492 7.71057L15.1659 6.18224C15.9996 5.31461 17.1253 4.78671 18.3254 4.70052C19.5256 4.61434 20.7151 4.97597 21.6642 5.71557C22.1717 6.13067 22.586 6.64804 22.8801 7.23395C23.1742 7.81986 23.3416 8.46117 23.3713 9.11609C23.401 9.77101 23.2924 10.4248 23.0526 11.035C22.8127 11.6451 22.447 12.1979 21.9792 12.6572L20.3226 14.3256C20.2132 14.434 20.1264 14.5631 20.0672 14.7052C20.008 14.8474 19.9775 14.9999 19.9775 15.1539C19.9775 15.3079 20.008 15.4604 20.0672 15.6026C20.1264 15.7447 20.2132 15.8738 20.3226 15.9822C20.431 16.0916 20.5601 16.1784 20.7022 16.2376C20.8444 16.2968 20.9969 16.3273 21.1509 16.3273C21.3049 16.3273 21.4574 16.2968 21.5996 16.2376C21.7417 16.1784 21.8708 16.0916 21.9792 15.9822L23.6359 14.3256C24.3408 13.614 24.8864 12.7608 25.2366 11.8225C25.5869 10.8842 25.7338 9.8822 25.6676 8.88284C25.6014 7.88348 25.3237 6.90958 24.8527 6.02566C24.3818 5.14173 23.7284 4.36795 22.9359 3.75557Z" fill="currentColor"/>
</g>
</g>
</svg>
