<svg width="287" height="30" viewBox="0 0 287 30" fill="none" xmlns="http://www.w3.org/2000/svg">
<path d="M4.96363 11.948V3.75007H3.42602V2.21297H6.56959V3.75007H8.20971V6.38023H21.0232V2.38376H24.2693V12.0163H22.6975V13.4851H6.56959V11.948H4.96363ZM1 18.5404V17.0375H27.9254V18.5404H16.137V28.3096H14.531V29.8125H12.8909V18.5404H1ZM8.20971 12.0163H21.0232V7.7807H8.20971V12.0163Z" fill="#1A1918"/>
<path d="M36.6532 11.3331V9.93264H35.1156V6.10696H36.6532V4.74065H38.1908V3.37434H40.6852V0.8125H43.9312V3.37434H46.4598V4.74065H48.0316V6.10696H49.535V9.93264H48.0316V11.3331H46.4598V12.7677H38.1908V11.3331H36.6532ZM32.4504 16.3885V14.8855H51.5852V16.3885H43.5554V19.7701H41.9494V21.1364H40.3093V16.3885H32.4504ZM38.1908 9.93264H39.7968V11.3331H44.8196V9.93264H46.4598V6.14112H44.8196V4.74065H39.7968V6.14112H38.1908V9.93264ZM38.4983 23.869V22.3319H41.7444V23.869H43.5896V27.5581H55.8905V26.1576H58.9657V27.5581H57.4623V29.0952H41.7786V27.5581H40.0701V23.869H38.4983ZM48.6466 20.2483V18.8478H54.7971V3.37434H53.2594V1.83724H56.4372V3.37434H58.0431V21.5805H56.4372V23.0834H54.7971V20.2483H48.6466Z" fill="#1A1918"/>
<path d="M100.517 3.37434H102.123V15.7736H100.517V17.2766H98.8767V9.35196H93.1021V7.88317H98.8767V3.37434H97.3391V1.83724H100.517V3.37434ZM76.9401 16.1152V14.4756H78.8877V12.9044H80.8354V11.3673H82.6463V9.86433H84.1839V4.36492H77.8968V2.89613H93.3413V4.36492H87.5325V9.86433H89.0701V11.299H90.9836V12.7336H92.8629V14.1682H94.2297V15.6028H91.3253V14.1682H89.446V12.7336H87.5325V11.299H84.1839V12.9044H82.373V14.4756H80.4253V16.1152H76.9401ZM82.578 20.18V18.6429H85.7216V20.18H87.225V22.5369H97.9883V18.8137H101.064V27.763H99.5943V29.1977H85.7216V27.6947H84.1156V20.18H82.578ZM87.225 27.763H97.9883V23.9715H87.225V27.763Z" fill="#1A1918"/>
<path d="M128.789 14.6464H136.273V16.1494H109.347V14.6464H125.578V13.0752H127.184V11.5381H128.789V4.15997H112.901V2.69118H130.532V4.09165H132.241V11.5381H130.532V13.0752H128.789V14.6464ZM113.14 21.8196V20.2825H116.489V21.7854H118.095V27.6606H129.712V26.2259H132.719V27.763H131.25V29.0952H116.215V27.6606H114.678V21.8196H113.14Z" fill="#1A1918"/>
<path d="M175.09 17.6523V3.37434H173.553V1.83724H176.73V3.37434H178.336V21.2389H176.73V22.7418H175.09V19.0528H168.94V17.6523H175.09ZM152.743 14.3732V12.9385H163.541V11.4014H165.147V9.86433H166.753V4.2966H154.623V2.86197H168.495V4.22828H170.204V9.86433H168.495V11.4014H166.753V12.9385H171.878V14.3732H163.848V19.0869H162.242V20.4533H160.602V14.3732H152.743ZM158.791 23.1859V21.6488H162.037V23.1859H163.883V27.5581H176.184V26.1576H179.259V27.5581H177.755V29.0952H162.072V27.5581H160.363V23.1859H158.791Z" fill="#1A1918"/>
<path d="M201.962 5.15055V6.51686H184.16V5.15055H191.848V2.3496H190.139V0.8125H193.488V2.3496H195.094V5.15055H201.962ZM186.21 15.9103V11.3331H187.816V9.9668H189.422V8.60049H197.554V9.9668H199.194V11.3331H200.766V15.9103H199.194V17.3107H197.554V18.7454H189.422V17.3107H187.816V15.9103H186.21ZM189.422 15.9103H191.028V17.3107H195.914V15.9103H197.554V11.3673H195.914V9.9668H191.028V11.3673H189.422V15.9103ZM190.583 22.8785V21.3414H193.83V22.8785H195.675V27.5581H206.951V26.1576H210.026V27.5581H208.522V29.0952H193.864V27.5581H192.155V22.8785H190.583ZM203.978 3.37434V1.83724H207.156V3.37434H208.762V10.3767H213.955V11.9138H208.762V20.2141H207.156V21.7171H205.515V3.37434H203.978Z" fill="#1A1918"/>
<path d="M253.183 10.7183H258.377V12.2554H253.183V19.8726H251.577V21.3755H249.937V3.37434H248.399V1.83724H251.577V3.37434H253.183V10.7183ZM228.615 17.5498V16.0469H234.697V10.4792H233.126V8.94206H236.235V10.4792H237.773V16.0469H247.716V17.5498H228.615ZM230.324 4.2966V2.86197H244.128V4.22828H245.666V11.4697H244.128V13.0068H240.848V11.4697H242.454V4.2966H230.324ZM234.321 22.1611V20.624H237.568V22.1611H239.413V27.5581H251.372V26.1576H254.447V27.5581H252.944V29.0952H237.602V27.5581H235.893V22.1611H234.321Z" fill="#1A1918"/>
<path d="M281.216 3.37434V1.83724H284.394V3.37434H286V27.3873H284.394V28.8902H282.754V3.37434H281.216ZM262.697 20.18V12.6994H264.371V11.2648H273.392V4.67234H263.175V3.23771H275.134V4.63818H276.808V11.299H275.134V12.6994H266.079V20.18H276.193V18.7454H279.269V20.2825H277.731V21.6488H264.337V20.18H262.697Z" fill="#1A1918"/>
<path d="M4.96363 11.948V3.75007H3.42602V2.21297H6.56959V3.75007H8.20971V6.38023H21.0232V2.38376H24.2693V12.0163H22.6975V13.4851H6.56959V11.948H4.96363ZM1 18.5404V17.0375H27.9254V18.5404H16.137V28.3096H14.531V29.8125H12.8909V18.5404H1ZM8.20971 12.0163H21.0232V7.7807H8.20971V12.0163Z" stroke="black" stroke-width="0.3"/>
<path d="M36.6532 11.3331V9.93264H35.1156V6.10696H36.6532V4.74065H38.1908V3.37434H40.6852V0.8125H43.9312V3.37434H46.4598V4.74065H48.0316V6.10696H49.535V9.93264H48.0316V11.3331H46.4598V12.7677H38.1908V11.3331H36.6532ZM32.4504 16.3885V14.8855H51.5852V16.3885H43.5554V19.7701H41.9494V21.1364H40.3093V16.3885H32.4504ZM38.1908 9.93264H39.7968V11.3331H44.8196V9.93264H46.4598V6.14112H44.8196V4.74065H39.7968V6.14112H38.1908V9.93264ZM38.4983 23.869V22.3319H41.7444V23.869H43.5896V27.5581H55.8905V26.1576H58.9657V27.5581H57.4623V29.0952H41.7786V27.5581H40.0701V23.869H38.4983ZM48.6466 20.2483V18.8478H54.7971V3.37434H53.2594V1.83724H56.4372V3.37434H58.0431V21.5805H56.4372V23.0834H54.7971V20.2483H48.6466Z" stroke="black" stroke-width="0.3"/>
<path d="M100.517 3.37434H102.123V15.7736H100.517V17.2766H98.8767V9.35196H93.1021V7.88317H98.8767V3.37434H97.3391V1.83724H100.517V3.37434ZM76.9401 16.1152V14.4756H78.8877V12.9044H80.8354V11.3673H82.6463V9.86433H84.1839V4.36492H77.8968V2.89613H93.3413V4.36492H87.5325V9.86433H89.0701V11.299H90.9836V12.7336H92.8629V14.1682H94.2297V15.6028H91.3253V14.1682H89.446V12.7336H87.5325V11.299H84.1839V12.9044H82.373V14.4756H80.4253V16.1152H76.9401ZM82.578 20.18V18.6429H85.7216V20.18H87.225V22.5369H97.9883V18.8137H101.064V27.763H99.5943V29.1977H85.7216V27.6947H84.1156V20.18H82.578ZM87.225 27.763H97.9883V23.9715H87.225V27.763Z" stroke="black" stroke-width="0.3"/>
<path d="M128.789 14.6464H136.273V16.1494H109.347V14.6464H125.578V13.0752H127.184V11.5381H128.789V4.15997H112.901V2.69118H130.532V4.09165H132.241V11.5381H130.532V13.0752H128.789V14.6464ZM113.14 21.8196V20.2825H116.489V21.7854H118.095V27.6606H129.712V26.2259H132.719V27.763H131.25V29.0952H116.215V27.6606H114.678V21.8196H113.14Z" stroke="black" stroke-width="0.3"/>
<path d="M175.09 17.6523V3.37434H173.553V1.83724H176.73V3.37434H178.336V21.2389H176.73V22.7418H175.09V19.0528H168.94V17.6523H175.09ZM152.743 14.3732V12.9385H163.541V11.4014H165.147V9.86433H166.753V4.2966H154.623V2.86197H168.495V4.22828H170.204V9.86433H168.495V11.4014H166.753V12.9385H171.878V14.3732H163.848V19.0869H162.242V20.4533H160.602V14.3732H152.743ZM158.791 23.1859V21.6488H162.037V23.1859H163.883V27.5581H176.184V26.1576H179.259V27.5581H177.755V29.0952H162.072V27.5581H160.363V23.1859H158.791Z" stroke="black" stroke-width="0.3"/>
<path d="M201.962 5.15055V6.51686H184.16V5.15055H191.848V2.3496H190.139V0.8125H193.488V2.3496H195.094V5.15055H201.962ZM186.21 15.9103V11.3331H187.816V9.9668H189.422V8.60049H197.554V9.9668H199.194V11.3331H200.766V15.9103H199.194V17.3107H197.554V18.7454H189.422V17.3107H187.816V15.9103H186.21ZM189.422 15.9103H191.028V17.3107H195.914V15.9103H197.554V11.3673H195.914V9.9668H191.028V11.3673H189.422V15.9103ZM190.583 22.8785V21.3414H193.83V22.8785H195.675V27.5581H206.951V26.1576H210.026V27.5581H208.522V29.0952H193.864V27.5581H192.155V22.8785H190.583ZM203.978 3.37434V1.83724H207.156V3.37434H208.762V10.3767H213.955V11.9138H208.762V20.2141H207.156V21.7171H205.515V3.37434H203.978Z" stroke="black" stroke-width="0.3"/>
<path d="M253.183 10.7183H258.377V12.2554H253.183V19.8726H251.577V21.3755H249.937V3.37434H248.399V1.83724H251.577V3.37434H253.183V10.7183ZM228.615 17.5498V16.0469H234.697V10.4792H233.126V8.94206H236.235V10.4792H237.773V16.0469H247.716V17.5498H228.615ZM230.324 4.2966V2.86197H244.128V4.22828H245.666V11.4697H244.128V13.0068H240.848V11.4697H242.454V4.2966H230.324ZM234.321 22.1611V20.624H237.568V22.1611H239.413V27.5581H251.372V26.1576H254.447V27.5581H252.944V29.0952H237.602V27.5581H235.893V22.1611H234.321Z" stroke="black" stroke-width="0.3"/>
<path d="M281.216 3.37434V1.83724H284.394V3.37434H286V27.3873H284.394V28.8902H282.754V3.37434H281.216ZM262.697 20.18V12.6994H264.371V11.2648H273.392V4.67234H263.175V3.23771H275.134V4.63818H276.808V11.299H275.134V12.6994H266.079V20.18H276.193V18.7454H279.269V20.2825H277.731V21.6488H264.337V20.18H262.697Z" stroke="black" stroke-width="0.3"/>
</svg>
