<svg width="20" height="21" viewBox="0 0 20 21" fill="none" xmlns="http://www.w3.org/2000/svg">
<g id="Pixel/Solid/Refresh" clip-path="url(#clip0_15786_8278)">
<path id="Vector" d="M19.1673 11.792V12.6253H18.334V14.292H17.5006V15.9587H16.6673V16.792H15.834V17.6253H14.1673V18.4587H12.5006V19.292H7.50065V18.4587H5.83398V17.6253H4.16732V16.792H2.50065V17.6253H1.66732V18.4587H0.833984V11.792H7.50065V12.6253H6.66732V13.4587H5.83398V15.1253H6.66732V15.9587H8.33398V16.792H11.6673V15.9587H13.334V15.1253H14.1673V14.292H15.0006V12.6253H15.834V11.792H19.1673Z" fill="currentColor"/>
<path id="Vector_2" d="M19.1673 1.79232V8.45898H12.5006V7.62565H13.334V6.79232H14.1673V5.12565H13.334V4.29232H11.6673V3.45898H8.33398V4.29232H6.66732V5.12565H5.83398V5.95898H5.00065V7.62565H4.16732V8.45898H0.833984V7.62565H1.66732V5.95898H2.50065V4.29232H3.33398V3.45898H4.16732V2.62565H5.83398V1.79232H7.50065V0.958984H12.5006V1.79232H14.1673V2.62565H15.834V3.45898H17.5006V2.62565H18.334V1.79232H19.1673Z" fill="currentColor"/>
</g>
<defs>
<clipPath id="clip0_15786_8278">
<rect width="20" height="20" fill="white" transform="translate(0 0.125488)"/>
</clipPath>
</defs>
</svg>
