<svg width="24" height="25" viewBox="0 0 24 25" fill="none" xmlns="http://www.w3.org/2000/svg">
<g id="Pixel/Regular/Search">
<path id="Vector" d="M22 20.6255V19.6255H21V18.6255H20V17.6255H19V16.6255H17V15.6255H18V13.6255H19V7.62549H18V5.62549H17V4.62549H16V3.62549H15V2.62549H13V1.62549H7V2.62549H5V3.62549H4V4.62549H3V5.62549H2V7.62549H1V13.6255H2V15.6255H3V16.6255H4V17.6255H5V18.6255H7V19.6255H13V18.6255H15V17.6255H16V19.6255H17V20.6255H18V21.6255H19V22.6255H20V23.6255H22V22.6255H23V20.6255H22ZM12 15.6255V16.6255H8V15.6255H6V14.6255H5V12.6255H4V8.62549H5V6.62549H6V5.62549H8V4.62549H12V5.62549H14V6.62549H15V8.62549H16V12.6255H15V14.6255H14V15.6255H12Z" fill="black"/>
</g>
</svg>
