<svg width="20" height="20" viewBox="0 0 20 20" fill="none" xmlns="http://www.w3.org/2000/svg">
<g id="Pixel/Regular/Upload">
<path id="Vector" d="M3.33301 8.33325V6.66659H4.16634V5.83325H4.99967V4.99992H5.83301V4.16659H6.66634V3.33325H7.49967V2.49992H8.33301V1.66659H9.16634V0.833252H10.833V1.66659H11.6663V2.49992H12.4997V3.33325H13.333V4.16659H14.1663V4.99992H14.9997V5.83325H15.833V6.66659H16.6663V8.33325H14.9997V7.49992H14.1663V6.66659H13.333V5.83325H12.4997V4.99992H11.6663V4.16659H10.833V14.1666H9.16634V4.16659H8.33301V4.99992H7.49967V5.83325H6.66634V6.66659H5.83301V7.49992H4.99967V8.33325H3.33301Z" fill="white"/>
<path id="Vector_2" d="M18.3337 16.6667H1.66699V19.1667H18.3337V16.6667Z" fill="white"/>
</g>
</svg>
