<svg width="141" height="26" viewBox="0 0 141 26" fill="none" xmlns="http://www.w3.org/2000/svg">
<path d="M14.3552 6.98001H15.9666V25.3428H12.7774V15.3725H3.24356V25.3428H0.0544127V6.98001H1.66577V4.63011H3.34427V2.28021H4.92206V0.500999H11.0989V2.28021H12.6767V4.63011H14.3552V6.98001ZM3.24356 13.8954H12.7774V6.98001H11.0318V4.63011H9.38687V2.28021H6.63413V4.63011H4.9892V6.98001H3.24356V13.8954ZM20.1558 0.500999H23.2778V2.01165H24.7549V8.82636H26.3326V7.215H33.0131V8.82636H34.5909V10.4041H36.1687V20.6766H34.6244V22.1872H33.1474V23.7314H31.4353V25.3428H21.6664V2.01165H20.1558V0.500999ZM24.7549 23.7314H29.8239V22.1872H31.4353V20.643H33.0131V10.4377H31.4689V8.82636H27.8769V10.4377H26.3326V12.0491H24.7549V23.7314ZM42.1787 22.2544H40.5338V10.2699H42.1787V8.75922H43.7565V7.215H52.5519V8.75922H54.1296V10.2699H55.7746V22.2544H54.1296V23.7986H52.5519V25.3428H43.7565V23.7986H42.1787V22.2544ZM43.7565 22.2544H45.3343V23.7986H50.9741V22.2544H52.5519V10.3034H50.9741V8.75922H45.3343V10.3034H43.7565V22.2544ZM60.466 7.215H63.6551V22.1201H65.1994V23.7314H68.9256V22.1201H70.4698V20.5087H72.0812V7.215H75.2368V25.3428H72.0812V23.7314H70.4698V25.3428H63.6551V23.7314H62.0773V22.1536H60.466V7.215ZM88.1974 21.9187H91.2859V23.6643H89.7081V25.3428H83.2291V23.6643H81.7184V9.36348H78.5964V7.8864H81.7184V2.5152H84.7733V7.8864H90.7823V9.36348H84.7733V23.6643H88.1974V21.9187ZM106.206 22.2544V0.500999H109.396V22.2544H110.973V23.7986H116.445V22.2544H118.057V0.500999H121.246V22.2544H119.702V23.7986H118.057V25.3428H109.396V23.7986H107.784V22.2544H106.206ZM126.127 22.2544V18.7967H129.383V22.2544H130.961V23.7986H135.594V22.2544H137.171V19.2331H135.124V17.8903H132.942V16.5139H130.827V15.1711H128.645V13.7276H126.563V10.2699H128.208V8.75922H129.786V7.215H137.171V8.75922H138.749V10.2699H140.293V13.6269H137.171V10.3034H135.594V8.75922H131.431V10.3034H129.853V13.0562H131.968V14.4661H134.083V15.8425H136.299V17.1853H138.38V18.5617H140.461V22.2544H138.917V23.7986H137.339V25.3428H129.383V23.7986H127.805V22.2544H126.127Z" fill="#1A1918"/>
</svg>
