<svg xmlns="http://www.w3.org/2000/svg" width="880" height="121" viewBox="0 0 880 121" fill="none">
  <path fill-rule="evenodd" clip-rule="evenodd" d="M875.332 2.12791H4.66794V5.08333H2.21429V87.593H4.66794V90.5484H422.792L438.999 118.872H441.001L457.208 90.5484H875.332V87.593H877.786V5.08333H875.332V2.12791Z" fill="#FFFBF6"/>
  <path fill-rule="evenodd" clip-rule="evenodd" d="M3.45117 0H876.548V2.93269H880V89.8846H876.548V92.8173H457.956L441.755 121H438.245L422.044 92.8173H3.45117V89.8846H0V2.93269H3.45117V0ZM422.799 90.4712L439 118.654H441L457.201 90.4712H875.215V87.5385H877.667V5.27885H875.215V2.34615H4.78451V5.27885H2.33333V87.5385H4.78451V90.4712H422.799Z" fill="#363532"/>
</svg>