<svg width="16" height="16" viewBox="0 0 16 16" fill="none" xmlns="http://www.w3.org/2000/svg">
<path d="M8.6358 4.34214V6.196H8.01784V7.43191H6.78194V8.04986H4.92808V7.43191H3.69217V6.196H3.07422V4.34214H3.69217V3.10623H4.92808V2.48828H6.78194V3.10623H8.01784V4.34214H8.6358Z" fill="#DC4200"/>
<path d="M10.488 10.5218V12.9936H9.87009V13.6116H1.8367V12.9936H1.21875V10.5218H1.8367V9.90387H2.45466V9.28592H3.07261V8.66797H4.30852V9.28592H7.39828V8.66797H8.63419V9.28592H9.25214V9.90387H9.87009V10.5218H10.488Z" fill="#DC4200"/>
<path d="M13.1521 7.93328H13.6069V8.3691H14.0617V8.80492H14.5164V9.24073H14.0617V9.67655H13.6069V9.24073H13.1521V8.80492H12.6974V8.3691H11.7878V8.80492H11.3331V9.24073H10.8783V9.67655H10.4235V9.24073H9.96875V8.80492H10.4235V8.3691H10.8783V7.93328H11.3331V7.06164H10.8783V6.62582H10.4235V6.19H9.96875V5.75418H10.4235V5.31836H10.8783V5.75418H11.3331V6.19H11.7878V6.62582H12.6974V6.19H13.1521V5.75418H13.6069V5.31836H14.0617V5.75418H14.5164V6.19H14.0617V6.62582H13.6069V7.06164H13.1521V7.93328Z" fill="#DC4200"/>
</svg>
