<svg xmlns="http://www.w3.org/2000/svg" width="58" height="58" viewBox="0 0 58 58" fill="none">
  <path d="M55.1799 21.3811V16.3019H52.6403V11.2227H50.1007V8.68307H47.5611V6.14345H42.4819V3.60384H37.4026V1.06422H22.1649V3.60384H17.0857V6.14345H12.0065V8.68307H9.46685V11.2227H6.92724V16.3019H4.38762V21.3811H1.848V36.6188H4.38762V41.6981H6.92724V46.7773H9.46685V49.3169H12.0065V51.8565H17.0857V54.3962H22.1649V56.9358H37.4026V54.3962H42.4819V51.8565H47.5611V49.3169H50.1007V46.7773H52.6403V41.6981H55.1799V36.6188H57.7196V21.3811H55.1799Z" fill="#FFA000"/>
  <path fill-rule="evenodd" clip-rule="evenodd" d="M20.3169 0H37.6831V2.53962H42.7623V5.07923H47.8415V7.61885H50.3812V10.1585H52.9208V15.2377H55.4604V20.3169H58V37.6831H55.4604V42.7623H52.9208V47.8415H50.3812V50.3812H47.8415V52.9208H42.7623V55.4604H37.6831V58H20.3169V55.4604H15.2377V52.9208H10.1585V50.3812H7.61885V47.8415H5.07923V42.7623H2.53962V37.6831H0V20.3169H2.53962V15.2377H5.07923V10.1585H7.61885V7.61885H10.1585V5.07923H15.2377V2.53962H20.3169V0ZM22.4454 2.91222V5.45184H17.3661V7.20767H12.2869V9.74729H9.74729V12.2869H7.20767V17.3661H5.45184V22.4454H2.91222V35.5546H5.45184V40.6339H7.20767V45.7131H9.74729V48.2527H12.2869V50.7923H17.3661V52.5482H22.4454V55.0878H35.5546V52.5482H40.6339V50.7923H45.7131V48.2527H48.2527V45.7131H50.7923V40.6339H52.5482V35.5546H55.0878V22.4454H52.5482V17.3661H50.7923V12.2869H48.2527V9.74729H45.7131V7.20767H40.6339V5.45184H35.5546V2.91222H22.4454Z" fill="#1A1918"/>
  <path d="M53.0575 21.9991V17.3317H50.7238V12.6643H48.3901V10.3306H46.0564V7.9969H41.389V5.6632H36.7215V3.32949H22.7193V5.6632H18.0519V7.9969H13.3845V10.3306H11.0508V12.6643H8.71713V17.3317H6.38343V21.9991H4.04973V36.0013H6.38343V40.6687H8.71713V45.3361H11.0508V47.6698H13.3845V50.0035H18.0519V52.3372H22.7193V54.6709H36.7215V52.3372H41.389V50.0035H46.0564V47.6698H48.3901V45.3361H50.7238V40.6687H53.0575V36.0013H55.3912V21.9991H53.0575Z" fill="#FFA000"/>
  <path fill-rule="evenodd" clip-rule="evenodd" d="M21.0212 2.35156H36.9792V4.68526H41.6467V7.01897H46.3141V9.35267H48.6478V11.6864H50.9815V16.3538H53.3152V21.0212H55.6489V36.9792H53.3152V41.6467H50.9815V46.3141H48.6478V48.6478H46.3141V50.9815H41.6467V53.3152H36.9792V55.6489H21.0212V53.3152H16.3538V50.9815H11.6864V48.6478H9.35267V46.3141H7.01897V41.6467H4.68526V36.9792H2.35156V21.0212H4.68526V16.3538H7.01897V11.6864H9.35267V9.35267H11.6864V7.01897H16.3538V4.68526H21.0212V2.35156ZM22.977 4.70291V7.83805H18.811V9.01372H13.7164V11.3651H11.757V14.1083H8.97483V18.3096H7.36136V22.977H5.02766V35.0234H7.36136V39.6908H8.97483L9.01372 44.6759H10.9732V47.0272H14.1083V49.0256H18.811V50.9462H23.5137V53.2975H35.2705V50.9815H39.9732V49.3786H44.6759V46.2435H47.0272V44.3582H49.0256V39.6908H50.6391V35.0234H52.9728V22.977H50.6391V18.3096H49.0256V13.6422H46.6919V11.3085H44.3582V8.97483H39.6908V7.05427H35.2705V4.70291H22.977Z" fill="#6A6967"/>
  <path fill-rule="evenodd" clip-rule="evenodd" d="M27.8244 43.1083V29.0002V14.8921H31.7433V29.0002V43.1083H27.8244Z" fill="#1A1918"/>
  <path fill-rule="evenodd" clip-rule="evenodd" d="M43.892 30.9597H29.7839H15.6758V27.0407H29.7839H43.892V30.9597Z" fill="#1A1918"/>
  <path d="M23.5137 53.2974H35.2704V50.946H23.5137V53.2974Z" fill="#FFB500"/>
  <path d="M22.9453 4.70264H35.2693V7.05399H22.9453V4.70264Z" fill="#FFDA58"/>
  <path d="M18.8105 50.9458H25.8646V49.3782H18.8105V50.9458Z" fill="#FFB500"/>
  <path d="M18.8105 7.0542H25.8646V8.62177H18.8105V7.0542Z" fill="#FFF0BD"/>
  <path d="M32.918 50.9458H39.972V49.3782H32.918V50.9458Z" fill="#FFB500"/>
  <path d="M14.1074 49.3784H19.5939V45.4595H14.1074V49.3784Z" fill="#FFB500"/>
  <path d="M44.6758 49.3784H39.1893V45.4595H44.6758V49.3784Z" fill="#FFB500"/>
  <path d="M10.9727 47.0269H14.1078V44.6755H10.9727V47.0269Z" fill="#FFB500"/>
  <path d="M47.0273 46.2432H43.8922V43.8918H47.0273V46.2432Z" fill="#FFB500"/>
  <path d="M47.0273 11.7568H43.8922V14.1082H47.0273V11.7568Z" fill="#FFDA58"/>
  <path d="M13.3242 8.62158H19.5945V11.3648H13.3242V8.62158Z" fill="#FFF0BD"/>
  <path d="M11.7559 11.3647H14.891V14.108H11.7559V11.3647Z" fill="#FFDA58"/>
</svg>