<svg xmlns="http://www.w3.org/2000/svg" width="50" height="50" viewBox="0 0 50 50" fill="none">
  <path d="M20.8333 22.9168H22.9167V43.7502H20.8333V45.8335H16.6667V43.7502H14.5833V22.9168H16.6667V20.8335H20.8333V22.9168Z" fill="#FFA000"/>
  <path d="M25 10.4165H22.9167V12.4998H25V10.4165Z" fill="#FFA000"/>
  <path d="M27.0833 12.5H25V14.5833H27.0833V12.5Z" fill="#FFA000"/>
  <path d="M33.3333 16.6668H35.4167V20.8335H33.3333V22.9168H29.1667V20.8335H27.0833V16.6668H29.1667V14.5835H33.3333V16.6668Z" fill="#FFA000"/>
  <path d="M33.3333 31.2498H35.4167V43.7498H33.3333V45.8332H29.1667V43.7498H27.0833V31.2498H29.1667V29.1665H33.3333V31.2498Z" fill="#FFA000"/>
  <path d="M37.5 12.5H35.4167V14.5833H37.5V12.5Z" fill="#FFA000"/>
  <path d="M39.5833 10.4165H37.5V12.4998H39.5833V10.4165Z" fill="#FFA000"/>
  <path d="M47.9167 4.16683V8.3335H45.8333V10.4168H41.6667V8.3335H39.5833V4.16683H41.6667V2.0835H45.8333V4.16683H47.9167Z" fill="#FFA000"/>
  <path d="M45.8333 22.9168H47.9167V43.7502H45.8333V45.8335H41.6667V43.7502H39.5833V22.9168H41.6667V20.8335H45.8333V22.9168Z" fill="#FFA000"/>
  <path d="M12.5 14.5835H10.4167V16.6668H12.5V14.5835Z" fill="#FFA000"/>
  <path d="M8.33334 18.7498H10.4167V22.9165H8.33334V24.9998H4.16668V22.9165H2.08334V18.7498H4.16668V16.6665H8.33334V18.7498Z" fill="#FFA000"/>
  <path d="M8.33334 33.3333H10.4167V43.75H8.33334V45.8333H4.16668V43.75H2.08334V33.3333H4.16668V31.25H8.33334V33.3333Z" fill="#FFA000"/>
  <path d="M14.5833 12.5H12.5V14.5833H14.5833V12.5Z" fill="#FFA000"/>
  <path d="M16.6667 8.3335H14.5833V4.16683H16.6667V2.0835H20.8333V4.16683H22.9167V8.3335H20.8333V10.4168H16.6667V8.3335Z" fill="#FFA000"/>
</svg>