<svg xmlns="http://www.w3.org/2000/svg" width="40" height="40" viewBox="0 0 40 40" fill="none">
  <path d="M11.666 31.6665V28.3332H13.3327V26.6665H14.9993V24.9998H16.666V23.3332H18.3327V21.6665H19.9993V18.3332H18.3327V16.6665H16.666V14.9998H14.9993V13.3332H13.3327V11.6665H11.666V8.33317H13.3327V6.6665H16.666V8.33317H18.3327V9.99984H19.9993V11.6665H21.666V13.3332H23.3327V14.9998H24.9993V16.6665H26.666V18.3332H28.3327V21.6665H26.666V23.3332H24.9993V24.9998H23.3327V26.6665H21.666V28.3332H19.9993V29.9998H18.3327V31.6665H16.666V33.3332H13.3327V31.6665H11.666Z" fill="#1A1918"/>
</svg>