<svg width="17" height="16" viewBox="0 0 17 16" fill="none" xmlns="http://www.w3.org/2000/svg">
<g clip-path="url(#clip0_10003_19603)">
<path d="M15.5422 6.59951V7.21074H14.931V7.82197H14.3197V8.4332H13.7085V9.04443H13.0973V9.65566H11.8748V9.04443H11.2636V8.4332H10.6523V7.82197H11.2636V7.21074H11.8748V7.82197H13.0973V7.21074H13.7085V6.59951H14.3197V5.98828H14.931V6.59951H15.5422Z" fill="#57B34D"/>
<path d="M9.43075 4.76533V6.59902H8.81952V7.82148H7.59706V8.43271H5.76338V7.82148H4.54092V6.59902H3.92969V4.76533H4.54092V3.54287H5.76338V2.93164H7.59706V3.54287H8.81952V4.76533H9.43075Z" fill="#57B34D"/>
<path d="M11.2622 10.8767V13.3216H10.651V13.9328H2.70498V13.3216H2.09375V10.8767H2.70498V10.2654H3.31621V9.6542H3.92744V9.04297H5.1499V9.6542H8.20605V9.04297H9.4285V9.6542H10.0397V10.2654H10.651V10.8767H11.2622Z" fill="#57B34D"/>
</g>
<defs>
<clipPath id="clip0_10003_19603">
<rect width="15.4757" height="15.4757" fill="white" transform="translate(0.863281 0.474609)"/>
</clipPath>
</defs>
</svg>
