<svg xmlns="http://www.w3.org/2000/svg" width="23" height="23" viewBox="0 0 23 23" fill="none">
  <path d="M22.0417 8.62484V9.58317H21.0833V10.5415H20.125V11.4998H19.1667V12.4582H18.2083V13.4165H16.2917V12.4582H15.3333V11.4998H14.375V10.5415H15.3333V9.58317H16.2917V10.5415H18.2083V9.58317H19.1667V8.62484H20.125V7.6665H21.0833V8.62484H22.0417Z" fill="#57B34D"/>
  <path d="M12.459 5.75V8.625H11.5007V10.5417H9.58398V11.5H6.70898V10.5417H4.79232V8.625H3.83398V5.75H4.79232V3.83333H6.70898V2.875H9.58398V3.83333H11.5007V5.75H12.459Z" fill="#57B34D"/>
  <path d="M15.334 15.3335V19.1668H14.3757V20.1252H1.91732V19.1668H0.958984V15.3335H1.91732V14.3752H2.87565V13.4168H3.83398V12.4585H5.75065V13.4168H10.5423V12.4585H12.459V13.4168H13.4173V14.3752H14.3757V15.3335H15.334Z" fill="#57B34D"/>
</svg>