<svg width="23" height="23" viewBox="0 0 23 23" fill="none" xmlns="http://www.w3.org/2000/svg">
  <path d="M12.459 5.75V8.625H11.5007V10.5417H9.58398V11.5H6.70898V10.5417H4.79232V8.625H3.83398V5.75H4.79232V3.83333H6.70898V2.875H9.58398V3.83333H11.5007V5.75H12.459Z" fill="#DC4200"/>
  <path d="M15.334 15.3335V19.1668H14.3757V20.1252H1.91732V19.1668H0.958984V15.3335H1.91732V14.3752H2.87565V13.4168H3.83398V12.4585H5.75065V13.4168H10.5423V12.4585H12.459V13.4168H13.4173V14.3752H14.3757V15.3335H15.334Z" fill="#DC4200"/>
  <path d="M19.4622 11.3184H20.1675V11.9943H20.8728V12.6702H21.578V13.3461H20.8728V14.022H20.1675V13.3461H19.4622V12.6702H18.757V11.9943H17.3464V12.6702H16.6412V13.3461H15.9359V14.022H15.2307V13.3461H14.5254V12.6702H15.2307V11.9943H15.9359V11.3184H16.6412V9.96669H15.9359V9.29082H15.2307V8.61494H14.5254V7.93906H15.2307V7.26318H15.9359V7.93906H16.6412V8.61494H17.3464V9.29082H18.757V8.61494H19.4622V7.93906H20.1675V7.26318H20.8728V7.93906H21.578V8.61494H20.8728V9.29082H20.1675V9.96669H19.4622V11.3184Z" fill="#DC4200"/>
</svg>
