<svg width="116" height="72" viewBox="0 0 116 72" fill="none" xmlns="http://www.w3.org/2000/svg">
<path fill-rule="evenodd" clip-rule="evenodd" d="M13.3502 8.5332H44.2876V11.0744H47.3013V58.0636H44.2876V58.0904H13.3502V8.5332ZM13.3492 11.1226H10.2744V55.5022H13.3492V11.1226ZM7.19794 16.3015H10.2727V47.737H7.19794V45.1452H4.12444V25.5442H7.19794V16.3015ZM53.3345 52.9834V45.0468H56.5098V32.347H53.3345V25.9963H50.1596V52.9834H53.3345ZM19.4991 60.6812V63.27H41.0238V60.6812H19.4991ZM16.4257 60.6806V58.0918H44.1002V60.6806H16.4257ZM47.3018 16.1522H50.1593V55.5216H47.3018V16.1522Z" fill="#D59F52"/>
<rect x="40.3203" y="22.1853" width="5.39741" height="3.49244" fill="#1A1918"/>
<path d="M37.8504 0.59668H19.8399V3.18549H37.8504V0.59668Z" fill="#1A1918"/>
<path d="M40.9253 63.1432H19.4007V65.6867H40.9253V63.1432Z" fill="#1A1918"/>
<path d="M16.1907 5.6766H13.3333V8.53405H16.3257L16.1907 5.6766Z" fill="#1A1918"/>
<path d="M40.9253 5.7743H44.0003V8.53405H40.9253V5.7743Z" fill="#1A1918"/>
<path d="M37.8504 3.18549H40.9253V5.7743H37.8504V3.18549Z" fill="#1A1918"/>
<path d="M16.1907 3.18549H19.8399V5.7743L16.1907 5.6766V3.18549Z" fill="#1A1918"/>
<path d="M13.3333 8.53405H10.1758V11.074H13.3333V8.53405Z" fill="#1A1918"/>
<path d="M44.0003 8.53405H47.0752V11.074H44.0003V8.53405Z" fill="#1A1918"/>
<path d="M10.1758 11.074H7.10087V16.1295H10.1758V11.074Z" fill="#1A1918"/>
<path d="M7.10087 16.1295H4.02592V25.3753H7.10087V16.1295Z" fill="#1A1918"/>
<path d="M47.0752 11.074H50.1502V16.1539H47.0752V11.074Z" fill="#1A1918"/>
<path d="M4.02592 25.3753H0.950974V44.9763H4.02592V25.3753Z" fill="#1A1918"/>
<path d="M53.3376 16.1539H50.1502V26.1149H53.3376V16.1539Z" fill="#1A1918"/>
<path d="M10.1758 47.5651H7.10087V55.2058H10.1758V47.5651Z" fill="#1A1918"/>
<path d="M53.3376 44.9763H56.5126V52.6658H53.3376V44.9763Z" fill="#1A1918"/>
<path d="M53.3376 26.1149H56.5126V32.402H53.3376V26.1149Z" fill="#1A1918"/>
<path d="M13.2508 55.2058H10.1758V57.9203H13.2508V55.2058Z" fill="#1A1918"/>
<path d="M7.10087 44.9763H4.02592V47.5651H7.10087V44.9763Z" fill="#1A1918"/>
<path d="M47.3052 55.5233H50.1502V58.0633H47.3052V55.5233Z" fill="#1A1918"/>
<path d="M50.1502 52.6658H53.3376V55.5233H50.1502V52.6658Z" fill="#1A1918"/>
<path d="M16.1907 57.9203H13.2508V60.6032H16.1907V57.9203Z" fill="#1A1918"/>
<path d="M44.1303 58.0633H47.3052V60.6032H44.1303V58.0633Z" fill="#1A1918"/>
<path d="M19.4007 60.6032H16.1907V63.1432H19.4007V60.6032Z" fill="#1A1918"/>
<path d="M40.9253 60.6032H44.1303V63.1432H40.9253V60.6032Z" fill="#1A1918"/>
<path d="M59.375 32.402H56.5126V44.9763H59.375V32.402Z" fill="#1A1918"/>
<rect x="20" y="22.1853" width="5.39741" height="3.49244" fill="#1A1918"/>
<rect x="15.873" y="26.947" width="5.39741" height="3.49244" fill="#DB8343"/>
<rect x="44.7656" y="26.947" width="5.39741" height="3.49244" fill="#DB8343"/>
<rect width="2.53996" height="5.39741" transform="matrix(-1 0 0 1 28.8926 34.5706)" fill="#1A1918"/>
<rect width="2.22246" height="5.39741" transform="matrix(-1 0 0 1 39.6855 34.5706)" fill="#1A1918"/>
<rect width="8.83957" height="2.30597" transform="matrix(-1 0 0 1 25.5488 66.0166)" fill="#B17C31"/>
<rect width="7.61988" height="2.22246" transform="matrix(-1 0 0 1 45.0859 65.999)" fill="#B17C31"/>
<rect width="8.88986" height="2.53996" transform="matrix(-1 0 0 1 37.4648 39.9644)" fill="#1A1918"/>
<rect width="8.88986" height="2.85745" transform="matrix(-1 0 0 1 25.3984 63.1418)" fill="#1A1918"/>
<rect width="8.57236" height="2.85745" transform="matrix(-1 0 0 1 25.3984 68.2241)" fill="#1A1918"/>
<rect width="8.25487" height="2.85745" transform="matrix(-1 0 0 1 45.7168 68.2241)" fill="#1A1918"/>
<path fill-rule="evenodd" clip-rule="evenodd" d="M37.8487 3.1875H19.8383V5.68041H16.1905V8.53787H19.8414V10.9536H35.6554V8.53787H40.9551V5.68041H37.8487V3.1875ZM30.8222 10.9542H19.8403V13.543H30.8222V10.9542Z" fill="#EBBA77"/>
<path fill-rule="evenodd" clip-rule="evenodd" d="M13.3335 8.5332H16.1909V22.8205H13.3335V8.5332ZM10.1574 11.073H13.3323V47.567H16.3223V50.1516H25.1089V52.7404H13.3323V52.7411H28.1824V55.3299H13.2469V55.2048H10.1574V47.5645H7.09885V16.129H10.1574V11.073ZM7.09711 25.3762H4.02237V44.9772H7.09711V25.3762ZM31.2589 55.3305V57.7435H40.9528L40.9528 55.2066H44.1283V52.6656H44.1286V50.1259H53.3359V52.6658H50.1607V55.5231H47.3027V58.0641H44.1274V60.6009H16.1879V57.9193H13.2484L13.2484 55.3305H31.2589ZM40.9552 60.6021V63.1421H19.3655V60.6021H40.9552Z" fill="#B17C31"/>
<rect width="2.53996" height="7.93737" transform="matrix(-1 0 0 1 18.7324 63.1418)" fill="#1A1918"/>
<rect width="2.53996" height="7.61988" transform="matrix(-1 0 0 1 26.0332 63.4624)" fill="#1A1918"/>
<rect width="2.22246" height="7.93737" transform="matrix(-1 0 0 1 45.7168 63.1418)" fill="#1A1918"/>
<rect width="2.22246" height="7.61988" transform="matrix(-1 0 0 1 39.6855 63.4624)" fill="#1A1918"/>
<rect width="8.25487" height="2.85745" transform="matrix(-1 0 0 1 45.7168 63.1418)" fill="#1A1918"/>
<path d="M19.3652 62.8262H20.6352V65.3662H19.3652V62.8262Z" fill="#FFC700"/>
<path d="M25.7151 65.3662V66.6362H19.3652L19.3652 65.3662H25.7151Z" fill="#FFC700"/>
<path d="M20.6352 61.5562H21.9052V62.8262H20.6352V61.5562Z" fill="#FFC700"/>
<path d="M23.1752 61.5562H24.4452V63.4612H23.1752V61.5562Z" fill="#FFC700"/>
<path d="M21.9052 59.6513H23.1752V61.5562H21.9052V59.6513Z" fill="#FFC700"/>
<path d="M23.4927 56.4763H24.7626V57.7463H23.4927V56.4763Z" fill="#FFC700"/>
<path d="M24.4452 63.4612H25.7151V65.3662H24.4452V63.4612Z" fill="#FFC700"/>
<path d="M21.9067 61.5542H23.1767V62.5067V63.4592H24.4467V65.9991H20.6367V62.8242H21.9067V61.5542Z" fill="#EA6200"/>
<rect x="21.9062" y="64.0952" width="1.26998" height="1.26998" fill="#EA0000"/>
<path d="M18.7318 66.6349H25.7167V68.2224H18.7318V66.6349Z" fill="#FFEEB4"/>
<path d="M25.7167 66.6349V63.46H27.3041V66.6349H25.7167Z" fill="#FFEEB4"/>
<path d="M17.7793 66.6349L17.7793 62.825H19.3668L19.3668 66.6349H17.7793Z" fill="#FFEEB4"/>
<path d="M19.3668 62.825V61.555H20.6368L20.6368 62.825H19.3668Z" fill="#FFEEB4"/>
<path d="M20.6368 61.555V59.6501H21.9067V61.555H20.6368Z" fill="#FFEEB4"/>
<path d="M21.9067 59.6501L21.9067 58.3801H23.1767V59.6501H21.9067Z" fill="#FFEEB4"/>
<path d="M22.2242 54.2526V52.9827L23.4942 52.9827V54.2526L22.2242 54.2526Z" fill="#FFEEB4"/>
<path d="M23.1767 61.555V60.285H24.4467V61.555H23.1767Z" fill="#FFEEB4"/>
<path d="M24.4467 63.46V62.19H25.7167V63.46H24.4467Z" fill="#FFEEB4"/>
<path d="M39.6855 62.8246H40.9555V65.3645H39.6855V62.8246Z" fill="#FFC700"/>
<path d="M46.0354 65.3645V66.6345H39.6855L39.6855 65.3645H46.0354Z" fill="#FFC700"/>
<path d="M40.9555 61.5546H42.2255V62.8246H40.9555V61.5546Z" fill="#FFC700"/>
<path d="M43.4955 61.5546H44.7655V63.4596H43.4955V61.5546Z" fill="#FFC700"/>
<path d="M42.2255 59.6496H43.4955V61.5546H42.2255V59.6496Z" fill="#FFC700"/>
<path d="M43.813 54.8872H45.083V56.1572H43.813V54.8872Z" fill="#FFC700"/>
<path d="M44.7655 63.4596H46.0354V65.3645H44.7655V63.4596Z" fill="#FFC700"/>
<path d="M42.227 61.5542H43.497V62.5067V63.4592H44.767V65.9991H40.957V62.8242H42.227V61.5542Z" fill="#EA6200"/>
<rect x="42.2266" y="64.095" width="1.26998" height="1.26998" fill="#EA0000"/>
<path d="M39.0521 66.6349H46.037V68.2224H39.0521V66.6349Z" fill="#FFEEB4"/>
<path d="M46.037 66.6349V63.46H47.6245V66.6349H46.037Z" fill="#FFEEB4"/>
<path d="M38.0996 66.6349L38.0996 62.825H39.6871L39.6871 66.6349H38.0996Z" fill="#FFEEB4"/>
<path d="M39.6871 62.825V61.555H40.9571L40.9571 62.825H39.6871Z" fill="#FFEEB4"/>
<path d="M40.9571 61.555V59.6501H42.227V61.555H40.9571Z" fill="#FFEEB4"/>
<path d="M42.227 59.6501L42.227 58.3801H43.497V59.6501H42.227Z" fill="#FFEEB4"/>
<path d="M41.9095 54.2526L41.9095 52.9827L43.1795 52.9827V54.2526H41.9095Z" fill="#FFEEB4"/>
<path d="M43.497 61.555V60.285H44.767V61.555H43.497Z" fill="#FFEEB4"/>
<path d="M44.767 63.46V62.19H46.037V63.46H44.767Z" fill="#FFEEB4"/>
<path fill-rule="evenodd" clip-rule="evenodd" d="M103.152 8.5332H72.2143V11.0744H69.2007V58.0636H72.2143V58.0904H103.152V8.5332ZM103.153 11.1226H106.228V55.5022H103.153V11.1226ZM109.304 16.3015H106.229V47.737H109.304V45.1452H112.378V25.5442H109.304V16.3015ZM63.1674 52.9834V45.0468H59.9922V32.347H63.1674V25.9963H66.3424V52.9834H63.1674ZM97.0028 60.6812V63.27H75.4782V60.6812H97.0028ZM100.076 60.6806V58.0918H72.4018V60.6806H100.076ZM69.2001 16.1522H66.3427V55.5216H69.2001V16.1522Z" fill="#D59F52"/>
<rect width="5.39741" height="3.49244" transform="matrix(-1 0 0 1 76.1836 22.1853)" fill="#1A1918"/>
<path d="M78.6535 0.59668H96.664V3.18549H78.6535V0.59668Z" fill="#1A1918"/>
<path d="M75.5786 63.1432H97.1032V65.6867H75.5786V63.1432Z" fill="#1A1918"/>
<path d="M100.313 5.6766H103.171V8.53405H100.178L100.313 5.6766Z" fill="#1A1918"/>
<path d="M75.5786 5.7743H72.5036V8.53405H75.5786V5.7743Z" fill="#1A1918"/>
<path d="M78.6535 3.18549H75.5786V5.7743H78.6535V3.18549Z" fill="#1A1918"/>
<path d="M100.313 3.18549H96.664V5.7743L100.313 5.6766V3.18549Z" fill="#1A1918"/>
<path d="M103.171 8.53405H106.328V11.074H103.171V8.53405Z" fill="#1A1918"/>
<path d="M72.5036 8.53405H69.4287V11.074H72.5036V8.53405Z" fill="#1A1918"/>
<path d="M106.328 11.074H109.403V16.1295H106.328V11.074Z" fill="#1A1918"/>
<path d="M109.403 16.1295H112.478V25.3753H109.403V16.1295Z" fill="#1A1918"/>
<path d="M69.4287 11.074H66.3538V16.1539H69.4287V11.074Z" fill="#1A1918"/>
<path d="M112.478 25.3753H115.553V44.9763H112.478V25.3753Z" fill="#1A1918"/>
<path d="M63.1663 16.1539H66.3538V26.1149H63.1663V16.1539Z" fill="#1A1918"/>
<path d="M106.328 47.5651H109.403V55.2058H106.328V47.5651Z" fill="#1A1918"/>
<path d="M63.1663 44.9763H59.9913V52.6658H63.1663V44.9763Z" fill="#1A1918"/>
<path d="M63.1663 26.1149H59.9913V32.402H63.1663V26.1149Z" fill="#1A1918"/>
<path d="M103.253 55.2058H106.328V57.9203H103.253V55.2058Z" fill="#1A1918"/>
<path d="M109.403 44.9763H112.478V47.5651H109.403V44.9763Z" fill="#1A1918"/>
<path d="M69.1987 55.5233H66.3538V58.0633H69.1987V55.5233Z" fill="#1A1918"/>
<path d="M66.3538 52.6658H63.1663V55.5233H66.3538V52.6658Z" fill="#1A1918"/>
<path d="M100.313 57.9203H103.253V60.6032H100.313V57.9203Z" fill="#1A1918"/>
<path d="M72.3736 58.0633H69.1987V60.6032H72.3736V58.0633Z" fill="#1A1918"/>
<path d="M97.1032 60.6032H100.313V63.1432H97.1032V60.6032Z" fill="#1A1918"/>
<path d="M75.5786 60.6032H72.3736V63.1432H75.5786V60.6032Z" fill="#1A1918"/>
<path d="M57.1289 32.402H59.9913V44.9763H57.1289V32.402Z" fill="#1A1918"/>
<rect width="5.39741" height="3.49244" transform="matrix(-1 0 0 1 96.5039 22.1853)" fill="#1A1918"/>
<rect width="5.39741" height="3.49244" transform="matrix(-1 0 0 1 100.631 26.947)" fill="#DB8343"/>
<rect width="5.39741" height="3.49244" transform="matrix(-1 0 0 1 71.7383 26.947)" fill="#DB8343"/>
<rect x="87.6113" y="34.5706" width="2.53996" height="5.39741" fill="#1A1918"/>
<rect x="76.8184" y="34.5706" width="2.22246" height="5.39741" fill="#1A1918"/>
<rect x="90.9551" y="66.0166" width="8.83957" height="2.30597" fill="#B17C31"/>
<rect x="71.4219" y="65.999" width="7.61988" height="2.22246" fill="#B17C31"/>
<rect x="79.0391" y="39.9644" width="8.88986" height="2.53996" fill="#1A1918"/>
<rect x="91.1055" y="63.1418" width="8.88986" height="2.85745" fill="#1A1918"/>
<rect x="91.1055" y="68.2241" width="8.57236" height="2.85745" fill="#1A1918"/>
<rect x="70.7871" y="68.2241" width="8.25487" height="2.85745" fill="#1A1918"/>
<path fill-rule="evenodd" clip-rule="evenodd" d="M78.6552 3.1875H96.6657V5.68041H100.313V8.53787H96.6662V10.9537H80.8522V8.53787H75.5488V5.68041H78.6552V3.1875ZM85.6854 10.9543H96.6673V13.5431H85.6854V10.9543Z" fill="#EBBA77"/>
<path fill-rule="evenodd" clip-rule="evenodd" d="M103.171 8.5332H100.314V22.8205H103.17V47.567H100.18V50.1516H91.3931V52.7404H103.17V52.7411H88.3196V55.3299H103.255V55.2048H106.345V47.5645H109.403V16.129H106.345V11.073H103.171V8.5332ZM109.405 25.3762H112.48V44.9772H109.405V25.3762ZM85.2431 55.3305V57.7435H75.5492V55.2066H72.3737V52.6656H72.3734V50.1259H63.166V52.6658H66.3413V55.5231H69.1993V58.0641H72.3745V60.6009H100.314V57.9193H103.254L103.254 55.3305H85.2431ZM75.5468 60.6021V63.1421H97.1364V60.6021H75.5468Z" fill="#B17C31"/>
<rect x="97.7715" y="63.1418" width="2.53996" height="7.93737" fill="#1A1918"/>
<rect x="90.4707" y="63.4624" width="2.53996" height="7.61988" fill="#1A1918"/>
<rect x="70.7871" y="63.1418" width="2.22246" height="7.93737" fill="#1A1918"/>
<rect x="76.8184" y="63.4624" width="2.22246" height="7.61988" fill="#1A1918"/>
<rect x="70.7871" y="63.1418" width="8.25487" height="2.85745" fill="#1A1918"/>
<path d="M97.1387 62.8262H95.8687V65.3662H97.1387V62.8262Z" fill="#FFC700"/>
<path d="M90.7888 65.3662V66.6362H97.1387L97.1387 65.3662H90.7888Z" fill="#FFC700"/>
<path d="M95.8687 61.5562H94.5987V62.8262H95.8687V61.5562Z" fill="#FFC700"/>
<path d="M93.3287 61.5562H92.0588V63.4612H93.3287V61.5562Z" fill="#FFC700"/>
<path d="M94.5987 59.6513H93.3287V61.5562H94.5987V59.6513Z" fill="#FFC700"/>
<path d="M93.0112 56.4763H91.7413V57.7463H93.0112V56.4763Z" fill="#FFC700"/>
<path d="M92.0588 63.4612H90.7888V65.3662H92.0588V63.4612Z" fill="#FFC700"/>
<path d="M94.5972 61.5542H93.3272V62.5067V63.4592H92.0572V65.9991H95.8672V62.8242H94.5972V61.5542Z" fill="#EA6200"/>
<rect width="1.26998" height="1.26998" transform="matrix(-1 0 0 1 94.5977 64.095)" fill="#EA0000"/>
<path d="M97.7721 66.6349H90.7872V68.2224H97.7721V66.6349Z" fill="#FFEEB4"/>
<path d="M90.7872 66.6349V63.46H89.1998V66.6349H90.7872Z" fill="#FFEEB4"/>
<path d="M98.7246 66.6349L98.7246 62.825H97.1371L97.1371 66.6349H98.7246Z" fill="#FFEEB4"/>
<path d="M97.1371 62.825V61.555H95.8672L95.8672 62.825H97.1371Z" fill="#FFEEB4"/>
<path d="M95.8672 61.555V59.6501H94.5972V61.555H95.8672Z" fill="#FFEEB4"/>
<path d="M94.5972 59.6501L94.5972 58.3801H93.3272V59.6501H94.5972Z" fill="#FFEEB4"/>
<path d="M94.2797 54.2526V52.9827L93.0097 52.9827V54.2526L94.2797 54.2526Z" fill="#FFEEB4"/>
<path d="M93.3272 61.555V60.285H92.0572V61.555H93.3272Z" fill="#FFEEB4"/>
<path d="M92.0572 63.46V62.19H90.7872V63.46H92.0572Z" fill="#FFEEB4"/>
<path d="M76.8223 62.8246H75.5523V65.3645H76.8223V62.8246Z" fill="#FFC700"/>
<path d="M70.4724 65.3645V66.6345H76.8223L76.8223 65.3645H70.4724Z" fill="#FFC700"/>
<path d="M75.5523 61.5546H74.2823V62.8246H75.5523V61.5546Z" fill="#FFC700"/>
<path d="M73.0123 61.5546H71.7423V63.4596H73.0123V61.5546Z" fill="#FFC700"/>
<path d="M74.2823 59.6496H73.0123V61.5546H74.2823V59.6496Z" fill="#FFC700"/>
<path d="M72.6948 54.8872H71.4249V56.1572H72.6948V54.8872Z" fill="#FFC700"/>
<path d="M71.7423 63.4596H70.4724V65.3645H71.7423V63.4596Z" fill="#FFC700"/>
<path d="M74.2808 61.5542H73.0108V62.5067V63.4592H71.7408V65.9991H75.5508V62.8242H74.2808V61.5542Z" fill="#EA6200"/>
<rect width="1.26998" height="1.26998" transform="matrix(-1 0 0 1 74.2812 64.095)" fill="#EA0000"/>
<path d="M77.4557 66.6349H70.4708V68.2224H77.4557V66.6349Z" fill="#FFEEB4"/>
<path d="M70.4708 66.6349V63.46H68.8834V66.6349H70.4708Z" fill="#FFEEB4"/>
<path d="M78.4082 66.6349L78.4082 62.825H76.8207L76.8207 66.6349H78.4082Z" fill="#FFEEB4"/>
<path d="M76.8207 62.825V61.555H75.5507L75.5507 62.825H76.8207Z" fill="#FFEEB4"/>
<path d="M75.5507 61.555V59.6501H74.2808V61.555H75.5507Z" fill="#FFEEB4"/>
<path d="M74.2808 59.6501L74.2808 58.3801H73.0108V59.6501H74.2808Z" fill="#FFEEB4"/>
<path d="M74.5983 54.2526L74.5983 52.9827L73.3283 52.9827V54.2526H74.5983Z" fill="#FFEEB4"/>
<path d="M73.0108 61.555V60.285H71.7408V61.555H73.0108Z" fill="#FFEEB4"/>
<path d="M71.7408 63.46V62.19H70.4708V63.46H71.7408Z" fill="#FFEEB4"/>
</svg>
