<svg xmlns="http://www.w3.org/2000/svg" width="20" height="20" viewBox="0 0 20 20" fill="none">
  <path d="M12.1094 16.146V17.7606H11.3021V18.5679H8.07292V17.7606H7.26562V16.146H12.1094Z" fill="#DC4200"/>
  <path d="M16.9538 13.7238V12.9165H16.1465V11.3019H15.3392V6.45817H14.5319V4.84359H13.7246V4.0363H12.9173V3.229H11.3027V2.42171H10.4954V0.807129H8.88086V2.42171H8.07357V3.229H6.45898V4.0363H5.65169V4.84359H4.8444V6.45817H4.03711V11.3019H3.22982V12.9165H2.42253V13.7238H1.61523V14.5311H2.42253V15.3384H16.9538V14.5311H17.7611V13.7238H16.9538ZM11.3027 4.84359V7.26546H10.4954V9.68734H8.88086V7.26546H8.07357V4.84359H11.3027ZM8.88086 11.3019H10.4954V12.9165H8.88086V11.3019Z" fill="#DC4200"/>
</svg>