<svg width="18" height="18" viewBox="0 0 18 18" fill="current" xmlns="http://www.w3.org/2000/svg">
<g clip-path="url(#clip0_8187_43070)">
<path d="M16.5 6.75V5.25H15.75V3.75H15V3H14.25V2.25H12.75V1.5H11.25V0.75H6.75V1.5H5.25V2.25H3.75V3H3V3.75H2.25V5.25H1.5V6.75H0.75V11.25H1.5V12.75H2.25V14.25H3V15H3.75V15.75H5.25V16.5H6.75V17.25H11.25V16.5H12.75V15.75H14.25V15H15V14.25H15.75V12.75H16.5V11.25H17.25V6.75H16.5ZM15.75 11.25H15V12.75H14.25V14.25H12.75V15H11.25V15.75H6.75V15H5.25V14.25H3.75V12.75H3V11.25H2.25V6.75H3V5.25H3.75V3.75H5.25V3H6.75V2.25H11.25V3H12.75V3.75H14.25V5.25H15V6.75H15.75V11.25Z" fill="current"/>
<path d="M12 11.25V12H11.25V12.75H10.5V12H9.75V11.25H9V10.5H8.25V3.75H9.75V9.75H10.5V10.5H11.25V11.25H12Z" fill="current"/>
</g>
<defs>
<clipPath id="clip0_8187_43070">
<rect width="18" height="18" fill="white"/>
</clipPath>
</defs>
</svg>
