<svg xmlns="http://www.w3.org/2000/svg" width="19" height="19" viewBox="0 0 19 19" fill="none">
  <path d="M15.8333 4.74984V9.49984H15.0417V10.2915H14.25V11.0832H12.6667V11.8748H7.91667V9.49984H10.2917V10.2915H13.4583V9.49984H14.25V8.70817H15.0417V5.5415H14.25V3.95817H13.4583V3.1665H12.6667V2.37484H11.875V1.58317H7.125V2.37484H6.33333V3.1665H5.54167V3.95817H4.75V5.5415H3.95833V8.70817H3.16667V7.9165H2.375V5.5415H3.16667V4.74984H3.95833V3.1665H4.75V2.37484H5.54167V1.58317H6.33333V0.791504H12.6667V1.58317H13.4583V2.37484H14.25V3.1665H15.0417V4.74984H15.8333Z" fill="#FFA000"/>
  <path d="M14.25 6.33317V7.9165H13.4583V8.70817H12.6667V9.49984H11.0833V8.70817H7.125V11.0832H6.33333V10.2915H5.54167V9.49984H4.75V6.33317H5.54167V4.74984H6.33333V3.95817H7.125V3.1665H11.875V3.95817H12.6667V4.74984H13.4583V6.33317H14.25Z" fill="black"/>
  <path d="M17.4173 15.0415V17.4165H16.6257V18.2082H2.37565V17.4165H1.58398V15.0415H2.37565V14.2498H3.16732V13.4582H3.95898V12.6665H7.12565V13.4582H11.8757V12.6665H15.0423V13.4582H15.834V14.2498H16.6257V15.0415H17.4173Z" fill="black"/>
</svg>