<svg width="22" height="22" viewBox="0 0 22 22" fill="none" xmlns="http://www.w3.org/2000/svg">
<path fill-rule="evenodd" clip-rule="evenodd" d="M11 20.1668C16.0627 20.1668 20.1667 16.0628 20.1667 11.0002C20.1667 5.93755 16.0627 1.8335 11 1.8335C5.93743 1.8335 1.83337 5.93755 1.83337 11.0002C1.83337 16.0628 5.93743 20.1668 11 20.1668ZM8.14516 6.4168C8.52043 6.40983 8.89517 6.4483 9.2612 6.53138C9.56938 6.59866 9.86198 6.72387 10.1234 6.90034C10.3649 7.07582 10.556 7.31173 10.6774 7.5844C10.8171 7.91969 10.8844 8.28065 10.8751 8.64372C10.891 9.04239 10.7891 9.4369 10.5823 9.7781C10.3648 10.1004 10.0641 10.3577 9.71208 10.5229C10.1898 10.6517 10.6058 10.9466 10.8854 11.3548C11.1538 11.7872 11.2888 12.2892 11.2733 12.7979C11.2821 13.2036 11.1983 13.6059 11.0281 13.9741C10.8708 14.2954 10.6404 14.5754 10.3555 14.7917C10.0621 15.0056 9.73199 15.1639 9.38151 15.2586C9.01805 15.3592 8.64258 15.4097 8.26547 15.4087H4.125V6.4168H8.14516ZM7.90625 10.0537C8.20111 10.0658 8.49136 9.97756 8.72953 9.80331C8.8436 9.70176 8.93233 9.57495 8.98863 9.43299C9.04494 9.29104 9.06725 9.13788 9.0538 8.98576C9.06144 8.80809 9.02606 8.6312 8.95068 8.47013C8.88673 8.34189 8.78731 8.23471 8.66422 8.16133C8.53955 8.08056 8.39948 8.02652 8.25286 8.00263C8.09378 7.97181 7.93191 7.9578 7.7699 7.96081H6.00073V10.0617H7.90625V10.0537ZM8.00938 13.8819C8.18769 13.8843 8.36564 13.8651 8.53932 13.8246C8.69804 13.7896 8.84857 13.7244 8.98276 13.6327C9.11422 13.541 9.22043 13.4177 9.29156 13.274C9.37404 13.0909 9.41193 12.8908 9.40214 12.6902C9.42002 12.5074 9.3958 12.323 9.33135 12.1509C9.2669 11.9789 9.16392 11.824 9.03031 11.6979C8.74712 11.4894 8.40007 11.386 8.04891 11.4058H6.00073V13.8819H8.00938ZM13.9448 13.8487C14.092 13.9851 14.2654 14.0902 14.4545 14.1576C14.6436 14.225 14.8445 14.2532 15.0448 14.2405C15.3624 14.2486 15.6738 14.1519 15.9311 13.9655C16.1404 13.8295 16.2989 13.6281 16.382 13.3926H17.8779C17.7185 14.0628 17.3293 14.656 16.7779 15.069C16.2489 15.4201 15.6238 15.5979 14.9892 15.5777C14.5363 15.5837 14.0869 15.4985 13.6675 15.3274C13.2882 15.1692 12.9479 14.93 12.6706 14.6267C12.3944 14.3088 12.1821 13.9406 12.0456 13.5422C11.8923 13.0968 11.8173 12.6283 11.8239 12.1574C11.8211 11.6944 11.8986 11.2344 12.053 10.7979C12.2605 10.1838 12.6572 9.65119 13.1861 9.27653C13.7151 8.90187 14.3491 8.70441 14.9972 8.71247C15.4758 8.70247 15.949 8.81446 16.3722 9.03789C16.7549 9.24769 17.0849 9.54152 17.3376 9.89727C17.5961 10.2706 17.7814 10.6895 17.8836 11.1319C17.9957 11.6069 18.0357 12.0962 18.0022 12.5831H13.5466C13.5105 13.0406 13.6533 13.4943 13.9448 13.8487ZM15.8996 10.4289C15.7749 10.3042 15.6249 10.2077 15.4598 10.1458C15.2947 10.0839 15.1182 10.0582 14.9422 10.0703C14.7088 10.0614 14.4771 10.1131 14.2696 10.2204C14.1052 10.3109 13.96 10.4328 13.8422 10.579C13.7379 10.7162 13.6602 10.8716 13.6131 11.0374C13.5706 11.1756 13.5441 11.3182 13.534 11.4625H16.2938C16.2697 11.0864 16.1327 10.7264 15.9007 10.4295L15.8996 10.4289ZM16.6364 7.01721H13.1782V7.90122H16.6364V7.01721Z" fill="#FFFBF6"/>
</svg>
