<svg width="36" height="36" viewBox="0 0 36 36" fill="none" xmlns="http://www.w3.org/2000/svg">
<g clip-path="url(#clip0_11136_4953)">
<path fill-rule="evenodd" clip-rule="evenodd" d="M18 36C27.9411 36 36 27.9411 36 18C36 8.05887 27.9411 0 18 0C8.05887 0 0 8.05887 0 18C0 27.9411 8.05887 36 18 36ZM12.3941 9.00011C13.131 8.98643 13.8669 9.06198 14.5856 9.22511C15.1908 9.35723 15.7653 9.60309 16.2788 9.94961C16.7529 10.2942 17.1281 10.7574 17.3666 11.2929C17.6408 11.9513 17.773 12.66 17.7547 13.373C17.7859 14.1558 17.586 14.9305 17.1799 15.6005C16.7527 16.2333 16.1622 16.7386 15.471 17.063C16.409 17.3159 17.2259 17.8951 17.775 18.6965C18.3021 19.5456 18.567 20.5314 18.5366 21.5304C18.554 22.3269 18.3893 23.1168 18.0551 23.84C17.7462 24.4709 17.2939 25.0207 16.7344 25.4454C16.1583 25.8654 15.5101 26.1762 14.8219 26.3622C14.1082 26.5597 13.3709 26.6588 12.6304 26.657H4.5V9.00011H12.3941ZM11.925 16.1416C12.504 16.1655 13.0739 15.9922 13.5416 15.65C13.7656 15.4506 13.9398 15.2016 14.0504 14.9228C14.161 14.6441 14.2048 14.3433 14.1784 14.0446C14.1934 13.6957 14.1239 13.3484 13.9759 13.0321C13.8503 12.7803 13.6551 12.5698 13.4134 12.4257C13.1686 12.2671 12.8935 12.161 12.6056 12.1141C12.2932 12.0536 11.9754 12.0261 11.6573 12.032H8.18325V16.1574H11.925V16.1416ZM12.1275 23.6589C12.4776 23.6636 12.8271 23.6258 13.1681 23.5464C13.4798 23.4775 13.7754 23.3496 14.0389 23.1695C14.297 22.9895 14.5056 22.7473 14.6453 22.4652C14.8072 22.1056 14.8816 21.7128 14.8624 21.3189C14.8975 20.9599 14.8499 20.5976 14.7234 20.2599C14.5968 19.9221 14.3946 19.6179 14.1323 19.3704C13.5762 18.9608 12.8947 18.7579 12.2051 18.7966H8.18325V23.6589H12.1275ZM23.7825 23.5936C24.0716 23.8616 24.4122 24.068 24.7835 24.2002C25.1548 24.3325 25.5491 24.3879 25.9425 24.3631C26.5662 24.3789 27.1777 24.1891 27.6829 23.8231C28.0939 23.5559 28.4051 23.1604 28.5683 22.6981H31.5056C31.1927 24.0142 30.4284 25.1789 29.3456 25.9899C28.3069 26.6793 27.0794 27.0284 25.8334 26.9889C24.9441 27.0005 24.0615 26.8333 23.238 26.4972C22.4931 26.1866 21.8251 25.717 21.2805 25.1214C20.738 24.4972 20.3212 23.7741 20.0531 22.9917C19.7522 22.1173 19.6049 21.1973 19.6178 20.2726C19.6123 19.3634 19.7645 18.4601 20.0678 17.603C20.4751 16.3971 21.254 15.3513 22.2927 14.6156C23.3314 13.8799 24.5764 13.4921 25.8491 13.508C26.7888 13.4883 27.718 13.7083 28.5491 14.147C29.3004 14.559 29.9486 15.1359 30.4448 15.8345C30.9523 16.5675 31.3161 17.3902 31.5169 18.2589C31.737 19.1917 31.8155 20.1523 31.7498 21.1085H23.0006C22.9297 22.0068 23.21 22.8977 23.7825 23.5936ZM27.621 16.8785C27.3762 16.6336 27.0817 16.444 26.7574 16.3225C26.4332 16.2011 26.0866 16.1505 25.7411 16.1742C25.2828 16.1568 24.8278 16.2583 24.4204 16.469C24.0974 16.6468 23.8123 16.886 23.5811 17.1732C23.3763 17.4425 23.2236 17.7478 23.1311 18.0732C23.0478 18.3447 22.9957 18.6247 22.9759 18.908H28.395C28.3478 18.1696 28.0788 17.4626 27.6233 16.8796L27.621 16.8785ZM29.0678 10.1791H22.2773V11.915H29.0678V10.1791Z" fill="black"/>
</g>
<defs>
<clipPath id="clip0_11136_4953">
<rect width="36" height="36" fill="white"/>
</clipPath>
</defs>
</svg>
