<svg xmlns="http://www.w3.org/2000/svg" width="44" height="33" viewBox="0 0 44 33" fill="none">
  <path d="M6.56787 0H0.436035V6.52612H6.56787V0Z" fill="#FFC700"/>
  <path d="M6.56787 26.1043H0.436035V32.6305H6.56787V26.1043Z" fill="#FFC700"/>
  <path d="M6.56787 13.0522H0.436035V19.5783H6.56787V13.0522Z" fill="#FFC700"/>
  <path d="M43.436 2.29857V4.59708H41.3866V6.89558H16.7931V4.59708H14.7437V2.29857H16.7931V6.10352e-05H41.3866V2.29857H43.436Z" fill="#F86C14"/>
  <path d="M41.3866 15.3507H43.436V17.6492H41.3866V19.9477H16.7931V17.6492H14.7437V15.3507H16.7931V13.0522H41.3866V15.3507Z" fill="#F86C14"/>
  <path d="M41.3866 28.4028H43.436V30.7014H41.3866V32.9999H16.7931V30.7014H14.7437V28.4028H16.7931V26.1043H41.3866V28.4028Z" fill="#F86C14"/>
</svg>