<svg xmlns="http://www.w3.org/2000/svg" width="73" height="80" viewBox="0 0 73 80" fill="none">
  <path d="M48.9907 26.0699H26.3992V55.1069H49.0185C49.1668 53.8509 49.3337 52.4564 49.5284 50.8245H69.0121V44.9148L72.2542 50.8245V70.0309C71.1233 70.1891 69.5984 70.377 68.0039 70.6045C67.8649 72.0089 67.7258 73.4034 67.5589 75.0847C66.1035 75.2034 64.7964 75.3121 63.3317 75.4308C63.1927 77.1319 63.0722 78.5363 62.9516 80H15.2846L13.895 74.0421H6.02119L4.63168 69.3521V64.1684L1.3895 63.6747L0 59.2316V16.4074H7.51575V6.39869H67.3643L69.0121 5.42024L72.2542 11.3437V30.4266L49.6396 30.55C49.4542 29.2545 49.2503 27.8699 48.9907 26.0798V26.0699Z" fill="#F86C14"/>
  <path d="M45.7485 20.1546H23.157V49.1916H45.7763C45.9246 47.9356 46.0915 46.5411 46.2862 44.9093H69.0121V64.1156C67.8811 64.2739 66.3562 64.4618 64.7617 64.6892C64.6227 66.0936 64.4836 67.4881 64.3168 69.1694C62.8613 69.2881 61.5542 69.3969 60.0895 69.5156C59.9505 71.2166 59.8692 72.5783 59.7487 74.0421H13.895L13.4522 69.3902L4.63168 69.3521V59.7253L0 59.23V10.4921C1.20513 10.2844 2.50296 10.0569 4.27357 9.75034V0.483418H64.1221C64.326 1.69 64.5485 3.06471 64.8359 4.75589C66.0039 4.95369 67.4269 5.17127 69.0121 5.42841V24.5113L46.3974 24.6348C46.212 23.3392 46.0081 21.9546 45.7485 20.1645V20.1546Z" fill="#FFC700"/>
</svg>