<svg xmlns="http://www.w3.org/2000/svg" width="13" height="12" viewBox="0 0 13 12" fill="none">
  <g clip-path="url(#clip0_10197_13723)">
    <path d="M4.51367 0.5H3.51367V1H4.51367V0.5Z" fill="#F7F4F0"/>
    <path d="M9.51367 0.5H8.51367V1H9.51367V0.5Z" fill="#F7F4F0"/>
    <path d="M11.5137 2.5V2H10.0137V1H9.51367V3.5H8.51367V1H8.01367V2H5.01367V1H4.51367V3.5H3.51367V1H3.01367V2H1.51367V2.5H1.01367V11H1.51367V11.5H11.5137V11H12.0137V2.5H11.5137ZM11.0137 4V5.5H9.51367V4H11.0137ZM11.0137 8H9.51367V6.5H11.0137V8ZM11.0137 10.5H9.51367V9H11.0137V10.5ZM2.01367 9H3.51367V10.5H2.01367V9ZM2.01367 6.5H3.51367V8H2.01367V6.5ZM8.51367 8H7.01367V6.5H8.51367V8ZM6.01367 8H4.51367V6.5H6.01367V8ZM4.51367 9H6.01367V10.5H4.51367V9ZM7.01367 9H8.51367V10.5H7.01367V9ZM8.51367 5.5H7.01367V4H8.51367V5.5ZM6.01367 4V5.5H4.51367V4H6.01367ZM3.51367 5.5H2.01367V4H3.51367V5.5Z" fill="#F7F4F0"/>
  </g>
  <defs>
    <clipPath id="clip0_10197_13723">
      <rect width="12" height="12" fill="white" transform="translate(0.513672)"/>
    </clipPath>
  </defs>
</svg>