<svg width="72" height="88" viewBox="0 0 72 88" fill="none" xmlns="http://www.w3.org/2000/svg">
<path fill-rule="evenodd" clip-rule="evenodd" d="M15.2815 9.91016H53.4077V13.0813H57.1248V19.4237H60.6463L60.6463 31.712H64.559V39.6399H68.4717V55.4957H64.559V65.4057H60.6463L60.6463 68.5768H57.1248V71.748H53.4077V71.7829H53.1759V75.015H19.0706V71.7829H15.2815V68.5506H11.4925V13.1421H15.2815V9.91016ZM7.70208 19.6068H11.4913V58.8544H7.70208V19.6068ZM7.70162 31.1503H3.9124V55.6223H7.70162V31.1503ZM22.8596 75.0152V78.2473H49.3859V75.0152H22.8596Z" fill="#E67C5A"/>
<rect x="48.5176" y="26.9551" width="6.65161" height="4.36036" fill="#1A1918"/>
<path d="M45.4737 0H23.2782V3.23216H45.4737V0Z" fill="#1A1918"/>
<path d="M49.2632 78.0901H22.7368V81.2657H49.2632V78.0901Z" fill="#1A1918"/>
<path d="M18.781 6.34234H15.2596V9.90991H18.9474L18.781 6.34234Z" fill="#1A1918"/>
<path d="M49.2632 6.46432H53.0526V9.90991H49.2632V6.46432Z" fill="#1A1918"/>
<path d="M45.4737 3.23216H49.2632V6.46432H45.4737V3.23216Z" fill="#1A1918"/>
<path d="M18.781 3.23216H23.2782V6.46432L18.781 6.34234V3.23216Z" fill="#1A1918"/>
<path d="M15.2596 9.90991H11.3684V13.0811H15.2596V9.90991Z" fill="#1A1918"/>
<path d="M53.0526 9.90991H56.8421V13.0811H53.0526V9.90991Z" fill="#1A1918"/>
<path d="M11.3684 13.0811H7.57895V19.393H11.3684V13.0811Z" fill="#1A1918"/>
<path d="M7.57895 19.393H3.78948V30.9364H7.57895V19.393Z" fill="#1A1918"/>
<path d="M56.8421 13.0811H60.6316V19.4234H56.8421V13.0811Z" fill="#1A1918"/>
<path d="M3.78948 30.9364H0V55.4085H3.78948V30.9364Z" fill="#1A1918"/>
<path d="M64.5597 19.4234H60.6316V31.8599H64.5597V19.4234Z" fill="#1A1918"/>
<path d="M11.3684 58.6406H7.57895V68.1802H11.3684V58.6406Z" fill="#1A1918"/>
<path d="M64.5597 55.4085H68.4724V65.009H64.5597V55.4085Z" fill="#1A1918"/>
<path d="M64.5597 31.8599H68.4724V39.7094H64.5597V31.8599Z" fill="#1A1918"/>
<path d="M15.1579 68.1802H11.3684V71.5693H15.1579V68.1802Z" fill="#1A1918"/>
<path d="M7.57895 55.4085H3.78948V58.6406H7.57895V55.4085Z" fill="#1A1918"/>
<path d="M57.1256 68.5766H60.6316V71.7477H57.1256V68.5766Z" fill="#1A1918"/>
<path d="M60.6316 65.009H64.5597V68.5766H60.6316V65.009Z" fill="#1A1918"/>
<path d="M18.781 71.5693H15.1579V74.9189H18.781V71.5693Z" fill="#1A1918"/>
<path d="M53.2129 71.7477H57.1256V74.9189H53.2129V71.7477Z" fill="#1A1918"/>
<path d="M22.7368 74.9189H18.781V78.0901H22.7368V74.9189Z" fill="#1A1918"/>
<path d="M49.2632 74.9189H53.2129V78.0901H49.2632V74.9189Z" fill="#1A1918"/>
<path d="M72 39.7094H68.4724V55.4085H72V39.7094Z" fill="#1A1918"/>
<rect x="23.4766" y="26.9551" width="6.65161" height="4.36036" fill="#1A1918"/>
<rect width="3.13017" height="6.73874" transform="matrix(-1 0 0 1 34.4316 42.4146)" fill="#1A1918"/>
<rect width="2.7389" height="6.73874" transform="matrix(-1 0 0 1 47.7354 42.4146)" fill="#1A1918"/>
<rect width="10.8936" height="2.87904" transform="matrix(-1 0 0 1 30.3125 81.6772)" fill="#B15031"/>
<rect width="9.39051" height="2.77477" transform="matrix(-1 0 0 1 54.3867 81.6577)" fill="#B15031"/>
<rect width="10.9556" height="3.17117" transform="matrix(-1 0 0 1 44.9961 49.1533)" fill="#1A1918"/>
<rect width="10.9556" height="3.56757" transform="matrix(-1 0 0 1 30.1279 78.0898)" fill="#1A1918"/>
<rect width="10.5643" height="3.56757" transform="matrix(-1 0 0 1 30.1279 84.4326)" fill="#1A1918"/>
<rect width="10.173" height="3.56757" transform="matrix(-1 0 0 1 55.1689 84.4326)" fill="#1A1918"/>
<path fill-rule="evenodd" clip-rule="evenodd" d="M45.4732 3.23291H23.2777V6.34292H18.7797V9.91049H23.2796V12.9289H42.7683V9.91049H49.2988V6.34292H45.4732V3.23291ZM36.8136 12.9291H23.2798V16.1612H36.8136V12.9291Z" fill="#EBBA77"/>
<path fill-rule="evenodd" clip-rule="evenodd" d="M15.2583 9.91016H18.7797V27.748H15.2583V9.91016ZM11.3447 13.0819H15.2575V58.6421H18.9447V61.8737H29.7719V65.1056H33.5608V68.3378H15.1548V68.181H11.3447V58.6413H7.57647V19.3937H11.3447V13.0819ZM7.57601 30.9375H3.78679V55.4096H7.57601V30.9375ZM37.3513 68.3379V71.3522H49.298V68.181H53.2108L53.2108 65.0098V61.8386H64.5576V65.0098H60.6449V68.5774H57.1235V71.7486H53.2108V74.9197H49.2988V78.0909H22.6924V74.9197L18.7789 74.9197V71.5701H15.1558L15.1558 68.3379H37.3513Z" fill="#B15031"/>
<rect width="3.13017" height="9.90991" transform="matrix(-1 0 0 1 21.9111 78.0898)" fill="#1A1918"/>
<rect width="3.13017" height="9.51351" transform="matrix(-1 0 0 1 30.9102 78.4863)" fill="#1A1918"/>
<rect width="2.7389" height="9.90991" transform="matrix(-1 0 0 1 55.1689 78.0898)" fill="#1A1918"/>
<rect width="2.7389" height="9.51351" transform="matrix(-1 0 0 1 47.7354 78.4863)" fill="#1A1918"/>
<rect width="10.173" height="3.56757" transform="matrix(-1 0 0 1 55.1689 78.0898)" fill="#1A1918"/>
</svg>
