<svg width="72" height="88" viewBox="0 0 72 88" fill="none" xmlns="http://www.w3.org/2000/svg">
<path fill-rule="evenodd" clip-rule="evenodd" d="M15.2834 9.91016H53.4097V13.0813H57.1268L57.1268 19.4237H60.6482L60.6482 31.712H64.5609V39.6399H68.4736V55.4957H64.5609V65.4057H60.6482L60.6482 68.5768H57.1268L57.1268 71.748H53.4097V71.7829H53.1779V75.015H19.0726V71.7829H15.2834V68.5506H11.4945V13.1421H15.2834V9.91016ZM7.70403 19.6068H11.4932V58.8544H7.70403V19.6068ZM7.70358 31.1503H3.91435V55.6223H7.70358V31.1503ZM22.8615 75.0152V78.2473H49.3878V75.0152H22.8615Z" fill="#6A9669"/>
<rect x="48.5176" y="26.9561" width="6.65161" height="14.2703" fill="#1A1918"/>
<path d="M45.4737 0.000976562H23.2782V3.23314H45.4737V0.000976562Z" fill="#1A1918"/>
<path d="M49.2632 78.0911H22.7368V81.2667H49.2632V78.0911Z" fill="#1A1918"/>
<path d="M18.781 6.34332H15.2596V9.91089H18.9474L18.781 6.34332Z" fill="#1A1918"/>
<path d="M49.2632 6.4653H53.0526V9.91089H49.2632V6.4653Z" fill="#1A1918"/>
<path d="M45.4737 3.23314H49.2632V6.4653H45.4737V3.23314Z" fill="#1A1918"/>
<path d="M18.781 3.23314H23.2782V6.4653L18.781 6.34332V3.23314Z" fill="#1A1918"/>
<path d="M15.2596 9.91089H11.3684V13.0821H15.2596V9.91089Z" fill="#1A1918"/>
<path d="M53.0526 9.91089H56.8421V13.0821H53.0526V9.91089Z" fill="#1A1918"/>
<path d="M11.3684 13.0821H7.57895V19.3939H11.3684V13.0821Z" fill="#1A1918"/>
<path d="M7.57895 19.3939H3.78948V30.9374H7.57895V19.3939Z" fill="#1A1918"/>
<path d="M56.8421 13.0821H60.6316V19.4244H56.8421V13.0821Z" fill="#1A1918"/>
<path d="M3.78948 30.9374H0V55.4094H3.78948V30.9374Z" fill="#1A1918"/>
<path d="M64.5597 19.4244H60.6316V31.8608H64.5597V19.4244Z" fill="#1A1918"/>
<path d="M11.3684 58.6416H7.57895V68.1812H11.3684V58.6416Z" fill="#1A1918"/>
<path d="M64.5597 55.4094H68.4724V65.01H64.5597V55.4094Z" fill="#1A1918"/>
<path d="M64.5597 31.8608H68.4724V39.7104H64.5597V31.8608Z" fill="#1A1918"/>
<path d="M15.1579 68.1812H11.3684V71.5702H15.1579V68.1812Z" fill="#1A1918"/>
<path d="M7.57895 55.4094H3.78948V58.6416H7.57895V55.4094Z" fill="#1A1918"/>
<path d="M57.1256 68.5775H60.6316V71.7487H57.1256V68.5775Z" fill="#1A1918"/>
<path d="M60.6316 65.01H64.5597V68.5775H60.6316V65.01Z" fill="#1A1918"/>
<path d="M18.781 71.5702H15.1579V74.9199H18.781V71.5702Z" fill="#1A1918"/>
<path d="M53.2129 71.7487H57.1256V74.9199H53.2129V71.7487Z" fill="#1A1918"/>
<path d="M22.7368 74.9199H18.781V78.0911H22.7368V74.9199Z" fill="#1A1918"/>
<path d="M49.2632 74.9199H53.2129V78.0911H49.2632V74.9199Z" fill="#1A1918"/>
<path d="M72 39.7104H68.4724V55.4094H72V39.7104Z" fill="#1A1918"/>
<rect x="23.4766" y="26.9561" width="6.65161" height="14.2703" fill="#1A1918"/>
<rect width="3.13017" height="6.73874" transform="matrix(-1 0 0 1 34.4316 42.415)" fill="#1A1918"/>
<rect width="2.7389" height="6.73874" transform="matrix(-1 0 0 1 47.7354 42.415)" fill="#1A1918"/>
<rect width="10.8936" height="3.35888" transform="matrix(-1 0 0 1 45.0371 42.415)" fill="#1A1918"/>
<rect width="10.9556" height="3.56757" transform="matrix(-1 0 0 1 44.9961 45.5869)" fill="#FAFAFA"/>
<rect width="10.8936" height="2.87904" transform="matrix(-1 0 0 1 30.3125 81.6777)" fill="#2D5F2C"/>
<rect width="9.39051" height="2.77477" transform="matrix(-1 0 0 1 54.3867 81.6582)" fill="#2D5F2C"/>
<rect width="10.9556" height="3.17117" transform="matrix(-1 0 0 1 44.9961 49.1543)" fill="#1A1918"/>
<rect width="10.9556" height="3.56757" transform="matrix(-1 0 0 1 30.1279 78.0908)" fill="#1A1918"/>
<rect width="10.5643" height="3.56757" transform="matrix(-1 0 0 1 30.1279 84.4336)" fill="#1A1918"/>
<rect width="10.173" height="3.56757" transform="matrix(-1 0 0 1 55.1689 84.4336)" fill="#1A1918"/>
<path fill-rule="evenodd" clip-rule="evenodd" d="M45.4723 3.23438H23.2768V6.34438H18.7787V9.91195H23.2786V12.9302H42.7673V9.91195H49.2979V6.34438H45.4723V3.23438ZM36.8127 12.9305H23.2788V16.1627H36.8127V12.9305Z" fill="#97B197"/>
<path fill-rule="evenodd" clip-rule="evenodd" d="M15.2586 9.91016H18.7801V27.748H15.2586V9.91016ZM11.3447 13.0807H15.2575V58.6409H18.9447V61.8725H29.7719V65.1045H33.5608V68.3366H15.1548V68.1798H11.3447V58.6402H7.57647V19.3925H11.3447V13.0807ZM7.57601 30.9364H3.78679V55.4084H7.57601V30.9364ZM37.3513 68.3368V71.351H49.298V68.1798H53.2108V65.0087V61.8375H64.5576V65.0087H60.6449V68.5762H57.1235V71.7474H53.2108V74.9186H49.2988V78.0897H22.6924V74.9186H18.7789V71.5689H15.1558L15.1558 68.3368H37.3513Z" fill="#2D5F2C"/>
<rect width="3.13017" height="9.90991" transform="matrix(-1 0 0 1 21.9111 78.0908)" fill="#1A1918"/>
<rect width="3.13017" height="9.51351" transform="matrix(-1 0 0 1 30.9102 78.4873)" fill="#1A1918"/>
<rect width="2.7389" height="9.90991" transform="matrix(-1 0 0 1 55.1689 78.0908)" fill="#1A1918"/>
<rect width="2.7389" height="9.51351" transform="matrix(-1 0 0 1 47.7354 78.4873)" fill="#1A1918"/>
<rect width="10.173" height="3.56757" transform="matrix(-1 0 0 1 55.1689 78.0908)" fill="#1A1918"/>
<rect x="21.9121" y="40.4336" width="8.21669" height="8.72072" fill="#426141"/>
<rect x="48.5186" y="40.4336" width="8.21669" height="8.72072" fill="#426141"/>
</svg>
