<svg width="110" height="89" viewBox="0 0 110 89" fill="none" xmlns="http://www.w3.org/2000/svg">
<path fill-rule="evenodd" clip-rule="evenodd" d="M14.9697 9.77637H52.3156V12.9047H55.9567L55.9567 19.1614H59.406L59.406 31.2836H63.2387V39.1044H67.0713V54.7461H63.2387V64.5221H59.406L59.406 67.6504H55.9567L55.9567 70.7788H52.3156V70.8132H52.0886V74.0016H18.6813V70.8132H14.9697V67.6245H11.2583V12.9646H14.9697V9.77637ZM7.54539 19.342H11.2571V58.0594H7.54539V19.342ZM7.54495 30.7295H3.83328V54.871H7.54495V30.7295ZM22.3927 74.0018V77.1903H48.3761V74.0018H22.3927Z" fill="#D59F52"/>
<rect x="47.5244" y="26.5913" width="6.51548" height="14.0775" fill="#1A1918"/>
<rect x="50.5908" y="28.1553" width="3.44937" height="5.08353" fill="#FAFAFA"/>
<path d="M44.5429 0.000488281H22.8017V3.18898H44.5429V0.000488281Z" fill="#1A1918"/>
<path d="M48.2549 77.0356H22.2714V80.1683H48.2549V77.0356Z" fill="#1A1918"/>
<path d="M18.3966 6.25714H14.9472V9.77651H18.5595L18.3966 6.25714Z" fill="#1A1918"/>
<path d="M48.2549 6.37747H51.9668V9.77651H48.2549V6.37747Z" fill="#1A1918"/>
<path d="M44.5429 3.18898H48.2549V6.37747H44.5429V3.18898Z" fill="#1A1918"/>
<path d="M18.3966 3.18898H22.8017V6.37747L18.3966 6.25714V3.18898Z" fill="#1A1918"/>
<path d="M14.9472 9.77651H11.1357V12.9048H14.9472V9.77651Z" fill="#1A1918"/>
<path d="M51.9668 9.77651H55.6787V12.9048H51.9668V9.77651Z" fill="#1A1918"/>
<path d="M11.1357 12.9048H7.42376V19.1314H11.1357V12.9048Z" fill="#1A1918"/>
<path d="M7.42376 19.1314H3.71185V30.5189H7.42376V19.1314Z" fill="#1A1918"/>
<path d="M55.6787 12.9048H59.3906V19.1615H55.6787V12.9048Z" fill="#1A1918"/>
<path d="M3.71185 30.5189H-7.62939e-05V54.6604H3.71185V30.5189Z" fill="#1A1918"/>
<path d="M63.2384 19.1615H59.3906V31.4299H63.2384V19.1615Z" fill="#1A1918"/>
<path d="M11.1357 57.8489H7.42376V67.2595H11.1357V57.8489Z" fill="#1A1918"/>
<path d="M63.2384 54.6604H67.071V64.1312H63.2384V54.6604Z" fill="#1A1918"/>
<path d="M63.2384 31.4299H67.071V39.1734H63.2384V31.4299Z" fill="#1A1918"/>
<path d="M14.8476 67.2595H11.1357V70.6028H14.8476V67.2595Z" fill="#1A1918"/>
<path d="M7.42376 54.6604H3.71185V57.8489H7.42376V54.6604Z" fill="#1A1918"/>
<path d="M55.9564 67.6506H59.3906V70.7789H55.9564V67.6506Z" fill="#1A1918"/>
<path d="M59.3906 64.1312H63.2384V67.6506H59.3906V64.1312Z" fill="#1A1918"/>
<path d="M18.3966 70.6028H14.8476V73.9072H18.3966V70.6028Z" fill="#1A1918"/>
<path d="M52.1237 70.7789H55.9564V73.9072H52.1237V70.7789Z" fill="#1A1918"/>
<path d="M22.2714 73.9072H18.3966V77.0356H22.2714V73.9072Z" fill="#1A1918"/>
<path d="M48.2549 73.9072H52.1237V77.0356H48.2549V73.9072Z" fill="#1A1918"/>
<path d="M70.5264 39.1734H67.071V54.6604H70.5264V39.1734Z" fill="#1A1918"/>
<rect x="22.9961" y="26.5913" width="6.51548" height="14.0775" fill="#1A1918"/>
<rect x="26.0615" y="28.1553" width="3.44937" height="5.08353" fill="#FAFAFA"/>
<rect width="10.6707" height="2.84014" transform="matrix(-1 0 0 1 29.6924 80.5742)" fill="#B17C31"/>
<rect width="9.19832" height="2.73729" transform="matrix(-1 0 0 1 53.2734 80.5547)" fill="#B17C31"/>
<rect width="10.7314" height="3.12833" transform="matrix(-1 0 0 1 44.8418 46.1436)" fill="#1A1918"/>
<rect width="10.7314" height="3.51937" transform="matrix(-1 0 0 1 29.5117 77.0356)" fill="#1A1918"/>
<rect width="10.3481" height="3.51937" transform="matrix(-1 0 0 1 29.5117 83.292)" fill="#1A1918"/>
<rect width="9.96485" height="3.51937" transform="matrix(-1 0 0 1 54.04 83.292)" fill="#1A1918"/>
<path fill-rule="evenodd" clip-rule="evenodd" d="M44.5447 3.18896H22.8035V6.25696H18.3974V9.77632H22.8025V12.754H41.8924V9.77632H48.292V6.25696H44.5447V3.18896ZM36.0596 12.7541H22.8027V15.9426H36.0596V12.7541Z" fill="#EBBA77"/>
<path fill-rule="evenodd" clip-rule="evenodd" d="M14.9478 9.77686H18.3972V27.3737H14.9481V57.85H18.5599V61.038H29.1655V64.2262H32.8769V67.4147H14.8475V67.2601H11.1154V57.8493H7.42429V19.1319H11.1154V12.9054H14.9478V9.77686ZM7.42384 30.5198H3.71217V54.6612H7.42384V30.5198ZM36.5897 67.4149V70.3884H48.292L48.292 67.2601H52.1246V64.1318L52.1246 61.0034H63.2393V64.1317L59.4066 64.1318V67.6511H55.9573V70.7794H52.1246V73.9078H48.2927V77.0361H22.2308V73.9078H18.3974V70.6034H14.8485V67.4149H36.5897Z" fill="#B17C31"/>
<rect width="3.06611" height="9.77602" transform="matrix(-1 0 0 1 21.4629 77.0356)" fill="#1A1918"/>
<rect width="3.06611" height="9.38498" transform="matrix(-1 0 0 1 30.2773 77.4268)" fill="#1A1918"/>
<rect width="2.68284" height="9.77602" transform="matrix(-1 0 0 1 54.04 77.0356)" fill="#1A1918"/>
<rect width="2.68284" height="9.38498" transform="matrix(-1 0 0 1 46.7578 77.4268)" fill="#1A1918"/>
<rect width="9.96485" height="3.51937" transform="matrix(-1 0 0 1 54.04 77.0356)" fill="#1A1918"/>
<rect width="9.96485" height="3.51937" transform="matrix(-1 0 0 1 33.3447 59.439)" fill="#1A1918"/>
<rect width="2.68284" height="9.77602" transform="matrix(-1 0 0 1 33.3447 53.1821)" fill="#1A1918"/>
<rect width="2.68284" height="9.38498" transform="matrix(-1 0 0 1 26.0625 53.5732)" fill="#1A1918"/>
<rect width="9.96485" height="3.51937" transform="matrix(-1 0 0 1 33.3447 53.1821)" fill="#1A1918"/>
<path d="M71.4825 83.5571L101.874 78.2362L61.4643 56.4269L30.556 58.7019L71.4825 83.5571Z" fill="#4E4C49"/>
<path d="M73.65 30.3103L99.6317 43.6374L99.1479 46.33L73.2007 32.8106L73.65 30.3103Z" fill="#6A6966"/>
<path d="M73.1851 32.8601L99.1323 46.3795L98.683 48.8798L72.7013 35.5527L73.1851 32.8601Z" fill="#242321"/>
<path fill-rule="evenodd" clip-rule="evenodd" d="M102.692 41.6903L102.165 44.6659L107.532 47.4397L102.166 77.7531L102.026 77.6754L101.883 78.4825L100.084 77.4888L101.781 78.5906L76.0556 82.7647L76.2615 82.8878L71.5193 83.6053L30.5243 58.7427L30.7245 58.7255L30.6045 58.6536L61.4831 55.8406L66.6568 26.6113L71.0453 29.0027L71.572 26.0271L102.692 41.6903ZM38.2655 60.1675L64.4076 57.786L98.7581 76.7567L72.8632 80.8557L38.2655 60.1675ZM97.1993 72.7202L99.8715 74.1705L104.404 48.5634L101.704 47.2695L97.1993 72.7202ZM64.1783 54.7977L66.2779 55.9373L70.5516 31.7923L68.45 30.6639L64.1783 54.7977ZM99.3992 43.7439L95.3833 66.4325L69.861 52.2413L73.6794 30.6686L99.3992 43.7439ZM69.0051 57.0766L94.5603 71.0818L94.9224 69.0361L69.4002 54.8449L69.0051 57.0766Z" fill="#242321"/>
<path d="M73.5864 30.3103L99.632 43.6665L94.6938 71.1898L68.7374 57.3365L73.5864 30.3103Z" fill="#8F8D89"/>
<path d="M86.6574 52.5528L82.1827 49.7212L82.6424 51.1257L83.275 53.5505L82.4154 54.3732L81.2118 55.13L85.7436 57.6434L86.6574 52.5528Z" fill="#FAFAFA"/>
<path d="M85.8521 49.1076L84.2459 48.1417L84.0174 49.4144L85.6237 50.3802L85.8521 49.1076Z" fill="#FAFAFA"/>
<path d="M104.397 48.4882L96.8882 44.6012L92.3073 70.0744L99.7844 74.1378L104.397 48.4882Z" fill="#8F8D89"/>
<path d="M74.1919 33.3921L68.6073 30.6784L64.2508 54.8823L69.7781 57.9146L74.1919 33.3921Z" fill="#8F8D89"/>
</svg>
