<svg xmlns="http://www.w3.org/2000/svg" width="156" height="133" viewBox="0 0 156 133" fill="none">
  <path fill-rule="evenodd" clip-rule="evenodd" d="M131.999 15.189H73.7264V19.9729H68.0459V108.481H73.7264V108.534L74.0815 108.534V113.41H79.8744V118.286H120.418V113.41H126.209V108.534L131.999 108.534V15.189ZM132 20.065H137.791V103.657H132V20.065ZM143.584 29.8175H137.793V89.0289H143.584V29.8175ZM143.585 47.2323H149.377V84.1523H143.585V47.2323ZM56.6834 98.9125V83.9614H50.7031V60.0403H56.6834V48.0802H62.6631V29.5413H68.0454V103.697H62.6631V98.9125H56.6834Z" fill="#D59F52"/>
  <rect width="10.1665" height="21.529" transform="matrix(-1 0 0 1 81.2024 40.9033)" fill="#1A1918"/>
  <rect width="5.38225" height="7.77435" transform="matrix(-1 0 0 1 76.4182 43.2959)" fill="#FFFBF6"/>
  <path d="M85.8544 0.237793H119.779V5.11402H85.8544V0.237793Z" fill="#1A1918"/>
  <path d="M80.0625 118.049H120.606V122.84H80.0625V118.049Z" fill="#1A1918"/>
  <path d="M126.652 9.80623H132.034V15.1885H126.398L126.652 9.80623Z" fill="#1A1918"/>
  <path d="M80.0625 9.99025H74.2706V15.1885H80.0625V9.99025Z" fill="#1A1918"/>
  <path d="M85.8544 5.11402H80.0625V9.99025H85.8544V5.11402Z" fill="#1A1918"/>
  <path d="M126.652 5.11402H119.779V9.99025L126.652 9.80623V5.11402Z" fill="#1A1918"/>
  <path d="M132.034 15.1885H137.982V19.9727H132.034V15.1885Z" fill="#1A1918"/>
  <path d="M74.2706 15.1885H68.4787V19.9727H74.2706V15.1885Z" fill="#1A1918"/>
  <path d="M137.982 19.9727H143.774V29.4952H137.982V19.9727Z" fill="#1A1918"/>
  <path d="M143.774 29.4952H149.565V46.9103H143.774V29.4952Z" fill="#1A1918"/>
  <path d="M68.4787 19.9727H62.6868V29.5411H68.4787V19.9727Z" fill="#1A1918"/>
  <path d="M149.565 46.9103H155.357V83.8303H149.565V46.9103Z" fill="#1A1918"/>
  <path d="M56.6829 29.5411H62.6868V48.3035H56.6829V29.5411Z" fill="#1A1918"/>
  <path d="M137.982 88.7066H143.774V103.098H137.982V88.7066Z" fill="#1A1918"/>
  <path d="M56.6829 83.8303H50.7026V98.3143H56.6829V83.8303Z" fill="#1A1918"/>
  <path d="M56.6829 48.3035H50.7026V60.1458H56.6829V48.3035Z" fill="#1A1918"/>
  <path d="M132.19 103.098H137.982V108.211H132.19V103.098Z" fill="#1A1918"/>
  <path d="M143.774 83.8303H149.565V88.7066H143.774V83.8303Z" fill="#1A1918"/>
  <path d="M68.0454 103.697H62.6868V108.481H68.0454V103.697Z" fill="#1A1918"/>
  <path d="M62.6868 98.3143H56.6829V103.697H62.6868V98.3143Z" fill="#1A1918"/>
  <path d="M126.652 108.211H132.19V113.265H126.652V108.211Z" fill="#1A1918"/>
  <path d="M74.0257 108.481H68.0454V113.265H74.0257V108.481Z" fill="#1A1918"/>
  <path d="M120.606 113.265H126.652V118.049H120.606V113.265Z" fill="#1A1918"/>
  <path d="M80.0625 113.265H74.0257V118.049H80.0625V113.265Z" fill="#1A1918"/>
  <path d="M45.311 60.1458H50.7026V83.8303H45.311V60.1458Z" fill="#1A1918"/>
  <rect width="10.1665" height="21.529" transform="matrix(-1 0 0 1 119.476 40.9033)" fill="#1A1918"/>
  <rect width="5.38225" height="7.77435" transform="matrix(-1 0 0 1 114.692 43.2959)" fill="#FFFBF6"/>
  <rect x="102.731" y="64.2271" width="4.78422" height="10.1665" fill="#1A1918"/>
  <rect x="82.3982" y="64.2271" width="4.18619" height="10.1665" fill="#1A1918"/>
  <rect x="86.5219" y="64.2271" width="16.65" height="5.0674" fill="#1A1918"/>
  <rect x="86.5842" y="69.0112" width="16.7448" height="5.38225" fill="#FFFBF6"/>
  <rect x="109.026" y="123.46" width="16.65" height="4.34349" fill="#B17C31"/>
  <rect x="72.2319" y="123.431" width="14.3527" height="4.18619" fill="#B17C31"/>
  <rect x="86.5842" y="74.3931" width="16.7448" height="4.78422" fill="#1A1918"/>
  <rect x="109.31" y="118.049" width="16.7448" height="5.38225" fill="#1A1918"/>
  <rect x="109.31" y="127.617" width="16.1467" height="5.38225" fill="#1A1918"/>
  <rect x="71.036" y="127.617" width="15.5487" height="5.38225" fill="#1A1918"/>
  <path fill-rule="evenodd" clip-rule="evenodd" d="M85.8543 5.11426H119.778V9.80668H126.653V15.1889H119.776V19.743H89.9891V15.1889H80.0068V9.80668H85.8543V5.11426ZM99.0903 19.744H119.776V24.6202H99.0903V19.744Z" fill="#EBBA77"/>
  <path fill-rule="evenodd" clip-rule="evenodd" d="M132.033 15.189H126.651V42.1002H132.032V88.7079H126.397V93.5823H109.849V98.4585H132.032V98.4594H104.058V103.335H98.2646V107.883H80.0044V103.099H74.0233V98.3147H62.6608V103.697H68.0438V108.481H74.0242V113.265H126.651V108.212H132.189V103.336H132.19V103.099H138.012V88.7066H143.773L143.773 83.8301H149.564V46.91H143.773L143.773 29.4953H138.012V19.9729H132.033V15.189ZM80.0027 113.265V118.049H120.669V113.265H80.0027ZM56.6814 98.3146L56.6814 93.5303H74.0242V98.3146H56.6814Z" fill="#B17C31"/>
  <rect x="121.868" y="118.049" width="4.78422" height="14.9507" fill="#1A1918"/>
  <rect x="108.113" y="118.647" width="4.78422" height="14.3527" fill="#1A1918"/>
  <rect x="71.036" y="118.049" width="4.18619" height="14.9507" fill="#1A1918"/>
  <rect x="82.3982" y="118.647" width="4.18619" height="14.3527" fill="#1A1918"/>
  <rect x="71.036" y="118.049" width="15.5487" height="5.38225" fill="#1A1918"/>
  <path d="M50.2075 117.776L6.73098 106.156L66.9066 79.7726L112.599 87.5415L50.2075 117.776Z" fill="#4E4C49"/>
  <path d="M53.5553 41.5893L14.2483 57.2583L14.6273 61.1777L53.9072 45.2288L53.5553 41.5893Z" fill="#6A6966"/>
  <path d="M53.9143 45.2788L14.6344 61.2277L14.9863 64.8671L54.2932 49.1982L53.9143 45.2788Z" fill="#242321"/>
  <path fill-rule="evenodd" clip-rule="evenodd" d="M10.0598 53.8712L10.4786 58.202L2.40464 61.4416L6.67087 105.563L6.67253 105.562L6.77458 106.617L6.77351 106.618L6.77466 106.618L6.77469 106.618L6.77512 106.618L43.5207 116.056L43.4122 116.107L50.2073 117.777L51.4378 117.181L55.0805 115.438L55.0505 115.43L112.599 87.5426L112.596 87.5421L112.581 87.5393L67.9357 79.3L67.6333 76.1723L67.6316 76.173L63.8625 37.1939L57.2463 40.0193L56.8275 35.6884L10.0598 53.8712ZM101.016 88.6383L63.8327 81.7761L11.7022 104.473L48.3719 113.742L101.016 88.6383ZM14.4118 98.879L10.3843 100.597L6.79494 63.476L10.845 61.9916L14.4118 98.879ZM64.1795 77.6459L61.0151 78.9959L57.6389 44.0795L60.8053 42.7505L64.1795 77.6459ZM14.581 57.2589L17.7741 90.2819L56.2847 73.4441L53.2486 42.0452L14.581 57.2589ZM56.9652 80.4817L18.4284 97.0489L18.1405 94.0715L56.6511 77.2336L56.9652 80.4817Z" fill="#242321"/>
  <path d="M53.5553 41.5893L14.2454 57.2286L18.105 97.1438L57.3451 80.7835L53.5553 41.5893Z" fill="#8F8D89"/>
  <path d="M31.9648 71.6017L38.7749 68.1506L37.9422 70.0928L36.7376 73.4673L37.8825 74.7528L39.5329 75.9895L32.6781 78.9794L31.9648 71.6017Z" fill="#FFFBF6"/>
  <path d="M33.5411 66.795L35.9797 65.6284L36.158 67.4728L33.7194 68.6395L33.5411 66.795Z" fill="#FFFBF6"/>
  <path d="M6.69423 63.5469L17.99 58.9904L21.5569 95.8791L10.2859 100.691L6.69423 63.5469Z" fill="#8F8D89"/>
  <path d="M52.4419 45.8869L60.8133 42.7505L64.2018 77.7946L55.875 81.3923L52.4419 45.8869Z" fill="#8F8D89"/>
  <rect x="99.1917" y="95.2739" width="15.5487" height="5.38225" fill="#1A1918"/>
  <rect x="99.1917" y="85.7046" width="4.18619" height="14.9507" fill="#1A1918"/>
  <rect x="110.555" y="86.3027" width="4.18619" height="14.3527" fill="#1A1918"/>
  <rect x="99.1917" y="85.7046" width="15.5487" height="5.38225" fill="#1A1918"/>
  <rect x="103.247" y="90.3975" width="7.44436" height="4.96291" fill="#D59F52"/>
</svg>