<svg width="72" height="85" viewBox="0 0 72 85" fill="none" xmlns="http://www.w3.org/2000/svg">
<path fill-rule="evenodd" clip-rule="evenodd" d="M15.2805 9.57227H53.4068V12.6353H57.1238V18.7615H60.6453L60.6453 30.6308H64.558V38.2885H68.4707V53.6038H64.558V63.1759H60.6453L60.6453 66.2389H57.1238V69.302H53.4068V69.3358H53.1749V72.4576H19.0697V69.3358H15.2805V66.2136H11.4915V12.694H15.2805V9.57227ZM7.7011 18.9383H11.4903V56.848H7.7011V18.9383ZM7.70064 30.0883H3.91142V53.7261H7.70064V30.0883ZM22.8586 72.4578V75.5798H49.3849V72.4578H22.8586Z" fill="#D59F52"/>
<rect x="48.5176" y="26.0361" width="6.65161" height="13.7838" fill="#1A1918"/>
<rect x="51.6475" y="27.5674" width="3.52144" height="4.97748" fill="#FAFAFA"/>
<path d="M45.4737 0H23.2782V3.12197H45.4737V0Z" fill="#1A1918"/>
<path d="M49.2632 75.4279H22.7368V78.4953H49.2632V75.4279Z" fill="#1A1918"/>
<path d="M18.781 6.12613H15.2596V9.57207H18.9474L18.781 6.12613Z" fill="#1A1918"/>
<path d="M49.2632 6.24395H53.0526V9.57207H49.2632V6.24395Z" fill="#1A1918"/>
<path d="M45.4737 3.12197H49.2632V6.24395H45.4737V3.12197Z" fill="#1A1918"/>
<path d="M18.781 3.12197H23.2782V6.24395L18.781 6.12613V3.12197Z" fill="#1A1918"/>
<path d="M15.2596 9.57207H11.3684V12.6351H15.2596V9.57207Z" fill="#1A1918"/>
<path d="M53.0526 9.57207H56.8421V12.6351H53.0526V9.57207Z" fill="#1A1918"/>
<path d="M11.3684 12.6351H7.57895V18.7318H11.3684V12.6351Z" fill="#1A1918"/>
<path d="M7.57895 18.7318H3.78948V29.8817H7.57895V18.7318Z" fill="#1A1918"/>
<path d="M56.8421 12.6351H60.6316V18.7613H56.8421V12.6351Z" fill="#1A1918"/>
<path d="M3.78948 29.8817H0V53.5195H3.78948V29.8817Z" fill="#1A1918"/>
<path d="M64.5597 18.7613H60.6316V30.7737H64.5597V18.7613Z" fill="#1A1918"/>
<path d="M11.3684 56.6415H7.57895V65.8559H11.3684V56.6415Z" fill="#1A1918"/>
<path d="M64.5597 53.5195H68.4724V62.7928H64.5597V53.5195Z" fill="#1A1918"/>
<path d="M64.5597 30.7737H68.4724V38.3557H64.5597V30.7737Z" fill="#1A1918"/>
<path d="M15.1579 65.8559H11.3684V69.1294H15.1579V65.8559Z" fill="#1A1918"/>
<path d="M7.57895 53.5195H3.78948V56.6415H7.57895V53.5195Z" fill="#1A1918"/>
<path d="M57.1256 66.2387H60.6316V69.3018H57.1256V66.2387Z" fill="#1A1918"/>
<path d="M60.6316 62.7928H64.5597V66.2387H60.6316V62.7928Z" fill="#1A1918"/>
<path d="M18.781 69.1294H15.1579V72.3649H18.781V69.1294Z" fill="#1A1918"/>
<path d="M53.2129 69.3018H57.1256V72.3649H53.2129V69.3018Z" fill="#1A1918"/>
<path d="M22.7368 72.3649H18.781V75.4279H22.7368V72.3649Z" fill="#1A1918"/>
<path d="M49.2632 72.3649H53.2129V75.4279H49.2632V72.3649Z" fill="#1A1918"/>
<path d="M72 38.3557H68.4724V53.5195H72V38.3557Z" fill="#1A1918"/>
<rect x="23.4766" y="26.0361" width="6.65161" height="13.7838" fill="#1A1918"/>
<rect x="26.6064" y="27.5674" width="3.52144" height="4.97748" fill="#FAFAFA"/>
<rect width="3.13017" height="6.50901" transform="matrix(-1 0 0 1 34.4316 40.9683)" fill="#1A1918"/>
<rect width="2.7389" height="6.50901" transform="matrix(-1 0 0 1 47.7354 40.9683)" fill="#1A1918"/>
<rect width="10.8936" height="3.24437" transform="matrix(-1 0 0 1 45.0371 40.9683)" fill="#1A1918"/>
<rect width="10.9556" height="3.44595" transform="matrix(-1 0 0 1 44.9961 44.0317)" fill="#FAFAFA"/>
<rect width="10.8936" height="2.78089" transform="matrix(-1 0 0 1 30.3125 78.8926)" fill="#B17C31"/>
<rect width="9.39051" height="2.68018" transform="matrix(-1 0 0 1 54.3867 78.874)" fill="#B17C31"/>
<rect width="10.9556" height="3.06306" transform="matrix(-1 0 0 1 44.9961 47.4775)" fill="#1A1918"/>
<rect width="10.9556" height="3.44595" transform="matrix(-1 0 0 1 30.1279 75.4277)" fill="#1A1918"/>
<rect width="10.5643" height="3.44595" transform="matrix(-1 0 0 1 30.1279 81.5542)" fill="#1A1918"/>
<rect width="10.173" height="3.44595" transform="matrix(-1 0 0 1 55.1689 81.5542)" fill="#1A1918"/>
<path fill-rule="evenodd" clip-rule="evenodd" d="M45.4723 3.12207H23.2768V6.12606H18.7787V9.572H23.2786V12.4875H42.7673V9.572H49.2979V6.12606H45.4723V3.12207ZM36.8127 12.4877H23.2788V15.6097H36.8127V12.4877Z" fill="#EBBA77"/>
<path fill-rule="evenodd" clip-rule="evenodd" d="M15.2585 9.57227H18.7799V26.802H15.2585V9.57227ZM11.3447 12.6355H15.2575V56.6425H18.9447V59.7639H29.7719V62.8857H33.5608V66.0077H15.1548V65.8562H11.3447V56.6418H7.57647V18.7321H11.3447V12.6355ZM7.576 29.8825H3.78679V53.5203H7.576V29.8825ZM37.3513 66.0078V68.9193H49.298V65.8562H53.2108L53.2108 62.7932H60.6449V66.2391H57.1235V69.3022H53.2108V72.3653L49.2988 72.3652V75.4283H22.6924V72.3652L18.7789 72.3653V69.1298H15.1558L15.1558 66.0078L37.3513 66.0078ZM64.5576 62.7932V59.7301H53.2108V62.7932H64.5576Z" fill="#B17C31"/>
<rect width="3.13017" height="9.57207" transform="matrix(-1 0 0 1 21.9111 75.4277)" fill="#1A1918"/>
<rect width="3.13017" height="9.18919" transform="matrix(-1 0 0 1 30.9102 75.811)" fill="#1A1918"/>
<rect width="2.7389" height="9.57207" transform="matrix(-1 0 0 1 55.1689 75.4277)" fill="#1A1918"/>
<rect width="2.7389" height="9.18919" transform="matrix(-1 0 0 1 47.7354 75.811)" fill="#1A1918"/>
<rect width="10.173" height="3.44595" transform="matrix(-1 0 0 1 55.1689 75.4277)" fill="#1A1918"/>
</svg>
