<svg width="current" height="current" viewBox="0 0 72 85" fill="none" xmlns="http://www.w3.org/2000/svg">
<path fill-rule="evenodd" clip-rule="evenodd" d="M15.2834 9.57178H53.4097V12.6348H57.1268L57.1268 18.761H60.6482V30.6303H64.5609V38.288H68.4736V53.6033H64.5609V63.1754H60.6482V66.2384H57.1268L57.1268 69.3015H53.4097V69.3353H53.1779V72.4571H19.0726V69.3353H15.2834V66.2131H11.4945V12.6935H15.2834V9.57178ZM7.70403 18.9378H11.4932V56.8475H7.70403V18.9378ZM7.70357 30.0878H3.91435V53.7256H7.70357V30.0878ZM22.8615 72.4573V75.5793H49.3878V72.4573H22.8615Z" fill="#D59F52"/>
<rect x="48.5176" y="26.0361" width="6.65161" height="3.06306" fill="#1A1918"/>
<path d="M45.4737 0H23.2782V3.12197H45.4737V0Z" fill="#1A1918"/>
<path d="M49.2632 75.4279H22.7368V78.4953H49.2632V75.4279Z" fill="#1A1918"/>
<path d="M18.781 6.12613H15.2596V9.57207H18.9474L18.781 6.12613Z" fill="#1A1918"/>
<path d="M49.2632 6.24395H53.0526V9.57207H49.2632V6.24395Z" fill="#1A1918"/>
<path d="M45.4737 3.12197H49.2632V6.24395H45.4737V3.12197Z" fill="#1A1918"/>
<path d="M18.781 3.12197H23.2782V6.24395L18.781 6.12613V3.12197Z" fill="#1A1918"/>
<path d="M15.2596 9.57207H11.3684V12.6351H15.2596V9.57207Z" fill="#1A1918"/>
<path d="M53.0526 9.57207H56.8421V12.6351H53.0526V9.57207Z" fill="#1A1918"/>
<path d="M11.3684 12.6351H7.57895V18.7318H11.3684V12.6351Z" fill="#1A1918"/>
<path d="M7.57895 18.7318H3.78948V29.8817H7.57895V18.7318Z" fill="#1A1918"/>
<path d="M56.8421 12.6351H60.6316V18.7613H56.8421V12.6351Z" fill="#1A1918"/>
<path d="M3.78948 29.8817H0V53.5195H3.78948V29.8817Z" fill="#1A1918"/>
<path d="M64.5597 18.7613H60.6316V30.7737H64.5597V18.7613Z" fill="#1A1918"/>
<path d="M11.3684 56.6415H7.57895V65.8559H11.3684V56.6415Z" fill="#1A1918"/>
<path d="M64.5597 53.5195H68.4724V62.7928H64.5597V53.5195Z" fill="#1A1918"/>
<path d="M64.5597 30.7737H68.4724V38.3557H64.5597V30.7737Z" fill="#1A1918"/>
<path d="M15.1579 65.8559H11.3684V69.1294H15.1579V65.8559Z" fill="#1A1918"/>
<path d="M7.57895 53.5195H3.78948V56.6415H7.57895V53.5195Z" fill="#1A1918"/>
<path d="M57.1256 66.2387H60.6316V69.3018H57.1256V66.2387Z" fill="#1A1918"/>
<path d="M60.6316 62.7928H64.5597V66.2387H60.6316V62.7928Z" fill="#1A1918"/>
<path d="M18.781 69.1294H15.1579V72.3649H18.781V69.1294Z" fill="#1A1918"/>
<path d="M53.2129 69.3018H57.1256V72.3649H53.2129V69.3018Z" fill="#1A1918"/>
<path d="M22.7368 72.3649H18.781V75.4279H22.7368V72.3649Z" fill="#1A1918"/>
<path d="M49.2632 72.3649H53.2129V75.4279H49.2632V72.3649Z" fill="#1A1918"/>
<path d="M72 38.3557H68.4724V53.5195H72V38.3557Z" fill="#1A1918"/>
<rect x="23.4766" y="26.0361" width="6.65161" height="3.06306" fill="#1A1918"/>
<rect x="17.2158" y="39.437" width="6.65161" height="6.50901" fill="#FA4C4C"/>
<rect x="55.1689" y="39.437" width="6.65161" height="6.50901" fill="#FA4C4C"/>
<rect width="3.13017" height="6.50901" transform="matrix(-1 0 0 1 34.4316 40.9683)" fill="#1A1918"/>
<rect width="2.7389" height="6.50901" transform="matrix(-1 0 0 1 47.7354 40.9683)" fill="#1A1918"/>
<rect width="10.8936" height="3.24437" transform="matrix(-1 0 0 1 45.0371 40.9683)" fill="#1A1918"/>
<rect width="10.9556" height="3.44595" transform="matrix(-1 0 0 1 44.9961 44.0317)" fill="#FAFAFA"/>
<rect width="10.8936" height="2.78089" transform="matrix(-1 0 0 1 30.3125 78.8926)" fill="#B17C31"/>
<rect width="9.39051" height="2.68018" transform="matrix(-1 0 0 1 54.3867 78.874)" fill="#B17C31"/>
<rect width="10.9556" height="3.06306" transform="matrix(-1 0 0 1 44.9961 47.4775)" fill="#1A1918"/>
<rect width="10.9556" height="3.44595" transform="matrix(-1 0 0 1 30.1279 75.4277)" fill="#1A1918"/>
<rect width="10.5643" height="3.44595" transform="matrix(-1 0 0 1 30.1279 81.5542)" fill="#1A1918"/>
<rect width="10.173" height="3.44595" transform="matrix(-1 0 0 1 55.1689 81.5542)" fill="#1A1918"/>
<path fill-rule="evenodd" clip-rule="evenodd" d="M45.4771 3.12109H23.2817V6.12508H18.7836V9.57102H23.2807V12.4879H42.7694V9.57102H49.3027V6.12508H45.4771V3.12109ZM36.8148 12.4881H23.2809V15.61H36.8148V12.4881Z" fill="#EBBA77"/>
<path fill-rule="evenodd" clip-rule="evenodd" d="M15.2604 9.57178H18.7819V26.8015H15.2614V56.6414H18.9486V59.7629H29.7758V62.8846H33.5648V66.0066H15.1587V65.8552H11.3487V56.6407H7.58037V18.731H11.3487V12.6345H15.2604V9.57178ZM7.57991 29.8814H3.79069V53.5192H7.57991V29.8814ZM37.3552 66.0068V68.9182H49.302V65.8552H53.2147L53.2147 62.7921V59.729H64.5615V62.7921L60.6488 62.7921V66.2381H57.1274V69.3011H53.2147V72.3642L49.3027 72.3642V75.4272H22.6963V72.3642L18.7828 72.3642V69.1288H15.1597L15.1597 66.0068H37.3552Z" fill="#B17C31"/>
<rect width="3.13017" height="9.57207" transform="matrix(-1 0 0 1 21.9111 75.4277)" fill="#1A1918"/>
<rect width="3.13017" height="9.18919" transform="matrix(-1 0 0 1 30.9102 75.811)" fill="#1A1918"/>
<rect width="2.7389" height="9.57207" transform="matrix(-1 0 0 1 55.1689 75.4277)" fill="#1A1918"/>
<rect width="2.7389" height="9.18919" transform="matrix(-1 0 0 1 47.7354 75.811)" fill="#1A1918"/>
<rect width="10.173" height="3.44595" transform="matrix(-1 0 0 1 55.1689 75.4277)" fill="#1A1918"/>
</svg>
