<svg width="30" height="30" viewBox="0 0 30 30" fill="none" xmlns="http://www.w3.org/2000/svg">
<path d="M28.6364 10.9091V8.18182H27.2727V5.45455H25.9091V4.09091H24.5455V2.72727H21.8182V1.36364H19.0909V0H10.9091V1.36364H8.18182V2.72727H5.45455V4.09091H4.09091V5.45455H2.72727V8.18182H1.36364V10.9091H0V19.0909H1.36364V21.8182H2.72727V24.5455H4.09091V25.9091H5.45455V27.2727H8.18182V28.6364H10.9091V30H19.0909V28.6364H21.8182V27.2727H24.5455V25.9091H25.9091V24.5455H27.2727V21.8182H28.6364V19.0909H30V10.9091H28.6364ZM23.1818 15H21.8182V16.3636H20.4545V17.7273H19.0909V19.0909H17.7273V20.4545H16.3636V21.8182H15V23.1818H12.2727V21.8182H10.9091V20.4545H9.54545V19.0909H8.18182V17.7273H6.81818V15H8.18182V13.6364H10.9091V15H12.2727V16.3636H15V15H16.3636V13.6364H17.7273V12.2727H19.0909V10.9091H20.4545V9.54545H23.1818V10.9091H24.5455V13.6364H23.1818V15Z" fill="#57B34D"/>
</svg>
