<svg xmlns="http://www.w3.org/2000/svg" width="13" height="12" viewBox="0 0 13 12" fill="none">
  <g clip-path="url(#clip0_10197_13743)">
    <path d="M11.5137 1V0.5H1.51367V1H1.01367V11H1.51367V11.5H11.5137V11H12.0137V1H11.5137ZM3.01367 5.5H3.51367V5H4.01367V4.5H4.51367V5H5.01367V5.5H5.51367V6H6.51367V5.5H7.01367V5H7.51367V4.5H8.01367V4H8.51367V3.5H9.01367V4H9.51367V4.5H10.0137V5H9.51367V5.5H9.01367V6H8.51367V6.5H8.01367V7H7.51367V7.5H7.01367V8H6.51367V8.5H5.51367V8H5.01367V7.5H4.51367V7H4.01367V6.5H3.51367V6H3.01367V5.5Z" fill="#F7F4F0"/>
  </g>
  <defs>
    <clipPath id="clip0_10197_13743">
      <rect width="12" height="12" fill="white" transform="translate(0.513672)"/>
    </clipPath>
  </defs>
</svg>