<svg xmlns="http://www.w3.org/2000/svg" width="51" height="51" viewBox="0 0 51 51" fill="none">
  <path d="M29.75 27.625H31.875V29.75H34V31.875H36.125V34H34V36.125H31.875V34H29.75V31.875H27.625V29.75H23.375V31.875H21.25V34H19.125V36.125H17V34H14.875V31.875H17V29.75H19.125V27.625H21.25V23.375H19.125V21.25H17V19.125H14.875V17H17V14.875H19.125V17H21.25V19.125H23.375V21.25H27.625V19.125H29.75V17H31.875V14.875H34V17H36.125V19.125H34V21.25H31.875V23.375H29.75V27.625Z" fill="#FFA000"/>
  <path d="M46.75 19.125V14.875H44.625V10.625H42.5V8.5H40.375V6.375H36.125V4.25H31.875V2.125H19.125V4.25H14.875V6.375H10.625V8.5H8.5V10.625H6.375V14.875H4.25V19.125H2.125V31.875H4.25V36.125H6.375V40.375H8.5V42.5H10.625V44.625H14.875V46.75H19.125V48.875H31.875V46.75H36.125V44.625H40.375V42.5H42.5V40.375H44.625V36.125H46.75V31.875H48.875V19.125H46.75ZM44.625 31.875H42.5V36.125H40.375V40.375H36.125V42.5H31.875V44.625H19.125V42.5H14.875V40.375H10.625V36.125H8.5V31.875H6.375V19.125H8.5V14.875H10.625V10.625H14.875V8.5H19.125V6.375H31.875V8.5H36.125V10.625H40.375V14.875H42.5V19.125H44.625V31.875Z" fill="#FFA000"/>
</svg>