<svg xmlns="http://www.w3.org/2000/svg" width="24" height="24" viewBox="0 0 24 24" fill="none">
  <path d="M13.6 12.8H14.4V13.6H15.2V14.4H16V15.2H16.8V16H17.6V16.8H18.4V17.6H19.2V18.4H20V19.2H19.2V20H18.4V19.2H17.6V18.4H16.8V17.6H16V16.8H15.2V16H14.4V15.2H13.6V14.4H12.8V13.6H11.2V14.4H10.4V15.2H9.6V16H8.8V16.8H8V17.6H7.2V18.4H6.4V19.2H5.6V20H4.8V19.2H4V18.4H4.8V17.6H5.6V16.8H6.4V16H7.2V15.2H8V14.4H8.8V13.6H9.6V12.8H10.4V11.2H9.6V10.4H8.8V9.6H8V8.8H7.2V8H6.4V7.2H5.6V6.4H4.8V5.6H4V4.8H4.8V4H5.6V4.8H6.4V5.6H7.2V6.4H8V7.2H8.8V8H9.6V8.8H10.4V9.6H11.2V10.4H12.8V9.6H13.6V8.8H14.4V8H15.2V7.2H16V6.4H16.8V5.6H17.6V4.8H18.4V4H19.2V4.8H20V5.6H19.2V6.4H18.4V7.2H17.6V8H16.8V8.8H16V9.6H15.2V10.4H14.4V11.2H13.6V12.8Z" fill="#1A1918"/>
</svg>