<svg width="426" height="29" viewBox="0 0 426 29" fill="none" xmlns="http://www.w3.org/2000/svg">
<path d="M408.397 24.6969V19.2115H411.835V24.6969H413.59V26.3791H419.478V24.6969H421.124V20.0526H419.259V18.1875H417.43V16.3225H415.675V14.4941H413.919V12.629H412.128V10.8006H410.445V8.86239H408.617V4.3278H410.372V2.68219H412.237V1H421.343V2.68219H423.098V4.3278H424.78V9.0818H421.343V4.36437H419.588V2.68219H414.175V4.36437H412.457V8.4967H414.285V10.3983H416.114V12.2633H417.979V14.0918H419.734V15.9568H421.562V17.7853H423.354V19.6503H425V24.6969H423.281V26.3791H421.453V28.0612H411.835V26.3791H410.08V24.6969H408.397Z" fill="#363532"/>
<path fill-rule="evenodd" clip-rule="evenodd" d="M407.897 25.1969V18.7115H412.335V24.1969H414.09V25.8791H418.978V24.1969H420.624V20.5526H418.759V18.6875H416.93V16.8225H415.175V14.9941H413.419V13.129H411.628V11.3006H409.945V9.36239H408.117V3.8278H409.872V2.18219H411.737V0.5H421.843V2.18219H423.598V3.8278H425.28V9.5818H420.843V4.86437H419.088V3.18219H414.675V4.86437H412.957V7.9967H414.785V9.8983H416.614V11.7633H418.479V13.5918H420.234V15.4568H422.062V17.2853H423.854V19.1503H425.5V25.1969H423.781V26.8791H421.953V28.5612H411.335V26.8791H409.58V25.1969H407.897ZM410.08 24.6969V26.3791H411.835V28.0612H421.453V26.3791H423.281V24.6969H425V19.6503H423.354V17.7853H421.562V15.9568H419.734V14.0918H417.979V12.2633H416.114V10.3983H414.285V8.4967H412.457V4.36437H414.175V2.68219H419.588V4.36437H421.343V9.0818H424.78V4.3278H423.098V2.68219H421.343V1H412.237V2.68219H410.372V4.3278H408.617V8.86239H410.445V10.8006H412.128V12.629H413.919V14.4941H415.675V16.3225H417.43V18.1875H419.259V20.0526H421.124V24.6969H419.478V26.3791H413.59V24.6969H411.835V19.2115H408.397V24.6969H410.08Z" fill="#363532"/>
<path d="M403.004 26.1596H404.759V28.0612H400.444V26.1962H398.798V24.3312H397.153V22.5027H395.507V20.6377H393.935V18.8092H392.252V16.8711H390.607V14.9695H388.961V28.0612H385.414V2.68219H387.243V1H398.469V2.68219H400.334V4.3278H402.09V11.6051H400.115V13.2873H398.104V14.9695H394.703V16.8711H396.385V18.7727H398.03V20.6377H399.676V22.4661H401.322V24.3312H403.004V26.1596ZM388.961 13.2873H396.348V11.6051H398.469V4.36437H396.714V2.68219H388.961V13.2873Z" fill="#363532"/>
<path fill-rule="evenodd" clip-rule="evenodd" d="M405.259 25.6596V28.5612H399.944V26.6962H398.298V24.8312H396.653V23.0027H395.007V21.1377H393.435V19.3092H391.752V17.3711H390.107V15.4695H389.461V28.5612H384.914V2.18219H386.743V0.5H398.969V2.18219H400.834V3.8278H402.59V12.1051H400.615V13.7873H398.604V15.4695H395.203V16.3711H396.885V18.2727H398.53V20.1377H400.176V21.9661H401.822V23.8312H403.504V25.6596H405.259ZM401.322 24.3312V22.4661H399.676V20.6377H398.03V18.7727H396.385V16.8711H394.703V14.9695H398.104V13.2873H400.115V11.6051H402.09V4.3278H400.334V2.68219H398.469V1H387.243V2.68219H385.414V28.0612H388.961V14.9695H390.607V16.8711H392.252V18.8092H393.935V20.6377H395.507V22.5027H397.153V24.3312H398.798V26.1962H400.444V28.0612H404.759V26.1596H403.004V24.3312H401.322ZM395.848 11.1051H397.969V4.86437H396.214V3.18219H389.461V12.7873H395.848V11.1051ZM396.348 13.2873H388.961V2.68219H396.714V4.36437H398.469V11.6051H396.348V13.2873Z" fill="#363532"/>
<path d="M377.105 24.6237H380.615V26.3791H378.86V28.0612H366.317V26.2693H364.488V2.68219H366.317V1H378.933V2.68219H368.109V12.8484H377.836V14.6038H368.109V26.2693H377.105V24.6237Z" fill="#363532"/>
<path fill-rule="evenodd" clip-rule="evenodd" d="M376.605 24.1237H381.115V26.8791H379.36V28.5612H365.817V26.7693H363.988V2.18219H365.817V0.5H379.433V3.18219H368.609V12.3484H378.336V15.1038H368.609V25.7693H376.605V24.1237ZM377.105 26.2693H368.109V14.6038H377.836V12.8484H368.109V2.68219H378.933V1H366.317V2.68219H364.488V26.2693H366.317V28.0612H378.86V26.3791H380.615V24.6237H377.105V26.2693Z" fill="#363532"/>
<path d="M356.677 17.127H358.213V24.6969H356.531V26.3791H354.776V28.0612H342.927V26.3791H341.099V2.68219H342.927V1H353.386V2.68219H355.141V4.3278H356.823V10.4349H354.922V12.117H353.02V13.7992H354.922V15.4814H356.677V17.127ZM344.719 26.3791H353.02V24.6969H354.776V17.1636H353.02V15.4814H351.265V13.7992H344.719V26.3791ZM344.719 12.117H351.265V10.4349H353.386V4.36437H351.631V2.68219H344.719V12.117Z" fill="#363532"/>
<path fill-rule="evenodd" clip-rule="evenodd" d="M358.713 16.627V25.1969H357.031V26.8791H355.276V28.5612H342.427V26.8791H340.599V2.18219H342.427V0.5H353.886V2.18219H355.641V3.8278H357.323V10.9349H355.422V12.617H353.52V13.2992H355.422V14.9814H357.177V16.627H358.713ZM354.922 15.4814V13.7992H353.02V12.117H354.922V10.4349H356.823V4.3278H355.141V2.68219H353.386V1H342.927V2.68219H341.099V26.3791H342.927V28.0612H354.776V26.3791H356.531V24.6969H358.213V17.127H356.677V15.4814H354.922ZM352.52 24.1969H354.276V17.6636H352.52V15.9814H350.765V14.2992H345.219V25.8791H352.52V24.1969ZM353.02 26.3791H344.719V13.7992H351.265V15.4814H353.02V17.1636H354.776V24.6969H353.02V26.3791ZM350.765 9.93486H352.886V4.86437H351.131V3.18219H345.219V11.617H350.765V9.93486ZM351.265 12.117H344.719V2.68219H351.631V4.36437H353.386V10.4349H351.265V12.117Z" fill="#363532"/>
<path d="M309.103 28.0612V1H315.063V4.62036H316.928V7.91159H318.793V11.2028H320.512V14.4941H322.45V11.2028H324.206V7.91159H325.961V4.62036H327.716V1H332.47V2.82846H334.299V28.0612H330.678V4.62036H328.85V7.91159H327.131V11.2028H325.412V14.4941H323.694V17.7853H322.45V21.0765H319.232V17.7853H317.989V14.4941H316.27V11.2028H314.551V7.91159H312.833V4.62036H311.004V28.0612H309.103Z" fill="#363532"/>
<path fill-rule="evenodd" clip-rule="evenodd" d="M308.603 28.5612V0.5H315.563V4.12036H317.428V7.41159H319.293V10.7028H321.012V13.9941H321.95V10.7028H323.706V7.41159H325.461V4.12036H327.216V0.5H332.97V2.32846H334.799V28.5612H330.178V5.12036H329.35V8.41159H327.631V11.7028H325.912V14.9941H324.194V18.2853H322.95V21.5765H318.732V18.2853H317.489V14.9941H315.77V11.7028H314.051V8.41159H312.333V5.12036H311.504V28.5612H308.603ZM311.004 4.62036H312.833V7.91159H314.551V11.2028H316.27V14.4941H317.989V17.7853H319.232V21.0765H322.45V17.7853H323.694V14.4941H325.412V11.2028H327.131V7.91159H328.85V4.62036H330.678V28.0612H334.299V2.82846H332.47V1H327.716V4.62036H325.961V7.91159H324.206V11.2028H322.45V14.4941H320.512V11.2028H318.793V7.91159H316.928V4.62036H315.063V1H309.103V28.0612H311.004V4.62036Z" fill="#363532"/>
<path d="M300.793 24.6237H304.304V26.3791H302.548V28.0612H290.005V26.2693H288.177V2.68219H290.005V1H302.622V2.68219H291.797V12.8484H301.525V14.6038H291.797V26.2693H300.793V24.6237Z" fill="#363532"/>
<path fill-rule="evenodd" clip-rule="evenodd" d="M300.293 24.1237H304.804V26.8791H303.048V28.5612H289.505V26.7693H287.677V2.18219H289.505V0.5H303.122V3.18219H292.297V12.3484H302.025V15.1038H292.297V25.7693H300.293V24.1237ZM300.793 26.2693H291.797V14.6038H301.525V12.8484H291.797V2.68219H302.622V1H290.005V2.68219H288.177V26.2693H290.005V28.0612H302.548V26.3791H304.304V24.6237H300.793V26.2693Z" fill="#363532"/>
<path d="M256.181 28.0612V1H262.141V4.62036H264.006V7.91159H265.872V11.2028H267.59V14.4941H269.528V11.2028H271.284V7.91159H273.039V4.62036H274.794V1H279.548V2.82846H281.377V28.0612H277.757V4.62036H275.928V7.91159H274.209V11.2028H272.491V14.4941H270.772V17.7853H269.528V21.0765H266.31V17.7853H265.067V14.4941H263.348V11.2028H261.629V7.91159H259.911V4.62036H258.082V28.0612H256.181Z" fill="#363532"/>
<path fill-rule="evenodd" clip-rule="evenodd" d="M255.681 28.5612V0.5H262.641V4.12036H264.506V7.41159H266.372V10.7028H268.09V13.9941H269.028V10.7028H270.784V7.41159H272.539V4.12036H274.294V0.5H280.048V2.32846H281.877V28.5612H277.257V5.12036H276.428V8.41159H274.709V11.7028H272.991V14.9941H271.272V18.2853H270.028V21.5765H265.81V18.2853H264.567V14.9941H262.848V11.7028H261.129V8.41159H259.411V5.12036H258.582V28.5612H255.681ZM258.082 4.62036H259.911V7.91159H261.629V11.2028H263.348V14.4941H265.067V17.7853H266.31V21.0765H269.528V17.7853H270.772V14.4941H272.491V11.2028H274.209V7.91159H275.928V4.62036H277.757V28.0612H281.377V2.82846H279.548V1H274.794V4.62036H273.039V7.91159H271.284V11.2028H269.528V14.4941H267.59V11.2028H265.872V7.91159H264.006V4.62036H262.141V1H256.181V28.0612H258.082V4.62036Z" fill="#363532"/>
<path d="M234.622 17.127H236.158V24.6969H234.476V26.3791H232.721V28.0612H220.872V26.3791H219.044V2.68219H220.872V1H231.331V2.68219H233.087V4.3278H234.769V10.4349H232.867V12.117H230.966V13.7992H232.867V15.4814H234.622V17.127ZM222.664 26.3791H230.966V24.6969H232.721V17.1636H230.966V15.4814H229.21V13.7992H222.664V26.3791ZM222.664 12.117H229.21V10.4349H231.331V4.36437H229.576V2.68219H222.664V12.117Z" fill="#363532"/>
<path fill-rule="evenodd" clip-rule="evenodd" d="M236.658 16.627V25.1969H234.976V26.8791H233.221V28.5612H220.372V26.8791H218.544V2.18219H220.372V0.5H231.831V2.18219H233.587V3.8278H235.269V10.9349H233.367V12.617H231.466V13.2992H233.367V14.9814H235.122V16.627H236.658ZM232.867 15.4814V13.7992H230.966V12.117H232.867V10.4349H234.769V4.3278H233.087V2.68219H231.331V1H220.872V2.68219H219.044V26.3791H220.872V28.0612H232.721V26.3791H234.476V24.6969H236.158V17.127H234.622V15.4814H232.867ZM230.466 24.1969H232.221V17.6636H230.466V15.9814H228.71V14.2992H223.164V25.8791H230.466V24.1969ZM230.966 26.3791H222.664V13.7992H229.21V15.4814H230.966V17.1636H232.721V24.6969H230.966V26.3791ZM228.71 9.93486H230.831V4.86437H229.076V3.18219H223.164V11.617H228.71V9.93486ZM229.21 12.117H222.664V2.68219H229.576V4.36437H231.331V10.4349H229.21V12.117Z" fill="#363532"/>
<path d="M195.833 24.6969V1H199.307V24.6969H201.026V26.3791H206.987V24.6969H208.742V1H212.216V24.6969H210.534V26.3791H208.742V28.0612H199.307V26.3791H197.552V24.6969H195.833Z" fill="#363532"/>
<path fill-rule="evenodd" clip-rule="evenodd" d="M195.333 25.1969V0.5H199.807V24.1969H201.526V25.8791H206.487V24.1969H208.242V0.5H212.716V25.1969H211.034V26.8791H209.242V28.5612H198.807V26.8791H197.052V25.1969H195.333ZM197.552 24.6969V26.3791H199.307V28.0612H208.742V26.3791H210.534V24.6969H212.216V1H208.742V24.6969H206.987V26.3791H201.026V24.6969H199.307V1H195.833V24.6969H197.552Z" fill="#363532"/>
<path d="M173.484 2.64562V1H176.885V2.64562H178.677V26.2328H188.258V24.5872H191.769V26.3425H190.014V28.0612H176.958V26.2328H175.13V2.64562H173.484Z" fill="#363532"/>
<path fill-rule="evenodd" clip-rule="evenodd" d="M172.984 3.14562V0.5H177.385V2.14562H179.177V25.7328H187.758V24.0872H192.269V26.8425H190.514V28.5612H176.458V26.7328H174.63V3.14562H172.984ZM175.13 2.64562V26.2328H176.958V28.0612H190.014V26.3425H191.769V24.5872H188.258V26.2328H178.677V2.64562H176.885V1H173.484V2.64562H175.13Z" fill="#363532"/>
<path d="M151.625 24.6969V4.3278H153.344V2.68219H155.172V1H164.68V2.68219H166.436V4.3278H168.118V10.1423H164.68V4.36437H162.925V2.68219H156.891V4.36437H155.172V24.6969H156.891V26.3791H162.925V24.6969H164.68V18.1144H168.118V24.6969H166.436V26.3791H164.68V28.0612H155.172V26.3791H153.344V24.6969H151.625Z" fill="#363532"/>
<path fill-rule="evenodd" clip-rule="evenodd" d="M151.125 25.1969V3.8278H152.844V2.18219H154.672V0.5H165.18V2.18219H166.936V3.8278H168.618V10.6423H164.18V4.86437H162.425V3.18219H157.391V4.86437H155.672V24.1969H157.391V25.8791H162.425V24.1969H164.18V17.6144H168.618V25.1969H166.936V26.8791H165.18V28.5612H154.672V26.8791H152.844V25.1969H151.125ZM153.344 24.6969V26.3791H155.172V28.0612H164.68V26.3791H166.436V24.6969H168.118V18.1144H164.68V24.6969H162.925V26.3791H156.891V24.6969H155.172V4.36437H156.891V2.68219H162.925V4.36437H164.68V10.1423H168.118V4.3278H166.436V2.68219H164.68V1H155.172V2.68219H153.344V4.3278H151.625V24.6969H153.344Z" fill="#363532"/>
<path d="M116.028 24.6969H114.31V4.3278H116.028V2.68219H117.747V1H127.621V2.68219H129.376V4.3278H131.058V24.6969H129.376V26.3791H127.621V28.0612H117.747V26.3791H116.028V24.6969ZM117.747 24.6969H119.466V26.3791H125.865V24.6969H127.621V4.36437H125.865V2.68219H119.466V4.36437H117.747V24.6969Z" fill="#363532"/>
<path fill-rule="evenodd" clip-rule="evenodd" d="M113.81 25.1969V3.8278H115.528V2.18219H117.247V0.5H128.121V2.18219H129.876V3.8278H131.558V25.1969H129.876V26.8791H128.121V28.5612H117.247V26.8791H115.528V25.1969H113.81ZM116.028 24.6969V26.3791H117.747V28.0612H127.621V26.3791H129.376V24.6969H131.058V4.3278H129.376V2.68219H127.621V1H117.747V2.68219H116.028V4.3278H114.31V24.6969H116.028ZM119.966 24.1969V25.8791H125.365V24.1969H127.121V4.86437H125.365V3.18219H119.966V4.86437H118.247V24.1969H119.966ZM117.747 4.36437H119.466V2.68219H125.865V4.36437H127.621V24.6969H125.865V26.3791H119.466V24.6969H117.747V4.36437Z" fill="#363532"/>
<path d="M109.518 2.71875H102.058V28.0612H98.4739V2.71875H91.0869V1H109.518V2.71875Z" fill="#363532"/>
<path fill-rule="evenodd" clip-rule="evenodd" d="M110.018 3.21875H102.558V28.5612H97.9739V3.21875H90.5869V0.5H110.018V3.21875ZM98.4739 2.71875V28.0612H102.058V2.71875H109.518V1H91.0869V2.71875H98.4739Z" fill="#363532"/>
<path d="M84.5375 8.05786H86.2928V28.0612H82.8187V17.2002H72.4331V28.0612H68.959V8.05786H70.7143V5.49802H72.5428V2.93817H74.2615V1H80.9903V2.93817H82.709V5.49802H84.5375V8.05786ZM72.4331 15.5911H82.8187V8.05786H80.9171V5.49802H79.1252V2.93817H76.1266V5.49802H74.3347V8.05786H72.4331V15.5911Z" fill="#363532"/>
<path fill-rule="evenodd" clip-rule="evenodd" d="M86.7928 7.55786V28.5612H82.3187V17.7002H72.9331V28.5612H68.459V7.55786H70.2143V4.99802H72.0428V2.43817H73.7615V0.5H81.4903V2.43817H83.209V4.99802H85.0375V7.55786H86.7928ZM82.709 5.49802V2.93817H80.9903V1H74.2615V2.93817H72.5428V5.49802H70.7143V8.05786H68.959V28.0612H72.4331V17.2002H82.8187V28.0612H86.2928V8.05786H84.5375V5.49802H82.709ZM80.4171 8.55787V5.99802H78.6252V3.43817H76.6266V5.99802H74.8347V8.55787H72.9331V15.0911H82.3187V8.55787H80.4171ZM82.8187 15.5911H72.4331V8.05786H74.3347V5.49802H76.1266V2.93817H79.1252V5.49802H80.9171V8.05786H82.8187V15.5911Z" fill="#363532"/>
<path d="M64.1672 2.71875H56.7071V28.0612H53.1233V2.71875H45.7363V1H64.1672V2.71875Z" fill="#363532"/>
<path fill-rule="evenodd" clip-rule="evenodd" d="M64.6672 3.21875H57.2071V28.5612H52.6233V3.21875H45.2363V0.5H64.6672V3.21875ZM53.1233 2.71875V28.0612H56.7071V2.71875H64.1672V1H45.7363V2.71875H53.1233Z" fill="#363532"/>
<path d="M25.8984 24.6969H24.1797V4.3278H25.8984V2.68219H27.6172V1H37.4909V2.68219H39.2462V4.3278H40.9284V24.6969H39.2462V26.3791H37.4909V28.0612H27.6172V26.3791H25.8984V24.6969ZM27.6172 24.6969H29.3359V26.3791H35.7356V24.6969H37.4909V4.36437H35.7356V2.68219H29.3359V4.36437H27.6172V24.6969Z" fill="#363532"/>
<path fill-rule="evenodd" clip-rule="evenodd" d="M23.6797 25.1969V3.8278H25.3984V2.18219H27.1172V0.5H37.9909V2.18219H39.7462V3.8278H41.4284V25.1969H39.7462V26.8791H37.9909V28.5612H27.1172V26.8791H25.3984V25.1969H23.6797ZM25.8984 24.6969V26.3791H27.6172V28.0612H37.4909V26.3791H39.2462V24.6969H40.9284V4.3278H39.2462V2.68219H37.4909V1H27.6172V2.68219H25.8984V4.3278H24.1797V24.6969H25.8984ZM29.8359 24.1969V25.8791H35.2356V24.1969H36.9909V4.86437H35.2356V3.18219H29.8359V4.86437H28.1172V24.1969H29.8359ZM27.6172 4.36437H29.3359V2.68219H35.7356V4.36437H37.4909V24.6969H35.7356V26.3791H29.3359V24.6969H27.6172V4.36437Z" fill="#363532"/>
<path d="M1.04004 24.6969V4.3278H2.75879V2.68219H4.58726V1H14.0953V2.68219H15.8506V4.3278H17.5328V10.1423H14.0953V4.36437H12.3399V2.68219H6.30601V4.36437H4.58726V24.6969H6.30601V26.3791H12.3399V24.6969H14.0953V18.1144H17.5328V24.6969H15.8506V26.3791H14.0953V28.0612H4.58726V26.3791H2.75879V24.6969H1.04004Z" fill="#363532"/>
<path fill-rule="evenodd" clip-rule="evenodd" d="M0.540039 25.1969V3.8278H2.25879V2.18219H4.08726V0.5H14.5953V2.18219H16.3506V3.8278H18.0328V10.6423H13.5953V4.86437H11.8399V3.18219H6.80601V4.86437H5.08726V24.1969H6.80601V25.8791H11.8399V24.1969H13.5953V17.6144H18.0328V25.1969H16.3506V26.8791H14.5953V28.5612H4.08726V26.8791H2.25879V25.1969H0.540039ZM2.75879 24.6969V26.3791H4.58726V28.0612H14.0953V26.3791H15.8506V24.6969H17.5328V18.1144H14.0953V24.6969H12.3399V26.3791H6.30601V24.6969H4.58726V4.36437H6.30601V2.68219H12.3399V4.36437H14.0953V10.1423H17.5328V4.3278H15.8506V2.68219H14.0953V1H4.58726V2.68219H2.75879V4.3278H1.04004V24.6969H2.75879Z" fill="#363532"/>
</svg>
