<svg width="186" height="148" viewBox="0 0 186 148" fill="none" xmlns="http://www.w3.org/2000/svg">
<rect x="29.7073" y="109.634" width="125.902" height="38.1951" rx="19.0976" fill="#FFA000"/>
<path d="M81.8728 118.84V129.781H79.5726V127.709H75.1174V125.844H79.5726V123.834H75.2935C74.1123 126.807 71.377 128.89 67.3051 130.03L66.3726 128.206C70.7553 127.025 73.0969 124.797 73.4492 122.01H67.3673V120.145H75.967C75.967 120.798 75.9152 121.42 75.8115 122.01H79.5726V118.84H81.8728ZM69.3151 133.718C69.3151 131.418 71.8329 129.999 75.6768 129.988C79.469 129.999 81.9971 131.418 81.9971 133.718C81.9971 136.018 79.469 137.459 75.6768 137.448C71.8329 137.459 69.3151 136.018 69.3151 133.718ZM71.6153 133.718C71.6153 134.951 73.1591 135.625 75.6768 135.625C78.1532 135.625 79.6866 134.951 79.697 133.718C79.6866 132.464 78.1532 131.791 75.6768 131.791C73.1591 131.791 71.6153 132.464 71.6153 133.718ZM90.286 122.528C90.2756 124.683 91.3635 126.59 93.7466 127.502L92.5447 129.284C90.9387 128.652 89.8508 127.522 89.2084 126.092C88.5453 127.719 87.3642 129.045 85.6235 129.76L84.3802 127.978C86.9083 126.942 88.0687 124.756 88.0687 122.528V122.114H84.9189V120.269H93.3114V122.114H90.286V122.528ZM87.7993 134.029C87.789 131.853 90.2756 130.558 94.2232 130.548C98.1397 130.558 100.637 131.853 100.647 134.029C100.637 136.215 98.1397 137.531 94.2232 137.531C90.2756 137.531 87.789 136.215 87.7993 134.029ZM90.0995 134.029C90.0891 135.169 91.6226 135.749 94.2232 135.749C96.7824 135.749 98.3158 135.169 98.3262 134.029C98.3158 132.941 96.7824 132.309 94.2232 132.309C91.6226 132.309 90.0891 132.941 90.0995 134.029ZM94.3683 129.636V119.192H96.5441V123.523H98.3469V118.84H100.543V130.216H98.3469V125.409H96.5441V129.636H94.3683ZM119.96 127.191V128.911H115.608V130.195H117.888V134.464H107.154V135.79H118.447V137.386H104.854V132.972H115.608V131.812H104.833V130.195H107.216V128.911H102.844V127.191H119.96ZM104.957 120.808V119.233H117.846V123.44H107.299V124.58H118.178V126.175H105.019V121.948H115.546V120.808H104.957ZM109.495 130.195H113.329V128.911H109.495V130.195Z" fill="#FFFBF6"/>
<path d="M0 84.3835H8.32989V75.6542H0V84.3835Z" fill="#FFEBA3"/>
<path d="M177.461 84.3835L185.791 84.3835V75.6542H177.461V84.3835Z" fill="#FFEBA3"/>
<path d="M0 0H8.32989V8.72934H0V0Z" fill="#FFEBA3"/>
<path d="M177.461 0H185.791V8.72934H177.461V0Z" fill="#FFEBA3"/>
<path d="M0 8.72934H8.32989V17.4587H0V8.72934Z" fill="#FFA000"/>
<path d="M0 75.6542H8.32989V66.9248H0V75.6542Z" fill="#FFA000"/>
<path d="M185.791 8.72934H177.461V17.4587H185.791V8.72934Z" fill="#FFA000"/>
<path d="M185.791 75.6542H177.461V66.9248H185.791V75.6542Z" fill="#FFA000"/>
<path d="M8.32989 0H16.6598V8.72933L8.32989 8.72934V0Z" fill="#FFA000"/>
<path d="M8.32989 84.3835H16.6598V75.6542H8.32989V84.3835Z" fill="#FFA000"/>
<path d="M177.461 0H169.131V8.72933L177.461 8.72934V0Z" fill="#FFA000"/>
<path d="M177.461 84.3835L169.131 84.3835V75.6542H177.461V84.3835Z" fill="#FFA000"/>
<path d="M8.32989 17.4587H0V66.9248H8.32989V75.6542H16.6598V84.3835H124.254H169.131V75.6542H177.461V66.9248H185.791V17.4587H177.461V8.72934L169.131 8.72933V0H16.6598V8.72933L8.32989 8.72934V17.4587Z" fill="#FFC700"/>
<mask id="path-4-outside-1_11181_34447" maskUnits="userSpaceOnUse" x="24.2195" y="23.1465" width="139" height="43" fill="black">
<rect fill="white" x="24.2195" y="23.1465" width="139" height="43"/>
<path d="M25.7771 64.2684V25.0123H32.1429V27.877H35.3259V32.5453H38.0314V37.2666H40.7368V41.9879H43.4423V46.444H46.0417V51.1654H48.5881V25.0123H51.3466V64.2684H47.8984V61.2977H45.0868V56.5764H42.3283V51.855H39.5698V47.1337H36.8112V42.4123H34.0527V37.744H31.2942V33.0227H28.5356V64.2684H25.7771ZM68.3011 64.2684V25.0123H74.6669V27.877H77.8498V32.5453H80.5553V37.2666H83.2608V41.9879H85.9663V46.444H88.5657V51.1654H91.112V25.0123H93.8706V64.2684H90.4224V61.2977H87.6108V56.5764H84.8523V51.855H82.0937V47.1337H79.3352V42.4123H76.5767V37.744H73.8181V33.0227H71.0596V64.2684H68.3011ZM111.568 36.4178V30.8477H117.509V36.4178H111.568ZM111.568 56.5764V51.0062H117.509V56.5764H111.568ZM136.649 64.2684V61.7751H147.259V32.4922H144.766V35.0916H142.113V37.744H137.021V35.0916H139.673V32.4392H142.167V29.8928H144.554V27.4526H147.259V25.0123H152.352V61.7751H160.946V64.2684H136.649Z"/>
</mask>
<path d="M25.7771 64.2684V25.0123H32.1429V27.877H35.3259V32.5453H38.0314V37.2666H40.7368V41.9879H43.4423V46.444H46.0417V51.1654H48.5881V25.0123H51.3466V64.2684H47.8984V61.2977H45.0868V56.5764H42.3283V51.855H39.5698V47.1337H36.8112V42.4123H34.0527V37.744H31.2942V33.0227H28.5356V64.2684H25.7771ZM68.3011 64.2684V25.0123H74.6669V27.877H77.8498V32.5453H80.5553V37.2666H83.2608V41.9879H85.9663V46.444H88.5657V51.1654H91.112V25.0123H93.8706V64.2684H90.4224V61.2977H87.6108V56.5764H84.8523V51.855H82.0937V47.1337H79.3352V42.4123H76.5767V37.744H73.8181V33.0227H71.0596V64.2684H68.3011ZM111.568 36.4178V30.8477H117.509V36.4178H111.568ZM111.568 56.5764V51.0062H117.509V56.5764H111.568ZM136.649 64.2684V61.7751H147.259V32.4922H144.766V35.0916H142.113V37.744H137.021V35.0916H139.673V32.4392H142.167V29.8928H144.554V27.4526H147.259V25.0123H152.352V61.7751H160.946V64.2684H136.649Z" fill="#FB873F"/>
<path d="M25.7771 64.2684H24.3624V65.6831H25.7771V64.2684ZM25.7771 25.0123V23.5977H24.3624V25.0123H25.7771ZM32.1429 25.0123H33.5576V23.5977H32.1429V25.0123ZM32.1429 27.877H30.7283V29.2916H32.1429V27.877ZM35.3259 27.877H36.7405V26.4623H35.3259V27.877ZM35.3259 32.5453H33.9112V33.9599H35.3259V32.5453ZM38.0314 32.5453H39.446V31.1306H38.0314V32.5453ZM38.0314 37.2666H36.6167V38.6812H38.0314V37.2666ZM40.7368 37.2666H42.1515V35.852H40.7368V37.2666ZM40.7368 41.9879H39.3222V43.4026H40.7368V41.9879ZM43.4423 41.9879H44.857V40.5733H43.4423V41.9879ZM43.4423 46.444H42.0277V47.8587H43.4423V46.444ZM46.0417 46.444H47.4564V45.0294H46.0417V46.444ZM46.0417 51.1654H44.6271V52.58H46.0417V51.1654ZM48.5881 51.1654V52.58H50.0027V51.1654H48.5881ZM48.5881 25.0123V23.5977H47.1734V25.0123H48.5881ZM51.3466 25.0123H52.7612V23.5977H51.3466V25.0123ZM51.3466 64.2684V65.6831H52.7612V64.2684H51.3466ZM47.8984 64.2684H46.4838V65.6831H47.8984V64.2684ZM47.8984 61.2977H49.3131V59.8831H47.8984V61.2977ZM45.0868 61.2977H43.6722V62.7123H45.0868V61.2977ZM45.0868 56.5764H46.5015V55.1617H45.0868V56.5764ZM42.3283 56.5764H40.9137V57.991H42.3283V56.5764ZM42.3283 51.855H43.7429V50.4404H42.3283V51.855ZM39.5698 51.855H38.1551V53.2697H39.5698V51.855ZM39.5698 47.1337H40.9844V45.719H39.5698V47.1337ZM36.8112 47.1337H35.3966V48.5483H36.8112V47.1337ZM36.8112 42.4123H38.2259V40.9977H36.8112V42.4123ZM34.0527 42.4123H32.6381V43.827H34.0527V42.4123ZM34.0527 37.744H35.4673V36.3294H34.0527V37.744ZM31.2942 37.744H29.8795V39.1587H31.2942V37.744ZM31.2942 33.0227H32.7088V31.6081H31.2942V33.0227ZM28.5356 33.0227V31.6081H27.121V33.0227H28.5356ZM28.5356 64.2684V65.6831H29.9503V64.2684H28.5356ZM27.1917 64.2684V25.0123H24.3624V64.2684H27.1917ZM25.7771 26.427H32.1429V23.5977H25.7771V26.427ZM30.7283 25.0123V27.877H33.5576V25.0123H30.7283ZM32.1429 29.2916H35.3259V26.4623H32.1429V29.2916ZM33.9112 27.877V32.5453H36.7405V27.877H33.9112ZM35.3259 33.9599H38.0314V31.1306H35.3259V33.9599ZM36.6167 32.5453V37.2666H39.446V32.5453H36.6167ZM38.0314 38.6812H40.7368V35.852H38.0314V38.6812ZM39.3222 37.2666V41.9879H42.1515V37.2666H39.3222ZM40.7368 43.4026H43.4423V40.5733H40.7368V43.4026ZM42.0277 41.9879V46.444H44.857V41.9879H42.0277ZM43.4423 47.8587H46.0417V45.0294H43.4423V47.8587ZM44.6271 46.444V51.1654H47.4564V46.444H44.6271ZM46.0417 52.58H48.5881V49.7508H46.0417V52.58ZM50.0027 51.1654V25.0123H47.1734V51.1654H50.0027ZM48.5881 26.427H51.3466V23.5977H48.5881V26.427ZM49.932 25.0123V64.2684H52.7612V25.0123H49.932ZM51.3466 62.8538H47.8984V65.6831H51.3466V62.8538ZM49.3131 64.2684V61.2977H46.4838V64.2684H49.3131ZM47.8984 59.8831H45.0868V62.7123H47.8984V59.8831ZM46.5015 61.2977V56.5764H43.6722V61.2977H46.5015ZM45.0868 55.1617H42.3283V57.991H45.0868V55.1617ZM43.7429 56.5764V51.855H40.9137V56.5764H43.7429ZM42.3283 50.4404H39.5698V53.2697H42.3283V50.4404ZM40.9844 51.855V47.1337H38.1551V51.855H40.9844ZM39.5698 45.719H36.8112V48.5483H39.5698V45.719ZM38.2259 47.1337V42.4123H35.3966V47.1337H38.2259ZM36.8112 40.9977H34.0527V43.827H36.8112V40.9977ZM35.4673 42.4123V37.744H32.6381V42.4123H35.4673ZM34.0527 36.3294H31.2942V39.1587H34.0527V36.3294ZM32.7088 37.744V33.0227H29.8795V37.744H32.7088ZM31.2942 31.6081H28.5356V34.4373H31.2942V31.6081ZM27.121 33.0227V64.2684H29.9503V33.0227H27.121ZM28.5356 62.8538H25.7771V65.6831H28.5356V62.8538ZM68.3011 64.2684H66.8864V65.6831H68.3011V64.2684ZM68.3011 25.0123V23.5977H66.8864V25.0123H68.3011ZM74.6669 25.0123H76.0816V23.5977H74.6669V25.0123ZM74.6669 27.877H73.2523V29.2916H74.6669V27.877ZM77.8498 27.877H79.2645V26.4623H77.8498V27.877ZM77.8498 32.5453H76.4352V33.9599H77.8498V32.5453ZM80.5553 32.5453H81.97V31.1306H80.5553V32.5453ZM80.5553 37.2666H79.1407V38.6812H80.5553V37.2666ZM83.2608 37.2666H84.6755V35.852H83.2608V37.2666ZM83.2608 41.9879H81.8462V43.4026H83.2608V41.9879ZM85.9663 41.9879H87.3809V40.5733H85.9663V41.9879ZM85.9663 46.444H84.5517V47.8587H85.9663V46.444ZM88.5657 46.444H89.9803V45.0294H88.5657V46.444ZM88.5657 51.1654H87.1511V52.58H88.5657V51.1654ZM91.112 51.1654V52.58H92.5267V51.1654H91.112ZM91.112 25.0123V23.5977H89.6974V25.0123H91.112ZM93.8706 25.0123H95.2852V23.5977H93.8706V25.0123ZM93.8706 64.2684V65.6831H95.2852V64.2684H93.8706ZM90.4224 64.2684H89.0078V65.6831H90.4224V64.2684ZM90.4224 61.2977H91.837V59.8831H90.4224V61.2977ZM87.6108 61.2977H86.1962V62.7123H87.6108V61.2977ZM87.6108 56.5764H89.0255V55.1617H87.6108V56.5764ZM84.8523 56.5764H83.4377V57.991H84.8523V56.5764ZM84.8523 51.855H86.2669V50.4404H84.8523V51.855ZM82.0937 51.855H80.6791V53.2697H82.0937V51.855ZM82.0937 47.1337H83.5084V45.719H82.0937V47.1337ZM79.3352 47.1337H77.9206V48.5483H79.3352V47.1337ZM79.3352 42.4123H80.7498V40.9977H79.3352V42.4123ZM76.5767 42.4123H75.162V43.827H76.5767V42.4123ZM76.5767 37.744H77.9913V36.3294H76.5767V37.744ZM73.8181 37.744H72.4035V39.1587H73.8181V37.744ZM73.8181 33.0227H75.2328V31.6081H73.8181V33.0227ZM71.0596 33.0227V31.6081H69.645V33.0227H71.0596ZM71.0596 64.2684V65.6831H72.4742V64.2684H71.0596ZM69.7157 64.2684V25.0123H66.8864V64.2684H69.7157ZM68.3011 26.427H74.6669V23.5977H68.3011V26.427ZM73.2523 25.0123V27.877H76.0816V25.0123H73.2523ZM74.6669 29.2916H77.8498V26.4623H74.6669V29.2916ZM76.4352 27.877V32.5453H79.2645V27.877H76.4352ZM77.8498 33.9599H80.5553V31.1306H77.8498V33.9599ZM79.1407 32.5453V37.2666H81.97V32.5453H79.1407ZM80.5553 38.6812H83.2608V35.852H80.5553V38.6812ZM81.8462 37.2666V41.9879H84.6755V37.2666H81.8462ZM83.2608 43.4026H85.9663V40.5733H83.2608V43.4026ZM84.5517 41.9879V46.444H87.3809V41.9879H84.5517ZM85.9663 47.8587H88.5657V45.0294H85.9663V47.8587ZM87.1511 46.444V51.1654H89.9803V46.444H87.1511ZM88.5657 52.58H91.112V49.7508H88.5657V52.58ZM92.5267 51.1654V25.0123H89.6974V51.1654H92.5267ZM91.112 26.427H93.8706V23.5977H91.112V26.427ZM92.4559 25.0123V64.2684H95.2852V25.0123H92.4559ZM93.8706 62.8538H90.4224V65.6831H93.8706V62.8538ZM91.837 64.2684V61.2977H89.0078V64.2684H91.837ZM90.4224 59.8831H87.6108V62.7123H90.4224V59.8831ZM89.0255 61.2977V56.5764H86.1962V61.2977H89.0255ZM87.6108 55.1617H84.8523V57.991H87.6108V55.1617ZM86.2669 56.5764V51.855H83.4377V56.5764H86.2669ZM84.8523 50.4404H82.0937V53.2697H84.8523V50.4404ZM83.5084 51.855V47.1337H80.6791V51.855H83.5084ZM82.0937 45.719H79.3352V48.5483H82.0937V45.719ZM80.7498 47.1337V42.4123H77.9206V47.1337H80.7498ZM79.3352 40.9977H76.5767V43.827H79.3352V40.9977ZM77.9913 42.4123V37.744H75.162V42.4123H77.9913ZM76.5767 36.3294H73.8181V39.1587H76.5767V36.3294ZM75.2328 37.744V33.0227H72.4035V37.744H75.2328ZM73.8181 31.6081H71.0596V34.4373H73.8181V31.6081ZM69.645 33.0227V64.2684H72.4742V33.0227H69.645ZM71.0596 62.8538H68.3011V65.6831H71.0596V62.8538ZM111.568 36.4178H110.153V37.8325H111.568V36.4178ZM111.568 30.8477V29.4331H110.153V30.8477H111.568ZM117.509 30.8477H118.924V29.4331H117.509V30.8477ZM117.509 36.4178V37.8325H118.924V36.4178H117.509ZM111.568 56.5764H110.153V57.991H111.568V56.5764ZM111.568 51.0062V49.5916H110.153V51.0062H111.568ZM117.509 51.0062H118.924V49.5916H117.509V51.0062ZM117.509 56.5764V57.991H118.924V56.5764H117.509ZM112.982 36.4178V30.8477H110.153V36.4178H112.982ZM111.568 32.2623H117.509V29.4331H111.568V32.2623ZM116.095 30.8477V36.4178H118.924V30.8477H116.095ZM117.509 35.0032H111.568V37.8325H117.509V35.0032ZM112.982 56.5764V51.0062H110.153V56.5764H112.982ZM111.568 52.4209H117.509V49.5916H111.568V52.4209ZM116.095 51.0062V56.5764H118.924V51.0062H116.095ZM117.509 55.1617H111.568V57.991H117.509V55.1617ZM136.649 64.2684H135.235V65.6831H136.649V64.2684ZM136.649 61.7751V60.3605H135.235V61.7751H136.649ZM147.259 61.7751V63.1898H148.674V61.7751H147.259ZM147.259 32.4922H148.674V31.0776H147.259V32.4922ZM144.766 32.4922V31.0776H143.351V32.4922H144.766ZM144.766 35.0916V36.5062H146.181V35.0916H144.766ZM142.113 35.0916V33.677H140.699V35.0916H142.113ZM142.113 37.744V39.1587H143.528V37.744H142.113ZM137.021 37.744H135.606V39.1587H137.021V37.744ZM137.021 35.0916V33.677H135.606V35.0916H137.021ZM139.673 35.0916V36.5062H141.088V35.0916H139.673ZM139.673 32.4392V31.0245H138.259V32.4392H139.673ZM142.167 32.4392V33.8538H143.581V32.4392H142.167ZM142.167 29.8928V28.4782H140.752V29.8928H142.167ZM144.554 29.8928V31.3075H145.968V29.8928H144.554ZM144.554 27.4526V26.0379H143.139V27.4526H144.554ZM147.259 27.4526V28.8672H148.674V27.4526H147.259ZM147.259 25.0123V23.5977H145.845V25.0123H147.259ZM152.352 25.0123H153.767V23.5977H152.352V25.0123ZM152.352 61.7751H150.937V63.1898H152.352V61.7751ZM160.946 61.7751H162.36V60.3605H160.946V61.7751ZM160.946 64.2684V65.6831H162.36V64.2684H160.946ZM138.064 64.2684V61.7751H135.235V64.2684H138.064ZM136.649 63.1898H147.259V60.3605H136.649V63.1898ZM148.674 61.7751V32.4922H145.845V61.7751H148.674ZM147.259 31.0776H144.766V33.9069H147.259V31.0776ZM143.351 32.4922V35.0916H146.181V32.4922H143.351ZM144.766 33.677H142.113V36.5062H144.766V33.677ZM140.699 35.0916V37.744H143.528V35.0916H140.699ZM142.113 36.3294H137.021V39.1587H142.113V36.3294ZM138.435 37.744V35.0916H135.606V37.744H138.435ZM137.021 36.5062H139.673V33.677H137.021V36.5062ZM141.088 35.0916V32.4392H138.259V35.0916H141.088ZM139.673 33.8538H142.167V31.0245H139.673V33.8538ZM143.581 32.4392V29.8928H140.752V32.4392H143.581ZM142.167 31.3075H144.554V28.4782H142.167V31.3075ZM145.968 29.8928V27.4526H143.139V29.8928H145.968ZM144.554 28.8672H147.259V26.0379H144.554V28.8672ZM148.674 27.4526V25.0123H145.845V27.4526H148.674ZM147.259 26.427H152.352V23.5977H147.259V26.427ZM150.937 25.0123V61.7751H153.767V25.0123H150.937ZM152.352 63.1898H160.946V60.3605H152.352V63.1898ZM159.531 61.7751V64.2684H162.36V61.7751H159.531ZM160.946 62.8538H136.649V65.6831H160.946V62.8538Z" fill="#FB873F" mask="url(#path-4-outside-1_11181_34447)"/>
<mask id="path-6-outside-2_11181_34447" maskUnits="userSpaceOnUse" x="24.2195" y="18.1953" width="139" height="43" fill="black">
<rect fill="white" x="24.2195" y="18.1953" width="139" height="43"/>
<path d="M25.7771 59.3173V20.0612H32.1429V22.9258H35.3259V27.5941H38.0314V32.3154H40.7368V37.0368H43.4423V41.4929H46.0417V46.2142H48.5881V20.0612H51.3466V59.3173H47.8984V56.3465H45.0868V51.6252H42.3283V46.9038H39.5698V42.1825H36.8112V37.4612H34.0527V32.7929H31.2942V28.0715H28.5356V59.3173H25.7771ZM68.3011 59.3173V20.0612H74.6669V22.9258H77.8498V27.5941H80.5553V32.3154H83.2608V37.0368H85.9663V41.4929H88.5657V46.2142H91.112V20.0612H93.8706V59.3173H90.4224V56.3465H87.6108V51.6252H84.8523V46.9038H82.0937V42.1825H79.3352V37.4612H76.5767V32.7929H73.8181V28.0715H71.0596V59.3173H68.3011ZM111.568 31.4667V25.8965H117.509V31.4667H111.568ZM111.568 51.6252V46.0551H117.509V51.6252H111.568ZM136.649 59.3173V56.824H147.259V27.541H144.766V30.1404H142.113V32.7929H137.021V30.1404H139.673V27.488H142.167V24.9417H144.554V22.5014H147.259V20.0612H152.352V56.824H160.946V59.3173H136.649Z"/>
</mask>
<path d="M25.7771 59.3173V20.0612H32.1429V22.9258H35.3259V27.5941H38.0314V32.3154H40.7368V37.0368H43.4423V41.4929H46.0417V46.2142H48.5881V20.0612H51.3466V59.3173H47.8984V56.3465H45.0868V51.6252H42.3283V46.9038H39.5698V42.1825H36.8112V37.4612H34.0527V32.7929H31.2942V28.0715H28.5356V59.3173H25.7771ZM68.3011 59.3173V20.0612H74.6669V22.9258H77.8498V27.5941H80.5553V32.3154H83.2608V37.0368H85.9663V41.4929H88.5657V46.2142H91.112V20.0612H93.8706V59.3173H90.4224V56.3465H87.6108V51.6252H84.8523V46.9038H82.0937V42.1825H79.3352V37.4612H76.5767V32.7929H73.8181V28.0715H71.0596V59.3173H68.3011ZM111.568 31.4667V25.8965H117.509V31.4667H111.568ZM111.568 51.6252V46.0551H117.509V51.6252H111.568ZM136.649 59.3173V56.824H147.259V27.541H144.766V30.1404H142.113V32.7929H137.021V30.1404H139.673V27.488H142.167V24.9417H144.554V22.5014H147.259V20.0612H152.352V56.824H160.946V59.3173H136.649Z" fill="#FFFBF6"/>
<path d="M25.7771 59.3173H24.3624V60.7319H25.7771V59.3173ZM25.7771 20.0612V18.6465H24.3624V20.0612H25.7771ZM32.1429 20.0612H33.5576V18.6465H32.1429V20.0612ZM32.1429 22.9258H30.7283V24.3404H32.1429V22.9258ZM35.3259 22.9258H36.7405V21.5112H35.3259V22.9258ZM35.3259 27.5941H33.9112V29.0087H35.3259V27.5941ZM38.0314 27.5941H39.446V26.1795H38.0314V27.5941ZM38.0314 32.3154H36.6167V33.7301H38.0314V32.3154ZM40.7368 32.3154H42.1515V30.9008H40.7368V32.3154ZM40.7368 37.0368H39.3222V38.4514H40.7368V37.0368ZM43.4423 37.0368H44.857V35.6221H43.4423V37.0368ZM43.4423 41.4929H42.0277V42.9075H43.4423V41.4929ZM46.0417 41.4929H47.4564V40.0782H46.0417V41.4929ZM46.0417 46.2142H44.6271V47.6288H46.0417V46.2142ZM48.5881 46.2142V47.6288H50.0027V46.2142H48.5881ZM48.5881 20.0612V18.6465H47.1734V20.0612H48.5881ZM51.3466 20.0612H52.7612V18.6465H51.3466V20.0612ZM51.3466 59.3173V60.7319H52.7612V59.3173H51.3466ZM47.8984 59.3173H46.4838V60.7319H47.8984V59.3173ZM47.8984 56.3465H49.3131V54.9319H47.8984V56.3465ZM45.0868 56.3465H43.6722V57.7612H45.0868V56.3465ZM45.0868 51.6252H46.5015V50.2106H45.0868V51.6252ZM42.3283 51.6252H40.9137V53.0398H42.3283V51.6252ZM42.3283 46.9038H43.7429V45.4892H42.3283V46.9038ZM39.5698 46.9038H38.1551V48.3185H39.5698V46.9038ZM39.5698 42.1825H40.9844V40.7679H39.5698V42.1825ZM36.8112 42.1825H35.3966V43.5971H36.8112V42.1825ZM36.8112 37.4612H38.2259V36.0465H36.8112V37.4612ZM34.0527 37.4612H32.6381V38.8758H34.0527V37.4612ZM34.0527 32.7929H35.4673V31.3782H34.0527V32.7929ZM31.2942 32.7929H29.8795V34.2075H31.2942V32.7929ZM31.2942 28.0715H32.7088V26.6569H31.2942V28.0715ZM28.5356 28.0715V26.6569H27.121V28.0715H28.5356ZM28.5356 59.3173V60.7319H29.9503V59.3173H28.5356ZM27.1917 59.3173V20.0612H24.3624V59.3173H27.1917ZM25.7771 21.4758H32.1429V18.6465H25.7771V21.4758ZM30.7283 20.0612V22.9258H33.5576V20.0612H30.7283ZM32.1429 24.3404H35.3259V21.5112H32.1429V24.3404ZM33.9112 22.9258V27.5941H36.7405V22.9258H33.9112ZM35.3259 29.0087H38.0314V26.1795H35.3259V29.0087ZM36.6167 27.5941V32.3154H39.446V27.5941H36.6167ZM38.0314 33.7301H40.7368V30.9008H38.0314V33.7301ZM39.3222 32.3154V37.0368H42.1515V32.3154H39.3222ZM40.7368 38.4514H43.4423V35.6221H40.7368V38.4514ZM42.0277 37.0368V41.4929H44.857V37.0368H42.0277ZM43.4423 42.9075H46.0417V40.0782H43.4423V42.9075ZM44.6271 41.4929V46.2142H47.4564V41.4929H44.6271ZM46.0417 47.6288H48.5881V44.7996H46.0417V47.6288ZM50.0027 46.2142V20.0612H47.1734V46.2142H50.0027ZM48.5881 21.4758H51.3466V18.6465H48.5881V21.4758ZM49.932 20.0612V59.3173H52.7612V20.0612H49.932ZM51.3466 57.9026H47.8984V60.7319H51.3466V57.9026ZM49.3131 59.3173V56.3465H46.4838V59.3173H49.3131ZM47.8984 54.9319H45.0868V57.7612H47.8984V54.9319ZM46.5015 56.3465V51.6252H43.6722V56.3465H46.5015ZM45.0868 50.2106H42.3283V53.0398H45.0868V50.2106ZM43.7429 51.6252V46.9038H40.9137V51.6252H43.7429ZM42.3283 45.4892H39.5698V48.3185H42.3283V45.4892ZM40.9844 46.9038V42.1825H38.1551V46.9038H40.9844ZM39.5698 40.7679H36.8112V43.5971H39.5698V40.7679ZM38.2259 42.1825V37.4612H35.3966V42.1825H38.2259ZM36.8112 36.0465H34.0527V38.8758H36.8112V36.0465ZM35.4673 37.4612V32.7929H32.6381V37.4612H35.4673ZM34.0527 31.3782H31.2942V34.2075H34.0527V31.3782ZM32.7088 32.7929V28.0715H29.8795V32.7929H32.7088ZM31.2942 26.6569H28.5356V29.4862H31.2942V26.6569ZM27.121 28.0715V59.3173H29.9503V28.0715H27.121ZM28.5356 57.9026H25.7771V60.7319H28.5356V57.9026ZM68.3011 59.3173H66.8864V60.7319H68.3011V59.3173ZM68.3011 20.0612V18.6465H66.8864V20.0612H68.3011ZM74.6669 20.0612H76.0816V18.6465H74.6669V20.0612ZM74.6669 22.9258H73.2523V24.3404H74.6669V22.9258ZM77.8498 22.9258H79.2645V21.5112H77.8498V22.9258ZM77.8498 27.5941H76.4352V29.0087H77.8498V27.5941ZM80.5553 27.5941H81.97V26.1795H80.5553V27.5941ZM80.5553 32.3154H79.1407V33.7301H80.5553V32.3154ZM83.2608 32.3154H84.6755V30.9008H83.2608V32.3154ZM83.2608 37.0368H81.8462V38.4514H83.2608V37.0368ZM85.9663 37.0368H87.3809V35.6221H85.9663V37.0368ZM85.9663 41.4929H84.5517V42.9075H85.9663V41.4929ZM88.5657 41.4929H89.9803V40.0782H88.5657V41.4929ZM88.5657 46.2142H87.1511V47.6288H88.5657V46.2142ZM91.112 46.2142V47.6288H92.5267V46.2142H91.112ZM91.112 20.0612V18.6465H89.6974V20.0612H91.112ZM93.8706 20.0612H95.2852V18.6465H93.8706V20.0612ZM93.8706 59.3173V60.7319H95.2852V59.3173H93.8706ZM90.4224 59.3173H89.0078V60.7319H90.4224V59.3173ZM90.4224 56.3465H91.837V54.9319H90.4224V56.3465ZM87.6108 56.3465H86.1962V57.7612H87.6108V56.3465ZM87.6108 51.6252H89.0255V50.2106H87.6108V51.6252ZM84.8523 51.6252H83.4377V53.0398H84.8523V51.6252ZM84.8523 46.9038H86.2669V45.4892H84.8523V46.9038ZM82.0937 46.9038H80.6791V48.3185H82.0937V46.9038ZM82.0937 42.1825H83.5084V40.7679H82.0937V42.1825ZM79.3352 42.1825H77.9206V43.5971H79.3352V42.1825ZM79.3352 37.4612H80.7498V36.0465H79.3352V37.4612ZM76.5767 37.4612H75.162V38.8758H76.5767V37.4612ZM76.5767 32.7929H77.9913V31.3782H76.5767V32.7929ZM73.8181 32.7929H72.4035V34.2075H73.8181V32.7929ZM73.8181 28.0715H75.2328V26.6569H73.8181V28.0715ZM71.0596 28.0715V26.6569H69.645V28.0715H71.0596ZM71.0596 59.3173V60.7319H72.4742V59.3173H71.0596ZM69.7157 59.3173V20.0612H66.8864V59.3173H69.7157ZM68.3011 21.4758H74.6669V18.6465H68.3011V21.4758ZM73.2523 20.0612V22.9258H76.0816V20.0612H73.2523ZM74.6669 24.3404H77.8498V21.5112H74.6669V24.3404ZM76.4352 22.9258V27.5941H79.2645V22.9258H76.4352ZM77.8498 29.0087H80.5553V26.1795H77.8498V29.0087ZM79.1407 27.5941V32.3154H81.97V27.5941H79.1407ZM80.5553 33.7301H83.2608V30.9008H80.5553V33.7301ZM81.8462 32.3154V37.0368H84.6755V32.3154H81.8462ZM83.2608 38.4514H85.9663V35.6221H83.2608V38.4514ZM84.5517 37.0368V41.4929H87.3809V37.0368H84.5517ZM85.9663 42.9075H88.5657V40.0782H85.9663V42.9075ZM87.1511 41.4929V46.2142H89.9803V41.4929H87.1511ZM88.5657 47.6288H91.112V44.7996H88.5657V47.6288ZM92.5267 46.2142V20.0612H89.6974V46.2142H92.5267ZM91.112 21.4758H93.8706V18.6465H91.112V21.4758ZM92.4559 20.0612V59.3173H95.2852V20.0612H92.4559ZM93.8706 57.9026H90.4224V60.7319H93.8706V57.9026ZM91.837 59.3173V56.3465H89.0078V59.3173H91.837ZM90.4224 54.9319H87.6108V57.7612H90.4224V54.9319ZM89.0255 56.3465V51.6252H86.1962V56.3465H89.0255ZM87.6108 50.2106H84.8523V53.0398H87.6108V50.2106ZM86.2669 51.6252V46.9038H83.4377V51.6252H86.2669ZM84.8523 45.4892H82.0937V48.3185H84.8523V45.4892ZM83.5084 46.9038V42.1825H80.6791V46.9038H83.5084ZM82.0937 40.7679H79.3352V43.5971H82.0937V40.7679ZM80.7498 42.1825V37.4612H77.9206V42.1825H80.7498ZM79.3352 36.0465H76.5767V38.8758H79.3352V36.0465ZM77.9913 37.4612V32.7929H75.162V37.4612H77.9913ZM76.5767 31.3782H73.8181V34.2075H76.5767V31.3782ZM75.2328 32.7929V28.0715H72.4035V32.7929H75.2328ZM73.8181 26.6569H71.0596V29.4862H73.8181V26.6569ZM69.645 28.0715V59.3173H72.4742V28.0715H69.645ZM71.0596 57.9026H68.3011V60.7319H71.0596V57.9026ZM111.568 31.4667H110.153V32.8813H111.568V31.4667ZM111.568 25.8965V24.4819H110.153V25.8965H111.568ZM117.509 25.8965H118.924V24.4819H117.509V25.8965ZM117.509 31.4667V32.8813H118.924V31.4667H117.509ZM111.568 51.6252H110.153V53.0398H111.568V51.6252ZM111.568 46.0551V44.6404H110.153V46.0551H111.568ZM117.509 46.0551H118.924V44.6404H117.509V46.0551ZM117.509 51.6252V53.0398H118.924V51.6252H117.509ZM112.982 31.4667V25.8965H110.153V31.4667H112.982ZM111.568 27.3112H117.509V24.4819H111.568V27.3112ZM116.095 25.8965V31.4667H118.924V25.8965H116.095ZM117.509 30.052H111.568V32.8813H117.509V30.052ZM112.982 51.6252V46.0551H110.153V51.6252H112.982ZM111.568 47.4697H117.509V44.6404H111.568V47.4697ZM116.095 46.0551V51.6252H118.924V46.0551H116.095ZM117.509 50.2106H111.568V53.0398H117.509V50.2106ZM136.649 59.3173H135.235V60.7319H136.649V59.3173ZM136.649 56.824V55.4093H135.235V56.824H136.649ZM147.259 56.824V58.2386H148.674V56.824H147.259ZM147.259 27.541H148.674V26.1264H147.259V27.541ZM144.766 27.541V26.1264H143.351V27.541H144.766ZM144.766 30.1404V31.5551H146.181V30.1404H144.766ZM142.113 30.1404V28.7258H140.699V30.1404H142.113ZM142.113 32.7929V34.2075H143.528V32.7929H142.113ZM137.021 32.7929H135.606V34.2075H137.021V32.7929ZM137.021 30.1404V28.7258H135.606V30.1404H137.021ZM139.673 30.1404V31.5551H141.088V30.1404H139.673ZM139.673 27.488V26.0734H138.259V27.488H139.673ZM142.167 27.488V28.9026H143.581V27.488H142.167ZM142.167 24.9417V23.527H140.752V24.9417H142.167ZM144.554 24.9417V26.3563H145.968V24.9417H144.554ZM144.554 22.5014V21.0868H143.139V22.5014H144.554ZM147.259 22.5014V23.916H148.674V22.5014H147.259ZM147.259 20.0612V18.6465H145.845V20.0612H147.259ZM152.352 20.0612H153.767V18.6465H152.352V20.0612ZM152.352 56.824H150.937V58.2386H152.352V56.824ZM160.946 56.824H162.36V55.4093H160.946V56.824ZM160.946 59.3173V60.7319H162.36V59.3173H160.946ZM138.064 59.3173V56.824H135.235V59.3173H138.064ZM136.649 58.2386H147.259V55.4093H136.649V58.2386ZM148.674 56.824V27.541H145.845V56.824H148.674ZM147.259 26.1264H144.766V28.9557H147.259V26.1264ZM143.351 27.541V30.1404H146.181V27.541H143.351ZM144.766 28.7258H142.113V31.5551H144.766V28.7258ZM140.699 30.1404V32.7929H143.528V30.1404H140.699ZM142.113 31.3782H137.021V34.2075H142.113V31.3782ZM138.435 32.7929V30.1404H135.606V32.7929H138.435ZM137.021 31.5551H139.673V28.7258H137.021V31.5551ZM141.088 30.1404V27.488H138.259V30.1404H141.088ZM139.673 28.9026H142.167V26.0734H139.673V28.9026ZM143.581 27.488V24.9417H140.752V27.488H143.581ZM142.167 26.3563H144.554V23.527H142.167V26.3563ZM145.968 24.9417V22.5014H143.139V24.9417H145.968ZM144.554 23.916H147.259V21.0868H144.554V23.916ZM148.674 22.5014V20.0612H145.845V22.5014H148.674ZM147.259 21.4758H152.352V18.6465H147.259V21.4758ZM150.937 20.0612V56.824H153.767V20.0612H150.937ZM152.352 58.2386H160.946V55.4093H152.352V58.2386ZM159.531 56.824V59.3173H162.36V56.824H159.531ZM160.946 57.9026H136.649V60.7319H160.946V57.9026Z" fill="#FFFBF6" mask="url(#path-6-outside-2_11181_34447)"/>
<rect x="41.0244" y="84.1709" width="8.4878" height="36.7805" fill="#FFA000"/>
<rect x="135.805" y="84.1709" width="8.4878" height="36.7805" fill="#FFA000"/>
</svg>
