<svg width="263" height="209" viewBox="0 0 263 209" fill="none" xmlns="http://www.w3.org/2000/svg">
<rect x="42" y="155" width="178" height="54" rx="27" fill="#FFA000"/>
<path d="M115.165 168.152V183.621H111.913V180.691H105.614V178.055H111.913V175.213H105.863C104.193 179.417 100.326 182.361 94.5693 183.973L93.251 181.395C99.4473 179.725 102.758 176.575 103.256 172.635H94.6572V169.998H106.815C106.815 170.921 106.742 171.8 106.596 172.635H111.913V168.152H115.165ZM97.4111 189.188C97.4111 185.936 100.971 183.929 106.405 183.914C111.767 183.929 115.341 185.936 115.341 189.188C115.341 192.439 111.767 194.476 106.405 194.461C100.971 194.476 97.4111 192.439 97.4111 189.188ZM100.663 189.188C100.663 190.931 102.846 191.883 106.405 191.883C109.906 191.883 112.074 190.931 112.089 189.188C112.074 187.415 109.906 186.463 106.405 186.463C102.846 186.463 100.663 187.415 100.663 189.188ZM127.06 173.367C127.045 176.414 128.583 179.109 131.952 180.398L130.253 182.918C127.982 182.024 126.444 180.428 125.536 178.406C124.599 180.706 122.929 182.581 120.468 183.592L118.71 181.072C122.284 179.607 123.925 176.517 123.925 173.367V172.781H119.472V170.174H131.337V172.781H127.06V173.367ZM123.544 189.627C123.529 186.551 127.045 184.72 132.626 184.705C138.163 184.72 141.693 186.551 141.708 189.627C141.693 192.718 138.163 194.578 132.626 194.578C127.045 194.578 123.529 192.718 123.544 189.627ZM126.796 189.627C126.781 191.238 128.949 192.059 132.626 192.059C136.244 192.059 138.412 191.238 138.427 189.627C138.412 188.089 136.244 187.195 132.626 187.195C128.949 187.195 126.781 188.089 126.796 189.627ZM132.831 183.416V168.65H135.907V174.773H138.456V168.152H141.562V184.236H138.456V177.439H135.907V183.416H132.831ZM169.013 179.959V182.391H162.86V184.207H166.083V190.242H150.907V192.117H166.874V194.373H147.655V188.133H162.86V186.492H147.626V184.207H150.995V182.391H144.813V179.959H169.013ZM147.802 170.936V168.709H166.024V174.656H151.112V176.268H166.493V178.523H147.89V172.547H162.772V170.936H147.802ZM154.218 184.207H159.638V182.391H154.218V184.207Z" fill="#FFFBF6"/>
<path d="M0 119.301H11.7767V106.959H0V119.301Z" fill="#FFEBA3"/>
<path d="M250.893 119.301L262.67 119.301V106.959H250.893V119.301Z" fill="#FFEBA3"/>
<path d="M0 0H11.7767V12.3415H0V0Z" fill="#FFEBA3"/>
<path d="M250.893 0H262.67V12.3415H250.893V0Z" fill="#FFEBA3"/>
<path d="M0 12.3415H11.7767V24.6829H0V12.3415Z" fill="#FFA000"/>
<path d="M0 106.959H11.7767V94.6179H0V106.959Z" fill="#FFA000"/>
<path d="M262.67 12.3415H250.893V24.6829H262.67V12.3415Z" fill="#FFA000"/>
<path d="M262.67 106.959H250.893V94.6179H262.67V106.959Z" fill="#FFA000"/>
<path d="M11.7767 0H23.5535V12.3415L11.7767 12.3415V0Z" fill="#FFA000"/>
<path d="M11.7767 119.301H23.5535V106.959H11.7767V119.301Z" fill="#FFA000"/>
<path d="M250.893 0H239.116V12.3415L250.893 12.3415V0Z" fill="#FFA000"/>
<path d="M250.893 119.301L239.116 119.301V106.959H250.893V119.301Z" fill="#FFA000"/>
<path d="M11.7767 24.6829H0V94.6179H11.7767V106.959H23.5535V119.301H175.67H239.116V106.959H250.893V94.6179H262.67V24.6829H250.893V12.3415L239.116 12.3415V0H23.5535V12.3415L11.7767 12.3415V24.6829Z" fill="#FFC700"/>
<mask id="path-4-outside-1_12397_38221" maskUnits="userSpaceOnUse" x="64" y="32" width="136" height="60" fill="black">
<rect fill="white" x="64" y="32" width="136" height="60"/>
<path d="M66.2837 41.4H69.7337V37.95H73.1087V34.5H94.7837V37.95H98.1587V41.4H101.534V79.725H98.4587V83.1H95.0837V86.55H91.5587V90H74.0837V86.55H70.4837V83.1H67.0337V76.35H74.0837V83.1H77.6837V86.55H87.5837V83.1H91.1837V79.65H94.5587V63.825H91.1837V67.275H73.1087V63.825H69.7337V60.375H66.2837V41.4ZM76.7087 60.375V63.825H87.5837V60.375H90.9587V56.925H94.5587V41.4H91.1837V37.95H76.7087V41.4H73.3337V60.375H76.7087ZM127.307 42.75H135.707V50.625H127.307V42.75ZM127.307 71.25H135.707V79.125H127.307V71.25ZM162.768 86.475H177.768V45.075H174.243V48.75H170.493V52.5H163.293V48.75H167.043V45H170.568V41.4H173.943V37.95H177.768V34.5H184.968V86.475H197.118V90H162.768V86.475Z"/>
</mask>
<path d="M66.2837 41.4H69.7337V37.95H73.1087V34.5H94.7837V37.95H98.1587V41.4H101.534V79.725H98.4587V83.1H95.0837V86.55H91.5587V90H74.0837V86.55H70.4837V83.1H67.0337V76.35H74.0837V83.1H77.6837V86.55H87.5837V83.1H91.1837V79.65H94.5587V63.825H91.1837V67.275H73.1087V63.825H69.7337V60.375H66.2837V41.4ZM76.7087 60.375V63.825H87.5837V60.375H90.9587V56.925H94.5587V41.4H91.1837V37.95H76.7087V41.4H73.3337V60.375H76.7087ZM127.307 42.75H135.707V50.625H127.307V42.75ZM127.307 71.25H135.707V79.125H127.307V71.25ZM162.768 86.475H177.768V45.075H174.243V48.75H170.493V52.5H163.293V48.75H167.043V45H170.568V41.4H173.943V37.95H177.768V34.5H184.968V86.475H197.118V90H162.768V86.475Z" fill="#FB873F"/>
<path d="M66.2837 41.4V39.4H64.2837V41.4H66.2837ZM69.7337 41.4V43.4H71.7337V41.4H69.7337ZM69.7337 37.95V35.95H67.7337V37.95H69.7337ZM73.1087 37.95V39.95H75.1087V37.95H73.1087ZM73.1087 34.5V32.5H71.1087V34.5H73.1087ZM94.7837 34.5H96.7837V32.5H94.7837V34.5ZM94.7837 37.95H92.7837V39.95H94.7837V37.95ZM98.1587 37.95H100.159V35.95H98.1587V37.95ZM98.1587 41.4H96.1587V43.4H98.1587V41.4ZM101.534 41.4H103.534V39.4H101.534V41.4ZM101.534 79.725V81.725H103.534V79.725H101.534ZM98.4587 79.725V77.725H96.4587V79.725H98.4587ZM98.4587 83.1V85.1H100.459V83.1H98.4587ZM95.0837 83.1V81.1H93.0837V83.1H95.0837ZM95.0837 86.55V88.55H97.0837V86.55H95.0837ZM91.5587 86.55V84.55H89.5587V86.55H91.5587ZM91.5587 90V92H93.5587V90H91.5587ZM74.0837 90H72.0837V92H74.0837V90ZM74.0837 86.55H76.0837V84.55H74.0837V86.55ZM70.4837 86.55H68.4837V88.55H70.4837V86.55ZM70.4837 83.1H72.4837V81.1H70.4837V83.1ZM67.0337 83.1H65.0337V85.1H67.0337V83.1ZM67.0337 76.35V74.35H65.0337V76.35H67.0337ZM74.0837 76.35H76.0837V74.35H74.0837V76.35ZM74.0837 83.1H72.0837V85.1H74.0837V83.1ZM77.6837 83.1H79.6837V81.1H77.6837V83.1ZM77.6837 86.55H75.6837V88.55H77.6837V86.55ZM87.5837 86.55V88.55H89.5837V86.55H87.5837ZM87.5837 83.1V81.1H85.5837V83.1H87.5837ZM91.1837 83.1V85.1H93.1837V83.1H91.1837ZM91.1837 79.65V77.65H89.1837V79.65H91.1837ZM94.5587 79.65V81.65H96.5587V79.65H94.5587ZM94.5587 63.825H96.5587V61.825H94.5587V63.825ZM91.1837 63.825V61.825H89.1837V63.825H91.1837ZM91.1837 67.275V69.275H93.1837V67.275H91.1837ZM73.1087 67.275H71.1087V69.275H73.1087V67.275ZM73.1087 63.825H75.1087V61.825H73.1087V63.825ZM69.7337 63.825H67.7337V65.825H69.7337V63.825ZM69.7337 60.375H71.7337V58.375H69.7337V60.375ZM66.2837 60.375H64.2837V62.375H66.2837V60.375ZM76.7087 60.375H78.7087V58.375H76.7087V60.375ZM76.7087 63.825H74.7087V65.825H76.7087V63.825ZM87.5837 63.825V65.825H89.5837V63.825H87.5837ZM87.5837 60.375V58.375H85.5837V60.375H87.5837ZM90.9587 60.375V62.375H92.9587V60.375H90.9587ZM90.9587 56.925V54.925H88.9587V56.925H90.9587ZM94.5587 56.925V58.925H96.5587V56.925H94.5587ZM94.5587 41.4H96.5587V39.4H94.5587V41.4ZM91.1837 41.4H89.1837V43.4H91.1837V41.4ZM91.1837 37.95H93.1837V35.95H91.1837V37.95ZM76.7087 37.95V35.95H74.7087V37.95H76.7087ZM76.7087 41.4V43.4H78.7087V41.4H76.7087ZM73.3337 41.4V39.4H71.3337V41.4H73.3337ZM73.3337 60.375H71.3337V62.375H73.3337V60.375ZM66.2837 43.4H69.7337V39.4H66.2837V43.4ZM71.7337 41.4V37.95H67.7337V41.4H71.7337ZM69.7337 39.95H73.1087V35.95H69.7337V39.95ZM75.1087 37.95V34.5H71.1087V37.95H75.1087ZM73.1087 36.5H94.7837V32.5H73.1087V36.5ZM92.7837 34.5V37.95H96.7837V34.5H92.7837ZM94.7837 39.95H98.1587V35.95H94.7837V39.95ZM96.1587 37.95V41.4H100.159V37.95H96.1587ZM98.1587 43.4H101.534V39.4H98.1587V43.4ZM99.5337 41.4V79.725H103.534V41.4H99.5337ZM101.534 77.725H98.4587V81.725H101.534V77.725ZM96.4587 79.725V83.1H100.459V79.725H96.4587ZM98.4587 81.1H95.0837V85.1H98.4587V81.1ZM93.0837 83.1V86.55H97.0837V83.1H93.0837ZM95.0837 84.55H91.5587V88.55H95.0837V84.55ZM89.5587 86.55V90H93.5587V86.55H89.5587ZM91.5587 88H74.0837V92H91.5587V88ZM76.0837 90V86.55H72.0837V90H76.0837ZM74.0837 84.55H70.4837V88.55H74.0837V84.55ZM72.4837 86.55V83.1H68.4837V86.55H72.4837ZM70.4837 81.1H67.0337V85.1H70.4837V81.1ZM69.0337 83.1V76.35H65.0337V83.1H69.0337ZM67.0337 78.35H74.0837V74.35H67.0337V78.35ZM72.0837 76.35V83.1H76.0837V76.35H72.0837ZM74.0837 85.1H77.6837V81.1H74.0837V85.1ZM75.6837 83.1V86.55H79.6837V83.1H75.6837ZM77.6837 88.55H87.5837V84.55H77.6837V88.55ZM89.5837 86.55V83.1H85.5837V86.55H89.5837ZM87.5837 85.1H91.1837V81.1H87.5837V85.1ZM93.1837 83.1V79.65H89.1837V83.1H93.1837ZM91.1837 81.65H94.5587V77.65H91.1837V81.65ZM96.5587 79.65V63.825H92.5587V79.65H96.5587ZM94.5587 61.825H91.1837V65.825H94.5587V61.825ZM89.1837 63.825V67.275H93.1837V63.825H89.1837ZM91.1837 65.275H73.1087V69.275H91.1837V65.275ZM75.1087 67.275V63.825H71.1087V67.275H75.1087ZM73.1087 61.825H69.7337V65.825H73.1087V61.825ZM71.7337 63.825V60.375H67.7337V63.825H71.7337ZM69.7337 58.375H66.2837V62.375H69.7337V58.375ZM68.2837 60.375V41.4H64.2837V60.375H68.2837ZM74.7087 60.375V63.825H78.7087V60.375H74.7087ZM76.7087 65.825H87.5837V61.825H76.7087V65.825ZM89.5837 63.825V60.375H85.5837V63.825H89.5837ZM87.5837 62.375H90.9587V58.375H87.5837V62.375ZM92.9587 60.375V56.925H88.9587V60.375H92.9587ZM90.9587 58.925H94.5587V54.925H90.9587V58.925ZM96.5587 56.925V41.4H92.5587V56.925H96.5587ZM94.5587 39.4H91.1837V43.4H94.5587V39.4ZM93.1837 41.4V37.95H89.1837V41.4H93.1837ZM91.1837 35.95H76.7087V39.95H91.1837V35.95ZM74.7087 37.95V41.4H78.7087V37.95H74.7087ZM76.7087 39.4H73.3337V43.4H76.7087V39.4ZM71.3337 41.4V60.375H75.3337V41.4H71.3337ZM73.3337 62.375H76.7087V58.375H73.3337V62.375ZM127.307 42.75V40.75H125.307V42.75H127.307ZM135.707 42.75H137.707V40.75H135.707V42.75ZM135.707 50.625V52.625H137.707V50.625H135.707ZM127.307 50.625H125.307V52.625H127.307V50.625ZM127.307 71.25V69.25H125.307V71.25H127.307ZM135.707 71.25H137.707V69.25H135.707V71.25ZM135.707 79.125V81.125H137.707V79.125H135.707ZM127.307 79.125H125.307V81.125H127.307V79.125ZM127.307 44.75H135.707V40.75H127.307V44.75ZM133.707 42.75V50.625H137.707V42.75H133.707ZM135.707 48.625H127.307V52.625H135.707V48.625ZM129.307 50.625V42.75H125.307V50.625H129.307ZM127.307 73.25H135.707V69.25H127.307V73.25ZM133.707 71.25V79.125H137.707V71.25H133.707ZM135.707 77.125H127.307V81.125H135.707V77.125ZM129.307 79.125V71.25H125.307V79.125H129.307ZM162.768 86.475V84.475H160.768V86.475H162.768ZM177.768 86.475V88.475H179.768V86.475H177.768ZM177.768 45.075H179.768V43.075H177.768V45.075ZM174.243 45.075V43.075H172.243V45.075H174.243ZM174.243 48.75V50.75H176.243V48.75H174.243ZM170.493 48.75V46.75H168.493V48.75H170.493ZM170.493 52.5V54.5H172.493V52.5H170.493ZM163.293 52.5H161.293V54.5H163.293V52.5ZM163.293 48.75V46.75H161.293V48.75H163.293ZM167.043 48.75V50.75H169.043V48.75H167.043ZM167.043 45V43H165.043V45H167.043ZM170.568 45V47H172.568V45H170.568ZM170.568 41.4V39.4H168.568V41.4H170.568ZM173.943 41.4V43.4H175.943V41.4H173.943ZM173.943 37.95V35.95H171.943V37.95H173.943ZM177.768 37.95V39.95H179.768V37.95H177.768ZM177.768 34.5V32.5H175.768V34.5H177.768ZM184.968 34.5H186.968V32.5H184.968V34.5ZM184.968 86.475H182.968V88.475H184.968V86.475ZM197.118 86.475H199.118V84.475H197.118V86.475ZM197.118 90V92H199.118V90H197.118ZM162.768 90H160.768V92H162.768V90ZM162.768 88.475H177.768V84.475H162.768V88.475ZM179.768 86.475V45.075H175.768V86.475H179.768ZM177.768 43.075H174.243V47.075H177.768V43.075ZM172.243 45.075V48.75H176.243V45.075H172.243ZM174.243 46.75H170.493V50.75H174.243V46.75ZM168.493 48.75V52.5H172.493V48.75H168.493ZM170.493 50.5H163.293V54.5H170.493V50.5ZM165.293 52.5V48.75H161.293V52.5H165.293ZM163.293 50.75H167.043V46.75H163.293V50.75ZM169.043 48.75V45H165.043V48.75H169.043ZM167.043 47H170.568V43H167.043V47ZM172.568 45V41.4H168.568V45H172.568ZM170.568 43.4H173.943V39.4H170.568V43.4ZM175.943 41.4V37.95H171.943V41.4H175.943ZM173.943 39.95H177.768V35.95H173.943V39.95ZM179.768 37.95V34.5H175.768V37.95H179.768ZM177.768 36.5H184.968V32.5H177.768V36.5ZM182.968 34.5V86.475H186.968V34.5H182.968ZM184.968 88.475H197.118V84.475H184.968V88.475ZM195.118 86.475V90H199.118V86.475H195.118ZM197.118 88H162.768V92H197.118V88ZM164.768 90V86.475H160.768V90H164.768Z" fill="#FB873F" mask="url(#path-4-outside-1_12397_38221)"/>
<mask id="path-6-outside-2_12397_38221" maskUnits="userSpaceOnUse" x="64" y="25" width="136" height="60" fill="black">
<rect fill="white" x="64" y="25" width="136" height="60"/>
<path d="M66.2837 34.4H69.7337V30.95H73.1087V27.5H94.7837V30.95H98.1587V34.4H101.534V72.725H98.4587V76.1H95.0837V79.55H91.5587V83H74.0837V79.55H70.4837V76.1H67.0337V69.35H74.0837V76.1H77.6837V79.55H87.5837V76.1H91.1837V72.65H94.5587V56.825H91.1837V60.275H73.1087V56.825H69.7337V53.375H66.2837V34.4ZM76.7087 53.375V56.825H87.5837V53.375H90.9587V49.925H94.5587V34.4H91.1837V30.95H76.7087V34.4H73.3337V53.375H76.7087ZM127.307 35.75H135.707V43.625H127.307V35.75ZM127.307 64.25H135.707V72.125H127.307V64.25ZM162.768 79.475H177.768V38.075H174.243V41.75H170.493V45.5H163.293V41.75H167.043V38H170.568V34.4H173.943V30.95H177.768V27.5H184.968V79.475H197.118V83H162.768V79.475Z"/>
</mask>
<path d="M66.2837 34.4H69.7337V30.95H73.1087V27.5H94.7837V30.95H98.1587V34.4H101.534V72.725H98.4587V76.1H95.0837V79.55H91.5587V83H74.0837V79.55H70.4837V76.1H67.0337V69.35H74.0837V76.1H77.6837V79.55H87.5837V76.1H91.1837V72.65H94.5587V56.825H91.1837V60.275H73.1087V56.825H69.7337V53.375H66.2837V34.4ZM76.7087 53.375V56.825H87.5837V53.375H90.9587V49.925H94.5587V34.4H91.1837V30.95H76.7087V34.4H73.3337V53.375H76.7087ZM127.307 35.75H135.707V43.625H127.307V35.75ZM127.307 64.25H135.707V72.125H127.307V64.25ZM162.768 79.475H177.768V38.075H174.243V41.75H170.493V45.5H163.293V41.75H167.043V38H170.568V34.4H173.943V30.95H177.768V27.5H184.968V79.475H197.118V83H162.768V79.475Z" fill="#FFFBF6"/>
<path d="M66.2837 34.4V32.4H64.2837V34.4H66.2837ZM69.7337 34.4V36.4H71.7337V34.4H69.7337ZM69.7337 30.95V28.95H67.7337V30.95H69.7337ZM73.1087 30.95V32.95H75.1087V30.95H73.1087ZM73.1087 27.5V25.5H71.1087V27.5H73.1087ZM94.7837 27.5H96.7837V25.5H94.7837V27.5ZM94.7837 30.95H92.7837V32.95H94.7837V30.95ZM98.1587 30.95H100.159V28.95H98.1587V30.95ZM98.1587 34.4H96.1587V36.4H98.1587V34.4ZM101.534 34.4H103.534V32.4H101.534V34.4ZM101.534 72.725V74.725H103.534V72.725H101.534ZM98.4587 72.725V70.725H96.4587V72.725H98.4587ZM98.4587 76.1V78.1H100.459V76.1H98.4587ZM95.0837 76.1V74.1H93.0837V76.1H95.0837ZM95.0837 79.55V81.55H97.0837V79.55H95.0837ZM91.5587 79.55V77.55H89.5587V79.55H91.5587ZM91.5587 83V85H93.5587V83H91.5587ZM74.0837 83H72.0837V85H74.0837V83ZM74.0837 79.55H76.0837V77.55H74.0837V79.55ZM70.4837 79.55H68.4837V81.55H70.4837V79.55ZM70.4837 76.1H72.4837V74.1H70.4837V76.1ZM67.0337 76.1H65.0337V78.1H67.0337V76.1ZM67.0337 69.35V67.35H65.0337V69.35H67.0337ZM74.0837 69.35H76.0837V67.35H74.0837V69.35ZM74.0837 76.1H72.0837V78.1H74.0837V76.1ZM77.6837 76.1H79.6837V74.1H77.6837V76.1ZM77.6837 79.55H75.6837V81.55H77.6837V79.55ZM87.5837 79.55V81.55H89.5837V79.55H87.5837ZM87.5837 76.1V74.1H85.5837V76.1H87.5837ZM91.1837 76.1V78.1H93.1837V76.1H91.1837ZM91.1837 72.65V70.65H89.1837V72.65H91.1837ZM94.5587 72.65V74.65H96.5587V72.65H94.5587ZM94.5587 56.825H96.5587V54.825H94.5587V56.825ZM91.1837 56.825V54.825H89.1837V56.825H91.1837ZM91.1837 60.275V62.275H93.1837V60.275H91.1837ZM73.1087 60.275H71.1087V62.275H73.1087V60.275ZM73.1087 56.825H75.1087V54.825H73.1087V56.825ZM69.7337 56.825H67.7337V58.825H69.7337V56.825ZM69.7337 53.375H71.7337V51.375H69.7337V53.375ZM66.2837 53.375H64.2837V55.375H66.2837V53.375ZM76.7087 53.375H78.7087V51.375H76.7087V53.375ZM76.7087 56.825H74.7087V58.825H76.7087V56.825ZM87.5837 56.825V58.825H89.5837V56.825H87.5837ZM87.5837 53.375V51.375H85.5837V53.375H87.5837ZM90.9587 53.375V55.375H92.9587V53.375H90.9587ZM90.9587 49.925V47.925H88.9587V49.925H90.9587ZM94.5587 49.925V51.925H96.5587V49.925H94.5587ZM94.5587 34.4H96.5587V32.4H94.5587V34.4ZM91.1837 34.4H89.1837V36.4H91.1837V34.4ZM91.1837 30.95H93.1837V28.95H91.1837V30.95ZM76.7087 30.95V28.95H74.7087V30.95H76.7087ZM76.7087 34.4V36.4H78.7087V34.4H76.7087ZM73.3337 34.4V32.4H71.3337V34.4H73.3337ZM73.3337 53.375H71.3337V55.375H73.3337V53.375ZM66.2837 36.4H69.7337V32.4H66.2837V36.4ZM71.7337 34.4V30.95H67.7337V34.4H71.7337ZM69.7337 32.95H73.1087V28.95H69.7337V32.95ZM75.1087 30.95V27.5H71.1087V30.95H75.1087ZM73.1087 29.5H94.7837V25.5H73.1087V29.5ZM92.7837 27.5V30.95H96.7837V27.5H92.7837ZM94.7837 32.95H98.1587V28.95H94.7837V32.95ZM96.1587 30.95V34.4H100.159V30.95H96.1587ZM98.1587 36.4H101.534V32.4H98.1587V36.4ZM99.5337 34.4V72.725H103.534V34.4H99.5337ZM101.534 70.725H98.4587V74.725H101.534V70.725ZM96.4587 72.725V76.1H100.459V72.725H96.4587ZM98.4587 74.1H95.0837V78.1H98.4587V74.1ZM93.0837 76.1V79.55H97.0837V76.1H93.0837ZM95.0837 77.55H91.5587V81.55H95.0837V77.55ZM89.5587 79.55V83H93.5587V79.55H89.5587ZM91.5587 81H74.0837V85H91.5587V81ZM76.0837 83V79.55H72.0837V83H76.0837ZM74.0837 77.55H70.4837V81.55H74.0837V77.55ZM72.4837 79.55V76.1H68.4837V79.55H72.4837ZM70.4837 74.1H67.0337V78.1H70.4837V74.1ZM69.0337 76.1V69.35H65.0337V76.1H69.0337ZM67.0337 71.35H74.0837V67.35H67.0337V71.35ZM72.0837 69.35V76.1H76.0837V69.35H72.0837ZM74.0837 78.1H77.6837V74.1H74.0837V78.1ZM75.6837 76.1V79.55H79.6837V76.1H75.6837ZM77.6837 81.55H87.5837V77.55H77.6837V81.55ZM89.5837 79.55V76.1H85.5837V79.55H89.5837ZM87.5837 78.1H91.1837V74.1H87.5837V78.1ZM93.1837 76.1V72.65H89.1837V76.1H93.1837ZM91.1837 74.65H94.5587V70.65H91.1837V74.65ZM96.5587 72.65V56.825H92.5587V72.65H96.5587ZM94.5587 54.825H91.1837V58.825H94.5587V54.825ZM89.1837 56.825V60.275H93.1837V56.825H89.1837ZM91.1837 58.275H73.1087V62.275H91.1837V58.275ZM75.1087 60.275V56.825H71.1087V60.275H75.1087ZM73.1087 54.825H69.7337V58.825H73.1087V54.825ZM71.7337 56.825V53.375H67.7337V56.825H71.7337ZM69.7337 51.375H66.2837V55.375H69.7337V51.375ZM68.2837 53.375V34.4H64.2837V53.375H68.2837ZM74.7087 53.375V56.825H78.7087V53.375H74.7087ZM76.7087 58.825H87.5837V54.825H76.7087V58.825ZM89.5837 56.825V53.375H85.5837V56.825H89.5837ZM87.5837 55.375H90.9587V51.375H87.5837V55.375ZM92.9587 53.375V49.925H88.9587V53.375H92.9587ZM90.9587 51.925H94.5587V47.925H90.9587V51.925ZM96.5587 49.925V34.4H92.5587V49.925H96.5587ZM94.5587 32.4H91.1837V36.4H94.5587V32.4ZM93.1837 34.4V30.95H89.1837V34.4H93.1837ZM91.1837 28.95H76.7087V32.95H91.1837V28.95ZM74.7087 30.95V34.4H78.7087V30.95H74.7087ZM76.7087 32.4H73.3337V36.4H76.7087V32.4ZM71.3337 34.4V53.375H75.3337V34.4H71.3337ZM73.3337 55.375H76.7087V51.375H73.3337V55.375ZM127.307 35.75V33.75H125.307V35.75H127.307ZM135.707 35.75H137.707V33.75H135.707V35.75ZM135.707 43.625V45.625H137.707V43.625H135.707ZM127.307 43.625H125.307V45.625H127.307V43.625ZM127.307 64.25V62.25H125.307V64.25H127.307ZM135.707 64.25H137.707V62.25H135.707V64.25ZM135.707 72.125V74.125H137.707V72.125H135.707ZM127.307 72.125H125.307V74.125H127.307V72.125ZM127.307 37.75H135.707V33.75H127.307V37.75ZM133.707 35.75V43.625H137.707V35.75H133.707ZM135.707 41.625H127.307V45.625H135.707V41.625ZM129.307 43.625V35.75H125.307V43.625H129.307ZM127.307 66.25H135.707V62.25H127.307V66.25ZM133.707 64.25V72.125H137.707V64.25H133.707ZM135.707 70.125H127.307V74.125H135.707V70.125ZM129.307 72.125V64.25H125.307V72.125H129.307ZM162.768 79.475V77.475H160.768V79.475H162.768ZM177.768 79.475V81.475H179.768V79.475H177.768ZM177.768 38.075H179.768V36.075H177.768V38.075ZM174.243 38.075V36.075H172.243V38.075H174.243ZM174.243 41.75V43.75H176.243V41.75H174.243ZM170.493 41.75V39.75H168.493V41.75H170.493ZM170.493 45.5V47.5H172.493V45.5H170.493ZM163.293 45.5H161.293V47.5H163.293V45.5ZM163.293 41.75V39.75H161.293V41.75H163.293ZM167.043 41.75V43.75H169.043V41.75H167.043ZM167.043 38V36H165.043V38H167.043ZM170.568 38V40H172.568V38H170.568ZM170.568 34.4V32.4H168.568V34.4H170.568ZM173.943 34.4V36.4H175.943V34.4H173.943ZM173.943 30.95V28.95H171.943V30.95H173.943ZM177.768 30.95V32.95H179.768V30.95H177.768ZM177.768 27.5V25.5H175.768V27.5H177.768ZM184.968 27.5H186.968V25.5H184.968V27.5ZM184.968 79.475H182.968V81.475H184.968V79.475ZM197.118 79.475H199.118V77.475H197.118V79.475ZM197.118 83V85H199.118V83H197.118ZM162.768 83H160.768V85H162.768V83ZM162.768 81.475H177.768V77.475H162.768V81.475ZM179.768 79.475V38.075H175.768V79.475H179.768ZM177.768 36.075H174.243V40.075H177.768V36.075ZM172.243 38.075V41.75H176.243V38.075H172.243ZM174.243 39.75H170.493V43.75H174.243V39.75ZM168.493 41.75V45.5H172.493V41.75H168.493ZM170.493 43.5H163.293V47.5H170.493V43.5ZM165.293 45.5V41.75H161.293V45.5H165.293ZM163.293 43.75H167.043V39.75H163.293V43.75ZM169.043 41.75V38H165.043V41.75H169.043ZM167.043 40H170.568V36H167.043V40ZM172.568 38V34.4H168.568V38H172.568ZM170.568 36.4H173.943V32.4H170.568V36.4ZM175.943 34.4V30.95H171.943V34.4H175.943ZM173.943 32.95H177.768V28.95H173.943V32.95ZM179.768 30.95V27.5H175.768V30.95H179.768ZM177.768 29.5H184.968V25.5H177.768V29.5ZM182.968 27.5V79.475H186.968V27.5H182.968ZM184.968 81.475H197.118V77.475H184.968V81.475ZM195.118 79.475V83H199.118V79.475H195.118ZM197.118 81H162.768V85H197.118V81ZM164.768 83V79.475H160.768V83H164.768Z" fill="#FFFBF6" mask="url(#path-6-outside-2_12397_38221)"/>
<rect x="58" y="119" width="12" height="52" fill="#FFA000"/>
<rect x="192" y="119" width="12" height="52" fill="#FFA000"/>
</svg>
