<svg xmlns="http://www.w3.org/2000/svg" width="146" height="213" viewBox="0 0 146 213" fill="none">
  <path fill-rule="evenodd" clip-rule="evenodd" d="M31.6175 62.2378H107.481V68.3433H114.877V181.292H107.481V181.359H31.6175V175.136H24.0779V68.4603H31.6175V62.2378ZM16.5356 80.9062H24.0754V156.468H16.5356V80.9062ZM16.5347 103.131H8.9949V150.246H16.5347V103.131ZM129.67 169.081V150.002H137.455V119.475H129.67V104.212H121.884L121.884 80.554H114.877V175.186H121.884L121.884 169.081H129.67ZM46.6962 187.582V193.804H99.4784V187.582H46.6962ZM39.1572 187.581V181.359H107.02V187.581L39.1572 187.581Z" fill="#D59F52"/>
  <rect x="99.2983" y="102.011" width="16.0505" height="26.1564" fill="#1A1918"/>
  <path d="M91.695 43.1589H47.5303V49.3817H91.695V43.1589Z" fill="#1A1918"/>
  <path d="M99.2353 193.502H46.4531V199.616H99.2353V193.502Z" fill="#1A1918"/>
  <path d="M38.5818 55.3696H31.5748V62.238H38.9128L38.5818 55.3696Z" fill="#1A1918"/>
  <path d="M99.2353 55.6044H106.776V62.238H99.2353V55.6044Z" fill="#1A1918"/>
  <path d="M91.695 49.3817H99.2353V55.6044H91.695V49.3817Z" fill="#1A1918"/>
  <path d="M38.5818 49.3817H47.5303V55.6044L38.5818 55.3696V49.3817Z" fill="#1A1918"/>
  <path d="M31.5748 62.238H23.8322V68.3433H31.5748V62.238Z" fill="#1A1918"/>
  <path d="M106.776 62.238H114.316V68.3433H106.776V62.238Z" fill="#1A1918"/>
  <path d="M23.8322 68.3433H16.2919V80.4953H23.8322V68.3433Z" fill="#1A1918"/>
  <path d="M16.2919 80.4953H8.7516V102.719H16.2919V80.4953Z" fill="#1A1918"/>
  <path d="M114.316 68.3433H121.856V80.554H114.316V68.3433Z" fill="#1A1918"/>
  <path d="M8.7516 102.719H1.21129V149.834H8.7516V102.719Z" fill="#1A1918"/>
  <path d="M129.672 80.554H121.856V104.497H129.672V80.554Z" fill="#1A1918"/>
  <path d="M23.8322 156.057H16.2919V174.423H23.8322V156.057Z" fill="#1A1918"/>
  <path d="M129.672 149.834H137.458V168.318H129.672V149.834Z" fill="#1A1918"/>
  <path d="M129.672 104.497H137.458V119.61H129.672V104.497Z" fill="#1A1918"/>
  <path d="M31.3725 174.423H23.8322V180.948H31.3725V174.423Z" fill="#1A1918"/>
  <path d="M16.2919 149.834H8.7516V156.057H16.2919V149.834Z" fill="#1A1918"/>
  <path d="M114.88 175.186H121.856V181.292H114.88V175.186Z" fill="#1A1918"/>
  <path d="M121.856 168.318H129.672V175.186H121.856V168.318Z" fill="#1A1918"/>
  <path d="M38.5818 180.948H31.3725V187.397H38.5818V180.948Z" fill="#1A1918"/>
  <path d="M107.094 181.292H114.88V187.397H107.094V181.292Z" fill="#1A1918"/>
  <path d="M46.4531 187.397H38.5818V193.502H46.4531V187.397Z" fill="#1A1918"/>
  <path d="M99.2353 187.397H107.094V193.502H99.2353V187.397Z" fill="#1A1918"/>
  <path d="M129.673 119.61H137.458V149.834H129.673V119.61Z" fill="#1A1918"/>
  <rect x="41.6354" y="100.822" width="16.0505" height="26.1564" fill="#1A1918"/>
  <rect x="49.3635" y="106.767" width="8.3225" height="10.7004" fill="#FFFBF6"/>
  <rect x="107.026" y="106.767" width="8.3225" height="10.7004" fill="#FFFBF6"/>
  <rect width="5.94464" height="7.13357" transform="matrix(-1 0 0 1 69.5752 130.545)" fill="#1A1918"/>
  <rect width="5.35018" height="6.53911" transform="matrix(-1 0 0 1 96.326 131.14)" fill="#1A1918"/>
  <rect width="21.6762" height="5.54288" transform="matrix(-1 0 0 1 61.5292 200.408)" fill="#B17C31"/>
  <rect width="18.6853" height="5.34214" transform="matrix(-1 0 0 1 109.43 200.37)" fill="#B17C31"/>
  <rect width="21.7995" height="6.10531" transform="matrix(-1 0 0 1 90.7461 137.791)" fill="#1A1918"/>
  <rect width="21.7995" height="6.86847" transform="matrix(-1 0 0 1 61.1598 193.502)" fill="#1A1918"/>
  <rect width="21.0209" height="6.86847" transform="matrix(-1 0 0 1 61.1598 205.713)" fill="#1A1918"/>
  <rect width="20.2424" height="6.86847" transform="matrix(-1 0 0 1 110.988 205.713)" fill="#1A1918"/>
  <path fill-rule="evenodd" clip-rule="evenodd" d="M91.6932 49.3823H47.5286V55.37H38.5782V62.2385H47.5324V68.0496H86.3111V62.2385H99.3053V55.37H91.6932V49.3823ZM74.4623 68.0498H47.5326V74.2726H74.4623V68.0498Z" fill="#EBBA77"/>
  <path fill-rule="evenodd" clip-rule="evenodd" d="M31.574 62.2378H38.581V96.5802H31.574V62.2378ZM23.7865 68.3436H31.572V156.059H38.909V162.28H60.453V168.503H67.9924V174.725H31.368V174.423H23.7865V156.057H16.2886V80.4953H23.7865V68.3436ZM16.2877 102.72H8.7479V149.835H16.2877V102.72ZM75.5343 174.726V180.529H99.3062V174.424H107.092V168.318H121.884V175.187H114.877V181.292H107.092V187.397H38.5791V180.948H31.3697L31.3697 174.726H75.5343ZM99.3075 187.397V193.503H46.3659L46.3659 187.397H99.3075ZM129.67 168.318L129.67 162.213H107.092V168.318H129.67Z" fill="#B17C31"/>
  <rect width="6.22842" height="19.0791" transform="matrix(-1 0 0 1 44.8096 193.502)" fill="#1A1918"/>
  <rect width="6.22842" height="18.3159" transform="matrix(-1 0 0 1 62.7181 194.266)" fill="#1A1918"/>
  <rect width="5.44987" height="19.0791" transform="matrix(-1 0 0 1 110.988 193.502)" fill="#1A1918"/>
  <rect width="5.44987" height="18.3159" transform="matrix(-1 0 0 1 96.196 194.266)" fill="#1A1918"/>
  <rect width="20.2424" height="6.86847" transform="matrix(-1 0 0 1 110.988 193.502)" fill="#1A1918"/>
  <rect x="115.349" y="94.283" width="7.72804" height="17.2395" fill="#D59F52"/>
  <rect x="135.561" y="119.845" width="10.1059" height="35.0734" fill="#1A1918"/>
  <rect x="123.077" y="94.283" width="6.53911" height="17.2395" fill="#1A1918"/>
  <rect x="129.616" y="119.845" width="7.72804" height="35.0734" fill="#D59F52"/>
  <path fill-rule="evenodd" clip-rule="evenodd" d="M93.2694 5.45093H87.213H81.7622L77.5226 5.45093H67.8323H58.142H57.5363L32.7049 5.45093V61.776H57.5363V66.6211H67.8323V60.5647H77.5226H81.7622L81.7622 55.7195H87.213L87.213 51.48H93.2694V44.2122H98.1146V38.7614H103.565V32.705H98.1146V7.26786H93.2694V5.45093ZM124.157 53.2969H103.565V68.1055H103.515V79.0072H98.0646V82.9736H97.5089V84.1849H82.3678V95.0865L78.1283 95.0865H21.8032V101.143H78.1283V100.537H83.5791V95.0865L98.1146 95.0865V90.847H107.805V89.6357H113.256V83.882H113.861V78.734L124.157 78.7341V72.3451H129.558V59.0209H124.157V53.2969ZM5.40083 84.458H10.8516V89.9088H5.40083V84.458Z" fill="#272720"/>
  <path fill-rule="evenodd" clip-rule="evenodd" d="M62.3815 5.45093L47.846 5.45093V10.9017H32.7049V16.3525L21.8032 16.3526V21.8034V27.8598L32.0992 27.8598V33.3106H38.1557V27.8598L42.3952 27.8598V21.8034H51.4799V16.3526L57.5363 16.3525V10.9017H62.3815V5.45093ZM38.1557 33.3106L38.1557 39.3671H43.6065V33.3106L38.1557 33.3106ZM75.1001 32.705H80.5509V26.6485H86.0017V20.5921H92.6638L92.6638 10.9017H98.1146V26.6485H92.6638H86.0017V32.705L80.5509 32.705V38.7614H75.1001V32.705ZM52.0855 39.3671H75.1001V45.4235H52.0855V39.3671Z" fill="#4D4D3F"/>
  <path fill-rule="evenodd" clip-rule="evenodd" d="M16.3524 21.8032H21.8032V27.254H27.2541H27.8597H32.7049V32.7048H38.1557V39.3669H52.0355V60.5645H57.5363V66.0154H52.0355V66.621H38.1057V58.7476H32.7049V54.5081H27.8597H27.2541H21.8032V37.55H16.3524V21.8032ZM98.0646 68.1054H103.515V62.6546H108.966V68.1054H103.515V73.5562V79.007H98.0646V84.4578L92.6138 84.4578V89.9086H83.5291V95.3595H37.55V101.143H21.8032V96.2976H12.7186L12.7186 90.8468H5.45081L5.45081 84.7904V69.0436H10.9016V63.5928H16.3524V58.142H27.2541V79.007H32.6549V84.1847H41.7896V89.9086H78.0783V84.4578L87.163 84.4578V79.007H92.6138V73.5562L98.0646 73.5562V68.1054ZM124.107 57.5363H129.558V62.9871H124.107V57.5363ZM124.107 68.4379H118.657V73.8887H113.256V79.3396H118.707V73.8887H124.107V68.4379ZM113.256 79.3396H107.805V84.7904H113.256V79.3396Z" fill="#1A1A18"/>
  <path fill-rule="evenodd" clip-rule="evenodd" d="M98.1146 38.7615H103.565V44.2123H98.1146V49.6631H92.6638V55.1139H87.213V60.5647H81.7622L81.7622 66.0155H67.8323V71.4663H38.1557V66.0155H32.7049V58.7478H21.8032V69.6494H27.2541L27.2541 74.4946H32.0992V79.3397H41.7896V84.458L78.0783 84.458V79.0072H87.163V73.5564H92.6138V68.1056H98.0646V62.6548H103.515V68.1056H98.0646V73.5564H92.6138V79.0072H87.163L87.163 84.458H78.0783L78.0783 89.9088H41.7396V84.7905H32.0992V79.3397H27.2541V74.4946H21.8032H21.1976H16.3524V58.7478H21.8032L21.8032 53.297H32.7049V58.7478H38.1557V66.0155H67.8323V60.5647L81.7622 60.5647V55.1139H87.213V49.6631H92.6638V44.2123H98.1146V38.7615ZM109.016 47.8462H103.565V62.9873H109.016V47.8462Z" fill="#B67800"/>
  <path d="M103.565 10.9016H98.1146V33.3105H103.565V10.9016Z" fill="#1A1918"/>
  <path d="M16.3524 21.8032H10.9016V36.9444H16.3524V21.8032Z" fill="#1A1918"/>
  <path d="M98.1146 5.45081H92.6638V10.9016L98.1146 10.9016V5.45081Z" fill="#1A1918"/>
  <path d="M129.608 53.2968H124.157V58.7476H129.608V53.2968Z" fill="#1A1918"/>
  <path d="M124.157 73.3128H118.707V78.7339H124.157V73.3128Z" fill="#1A1918"/>
  <path d="M118.707 78.7339H113.256V83.9116H118.707V78.7339Z" fill="#1A1918"/>
  <path d="M113.256 83.9116H107.855L107.805 89.6653H113.256V83.9116Z" fill="#1A1918"/>
  <path d="M93.2195 95.0566H78.1283V100.84H93.2195V95.0566Z" fill="#1A1918"/>
  <path d="M107.805 89.6653H93.2195V95.0566H107.805V89.6653Z" fill="#1A1918"/>
  <path d="M129.608 62.4112H124.157V73.3128H129.608V62.4112Z" fill="#1A1918"/>
  <path d="M124.157 58.7476H129.608V62.4112H124.157V58.7476Z" fill="#1A1918"/>
  <path d="M12.7186 89.6653H5.45081V95.1161H12.7186V89.6653Z" fill="#1A1918"/>
  <path d="M10.9016 63.6225H5.45081V69.0733H10.9016V63.6225Z" fill="#1A1918"/>
  <path d="M16.3524 58.1717H10.9016V63.6225H16.3524V58.1717Z" fill="#1A1918"/>
  <path d="M5.45081 69.0733H0V89.6653H5.45081V69.0733Z" fill="#1A1918"/>
  <path d="M21.8032 52.7209H16.3524V58.1717H21.8032V52.7209Z" fill="#1A1918"/>
  <path d="M21.8032 95.1161H12.7186V100.84H21.8032V95.1161Z" fill="#1A1918"/>
  <path d="M109.016 33.3105H103.565V47.846H109.016V33.3105Z" fill="#1A1918"/>
  <path d="M21.8032 16.3524H16.3524V21.8032H21.8032V16.3524Z" fill="#1A1918"/>
  <path d="M21.8032 36.9444H16.3524V52.7209H21.8032V36.9444Z" fill="#1A1918"/>
  <path d="M47.846 5.45081H32.7049V10.9016L47.846 10.9016V5.45081Z" fill="#1A1918"/>
  <path d="M78.1283 100.84H21.8032V106.594H78.1283V100.84Z" fill="#1A1918"/>
  <path d="M32.7049 10.9016H21.8032V16.3524H32.7049V10.9016Z" fill="#1A1918"/>
  <path d="M92.6638 0L47.846 0V5.45081L92.6638 5.45081V0Z" fill="#1A1918"/>
  <path d="M124.157 47.846H109.016V53.2968H124.157V47.846Z" fill="#1A1918"/>
  <path fill-rule="evenodd" clip-rule="evenodd" d="M98.1146 44.2122H103.565V62.9872H98.1146V44.2122ZM92.6638 49.663H98.1146V55.1138H92.6638V60.5646H87.213V66.0154H81.7622V60.5646H87.213V55.1138H92.6638V49.663ZM73.2831 66.0154H67.8323V71.4662H73.2831V66.0154ZM41.7895 79.3396H47.2404V84.7904H41.7895V79.3396ZM32.0992 74.4945H27.254V69.6493H21.8032V58.7477H27.254H32.7049V66.0154H38.1557V79.3396H32.0992V74.4945ZM92.6138 62.6547H98.0646V68.1055H92.6138V73.5563H87.163V79.0071H78.0783V73.5563H87.163V68.1055H92.6138V62.6547Z" fill="#E1A818"/>
  <path fill-rule="evenodd" clip-rule="evenodd" d="M98.1146 55.1138H92.6638V62.9872H98.1146V55.1138ZM92.6638 60.5646H87.213L87.213 66.0154H73.2831V71.4662H47.2403H38.1557V79.3396H47.2403V84.7904H78.1283V73.8888H87.213L87.213 68.438H92.6638V60.5646Z" fill="#FFBF1E"/>
  <path fill-rule="evenodd" clip-rule="evenodd" d="M62.9872 71.4663H57.5363V73.8889H52.0855V79.3397H47.2404L47.2404 84.7905H52.6912H67.2267V79.3397L73.2831 79.3397V73.8889H62.9872V71.4663ZM47.2404 79.3397V73.8889H41.7896V79.3397H47.2404Z" fill="#FFD600"/>
  <rect width="5.45081" height="5.45081" transform="matrix(-1 0 0 1 62.9872 73.8889)" fill="#FFEA30"/>
  <rect width="5.45081" height="5.45081" transform="matrix(-1 0 0 1 57.5363 79.3396)" fill="#FFEA30"/>
  <rect width="4.84517" height="5.45081" transform="matrix(-1 0 0 1 52.0855 73.8889)" fill="#FFEA30"/>
  <path fill-rule="evenodd" clip-rule="evenodd" d="M98.1146 33.3105H103.565V38.7614H98.1146V33.3105ZM16.3524 53.2969H21.8032V47.846H27.2541V53.2969H21.8032V58.7477H16.3524V53.2969ZM16.3524 63.5928H10.9016V69.0436H16.3524V63.5928ZM103.565 43.0009H109.016V48.4517L114.467 48.4517V59.3533H109.016V48.4517H103.565V43.0009Z" fill="#553800"/>
</svg>