<svg xmlns="http://www.w3.org/2000/svg" width="146" height="213" viewBox="0 0 146 213" fill="none">
  <path fill-rule="evenodd" clip-rule="evenodd" d="M31.951 62.2378H107.815V68.3433H115.211V181.292H107.815V181.359H31.951V175.136H24.4114V68.4603H31.951V62.2378ZM16.8691 80.9062H24.4089V156.468H16.8691V80.9062ZM16.8682 103.131H9.32841V150.246H16.8682V103.131ZM130.003 169.081V150.002H137.789V119.475H130.003V104.212H122.218V80.554H115.211V175.186H122.218L122.218 169.081H130.003ZM47.0297 187.582V193.804H99.8119V187.582H47.0297ZM39.4907 187.581V181.359H107.354V187.581L39.4907 187.581Z" fill="#D59F52"/>
  <rect x="99.6318" y="102.011" width="16.0505" height="26.1564" fill="#1A1918"/>
  <path d="M92.0285 43.1589H47.8638V49.3817H92.0285V43.1589Z" fill="#1A1918"/>
  <path d="M99.5688 193.502H46.7866V199.616H99.5688V193.502Z" fill="#1A1918"/>
  <path d="M38.9153 55.3696H31.9083V62.238H39.2463L38.9153 55.3696Z" fill="#1A1918"/>
  <path d="M99.5688 55.6044H107.109V62.238H99.5688V55.6044Z" fill="#1A1918"/>
  <path d="M92.0285 49.3817H99.5688V55.6044H92.0285V49.3817Z" fill="#1A1918"/>
  <path d="M38.9153 49.3817H47.8638V55.6044L38.9153 55.3696V49.3817Z" fill="#1A1918"/>
  <path d="M31.9083 62.238H24.1657V68.3433H31.9083V62.238Z" fill="#1A1918"/>
  <path d="M107.109 62.238H114.649V68.3433H107.109V62.238Z" fill="#1A1918"/>
  <path d="M24.1657 68.3433H16.6254V80.4953H24.1657V68.3433Z" fill="#1A1918"/>
  <path d="M16.6254 80.4953H9.08508V102.719H16.6254V80.4953Z" fill="#1A1918"/>
  <path d="M114.649 68.3433H122.19V80.554H114.649V68.3433Z" fill="#1A1918"/>
  <path d="M9.08508 102.719H1.54477V149.834H9.08508V102.719Z" fill="#1A1918"/>
  <path d="M130.006 80.554H122.19V104.497H130.006V80.554Z" fill="#1A1918"/>
  <path d="M24.1657 156.057H16.6254V174.423H24.1657V156.057Z" fill="#1A1918"/>
  <path d="M130.006 149.834H137.792V168.318H130.006V149.834Z" fill="#1A1918"/>
  <path d="M130.006 104.497H137.792V119.61H130.006V104.497Z" fill="#1A1918"/>
  <path d="M31.706 174.423H24.1657V180.948H31.706V174.423Z" fill="#1A1918"/>
  <path d="M16.6254 149.834H9.08508V156.057H16.6254V149.834Z" fill="#1A1918"/>
  <path d="M115.213 175.186H122.19V181.292H115.213V175.186Z" fill="#1A1918"/>
  <path d="M122.19 168.318H130.006V175.186H122.19V168.318Z" fill="#1A1918"/>
  <path d="M38.9153 180.948H31.706V187.397H38.9153V180.948Z" fill="#1A1918"/>
  <path d="M107.428 181.292H115.213V187.397H107.428V181.292Z" fill="#1A1918"/>
  <path d="M46.7866 187.397H38.9153V193.502H46.7866V187.397Z" fill="#1A1918"/>
  <path d="M99.5688 187.397H107.428V193.502H99.5688V187.397Z" fill="#1A1918"/>
  <path d="M130.007 119.61H137.792V149.834H130.007V119.61Z" fill="#1A1918"/>
  <rect x="41.9689" y="100.822" width="16.0505" height="26.1564" fill="#1A1918"/>
  <rect x="49.697" y="106.767" width="8.3225" height="10.7004" fill="#FFFBF6"/>
  <rect x="107.36" y="106.767" width="8.3225" height="10.7004" fill="#FFFBF6"/>
  <rect width="5.94464" height="7.13357" transform="matrix(-1 0 0 1 69.9088 130.545)" fill="#1A1918"/>
  <rect width="5.35018" height="6.53911" transform="matrix(-1 0 0 1 96.6595 131.14)" fill="#1A1918"/>
  <rect width="21.6762" height="5.54288" transform="matrix(-1 0 0 1 61.8627 200.408)" fill="#B17C31"/>
  <rect width="18.6853" height="5.34214" transform="matrix(-1 0 0 1 109.764 200.37)" fill="#B17C31"/>
  <rect width="21.7995" height="6.10531" transform="matrix(-1 0 0 1 91.0796 137.791)" fill="#1A1918"/>
  <rect width="21.7995" height="6.86847" transform="matrix(-1 0 0 1 61.4933 193.502)" fill="#1A1918"/>
  <rect width="21.0209" height="6.86847" transform="matrix(-1 0 0 1 61.4933 205.713)" fill="#1A1918"/>
  <rect width="20.2424" height="6.86847" transform="matrix(-1 0 0 1 111.322 205.713)" fill="#1A1918"/>
  <path fill-rule="evenodd" clip-rule="evenodd" d="M92.0267 49.3823H47.862V55.37H38.9117V62.2385H47.8658V68.0496H86.6446V62.2385H99.6388V55.37H92.0267V49.3823ZM74.7957 68.0498H47.866V74.2726H74.7957V68.0498Z" fill="#EBBA77"/>
  <path fill-rule="evenodd" clip-rule="evenodd" d="M31.9075 62.2378H38.9145V96.5802H31.9075V62.2378ZM24.12 68.3436H31.9055V156.059H39.2425V162.28H60.7865V168.503H68.3259V174.725H31.7015V174.423H24.12V156.057H16.6221V80.4953H24.12V68.3436ZM16.6212 102.72H9.08138V149.835H16.6212V102.72ZM75.8678 174.726V180.529H99.6396V174.424H107.425V168.318H122.218V175.187H115.211V181.292H107.425V187.397H38.9126V180.948H31.7032L31.7032 174.726H75.8678ZM99.641 187.397V193.503H46.6994V187.397H99.641ZM130.003 168.318L130.003 162.213H107.425V168.318H130.003Z" fill="#B17C31"/>
  <rect width="6.22842" height="19.0791" transform="matrix(-1 0 0 1 45.1431 193.502)" fill="#1A1918"/>
  <rect width="6.22842" height="18.3159" transform="matrix(-1 0 0 1 63.0517 194.266)" fill="#1A1918"/>
  <rect width="5.44987" height="19.0791" transform="matrix(-1 0 0 1 111.322 193.502)" fill="#1A1918"/>
  <rect width="5.44987" height="18.3159" transform="matrix(-1 0 0 1 96.5295 194.266)" fill="#1A1918"/>
  <rect width="20.2424" height="6.86847" transform="matrix(-1 0 0 1 111.322 193.502)" fill="#1A1918"/>
  <rect x="115.683" y="94.283" width="7.72804" height="17.2395" fill="#D59F52"/>
  <rect x="135.894" y="119.845" width="10.1059" height="35.0734" fill="#1A1918"/>
  <rect x="123.41" y="94.283" width="6.53911" height="17.2395" fill="#1A1918"/>
  <rect x="129.949" y="119.845" width="7.72804" height="35.0734" fill="#D59F52"/>
  <path fill-rule="evenodd" clip-rule="evenodd" d="M93.6029 5.45093H87.5464H82.0956L77.8561 5.45093H68.1658H58.4754H57.8698L33.0383 5.45093V61.776H57.8698V66.6211H68.1658V60.5647H77.8561H82.0956V55.7195H87.5464V51.48H93.6029V44.2122H98.4481V38.7614H103.899V32.705H98.4481V7.26786H93.6029V5.45093ZM124.491 53.2969H103.899V68.1055H103.849V79.0072H98.3981V82.9736H97.8424V84.1849H82.7013V95.0865L78.4618 95.0865H22.1367V101.143H78.4618L78.4618 100.537H83.9126V95.0865L98.4481 95.0865V90.847H108.138V89.6357H113.589V83.882H114.195V78.734L124.491 78.7341V72.3451H129.892V59.0209H124.491V53.2969ZM5.7343 84.458H11.1851V89.9088H5.7343V84.458Z" fill="#3B9F2A"/>
  <path fill-rule="evenodd" clip-rule="evenodd" d="M62.715 5.45093L48.1795 5.45093V10.9017H33.0383V16.3525L22.1367 16.3526V21.8034V27.8598L32.4327 27.8598V33.3106H38.4891V27.8598L42.7287 27.8598V21.8034H51.8133V16.3526L57.8698 16.3525V10.9017H62.715V5.45093ZM38.4891 33.3106V39.3671H43.9399V33.3106L38.4891 33.3106ZM75.4335 32.705H80.8843V26.6485H86.3351L86.3351 20.5921H92.9972V10.9017H98.4481V26.6485H92.9972H86.3351V32.705L80.8843 32.705V38.7614H75.4335V32.705ZM52.419 39.3671H75.4335V45.4235H52.419V39.3671Z" fill="#5CB74D"/>
  <path fill-rule="evenodd" clip-rule="evenodd" d="M16.6859 21.8032H22.1367V27.254H27.5875H28.1932H33.0383L33.0383 32.7048H38.4891V39.3669H52.369V60.5645H57.8698V66.0154H52.369V66.621H38.4392V58.7476H33.0383L33.0383 54.5081H28.1932H27.5875H22.1367V37.55H16.6859V21.8032ZM98.3981 68.1054H103.849V62.6546H109.3V68.1054H103.849V73.5562V79.007H98.3981V84.4578L92.9473 84.4578V89.9086H83.8626V95.3595H37.8835V101.143H22.1367V96.2976H13.052V90.8468H5.78428V84.7904V69.0436H11.2351L11.2351 63.5928H16.6859L16.6859 58.142H27.5875V79.007H32.9884V84.1847H42.123V89.9086H78.4118V84.4578L87.4965 84.4578V79.007H92.9473V73.5562L98.3981 73.5562V68.1054ZM124.441 57.5363H129.892V62.9871H124.441V57.5363ZM124.441 68.4379H118.99V73.8887H113.589V79.3396H119.04V73.8887H124.441V68.4379ZM113.589 79.3396H108.138V84.7904H113.589V79.3396Z" fill="#1E6F10"/>
  <path fill-rule="evenodd" clip-rule="evenodd" d="M98.448 38.7615H103.899V44.2123H98.448L98.448 49.6631H92.9972V55.1139H87.5464V60.5647H82.0956V66.0155H68.1658V71.4663H38.4891V66.0155H33.0383V58.7478H22.1367V69.6494H27.5875L27.5875 74.4946H32.4327V79.3397H42.123V84.458L78.4118 84.458V79.0072H87.4964V73.5564H92.9473V68.1056H98.3981V62.6548H103.849V68.1056H98.3981V73.5564H92.9473V79.0072H87.4964V84.458H78.4118V89.9088H42.073V84.7905H32.4327V79.3397H27.5875V74.4946H22.1367H21.5311H16.6859V58.7478H22.1367L22.1367 53.297H33.0383L33.0383 58.7478H38.4891V66.0155H68.1658V60.5647L82.0956 60.5647V55.1139H87.5464V49.6631H92.9972V44.2123H98.448V38.7615ZM109.35 47.8462H103.899V62.9873H109.35V47.8462Z" fill="#B67800"/>
  <path d="M103.899 10.9016H98.4481V33.3105H103.899V10.9016Z" fill="#1A1918"/>
  <path d="M16.6859 21.8032H11.2351V36.9444H16.6859V21.8032Z" fill="#1A1918"/>
  <path d="M98.4481 5.45081H92.9973V10.9016L98.4481 10.9016V5.45081Z" fill="#1A1918"/>
  <path d="M129.942 53.2968H124.491V58.7476H129.942V53.2968Z" fill="#1A1918"/>
  <path d="M124.491 73.3128H119.04V78.7339H124.491V73.3128Z" fill="#1A1918"/>
  <path d="M119.04 78.7339H113.589V83.9116H119.04V78.7339Z" fill="#1A1918"/>
  <path d="M113.589 83.9116H108.188L108.138 89.6653H113.589V83.9116Z" fill="#1A1918"/>
  <path d="M93.5529 95.0566H78.4618V100.84H93.5529V95.0566Z" fill="#1A1918"/>
  <path d="M108.138 89.6653H93.5529V95.0566H108.138V89.6653Z" fill="#1A1918"/>
  <path d="M129.942 62.4112H124.491V73.3128H129.942V62.4112Z" fill="#1A1918"/>
  <path d="M124.491 58.7476H129.942V62.4112H124.491V58.7476Z" fill="#1A1918"/>
  <path d="M13.052 89.6653H5.78429V95.1161H13.052V89.6653Z" fill="#1A1918"/>
  <path d="M11.2351 63.6225H5.78429V69.0733H11.2351V63.6225Z" fill="#1A1918"/>
  <path d="M16.6859 58.1717H11.2351V63.6225H16.6859V58.1717Z" fill="#1A1918"/>
  <path d="M5.78429 69.0733H0.333481V89.6653H5.78429V69.0733Z" fill="#1A1918"/>
  <path d="M22.1367 52.7209H16.6859V58.1717H22.1367V52.7209Z" fill="#1A1918"/>
  <path d="M22.1367 95.1161H13.052V100.84H22.1367V95.1161Z" fill="#1A1918"/>
  <path d="M109.35 33.3105H103.899V47.846H109.35V33.3105Z" fill="#1A1918"/>
  <path d="M22.1367 16.3524H16.6859V21.8032H22.1367V16.3524Z" fill="#1A1918"/>
  <path d="M22.1367 36.9444H16.6859V52.7209H22.1367V36.9444Z" fill="#1A1918"/>
  <path d="M48.1795 5.45081H33.0383V10.9016L48.1795 10.9016V5.45081Z" fill="#1A1918"/>
  <path d="M78.4618 100.84H22.1367V106.594H78.4618V100.84Z" fill="#1A1918"/>
  <path d="M33.0383 10.9016H22.1367V16.3524H33.0383V10.9016Z" fill="#1A1918"/>
  <path d="M92.9973 0L48.1795 0V5.45081L92.9973 5.45081V0Z" fill="#1A1918"/>
  <path d="M124.491 47.846H109.35V53.2968H124.491V47.846Z" fill="#1A1918"/>
  <path fill-rule="evenodd" clip-rule="evenodd" d="M98.4481 44.2122H103.899V62.9872H98.4481V55.1138H92.9973V60.5646H87.5465V66.0154H82.0956V60.5646H87.5465V55.1138H92.9973V49.663H98.4481V44.2122ZM73.6166 66.0154H68.1658V71.4662H73.6166V66.0154ZM42.123 79.3396H47.5738V84.7904H42.123V79.3396ZM32.4327 74.4945H27.5875V69.6493H22.1367V58.7477H27.5875H33.0383V66.0154H38.4892V79.3396H32.4327V74.4945ZM92.9473 62.6547H98.3981V68.1055H92.9473L92.9473 73.5563H87.4965L87.4965 79.0071H78.4118V73.5563H87.4965V68.1055H92.9473V62.6547Z" fill="#E1A818"/>
  <path fill-rule="evenodd" clip-rule="evenodd" d="M98.4481 55.1138H92.9972V60.5646H87.5465V66.0154H73.6166V71.4662H47.5738H38.4892V79.3396H47.5738V84.7904H78.4618V73.8888H87.5465V68.438H92.9973V62.9872H98.4481V55.1138Z" fill="#FFBF1E"/>
  <path fill-rule="evenodd" clip-rule="evenodd" d="M63.3206 71.4663H57.8698V73.8889H52.419V79.3397H47.5738V84.7905H53.0246H67.5601V79.3397L73.6166 79.3397V73.8889H63.3206V71.4663ZM47.5738 79.3397V73.8889H42.123V79.3397H47.5738Z" fill="#FFD600"/>
  <rect width="5.45081" height="5.45081" transform="matrix(-1 0 0 1 63.3206 73.8889)" fill="#FFEA30"/>
  <rect width="5.45081" height="5.45081" transform="matrix(-1 0 0 1 57.8698 79.3396)" fill="#FFEA30"/>
  <rect width="4.84517" height="5.45081" transform="matrix(-1 0 0 1 52.419 73.8889)" fill="#FFEA30"/>
  <path fill-rule="evenodd" clip-rule="evenodd" d="M98.4481 33.3105H103.899V38.7614H98.4481V33.3105ZM16.6859 53.2969H22.1367V47.846H27.5876V53.2969H22.1367V58.7477H16.6859V53.2969ZM16.6859 63.5928H11.2351V69.0436H16.6859V63.5928ZM103.899 43.0009H109.35V48.4517L114.801 48.4517V59.3533H109.35V48.4517H103.899V43.0009Z" fill="#553800"/>
</svg>