<svg xmlns="http://www.w3.org/2000/svg" width="124" height="93" viewBox="0 0 124 93" fill="none">
  <rect x="0.5" y="76.6599" width="9.17174" height="3.66095" fill="#E1E2E2" fill-opacity="0.05"/>
  <rect x="1.48633" y="75.8312" width="9.17174" height="5.31748" fill="#E1E2E2" fill-opacity="0.05"/>
  <rect x="2.47241" y="75.1406" width="9.17174" height="6.69864" fill="#E1E2E2" fill-opacity="0.05"/>
  <rect x="3.36011" y="74.45" width="9.17174" height="8.07981" fill="#E1E2E2" fill-opacity="0.05"/>
  <rect x="4.34619" y="73.6213" width="9.17174" height="9.73719" fill="#E1E2E2" fill-opacity="0.05"/>
  <rect x="6.02319" y="72.9308" width="9.17174" height="11.1184" fill="#E1E2E2" fill-opacity="0.05"/>
  <rect x="8.29126" y="72.033" width="9.17174" height="12.9139" fill="#E1E2E2" fill-opacity="0.05"/>
  <rect x="10.5593" y="71.1353" width="9.17174" height="14.7094" fill="#E1E2E2" fill-opacity="0.05"/>
  <rect x="12.5315" y="70.2375" width="9.17174" height="16.5049" fill="#E1E2E2" fill-opacity="0.05"/>
  <rect x="15.0959" y="69.616" width="9.17174" height="17.7479" fill="#E1E2E2" fill-opacity="0.05"/>
  <rect x="18.0547" y="68.442" width="9.17174" height="20.0959" fill="#E1E2E2" fill-opacity="0.05"/>
  <rect x="23.084" y="67.6133" width="9.17174" height="21.7533" fill="#E1E2E2" fill-opacity="0.05"/>
  <rect x="27.8184" y="66.7845" width="9.17174" height="23.4107" fill="#E1E2E2" fill-opacity="0.05"/>
  <rect x="32.749" y="66.2321" width="9.17174" height="24.5156" fill="#E1E2E2" fill-opacity="0.05"/>
  <rect x="40.8359" y="65.4037" width="9.17174" height="26.173" fill="#E1E2E2" fill-opacity="0.05"/>
  <rect x="48.7258" y="64.6438" width="13.2152" height="27.6923" fill="#E1E2E2" fill-opacity="0.05"/>
  <rect width="9.17173" height="3.66096" transform="matrix(-1 0 0 1 123.677 76.6599)" fill="#E1E2E2" fill-opacity="0.05"/>
  <rect width="9.17174" height="5.31748" transform="matrix(-1 0 0 1 122.691 75.8312)" fill="#E1E2E2" fill-opacity="0.05"/>
  <rect width="9.17174" height="6.69864" transform="matrix(-1 0 0 1 121.705 75.1407)" fill="#E1E2E2" fill-opacity="0.05"/>
  <rect width="9.17173" height="8.07981" transform="matrix(-1 0 0 1 120.817 74.45)" fill="#E1E2E2" fill-opacity="0.05"/>
  <rect width="9.17173" height="9.7372" transform="matrix(-1 0 0 1 119.831 73.6213)" fill="#E1E2E2" fill-opacity="0.05"/>
  <rect width="9.17174" height="11.1184" transform="matrix(-1 0 0 1 118.154 72.9308)" fill="#E1E2E2" fill-opacity="0.05"/>
  <rect width="9.17174" height="12.9139" transform="matrix(-1 0 0 1 115.886 72.033)" fill="#E1E2E2" fill-opacity="0.05"/>
  <rect width="9.17174" height="14.7094" transform="matrix(-1 0 0 1 113.618 71.1353)" fill="#E1E2E2" fill-opacity="0.05"/>
  <rect width="9.17173" height="16.5049" transform="matrix(-1 0 0 1 111.646 70.2375)" fill="#E1E2E2" fill-opacity="0.05"/>
  <rect width="9.17174" height="17.748" transform="matrix(-1 0 0 1 109.082 69.616)" fill="#E1E2E2" fill-opacity="0.05"/>
  <rect width="9.17173" height="20.0959" transform="matrix(-1 0 0 1 106.123 68.442)" fill="#E1E2E2" fill-opacity="0.05"/>
  <rect width="9.17174" height="21.7533" transform="matrix(-1 0 0 1 101.094 67.6133)" fill="#E1E2E2" fill-opacity="0.05"/>
  <rect width="9.17173" height="23.4107" transform="matrix(-1 0 0 1 96.3591 66.7846)" fill="#E1E2E2" fill-opacity="0.05"/>
  <rect width="9.17174" height="24.5157" transform="matrix(-1 0 0 1 91.4285 66.2321)" fill="#E1E2E2" fill-opacity="0.05"/>
  <rect width="9.17173" height="26.173" transform="matrix(-1 0 0 1 83.3416 65.4037)" fill="#E1E2E2" fill-opacity="0.05"/>
  <rect width="13.5111" height="27.6923" transform="matrix(-1 0 0 1 75.4517 64.6438)" fill="#E1E2E2" fill-opacity="0.05"/>
  <mask id="path-33-inside-1_993_19675" fill="white">
    <path fill-rule="evenodd" clip-rule="evenodd" d="M50.5657 66.5506H61.1519H61.961H72.9795V67.2057H79.8861V67.9201H86.9654V68.3965H91.2819V69.111H95.426V69.8257H99.829V70.838H102.419V71.3739H104.663V72.148H106.39V72.9222H108.376V73.6963H110.362V74.2918H111.829V75.0064H112.692V75.6019H113.47V76.1973H114.333V76.9119H115.196V80.0687H114.333V80.7825H113.47V81.378H112.692V81.9735H111.829V82.6881H110.362V83.2835H108.376V84.0577H106.39V84.8318H104.663V85.6059H102.419V86.1419H99.829V87.1542H95.426V87.8687H91.2819V88.5833H86.9654V89.0597H79.8861V89.7745H72.9795V90.4294H61.961H61.1519H50.5657V89.7745H43.7627V89.0597H36.7893V88.5833H32.5373V87.8687H28.4554V87.1542H24.1186V86.1419H21.5672V85.6059H19.3562V84.8318H17.6555V84.0577H15.6996V83.2835H13.7438V82.6881H12.2982V81.9735H11.4476V81.378H10.6822V80.7825H9.83205V80.0687H8.98145V76.9119H9.83205V76.1973H10.6822V75.6019H11.4476V75.0064H12.2982V74.2918H13.7438V73.6963H15.6996V72.9222H17.6555V72.148H19.3562V71.3739H21.5672V70.838H24.1186V69.8257H28.4554V69.111H32.5373V68.3965H36.7893V67.9201H43.7627V67.2057H50.5657V66.5506Z"/>
  </mask>
  <path d="M50.5657 66.5506V63.4497H47.4648V66.5506H50.5657ZM72.9795 66.5506H76.0803V63.4497H72.9795V66.5506ZM72.9795 67.2057H69.8786V70.3066H72.9795V67.2057ZM79.8861 67.2057H82.9869V64.1049H79.8861V67.2057ZM79.8861 67.9201H76.7852V71.021H79.8861V67.9201ZM86.9654 67.9201H90.0662V64.8193H86.9654V67.9201ZM86.9654 68.3965H83.8645V71.4974H86.9654V68.3965ZM91.2819 68.3965H94.3827V65.2957H91.2819V68.3965ZM91.2819 69.111H88.181V72.2119H91.2819V69.111ZM95.426 69.111H98.5269V66.0102H95.426V69.111ZM95.426 69.8257H92.3252V72.9266H95.426V69.8257ZM99.829 69.8257H102.93V66.7248H99.829V69.8257ZM99.829 70.838H96.7281V73.9389H99.829V70.838ZM102.419 70.838H105.52V67.7372H102.419V70.838ZM102.419 71.3739H99.3181V74.4748H102.419V71.3739ZM104.663 71.3739H107.764V68.2731H104.663V71.3739ZM104.663 72.148H101.563V75.2489H104.663V72.148ZM106.39 72.148H109.491V69.0472H106.39V72.148ZM106.39 72.9222H103.289V76.023H106.39V72.9222ZM108.376 72.9222H111.477V69.8213H108.376V72.9222ZM108.376 73.6963H105.275V76.7971H108.376V73.6963ZM110.362 73.6963H113.462V70.5954H110.362V73.6963ZM110.362 74.2918H107.261V77.3926H110.362V74.2918ZM111.829 74.2918H114.93V71.1909H111.829V74.2918ZM111.829 75.0064H108.728V78.1072H111.829V75.0064ZM112.692 75.0064H115.793V71.9055H112.692V75.0064ZM112.692 75.6019H109.591V78.7027H112.692V75.6019ZM113.47 75.6019H116.57V72.501H113.47V75.6019ZM113.47 76.1973H110.369V79.2982H113.47V76.1973ZM114.333 76.1973H117.434V73.0964H114.333V76.1973ZM114.333 76.9119H111.232V80.0127H114.333V76.9119ZM115.196 76.9119H118.297V73.811H115.196V76.9119ZM115.196 80.0687V83.1695H118.297V80.0687H115.196ZM114.333 80.0687V76.9678H111.232V80.0687H114.333ZM114.333 80.7825V83.8834H117.434V80.7825H114.333ZM113.47 80.7825V77.6816H110.369V80.7825H113.47ZM113.47 81.378V84.4789H116.57V81.378H113.47ZM112.692 81.378V78.2772H109.591V81.378H112.692ZM112.692 81.9735V85.0744H115.793V81.9735H112.692ZM111.829 81.9735V78.8726H108.728V81.9735H111.829ZM111.829 82.6881V85.7889H114.93V82.6881H111.829ZM110.362 82.6881V79.5872H107.261V82.6881H110.362ZM110.362 83.2835V86.3844H113.462V83.2835H110.362ZM108.376 83.2835V80.1827H105.275V83.2835H108.376ZM108.376 84.0577V87.1585H111.477V84.0577H108.376ZM106.39 84.0577V80.9568H103.289V84.0577H106.39ZM106.39 84.8318V87.9327H109.491V84.8318H106.39ZM104.663 84.8318V81.7309H101.563V84.8318H104.663ZM104.663 85.6059V88.7068H107.764V85.6059H104.663ZM102.419 85.6059V82.5051H99.3181V85.6059H102.419ZM102.419 86.1419V89.2427H105.52V86.1419H102.419ZM99.829 86.1419V83.041H96.7281V86.1419H99.829ZM99.829 87.1542V90.2551H102.93V87.1542H99.829ZM95.426 87.1542V84.0534H92.3252V87.1542H95.426ZM95.426 87.8687V90.9696H98.5269V87.8687H95.426ZM91.2819 87.8687V84.7679H88.181V87.8687H91.2819ZM91.2819 88.5833V91.6842H94.3827V88.5833H91.2819ZM86.9654 88.5833V85.4825H83.8645V88.5833H86.9654ZM86.9654 89.0597V92.1606H90.0662V89.0597H86.9654ZM79.8861 89.0597V85.9588H76.7852V89.0597H79.8861ZM79.8861 89.7745V92.8753H82.9869V89.7745H79.8861ZM72.9795 89.7745V86.6736H69.8786V89.7745H72.9795ZM72.9795 90.4294V93.5302H76.0803V90.4294H72.9795ZM50.5657 90.4294H47.4648V93.5302H50.5657V90.4294ZM50.5657 89.7745H53.6665V86.6736H50.5657V89.7745ZM43.7627 89.7745H40.6618V92.8753H43.7627V89.7745ZM43.7627 89.0597H46.8635V85.9589H43.7627V89.0597ZM36.7893 89.0597H33.6885V92.1606H36.7893V89.0597ZM36.7893 88.5833H39.8902V85.4825H36.7893V88.5833ZM32.5373 88.5833H29.4364V91.6842H32.5373V88.5833ZM32.5373 87.8687H35.6381V84.7679H32.5373V87.8687ZM28.4554 87.8687H25.3545V90.9696H28.4554V87.8687ZM28.4554 87.1542H31.5562V84.0534H28.4554V87.1542ZM24.1186 87.1542H21.0177V90.2551H24.1186V87.1542ZM24.1186 86.1419H27.2194V83.041H24.1186V86.1419ZM21.5672 86.1419H18.4664V89.2427H21.5672V86.1419ZM21.5672 85.6059H24.6681V82.5051H21.5672V85.6059ZM19.3562 85.6059H16.2554V88.7068H19.3562V85.6059ZM19.3562 84.8318H22.4571V81.7309H19.3562V84.8318ZM17.6555 84.8318H14.5547V87.9327H17.6555V84.8318ZM17.6555 84.0577H20.7564V80.9568H17.6555V84.0577ZM15.6996 84.0577H12.5988V87.1585H15.6996V84.0577ZM15.6996 83.2835H18.8005V80.1827H15.6996V83.2835ZM13.7438 83.2835H10.6429V86.3844H13.7438V83.2835ZM13.7438 82.6881H16.8446V79.5872H13.7438V82.6881ZM12.2982 82.6881H9.19732V85.7889H12.2982V82.6881ZM12.2982 81.9735H15.399V78.8726H12.2982V81.9735ZM11.4476 81.9735H8.34672V85.0744H11.4476V81.9735ZM11.4476 81.378H14.5484V78.2772H11.4476V81.378ZM10.6822 81.378H7.58132V84.4789H10.6822V81.378ZM10.6822 80.7825H13.783V77.6816H10.6822V80.7825ZM9.83205 80.7825H6.73119V83.8834H9.83205V80.7825ZM9.83205 80.0687H12.9329V76.9678H9.83205V80.0687ZM8.98145 80.0687H5.88059V83.1696H8.98145V80.0687ZM8.98145 76.9119V73.811H5.88059V76.9119H8.98145ZM9.83205 76.9119V80.0127H12.9329V76.9119H9.83205ZM9.83205 76.1973V73.0964H6.73119V76.1973H9.83205ZM10.6822 76.1973V79.2982H13.783V76.1973H10.6822ZM10.6822 75.6019V72.501H7.58132V75.6019H10.6822ZM11.4476 75.6019V78.7027H14.5484V75.6019H11.4476ZM11.4476 75.0064V71.9055H8.34672V75.0064H11.4476ZM12.2982 75.0064V78.1072H15.399V75.0064H12.2982ZM12.2982 74.2918V71.1909H9.19732V74.2918H12.2982ZM13.7438 74.2918V77.3926H16.8446V74.2918H13.7438ZM13.7438 73.6963V70.5954H10.6429V73.6963H13.7438ZM15.6996 73.6963V76.7971H18.8005V73.6963H15.6996ZM15.6996 72.9222V69.8213H12.5988V72.9222H15.6996ZM17.6555 72.9222V76.023H20.7564V72.9222H17.6555ZM17.6555 72.148V69.0472H14.5547V72.148H17.6555ZM19.3562 72.148V75.2489H22.4571V72.148H19.3562ZM19.3562 71.3739V68.2731H16.2554V71.3739H19.3562ZM21.5672 71.3739V74.4748H24.6681V71.3739H21.5672ZM21.5672 70.838V67.7372H18.4664V70.838H21.5672ZM24.1186 70.838V73.9389H27.2194V70.838H24.1186ZM24.1186 69.8257V66.7248H21.0177V69.8257H24.1186ZM28.4554 69.8257V72.9266H31.5562V69.8257H28.4554ZM28.4554 69.111V66.0102H25.3545V69.111H28.4554ZM32.5373 69.111V72.2119H35.6381V69.111H32.5373ZM32.5373 68.3965V65.2957H29.4364V68.3965H32.5373ZM36.7893 68.3965V71.4974H39.8902V68.3965H36.7893ZM36.7893 67.9201V64.8193H33.6885V67.9201H36.7893ZM43.7627 67.9201V71.021H46.8635V67.9201H43.7627ZM43.7627 67.2057V64.1049H40.6618V67.2057H43.7627ZM50.5657 67.2057V70.3066H53.6665V67.2057H50.5657ZM61.1519 63.4497H50.5657V69.6514H61.1519V63.4497ZM61.1519 69.6514H61.961V63.4497H61.1519V69.6514ZM61.961 69.6514H72.9795V63.4497H61.961V69.6514ZM69.8786 66.5506V67.2057H76.0803V66.5506H69.8786ZM72.9795 70.3066H79.8861V64.1049H72.9795V70.3066ZM76.7852 67.2057V67.9201H82.9869V67.2057H76.7852ZM79.8861 71.021H86.9654V64.8193H79.8861V71.021ZM83.8645 67.9201V68.3965H90.0662V67.9201H83.8645ZM86.9654 71.4974H91.2819V65.2957H86.9654V71.4974ZM88.181 68.3965V69.111H94.3827V68.3965H88.181ZM91.2819 72.2119H95.426V66.0102H91.2819V72.2119ZM92.3252 69.111V69.8257H98.5269V69.111H92.3252ZM95.426 72.9266H99.829V66.7248H95.426V72.9266ZM96.7281 69.8257V70.838H102.93V69.8257H96.7281ZM99.829 73.9389H102.419V67.7372H99.829V73.9389ZM99.3181 70.838V71.3739H105.52V70.838H99.3181ZM102.419 74.4748H104.663V68.2731H102.419V74.4748ZM101.563 71.3739V72.148H107.764V71.3739H101.563ZM104.663 75.2489H106.39V69.0472H104.663V75.2489ZM103.289 72.148V72.9222H109.491V72.148H103.289ZM106.39 76.023H108.376V69.8213H106.39V76.023ZM105.275 72.9222V73.6963H111.477V72.9222H105.275ZM108.376 76.7971H110.362V70.5954H108.376V76.7971ZM107.261 73.6963V74.2918H113.462V73.6963H107.261ZM110.362 77.3926H111.829V71.1909H110.362V77.3926ZM108.728 74.2918V75.0064H114.93V74.2918H108.728ZM111.829 78.1072H112.692V71.9055H111.829V78.1072ZM109.591 75.0064V75.6019H115.793V75.0064H109.591ZM112.692 78.7027H113.47V72.501H112.692V78.7027ZM110.369 75.6019V76.1973H116.57V75.6019H110.369ZM113.47 79.2982H114.333V73.0964H113.47V79.2982ZM111.232 76.1973V76.9119H117.434V76.1973H111.232ZM114.333 80.0127H115.196V73.811H114.333V80.0127ZM112.095 76.9119V80.0687H118.297V76.9119H112.095ZM115.196 76.9678H114.333V83.1695H115.196V76.9678ZM111.232 80.0687V80.7825H117.434V80.0687H111.232ZM114.333 77.6816H113.47V83.8834H114.333V77.6816ZM110.369 80.7825V81.378H116.57V80.7825H110.369ZM113.47 78.2772H112.692V84.4789H113.47V78.2772ZM109.591 81.378V81.9735H115.793V81.378H109.591ZM112.692 78.8726H111.829V85.0744H112.692V78.8726ZM108.728 81.9735V82.6881H114.93V81.9735H108.728ZM111.829 79.5872H110.362V85.7889H111.829V79.5872ZM107.261 82.6881V83.2835H113.462V82.6881H107.261ZM110.362 80.1827H108.376V86.3844H110.362V80.1827ZM105.275 83.2835V84.0577H111.477V83.2835H105.275ZM108.376 80.9568H106.39V87.1585H108.376V80.9568ZM103.289 84.0577V84.8318H109.491V84.0577H103.289ZM106.39 81.7309H104.663V87.9327H106.39V81.7309ZM101.563 84.8318V85.6059H107.764V84.8318H101.563ZM104.663 82.5051H102.419V88.7068H104.663V82.5051ZM99.3181 85.6059V86.1419H105.52V85.6059H99.3181ZM102.419 83.041H99.829V89.2427H102.419V83.041ZM96.7281 86.1419V87.1542H102.93V86.1419H96.7281ZM99.829 84.0534H95.426V90.2551H99.829V84.0534ZM92.3252 87.1542V87.8687H98.5269V87.1542H92.3252ZM95.426 84.7679H91.2819V90.9696H95.426V84.7679ZM88.181 87.8687V88.5833H94.3827V87.8687H88.181ZM91.2819 85.4825H86.9654V91.6842H91.2819V85.4825ZM83.8645 88.5833V89.0597H90.0662V88.5833H83.8645ZM86.9654 85.9588H79.8861V92.1606H86.9654V85.9588ZM76.7852 89.0597V89.7745H82.9869V89.0597H76.7852ZM79.8861 86.6736H72.9795V92.8753H79.8861V86.6736ZM69.8786 89.7745V90.4294H76.0803V89.7745H69.8786ZM72.9795 87.3285H61.961V93.5302H72.9795V87.3285ZM61.961 87.3285H61.1519V93.5302H61.961V87.3285ZM50.5657 93.5302H61.1519V87.3285H50.5657V93.5302ZM47.4648 89.7745V90.4294H53.6665V89.7745H47.4648ZM43.7627 92.8753H50.5657V86.6736H43.7627V92.8753ZM40.6618 89.0597V89.7745H46.8635V89.0597H40.6618ZM36.7893 92.1606H43.7627V85.9589H36.7893V92.1606ZM33.6885 88.5833V89.0597H39.8902V88.5833H33.6885ZM32.5373 91.6842H36.7893V85.4825H32.5373V91.6842ZM29.4364 87.8687V88.5833H35.6381V87.8687H29.4364ZM28.4554 90.9696H32.5373V84.7679H28.4554V90.9696ZM25.3545 87.1542V87.8687H31.5562V87.1542H25.3545ZM24.1186 90.2551H28.4554V84.0534H24.1186V90.2551ZM21.0177 86.1419V87.1542H27.2194V86.1419H21.0177ZM21.5672 89.2427H24.1186V83.041H21.5672V89.2427ZM18.4664 85.6059V86.1419H24.6681V85.6059H18.4664ZM19.3562 88.7068H21.5672V82.5051H19.3562V88.7068ZM16.2554 84.8318V85.6059H22.4571V84.8318H16.2554ZM17.6555 87.9327H19.3562V81.7309H17.6555V87.9327ZM14.5547 84.0577V84.8318H20.7564V84.0577H14.5547ZM15.6996 87.1585H17.6555V80.9568H15.6996V87.1585ZM12.5988 83.2835V84.0577H18.8005V83.2835H12.5988ZM13.7438 86.3844H15.6996V80.1827H13.7438V86.3844ZM10.6429 82.6881V83.2835H16.8446V82.6881H10.6429ZM12.2982 85.7889H13.7438V79.5872H12.2982V85.7889ZM9.19732 81.9735V82.6881H15.399V81.9735H9.19732ZM11.4476 85.0744H12.2982V78.8726H11.4476V85.0744ZM8.34672 81.378V81.9735H14.5484V81.378H8.34672ZM10.6822 84.4789H11.4476V78.2772H10.6822V84.4789ZM7.58132 80.7825V81.378H13.783V80.7825H7.58132ZM9.83205 83.8834H10.6822V77.6816H9.83205V83.8834ZM6.73119 80.0687V80.7825H12.9329V80.0687H6.73119ZM8.98145 83.1696H9.83205V76.9678H8.98145V83.1696ZM5.88059 76.9119V80.0687H12.0823V76.9119H5.88059ZM9.83205 73.811H8.98145V80.0127H9.83205V73.811ZM6.73119 76.1973V76.9119H12.9329V76.1973H6.73119ZM10.6822 73.0964H9.83205V79.2982H10.6822V73.0964ZM7.58132 75.6019V76.1973H13.783V75.6019H7.58132ZM11.4476 72.501H10.6822V78.7027H11.4476V72.501ZM8.34672 75.0064V75.6019H14.5484V75.0064H8.34672ZM12.2982 71.9055H11.4476V78.1072H12.2982V71.9055ZM9.19732 74.2918V75.0064H15.399V74.2918H9.19732ZM13.7438 71.1909H12.2982V77.3926H13.7438V71.1909ZM10.6429 73.6963V74.2918H16.8446V73.6963H10.6429ZM15.6996 70.5954H13.7438V76.7971H15.6996V70.5954ZM12.5988 72.9222V73.6963H18.8005V72.9222H12.5988ZM17.6555 69.8213H15.6996V76.023H17.6555V69.8213ZM14.5547 72.148V72.9222H20.7564V72.148H14.5547ZM19.3562 69.0472H17.6555V75.2489H19.3562V69.0472ZM16.2554 71.3739V72.148H22.4571V71.3739H16.2554ZM21.5672 68.2731H19.3562V74.4748H21.5672V68.2731ZM18.4664 70.838V71.3739H24.6681V70.838H18.4664ZM24.1186 67.7372H21.5672V73.9389H24.1186V67.7372ZM21.0177 69.8257V70.838H27.2194V69.8257H21.0177ZM28.4554 66.7248H24.1186V72.9266H28.4554V66.7248ZM25.3545 69.111V69.8257H31.5562V69.111H25.3545ZM32.5373 66.0102H28.4554V72.2119H32.5373V66.0102ZM29.4364 68.3965V69.111H35.6381V68.3965H29.4364ZM36.7893 65.2957H32.5373V71.4974H36.7893V65.2957ZM33.6885 67.9201V68.3965H39.8902V67.9201H33.6885ZM43.7627 64.8193H36.7893V71.021H43.7627V64.8193ZM40.6618 67.2057V67.9201H46.8635V67.2057H40.6618ZM50.5657 64.1049H43.7627V70.3066H50.5657V64.1049ZM47.4648 66.5506V67.2057H53.6665V66.5506H47.4648Z" fill="#F0F0F0" fill-opacity="0.72" mask="url(#path-33-inside-1_993_19675)"/>
  <rect x="30.4807" y="75.0026" width="6.90346" height="0.829431" fill="#F0F0F0" fill-opacity="0.54"/>
  <rect x="28.7053" y="75.8314" width="6.90346" height="0.829431" fill="#F0F0F0" fill-opacity="0.54"/>
  <rect x="27.0291" y="76.6599" width="6.90346" height="0.829431" fill="#F0F0F0" fill-opacity="0.54"/>
  <rect x="48.5283" y="75.0026" width="6.90346" height="0.829431" fill="#F0F0F0" fill-opacity="0.54"/>
  <rect x="46.7529" y="75.8314" width="6.90346" height="0.829431" fill="#F0F0F0" fill-opacity="0.54"/>
  <rect x="45.0764" y="76.6599" width="6.90346" height="0.829431" fill="#F0F0F0" fill-opacity="0.54"/>
  <rect x="89.1602" y="75.0026" width="6.90346" height="0.829431" fill="#F0F0F0" fill-opacity="0.54"/>
  <rect x="87.3848" y="75.8314" width="6.90345" height="0.829431" fill="#F0F0F0" fill-opacity="0.54"/>
  <rect x="85.7083" y="76.6599" width="6.90345" height="0.829431" fill="#F0F0F0" fill-opacity="0.54"/>
  <rect x="36.3979" y="79.0769" width="6.90346" height="0.829431" fill="#F0F0F0" fill-opacity="0.54"/>
  <rect x="34.6228" y="79.9058" width="6.90346" height="0.829431" fill="#F0F0F0" fill-opacity="0.54"/>
  <rect x="32.946" y="80.7343" width="6.90346" height="0.829431" fill="#F0F0F0" fill-opacity="0.54"/>
  <rect x="53.0647" y="79.0769" width="6.90346" height="0.829431" fill="#F0F0F0" fill-opacity="0.54"/>
  <rect x="51.2896" y="79.9058" width="6.90346" height="0.829431" fill="#F0F0F0" fill-opacity="0.54"/>
  <rect x="49.613" y="80.7343" width="6.90346" height="0.829431" fill="#F0F0F0" fill-opacity="0.54"/>
  <rect x="78.1145" y="79.0769" width="6.90345" height="0.829431" fill="#F0F0F0" fill-opacity="0.54"/>
  <rect x="76.3394" y="79.9058" width="6.90345" height="0.829431" fill="#F0F0F0" fill-opacity="0.54"/>
  <rect x="74.6628" y="80.7343" width="6.90346" height="0.829431" fill="#F0F0F0" fill-opacity="0.54"/>
  <path fill-rule="evenodd" clip-rule="evenodd" d="M33.1429 23.7543H61.6515V26.0493H64.431V30.6396H67.0643V39.5329H69.9897V45.2706H72.9155V56.746H69.9897V63.9181H67.0643V66.2133H64.431V68.5082H61.6515V68.5336H61.4785V70.8733H58.6442V73.2126H38.8094V70.8733H35.9766V68.5336H33.1429V66.1942H30.308V59.1768H27.4733V56.8376H24.6399V39.1264H27.4733V30.772H30.308V26.0934H33.1429V23.7543Z" fill="#D59F52"/>
  <rect x="58.5771" y="38.7053" width="6.03157" height="9.83259" fill="#1A1918"/>
  <path d="M55.7194 16.5821H39.1229V18.9213H55.7194V16.5821Z" fill="#1A1918"/>
  <path d="M58.5529 73.0984H38.7181V75.3967H58.5529V73.0984Z" fill="#1A1918"/>
  <path d="M35.7602 21.1723H33.127V23.7542H35.8846L35.7602 21.1723Z" fill="#1A1918"/>
  <path d="M58.5529 21.2606H61.3865V23.7542H58.5529V21.2606Z" fill="#1A1918"/>
  <path d="M55.7194 18.9213H58.5529V21.2606H55.7194V18.9213Z" fill="#1A1918"/>
  <path d="M35.7602 18.9213H39.1229V21.2606L35.7602 21.1723V18.9213Z" fill="#1A1918"/>
  <path d="M33.127 23.7542H30.2175V26.0493H33.127V23.7542Z" fill="#1A1918"/>
  <path d="M61.3865 23.7542H64.22V26.0493H61.3865V23.7542Z" fill="#1A1918"/>
  <path d="M30.2175 26.0493H27.3839V30.6174H30.2175V26.0493Z" fill="#1A1918"/>
  <path d="M27.3839 30.6174H24.5504V38.9718H27.3839V30.6174Z" fill="#1A1918"/>
  <path d="M64.22 26.0493H67.0536V30.6395H64.22V26.0493Z" fill="#1A1918"/>
  <path d="M24.5504 38.9718H21.7168V56.6829H24.5504V38.9718Z" fill="#1A1918"/>
  <path d="M69.9908 30.6395H67.0536V39.6401H69.9908V30.6395Z" fill="#1A1918"/>
  <path d="M30.2175 59.0222H27.3839V65.9262H30.2175V59.0222Z" fill="#1A1918"/>
  <path d="M69.9908 56.6829H72.9165V63.6312H69.9908V56.6829Z" fill="#1A1918"/>
  <path d="M69.9908 39.6401H72.9165V45.321H69.9908V39.6401Z" fill="#1A1918"/>
  <path d="M33.051 65.9262H30.2175V68.379H33.051V65.9262Z" fill="#1A1918"/>
  <path d="M27.3839 56.6829H24.5504V59.0222H27.3839V56.6829Z" fill="#1A1918"/>
  <path d="M64.432 66.2131H67.0536V68.5082H64.432V66.2131Z" fill="#1A1918"/>
  <path d="M67.0536 63.6312H69.9908V66.2131H67.0536V63.6312Z" fill="#1A1918"/>
  <path d="M35.7602 68.379H33.051V70.8033H35.7602V68.379Z" fill="#1A1918"/>
  <path d="M61.5063 68.5082H64.432V70.8033H61.5063V68.5082Z" fill="#1A1918"/>
  <path d="M38.7181 70.8033H35.7602V73.0984H38.7181V70.8033Z" fill="#1A1918"/>
  <path d="M58.5529 70.8033H61.5063V73.0984H58.5529V70.8033Z" fill="#1A1918"/>
  <path d="M69.9911 45.321H72.9165V56.6829H69.9911V45.321Z" fill="#1A1918"/>
  <rect x="36.908" y="38.2586" width="6.03157" height="9.83259" fill="#1A1918"/>
  <rect x="39.8123" y="40.4933" width="3.12837" height="4.02338" fill="#FFFBF6"/>
  <rect x="61.481" y="40.4933" width="3.12837" height="4.02338" fill="#FFFBF6"/>
  <rect width="2.23614" height="2.68226" transform="matrix(-1 0 0 1 47.4075 49.4319)" fill="#1A1918"/>
  <rect width="2.01252" height="2.45873" transform="matrix(-1 0 0 1 57.4597 49.6556)" fill="#1A1918"/>
  <rect width="8.14561" height="2.08414" transform="matrix(-1 0 0 1 44.3838 75.6945)" fill="#B17C31"/>
  <rect width="7.02167" height="2.00867" transform="matrix(-1 0 0 1 62.384 75.6802)" fill="#B17C31"/>
  <rect width="8.19195" height="2.29562" transform="matrix(-1 0 0 1 55.3633 52.1558)" fill="#1A1918"/>
  <rect width="8.19195" height="2.58258" transform="matrix(-1 0 0 1 44.2449 73.0983)" fill="#1A1918"/>
  <rect width="7.89938" height="2.58257" transform="matrix(-1 0 0 1 44.2449 77.6886)" fill="#1A1918"/>
  <rect width="7.60681" height="2.58257" transform="matrix(-1 0 0 1 62.9697 77.6886)" fill="#1A1918"/>
  <path fill-rule="evenodd" clip-rule="evenodd" d="M55.7193 18.9215H39.1228V21.1724H35.7592V23.755H39.1245V25.9394H39.1248V28.2787H49.2446V25.9394H53.6971V23.755H58.5796V21.1724H55.7193V18.9215Z" fill="#EBBA77"/>
  <path fill-rule="evenodd" clip-rule="evenodd" d="M33.1255 23.7543H35.7602V36.6641H33.1284V59.0222H35.8838V61.3612H43.9799V63.7H46.8131V66.0395H49.6477V68.2208H58.5804V65.9258H61.5062L61.5062 63.6313H61.506V61.3357H69.9905L69.9905 63.6313H67.065V66.2132H64.4318V68.5084H61.5063V70.8034H58.5811V73.0985H38.6864V70.8034H35.7602V68.3793H33.0513V66.0398H33.0502V65.9264H30.2009V59.0222H27.3834V56.6834H24.5499V38.9722H27.3834V30.6174H30.2009V26.0495H33.1255V23.7543Z" fill="#B17C31"/>
  <rect width="2.34289" height="7.17211" transform="matrix(-1 0 0 1 38.1003 73.0983)" fill="#1A1918"/>
  <rect width="2.34289" height="6.88522" transform="matrix(-1 0 0 1 44.8303 73.3854)" fill="#1A1918"/>
  <rect width="2.05002" height="7.17211" transform="matrix(-1 0 0 1 62.9697 73.0983)" fill="#1A1918"/>
  <rect width="2.05003" height="6.88522" transform="matrix(-1 0 0 1 57.4111 73.3854)" fill="#1A1918"/>
  <rect width="7.60681" height="2.58258" transform="matrix(-1 0 0 1 62.9697 73.0983)" fill="#1A1918"/>
  <rect x="64.6086" y="35.8005" width="2.90587" height="6.48057" fill="#D59F52"/>
  <rect x="72.2036" y="45.4095" width="3.79765" height="13.1846" fill="#1A1918"/>
  <rect x="67.5127" y="35.8005" width="2.45975" height="6.48057" fill="#1A1918"/>
  <rect x="69.9697" y="45.4095" width="2.90587" height="13.1846" fill="#D59F52"/>
  <path fill-rule="evenodd" clip-rule="evenodd" d="M56.3124 2.40717H54.0363H54.0342H51.9879H51.9859H50.3945H50.3923H46.7533H46.753L43.1114 2.40717H42.8842H33.5525V23.5806H42.8842V25.4019H46.7533V23.1252H50.3923H50.3945H51.9879V21.3039H54.0363V19.7102H56.3124V16.9783H58.1329V14.9298H60.1816V12.6525H58.1329V3.09035H56.3124V2.40717ZM67.9191 20.3932H60.1809V25.9599H60.1605V30.058H58.1118V31.5491H57.9053V32.0044H52.2154V36.1024H50.6228H50.6202H29.4566V38.3797H50.6228V38.152H52.6706V36.1035H58.1329V34.5096H61.7744V34.0541H63.8228V31.891H64.0502V29.9554H67.9191V27.5536H69.949V22.5449H67.9191V20.3932ZM23.2902 32.1072H25.3406V34.1567H23.2902V32.1072Z" fill="#0846C4"/>
  <path fill-rule="evenodd" clip-rule="evenodd" d="M44.7048 2.40717H39.2425V4.45636L33.553 4.45636V6.50519H29.4561V8.55426H29.4559V10.8315H33.3225V12.8806H35.599V15.1574H37.6494V12.8801H35.6007V10.8315H37.1941V8.55472H40.6082V6.50589L42.8843 6.50589V4.45669H44.7048V2.40717ZM49.4821 12.6525H51.5308V10.3756H53.5784V8.09905H56.0824V4.45636H58.1328V10.3758H56.0844V10.3763H53.5812V12.6529H51.5325V14.9298H49.4821V12.6525ZM40.8355 15.1567H49.4841V17.434H40.8355V15.1567Z" fill="#1858DC"/>
  <path fill-rule="evenodd" clip-rule="evenodd" d="M27.406 8.55438H29.4563V10.6035H31.5022H31.7324H33.5526V12.6525H35.601V15.1567H40.8171V23.1252H42.8844V25.1747H40.8171V25.4019H35.5824V22.4423H33.5506V20.8487H31.7324H31.5022H29.4542V14.4738H27.406V8.55438ZM58.1118 25.9599H60.1605V23.9109H62.2109V25.9604H60.1621V28.0089V28.0094V30.0585H58.114V32.1077H56.0662V34.1567H52.652V36.2056H35.3734V38.3797H29.4559V36.5584H26.0415V34.5092H23.3094V32.2321H23.3091V26.3126H25.3578V24.2636H27.4075V22.2146H31.5042V30.0581H33.5343V32.0043H36.9668V34.156H50.6039V32.1072H54.0173V30.0581H56.0655V28.0089H58.1118V25.9599ZM67.8986 21.987H69.949V24.0365H67.8986V21.987ZM67.9008 26.085H65.8504V28.1341H63.8209V30.1829H61.7724V32.2324H63.8228V30.1836H65.8713V28.1345H67.9008V26.085Z" fill="#183A7E"/>
  <path fill-rule="evenodd" clip-rule="evenodd" d="M58.1304 14.929H60.1808V16.9786H58.1323V19.0276H56.0842V21.0767H54.0361V23.1257H51.9874V25.1747H46.7527V23.1252H51.9857V21.0761H54.0338V19.0271H56.082V16.9781H58.1304V14.929ZM58.1115 23.911H60.1619V25.9605H58.1138V28.0095H56.0656V30.0584H54.0172V32.1075H50.6031V34.1566H36.9475V32.2326H33.325V30.183H36.9665V32.1071H50.6023V30.058H54.0153V28.0089H56.0634V25.96H58.1115V23.911ZM46.7524 25.1742H35.6005V22.4421H33.5524V20.3931H29.4557V22.4421H27.4054V28.3616H29.2257V28.362H31.5015V30.1836H33.325V28.3618H31.5039V26.5402H29.4558V22.4426H33.5501V25.1748H35.6004V27.2238H46.7524V25.1742ZM62.2295 18.3441H60.1791V24.0359H62.2295V18.3441Z" fill="#B67800"/>
  <path d="M60.1805 4.45617H58.1322V12.88H60.1805V4.45617Z" fill="#1A1918"/>
  <path d="M27.4071 8.55425H25.3587V14.246H27.4071V8.55425Z" fill="#1A1918"/>
  <path d="M58.1322 2.40713H56.0838V4.45617H58.1322V2.40713Z" fill="#1A1918"/>
  <path d="M69.967 20.3931H67.9187V22.4422H69.967V20.3931Z" fill="#1A1918"/>
  <path d="M67.9187 27.9175H65.8704V29.9553H67.9187V27.9175Z" fill="#1A1918"/>
  <path d="M65.8704 29.9553H63.822V31.9017H65.8704V29.9553Z" fill="#1A1918"/>
  <path d="M63.822 31.9017H61.7925L61.7737 34.0646H63.822V31.9017Z" fill="#1A1918"/>
  <path d="M56.2927 36.0913H50.6216V38.2653H56.2927V36.0913Z" fill="#1A1918"/>
  <path d="M61.7737 34.0646H56.2927V36.0913H61.7737V34.0646Z" fill="#1A1918"/>
  <path d="M69.967 23.8194H67.9187V27.9175H69.967V23.8194Z" fill="#1A1918"/>
  <path d="M67.9187 22.4422H69.967V23.8194H67.9187V22.4422Z" fill="#1A1918"/>
  <path d="M26.0415 34.0646H23.3104V36.1136H26.0415V34.0646Z" fill="#1A1918"/>
  <path d="M25.3587 24.2747H23.3104V26.3238H25.3587V24.2747Z" fill="#1A1918"/>
  <path d="M27.4071 22.2257H25.3587V24.2747H27.4071V22.2257Z" fill="#1A1918"/>
  <path d="M23.3104 26.3238H21.2621V34.0646H23.3104V26.3238Z" fill="#1A1918"/>
  <path d="M29.4554 20.1767H27.4071V22.2257H29.4554V20.1767Z" fill="#1A1918"/>
  <path d="M29.4554 36.1136H26.0415V38.2653H29.4554V36.1136Z" fill="#1A1918"/>
  <path d="M62.2289 12.88H60.1805V18.3441H62.2289V12.88Z" fill="#1A1918"/>
  <path d="M29.4554 6.50521H27.4071V8.55425H29.4554V6.50521Z" fill="#1A1918"/>
  <path d="M29.4554 14.246H27.4071V20.1767H29.4554V14.246Z" fill="#1A1918"/>
  <path d="M39.2419 2.40713H33.5521V4.45617H39.2419V2.40713Z" fill="#1A1918"/>
  <path d="M50.6216 38.2653H29.4554V40.4282H50.6216V38.2653Z" fill="#1A1918"/>
  <path d="M33.5521 4.45617H29.4554V6.50521H33.5521V4.45617Z" fill="#1A1918"/>
  <path d="M56.0838 0.358093L39.2419 0.358093V2.40713L56.0838 2.40713V0.358093Z" fill="#1A1918"/>
  <path d="M67.9187 18.3441H62.2289V20.3931H67.9187V18.3441Z" fill="#1A1918"/>
  <path fill-rule="evenodd" clip-rule="evenodd" d="M58.1303 16.9781H60.1807V24.0359H58.1303V21.0767H56.0838V23.1257H54.0357V25.1749H51.9853V23.1254H54.0335V21.0761H56.0819V19.0272H58.1303V16.9781ZM48.8005 25.1743H46.7501V27.2238H48.8005V25.1743ZM36.9642 30.1831H39.0146V32.2327H36.9642V30.1831ZM33.3222 28.3618H31.5019V26.5414H29.4535V22.4424H31.5019H31.5039H33.5523V25.1743H35.6004V30.183H33.3222V28.3618ZM56.0633 23.911H58.1137V25.9606H56.0656V28.0096H54.0168V30.0586H50.602V28.0091H54.0152V25.9601H56.0633V23.911Z" fill="#E1A818"/>
  <path fill-rule="evenodd" clip-rule="evenodd" d="M58.1323 21.0761H56.0819V23.1251H54.0337V25.1742H48.801V27.2232H39.0146V32.232H50.6218V28.1346H54.0357V26.0856H56.0841V24.0366H58.1323V21.0761ZM39.0145 27.2232H35.5997V30.1836H39.0145V27.2232Z" fill="#FFBF1E"/>
  <path fill-rule="evenodd" clip-rule="evenodd" d="M44.9321 27.2234H42.8817V28.1343H40.8355V30.1829H39.0147V28.1343H36.9644V30.1838H39.0128V32.2324H41.0632V30.1838H41.0632V32.2324H46.5255V30.1838H48.8013V28.1343H44.9321V27.2234Z" fill="#FFD600"/>
  <rect width="2.05038" height="2.04953" transform="matrix(-1 0 0 1 44.9319 28.1341)" fill="#FFEA30"/>
  <rect width="2.05038" height="2.04953" transform="matrix(-1 0 0 1 42.8838 30.1829)" fill="#FFEA30"/>
  <rect width="1.82353" height="2.04953" transform="matrix(-1 0 0 1 40.8357 28.1341)" fill="#FFEA30"/>
  <path fill-rule="evenodd" clip-rule="evenodd" d="M58.1303 12.8801H60.1807V14.9296H58.1303V12.8801ZM29.4558 20.3937H31.5042V18.3442H29.4538V20.3932H27.4054V22.4428H29.4558V20.3937ZM27.4076 24.2637H25.3572V26.3132H27.4076V24.2637ZM60.1788 16.523H62.2292V18.5718H64.2776V22.6709H62.2272V18.5725H60.1788V16.523Z" fill="#553800"/>
  <rect width="1.33709" height="1.33709" transform="matrix(0.706674 0.707539 -0.706674 0.707539 74.8208 26.8119)" fill="#1858DC"/>
  <rect width="1.3371" height="1.3371" transform="matrix(-0.706988 0.707226 0.706988 0.707226 94.5574 77.85)" fill="#1858DC"/>
  <rect width="2.55551" height="2.55551" transform="matrix(0.706986 0.707228 -0.706986 0.707228 79.0337 28.6849)" fill="#1858DC"/>
  <rect width="2.55551" height="2.55551" transform="matrix(-0.706986 0.707228 0.706986 0.707228 90.5015 75.5088)" fill="#1858DC"/>
  <rect width="4.92125" height="4.92125" transform="matrix(-0.706986 0.707228 0.706986 0.707228 100.834 68.7194)" fill="#1858DC"/>
  <path d="M74.7939 74.7325L97.126 68.763L66.2158 55.2064L42.7454 59.197L74.7939 74.7325Z" fill="#4E4C49"/>
  <path d="M73.0736 35.5857L93.2643 43.6371L93.0696 45.6509L72.8929 37.4556L73.0736 35.5857Z" fill="#6A6966"/>
  <path d="M72.8888 37.4815L93.0656 45.6768L92.8848 47.5467L72.6942 39.4953L72.8888 37.4815Z" fill="#242321"/>
  <path fill-rule="evenodd" clip-rule="evenodd" d="M95.4153 41.8979L95.2 44.1231L99.3472 45.7877L97.316 66.7886L97.317 66.789L97.1032 69L97.0955 68.9966L97.1037 69.0009L78.2268 73.8485L78.284 73.8758L74.7937 74.7335L73.985 74.3415L72.2904 73.5303L72.3043 73.5268L42.7448 59.1979L42.7467 59.1976L42.7466 59.1975L65.6868 54.9643L67.7794 33.3284L71.1779 34.7802L71.3931 32.555L95.4153 41.8979ZM48.6946 59.7612L67.7977 56.2361L94.5739 67.8983L75.7348 72.6598L48.6946 59.7612ZM93.1786 65.0227L95.2473 65.9056L97.092 46.8329L95.0117 46.0702L93.1786 65.0227ZM67.6155 54.1124L69.2409 54.8061L70.9761 36.8664L69.3496 36.1835L67.6155 54.1124ZM93.0928 43.6385L91.4517 60.6056L71.6709 51.9538L73.2313 35.8212L93.0928 43.6385ZM71.3211 55.5698L91.1154 64.0825L91.2634 62.5527L71.4826 53.9009L71.3211 55.5698Z" fill="#242321"/>
  <path d="M73.0733 35.5857L93.2657 43.6223L91.2836 64.1315L71.127 55.7244L73.0733 35.5857Z" fill="#8F8D89"/>
  <path d="M84.1639 51.0073L80.6648 49.2338L81.0927 50.2318L81.7117 51.9657L81.1235 52.6263L80.2756 53.2617L83.7976 54.7982L84.1639 51.0073Z" fill="#FFFBF6"/>
  <path d="M83.3539 48.5374L82.101 47.9379L82.0094 48.8856L83.2623 49.4851L83.3539 48.5374Z" fill="#FFFBF6"/>
  <path d="M97.1443 46.8687L91.3417 44.5272L89.5099 63.4816L95.2997 65.9544L97.1443 46.8687Z" fill="#8F8D89"/>
  <path d="M73.6455 37.7942L69.3443 36.1824L67.604 54.1892L71.8823 56.0381L73.6455 37.7942Z" fill="#8F8D89"/>
  <rect width="7.98673" height="2.76624" transform="matrix(-1 0 0 1 49.6326 63.1708)" fill="#1A1918"/>
  <rect width="2.15241" height="7.68217" transform="matrix(-1 0 0 1 49.6326 58.2539)" fill="#1A1918"/>
  <rect width="2.15241" height="7.37488" transform="matrix(-1 0 0 1 43.7954 58.5612)" fill="#1A1918"/>
  <rect width="7.98673" height="2.76624" transform="matrix(-1 0 0 1 49.6326 58.2539)" fill="#1A1918"/>
  <rect width="3.82386" height="2.55072" transform="matrix(-1 0 0 1 47.5491 60.6652)" fill="#D59F52"/>
</svg>