<svg width="374" height="73" viewBox="0 0 374 73" fill="none" xmlns="http://www.w3.org/2000/svg">
<path d="M366.826 67.7538V65.3181L7.01964 65.3181V67.7538H366.826Z" fill="#DFDDDA"/>
<path d="M4.67976 65.3181H7.01964V62.8824H4.67976V65.3181Z" fill="#DFDDDA"/>
<path d="M2.33988 62.8824H4.67976V60.4466H2.33988V62.8824Z" fill="#DFDDDA"/>
<path d="M366.826 65.3181L369.166 65.3181V62.8824H366.826V65.3181Z" fill="#DFDDDA"/>
<path d="M369.166 62.8824H371.506V60.4466H369.166V62.8824Z" fill="#DFDDDA"/>
<path d="M366.826 70.1896V67.7538H7.01964V70.1896H366.826Z" fill="#6A6967"/>
<path d="M4.67976 67.7538H7.01964V65.3181H4.67976V67.7538Z" fill="#6A6967"/>
<path d="M2.33988 65.3181H4.67976V62.8824H2.33988V65.3181Z" fill="#6A6967"/>
<path d="M366.826 67.7538H369.166V65.3181L366.826 65.3181V67.7538Z" fill="#6A6967"/>
<path d="M369.166 65.3181H371.506V62.8824H369.166V65.3181Z" fill="#6A6967"/>
<path d="M366.826 72.6253V70.1896H7.01964L7.01964 72.6253H366.826Z" fill="#1A1918"/>
<path d="M373.846 6.90124H371.506V65.3181H373.846V6.90124Z" fill="#1A1918"/>
<path d="M2.86102e-06 6.90124H2.33988L2.33988 65.3181H0L2.86102e-06 6.90124Z" fill="#1A1918"/>
<path d="M369.166 6.90124H371.506V4.46551H369.166V6.90124Z" fill="#1A1918"/>
<path d="M369.166 67.7538H371.506V65.3181H369.166V67.7538Z" fill="#1A1918"/>
<path d="M4.67976 67.7538H2.33988L2.33988 65.3181H4.67976V67.7538Z" fill="#1A1918"/>
<path d="M366.826 70.1896H369.166V67.7538H366.826V70.1896Z" fill="#1A1918"/>
<path d="M7.01964 70.1896H4.67976L4.67976 67.7538H7.01964V70.1896Z" fill="#1A1918"/>
<path d="M2.33988 6.90124H4.67976V4.46551H2.33988L2.33988 6.90124Z" fill="#1A1918"/>
<path d="M7.01964 60.8526H9.35952V58.4169H7.01964V60.8526Z" fill="#1A1918"/>
<path d="M364.486 0V2.43573H9.35952V0H364.486Z" fill="#1A1918"/>
<path d="M7.01964 4.87146V2.43573H9.35952V4.87146H7.01964Z" fill="#1A1918"/>
<path d="M7.01964 4.87146V58.4169H4.67976V4.87146H7.01964Z" fill="#1A1918"/>
<path d="M366.826 4.87146V2.43573H364.486V4.87146H366.826Z" fill="#1A1918"/>
<path d="M366.826 58.4169H369.166V4.87146H366.826V58.4169Z" fill="#1A1918"/>
<path d="M364.486 60.8526V58.4169H366.826V60.8526H364.486Z" fill="#1A1918"/>
<path d="M364.486 60.8526H9.35952V63.2883H364.486V60.8526Z" fill="#1A1918"/>
<path d="M2.33988 6.90124H4.67976L4.67976 60.4466H2.33988L2.33988 6.90124Z" fill="#AAA9A6"/>
<path d="M371.506 6.90124H369.166V60.4466H371.506V6.90124Z" fill="#AAA9A6"/>
<path d="M4.67976 58.4169H7.01964V60.8526H4.67976V58.4169Z" fill="#AAA9A6"/>
<path d="M369.166 58.4169H366.826V60.8526H369.166V58.4169Z" fill="#AAA9A6"/>
<path d="M7.01964 63.2883H366.826V65.3181L7.01964 65.3181V63.2883Z" fill="#AAA9A6"/>
<path d="M4.67976 60.8526H9.35952V63.2883H4.67976V60.8526Z" fill="#AAA9A6"/>
<path d="M369.166 60.8526H364.486V63.2883H369.166V60.8526Z" fill="#AAA9A6"/>
<path d="M364.486 60.8526V58.4169H9.35952V60.8526H364.486Z" fill="#FFDA58"/>
<path d="M7.01964 58.4169H9.35952V55.9811H7.01964V58.4169Z" fill="#FFDA58"/>
<path d="M364.486 58.4169H366.826V55.9811H364.486V58.4169Z" fill="#FFDA58"/>
<path d="M364.486 2.43573V4.87146H9.35952V2.43573H364.486Z" fill="#FFDA58"/>
<path d="M7.01964 4.87146H9.35952V7.3072H7.01964V4.87146Z" fill="#FFDA58"/>
<path d="M364.486 4.87146H366.826V7.3072H364.486V4.87146Z" fill="#FFDA58"/>
<path d="M7.01964 7.3072H9.35952V9.74292H7.01964V7.3072Z" fill="#FFFCF4"/>
<path d="M7.01964 55.9811H9.35952V53.5454H7.01964V55.9811Z" fill="#FFFCF4"/>
<path d="M366.826 7.3072H364.486V9.74292H366.826V7.3072Z" fill="#FFFCF4"/>
<path d="M366.826 55.9811H364.486V53.5454H366.826V55.9811Z" fill="#FFFCF4"/>
<path d="M9.35952 4.87146H11.6994V7.30719L9.35952 7.3072V4.87146Z" fill="#FFFCF4"/>
<path d="M9.35952 58.4169H11.6994V55.9811H9.35952V58.4169Z" fill="#FFFCF4"/>
<path d="M364.486 4.87146H362.146V7.30719L364.486 7.3072V4.87146Z" fill="#FFFCF4"/>
<path d="M364.486 58.4169H362.146V55.9811H364.486V58.4169Z" fill="#FFFCF4"/>
<path d="M9.35952 9.74292H7.01964V53.5454H9.35952V55.9811H11.6994V58.4169H362.146V55.9811H364.486V53.5454H366.826V9.74292H364.486V7.3072L362.146 7.30719V4.87146H11.6994V7.30719L9.35952 7.3072V9.74292Z" fill="#FFA000"/>
</svg>
