<svg xmlns="http://www.w3.org/2000/svg" width="147" height="213" viewBox="0 0 147 213" fill="none">
  <path fill-rule="evenodd" clip-rule="evenodd" d="M32.2842 62.2378H108.148V68.3433H115.544V181.292H108.148V181.359H32.2842V175.136H24.7447V68.4603H32.2842V62.2378ZM17.2023 80.9062H24.7421V156.468H17.2023V80.9062ZM17.2015 103.131H9.66167V150.246H17.2015V103.131ZM130.337 169.081V150.002H138.122V119.475H130.337V104.212H122.551V80.554H115.544V175.186H122.551L122.551 169.081H130.337ZM47.363 187.582V193.804H100.145V187.582H47.363ZM39.824 187.581V181.359H107.687V187.581L39.824 187.581Z" fill="#D59F52"/>
  <rect x="99.965" y="102.011" width="16.0505" height="26.1564" fill="#1A1918"/>
  <path d="M92.3617 43.1589H48.1971V49.3817H92.3617V43.1589Z" fill="#1A1918"/>
  <path d="M99.9021 193.502H47.1199V199.616H99.9021V193.502Z" fill="#1A1918"/>
  <path d="M39.2486 55.3696H32.2416V62.238H39.5796L39.2486 55.3696Z" fill="#1A1918"/>
  <path d="M99.9021 55.6044H107.442V62.238H99.9021V55.6044Z" fill="#1A1918"/>
  <path d="M92.3617 49.3817H99.9021V55.6044H92.3617V49.3817Z" fill="#1A1918"/>
  <path d="M39.2486 49.3817H48.1971V55.6044L39.2486 55.3696V49.3817Z" fill="#1A1918"/>
  <path d="M32.2416 62.238H24.499V68.3433H32.2416V62.238Z" fill="#1A1918"/>
  <path d="M107.442 62.238H114.983V68.3433H107.442V62.238Z" fill="#1A1918"/>
  <path d="M24.499 68.3433H16.9586V80.4953H24.499V68.3433Z" fill="#1A1918"/>
  <path d="M16.9586 80.4953H9.41835V102.719H16.9586V80.4953Z" fill="#1A1918"/>
  <path d="M114.983 68.3433H122.523V80.554H114.983V68.3433Z" fill="#1A1918"/>
  <path d="M9.41835 102.719H1.87804V149.834H9.41835V102.719Z" fill="#1A1918"/>
  <path d="M130.339 80.554H122.523V104.497H130.339V80.554Z" fill="#1A1918"/>
  <path d="M24.499 156.057H16.9586V174.423H24.499V156.057Z" fill="#1A1918"/>
  <path d="M130.339 149.834H138.125V168.318H130.339V149.834Z" fill="#1A1918"/>
  <path d="M130.339 104.497H138.125V119.61H130.339V104.497Z" fill="#1A1918"/>
  <path d="M32.0393 174.423H24.499V180.948H32.0393V174.423Z" fill="#1A1918"/>
  <path d="M16.9586 149.834H9.41835V156.057H16.9586V149.834Z" fill="#1A1918"/>
  <path d="M115.547 175.186H122.523V181.292H115.547V175.186Z" fill="#1A1918"/>
  <path d="M122.523 168.318H130.339V175.186H122.523V168.318Z" fill="#1A1918"/>
  <path d="M39.2486 180.948H32.0393V187.397H39.2486V180.948Z" fill="#1A1918"/>
  <path d="M107.761 181.292H115.547V187.397H107.761V181.292Z" fill="#1A1918"/>
  <path d="M47.1199 187.397H39.2486V193.502H47.1199V187.397Z" fill="#1A1918"/>
  <path d="M99.9021 187.397H107.761V193.502H99.9021V187.397Z" fill="#1A1918"/>
  <path d="M130.34 119.61H138.125V149.834H130.34V119.61Z" fill="#1A1918"/>
  <rect x="42.3021" y="100.822" width="16.0505" height="26.1564" fill="#1A1918"/>
  <rect x="50.0303" y="106.767" width="8.3225" height="10.7004" fill="#FFFBF6"/>
  <rect x="107.693" y="106.767" width="8.3225" height="10.7004" fill="#FFFBF6"/>
  <rect width="5.94464" height="7.13357" transform="matrix(-1 0 0 1 70.242 130.545)" fill="#1A1918"/>
  <rect width="5.35018" height="6.53911" transform="matrix(-1 0 0 1 96.9928 131.14)" fill="#1A1918"/>
  <rect width="21.6762" height="5.54288" transform="matrix(-1 0 0 1 62.1959 200.408)" fill="#B17C31"/>
  <rect width="18.6853" height="5.34214" transform="matrix(-1 0 0 1 110.097 200.37)" fill="#B17C31"/>
  <rect width="21.7995" height="6.10531" transform="matrix(-1 0 0 1 91.4128 137.791)" fill="#1A1918"/>
  <rect width="21.7995" height="6.86847" transform="matrix(-1 0 0 1 61.8265 193.502)" fill="#1A1918"/>
  <rect width="21.0209" height="6.86847" transform="matrix(-1 0 0 1 61.8265 205.713)" fill="#1A1918"/>
  <rect width="20.2424" height="6.86847" transform="matrix(-1 0 0 1 111.655 205.713)" fill="#1A1918"/>
  <path fill-rule="evenodd" clip-rule="evenodd" d="M92.36 49.3823H48.1953V55.37H39.2449V62.2385H48.1991V68.0496H86.9778V62.2385H99.9721V55.37H92.36V49.3823ZM75.129 68.0498H48.1993V74.2726H75.129V68.0498Z" fill="#EBBA77"/>
  <path fill-rule="evenodd" clip-rule="evenodd" d="M32.2408 62.2378H39.2478V96.5802H32.2408V62.2378ZM24.4532 68.3436H32.2388V156.059H39.5757V162.28H61.1198V168.503H68.6591V174.725H32.0348V174.423H24.4532V156.057H16.9553V80.4953H24.4532V68.3436ZM16.9544 102.72H9.41464V149.835H16.9544V102.72ZM76.2011 174.726V180.529H99.9729V174.424H107.759V168.318H122.551V175.187H115.544V181.292H107.758V187.397H39.2458V180.948H32.0364L32.0364 174.726H76.2011ZM99.9743 187.397V193.503H47.0327L47.0327 187.397H99.9743ZM130.337 168.318L130.337 162.213H107.759V168.318H130.337Z" fill="#B17C31"/>
  <rect width="6.22842" height="19.0791" transform="matrix(-1 0 0 1 45.4763 193.502)" fill="#1A1918"/>
  <rect width="6.22842" height="18.3159" transform="matrix(-1 0 0 1 63.3849 194.266)" fill="#1A1918"/>
  <rect width="5.44987" height="19.0791" transform="matrix(-1 0 0 1 111.655 193.502)" fill="#1A1918"/>
  <rect width="5.44987" height="18.3159" transform="matrix(-1 0 0 1 96.8628 194.266)" fill="#1A1918"/>
  <rect width="20.2424" height="6.86847" transform="matrix(-1 0 0 1 111.655 193.502)" fill="#1A1918"/>
  <rect x="116.016" y="94.283" width="7.72804" height="17.2395" fill="#D59F52"/>
  <rect x="136.228" y="119.845" width="10.1059" height="35.0734" fill="#1A1918"/>
  <rect x="123.744" y="94.283" width="6.53911" height="17.2395" fill="#1A1918"/>
  <rect x="130.283" y="119.845" width="7.72804" height="35.0734" fill="#D59F52"/>
  <path fill-rule="evenodd" clip-rule="evenodd" d="M93.9362 5.45093H87.8797H82.4289L78.1894 5.45093H68.4991H58.8088H58.2031L33.3716 5.45093V61.776H58.2031V66.6211H68.4991V60.5647H78.1894H82.4289V55.7195H87.8797V51.48H93.9362V44.2122H98.7814V38.7614H104.232V32.705H98.7814V7.26786H93.9362V5.45093ZM124.824 53.2969H104.232V68.1055H104.182V79.0072H98.7314V82.9736H98.1757V84.1849H83.0346V95.0865L78.7951 95.0865H22.47V101.143H78.7951V100.537H84.2459V95.0865L98.7814 95.0865V90.847H108.472V89.6357H113.923V83.882H114.528V78.734L124.824 78.7341V72.3451H130.225V59.0209H124.824V53.2969ZM6.0676 84.458H11.5184V89.9088H6.0676V84.458Z" fill="#0846C4"/>
  <path fill-rule="evenodd" clip-rule="evenodd" d="M63.0483 5.45093L48.5128 5.45093V10.9017H33.3716V16.3525L22.47 16.3526V21.8034V27.8598L32.766 27.8598V33.3106H38.8224V27.8598L43.062 27.8598V21.8034H52.1466V16.3526L58.2031 16.3525V10.9017H63.0483V5.45093ZM38.8224 33.3106V39.3671H44.2732V33.3106L38.8224 33.3106ZM75.7668 32.705H81.2176V26.6485H86.6684V20.5921H93.3305V10.9017H98.7814V26.6485H93.3305H86.6684V32.705L81.2176 32.705V38.7614H75.7668V32.705ZM52.7523 39.3671H75.7668V45.4235H52.7523V39.3671Z" fill="#1858DC"/>
  <path fill-rule="evenodd" clip-rule="evenodd" d="M17.0192 21.8032H22.47V27.254H27.9208H28.5265H33.3716L33.3716 32.7048H38.8224V39.3669H52.7023V60.5645H58.2031V66.0154H52.7023V66.621H38.7725V58.7476H33.3716L33.3716 54.5081H28.5265H27.9208H22.47V37.55H17.0192V21.8032ZM98.7314 68.1054H104.182V62.6546H109.633V68.1054H104.182V73.5562V79.007H98.7314V84.4578L93.2806 84.4578V89.9086H84.1959V95.3595H38.2168V101.143H22.47V96.2976H13.3853V90.8468H6.11758V84.7904V69.0436H11.5684V63.5928H17.0192V58.142H27.9208V79.007H33.3217V84.1847H42.4563V89.9086H78.7451V84.4578L87.8298 84.4578V79.007H93.2806V73.5562L98.7314 73.5562V68.1054ZM124.774 57.5363H130.225V62.9871H124.774V57.5363ZM124.774 68.4379H119.323V73.8887H113.923V79.3396H119.373V73.8887H124.774V68.4379ZM113.923 79.3396H108.472V84.7904H113.923V79.3396Z" fill="#183A7E"/>
  <path fill-rule="evenodd" clip-rule="evenodd" d="M98.7814 38.7615H104.232V44.2123H98.7814L98.7814 49.6631H93.3306V55.1139H87.8797V60.5647H82.4289V66.0155H68.4991V71.4663H38.8224V66.0155H33.3716V58.7478H22.47V69.6494H27.9208L27.9208 74.4946H32.766V79.3397H42.4563V84.458L78.7451 84.458V79.0072H87.8298V73.5564H93.2806V68.1056H98.7314V62.6548H104.182V68.1056H98.7314L98.7314 73.5564H93.2806V79.0072H87.8298V84.458H78.7451L78.7451 89.9088H42.4063V84.7905H32.766V79.3397H27.9208V74.4946H22.47H21.8644H17.0192V58.7478H22.47L22.47 53.297H33.3716L33.3716 58.7478H38.8224V66.0155H68.4991V60.5647L82.4289 60.5647V55.1139H87.8797V49.6631H93.3306V44.2123H98.7814V38.7615ZM109.683 47.8462H104.232V62.9873H109.683V47.8462Z" fill="#B67800"/>
  <path d="M104.232 10.9016H98.7813V33.3105H104.232V10.9016Z" fill="#1A1918"/>
  <path d="M17.0192 21.8032H11.5684V36.9444H17.0192V21.8032Z" fill="#1A1918"/>
  <path d="M98.7813 5.45081H93.3305V10.9016L98.7813 10.9016V5.45081Z" fill="#1A1918"/>
  <path d="M130.275 53.2968H124.824V58.7476H130.275V53.2968Z" fill="#1A1918"/>
  <path d="M124.824 73.3128H119.373V78.7339H124.824V73.3128Z" fill="#1A1918"/>
  <path d="M119.373 78.7339H113.922V83.9116H119.373V78.7339Z" fill="#1A1918"/>
  <path d="M113.922 83.9116H108.522L108.472 89.6653H113.922V83.9116Z" fill="#1A1918"/>
  <path d="M93.8862 95.0566H78.795V100.84H93.8862V95.0566Z" fill="#1A1918"/>
  <path d="M108.472 89.6653H93.8862V95.0566H108.472V89.6653Z" fill="#1A1918"/>
  <path d="M130.275 62.4112H124.824V73.3128H130.275V62.4112Z" fill="#1A1918"/>
  <path d="M124.824 58.7476H130.275V62.4112H124.824V58.7476Z" fill="#1A1918"/>
  <path d="M13.3853 89.6653H6.11756V95.1161H13.3853V89.6653Z" fill="#1A1918"/>
  <path d="M11.5684 63.6225H6.11756V69.0733H11.5684V63.6225Z" fill="#1A1918"/>
  <path d="M17.0192 58.1717H11.5684V63.6225H17.0192V58.1717Z" fill="#1A1918"/>
  <path d="M6.11756 69.0733H0.666748V89.6653H6.11756V69.0733Z" fill="#1A1918"/>
  <path d="M22.47 52.7209H17.0192V58.1717H22.47V52.7209Z" fill="#1A1918"/>
  <path d="M22.47 95.1161H13.3853V100.84H22.47V95.1161Z" fill="#1A1918"/>
  <path d="M109.683 33.3105H104.232V47.846H109.683V33.3105Z" fill="#1A1918"/>
  <path d="M22.47 16.3524H17.0192V21.8032H22.47V16.3524Z" fill="#1A1918"/>
  <path d="M22.47 36.9444H17.0192V52.7209H22.47V36.9444Z" fill="#1A1918"/>
  <path d="M48.5128 5.45081H33.3716V10.9016L48.5128 10.9016V5.45081Z" fill="#1A1918"/>
  <path d="M78.795 100.84H22.47V106.594H78.795V100.84Z" fill="#1A1918"/>
  <path d="M33.3716 10.9016H22.47V16.3524H33.3716V10.9016Z" fill="#1A1918"/>
  <path d="M93.3305 0L48.5128 0V5.45081L93.3305 5.45081V0Z" fill="#1A1918"/>
  <path d="M124.824 47.846H109.683V53.2968H124.824V47.846Z" fill="#1A1918"/>
  <path fill-rule="evenodd" clip-rule="evenodd" d="M98.7814 44.2122H104.232V62.9872H98.7814V44.2122ZM93.3305 49.663H98.7813V55.1138H93.3305V60.5646H87.8797V66.0154H82.4289V60.5646H87.8797V55.1138H93.3305V49.663ZM73.9499 66.0154H68.499V71.4662H73.9499V66.0154ZM42.4563 79.3396H47.9071V84.7904H42.4563V79.3396ZM32.7659 74.4945H27.9208V69.6493H22.47V58.7477H27.9208H33.3716V66.0154H38.8224V79.3396H32.7659V74.4945ZM93.2805 62.6547H98.7313V68.1055H93.2805V73.5563H87.8297V79.0071H78.745V73.5563H87.8297V68.1055H93.2805V62.6547Z" fill="#E1A818"/>
  <path fill-rule="evenodd" clip-rule="evenodd" d="M98.7814 55.1138H93.3305V62.9872H98.7814V55.1138ZM93.3305 60.5646H87.8797L87.8797 66.0154H73.9499V71.4662H47.9071H38.8224V79.3396H47.9071V84.7904H78.795V73.8888H87.8797L87.8797 68.438H93.3305V60.5646Z" fill="#FFBF1E"/>
  <path fill-rule="evenodd" clip-rule="evenodd" d="M63.6539 71.4663H58.2031V73.8889H52.7523V79.3397H47.9071V84.7905H53.3579H67.8934V79.3397L73.9499 79.3397V73.8889H63.6539V71.4663ZM47.9071 79.3397V73.8889H42.4563V79.3397H47.9071Z" fill="#FFD600"/>
  <rect width="5.45081" height="5.45081" transform="matrix(-1 0 0 1 63.6539 73.8889)" fill="#FFEA30"/>
  <rect width="5.45081" height="5.45081" transform="matrix(-1 0 0 1 58.2031 79.3396)" fill="#FFEA30"/>
  <rect width="4.84517" height="5.45081" transform="matrix(-1 0 0 1 52.7523 73.8889)" fill="#FFEA30"/>
  <path fill-rule="evenodd" clip-rule="evenodd" d="M98.7814 33.3105H104.232V38.7614H98.7814V33.3105ZM17.0192 53.2969H22.47V47.846H27.9208V53.2969H22.47V58.7477H17.0192V53.2969ZM17.0192 63.5928H11.5684V69.0436H17.0192V63.5928ZM104.232 43.0009H109.683V48.4517L115.134 48.4517V59.3533H109.683V48.4517H104.232V43.0009Z" fill="#553800"/>
</svg>