<svg width="214" height="73" viewBox="0 0 214 73" fill="none" xmlns="http://www.w3.org/2000/svg">
<path d="M206.826 67.7538V65.3181L7.01964 65.3181V67.7538H206.826Z" fill="#DFDDDA"/>
<path d="M4.67976 65.3181H7.01964V62.8824H4.67976V65.3181Z" fill="#DFDDDA"/>
<path d="M2.33988 62.8824H4.67976V60.4466H2.33988V62.8824Z" fill="#DFDDDA"/>
<path d="M206.826 65.3181L209.166 65.3181V62.8824H206.826V65.3181Z" fill="#DFDDDA"/>
<path d="M209.166 62.8824H211.506V60.4466H209.166V62.8824Z" fill="#DFDDDA"/>
<path d="M206.826 70.1896V67.7538H7.01964V70.1896H206.826Z" fill="#6A6967"/>
<path d="M4.67976 67.7538H7.01964V65.3181H4.67976V67.7538Z" fill="#6A6967"/>
<path d="M2.33988 65.3181H4.67976V62.8824H2.33988V65.3181Z" fill="#6A6967"/>
<path d="M206.826 67.7538H209.166V65.3181L206.826 65.3181V67.7538Z" fill="#6A6967"/>
<path d="M209.166 65.3181H211.506V62.8824H209.166V65.3181Z" fill="#6A6967"/>
<path d="M206.826 72.6253V70.1896H7.01964L7.01964 72.6253H206.826Z" fill="#1A1918"/>
<path d="M213.846 6.90124H211.506V65.3181H213.846V6.90124Z" fill="#1A1918"/>
<path d="M2.38652e-06 6.90124H2.33988L2.33988 65.3181H0L2.38652e-06 6.90124Z" fill="#1A1918"/>
<path d="M209.166 6.90124H211.506V4.46551H209.166V6.90124Z" fill="#1A1918"/>
<path d="M209.166 67.7538H211.506V65.3181H209.166V67.7538Z" fill="#1A1918"/>
<path d="M4.67976 67.7538H2.33988L2.33988 65.3181H4.67976V67.7538Z" fill="#1A1918"/>
<path d="M206.826 70.1896H209.166V67.7538H206.826V70.1896Z" fill="#1A1918"/>
<path d="M7.01964 70.1896H4.67976L4.67976 67.7538H7.01964V70.1896Z" fill="#1A1918"/>
<path d="M2.33988 6.90124H4.67976V4.46551H2.33988L2.33988 6.90124Z" fill="#1A1918"/>
<path d="M7.01964 60.8526H9.35952V58.4169H7.01964V60.8526Z" fill="#1A1918"/>
<path d="M204.486 0V2.43573H9.35952V0H204.486Z" fill="#1A1918"/>
<path d="M7.01964 4.87146V2.43573H9.35952V4.87146H7.01964Z" fill="#1A1918"/>
<path d="M7.01964 4.87146V58.4169H4.67976V4.87146H7.01964Z" fill="#1A1918"/>
<path d="M206.826 4.87146V2.43573H204.486V4.87146H206.826Z" fill="#1A1918"/>
<path d="M206.826 58.4169H209.166V4.87146H206.826V58.4169Z" fill="#1A1918"/>
<path d="M204.486 60.8526V58.4169H206.826V60.8526H204.486Z" fill="#1A1918"/>
<path d="M204.486 60.8526H9.35952V63.2883H204.486V60.8526Z" fill="#1A1918"/>
<path d="M2.33988 6.90124H4.67976L4.67976 60.4466H2.33988L2.33988 6.90124Z" fill="#AAA9A6"/>
<path d="M211.506 6.90124H209.166V60.4466H211.506V6.90124Z" fill="#AAA9A6"/>
<path d="M4.67976 58.4169H7.01964V60.8526H4.67976V58.4169Z" fill="#AAA9A6"/>
<path d="M209.166 58.4169H206.826V60.8526H209.166V58.4169Z" fill="#AAA9A6"/>
<path d="M7.01964 63.2883H206.826V65.3181L7.01964 65.3181V63.2883Z" fill="#AAA9A6"/>
<path d="M4.67976 60.8526H9.35952V63.2883H4.67976V60.8526Z" fill="#AAA9A6"/>
<path d="M209.166 60.8526H204.486V63.2883H209.166V60.8526Z" fill="#AAA9A6"/>
<path d="M204.486 60.8526V58.4169H9.35952V60.8526H204.486Z" fill="#FFDA58"/>
<path d="M7.01964 58.4169H9.35952V55.9811H7.01964V58.4169Z" fill="#FFDA58"/>
<path d="M204.486 58.4169H206.826V55.9811H204.486V58.4169Z" fill="#FFDA58"/>
<path d="M204.486 2.43573V4.87146H9.35952V2.43573H204.486Z" fill="#FFDA58"/>
<path d="M7.01964 4.87146H9.35952V7.3072H7.01964V4.87146Z" fill="#FFDA58"/>
<path d="M204.486 4.87146H206.826V7.3072H204.486V4.87146Z" fill="#FFDA58"/>
<path d="M7.01964 7.3072H9.35952V9.74292H7.01964V7.3072Z" fill="#FFFCF4"/>
<path d="M7.01964 55.9811H9.35952V53.5454H7.01964V55.9811Z" fill="#FFFCF4"/>
<path d="M206.826 7.3072H204.486V9.74292H206.826V7.3072Z" fill="#FFFCF4"/>
<path d="M206.826 55.9811H204.486V53.5454H206.826V55.9811Z" fill="#FFFCF4"/>
<path d="M9.35952 4.87146H11.6994V7.30719L9.35952 7.3072V4.87146Z" fill="#FFFCF4"/>
<path d="M9.35952 58.4169H11.6994V55.9811H9.35952V58.4169Z" fill="#FFFCF4"/>
<path d="M204.486 4.87146H202.146V7.30719L204.486 7.3072V4.87146Z" fill="#FFFCF4"/>
<path d="M204.486 58.4169H202.146V55.9811H204.486V58.4169Z" fill="#FFFCF4"/>
<path d="M9.35952 9.74292H7.01964V53.5454H9.35952V55.9811H11.6994V58.4169H202.146V55.9811H204.486V53.5454H206.826V9.74292H204.486V7.3072L202.146 7.30719V4.87146H11.6994V7.30719L9.35952 7.3072V9.74292Z" fill="#FFA000"/>
</svg>
