<svg width="440" height="149" viewBox="0 0 440 149" fill="none" xmlns="http://www.w3.org/2000/svg">
<path d="M439.372 102.54L435.178 102.909L434.871 106.825L430.985 107.232L430.386 111.167H380.636L379.76 107.714C379.76 107.714 379.339 105.987 379.321 105.993H376.253L374.938 101.677H371.87L370.555 97.3616L374.062 76.9316V51.3229C375.168 51.1327 376.259 50.9166 377.759 50.6572C377.935 49.5679 378.128 48.349 378.356 46.8706H420.831L431.482 41.6875L434.989 46.8706V50.3184H435.865L439.372 55.5016V102.54ZM395.928 64.0746V89.4397H417.264V64.0746H395.928Z" fill="#F86C14"/>
<path d="M435.865 97.3571L431.671 97.7259L431.364 101.642L427.477 102.048L426.863 105.939L379.321 105.988C379.084 104.881 378.902 103.518 378.595 102.074C377.445 101.953 376.322 101.832 374.936 101.677C374.743 100.501 374.55 99.282 374.313 97.8123L370.555 97.3571V46.1398C371.66 45.9496 372.752 45.7335 374.252 45.4741C374.427 44.3848 374.62 43.1658 374.849 41.6875H431.482V49.6152L435.865 50.3184V97.3571ZM392.421 58.8915V84.2566H413.756V58.8915H392.421Z" fill="#FFC700"/>
<path d="M365.261 99.855V123.077H328.341L326.611 116.111H322.573L320.842 109.725H316.804L315.073 103.919V58.6361H305.843L304.69 54.5722L304.113 52.25H300.075L297.767 45.8639L302.382 44.7022V36.5745H319.112V6.96616H333.534L343.34 0L347.955 6.96616V29.6083H360.646L365.261 36.5745V58.6979H348.589L348.532 99.855H356.896L360.646 92.8889L365.261 99.855Z" fill="#F86C14"/>
<path d="M360.646 92.8889V116.111H326.611L325.997 110.186C324.219 110.046 322.608 109.865 320.842 109.725C320.634 107.911 320.443 106.452 320.236 104.626C318.677 104.382 317.29 104.257 315.073 103.919V52.25H304.113L302.847 46.533C301.358 46.3004 299.718 46.1663 297.767 45.8639V29.6083H314.497V0H343.34V29.6083H360.646V51.7317H343.974L343.917 92.8889H360.646Z" fill="#FFC700"/>
<path d="M145.575 85.2535L141.422 85.6258L141.118 89.5794L137.269 89.9896L136.675 93.9621H87.4041L86.5359 90.4768C86.5359 90.4768 86.1195 88.7334 86.1018 88.7388H83.0631L81.7607 84.3822H78.722L77.4197 80.0256L80.8934 59.401V33.5485C81.9881 33.3565 83.0693 33.1383 84.555 32.8764C84.7288 31.7768 84.92 30.5462 85.1459 29.0538H127.212L137.761 23.8213L141.234 29.0538V32.5344H142.102L145.575 37.7669V85.2535ZM102.549 46.4216V72.0283H123.68V46.4216H102.549Z" fill="#F86C14"/>
<path d="M142.102 80.021L137.948 80.3934L137.644 84.347L133.795 84.7571L133.187 88.6846L86.1018 88.7342C85.8672 87.6171 85.6863 86.2408 85.3822 84.7833C84.244 84.6611 83.1318 84.539 81.7591 84.3819C81.5679 83.1949 81.3768 81.9643 81.1422 80.4806L77.4197 80.021V28.316C78.5144 28.124 79.5956 27.9058 81.0813 27.644C81.2551 26.5443 81.4463 25.3137 81.6722 23.8213H137.761V31.8245L142.102 32.5344V80.021ZM99.0754 41.1891V66.7958H120.206V41.1891H99.0754Z" fill="#FFC700"/>
<path d="M46.2117 70.2121H24.9017V95.8254H46.238C46.3779 94.7175 46.5353 93.4874 46.7189 92.048H65.0974V86.8351L68.1557 92.048V108.99C67.0889 109.129 65.6505 109.295 64.1464 109.496C64.0153 110.734 63.8841 111.965 63.7267 113.448C62.3538 113.552 61.1209 113.648 59.7393 113.753C59.6081 115.253 59.4944 116.492 59.3807 117.783H14.4175L13.1069 112.528H5.67964L4.36895 108.391V103.818L1.31069 103.383L0 99.4638V61.6889H7.08942V52.8604H63.5431L65.0974 51.9973L68.1557 57.2223V74.0552L46.8238 74.1641C46.6489 73.0212 46.4566 71.7999 46.2117 70.2209V70.2121Z" fill="#F86C14"/>
<path d="M43.1535 64.9943H21.8434V90.6076H43.1797C43.3196 89.4997 43.477 88.2696 43.6606 86.8302H65.0974V103.772C64.0306 103.911 62.5922 104.077 61.0882 104.278C60.957 105.517 60.8258 106.747 60.6684 108.23C59.2956 108.334 58.0626 108.43 56.681 108.535C56.5498 110.036 56.4732 111.237 56.3595 112.528H13.1069L12.6891 108.425L4.36895 108.391V99.8992C4.36895 99.8992 0 99.4638 0 99.4623V56.4711C1.13677 56.2879 2.36098 56.0873 4.03115 55.8168V47.6426H60.4848C60.6772 48.7069 60.887 49.9195 61.1581 51.4113C62.2599 51.5858 63.6021 51.7777 65.0974 52.0045V68.8374L43.7656 68.9463C43.5907 67.8034 43.3983 66.5821 43.1535 65.0031V64.9943Z" fill="#FFC700"/>
<path d="M221.01 125.662V148.884H184.09L182.359 141.918H178.321L176.591 135.532H172.553L170.822 129.726V84.4427H161.592L160.438 80.3788L159.861 78.0566H155.823L153.516 71.6705L158.131 70.5089V62.3811H174.861V32.7728H189.282L199.089 25.8066L203.704 32.7728V55.415H216.395L221.01 62.3811V84.5045H204.338L204.28 125.662H212.645L216.395 118.695L221.01 125.662Z" fill="#F86C14"/>
<path d="M216.395 118.695V141.918H182.359L181.746 135.992C179.968 135.853 178.357 135.671 176.591 135.532C176.383 133.717 176.192 132.259 175.984 130.433C174.425 130.189 173.039 130.063 170.822 129.726V78.0566H159.861L158.596 72.3396C157.107 72.107 155.467 71.9729 153.516 71.6705V55.415H170.246V25.8066H199.089V55.415H216.395V77.5384H199.723L199.665 118.695H216.395Z" fill="#FFC700"/>
<path d="M298.429 105.038C297.186 105.153 295.87 105.259 294.376 105.391V113.4H285.852C285.67 115.065 285.539 116.307 285.383 117.743L240.692 117.784L239.39 112.505H235.917L234.614 108.11H231.576L230.273 103.712L233.746 96.4799V83.5254L237.653 83.0435L238.087 79.0857H271.948L272.816 74.6882L276.723 74.2484V70.2907H255.452L255.018 74.2577H231.576L230.273 68.5319L233.746 61.6423C234.902 61.4133 236.274 61.1578 237.865 60.8494V52.7006L280.052 52.8964L290.615 46.984L294.088 53.1406V55.7791H294.956L298.429 61.4925V105.038ZM255.424 100.51H276.72V92.2469H255.424V100.51Z" fill="#F86C14"/>
<path d="M294.956 99.3194C293.713 99.4339 292.397 99.5396 290.903 99.6717V108.12H282.379L281.91 112.505H239.39L238.521 108.547L234.614 108.107L234.18 104.149L230.273 103.715V77.8063L234.18 77.3244L234.614 73.3666H268.475L269.343 68.9691L273.25 68.5293V64.5715H251.979L251.545 68.5386H230.273V55.9232C231.429 55.6942 232.802 55.4387 234.392 55.1303V46.984L290.642 46.9814V55.0775C292.128 55.3242 293.462 55.5268 294.956 55.7734V99.3194ZM251.951 94.7912H273.247V86.5278H251.951V94.7912Z" fill="#FFC700"/>
</svg>
