<svg xmlns="http://www.w3.org/2000/svg" width="146" height="212" viewBox="0 0 146 212" fill="none">
  <path fill-rule="evenodd" clip-rule="evenodd" d="M31.6176 61.2378H107.481V67.3433H114.878V180.292H107.481V180.359H31.6176V174.136H24.0781V67.4603H31.6176V61.2378ZM16.5357 79.9062H24.0755V155.468H16.5357V79.9062ZM16.5349 102.131H8.9951V149.246H16.5349V102.131ZM129.67 168.081V149.002H137.456V118.475H129.67V103.212H121.885V79.554H114.878V174.186H121.885L121.885 168.081H129.67ZM46.6964 186.582V192.804H99.4786V186.582H46.6964ZM39.1574 186.581V180.359H107.02V186.581L39.1574 186.581Z" fill="#D59F52"/>
  <rect x="99.2985" y="101.011" width="16.0505" height="26.1564" fill="#1A1918"/>
  <path d="M91.6952 42.1589H47.5306V48.3817H91.6952V42.1589Z" fill="#1A1918"/>
  <path d="M99.2355 192.502H46.4534V198.616H99.2355V192.502Z" fill="#1A1918"/>
  <path d="M38.582 54.3696H31.5751V61.238H38.9131L38.582 54.3696Z" fill="#1A1918"/>
  <path d="M99.2355 54.6044H106.776V61.238H99.2355V54.6044Z" fill="#1A1918"/>
  <path d="M91.6952 48.3817H99.2355V54.6044H91.6952V48.3817Z" fill="#1A1918"/>
  <path d="M38.582 48.3817H47.5306V54.6044L38.582 54.3696V48.3817Z" fill="#1A1918"/>
  <path d="M31.5751 61.238H23.8325V67.3433H31.5751V61.238Z" fill="#1A1918"/>
  <path d="M106.776 61.238H114.316V67.3433H106.776V61.238Z" fill="#1A1918"/>
  <path d="M23.8325 67.3433H16.2921V79.4953H23.8325V67.3433Z" fill="#1A1918"/>
  <path d="M16.2921 79.4953H8.75183V101.719H16.2921V79.4953Z" fill="#1A1918"/>
  <path d="M114.316 67.3433H121.856V79.554H114.316V67.3433Z" fill="#1A1918"/>
  <path d="M8.75183 101.719H1.21152V148.834H8.75183V101.719Z" fill="#1A1918"/>
  <path d="M129.673 79.554H121.856V103.497H129.673V79.554Z" fill="#1A1918"/>
  <path d="M23.8325 155.057H16.2921V173.423H23.8325V155.057Z" fill="#1A1918"/>
  <path d="M129.673 148.834H137.458V167.318H129.673V148.834Z" fill="#1A1918"/>
  <path d="M129.673 103.497H137.458V118.61H129.673V103.497Z" fill="#1A1918"/>
  <path d="M31.3727 173.423H23.8325V179.948H31.3727V173.423Z" fill="#1A1918"/>
  <path d="M16.2921 148.834H8.75183V155.057H16.2921V148.834Z" fill="#1A1918"/>
  <path d="M114.88 174.186H121.856V180.292H114.88V174.186Z" fill="#1A1918"/>
  <path d="M121.856 167.318H129.673V174.186H121.856V167.318Z" fill="#1A1918"/>
  <path d="M38.582 179.948H31.3727V186.397H38.582V179.948Z" fill="#1A1918"/>
  <path d="M107.095 180.292H114.88V186.397H107.095V180.292Z" fill="#1A1918"/>
  <path d="M46.4534 186.397H38.582V192.502H46.4534V186.397Z" fill="#1A1918"/>
  <path d="M99.2355 186.397H107.095V192.502H99.2355V186.397Z" fill="#1A1918"/>
  <path d="M129.673 118.61H137.458V148.834H129.673V118.61Z" fill="#1A1918"/>
  <rect x="41.6356" y="99.822" width="16.0505" height="26.1564" fill="#1A1918"/>
  <rect x="49.3638" y="105.767" width="8.3225" height="10.7004" fill="#FFFBF6"/>
  <rect x="107.027" y="105.767" width="8.3225" height="10.7004" fill="#FFFBF6"/>
  <rect width="5.94464" height="7.13357" transform="matrix(-1 0 0 1 69.5754 129.545)" fill="#1A1918"/>
  <rect width="5.35018" height="6.53911" transform="matrix(-1 0 0 1 96.3263 130.14)" fill="#1A1918"/>
  <rect width="21.6762" height="5.54288" transform="matrix(-1 0 0 1 61.5294 199.408)" fill="#B17C31"/>
  <rect width="18.6853" height="5.34214" transform="matrix(-1 0 0 1 109.43 199.37)" fill="#B17C31"/>
  <rect width="21.7995" height="6.10531" transform="matrix(-1 0 0 1 90.7463 136.791)" fill="#1A1918"/>
  <rect width="21.7995" height="6.86847" transform="matrix(-1 0 0 1 61.16 192.502)" fill="#1A1918"/>
  <rect width="21.0209" height="6.86847" transform="matrix(-1 0 0 1 61.16 204.713)" fill="#1A1918"/>
  <rect width="20.2424" height="6.86847" transform="matrix(-1 0 0 1 110.988 204.713)" fill="#1A1918"/>
  <path fill-rule="evenodd" clip-rule="evenodd" d="M91.6935 48.3823H47.5288V54.37H38.5784V61.2385H47.5326V67.0496H86.3113V61.2385H99.3055V54.37H91.6935V48.3823ZM74.4625 67.0498H47.5328V73.2726H74.4625V67.0498Z" fill="#EBBA77"/>
  <path fill-rule="evenodd" clip-rule="evenodd" d="M31.5743 61.2378H38.5812V95.5802H31.5743V61.2378ZM23.7867 67.3436H31.5722V155.059H38.9092V161.28H60.4532V167.503H67.9926V173.725H31.3682V173.423H23.7867V155.057H16.2888V79.4953H23.7867V67.3436ZM16.288 101.72H8.74815V148.835H16.288V101.72ZM75.5346 173.726V179.529H99.3064V173.424H107.092V167.318H121.884V174.187H114.877V180.292H107.092V186.397H38.5793L38.5793 179.948H31.3699V173.726H75.5346ZM99.3077 186.397V192.503H46.3661V186.397H99.3077ZM129.67 167.318V161.213H107.092L107.092 167.318H129.67Z" fill="#B17C31"/>
  <rect width="6.22842" height="19.0791" transform="matrix(-1 0 0 1 44.8098 192.502)" fill="#1A1918"/>
  <rect width="6.22842" height="18.3159" transform="matrix(-1 0 0 1 62.7183 193.266)" fill="#1A1918"/>
  <rect width="5.44987" height="19.0791" transform="matrix(-1 0 0 1 110.988 192.502)" fill="#1A1918"/>
  <rect width="5.44987" height="18.3159" transform="matrix(-1 0 0 1 96.1962 193.266)" fill="#1A1918"/>
  <rect width="20.2424" height="6.86847" transform="matrix(-1 0 0 1 110.988 192.502)" fill="#1A1918"/>
  <rect x="115.349" y="93.283" width="7.72804" height="17.2395" fill="#D59F52"/>
  <rect x="135.561" y="118.845" width="10.1059" height="35.0734" fill="#1A1918"/>
  <rect x="123.077" y="93.283" width="6.53911" height="17.2395" fill="#1A1918"/>
  <rect x="129.616" y="118.845" width="7.72804" height="35.0734" fill="#D59F52"/>
  <path fill-rule="evenodd" clip-rule="evenodd" d="M93.2696 6.26782H87.2132H81.7624L77.5229 6.26782H67.8325H58.1422H57.5366L32.7051 6.26782V62.5929H57.5366V67.438H67.8325V61.3816H77.5229H81.7624L81.7624 56.5364H87.2132V52.2969H93.2696V45.0291H98.1148V39.5783H103.566V33.5219H98.1148V8.08476L93.2696 8.08476V6.26782ZM124.158 54.1138H103.566V68.9224H103.516V79.8241H98.0648V83.7905H97.5092V85.0018H82.368V95.9034H78.1285H21.8035V101.96H78.1285L78.1285 101.354H83.5793V95.9034H98.1148V91.6639H107.805V90.4526H113.256V84.6989H113.862V79.5509H124.158V73.1619H129.558V59.8377H124.158V54.1138ZM5.40105 85.2749H10.8519V90.7257H5.40105V85.2749Z" fill="#C12C50"/>
  <path fill-rule="evenodd" clip-rule="evenodd" d="M62.3817 6.26782L47.8462 6.26782V11.7186H32.7051V17.1694H21.8035V22.6203L21.8035 28.6767L32.0994 28.6767V34.1275H38.1559V28.6767L42.3954 28.6767V22.6203H51.4801V17.1694H57.5365V11.7186H62.3817V6.26782ZM38.1559 34.1275L38.1559 40.184H43.6067V34.1275H38.1559ZM75.1003 33.5219H80.5511V27.4654H86.0019V21.409H92.664V11.7186H98.1148V27.4654L92.664 27.4654L86.0019 27.4654V33.5219L80.5511 33.5219V39.5783H75.1003V33.5219ZM52.0857 40.184H75.1003V46.2404H52.0857V40.184Z" fill="#E75A7C"/>
  <path fill-rule="evenodd" clip-rule="evenodd" d="M16.3527 22.6201H21.8035L21.8035 28.0709H27.2543H27.8599H32.7051V33.5217H38.1559V40.1838H52.0358V61.3814H57.5366V66.8322H52.0358V67.4379H38.1059V59.5645H32.7051V55.325H27.8599H27.2543H21.8035L21.8035 38.3669H16.3527V22.6201ZM98.0648 68.9223H103.516V63.4715H108.966V68.9223H103.516V74.3731V79.8239H98.0648V85.2747L92.614 85.2747V90.7255H83.5293V96.1764H37.5502V101.96H21.8035L21.8035 97.1145H12.7188V91.6637H5.45103L5.45103 85.6073V69.8605H10.9018V64.4097H16.3527V58.9589H27.2543V79.8239H32.6551V85.0016H41.7898V90.7255H78.0785V85.2747L87.1632 85.2747V79.8239H92.614V74.3731L98.0648 74.3731V68.9223ZM124.108 58.3532H129.558V63.804H124.108V58.3532ZM124.108 69.2548H118.657V74.7056H113.256V80.1565H118.707V74.7056H124.108V69.2548ZM113.256 80.1565H107.805V85.6073H113.256V80.1565Z" fill="#8A1834"/>
  <path fill-rule="evenodd" clip-rule="evenodd" d="M98.1148 39.5784H103.566V45.0292H98.1148L98.1148 50.48H92.664V55.9308H87.2132V61.3816H81.7624V66.8324H67.8325V72.2832H38.1559V66.8324H32.7051V59.5647H21.8034V70.4663H27.2542L27.2543 75.3115H32.0994V80.1566H41.7897V85.2749L78.0785 85.2749V79.8241H87.1632V74.3733H92.614V68.9225H98.0648V63.4717H103.516V68.9225H98.0648L98.0648 74.3733H92.614V79.8241H87.1632V85.2749H78.0785V90.7257H41.7398V85.6074H32.0994V80.1566H27.2543V75.3115H21.8034L21.1978 75.3115L16.3526 75.3115V59.5647H21.8034V54.1139H32.7051V59.5647H38.1559V66.8324L67.8325 66.8324V61.3816H81.7624V55.9308H87.2132V50.48H92.664V45.0292H98.1148V39.5784ZM109.016 48.6631H103.566V63.8042H109.016V48.6631Z" fill="#B67800"/>
  <path d="M103.566 11.7185H98.1148V34.1274H103.566V11.7185Z" fill="#1A1918"/>
  <path d="M16.3527 22.6201H10.9018V37.7613H16.3527V22.6201Z" fill="#1A1918"/>
  <path d="M98.1148 6.26771H92.664V11.7185L98.1148 11.7185V6.26771Z" fill="#1A1918"/>
  <path d="M129.608 54.1137H124.158V59.5645H129.608V54.1137Z" fill="#1A1918"/>
  <path d="M124.158 74.1297H118.707V79.5508H124.158V74.1297Z" fill="#1A1918"/>
  <path d="M118.707 79.5508H113.256V84.7285H118.707V79.5508Z" fill="#1A1918"/>
  <path d="M113.256 84.7285H107.855L107.805 90.4822H113.256V84.7285Z" fill="#1A1918"/>
  <path d="M93.2197 95.8735H78.1285V101.657H93.2197V95.8735Z" fill="#1A1918"/>
  <path d="M107.805 90.4822H93.2197V95.8735H107.805V90.4822Z" fill="#1A1918"/>
  <path d="M129.608 63.2281H124.158V74.1297H129.608V63.2281Z" fill="#1A1918"/>
  <path d="M124.158 59.5645H129.608V63.2281H124.158V59.5645Z" fill="#1A1918"/>
  <path d="M12.7188 90.4822H5.45104V95.933H12.7188V90.4822Z" fill="#1A1918"/>
  <path d="M10.9018 64.4394H5.45104V69.8902H10.9018V64.4394Z" fill="#1A1918"/>
  <path d="M16.3527 58.9886H10.9018V64.4394H16.3527V58.9886Z" fill="#1A1918"/>
  <path d="M5.45104 69.8902H0.000228882V90.4822H5.45104V69.8902Z" fill="#1A1918"/>
  <path d="M21.8035 53.5378H16.3527V58.9886H21.8035V53.5378Z" fill="#1A1918"/>
  <path d="M21.8035 95.933H12.7188V101.657H21.8035V95.933Z" fill="#1A1918"/>
  <path d="M109.016 34.1274H103.566V48.6629H109.016V34.1274Z" fill="#1A1918"/>
  <path d="M21.8035 17.1693H16.3527V22.6201H21.8035V17.1693Z" fill="#1A1918"/>
  <path d="M21.8035 37.7613H16.3527V53.5378H21.8035V37.7613Z" fill="#1A1918"/>
  <path d="M47.8462 6.26771H32.7051V11.7185L47.8462 11.7185V6.26771Z" fill="#1A1918"/>
  <path d="M78.1285 101.657H21.8035V107.411H78.1285V101.657Z" fill="#1A1918"/>
  <path d="M32.7051 11.7185H21.8035V17.1693H32.7051V11.7185Z" fill="#1A1918"/>
  <path d="M92.664 0.816895L47.8462 0.816895V6.26771L92.664 6.26771V0.816895Z" fill="#1A1918"/>
  <path d="M124.158 48.6629H109.016V54.1137H124.158V48.6629Z" fill="#1A1918"/>
  <path fill-rule="evenodd" clip-rule="evenodd" d="M98.1148 45.0291H103.566V63.8041H98.1148V55.9307H92.664V61.3816H87.2132V66.8324H81.7624V61.3816H87.2132V55.9307H92.664V50.4799H98.1148V45.0291ZM73.2834 66.8324H67.8325V72.2832H73.2834V66.8324ZM41.7898 80.1566H47.2406V85.6074H41.7898V80.1566ZM32.0994 75.3114H27.2543V70.4662H21.8035V59.5646H27.2543H32.7051V66.8324H38.1559V80.1566H32.0994V75.3114ZM92.614 63.4716H98.0648V68.9224H92.614V74.3732H87.1632V79.824H78.0785V74.3732H87.1632V68.9224H92.614V63.4716Z" fill="#E1A818"/>
  <path fill-rule="evenodd" clip-rule="evenodd" d="M98.1148 55.9307H92.664V61.3816H87.2132L87.2132 66.8324H73.2834V72.2832H47.2406H38.1559V80.1566H47.2406V85.6074H78.1285V74.7058H87.2132L87.2132 69.2549H92.664V63.8041H98.1148V55.9307Z" fill="#FFBF1E"/>
  <path fill-rule="evenodd" clip-rule="evenodd" d="M62.9873 72.2832H57.5365V74.7058H52.0857V80.1566H47.2406V85.6074H52.6914H67.2269V80.1566H73.2833V74.7058H62.9873V72.2832ZM47.2406 80.1566V74.7058H41.7898V80.1566H47.2406Z" fill="#FFD600"/>
  <rect width="5.45081" height="5.45081" transform="matrix(-1 0 0 1 62.9874 74.7058)" fill="#FFEA30"/>
  <rect width="5.45081" height="5.45081" transform="matrix(-1 0 0 1 57.5366 80.1565)" fill="#FFEA30"/>
  <rect width="4.84517" height="5.45081" transform="matrix(-1 0 0 1 52.0858 74.7058)" fill="#FFEA30"/>
  <path fill-rule="evenodd" clip-rule="evenodd" d="M98.1149 34.1274H103.566V39.5783H98.1149V34.1274ZM16.3527 54.1137H21.8035L21.8035 48.6629H27.2543V54.1137H21.8035V59.5646H16.3527V54.1137ZM16.3527 64.4097H10.9019V69.8605H16.3527V64.4097ZM103.566 43.8178H109.016V49.2686L114.467 49.2686V60.1702H109.016L109.016 49.2686H103.566V43.8178Z" fill="#553800"/>
</svg>