<svg width="64" height="95" viewBox="0 0 64 95" fill="none" xmlns="http://www.w3.org/2000/svg">
<path fill-rule="evenodd" clip-rule="evenodd" d="M9.14325 5.65967H11.7555L11.7555 20.4624H9.14325L9.14325 5.65967ZM11.756 7.83631H14.3682L14.3682 24.381H16.5446L16.5446 38.7483H14.3678V37.0064H11.756L11.756 7.83631Z" fill="#FFC700"/>
<path fill-rule="evenodd" clip-rule="evenodd" d="M6.96627 12.6252H1.74178L1.74178 20.8265H4.35442L4.35442 32.2169H9.14353L9.14353 20.3707H6.96627L6.96627 12.6252Z" fill="#FFC700"/>
<path fill-rule="evenodd" clip-rule="evenodd" d="M19.1569 0.435059L16.5446 0.435059L16.5446 24.816H19.1569L19.1569 0.435059ZM21.3339 3.48246H19.157L19.157 22.6389H21.3339L21.3339 3.48246Z" fill="#FFC700"/>
<path fill-rule="evenodd" clip-rule="evenodd" d="M26.1234 5.65894H23.5112L23.5112 26.9923H26.1234L26.1234 5.65894ZM28.7361 7.83555H26.1239L26.1239 29.6043H28.7361L28.7361 7.83555Z" fill="#FFC700"/>
<path fill-rule="evenodd" clip-rule="evenodd" d="M40.4897 5.65967H37.8774V34.3944H40.4897V5.65967ZM43.1024 7.83639H40.4902V34.3942H43.1024V7.83639Z" fill="#FFC700"/>
<path fill-rule="evenodd" clip-rule="evenodd" d="M47.4564 7.83569H44.8442V34.3935H47.4564V7.83569ZM50.0691 10.0124H47.4569V39.1825H50.0691V10.0124Z" fill="#FFC700"/>
<path fill-rule="evenodd" clip-rule="evenodd" d="M33.3062 0L30.9117 0L30.9117 31.8061H33.3062V0ZM35.7009 3.24557H33.3064L33.3064 35.7007H35.7009L35.7009 3.24557Z" fill="#FFC700"/>
<path fill-rule="evenodd" clip-rule="evenodd" d="M54.4231 12.6252H52.2462V34.8293H54.4231V34.3939H57.0352V15.2374H54.4231V12.6252Z" fill="#FFC700"/>
<path fill-rule="evenodd" clip-rule="evenodd" d="M35.2665 33.0879H37.8787V46.5845H35.2672V47.0195H33.0903V36.1351H35.2665V33.0879Z" fill="#FFC700"/>
<path fill-rule="evenodd" clip-rule="evenodd" d="M21.3336 24.8159H19.1568L19.1568 43.9724H21.3336L21.3336 24.8159ZM23.511 26.9924H21.3341L21.3341 46.1488H23.511L23.511 26.9924Z" fill="#FFC700"/>
<rect x="25.252" y="31.7817" width="5.65986" height="14.8027" fill="#FFC700"/>
<rect x="40.4903" y="34.394" width="4.35374" height="12.1905" fill="#FFC700"/>
<path fill-rule="evenodd" clip-rule="evenodd" d="M57.0351 0.433838L54.8582 0.433838V7.8352H57.0351V0.433838ZM52.246 3.48177H54.8582V10.8831H52.246V7.83536H49.6338V5.65849H52.246V3.48177Z" fill="#FFC700"/>
<path fill-rule="evenodd" clip-rule="evenodd" d="M59.2108 0.870117L57.0339 0.870117V7.8361L59.2108 7.8361V0.870117ZM57.0341 7.83646H54.8573V10.4487H57.0341V7.83646Z" fill="#E25B00"/>
<rect x="57.0342" y="15.2378" width="2.17687" height="15.2381" fill="#E25B00"/>
<path fill-rule="evenodd" clip-rule="evenodd" d="M19.1559 0.870361L21.3327 0.870361V3.48246H23.5095L23.5095 26.9927H21.3326V24.8156H19.1559V22.6387H21.3326L21.3326 3.48261L19.1559 3.48261V0.870361ZM26.1221 26.9928H23.5098L23.5098 43.9724H26.1221L26.1221 26.9928ZM28.734 10.449H30.9108L30.9108 31.7823H28.7343V31.7824H26.1221V29.6055H28.734L28.734 10.449Z" fill="#E25B00"/>
<rect x="37.8781" y="34.394" width="2.61224" height="12.1905" fill="#E25B00"/>
<path fill-rule="evenodd" clip-rule="evenodd" d="M47.4562 7.83691H50.0684V7.83723L52.2451 7.83723V10.8841H54.422V12.6256H52.2451V39.6195H50.0683V10.0138H47.4562V7.83691Z" fill="#E25B00"/>
<path fill-rule="evenodd" clip-rule="evenodd" d="M44.8435 7.83667H43.102V34.3945H44.8435V7.83667ZM47.4556 34.3948H44.8434L44.8434 46.5852H47.4556L47.4556 34.3948Z" fill="#E25B00"/>
<path fill-rule="evenodd" clip-rule="evenodd" d="M33.0882 0.871582L35.7004 0.871582V3.48383H33.0882V0.871582ZM35.7003 3.48397L37.8772 3.48397L37.8772 33.0894H35.7003L35.7003 3.48397ZM35.6999 31.7825H30.9107V47.0206H35.6999L35.6999 31.7825Z" fill="#E25B00"/>
<path fill-rule="evenodd" clip-rule="evenodd" d="M11.7562 5.65918H14.3684V7.83605H11.7562V5.65918ZM14.3689 7.83581H16.5458L16.5458 24.8154H14.3689L14.3689 7.83581ZM19.1569 24.8159H16.5447L16.5447 41.7955H19.1569L19.1569 24.8159Z" fill="#E25B00"/>
<path fill-rule="evenodd" clip-rule="evenodd" d="M4.7887 10.4492H6.96557V12.6261H4.7887V10.4492ZM6.96606 12.6257H9.14293V20.4624H6.96606L6.96606 12.6257ZM11.7545 20.4629H9.14228L9.14228 35.2656H11.7545L11.7545 20.4629Z" fill="#E25B00"/>
<path d="M0 29.1699H6.96599V31.9999H9.57823V34.3944H11.7551V36.5713H14.3673V38.7482H16.5442V41.3604H21.3333V43.755H26.1224V46.5849H37.8776V43.5373H42.6667V41.3604H47.4558V38.7482H50.068V36.5713H52.2449V34.3944H54.8571V31.7822H57.034V29.1699H64V53.1155H0L0 29.1699Z" fill="#DC4200"/>
<path d="M1.7415 53.1155H62.2585V70.0951H1.7415L1.7415 53.1155Z" fill="#DC4200"/>
<path d="M5.22449 70.0951H58.7755V87.9454H5.22449L5.22449 70.0951Z" fill="#DC4200"/>
<path d="M5.22449 87.9454H20.898V90.9931H19.1565V94.0407H6.96599V90.9931H5.22449V87.9454Z" fill="#DC4200"/>
<path d="M43.102 87.9454H58.7755V90.9931H57.034V94.0407H44.8435V90.9931H43.102V87.9454Z" fill="#DC4200"/>
<path d="M10.2859 50.7439H9.25732V51.7725V55.8994V56.928H10.2859H11.1988V67.2485V68.2771H12.2273H12.8628V76.2793V77.3079V79.8873V80.9159H13.8914H16.6649H17.6935H46.422H47.4506H50.2241H51.2526V79.8873V77.3079V76.2793V68.2771H51.8881H52.9167V67.2485V56.928H53.8296H54.8582V55.8994V51.7725V50.7439H53.8296H51.0561H50.0275V51.7725V52.0335H42.4583H41.4297V53.0621V53.5811H36.0793H35.0507V54.6097V55.6446H29.0648V54.6097V53.5811H28.0362H22.6858V53.0621V52.0335H21.6572H14.088V51.7725V50.7439H13.0594H10.2859Z" fill="#DC4200" stroke="#FFC700" stroke-width="2.05718"/>
<path d="M25.029 74.0711H29.7993V62.7313H25.029V74.0711Z" fill="#FFC700"/>
<path d="M27.4142 76.4585H29.7993V60.3439H27.4142V76.4585Z" fill="#FFC700"/>
<path d="M27.4142 74.0711V76.4585L36.3584 76.4585V74.0712L27.4142 74.0711Z" fill="#FFC700"/>
<path d="M33.9733 71.6838V74.0711H38.7436V71.6838L33.9733 71.6838Z" fill="#FFC700"/>
<path d="M33.9733 62.7313V65.1186H38.7436V62.7313H33.9733Z" fill="#FFC700"/>
<path d="M27.4142 60.3439L27.4142 62.7313H36.3584V60.3439H27.4142Z" fill="#FFC700"/>
</svg>
