<svg xmlns="http://www.w3.org/2000/svg" width="176" height="252" viewBox="0 0 176 252" fill="none">
  <path fill-rule="evenodd" clip-rule="evenodd" d="M47.31 89.2241H129.03V95.8007H136.997V217.468H129.03V217.54L128.533 217.54V224.243H55.4317V217.54L47.31 217.54V210.837H39.1884V95.9268H47.31V89.2241ZM31.0638 109.334H39.1856V190.728H31.0638V109.334ZM31.0629 133.274H22.9411V184.026H31.0629V133.274ZM152.932 204.315V183.763H161.318V150.88H152.932V134.438H144.545V108.954H136.997V210.892H144.545L144.545 204.315H152.932ZM63.5527 224.244V230.947H120.409V224.244H63.5527Z" fill="#D59F52"/>
  <rect x="120.215" y="132.067" width="17.2896" height="28.1756" fill="#1A1918"/>
  <path d="M112.025 68.6721H64.4512V75.3752H112.025V68.6721Z" fill="#1A1918"/>
  <path d="M120.148 230.621H63.2909V237.207H120.148V230.621Z" fill="#1A1918"/>
  <path d="M54.8119 81.8253H47.2641V89.224H55.1685L54.8119 81.8253Z" fill="#1A1918"/>
  <path d="M120.148 82.0783H128.27V89.224H120.148V82.0783Z" fill="#1A1918"/>
  <path d="M112.025 75.3752H120.148V82.0783H112.025V75.3752Z" fill="#1A1918"/>
  <path d="M54.8119 75.3752H64.4512V82.0783L54.8119 81.8253V75.3752Z" fill="#1A1918"/>
  <path d="M47.2641 89.224H38.9238V95.8006H47.2641V89.224Z" fill="#1A1918"/>
  <path d="M128.27 89.224H136.392V95.8006H128.27V89.224Z" fill="#1A1918"/>
  <path d="M38.9238 95.8006H30.8013V108.891H38.9238V95.8006Z" fill="#1A1918"/>
  <path d="M30.8013 108.891H22.679V132.83H30.8013V108.891Z" fill="#1A1918"/>
  <path d="M136.392 95.8006H144.515V108.954H136.392V95.8006Z" fill="#1A1918"/>
  <path d="M22.679 132.83H14.5566V183.582H22.679V132.83Z" fill="#1A1918"/>
  <path d="M152.934 108.954H144.515V134.745H152.934V108.954Z" fill="#1A1918"/>
  <path d="M38.9238 190.285H30.8013V210.069H38.9238V190.285Z" fill="#1A1918"/>
  <path d="M152.934 183.582H161.321V203.493H152.934V183.582Z" fill="#1A1918"/>
  <path d="M152.934 134.745H161.321V151.024H152.934V134.745Z" fill="#1A1918"/>
  <path d="M47.0461 210.069H38.9238V217.098H47.0461V210.069Z" fill="#1A1918"/>
  <path d="M30.8013 183.582H22.679V190.285H30.8013V183.582Z" fill="#1A1918"/>
  <path d="M137 210.891H144.515V217.468H137V210.891Z" fill="#1A1918"/>
  <path d="M144.515 203.493H152.934V210.891H144.515V203.493Z" fill="#1A1918"/>
  <path d="M54.8119 217.098H47.0461V224.045H54.8119V217.098Z" fill="#1A1918"/>
  <path d="M128.613 217.468H137V224.045H128.613V217.468Z" fill="#1A1918"/>
  <path d="M63.2909 224.045H54.8119V230.621H63.2909V224.045Z" fill="#1A1918"/>
  <path d="M120.148 224.045H128.613V230.621H120.148V224.045Z" fill="#1A1918"/>
  <path d="M152.935 151.024H161.321V183.582H152.935V151.024Z" fill="#1A1918"/>
  <rect x="58.1011" y="130.787" width="17.2896" height="28.1756" fill="#1A1918"/>
  <rect x="66.4259" y="137.19" width="8.96496" height="11.5264" fill="#FFFBF6"/>
  <rect x="128.54" y="137.19" width="8.96496" height="11.5264" fill="#FFFBF6"/>
  <rect width="6.40354" height="7.68425" transform="matrix(-1 0 0 1 88.1979 162.804)" fill="#1A1918"/>
  <rect width="5.76319" height="7.04389" transform="matrix(-1 0 0 1 117.014 163.445)" fill="#1A1918"/>
  <rect width="23.3495" height="5.97076" transform="matrix(-1 0 0 1 79.5307 238.061)" fill="#B17C31"/>
  <rect width="20.1277" height="5.75453" transform="matrix(-1 0 0 1 131.129 238.02)" fill="#B17C31"/>
  <rect width="23.4823" height="6.57661" transform="matrix(-1 0 0 1 111.003 170.61)" fill="#1A1918"/>
  <rect width="23.4823" height="7.39868" transform="matrix(-1 0 0 1 79.1328 230.621)" fill="#1A1918"/>
  <rect width="22.6436" height="7.39868" transform="matrix(-1 0 0 1 79.1328 243.775)" fill="#1A1918"/>
  <rect width="21.805" height="7.39868" transform="matrix(-1 0 0 1 132.808 243.775)" fill="#1A1918"/>
  <path fill-rule="evenodd" clip-rule="evenodd" d="M112.023 75.3762H64.4493V81.8261H54.808V89.2248H64.4534V95.4844H106.226V89.2248H120.223V81.8261H112.023V75.3762ZM93.4621 95.4847H64.4536V102.188H93.4621V95.4847Z" fill="#EBBA77"/>
  <path fill-rule="evenodd" clip-rule="evenodd" d="M47.2631 89.2241H54.811V126.218H47.2631V89.2241ZM38.8744 95.801H47.261V190.287H55.1643V196.99H47.261V196.99H78.3715V203.692H86.4928V210.395H47.0412V210.07H38.8744V190.286H30.7977V108.891H38.8744V95.801ZM30.7968 132.832H22.6749V183.584H30.7968V132.832ZM94.617 210.395V216.646H120.224V210.07H128.611V203.494H144.545V210.892H136.997V217.469H128.61V224.045H54.8089V217.098H47.043V210.395H94.617ZM120.225 224.045V230.622H63.1969V224.045H120.225ZM152.931 203.493L152.931 196.917H128.61V203.493H152.931Z" fill="#B17C31"/>
  <rect width="6.70923" height="20.5519" transform="matrix(-1 0 0 1 61.5204 230.621)" fill="#1A1918"/>
  <rect width="6.70923" height="19.7298" transform="matrix(-1 0 0 1 80.8114 231.444)" fill="#1A1918"/>
  <rect width="5.87057" height="20.5519" transform="matrix(-1 0 0 1 132.808 230.621)" fill="#1A1918"/>
  <rect width="5.87057" height="19.7298" transform="matrix(-1 0 0 1 116.874 231.444)" fill="#1A1918"/>
  <rect width="21.805" height="7.39868" transform="matrix(-1 0 0 1 132.808 230.621)" fill="#1A1918"/>
  <rect x="137.505" y="123.743" width="8.3246" height="18.5703" fill="#D59F52"/>
  <rect x="159.277" y="151.278" width="10.886" height="37.7809" fill="#1A1918"/>
  <rect x="145.83" y="123.743" width="7.04389" height="18.5703" fill="#1A1918"/>
  <rect x="152.873" y="151.278" width="8.3246" height="37.7809" fill="#D59F52"/>
  <path fill-rule="evenodd" clip-rule="evenodd" d="M80.3184 7.95898H96.2369V23.8775H80.3184V7.95898ZM159.911 31.837H167.87V47.7555H159.911V31.837ZM16.6443 47.7552H24.6035V72.5174H16.6443V47.7552ZM128.074 55.7147H48.4813V63.674H128.074V55.7147ZM112.155 47.7552H128.074V55.7145H48.4813V47.7552H64.3998V39.7962H72.3591V47.7552H80.3184V39.7962H96.2369V47.7552H104.196V39.7962H112.155V47.7552ZM48.4813 23.8777H56.4406V31.837L64.3998 31.837V39.7962H40.522V31.837H48.4813V23.8777ZM136.033 31.837H112.155V39.7962H136.033V31.837ZM32.5628 55.7147H24.6035V103.47H32.5628V55.7147ZM32.5628 63.6742H143.993V111.43H32.5628V63.6742Z" fill="#FFD027"/>
  <path fill-rule="evenodd" clip-rule="evenodd" d="M80.3184 -0.000243445V7.95902H72.3591V23.8775H80.3184L80.3184 7.95902L96.2369 7.95902V-0.000244141L80.3184 -0.000243445ZM56.4406 15.9185H48.4813V23.8778L40.522 23.8778L40.5221 31.837H32.5628V39.7963H40.5221L40.522 55.7147H32.5628V63.674H48.4813V55.7147L48.4813 39.7962L40.5221 39.7963V31.837L48.4813 31.837L48.4813 23.8778H56.4406V15.9185ZM8.68499 23.8778H16.6443V31.837H24.6035V47.7555H16.6442V72.5176H24.6035V103.47H16.6442L16.6443 80.4767H8.68499V47.7553H16.6443L16.6442 31.837H8.68499V23.8778ZM167.87 23.8778H159.911V31.837L151.952 31.837L151.952 47.7553H143.992V55.7145H151.952L151.952 47.7555H159.911V72.5176H151.952V103.47H159.911L159.911 80.4767H167.87V47.7555H175.83V31.837L167.87 31.837V23.8778ZM167.87 31.837V47.7553H159.911V31.837H167.87ZM8.68497 31.837H0.725708V47.7555H8.68497V31.837ZM32.5628 47.7553H24.6035V55.7145H32.5628V47.7553ZM143.992 31.837H136.033L136.033 23.8778H128.074L128.074 15.9185H120.115V23.8778L112.155 23.8778V31.837H120.115L120.115 23.8778L128.074 23.8778V31.837L136.033 31.837V39.7963L128.074 39.7962L128.074 55.7147V63.674H143.992V55.7147L136.033 55.7148L136.033 39.7963H143.992V31.837ZM64.3998 23.8778H56.4406V31.837H64.3998V23.8778ZM64.3998 39.7962H56.4406V47.7555H64.3998V39.7962ZM120.115 39.7962H112.155V47.7555H120.115V39.7962ZM80.3184 39.7962H72.3591L72.3591 31.837H64.3998V39.7963L72.3591 39.7962L72.3591 47.7553H64.3998V55.7145H72.3591L72.3591 47.7555H80.3184V39.7962ZM96.2369 39.7963V23.8778H80.3184L80.3184 39.7962L96.2369 39.7963ZM104.196 39.7962L104.196 47.7553H112.155V55.7145H104.196L104.196 47.7555H96.2369L96.2369 39.7963L104.196 39.7962ZM104.196 39.7962L112.155 39.7963V31.837H104.196L104.196 39.7962ZM143.992 111.429H32.5628V119.389H143.992L143.992 119.389H151.952V103.47H143.992L143.992 111.429ZM32.5628 103.47H24.6035V119.389H32.5628V103.47ZM96.2369 7.95902H104.196V23.8775H96.2369V7.95902Z" fill="#1A1918"/>
  <path fill-rule="evenodd" clip-rule="evenodd" d="M88.2777 7.95898H80.3184V15.9182H88.2777V7.95898ZM8.68503 31.837H16.6443V39.7962H8.68503V31.837ZM48.4813 31.837H56.4406V39.7962H48.4813V31.837ZM120.115 23.8777H128.074V31.837H120.115V23.8777ZM96.2369 47.7552H88.2777V55.7145H96.2369V47.7552ZM72.3592 55.7147H88.2777V63.674H72.3592V55.7147ZM80.3184 63.6742H64.3999V71.6335H80.3184V63.6742Z" fill="#FFEBA3"/>
  <path fill-rule="evenodd" clip-rule="evenodd" d="M96.2369 15.9185H88.2777V23.8777H96.2369V15.9185ZM16.6443 39.7962H8.68503V47.7555H16.6443V39.7962ZM56.4406 39.7962H48.4813V47.7555H56.4406V39.7962ZM32.5628 79.5925H40.5221V87.5517H32.5628V79.5925ZM72.3592 79.5925H64.3999V87.5517H72.3592V79.5925ZM96.2369 79.5925H104.196V87.5517H96.2369V79.5925ZM136.033 79.5925H128.074V87.5517H136.033V79.5925ZM24.6036 87.5519H40.5221V95.5112H24.6036V87.5519ZM72.3591 87.5519H56.4406V95.5112H72.3591V87.5519ZM136.033 87.5519H151.952L151.952 95.511L151.952 95.5112L151.952 103.47H88.2777V95.511H136.033V87.5519ZM143.993 103.47H32.5628V111.43H143.993V103.47ZM120.115 39.7962H128.074V47.7555H120.115V39.7962ZM167.87 39.7962H159.911L159.911 47.7552H151.952V55.7147H143.993V72.5176H151.952V72.5174H159.911L159.911 47.7555H167.87V39.7962Z" fill="#FFA000"/>
  <path fill-rule="evenodd" clip-rule="evenodd" d="M32.5628 72.5176H24.6035V87.5517H32.5628V72.5176ZM64.3998 72.5176H56.4406V79.5925H48.4813V87.5518H56.4406V87.5518H64.3998V72.5176ZM88.2776 72.5176H96.2369V87.5518H88.2776L88.2776 87.5518H80.3184V79.5925H88.2776L88.2776 72.5176ZM120.115 79.5925H112.155V87.5518H120.115L128.074 87.5518V72.5176H120.115L120.115 79.5925ZM151.952 72.5176H143.992V87.5518H151.952V72.5176Z" fill="#F86C14"/>
</svg>