<svg width="189" height="271" viewBox="0 0 189 271" fill="none" xmlns="http://www.w3.org/2000/svg">
<ellipse cx="100.195" cy="254.423" rx="63.4798" ry="15.6181" fill="url(#paint0_linear_8209_45238)"/>
<path d="M126.922 21.0133V27.017H123.92V30.0189H120.918V42.0263H117.916V51.0319H114.914V57.0356H111.912V63.0393H75.8901V57.0356H72.8883V51.0319H69.8864V42.0263H66.8846V30.0189H63.8827V27.017H60.8809V21.0133H63.8827V18.0114H69.8864V21.0133H72.8883V27.017H69.8864V30.0189H72.8883V33.0207H75.8901V36.0226H81.8939V33.0207H84.8957V27.017H87.8976V21.0133H90.8994V18.0114H87.8976V12.0077H90.8994V9.00586H96.9031V12.0077H99.905V18.0114H96.9031V21.0133H99.905V27.017H102.907V33.0207H105.909V36.0226H111.912V33.0207H114.914V30.0189H117.916V27.017H114.914V21.0133H117.916V18.0114H123.92V21.0133H126.922Z" fill="#D59F52"/>
<path fill-rule="evenodd" clip-rule="evenodd" d="M45.8198 66.8513H141.432V74.7004H150.752V90.4007H159.582V120.819H169.394V140.443H179.207V179.692H169.394V204.223H159.582V212.072H150.752V219.921H141.432V220.009H140.849V228.008L55.3203 228.008V220.009H45.8198V66.8513ZM45.8159 74.8521H36.3134V90.8537H26.8131V188.006H36.3134V212.008H45.8159V74.8521ZM26.8092 119.428H17.3067V180.005H26.8092V119.428ZM64.8226 228.01V236.011L131.345 236.011V228.01H64.8226Z" fill="#D59F52"/>
<rect x="129.166" y="109.042" width="16.6808" height="35.324" fill="#1A1918"/>
<rect x="137.012" y="112.968" width="8.83101" height="12.7559" fill="#FFFBF6"/>
<path d="M121.531 42.3198H65.8691V50.3206H121.531V42.3198Z" fill="#1A1918"/>
<path d="M131.034 235.621H64.5115V243.482H131.034V235.621Z" fill="#1A1918"/>
<path d="M54.5911 58.0194H45.7601V66.8504H55.0083L54.5911 58.0194Z" fill="#1A1918"/>
<path d="M131.034 58.3213H140.537V66.8504H131.034V58.3213Z" fill="#1A1918"/>
<path d="M121.531 50.3206H131.034V58.3213H121.531V50.3206Z" fill="#1A1918"/>
<path d="M54.5911 50.3206H65.8691V58.3213L54.5911 58.0194V50.3206Z" fill="#1A1918"/>
<path d="M45.7601 66.8504H36.002V74.7002H45.7601V66.8504Z" fill="#1A1918"/>
<path d="M140.537 66.8504H150.04V74.7002H140.537V66.8504Z" fill="#1A1918"/>
<path d="M36.002 74.7002H26.4988V90.3243H36.002V74.7002Z" fill="#1A1918"/>
<path d="M26.4988 90.3243H16.9956V118.898H26.4988V90.3243Z" fill="#1A1918"/>
<path d="M150.04 74.7002H159.543V90.3997H150.04V74.7002Z" fill="#1A1918"/>
<path d="M16.9956 118.898H7.49242V179.476H16.9956V118.898Z" fill="#1A1918"/>
<path d="M169.394 90.3997H159.543V121.184H169.394V90.3997Z" fill="#1A1918"/>
<path d="M36.002 187.476H26.4988V211.09H36.002V187.476Z" fill="#1A1918"/>
<path d="M169.394 179.476H179.206V203.24H169.394V179.476Z" fill="#1A1918"/>
<path d="M169.394 121.184H179.206V140.615H169.394V121.184Z" fill="#1A1918"/>
<path d="M45.5051 211.09H36.002V219.479H45.5051V211.09Z" fill="#1A1918"/>
<path d="M26.4988 179.476H16.9956V187.476H26.4988V179.476Z" fill="#1A1918"/>
<path d="M150.751 212.071H159.543V219.921H150.751V212.071Z" fill="#1A1918"/>
<path d="M159.543 203.24H169.394V212.071H159.543V203.24Z" fill="#1A1918"/>
<path d="M54.5911 219.479H45.5051V227.771H54.5911V219.479Z" fill="#1A1918"/>
<path d="M140.939 219.921H150.751V227.771H140.939V219.921Z" fill="#1A1918"/>
<path d="M64.5115 227.771H54.5911V235.621H64.5115V227.771Z" fill="#1A1918"/>
<path d="M131.034 227.771H140.939V235.621H131.034V227.771Z" fill="#1A1918"/>
<path d="M188.053 140.615H179.206V179.476H188.053V140.615Z" fill="#1A1918"/>
<rect x="66.3652" y="109.042" width="16.6808" height="35.324" fill="#1A1918"/>
<rect x="74.2148" y="112.968" width="8.83101" height="12.7559" fill="#FFFBF6"/>
<rect width="7.84978" height="16.6808" transform="matrix(-1 0 0 1 93.8379 147.31)" fill="#1A1918"/>
<rect width="6.86856" height="16.6808" transform="matrix(-1 0 0 1 127.201 147.31)" fill="#1A1918"/>
<rect width="27.3188" height="8.31442" transform="matrix(-1 0 0 1 120.438 147.31)" fill="#1A1918"/>
<rect width="27.4742" height="8.83101" transform="matrix(-1 0 0 1 120.332 155.161)" fill="#FFFBF6"/>
<rect width="27.3188" height="7.12665" transform="matrix(-1 0 0 1 83.5117 244.499)" fill="#B17C31"/>
<rect width="23.5493" height="6.86856" transform="matrix(-1 0 0 1 143.881 244.451)" fill="#B17C31"/>
<rect width="27.4742" height="7.84978" transform="matrix(-1 0 0 1 120.332 163.992)" fill="#1A1918"/>
<rect width="27.4742" height="8.83101" transform="matrix(-1 0 0 1 83.0449 235.62)" fill="#1A1918"/>
<rect width="26.493" height="8.83101" transform="matrix(-1 0 0 1 83.0449 251.32)" fill="#1A1918"/>
<rect width="25.5118" height="8.83101" transform="matrix(-1 0 0 1 145.846 251.32)" fill="#1A1918"/>
<path fill-rule="evenodd" clip-rule="evenodd" d="M121.529 50.3213H65.868V58.0209H54.5877V66.8519H65.8691V74.3234H114.743V66.8519H131.123V58.0209H121.529V50.3213ZM99.8098 74.3235H65.8699V82.3242H99.8098V74.3235Z" fill="#EBBA77"/>
<path fill-rule="evenodd" clip-rule="evenodd" d="M45.7641 66.8513H54.5951V111.006H45.7641V66.8513ZM35.9493 74.702H45.7616V187.48H55.012V195.48L82.1603 195.48V203.481L91.6626 203.481V211.481H45.5043V211.092H35.9493V187.478H26.4989V179.478H16.9966V118.901H26.4989V90.3264H35.9493V74.702ZM101.167 211.481V218.942H131.128L131.128 211.093H140.94V203.241H140.941L140.941 195.392H169.396L169.396 203.241H159.583V212.072H150.753V219.924H140.941V227.773H131.13V235.622H64.4069L64.4069 227.773H54.5938V219.482H45.5055V211.481H101.167Z" fill="#B17C31"/>
<rect width="7.84978" height="24.5306" transform="matrix(-1 0 0 1 62.4395 235.62)" fill="#1A1918"/>
<rect width="7.84978" height="23.5493" transform="matrix(-1 0 0 1 85.0078 236.602)" fill="#1A1918"/>
<rect width="6.86856" height="24.5306" transform="matrix(-1 0 0 1 145.846 235.62)" fill="#1A1918"/>
<rect width="6.86856" height="23.5493" transform="matrix(-1 0 0 1 127.201 236.602)" fill="#1A1918"/>
<rect width="25.5118" height="8.83101" transform="matrix(-1 0 0 1 145.846 235.62)" fill="#1A1918"/>
<path d="M64.5904 152.952V160.924H62.9959V162.519H61.4015V164.113H59.807V165.708H58.2125V167.302H56.618V168.897H55.0235V170.491H53.429V172.086H51.8345V173.68H50.24V175.274H48.6456V176.869H45.4566V175.274H43.8621V173.68H42.2676V172.086H40.6731V170.491H39.0786V168.897H37.4842V167.302H35.8897V165.708H34.2952V164.113H32.7007V162.519H31.1062V160.924H29.5117V152.952H31.1062V151.357H32.7007V149.763H34.2952V148.168H43.8621V149.763H45.4566V151.357H48.6456V149.763H50.24V148.168H59.807V149.763H61.4015V151.357H62.9959V152.952H64.5904Z" fill="#FA4C4C"/>
<path d="M22.0703 134.308V139.01H21.1299V139.95H20.1896V140.89H19.2492V141.831H18.3089V142.771H17.3686V143.711H16.4282V144.652H15.4879V145.592H14.5476V146.532H13.6072V147.473H12.6669V148.413H10.7862V147.473H9.84586V146.532H8.90552V145.592H7.96518V144.652H7.02484V143.711H6.0845V142.771H5.14417V141.831H4.20383V140.89H3.26349V139.95H2.32315V139.01H1.38281V134.308H2.32315V133.368H3.26349V132.427H4.20383V131.487H9.84586V132.427H10.7862V133.368H12.6669V132.427H13.6072V131.487H19.2492V132.427H20.1896V133.368H21.1299V134.308H22.0703Z" fill="#FA4C4C"/>
<path d="M187.896 134.308V139.01H186.956V139.95H186.016V140.89H185.075V141.831H184.135V142.771H183.195V143.711H182.254V144.652H181.314V145.592H180.374V146.532H179.433V147.473H178.493V148.413H176.612V147.473H175.672V146.532H174.732V145.592H173.791V144.652H172.851V143.711H171.911V142.771H170.97V141.831H170.03V140.89H169.09V139.95H168.149V139.01H167.209V134.308H168.149V133.368H169.09V132.427H170.03V131.487H175.672V132.427H176.612V133.368H178.493V132.427H179.433V131.487H185.075V132.427H186.016V133.368H186.956V134.308H187.896Z" fill="#FA4C4C"/>
<path d="M172.524 152.952V160.924H170.93V162.519H169.335V164.113H167.741V165.708H166.146V167.302H164.552V168.897H162.957V170.491H161.363V172.086H159.768V173.68H158.174V175.274H156.579V176.869H153.39V175.274H151.796V173.68H150.201V172.086H148.607V170.491H147.012V168.897H145.418V167.302H143.823V165.708H142.229V164.113H140.634V162.519H139.04V160.924H137.445V152.952H139.04V151.357H140.634V149.763H142.229V148.168H151.796V149.763H153.39V151.357H156.579V149.763H158.174V148.168H167.741V149.763H169.335V151.357H170.93V152.952H172.524Z" fill="#FA4C4C"/>
<defs>
<linearGradient id="paint0_linear_8209_45238" x1="164" y1="254" x2="37" y2="254" gradientUnits="userSpaceOnUse">
<stop stop-color="#F4D59D"/>
<stop offset="0.525" stop-color="#ECBC7B"/>
<stop offset="1" stop-color="#F4D59D"/>
</linearGradient>
</defs>
</svg>
