<svg width="122" height="119" viewBox="0 0 122 119" fill="none" xmlns="http://www.w3.org/2000/svg">
<path d="M116.597 35.5955V45.4078H111.691V50.3139H106.785V69.9385H101.879V84.6569H96.9726V94.4692H92.0665V104.281H33.1928V94.4692H28.2867V84.6569H23.3805V69.9385H18.4744V50.3139H13.5682V45.4078H8.66211V35.5955H13.5682V30.6894H23.3805V35.5955H28.2867V45.4078H23.3805V50.3139H28.2867V55.2201H33.1928V60.1262H43.0051V55.2201H47.9112V45.4078H52.8174V35.5955H57.7235V30.6894H52.8174V20.8771H57.7235V15.9709H67.5358V20.8771H72.4419V30.6894H67.5358V35.5955H72.4419V45.4078H77.3481V55.2201H82.2542V60.1262H92.0665V55.2201H96.9726V50.3139H101.879V45.4078H96.9726V35.5955H101.879V30.6894H111.691V35.5955H116.597Z" fill="#F86C14"/>
<path d="M112.839 34.3428V44.1551H107.933V49.0612H103.027V68.6858H98.121V83.4042H93.2148V93.2165H88.3087V103.029H29.435V93.2165H24.5289V83.4042H19.6227V68.6858H14.7166V49.0612H9.81044V44.1551H4.9043V34.3428H9.81044V29.4367H19.6227V34.3428H24.5289V44.1551H19.6227V49.0612H24.5289V53.9674H29.435V58.8735H39.2473V53.9674H44.1534V44.1551H49.0596V34.3428H53.9657V29.4367H49.0596V19.6244H53.9657V14.7183H63.778V19.6244H68.6841V29.4367H63.778V34.3428H68.6841V44.1551H73.5903V53.9674H78.4964V58.8735H88.3087V53.9674H93.2148V49.0612H98.121V44.1551H93.2148V34.3428H98.121V29.4367H107.933V34.3428H112.839Z" fill="#FFC700"/>
<path d="M44.0287 75.8078H41.2917V74.7368H43.0053V73.7134H44.7903V72.6662H46.5753V71.619H47.7891V70.7146H41.9343V69.715H47.7177V68.3346H46.5277V67.3826H48.8839V68.3346H50.0501V69.715H55.8335V70.7146H49.9787V71.619H51.1925V72.6662H52.9775V73.7134H54.7625V74.7368H56.4761V75.8078H53.7391V74.7368H51.9779V73.6896H49.9787V72.6186H47.7891V73.6896H45.7899V74.7368H44.0287V75.8078ZM39.5067 77.1168H58.2611V78.164H50.0263V80.425H55.0243V83.4H53.8343V84.471H44.7665V86.8748H55.6431V87.922H43.5765V86.851H42.3865V84.5424H43.5765V83.4714H52.6443V81.4246H42.6245V80.425H47.7415V78.164H39.5067V77.1168ZM79.2391 69.834V78.6876H78.1205V79.7348H76.9781V74.0228H72.7179V72.9994H76.9781V69.834H75.9071V68.763H78.1205V69.834H79.2391ZM61.5795 77.807H62.9361V76.7122H64.2927V75.6412H65.5541V74.594H66.6251V70.31H65.5303V69.239H67.8627V70.31H69.0527V74.594H70.1237V75.5936H71.4565V76.5932H72.7655V77.5928H73.7175V78.5924H71.6945V77.5928H70.3855V76.5932H69.0527V75.5936H66.6251V76.7122H65.3637V77.807H64.0071V78.9494H61.5795V77.807ZM65.8635 81.0676H78.5251V87.208H77.3351V88.2552H76.1451V82.1148H65.8635V81.0676Z" fill="#F86C14"/>
<path d="M42.7747 74.5551H40.0377V73.4841H41.7513V72.4607H43.5363V71.4135H45.3213V70.3663H46.5351V69.4619H40.6803V68.4623H46.4637V67.0819H45.2737V66.1299H47.6299V67.0819H48.7961V68.4623H54.5795V69.4619H48.7247V70.3663H49.9385V71.4135H51.7235V72.4607H53.5085V73.4841H55.2221V74.5551H52.4851V73.4841H50.7239V72.4369H48.7247V71.3659H46.5351V72.4369H44.5359V73.4841H42.7747V74.5551ZM38.2527 75.8641H57.0071V76.9113H48.7723V79.1723H53.7703V82.1473H52.5803V83.2183H43.5125V85.6221H54.3891V86.6693H42.3225V85.5983H41.1325V83.2897H42.3225V82.2187H51.3903V80.1719H41.3705V79.1723H46.4875V76.9113H38.2527V75.8641ZM77.9852 68.5813V77.4349H76.8666V78.4821H75.7242V72.7701H71.464V71.7467H75.7242V68.5813H74.6532V67.5103H76.8666V68.5813H77.9852ZM60.3256 76.5543H61.6822V75.4595H63.0388V74.3885H64.3002V73.3413H65.3712V69.0573H64.2764V67.9863H66.6088V69.0573H67.7988V73.3413H68.8698V74.3409H70.2026V75.3405H71.5116V76.3401H72.4636V77.3397H70.4406V76.3401H69.1316V75.3405H67.7988V74.3409H65.3712V75.4595H64.1098V76.5543H62.7532V77.6967H60.3256V76.5543ZM64.6096 79.8149H77.2712V85.9553H76.0812V87.0025H74.8912V80.8621H64.6096V79.8149Z" fill="#1A1918"/>
</svg>
