<svg width="416" height="168" viewBox="0 0 416 168" fill="none" xmlns="http://www.w3.org/2000/svg">
<path d="M2.92383 7.33618L8.98222 1.83618L401.768 3.33618V5.83618H404.797V6.33618V161.336H6.96276V160.336H3.93356H2.92383V7.33618Z" fill="#FFFBF6"/>
<rect x="0.904297" y="112.336" width="3.0292" height="48" fill="#FFC700"/>
<path d="M0.904297 6.33618H3.93349V112.336H0.904297V6.33618Z" fill="#FFC700"/>
<rect x="412.875" y="164.336" width="1.00001" height="397.835" transform="rotate(90 412.875 164.336)" fill="#FFC700"/>
<rect x="410.856" y="162.336" width="2.00001" height="398.844" transform="rotate(90 410.856 162.336)" fill="#FFC700"/>
<rect x="410.856" y="165.336" width="2.00001" height="392.786" transform="rotate(90 410.856 165.336)" fill="#FFC700"/>
<rect x="3.76636" y="3.17224" width="2.86371" height="2.83611" fill="#FFC700"/>
<rect x="3.76636" y="45.7173" width="2.86371" height="2.83611" fill="#FFC700"/>
<rect x="63.9084" y="11.6819" width="2.86371" height="2.83611" fill="#FFC700"/>
<rect x="66.7715" y="8.84583" width="2.86371" height="2.83611" fill="#FFC700"/>
<rect x="61.0454" y="14.5178" width="2.86371" height="2.83611" fill="#FFC700"/>
<rect x="63.9084" y="17.3524" width="2.86371" height="2.83611" fill="#FFC700"/>
<rect x="66.7715" y="20.1899" width="2.86371" height="2.83611" fill="#FFC700"/>
<rect x="23.8125" y="37.2078" width="2.86371" height="2.83611" fill="#FFC700"/>
<rect x="26.677" y="37.2078" width="2.86371" height="2.83611" fill="#FFC700"/>
<rect x="29.5408" y="40.0437" width="2.86371" height="2.83611" fill="#FFC700"/>
<rect x="32.4048" y="42.8783" width="2.86371" height="2.83611" fill="#FFC700"/>
<rect x="46.7244" y="37.2078" width="2.86371" height="2.83611" fill="#FFC700"/>
<rect width="2.86371" height="2.83611" transform="matrix(-1 0 0 1 72.4998 37.2078)" fill="#FFC700"/>
<rect x="43.8613" y="40.0437" width="2.86371" height="2.83611" fill="#FFC700"/>
<rect width="2.86371" height="2.83611" transform="matrix(-1 0 0 1 75.3638 40.0437)" fill="#FFC700"/>
<rect x="43.8613" y="42.8783" width="2.86371" height="2.83611" fill="#FFC700"/>
<rect width="2.86371" height="2.83611" transform="matrix(-1 0 0 1 75.3638 42.8783)" fill="#FFC700"/>
<rect x="46.7244" y="45.7173" width="2.86371" height="2.83611" fill="#FFC700"/>
<rect width="2.86371" height="2.83611" transform="matrix(-1 0 0 1 72.4998 45.7173)" fill="#FFC700"/>
<rect x="52.4543" y="37.2078" width="2.86371" height="2.83611" fill="#FFC700"/>
<rect x="55.3154" y="45.7173" width="2.86371" height="2.83611" fill="#FFC700"/>
<rect x="58.1794" y="45.7173" width="2.86371" height="2.83611" fill="#FFC700"/>
<rect x="61.0454" y="42.8783" width="2.86371" height="2.83611" fill="#FFC700"/>
<rect x="58.1794" y="37.2078" width="2.86371" height="2.83611" fill="#FFC700"/>
<rect x="35.2703" y="45.7173" width="5.72781" height="2.8363" fill="#FFC700"/>
<rect width="2.86371" height="2.83611" transform="matrix(-1 0 0 1 86.8179 14.5178)" fill="#FFC700"/>
<rect width="2.86371" height="2.83611" transform="matrix(-1 0 0 1 83.9558 11.6819)" fill="#FFC700"/>
<rect width="2.86371" height="2.83611" transform="matrix(-1 0 0 1 81.0908 8.84583)" fill="#FFC700"/>
<rect width="2.86371" height="2.83611" transform="matrix(-1 0 0 1 83.9558 17.3524)" fill="#FFC700"/>
<rect width="2.86373" height="14.1806" transform="matrix(-1 0 0 1 98.2734 8.84583)" fill="#FFC700"/>
<rect width="2.86373" height="14.1806" transform="matrix(-1 0 0 1 353.158 8.84583)" fill="#FFC700"/>
<rect width="2.86371" height="2.83611" transform="matrix(-1 0 0 1 81.2717 20.1899)" fill="#FFC700"/>
<rect x="6.62939" y="42.8783" width="2.86371" height="2.83611" fill="#FFC700"/>
<rect x="9.49438" y="40.0437" width="2.86371" height="2.83611" fill="#FFC700"/>
<rect x="98.2734" y="40.0437" width="2.86371" height="2.83611" fill="#FFC700"/>
<rect x="135.504" y="40.0437" width="2.86371" height="2.83611" fill="#FFC700"/>
<rect x="101.138" y="42.8783" width="2.86371" height="2.83611" fill="#FFC700"/>
<rect x="118.321" y="38.6243" width="2.8639" height="8.5089" fill="#FFC700"/>
<rect x="378.932" y="11.6819" width="2.8639" height="8.5089" fill="#FFC700"/>
<rect x="390.387" y="11.6819" width="2.86371" height="2.83611" fill="#FFC700"/>
<rect x="390.387" y="17.3524" width="2.86371" height="2.83611" fill="#FFC700"/>
<rect x="367.476" y="14.5178" width="2.86371" height="2.83611" fill="#FFC700"/>
<rect x="364.613" y="17.3524" width="2.86371" height="2.83611" fill="#FFC700"/>
<rect x="361.75" y="14.5178" width="2.86371" height="2.83611" fill="#FFC700"/>
<rect x="364.613" y="11.6819" width="2.86371" height="2.83611" fill="#FFC700"/>
<rect x="396.115" y="11.6819" width="2.86371" height="2.83611" fill="#FFC700"/>
<rect x="396.115" y="17.3524" width="2.86371" height="2.83611" fill="#FFC700"/>
<rect x="115.458" y="41.4602" width="8.59171" height="2.8363" fill="#FFC700"/>
<rect x="376.069" y="14.5178" width="8.59171" height="2.8363" fill="#FFC700"/>
<rect x="138.368" y="42.8783" width="2.86371" height="2.83611" fill="#FFC700"/>
<rect x="104.002" y="45.7173" width="2.86371" height="2.83611" fill="#FFC700"/>
<rect x="141.231" y="45.7173" width="2.86371" height="2.83611" fill="#FFC700"/>
<rect x="106.866" y="48.5519" width="37.2302" height="2.83626" fill="#FFC700"/>
<rect x="144.095" y="48.5519" width="2.86371" height="2.83611" fill="#FFC700"/>
<rect x="15.2205" y="34.3701" width="2.86371" height="2.83611" fill="#FFC700"/>
<rect x="92.5464" y="34.3701" width="2.86371" height="2.83611" fill="#FFC700"/>
<rect x="98.2734" y="34.3701" width="2.86371" height="2.83611" fill="#FFC700"/>
<rect x="129.777" y="34.3701" width="2.86371" height="2.83611" fill="#FFC700"/>
<rect x="18.0859" y="31.5356" width="74.4604" height="2.83626" fill="#FFC700"/>
<rect x="101.138" y="31.5356" width="28.639" height="2.8363" fill="#FFC700"/>
<rect x="12.3579" y="37.2078" width="2.86371" height="2.83611" fill="#FFC700"/>
<rect x="95.4109" y="37.2078" width="2.86371" height="2.83611" fill="#FFC700"/>
<rect x="132.641" y="37.2078" width="2.86371" height="2.83611" fill="#FFC700"/>
<rect x="12.3589" y="8.84351" width="5.72781" height="2.8363" fill="#FFC700"/>
<rect x="26.677" y="8.84351" width="5.72781" height="2.8363" fill="#FFC700"/>
<rect x="40.9968" y="8.84351" width="5.72781" height="2.8363" fill="#FFC700"/>
<rect x="9.49438" y="11.681" width="2.8639" height="5.6726" fill="#FFC700"/>
<rect x="23.8132" y="11.681" width="2.8639" height="5.6726" fill="#FFC700"/>
<rect x="38.1335" y="11.681" width="2.8639" height="5.6726" fill="#FFC700"/>
<rect x="12.3579" y="17.3531" width="5.72781" height="2.8363" fill="#FFC700"/>
<rect x="26.677" y="17.3531" width="5.72781" height="2.8363" fill="#FFC700"/>
<rect x="40.9968" y="17.3531" width="5.72781" height="2.8363" fill="#FFC700"/>
<rect x="18.0857" y="11.681" width="2.8639" height="5.6726" fill="#FFC700"/>
<rect x="32.4045" y="11.681" width="2.8639" height="5.6726" fill="#FFC700"/>
<rect x="46.7241" y="11.681" width="2.8639" height="5.6726" fill="#FFC700"/>
<rect x="401.843" y="3.17224" width="2.86371" height="2.83611" fill="#FFC700"/>
<rect x="3.93359" y="160.336" width="3.0292" height="1" fill="#FFC700"/>
<rect x="6.62939" y="0.336182" width="395.213" height="2.83626" fill="#FFC700"/>
<rect x="98.2734" y="6.0083" width="252.02" height="2.83626" fill="#FFC700"/>
<rect x="98.2734" y="23.0244" width="252.02" height="2.83626" fill="#FFC700"/>
<rect x="135.919" y="48.5519" width="271.651" height="2.83626" fill="#FFC700"/>
<rect x="407.826" y="162.336" width="3.0292" height="156" transform="rotate(180 407.826 162.336)" fill="#FFC700"/>
<rect x="410.856" y="162.336" width="3.0292" height="153" transform="rotate(180 410.856 162.336)" fill="#FFC700"/>
<rect x="412.875" y="164.336" width="2.01946" height="153" transform="rotate(180 412.875 164.336)" fill="#FFC700"/>
<rect x="415.904" y="164.336" width="3.0292" height="152" transform="rotate(180 415.904 164.336)" fill="#FFC700"/>
<rect x="407.826" y="162.336" width="400.864" height="1" transform="rotate(180 407.826 162.336)" fill="#FFC700"/>
<rect x="390.661" y="119.336" width="3.0292" height="7" fill="#FFC700"/>
<rect x="390.661" y="128.336" width="3.0292" height="30" fill="#FFC700"/>
<path d="M393.69 55.3362L393.69 117.336L390.661 117.336L390.661 55.3362L393.69 55.3362Z" fill="#FFC700"/>
</svg>
