<svg width="112" height="32" viewBox="0 0 112 32" fill="none" xmlns="http://www.w3.org/2000/svg">
<mask id="path-1-outside-1_993_20273" maskUnits="userSpaceOnUse" x="0.913574" y="6.19421" width="108" height="22" fill="black">
<rect fill="white" x="0.913574" y="6.19421" width="108" height="22"/>
<path d="M21.0521 8.38073V25.636H19.8985V26.716H18.7203V8.38073H17.6158V7.27619H19.8985V8.38073H21.0521ZM2.66776 17.3643H10.6695V16.2352H11.8231V15.057H12.9768V13.2161H4.01775V12.1852H12.9768V9.2889H4.2632V8.258H14.2286V9.23981H15.4558V15.057H14.2286V16.2352H12.9768V17.3643H17.0022V18.4443H11.1113V25.3169H10.0068V26.3969H8.87771V18.4443H2.66776V17.3643ZM29.8253 16.5788H31.7644V15.4743H33.6053V14.3698H35.4953V13.2652H36.7225V9.46072H30.8071V8.40528H45.0925V9.46072H39.1525V13.2652H40.3798V14.3698H42.2698V15.4743H44.1107V16.5788H46.0497V17.757H43.0552V16.5788H41.2389V15.4498H39.1525V14.3207H36.7225V15.4498H34.6362V16.5788H32.8199V17.757H29.8253V16.5788ZM28.4508 22.2979H47.7924V23.3779H28.4508V22.2979ZM82.5495 8.57709H66.8405V7.52165H82.5495V8.57709ZM65.0242 16.1861H84.3658V17.217H75.8731V19.5243H81.0276V22.4942H79.8004V23.5988H70.4487V25.9551H81.6658V27.0351H69.2214V25.9306H67.9941V23.6724H69.2214V22.5679H78.5731V20.5306H68.2396V19.5243H73.5168V17.217H65.0242V16.1861ZM66.8405 13.2407H70.7923V12.1362H69.5896V9.68163H72.0441V12.1362H73.2468V13.2407H76.1431V12.1362H77.3459V9.68163H79.8004V12.1362H78.5977V13.2407H82.5495V14.247H66.8405V13.2407ZM104.405 7.27619H106.688V8.38073H107.842V25.636H106.688V26.716H105.51V8.38073H104.405V7.27619ZM90.9545 19.917H92.7463V18.6897H94.3172V17.4625H95.8881V16.2352H97.459V15.0079H99.0298V9.80435H91.4454V8.77345H100.355V9.75526H101.533V15.0079H100.306V16.2352H98.6126V17.4625H97.0662L97.0417 18.6897H95.4708V19.917H93.8999V21.1443H90.9545V19.917Z"/>
</mask>
<path d="M21.0521 8.38073V25.636H19.8985V26.716H18.7203V8.38073H17.6158V7.27619H19.8985V8.38073H21.0521ZM2.66776 17.3643H10.6695V16.2352H11.8231V15.057H12.9768V13.2161H4.01775V12.1852H12.9768V9.2889H4.2632V8.258H14.2286V9.23981H15.4558V15.057H14.2286V16.2352H12.9768V17.3643H17.0022V18.4443H11.1113V25.3169H10.0068V26.3969H8.87771V18.4443H2.66776V17.3643ZM29.8253 16.5788H31.7644V15.4743H33.6053V14.3698H35.4953V13.2652H36.7225V9.46072H30.8071V8.40528H45.0925V9.46072H39.1525V13.2652H40.3798V14.3698H42.2698V15.4743H44.1107V16.5788H46.0497V17.757H43.0552V16.5788H41.2389V15.4498H39.1525V14.3207H36.7225V15.4498H34.6362V16.5788H32.8199V17.757H29.8253V16.5788ZM28.4508 22.2979H47.7924V23.3779H28.4508V22.2979ZM82.5495 8.57709H66.8405V7.52165H82.5495V8.57709ZM65.0242 16.1861H84.3658V17.217H75.8731V19.5243H81.0276V22.4942H79.8004V23.5988H70.4487V25.9551H81.6658V27.0351H69.2214V25.9306H67.9941V23.6724H69.2214V22.5679H78.5731V20.5306H68.2396V19.5243H73.5168V17.217H65.0242V16.1861ZM66.8405 13.2407H70.7923V12.1362H69.5896V9.68163H72.0441V12.1362H73.2468V13.2407H76.1431V12.1362H77.3459V9.68163H79.8004V12.1362H78.5977V13.2407H82.5495V14.247H66.8405V13.2407ZM104.405 7.27619H106.688V8.38073H107.842V25.636H106.688V26.716H105.51V8.38073H104.405V7.27619ZM90.9545 19.917H92.7463V18.6897H94.3172V17.4625H95.8881V16.2352H97.459V15.0079H99.0298V9.80435H91.4454V8.77345H100.355V9.75526H101.533V15.0079H100.306V16.2352H98.6126V17.4625H97.0662L97.0417 18.6897H95.4708V19.917H93.8999V21.1443H90.9545V19.917Z" fill="#FB873F"/>
<path d="M21.0521 8.38073H21.8563V7.57658H21.0521V8.38073ZM21.0521 25.636V26.4402H21.8563V25.636H21.0521ZM19.8985 25.636V24.8319H19.0944V25.636H19.8985ZM19.8985 26.716V27.5202H20.7027V26.716H19.8985ZM18.7203 26.716H17.9162V27.5202H18.7203V26.716ZM18.7203 8.38073H19.5245V7.57658H18.7203V8.38073ZM17.6158 8.38073H16.8117V9.18488H17.6158V8.38073ZM17.6158 7.2762V6.47205H16.8117V7.2762H17.6158ZM19.8985 7.2762H20.7027V6.47205H19.8985V7.2762ZM19.8985 8.38073H19.0944V9.18488H19.8985V8.38073ZM2.66776 17.3643V16.5601H1.86362V17.3643H2.66776ZM10.6695 17.3643V18.1684H11.4737V17.3643H10.6695ZM10.6695 16.2352V15.4311H9.86536V16.2352H10.6695ZM11.8231 16.2352V17.0394H12.6273V16.2352H11.8231ZM11.8231 15.057V14.2529H11.019V15.057H11.8231ZM12.9768 15.057V15.8612H13.7809V15.057H12.9768ZM12.9768 13.2161H13.7809V12.412H12.9768V13.2161ZM4.01775 13.2161H3.2136V14.0203H4.01775V13.2161ZM4.01775 12.1852V11.3811H3.2136V12.1852H4.01775ZM12.9768 12.1852V12.9894H13.7809V12.1852H12.9768ZM12.9768 9.2889H13.7809V8.48476H12.9768V9.2889ZM4.2632 9.2889H3.45906V10.0931H4.2632V9.2889ZM4.2632 8.258V7.45385H3.45906V8.258H4.2632ZM14.2286 8.258H15.0327V7.45385H14.2286V8.258ZM14.2286 9.23981H13.4244V10.044H14.2286V9.23981ZM15.4558 9.23981H16.26V8.43566H15.4558V9.23981ZM15.4558 15.057V15.8612H16.26V15.057H15.4558ZM14.2286 15.057V14.2529H13.4244V15.057H14.2286ZM14.2286 16.2352V17.0394H15.0327V16.2352H14.2286ZM12.9768 16.2352V15.4311H12.1726V16.2352H12.9768ZM12.9768 17.3643H12.1726V18.1684H12.9768V17.3643ZM17.0022 17.3643H17.8063V16.5601H17.0022V17.3643ZM17.0022 18.4443V19.2484H17.8063V18.4443H17.0022ZM11.1113 18.4443V17.6401H10.3072V18.4443H11.1113ZM11.1113 25.3169V26.1211H11.9155V25.3169H11.1113ZM10.0068 25.3169V24.5128H9.20264V25.3169H10.0068ZM10.0068 26.3969V27.2011H10.8109V26.3969H10.0068ZM8.87771 26.3969H8.07356V27.2011H8.87771V26.3969ZM8.87771 18.4443H9.68186V17.6401H8.87771V18.4443ZM2.66776 18.4443H1.86362V19.2484H2.66776V18.4443ZM20.248 8.38073V25.636H21.8563V8.38073H20.248ZM21.0521 24.8319H19.8985V26.4402H21.0521V24.8319ZM19.0944 25.636V26.716H20.7027V25.636H19.0944ZM19.8985 25.9119H18.7203V27.5202H19.8985V25.9119ZM19.5245 26.716V8.38073H17.9162V26.716H19.5245ZM18.7203 7.57658H17.6158V9.18488H18.7203V7.57658ZM18.42 8.38073V7.2762H16.8117V8.38073H18.42ZM17.6158 8.08034H19.8985V6.47205H17.6158V8.08034ZM19.0944 7.2762V8.38073H20.7027V7.2762H19.0944ZM19.8985 9.18488H21.0521V7.57658H19.8985V9.18488ZM2.66776 18.1684H10.6695V16.5601H2.66776V18.1684ZM11.4737 17.3643V16.2352H9.86536V17.3643H11.4737ZM10.6695 17.0394H11.8231V15.4311H10.6695V17.0394ZM12.6273 16.2352V15.057H11.019V16.2352H12.6273ZM11.8231 15.8612H12.9768V14.2529H11.8231V15.8612ZM13.7809 15.057V13.2161H12.1726V15.057H13.7809ZM12.9768 12.412H4.01775V14.0203H12.9768V12.412ZM4.8219 13.2161V12.1852H3.2136V13.2161H4.8219ZM4.01775 12.9894H12.9768V11.3811H4.01775V12.9894ZM13.7809 12.1852V9.2889H12.1726V12.1852H13.7809ZM12.9768 8.48476H4.2632V10.0931H12.9768V8.48476ZM5.06735 9.2889V8.258H3.45906V9.2889H5.06735ZM4.2632 9.06215H14.2286V7.45385H4.2632V9.06215ZM13.4244 8.258V9.23981H15.0327V8.258H13.4244ZM14.2286 10.044H15.4558V8.43566H14.2286V10.044ZM14.6517 9.23981V15.057H16.26V9.23981H14.6517ZM15.4558 14.2529H14.2286V15.8612H15.4558V14.2529ZM13.4244 15.057V16.2352H15.0327V15.057H13.4244ZM14.2286 15.4311H12.9768V17.0394H14.2286V15.4311ZM12.1726 16.2352V17.3643H13.7809V16.2352H12.1726ZM12.9768 18.1684H17.0022V16.5601H12.9768V18.1684ZM16.198 17.3643V18.4443H17.8063V17.3643H16.198ZM17.0022 17.6401H11.1113V19.2484H17.0022V17.6401ZM10.3072 18.4443V25.3169H11.9155V18.4443H10.3072ZM11.1113 24.5128H10.0068V26.1211H11.1113V24.5128ZM9.20264 25.3169V26.3969H10.8109V25.3169H9.20264ZM10.0068 25.5928H8.87771V27.2011H10.0068V25.5928ZM9.68186 26.3969V18.4443H8.07356V26.3969H9.68186ZM8.87771 17.6401H2.66776V19.2484H8.87771V17.6401ZM3.47191 18.4443V17.3643H1.86362V18.4443H3.47191ZM29.8253 16.5788V15.7747H29.0212V16.5788H29.8253ZM31.7644 16.5788V17.383H32.5686V16.5788H31.7644ZM31.7644 15.4743V14.6702H30.9603V15.4743H31.7644ZM33.6053 15.4743V16.2785H34.4095V15.4743H33.6053ZM33.6053 14.3698V13.5656H32.8012V14.3698H33.6053ZM35.4953 14.3698V15.1739H36.2994V14.3698H35.4953ZM35.4953 13.2652V12.4611H34.6911V13.2652H35.4953ZM36.7225 13.2652V14.0694H37.5267V13.2652H36.7225ZM36.7225 9.46072H37.5267V8.65657H36.7225V9.46072ZM30.8071 9.46072H30.003V10.2649H30.8071V9.46072ZM30.8071 8.40528V7.60113H30.003V8.40528H30.8071ZM45.0925 8.40528H45.8966V7.60113H45.0925V8.40528ZM45.0925 9.46072V10.2649H45.8966V9.46072H45.0925ZM39.1525 9.46072V8.65657H38.3484V9.46072H39.1525ZM39.1525 13.2652H38.3484V14.0694H39.1525V13.2652ZM40.3798 13.2652H41.1839V12.4611H40.3798V13.2652ZM40.3798 14.3698H39.5756V15.1739H40.3798V14.3698ZM42.2698 14.3698H43.0739V13.5656H42.2698V14.3698ZM42.2698 15.4743H41.4656V16.2785H42.2698V15.4743ZM44.1107 15.4743H44.9148V14.6702H44.1107V15.4743ZM44.1107 16.5788H43.3065V17.383H44.1107V16.5788ZM46.0497 16.5788H46.8539V15.7747H46.0497V16.5788ZM46.0497 17.757V18.5612H46.8539V17.757H46.0497ZM43.0552 17.757H42.2511V18.5612H43.0552V17.757ZM43.0552 16.5788H43.8594V15.7747H43.0552V16.5788ZM41.2389 16.5788H40.4347V17.383H41.2389V16.5788ZM41.2389 15.4498H42.043V14.6456H41.2389V15.4498ZM39.1525 15.4498H38.3484V16.2539H39.1525V15.4498ZM39.1525 14.3207H39.9567V13.5165H39.1525V14.3207ZM36.7225 14.3207V13.5165H35.9184V14.3207H36.7225ZM36.7225 15.4498V16.2539H37.5267V15.4498H36.7225ZM34.6362 15.4498V14.6456H33.8321V15.4498H34.6362ZM34.6362 16.5788V17.383H35.4403V16.5788H34.6362ZM32.8199 16.5788V15.7747H32.0157V16.5788H32.8199ZM32.8199 17.757V18.5612H33.624V17.757H32.8199ZM29.8253 17.757H29.0212V18.5612H29.8253V17.757ZM28.4508 22.2979V21.4937H27.6467V22.2979H28.4508ZM47.7924 22.2979H48.5966V21.4937H47.7924V22.2979ZM47.7924 23.3779V24.182H48.5966V23.3779H47.7924ZM28.4508 23.3779H27.6467V24.182H28.4508V23.3779ZM29.8253 17.383H31.7644V15.7747H29.8253V17.383ZM32.5686 16.5788V15.4743H30.9603V16.5788H32.5686ZM31.7644 16.2785H33.6053V14.6702H31.7644V16.2785ZM34.4095 15.4743V14.3698H32.8012V15.4743H34.4095ZM33.6053 15.1739H35.4953V13.5656H33.6053V15.1739ZM36.2994 14.3698V13.2652H34.6911V14.3698H36.2994ZM35.4953 14.0694H36.7225V12.4611H35.4953V14.0694ZM37.5267 13.2652V9.46072H35.9184V13.2652H37.5267ZM36.7225 8.65657H30.8071V10.2649H36.7225V8.65657ZM31.6113 9.46072V8.40528H30.003V9.46072H31.6113ZM30.8071 9.20942H45.0925V7.60113H30.8071V9.20942ZM44.2883 8.40528V9.46072H45.8966V8.40528H44.2883ZM45.0925 8.65657H39.1525V10.2649H45.0925V8.65657ZM38.3484 9.46072V13.2652H39.9567V9.46072H38.3484ZM39.1525 14.0694H40.3798V12.4611H39.1525V14.0694ZM39.5756 13.2652V14.3698H41.1839V13.2652H39.5756ZM40.3798 15.1739H42.2698V13.5656H40.3798V15.1739ZM41.4656 14.3698V15.4743H43.0739V14.3698H41.4656ZM42.2698 16.2785H44.1107V14.6702H42.2698V16.2785ZM43.3065 15.4743V16.5788H44.9148V15.4743H43.3065ZM44.1107 17.383H46.0497V15.7747H44.1107V17.383ZM45.2456 16.5788V17.757H46.8539V16.5788H45.2456ZM46.0497 16.9529H43.0552V18.5612H46.0497V16.9529ZM43.8594 17.757V16.5788H42.2511V17.757H43.8594ZM43.0552 15.7747H41.2389V17.383H43.0552V15.7747ZM42.043 16.5788V15.4498H40.4347V16.5788H42.043ZM41.2389 14.6456H39.1525V16.2539H41.2389V14.6456ZM39.9567 15.4498V14.3207H38.3484V15.4498H39.9567ZM39.1525 13.5165H36.7225V15.1248H39.1525V13.5165ZM35.9184 14.3207V15.4498H37.5267V14.3207H35.9184ZM36.7225 14.6456H34.6362V16.2539H36.7225V14.6456ZM33.8321 15.4498V16.5788H35.4403V15.4498H33.8321ZM34.6362 15.7747H32.8199V17.383H34.6362V15.7747ZM32.0157 16.5788V17.757H33.624V16.5788H32.0157ZM32.8199 16.9529H29.8253V18.5612H32.8199V16.9529ZM30.6295 17.757V16.5788H29.0212V17.757H30.6295ZM28.4508 23.102H47.7924V21.4937H28.4508V23.102ZM46.9883 22.2979V23.3779H48.5966V22.2979H46.9883ZM47.7924 22.5737H28.4508V24.182H47.7924V22.5737ZM29.255 23.3779V22.2979H27.6467V23.3779H29.255ZM82.5495 8.57709V9.38124H83.3536V8.57709H82.5495ZM66.8405 8.57709H66.0364V9.38124H66.8405V8.57709ZM66.8405 7.52165V6.7175H66.0364V7.52165H66.8405ZM82.5495 7.52165H83.3536V6.7175H82.5495V7.52165ZM65.0242 16.1861V15.382H64.22V16.1861H65.0242ZM84.3658 16.1861H85.1699V15.382H84.3658V16.1861ZM84.3658 17.217V18.0212H85.1699V17.217H84.3658ZM75.8731 17.217V16.4129H75.069V17.217H75.8731ZM75.8731 19.5243H75.069V20.3284H75.8731V19.5243ZM81.0276 19.5243H81.8318V18.7201H81.0276V19.5243ZM81.0276 22.4942V23.2984H81.8318V22.4942H81.0276ZM79.8004 22.4942V21.6901H78.9962V22.4942H79.8004ZM79.8004 23.5988V24.4029H80.6045V23.5988H79.8004ZM70.4487 23.5988V22.7946H69.6445V23.5988H70.4487ZM70.4487 25.9551H69.6445V26.7593H70.4487V25.9551ZM81.6658 25.9551H82.47V25.151H81.6658V25.9551ZM81.6658 27.0351V27.8393H82.47V27.0351H81.6658ZM69.2214 27.0351H68.4172V27.8393H69.2214V27.0351ZM69.2214 25.9306H70.0255V25.1264H69.2214V25.9306ZM67.9941 25.9306H67.19V26.7347H67.9941V25.9306ZM67.9941 23.6724V22.8683H67.19V23.6724H67.9941ZM69.2214 23.6724V24.4766H70.0255V23.6724H69.2214ZM69.2214 22.5679V21.7637H68.4172V22.5679H69.2214ZM78.5731 22.5679V23.372H79.3773V22.5679H78.5731ZM78.5731 20.5306H79.3773V19.7265H78.5731V20.5306ZM68.2396 20.5306H67.4354V21.3348H68.2396V20.5306ZM68.2396 19.5243V18.7201H67.4354V19.5243H68.2396ZM73.5168 19.5243V20.3284H74.321V19.5243H73.5168ZM73.5168 17.217H74.321V16.4129H73.5168V17.217ZM65.0242 17.217H64.22V18.0212H65.0242V17.217ZM66.8405 13.2407V12.4365H66.0364V13.2407H66.8405ZM70.7923 13.2407V14.0448H71.5964V13.2407H70.7923ZM70.7923 12.1362H71.5964V11.332H70.7923V12.1362ZM69.5896 12.1362H68.7854V12.9403H69.5896V12.1362ZM69.5896 9.68163V8.87748H68.7854V9.68163H69.5896ZM72.0441 9.68163H72.8482V8.87748H72.0441V9.68163ZM72.0441 12.1362H71.2399V12.9403H72.0441V12.1362ZM73.2468 12.1362H74.051V11.332H73.2468V12.1362ZM73.2468 13.2407H72.4427V14.0448H73.2468V13.2407ZM76.1431 13.2407V14.0448H76.9473V13.2407H76.1431ZM76.1431 12.1362V11.332H75.339V12.1362H76.1431ZM77.3459 12.1362V12.9403H78.15V12.1362H77.3459ZM77.3459 9.68163V8.87748H76.5417V9.68163H77.3459ZM79.8004 9.68163H80.6045V8.87748H79.8004V9.68163ZM79.8004 12.1362V12.9403H80.6045V12.1362H79.8004ZM78.5977 12.1362V11.332H77.7935V12.1362H78.5977ZM78.5977 13.2407H77.7935V14.0448H78.5977V13.2407ZM82.5495 13.2407H83.3536V12.4365H82.5495V13.2407ZM82.5495 14.247V15.0512H83.3536V14.247H82.5495ZM66.8405 14.247H66.0364V15.0512H66.8405V14.247ZM82.5495 7.77294H66.8405V9.38124H82.5495V7.77294ZM67.6447 8.57709V7.52165H66.0364V8.57709H67.6447ZM66.8405 8.3258H82.5495V6.7175H66.8405V8.3258ZM81.7453 7.52165V8.57709H83.3536V7.52165H81.7453ZM65.0242 16.9903H84.3658V15.382H65.0242V16.9903ZM83.5617 16.1861V17.217H85.1699V16.1861H83.5617ZM84.3658 16.4129H75.8731V18.0212H84.3658V16.4129ZM75.069 17.217V19.5243H76.6773V17.217H75.069ZM75.8731 20.3284H81.0276V18.7201H75.8731V20.3284ZM80.2235 19.5243V22.4942H81.8318V19.5243H80.2235ZM81.0276 21.6901H79.8004V23.2984H81.0276V21.6901ZM78.9962 22.4942V23.5988H80.6045V22.4942H78.9962ZM79.8004 22.7946H70.4487V24.4029H79.8004V22.7946ZM69.6445 23.5988V25.9551H71.2528V23.5988H69.6445ZM70.4487 26.7593H81.6658V25.151H70.4487V26.7593ZM80.8617 25.9551V27.0351H82.47V25.9551H80.8617ZM81.6658 26.231H69.2214V27.8393H81.6658V26.231ZM70.0255 27.0351V25.9306H68.4172V27.0351H70.0255ZM69.2214 25.1264H67.9941V26.7347H69.2214V25.1264ZM68.7983 25.9306V23.6724H67.19V25.9306H68.7983ZM67.9941 24.4766H69.2214V22.8683H67.9941V24.4766ZM70.0255 23.6724V22.5679H68.4172V23.6724H70.0255ZM69.2214 23.372H78.5731V21.7637H69.2214V23.372ZM79.3773 22.5679V20.5306H77.769V22.5679H79.3773ZM78.5731 19.7265H68.2396V21.3348H78.5731V19.7265ZM69.0437 20.5306V19.5243H67.4354V20.5306H69.0437ZM68.2396 20.3284H73.5168V18.7201H68.2396V20.3284ZM74.321 19.5243V17.217H72.7127V19.5243H74.321ZM73.5168 16.4129H65.0242V18.0212H73.5168V16.4129ZM65.8283 17.217V16.1861H64.22V17.217H65.8283ZM66.8405 14.0448H70.7923V12.4365H66.8405V14.0448ZM71.5964 13.2407V12.1362H69.9881V13.2407H71.5964ZM70.7923 11.332H69.5896V12.9403H70.7923V11.332ZM70.3937 12.1362V9.68163H68.7854V12.1362H70.3937ZM69.5896 10.4858H72.0441V8.87748H69.5896V10.4858ZM71.2399 9.68163V12.1362H72.8482V9.68163H71.2399ZM72.0441 12.9403H73.2468V11.332H72.0441V12.9403ZM72.4427 12.1362V13.2407H74.051V12.1362H72.4427ZM73.2468 14.0448H76.1431V12.4365H73.2468V14.0448ZM76.9473 13.2407V12.1362H75.339V13.2407H76.9473ZM76.1431 12.9403H77.3459V11.332H76.1431V12.9403ZM78.15 12.1362V9.68163H76.5417V12.1362H78.15ZM77.3459 10.4858H79.8004V8.87748H77.3459V10.4858ZM78.9962 9.68163V12.1362H80.6045V9.68163H78.9962ZM79.8004 11.332H78.5977V12.9403H79.8004V11.332ZM77.7935 12.1362V13.2407H79.4018V12.1362H77.7935ZM78.5977 14.0448H82.5495V12.4365H78.5977V14.0448ZM81.7453 13.2407V14.247H83.3536V13.2407H81.7453ZM82.5495 13.4429H66.8405V15.0512H82.5495V13.4429ZM67.6447 14.247V13.2407H66.0364V14.247H67.6447ZM104.405 7.2762V6.47205H103.601V7.2762H104.405ZM106.688 7.2762H107.492V6.47205H106.688V7.2762ZM106.688 8.38073H105.884V9.18488H106.688V8.38073ZM107.842 8.38073H108.646V7.57658H107.842V8.38073ZM107.842 25.636V26.4402H108.646V25.636H107.842ZM106.688 25.636V24.8319H105.884V25.636H106.688ZM106.688 26.716V27.5202H107.492V26.716H106.688ZM105.51 26.716H104.706V27.5202H105.51V26.716ZM105.51 8.38073H106.314V7.57658H105.51V8.38073ZM104.405 8.38073H103.601V9.18488H104.405V8.38073ZM90.9545 19.917V19.1128H90.1503V19.917H90.9545ZM92.7463 19.917V20.7211H93.5504V19.917H92.7463ZM92.7463 18.6897V17.8856H91.9421V18.6897H92.7463ZM94.3172 18.6897V19.4939H95.1213V18.6897H94.3172ZM94.3172 17.4625V16.6583H93.513V17.4625H94.3172ZM95.8881 17.4625V18.2666H96.6922V17.4625H95.8881ZM95.8881 16.2352V15.4311H95.0839V16.2352H95.8881ZM97.459 16.2352V17.0394H98.2631V16.2352H97.459ZM97.459 15.0079V14.2038H96.6548V15.0079H97.459ZM99.0298 15.0079V15.8121H99.834V15.0079H99.0298ZM99.0298 9.80435H99.834V9.0002H99.0298V9.80435ZM91.4454 9.80435H90.6412V10.6085H91.4454V9.80435ZM91.4454 8.77345V7.96931H90.6412V8.77345H91.4454ZM100.355 8.77345H101.159V7.96931H100.355V8.77345ZM100.355 9.75526H99.5511V10.5594H100.355V9.75526ZM101.533 9.75526H102.338V8.95112H101.533V9.75526ZM101.533 15.0079V15.8121H102.338V15.0079H101.533ZM100.306 15.0079V14.2038H99.5021V15.0079H100.306ZM100.306 16.2352V17.0394H101.11V16.2352H100.306ZM98.6126 16.2352V15.4311H97.8084V16.2352H98.6126ZM98.6126 17.4625V18.2666H99.4167V17.4625H98.6126ZM97.0662 17.4625V16.6583H96.278L96.2622 17.4464L97.0662 17.4625ZM97.0417 18.6897V19.4939H97.8299L97.8457 18.7058L97.0417 18.6897ZM95.4708 18.6897V17.8856H94.6666V18.6897H95.4708ZM95.4708 19.917V20.7211H96.2749V19.917H95.4708ZM93.8999 19.917V19.1128H93.0957V19.917H93.8999ZM93.8999 21.1443V21.9484H94.704V21.1443H93.8999ZM90.9545 21.1443H90.1503V21.9484H90.9545V21.1443ZM104.405 8.08034H106.688V6.47205H104.405V8.08034ZM105.884 7.2762V8.38073H107.492V7.2762H105.884ZM106.688 9.18488H107.842V7.57658H106.688V9.18488ZM107.037 8.38073V25.636H108.646V8.38073H107.037ZM107.842 24.8319H106.688V26.4402H107.842V24.8319ZM105.884 25.636V26.716H107.492V25.636H105.884ZM106.688 25.9119H105.51V27.5202H106.688V25.9119ZM106.314 26.716V8.38073H104.706V26.716H106.314ZM105.51 7.57658H104.405V9.18488H105.51V7.57658ZM105.209 8.38073V7.2762H103.601V8.38073H105.209ZM90.9545 20.7211H92.7463V19.1128H90.9545V20.7211ZM93.5504 19.917V18.6897H91.9421V19.917H93.5504ZM92.7463 19.4939H94.3172V17.8856H92.7463V19.4939ZM95.1213 18.6897V17.4625H93.513V18.6897H95.1213ZM94.3172 18.2666H95.8881V16.6583H94.3172V18.2666ZM96.6922 17.4625V16.2352H95.0839V17.4625H96.6922ZM95.8881 17.0394H97.459V15.4311H95.8881V17.0394ZM98.2631 16.2352V15.0079H96.6548V16.2352H98.2631ZM97.459 15.8121H99.0298V14.2038H97.459V15.8121ZM99.834 15.0079V9.80435H98.2257V15.0079H99.834ZM99.0298 9.0002H91.4454V10.6085H99.0298V9.0002ZM92.2495 9.80435V8.77345H90.6412V9.80435H92.2495ZM91.4454 9.5776H100.355V7.96931H91.4454V9.5776ZM99.5511 8.77345V9.75526H101.159V8.77345H99.5511ZM100.355 10.5594H101.533V8.95112H100.355V10.5594ZM100.729 9.75526V15.0079H102.338V9.75526H100.729ZM101.533 14.2038H100.306V15.8121H101.533V14.2038ZM99.5021 15.0079V16.2352H101.11V15.0079H99.5021ZM100.306 15.4311H98.6126V17.0394H100.306V15.4311ZM97.8084 16.2352V17.4625H99.4167V16.2352H97.8084ZM98.6126 16.6583H97.0662V18.2666H98.6126V16.6583ZM96.2622 17.4464L96.2377 18.6736L97.8457 18.7058L97.8702 17.4785L96.2622 17.4464ZM97.0417 17.8856H95.4708V19.4939H97.0417V17.8856ZM94.6666 18.6897V19.917H96.2749V18.6897H94.6666ZM95.4708 19.1128H93.8999V20.7211H95.4708V19.1128ZM93.0957 19.917V21.1443H94.704V19.917H93.0957ZM93.8999 20.3401H90.9545V21.9484H93.8999V20.3401ZM91.7586 21.1443V19.917H90.1503V21.1443H91.7586Z" fill="#FB873F" mask="url(#path-1-outside-1_993_20273)"/>
<mask id="path-3-outside-2_993_20273" maskUnits="userSpaceOnUse" x="0.5" y="3.98022" width="108" height="22" fill="black">
<rect fill="white" x="0.5" y="3.98022" width="108" height="22"/>
<path d="M20.6386 6.16674V23.422H19.4849V24.502H18.3068V6.16674H17.2022V5.06221H19.4849V6.16674H20.6386ZM2.25419 15.1503H10.2559V14.0212H11.4096V12.843H12.5632V11.0022H3.60418V9.97125H12.5632V7.07491H3.84963V6.04401H13.815V7.02582H15.0423V12.843H13.815V14.0212H12.5632V15.1503H16.5886V16.2303H10.6978V23.103H9.59321V24.1829H8.46413V16.2303H2.25419V15.1503ZM29.4118 14.3648H31.3508V13.2603H33.1917V12.1558H35.0817V11.0512H36.309V7.24673H30.3936V6.19129H44.6789V7.24673H38.7389V11.0512H39.9662V12.1558H41.8562V13.2603H43.6971V14.3648H45.6362V15.543H42.6416V14.3648H40.8253V13.2358H38.7389V12.1067H36.309V13.2358H34.2226V14.3648H32.4063V15.543H29.4118V14.3648ZM28.0372 20.0839H47.3789V21.1639H28.0372V20.0839ZM82.1359 6.3631H66.4269V5.30766H82.1359V6.3631ZM64.6106 13.9721H83.9522V15.003H75.4596V17.3103H80.6141V20.2802H79.3868V21.3848H70.0351V23.7411H81.2522V24.8211H68.8078V23.7166H67.5806V21.4584H68.8078V20.3539H78.1595V18.3166H67.826V17.3103H73.1032V15.003H64.6106V13.9721ZM66.4269 11.0267H70.3787V9.92216H69.176V7.46764H71.6305V9.92216H72.8332V11.0267H75.7296V9.92216H76.9323V7.46764H79.3868V9.92216H78.1841V11.0267H82.1359V12.0331H66.4269V11.0267ZM103.992 5.06221H106.274V6.16674H107.428V23.422H106.274V24.502H105.096V6.16674H103.992V5.06221ZM90.5409 17.703H92.3327V16.4757H93.9036V15.2485H95.4745V14.0212H97.0454V12.794H98.6163V7.59036H91.0318V6.55946H99.9417V7.54127H101.12V12.794H99.8926V14.0212H98.199V15.2485H96.6527L96.6281 16.4757H95.0572V17.703H93.4863V18.9303H90.5409V17.703Z"/>
</mask>
<path d="M20.6386 6.16674V23.422H19.4849V24.502H18.3068V6.16674H17.2022V5.06221H19.4849V6.16674H20.6386ZM2.25419 15.1503H10.2559V14.0212H11.4096V12.843H12.5632V11.0022H3.60418V9.97125H12.5632V7.07491H3.84963V6.04401H13.815V7.02582H15.0423V12.843H13.815V14.0212H12.5632V15.1503H16.5886V16.2303H10.6978V23.103H9.59321V24.1829H8.46413V16.2303H2.25419V15.1503ZM29.4118 14.3648H31.3508V13.2603H33.1917V12.1558H35.0817V11.0512H36.309V7.24673H30.3936V6.19129H44.6789V7.24673H38.7389V11.0512H39.9662V12.1558H41.8562V13.2603H43.6971V14.3648H45.6362V15.543H42.6416V14.3648H40.8253V13.2358H38.7389V12.1067H36.309V13.2358H34.2226V14.3648H32.4063V15.543H29.4118V14.3648ZM28.0372 20.0839H47.3789V21.1639H28.0372V20.0839ZM82.1359 6.3631H66.4269V5.30766H82.1359V6.3631ZM64.6106 13.9721H83.9522V15.003H75.4596V17.3103H80.6141V20.2802H79.3868V21.3848H70.0351V23.7411H81.2522V24.8211H68.8078V23.7166H67.5806V21.4584H68.8078V20.3539H78.1595V18.3166H67.826V17.3103H73.1032V15.003H64.6106V13.9721ZM66.4269 11.0267H70.3787V9.92216H69.176V7.46764H71.6305V9.92216H72.8332V11.0267H75.7296V9.92216H76.9323V7.46764H79.3868V9.92216H78.1841V11.0267H82.1359V12.0331H66.4269V11.0267ZM103.992 5.06221H106.274V6.16674H107.428V23.422H106.274V24.502H105.096V6.16674H103.992V5.06221ZM90.5409 17.703H92.3327V16.4757H93.9036V15.2485H95.4745V14.0212H97.0454V12.794H98.6163V7.59036H91.0318V6.55946H99.9417V7.54127H101.12V12.794H99.8926V14.0212H98.199V15.2485H96.6527L96.6281 16.4757H95.0572V17.703H93.4863V18.9303H90.5409V17.703Z" fill="#FFFBF6"/>
<path d="M20.6386 6.16674H21.4427V5.36259H20.6386V6.16674ZM20.6386 23.422V24.2262H21.4427V23.422H20.6386ZM19.4849 23.422V22.6179H18.6808V23.422H19.4849ZM19.4849 24.502V25.3062H20.2891V24.502H19.4849ZM18.3068 24.502H17.5026V25.3062H18.3068V24.502ZM18.3068 6.16674H19.1109V5.36259H18.3068V6.16674ZM17.2022 6.16674H16.3981V6.97089H17.2022V6.16674ZM17.2022 5.06221V4.25806H16.3981V5.06221H17.2022ZM19.4849 5.06221H20.2891V4.25806H19.4849V5.06221ZM19.4849 6.16674H18.6808V6.97089H19.4849V6.16674ZM2.25419 15.1503V14.3461H1.45004V15.1503H2.25419ZM10.2559 15.1503V15.9544H11.0601V15.1503H10.2559ZM10.2559 14.0212V13.2171H9.45179V14.0212H10.2559ZM11.4096 14.0212V14.8254H12.2137V14.0212H11.4096ZM11.4096 12.843V12.0389H10.6054V12.843H11.4096ZM12.5632 12.843V13.6472H13.3673V12.843H12.5632ZM12.5632 11.0022H13.3673V10.198H12.5632V11.0022ZM3.60418 11.0022H2.80003V11.8063H3.60418V11.0022ZM3.60418 9.97125V9.1671H2.80003V9.97125H3.60418ZM12.5632 9.97125V10.7754H13.3673V9.97125H12.5632ZM12.5632 7.07491H13.3673V6.27077H12.5632V7.07491ZM3.84963 7.07491H3.04548V7.87906H3.84963V7.07491ZM3.84963 6.04401V5.23987H3.04548V6.04401H3.84963ZM13.815 6.04401H14.6191V5.23987H13.815V6.04401ZM13.815 7.02582H13.0108V7.82997H13.815V7.02582ZM15.0423 7.02582H15.8464V6.22168H15.0423V7.02582ZM15.0423 12.843V13.6472H15.8464V12.843H15.0423ZM13.815 12.843V12.0389H13.0108V12.843H13.815ZM13.815 14.0212V14.8254H14.6191V14.0212H13.815ZM12.5632 14.0212V13.2171H11.759V14.0212H12.5632ZM12.5632 15.1503H11.759V15.9544H12.5632V15.1503ZM16.5886 15.1503H17.3928V14.3461H16.5886V15.1503ZM16.5886 16.2303V17.0344H17.3928V16.2303H16.5886ZM10.6978 16.2303V15.4261H9.8936V16.2303H10.6978ZM10.6978 23.103V23.9071H11.5019V23.103H10.6978ZM9.59321 23.103V22.2988H8.78907V23.103H9.59321ZM9.59321 24.1829V24.9871H10.3974V24.1829H9.59321ZM8.46413 24.1829H7.65999V24.9871H8.46413V24.1829ZM8.46413 16.2303H9.26828V15.4261H8.46413V16.2303ZM2.25419 16.2303H1.45004V17.0344H2.25419V16.2303ZM19.8344 6.16674V23.422H21.4427V6.16674H19.8344ZM20.6386 22.6179H19.4849V24.2262H20.6386V22.6179ZM18.6808 23.422V24.502H20.2891V23.422H18.6808ZM19.4849 23.6979H18.3068V25.3062H19.4849V23.6979ZM19.1109 24.502V6.16674H17.5026V24.502H19.1109ZM18.3068 5.36259H17.2022V6.97089H18.3068V5.36259ZM18.0064 6.16674V5.06221H16.3981V6.16674H18.0064ZM17.2022 5.86635H19.4849V4.25806H17.2022V5.86635ZM18.6808 5.06221V6.16674H20.2891V5.06221H18.6808ZM19.4849 6.97089H20.6386V5.36259H19.4849V6.97089ZM2.25419 15.9544H10.2559V14.3461H2.25419V15.9544ZM11.0601 15.1503V14.0212H9.45179V15.1503H11.0601ZM10.2559 14.8254H11.4096V13.2171H10.2559V14.8254ZM12.2137 14.0212V12.843H10.6054V14.0212H12.2137ZM11.4096 13.6472H12.5632V12.0389H11.4096V13.6472ZM13.3673 12.843V11.0022H11.759V12.843H13.3673ZM12.5632 10.198H3.60418V11.8063H12.5632V10.198ZM4.40833 11.0022V9.97125H2.80003V11.0022H4.40833ZM3.60418 10.7754H12.5632V9.1671H3.60418V10.7754ZM13.3673 9.97125V7.07491H11.759V9.97125H13.3673ZM12.5632 6.27077H3.84963V7.87906H12.5632V6.27077ZM4.65378 7.07491V6.04401H3.04548V7.07491H4.65378ZM3.84963 6.84816H13.815V5.23987H3.84963V6.84816ZM13.0108 6.04401V7.02582H14.6191V6.04401H13.0108ZM13.815 7.82997H15.0423V6.22168H13.815V7.82997ZM14.2381 7.02582V12.843H15.8464V7.02582H14.2381ZM15.0423 12.0389H13.815V13.6472H15.0423V12.0389ZM13.0108 12.843V14.0212H14.6191V12.843H13.0108ZM13.815 13.2171H12.5632V14.8254H13.815V13.2171ZM11.759 14.0212V15.1503H13.3673V14.0212H11.759ZM12.5632 15.9544H16.5886V14.3461H12.5632V15.9544ZM15.7845 15.1503V16.2303H17.3928V15.1503H15.7845ZM16.5886 15.4261H10.6978V17.0344H16.5886V15.4261ZM9.8936 16.2303V23.103H11.5019V16.2303H9.8936ZM10.6978 22.2988H9.59321V23.9071H10.6978V22.2988ZM8.78907 23.103V24.1829H10.3974V23.103H8.78907ZM9.59321 23.3788H8.46413V24.9871H9.59321V23.3788ZM9.26828 24.1829V16.2303H7.65999V24.1829H9.26828ZM8.46413 15.4261H2.25419V17.0344H8.46413V15.4261ZM3.05834 16.2303V15.1503H1.45004V16.2303H3.05834ZM29.4118 14.3648V13.5607H28.6076V14.3648H29.4118ZM31.3508 14.3648V15.169H32.155V14.3648H31.3508ZM31.3508 13.2603V12.4562H30.5467V13.2603H31.3508ZM33.1917 13.2603V14.0645H33.9959V13.2603H33.1917ZM33.1917 12.1558V11.3516H32.3876V12.1558H33.1917ZM35.0817 12.1558V12.9599H35.8859V12.1558H35.0817ZM35.0817 11.0512V10.2471H34.2776V11.0512H35.0817ZM36.309 11.0512V11.8554H37.1131V11.0512H36.309ZM36.309 7.24673H37.1131V6.44258H36.309V7.24673ZM30.3936 7.24673H29.5894V8.05088H30.3936V7.24673ZM30.3936 6.19129V5.38714H29.5894V6.19129H30.3936ZM44.6789 6.19129H45.483V5.38714H44.6789V6.19129ZM44.6789 7.24673V8.05088H45.483V7.24673H44.6789ZM38.7389 7.24673V6.44258H37.9348V7.24673H38.7389ZM38.7389 11.0512H37.9348V11.8554H38.7389V11.0512ZM39.9662 11.0512H40.7704V10.2471H39.9662V11.0512ZM39.9662 12.1558H39.1621V12.9599H39.9662V12.1558ZM41.8562 12.1558H42.6603V11.3516H41.8562V12.1558ZM41.8562 13.2603H41.052V14.0645H41.8562V13.2603ZM43.6971 13.2603H44.5012V12.4562H43.6971V13.2603ZM43.6971 14.3648H42.8929V15.169H43.6971V14.3648ZM45.6362 14.3648H46.4403V13.5607H45.6362V14.3648ZM45.6362 15.543V16.3472H46.4403V15.543H45.6362ZM42.6416 15.543H41.8375V16.3472H42.6416V15.543ZM42.6416 14.3648H43.4458V13.5607H42.6416V14.3648ZM40.8253 14.3648H40.0211V15.169H40.8253V14.3648ZM40.8253 13.2358H41.6294V12.4316H40.8253V13.2358ZM38.7389 13.2358H37.9348V14.0399H38.7389V13.2358ZM38.7389 12.1067H39.5431V11.3025H38.7389V12.1067ZM36.309 12.1067V11.3025H35.5048V12.1067H36.309ZM36.309 13.2358V14.0399H37.1131V13.2358H36.309ZM34.2226 13.2358V12.4316H33.4185V13.2358H34.2226ZM34.2226 14.3648V15.169H35.0268V14.3648H34.2226ZM32.4063 14.3648V13.5607H31.6021V14.3648H32.4063ZM32.4063 15.543V16.3472H33.2104V15.543H32.4063ZM29.4118 15.543H28.6076V16.3472H29.4118V15.543ZM28.0372 20.0839V19.2797H27.2331V20.0839H28.0372ZM47.3789 20.0839H48.183V19.2797H47.3789V20.0839ZM47.3789 21.1639V21.968H48.183V21.1639H47.3789ZM28.0372 21.1639H27.2331V21.968H28.0372V21.1639ZM29.4118 15.169H31.3508V13.5607H29.4118V15.169ZM32.155 14.3648V13.2603H30.5467V14.3648H32.155ZM31.3508 14.0645H33.1917V12.4562H31.3508V14.0645ZM33.9959 13.2603V12.1558H32.3876V13.2603H33.9959ZM33.1917 12.9599H35.0817V11.3516H33.1917V12.9599ZM35.8859 12.1558V11.0512H34.2776V12.1558H35.8859ZM35.0817 11.8554H36.309V10.2471H35.0817V11.8554ZM37.1131 11.0512V7.24673H35.5048V11.0512H37.1131ZM36.309 6.44258H30.3936V8.05088H36.309V6.44258ZM31.1977 7.24673V6.19129H29.5894V7.24673H31.1977ZM30.3936 6.99543H44.6789V5.38714H30.3936V6.99543ZM43.8747 6.19129V7.24673H45.483V6.19129H43.8747ZM44.6789 6.44258H38.7389V8.05088H44.6789V6.44258ZM37.9348 7.24673V11.0512H39.5431V7.24673H37.9348ZM38.7389 11.8554H39.9662V10.2471H38.7389V11.8554ZM39.1621 11.0512V12.1558H40.7704V11.0512H39.1621ZM39.9662 12.9599H41.8562V11.3516H39.9662V12.9599ZM41.052 12.1558V13.2603H42.6603V12.1558H41.052ZM41.8562 14.0645H43.6971V12.4562H41.8562V14.0645ZM42.8929 13.2603V14.3648H44.5012V13.2603H42.8929ZM43.6971 15.169H45.6362V13.5607H43.6971V15.169ZM44.832 14.3648V15.543H46.4403V14.3648H44.832ZM45.6362 14.7389H42.6416V16.3472H45.6362V14.7389ZM43.4458 15.543V14.3648H41.8375V15.543H43.4458ZM42.6416 13.5607H40.8253V15.169H42.6416V13.5607ZM41.6294 14.3648V13.2358H40.0211V14.3648H41.6294ZM40.8253 12.4316H38.7389V14.0399H40.8253V12.4316ZM39.5431 13.2358V12.1067H37.9348V13.2358H39.5431ZM38.7389 11.3025H36.309V12.9108H38.7389V11.3025ZM35.5048 12.1067V13.2358H37.1131V12.1067H35.5048ZM36.309 12.4316H34.2226V14.0399H36.309V12.4316ZM33.4185 13.2358V14.3648H35.0268V13.2358H33.4185ZM34.2226 13.5607H32.4063V15.169H34.2226V13.5607ZM31.6021 14.3648V15.543H33.2104V14.3648H31.6021ZM32.4063 14.7389H29.4118V16.3472H32.4063V14.7389ZM30.2159 15.543V14.3648H28.6076V15.543H30.2159ZM28.0372 20.888H47.3789V19.2797H28.0372V20.888ZM46.5747 20.0839V21.1639H48.183V20.0839H46.5747ZM47.3789 20.3597H28.0372V21.968H47.3789V20.3597ZM28.8414 21.1639V20.0839H27.2331V21.1639H28.8414ZM82.1359 6.3631V7.16725H82.94V6.3631H82.1359ZM66.4269 6.3631H65.6228V7.16725H66.4269V6.3631ZM66.4269 5.30766V4.50351H65.6228V5.30766H66.4269ZM82.1359 5.30766H82.94V4.50351H82.1359V5.30766ZM64.6106 13.9721V13.168H63.8064V13.9721H64.6106ZM83.9522 13.9721H84.7564V13.168H83.9522V13.9721ZM83.9522 15.003V15.8072H84.7564V15.003H83.9522ZM75.4596 15.003V14.1989H74.6554V15.003H75.4596ZM75.4596 17.3103H74.6554V18.1144H75.4596V17.3103ZM80.6141 17.3103H81.4182V16.5061H80.6141V17.3103ZM80.6141 20.2802V21.0844H81.4182V20.2802H80.6141ZM79.3868 20.2802V19.4761H78.5827V20.2802H79.3868ZM79.3868 21.3848V22.1889H80.191V21.3848H79.3868ZM70.0351 21.3848V20.5806H69.2309V21.3848H70.0351ZM70.0351 23.7411H69.2309V24.5453H70.0351V23.7411ZM81.2523 23.7411H82.0564V22.937H81.2523V23.7411ZM81.2523 24.8211V25.6253H82.0564V24.8211H81.2523ZM68.8078 24.8211H68.0037V25.6253H68.8078V24.8211ZM68.8078 23.7166H69.612V22.9124H68.8078V23.7166ZM67.5806 23.7166H66.7764V24.5207H67.5806V23.7166ZM67.5806 21.4584V20.6543H66.7764V21.4584H67.5806ZM68.8078 21.4584V22.2626H69.612V21.4584H68.8078ZM68.8078 20.3539V19.5497H68.0037V20.3539H68.8078ZM78.1595 20.3539V21.158H78.9637V20.3539H78.1595ZM78.1595 18.3166H78.9637V17.5125H78.1595V18.3166ZM67.826 18.3166H67.0219V19.1208H67.826V18.3166ZM67.826 17.3103V16.5061H67.0219V17.3103H67.826ZM73.1032 17.3103V18.1144H73.9074V17.3103H73.1032ZM73.1032 15.003H73.9074V14.1989H73.1032V15.003ZM64.6106 15.003H63.8064V15.8072H64.6106V15.003ZM66.4269 11.0267V10.2225H65.6228V11.0267H66.4269ZM70.3787 11.0267V11.8308H71.1829V11.0267H70.3787ZM70.3787 9.92216H71.1829V9.11801H70.3787V9.92216ZM69.176 9.92216H68.3718V10.7263H69.176V9.92216ZM69.176 7.46764V6.66349H68.3718V7.46764H69.176ZM71.6305 7.46764H72.4347V6.66349H71.6305V7.46764ZM71.6305 9.92216H70.8264V10.7263H71.6305V9.92216ZM72.8332 9.92216H73.6374V9.11801H72.8332V9.92216ZM72.8332 11.0267H72.0291V11.8308H72.8332V11.0267ZM75.7296 11.0267V11.8308H76.5337V11.0267H75.7296ZM75.7296 9.92216V9.11801H74.9254V9.92216H75.7296ZM76.9323 9.92216V10.7263H77.7364V9.92216H76.9323ZM76.9323 7.46764V6.66349H76.1281V7.46764H76.9323ZM79.3868 7.46764H80.191V6.66349H79.3868V7.46764ZM79.3868 9.92216V10.7263H80.191V9.92216H79.3868ZM78.1841 9.92216V9.11801H77.3799V9.92216H78.1841ZM78.1841 11.0267H77.3799V11.8308H78.1841V11.0267ZM82.1359 11.0267H82.94V10.2225H82.1359V11.0267ZM82.1359 12.0331V12.8372H82.94V12.0331H82.1359ZM66.4269 12.0331H65.6228V12.8372H66.4269V12.0331ZM82.1359 5.55895H66.4269V7.16725H82.1359V5.55895ZM67.2311 6.3631V5.30766H65.6228V6.3631H67.2311ZM66.4269 6.11181H82.1359V4.50351H66.4269V6.11181ZM81.3317 5.30766V6.3631H82.94V5.30766H81.3317ZM64.6106 14.7763H83.9522V13.168H64.6106V14.7763ZM83.1481 13.9721V15.003H84.7564V13.9721H83.1481ZM83.9522 14.1989H75.4596V15.8072H83.9522V14.1989ZM74.6554 15.003V17.3103H76.2637V15.003H74.6554ZM75.4596 18.1144H80.6141V16.5061H75.4596V18.1144ZM79.8099 17.3103V20.2802H81.4182V17.3103H79.8099ZM80.6141 19.4761H79.3868V21.0844H80.6141V19.4761ZM78.5827 20.2802V21.3848H80.191V20.2802H78.5827ZM79.3868 20.5806H70.0351V22.1889H79.3868V20.5806ZM69.2309 21.3848V23.7411H70.8392V21.3848H69.2309ZM70.0351 24.5453H81.2523V22.937H70.0351V24.5453ZM80.4481 23.7411V24.8211H82.0564V23.7411H80.4481ZM81.2523 24.017H68.8078V25.6253H81.2523V24.017ZM69.612 24.8211V23.7166H68.0037V24.8211H69.612ZM68.8078 22.9124H67.5806V24.5207H68.8078V22.9124ZM68.3847 23.7166V21.4584H66.7764V23.7166H68.3847ZM67.5806 22.2626H68.8078V20.6543H67.5806V22.2626ZM69.612 21.4584V20.3539H68.0037V21.4584H69.612ZM68.8078 21.158H78.1595V19.5497H68.8078V21.158ZM78.9637 20.3539V18.3166H77.3554V20.3539H78.9637ZM78.1595 17.5125H67.826V19.1208H78.1595V17.5125ZM68.6302 18.3166V17.3103H67.0219V18.3166H68.6302ZM67.826 18.1144H73.1032V16.5061H67.826V18.1144ZM73.9074 17.3103V15.003H72.2991V17.3103H73.9074ZM73.1032 14.1989H64.6106V15.8072H73.1032V14.1989ZM65.4147 15.003V13.9721H63.8064V15.003H65.4147ZM66.4269 11.8308H70.3787V10.2225H66.4269V11.8308ZM71.1829 11.0267V9.92216H69.5746V11.0267H71.1829ZM70.3787 9.11801H69.176V10.7263H70.3787V9.11801ZM69.9801 9.92216V7.46764H68.3718V9.92216H69.9801ZM69.176 8.27179H71.6305V6.66349H69.176V8.27179ZM70.8264 7.46764V9.92216H72.4347V7.46764H70.8264ZM71.6305 10.7263H72.8332V9.11801H71.6305V10.7263ZM72.0291 9.92216V11.0267H73.6374V9.92216H72.0291ZM72.8332 11.8308H75.7296V10.2225H72.8332V11.8308ZM76.5337 11.0267V9.92216H74.9254V11.0267H76.5337ZM75.7296 10.7263H76.9323V9.11801H75.7296V10.7263ZM77.7364 9.92216V7.46764H76.1281V9.92216H77.7364ZM76.9323 8.27179H79.3868V6.66349H76.9323V8.27179ZM78.5827 7.46764V9.92216H80.191V7.46764H78.5827ZM79.3868 9.11801H78.1841V10.7263H79.3868V9.11801ZM77.3799 9.92216V11.0267H78.9882V9.92216H77.3799ZM78.1841 11.8308H82.1359V10.2225H78.1841V11.8308ZM81.3317 11.0267V12.0331H82.94V11.0267H81.3317ZM82.1359 11.2289H66.4269V12.8372H82.1359V11.2289ZM67.2311 12.0331V11.0267H65.6228V12.0331H67.2311ZM103.992 5.06221V4.25806H103.188V5.06221H103.992ZM106.274 5.06221H107.079V4.25806H106.274V5.06221ZM106.274 6.16674H105.47V6.97089H106.274V6.16674ZM107.428 6.16674H108.232V5.36259H107.428V6.16674ZM107.428 23.422V24.2262H108.232V23.422H107.428ZM106.274 23.422V22.6179H105.47V23.422H106.274ZM106.274 24.502V25.3062H107.079V24.502H106.274ZM105.096 24.502H104.292V25.3062H105.096V24.502ZM105.096 6.16674H105.9V5.36259H105.096V6.16674ZM103.992 6.16674H103.188V6.97089H103.992V6.16674ZM90.5409 17.703V16.8989H89.7367V17.703H90.5409ZM92.3327 17.703V18.5071H93.1368V17.703H92.3327ZM92.3327 16.4757V15.6716H91.5285V16.4757H92.3327ZM93.9036 16.4757V17.2799H94.7077V16.4757H93.9036ZM93.9036 15.2485V14.4443H93.0994V15.2485H93.9036ZM95.4745 15.2485V16.0526H96.2786V15.2485H95.4745ZM95.4745 14.0212V13.2171H94.6703V14.0212H95.4745ZM97.0454 14.0212V14.8254H97.8495V14.0212H97.0454ZM97.0454 12.794V11.9898H96.2412V12.794H97.0454ZM98.6163 12.794V13.5981H99.4204V12.794H98.6163ZM98.6163 7.59036H99.4204V6.78622H98.6163V7.59036ZM91.0318 7.59036H90.2276V8.39451H91.0318V7.59036ZM91.0318 6.55946V5.75532H90.2276V6.55946H91.0318ZM99.9417 6.55946H100.746V5.75532H99.9417V6.55946ZM99.9417 7.54127H99.1376V8.34542H99.9417V7.54127ZM101.12 7.54127H101.924V6.73713H101.12V7.54127ZM101.12 12.794V13.5981H101.924V12.794H101.12ZM99.8926 12.794V11.9898H99.0885V12.794H99.8926ZM99.8926 14.0212V14.8254H100.697V14.0212H99.8926ZM98.199 14.0212V13.2171H97.3949V14.0212H98.199ZM98.199 15.2485V16.0526H99.0032V15.2485H98.199ZM96.6527 15.2485V14.4443H95.8644L95.8487 15.2324L96.6527 15.2485ZM96.6281 16.4757V17.2799H97.4163L97.4321 16.4918L96.6281 16.4757ZM95.0572 16.4757V15.6716H94.2531V16.4757H95.0572ZM95.0572 17.703V18.5071H95.8614V17.703H95.0572ZM93.4863 17.703V16.8989H92.6822V17.703H93.4863ZM93.4863 18.9303V19.7344H94.2905V18.9303H93.4863ZM90.5409 18.9303H89.7367V19.7344H90.5409V18.9303ZM103.992 5.86635H106.274V4.25806H103.992V5.86635ZM105.47 5.06221V6.16674H107.079V5.06221H105.47ZM106.274 6.97089H107.428V5.36259H106.274V6.97089ZM106.624 6.16674V23.422H108.232V6.16674H106.624ZM107.428 22.6179H106.274V24.2262H107.428V22.6179ZM105.47 23.422V24.502H107.079V23.422H105.47ZM106.274 23.6979H105.096V25.3062H106.274V23.6979ZM105.9 24.502V6.16674H104.292V24.502H105.9ZM105.096 5.36259H103.992V6.97089H105.096V5.36259ZM104.796 6.16674V5.06221H103.188V6.16674H104.796ZM90.5409 18.5071H92.3327V16.8989H90.5409V18.5071ZM93.1368 17.703V16.4757H91.5285V17.703H93.1368ZM92.3327 17.2799H93.9036V15.6716H92.3327V17.2799ZM94.7077 16.4757V15.2485H93.0994V16.4757H94.7077ZM93.9036 16.0526H95.4745V14.4443H93.9036V16.0526ZM96.2786 15.2485V14.0212H94.6703V15.2485H96.2786ZM95.4745 14.8254H97.0454V13.2171H95.4745V14.8254ZM97.8495 14.0212V12.794H96.2412V14.0212H97.8495ZM97.0454 13.5981H98.6163V11.9898H97.0454V13.5981ZM99.4204 12.794V7.59036H97.8121V12.794H99.4204ZM98.6163 6.78622H91.0318V8.39451H98.6163V6.78622ZM91.8359 7.59036V6.55946H90.2276V7.59036H91.8359ZM91.0318 7.36361H99.9417V5.75532H91.0318V7.36361ZM99.1376 6.55946V7.54127H100.746V6.55946H99.1376ZM99.9417 8.34542H101.12V6.73713H99.9417V8.34542ZM100.316 7.54127V12.794H101.924V7.54127H100.316ZM101.12 11.9898H99.8926V13.5981H101.12V11.9898ZM99.0885 12.794V14.0212H100.697V12.794H99.0885ZM99.8926 13.2171H98.199V14.8254H99.8926V13.2171ZM97.3949 14.0212V15.2485H99.0032V14.0212H97.3949ZM98.199 14.4443H96.6527V16.0526H98.199V14.4443ZM95.8487 15.2324L95.8241 16.4597L97.4321 16.4918L97.4566 15.2646L95.8487 15.2324ZM96.6281 15.6716H95.0572V17.2799H96.6281V15.6716ZM94.2531 16.4757V17.703H95.8614V16.4757H94.2531ZM95.0572 16.8989H93.4863V18.5071H95.0572V16.8989ZM92.6822 17.703V18.9303H94.2905V17.703H92.6822ZM93.4863 18.1261H90.5409V19.7344H93.4863V18.1261ZM91.345 18.9303V17.703H89.7367V18.9303H91.345Z" fill="white" mask="url(#path-3-outside-2_993_20273)"/>
</svg>
