<svg width="40" height="41" viewBox="0 0 40 41" fill="none" xmlns="http://www.w3.org/2000/svg">
<g clip-path="url(#clip0_10340_28244)">
<circle cx="20" cy="20.5" r="20" fill="#E25B00"/>
<path d="M30 12.5V11.5H29V10.5H28V9.5H24V10.5H23V11.5H22V12.5H21V13.5H20V14.5H19V15.5H18V16.5H17V17.5H16V18.5H15V19.5H14V20.5H13V21.5H12V22.5H11V23.5H10V24.5H9V31.5H16V30.5H17V29.5H18V28.5H19V27.5H20V26.5H21V25.5H22V24.5H23V23.5H24V22.5H25V21.5H26V20.5H27V19.5H28V18.5H29V17.5H30V16.5H31V12.5H30ZM16 28.5H15V29.5H12V28.5H11V25.5H12V24.5H13V25.5H14V26.5H15V27.5H16V28.5ZM25 19.5H24V20.5H23V21.5H22V22.5H21V23.5H20V24.5H19V25.5H18V26.5H17V25.5H16V24.5H15V23.5H14V22.5H15V21.5H16V20.5H17V19.5H18V18.5H19V17.5H20V16.5H21V15.5H23V16.5H24V17.5H25V19.5ZM26 16.5V15.5H25V14.5H24V12.5H25V11.5H27V12.5H28V13.5H29V15.5H28V16.5H26Z" fill="#1A1918"/>
</g>
<defs>
<clipPath id="clip0_10340_28244">
<rect width="40" height="40" fill="white" transform="translate(0 0.5)"/>
</clipPath>
</defs>
</svg>
