<svg width="40" height="40" viewBox="0 0 40 40" fill="none" xmlns="http://www.w3.org/2000/svg">
<g clip-path="url(#clip0_9533_24400)">
<circle cx="20" cy="20" r="20" fill="#FFA000"/>
<path d="M30 17V15H29V13H28V12H27V11H25V10H23V9H17V10H15V11H13V12H12V13H11V15H10V17H9V24H10V25H11V27H12V28H13V29H15V30H17V31H23V30H25V29H27V28H28V27H29V25H30V23H31V17H30ZM29 18V22H26V18H29ZM24 12H25V13H27V15H28V16H25V13H24V12ZM22 26V28H21V29H19V28H18V26H17V24H23V26H22ZM24 18V22H16V18H24ZM17 14H18V12H19V11H21V12H22V14H23V16H17V14ZM12 15H13V13H15V12H16V13H15V16H12V15ZM11 22V18H14V22H11ZM13 27V25H12V24H15V27H16V28H15V27H13ZM27 25V27H25V28H24V27H25V24H28V25H27Z" fill="#363532"/>
</g>
<defs>
<clipPath id="clip0_9533_24400">
<rect width="40" height="40" fill="white"/>
</clipPath>
</defs>
</svg>
