<svg xmlns="http://www.w3.org/2000/svg" width="24" height="25" viewBox="0 0 24 25" fill="none">
  <g clip-path="url(#clip0_1188_2584)">
    <path d="M22.2825 5.07501H21.1425V23.36H22.2825V5.07501Z" fill="#F86C14"/>
    <path d="M21.1425 23.36H2.8575V24.5H21.1425V23.36Z" fill="#F86C14"/>
    <path d="M9.71249 17.645V22.22H20.0025V17.645H9.71249ZM18.855 19.9325H17.715V21.0725H15.4275V19.9325H14.2875V18.785H15.4275V19.9325H17.715V18.785H18.855V19.9325Z" fill="#F86C14"/>
    <path d="M15.4275 11.93V16.505H20.0025V11.93H15.4275ZM18.855 15.3575H16.5675V13.0775H18.855V15.3575Z" fill="#F86C14"/>
    <path d="M15.4275 6.21503V10.79H20.0025V6.21503H15.4275ZM18.855 9.64253H16.5675V7.36253H18.855V9.64253Z" fill="#F86C14"/>
    <path d="M16.5675 1.64752H9.71249V2.78752H16.5675V1.64752Z" fill="#F86C14"/>
    <path d="M14.2875 16.505V11.93H9.71249V16.505H14.2875ZM10.86 13.0775H13.14V15.3575H10.86V13.0775Z" fill="#F86C14"/>
    <path d="M14.2875 10.79V6.21503H9.71249V10.79H14.2875ZM10.86 7.36253H13.14V9.64253H10.86V7.36253Z" fill="#F86C14"/>
    <path d="M9.71249 0.5H8.57249V1.6475H9.71249V0.5Z" fill="#F86C14"/>
    <path d="M3.9975 17.645V22.22H8.5725V17.645H3.9975ZM7.425 21.0725H5.145V18.785H7.425V21.0725Z" fill="#F86C14"/>
    <path d="M3.9975 11.93V16.505H8.5725V11.93H3.9975ZM7.425 15.3575H5.145V13.0775H7.425V15.3575Z" fill="#F86C14"/>
    <path d="M3.9975 6.21503V10.79H8.5725V6.21503H3.9975ZM7.425 9.64253H5.145V7.36253H7.425V9.64253Z" fill="#F86C14"/>
    <path d="M21.1425 5.07498V3.93498H17.715V2.78748H16.5675V3.93498H2.8575V5.07498H21.1425Z" fill="#F86C14"/>
    <path d="M2.8575 5.07501H1.7175V23.36H2.8575V5.07501Z" fill="#F86C14"/>
  </g>
  <defs>
    <clipPath id="clip0_1188_2584">
      <rect width="24" height="24" fill="white" transform="translate(0 0.5)"/>
    </clipPath>
  </defs>
</svg>