<svg xmlns="http://www.w3.org/2000/svg" width="32" height="32" viewBox="0 0 32 32" fill="none">
  <path d="M32 12.1898H30.47V19.8098H32V12.1898Z" fill="#75CA6C"/>
  <path d="M30.47 19.8098H28.95V22.8598H30.47V19.8098Z" fill="#75CA6C"/>
  <path d="M30.47 9.13965H28.95V12.1896H30.47V9.13965Z" fill="#75CA6C"/>
  <path d="M28.95 22.8599H27.43V25.8999H28.95V22.8599Z" fill="#75CA6C"/>
  <path d="M28.95 6.08978H27.43V9.13978H28.95V6.08978Z" fill="#75CA6C"/>
  <path d="M30.47 4.56968V3.04968H24.38V9.13968H25.9V6.08968H27.43V4.56968H30.47Z" fill="#75CA6C"/>
  <path d="M27.43 25.8998H25.9V27.4298H27.43V25.8998Z" fill="#75CA6C"/>
  <path d="M25.9 27.4297H22.85V28.9497H25.9V27.4297Z" fill="#75CA6C"/>
  <path d="M22.85 19.8098H21.33V21.3298H22.85V19.8098Z" fill="#75CA6C"/>
  <path d="M22.85 28.9499H19.81V30.4799H22.85V28.9499Z" fill="#75CA6C"/>
  <path d="M19.81 19.8098H15.24V21.3298H13.71V22.8598H12.19V24.3798H19.81V22.8598H21.33V21.3298H19.81V19.8098Z" fill="#75CA6C"/>
  <path d="M19.81 30.4798H12.19V31.9998H19.81V30.4798Z" fill="#75CA6C"/>
  <path d="M19.81 9.13975V7.61975H12.19V9.13975H16.76V10.6698H15.24V12.1898H16.76V13.7098H19.81V16.7598H21.33V15.2398H22.85V19.8098H24.38V12.1898H22.85V10.6698H21.33V9.13975H19.81Z" fill="#75CA6C"/>
  <path d="M19.81 -0.00012207H12.19V1.51988H19.81V-0.00012207Z" fill="#75CA6C"/>
  <path d="M13.71 18.2796V16.7596H15.24V13.7096H13.71V10.6696H12.19V9.13965H10.66V10.6696H9.14V12.1896H7.62V19.8096H9.14V21.3296H10.66V22.8596H12.19V18.2796H13.71Z" fill="#75CA6C"/>
  <path d="M12.19 1.51971H9.14005V3.04971H12.19V1.51971Z" fill="#75CA6C"/>
  <path d="M9.14003 3.04968H6.09003V4.56968H9.14003V3.04968Z" fill="#75CA6C"/>
  <path d="M1.52002 27.4299V28.9499H7.62002V22.8599H6.09002V25.8999H4.57002V27.4299H1.52002Z" fill="#75CA6C"/>
  <path d="M6.09004 4.56982H4.57004V6.08982H6.09004V4.56982Z" fill="#75CA6C"/>
  <path d="M4.57002 22.8599H3.05002V25.8999H4.57002V22.8599Z" fill="#75CA6C"/>
  <path d="M4.57002 6.08978H3.05002V9.13978H4.57002V6.08978Z" fill="#75CA6C"/>
  <path d="M3.05002 19.8098H1.52002V22.8598H3.05002V19.8098Z" fill="#75CA6C"/>
  <path d="M3.05002 9.13965H1.52002V12.1896H3.05002V9.13965Z" fill="#75CA6C"/>
  <path d="M1.52003 12.1898H3.05176e-05V19.8098H1.52003V12.1898Z" fill="#75CA6C"/>
</svg>