<svg xmlns="http://www.w3.org/2000/svg" width="32" height="32" viewBox="0 0 32 32" fill="none">
  <g clip-path="url(#clip0_1188_2477)">
    <path d="M32 18.2798H30.48V19.8098H32V18.2798Z" fill="#FFA000"/>
    <path d="M30.48 27.4299H28.95V28.9499H30.48V27.4299Z" fill="#FFA000"/>
    <path d="M30.48 24.3799H28.95V25.8999H30.48V24.3799Z" fill="#FFA000"/>
    <path d="M27.43 16.7599V15.2399H25.91V12.1899H24.38V13.7099H21.33V15.2399H19.81V16.7599H18.29V19.8099H16.76V21.3299H19.81V22.8599H21.33V25.8999H22.86V24.3799H25.91V22.8599H27.43V21.3299H28.95V18.2799H30.48V16.7599H27.43ZM21.33 19.8099H19.81V18.2799H21.33V19.8099ZM24.38 22.8599H22.86V21.3299H24.38V22.8599ZM24.38 19.8099H22.86V18.2799H24.38V19.8099ZM24.38 16.7599H22.86V15.2399H24.38V16.7599ZM27.43 19.8099H25.91V18.2799H27.43V19.8099Z" fill="#FFA000"/>
    <path d="M28.95 13.7098H27.43V15.2398H28.95V13.7098Z" fill="#FFA000"/>
    <path d="M28.95 28.9499H25.91V30.4799H28.95V28.9499Z" fill="#FFA000"/>
    <path d="M24.38 25.8998H22.86V27.4298H24.38V25.8998Z" fill="#FFA000"/>
    <path d="M24.38 10.6699H22.86V12.1899H24.38V10.6699Z" fill="#FFA000"/>
    <path d="M22.86 28.9499H19.81V30.4799H22.86V28.9499Z" fill="#FFA000"/>
    <path d="M21.33 12.1899H18.29V13.7099H21.33V12.1899Z" fill="#FFA000"/>
    <path d="M19.81 22.8599H18.29V24.3799H19.81V22.8599Z" fill="#FFA000"/>
    <path d="M18.29 13.7098H16.76V16.7598H18.29V13.7098Z" fill="#FFA000"/>
    <path d="M16.76 18.2798H15.24V19.8098H16.76V18.2798Z" fill="#FFA000"/>
    <path d="M16.76 28.9499H13.72V30.4799H16.76V28.9499Z" fill="#FFA000"/>
    <path d="M16.76 24.3799H1.52002V25.8999H16.76V24.3799Z" fill="#FFA000"/>
    <path d="M13.72 15.2399H3.04999V16.7599H13.72V15.2399Z" fill="#FFA000"/>
    <path d="M13.72 19.8099H3.04999V21.3299H13.72V19.8099Z" fill="#FFA000"/>
    <path d="M10.67 3.04987H9.14001V4.56987H10.67V3.04987Z" fill="#FFA000"/>
    <path d="M10.67 28.9499H7.62V30.4799H10.67V28.9499Z" fill="#FFA000"/>
    <path d="M7.61998 30.4799H6.09998V31.9999H7.61998V30.4799Z" fill="#FFA000"/>
    <path d="M7.61998 3.04987H6.09998V4.56987H7.61998V3.04987Z" fill="#FFA000"/>
    <path d="M12.19 10.6699H3.04999V12.1899H12.19V10.6699Z" fill="#FFA000"/>
    <path d="M4.56999 3.04987H3.04999V4.56987H4.56999V3.04987Z" fill="#FFA000"/>
    <path d="M27.43 -0.00012207H1.52002V1.51988H27.43V-0.00012207Z" fill="#FFA000"/>
    <path d="M1.52 7.61984H27.43V12.1898H28.95V1.51984H27.43V6.08984H1.52V1.51984H0V24.3798H1.52V7.61984Z" fill="#FFA000"/>
  </g>
  <defs>
    <clipPath id="clip0_1188_2477">
      <rect width="32" height="32" fill="white"/>
    </clipPath>
  </defs>
</svg>