<svg xmlns="http://www.w3.org/2000/svg" width="24" height="25" viewBox="0 0 24 25" fill="none">
  <g clip-path="url(#clip0_1188_2665)">
    <path d="M24 6.21503H22.8525V11.93H24V6.21503Z" fill="#75CA6C"/>
    <path d="M22.8525 3.92749H21.7125V6.21499H22.8525V3.92749Z" fill="#75CA6C"/>
    <path d="M21.7125 2.78748H20.5725V3.92748H21.7125V2.78748Z" fill="#75CA6C"/>
    <path d="M20.5725 7.35498H19.425V10.7825H20.5725V7.35498Z" fill="#75CA6C"/>
    <path d="M20.5725 1.64001H18.285V2.78751H20.5725V1.64001Z" fill="#75CA6C"/>
    <path d="M6.855 21.0725V22.2125H8.0025V21.0725H11.43V22.2125H12.57V21.0725H18.285V19.925H19.425V14.21H18.285V17.6375H1.14V7.35498H0V19.925H1.14V21.0725H6.855Z" fill="#75CA6C"/>
    <path d="M19.425 6.21503H18.285V7.35503H19.425V6.21503Z" fill="#75CA6C"/>
    <path d="M18.285 5.0675H17.145V6.215H18.285V5.0675Z" fill="#75CA6C"/>
    <path d="M18.285 0.5H12.57V1.64H18.285V0.5Z" fill="#75CA6C"/>
    <path d="M17.145 8.495H15.9975V10.7825H17.145V8.495Z" fill="#75CA6C"/>
    <path d="M17.145 3.92749H13.71V5.06749H17.145V3.92749Z" fill="#75CA6C"/>
    <path d="M15.9975 7.35498H13.71V8.49498H15.9975V7.35498Z" fill="#75CA6C"/>
    <path d="M15.9975 10.7825H13.71V11.93H15.9975V10.7825Z" fill="#75CA6C"/>
    <path d="M13.71 8.495H12.57V10.7825H13.71V8.495Z" fill="#75CA6C"/>
    <path d="M6.855 23.3525V22.2125H5.715V24.5H13.71V22.2125H12.57V23.3525H6.855Z" fill="#75CA6C"/>
    <path d="M11.43 14.21H10.2825V15.3575H11.43V14.21Z" fill="#75CA6C"/>
    <path d="M10.2825 11.93H9.1425V13.07H10.2825V11.93Z" fill="#75CA6C"/>
    <path d="M10.2825 15.3575H5.715V16.4975H10.2825V15.3575Z" fill="#75CA6C"/>
    <path d="M6.855 11.93H5.715V13.07H6.855V11.93Z" fill="#75CA6C"/>
    <path d="M5.715 14.21H4.5675V15.3575H5.715V14.21Z" fill="#75CA6C"/>
    <path d="M10.2825 6.21503H1.14V7.35503H10.2825V6.21503Z" fill="#75CA6C"/>
  </g>
  <defs>
    <clipPath id="clip0_1188_2665">
      <rect width="24" height="24" fill="white" transform="translate(0 0.5)"/>
    </clipPath>
  </defs>
</svg>