<svg xmlns="http://www.w3.org/2000/svg" width="24" height="25" viewBox="0 0 24 25" fill="none">
  <path d="M22.2863 8.49878H21.1388V16.5013H22.2863V8.49878Z" fill="#FFB500"/>
  <path d="M21.1388 16.5012H19.9988V17.6412H21.1388V16.5012Z" fill="#FFB500"/>
  <path d="M21.1388 7.35876H19.9988V8.49876H21.1388V7.35876Z" fill="#FFB500"/>
  <path d="M19.9988 8.49878H17.7113V9.63878H19.9988V8.49878Z" fill="#FFB500"/>
  <path d="M19.9988 17.6412H17.7113V18.7887H19.9988V17.6412Z" fill="#FFB500"/>
  <path d="M18.8587 7.35873V6.21123H17.7112V5.07123H15.4312V6.21123H14.2837V7.35873H15.4312V8.49873H17.7112V7.35873H18.8587Z" fill="#FFB500"/>
  <path d="M17.7113 9.63873H15.4313V10.7862H17.7113V9.63873Z" fill="#FFB500"/>
  <path d="M17.7113 18.7888H15.4313V19.9288H17.7113V18.7888Z" fill="#FFB500"/>
  <path d="M13.1437 22.2163V21.0688H15.4312V19.9288H13.1437V11.9263H10.8562V13.0738H11.9962V21.0688H10.8562V22.2163H13.1437Z" fill="#FFB500"/>
  <path d="M15.4313 10.7863H13.1438V11.9263H15.4313V10.7863Z" fill="#FFB500"/>
  <path d="M13.1437 9.63876H14.2837V8.49876H13.1437V7.35876H10.8562V8.49876H9.71619V9.63876H10.8562V10.7863H13.1437V9.63876Z" fill="#FFB500"/>
  <path d="M10.8562 2.78375V3.93125H9.71619V5.07125H10.8562V6.21125H13.1437V5.07125H14.2837V3.93125H13.1437V2.78375H10.8562Z" fill="#FFB500"/>
  <path d="M10.8562 19.9288H8.56873V21.0688H10.8562V19.9288Z" fill="#FFB500"/>
  <path d="M10.8562 10.7863H8.56873V11.9263H10.8562V10.7863Z" fill="#FFB500"/>
  <path d="M8.5687 18.7888H6.2887V19.9288H8.5687V18.7888Z" fill="#FFB500"/>
  <path d="M8.56874 7.35873H9.71624V6.21123H8.56874V5.07123H6.28874V6.21123H5.14124V7.35873H6.28874V8.49873H8.56874V7.35873Z" fill="#FFB500"/>
  <path d="M8.5687 9.63873H6.2887V10.7862H8.5687V9.63873Z" fill="#FFB500"/>
  <path d="M6.28872 17.6412H4.00122V18.7887H6.28872V17.6412Z" fill="#FFB500"/>
  <path d="M6.28872 8.49878H4.00122V9.63878H6.28872V8.49878Z" fill="#FFB500"/>
  <path d="M4.00126 16.5012H2.85376V17.6412H4.00126V16.5012Z" fill="#FFB500"/>
  <path d="M4.00126 7.35876H2.85376V8.49876H4.00126V7.35876Z" fill="#FFB500"/>
  <path d="M2.85375 8.49878H1.71375V16.5013H2.85375V8.49878Z" fill="#FFB500"/>
</svg>