<svg xmlns="http://www.w3.org/2000/svg" width="24" height="25" viewBox="0 0 24 25" fill="none">
  <g clip-path="url(#clip0_1188_2704)">
    <path d="M21.7162 17.6375H2.29124V6.21503H1.14374V19.925H2.29124V21.0725H9.14624V22.2125H10.2862V21.0725H13.7137V22.2125H14.8612V21.0725H21.7162V19.925H22.8562V6.21503H21.7162V17.6375Z" fill="#235DD1"/>
    <path d="M21.7163 5.0675H16.0013V6.215H21.7163V5.0675Z" fill="#235DD1"/>
    <path d="M9.14623 23.3525V22.2125H8.00623V24.5H16.0012V22.2125H14.8612V23.3525H9.14623Z" fill="#235DD1"/>
    <path d="M13.7137 2.78748H10.2862V3.92748H13.7137V2.78748Z" fill="#235DD1"/>
    <path d="M13.7137 0.5H10.2862V1.64H13.7137V0.5Z" fill="#235DD1"/>
    <path d="M12.5737 15.3575V14.21H13.7137V13.07H14.8612V11.93H16.0012V10.7825H13.7137V5.0675H10.2862V10.7825H8.00623V11.93H9.14623V13.07H10.2862V14.21H11.4337V15.3575H12.5737Z" fill="#235DD1"/>
    <path d="M8.00623 5.0675H2.29123V6.215H8.00623V5.0675Z" fill="#235DD1"/>
  </g>
  <defs>
    <clipPath id="clip0_1188_2704">
      <rect width="24" height="24" fill="white" transform="translate(0 0.5)"/>
    </clipPath>
  </defs>
</svg>