<svg xmlns="http://www.w3.org/2000/svg" width="24" height="25" viewBox="0 0 24 25" fill="none">
  <g clip-path="url(#clip0_1188_2756)">
    <path d="M1.14 6.21501H22.86V23.3525H24V1.64001H22.86V5.06751H1.14V1.64001H0V23.3525H1.14V6.21501Z" fill="#FFC700"/>
    <path d="M22.86 23.3525H1.14001V24.5H22.86V23.3525Z" fill="#FFC700"/>
    <path d="M20.5725 19.925H15.9975V21.0725H20.5725V19.925Z" fill="#FFC700"/>
    <path d="M20.5725 17.6375H15.9975V18.785H20.5725V17.6375Z" fill="#FFC700"/>
    <path d="M3.42749 8.495V15.3575H20.5725V8.495H3.42749ZM19.425 14.21H11.43V13.07H10.2825V14.21H4.56749V9.64249H15.9975V10.7825H17.145V9.64249H19.425V14.21Z" fill="#FFC700"/>
    <path d="M15.9975 10.7825H13.7175V11.9225H15.9975V10.7825Z" fill="#FFC700"/>
    <path d="M13.7175 11.9225H11.43V13.07H13.7175V11.9225Z" fill="#FFC700"/>
    <path d="M12.57 19.925H3.42749V21.0725H12.57V19.925Z" fill="#FFC700"/>
    <path d="M12.57 17.6375H3.42749V18.785H12.57V17.6375Z" fill="#FFC700"/>
    <path d="M8.00248 2.78003H6.85498V3.92753H8.00248V2.78003Z" fill="#FFC700"/>
    <path d="M8.00253 10.7825H5.71503V13.07H8.00253V10.7825Z" fill="#FFC700"/>
    <path d="M5.715 2.78003H4.5675V3.92753H5.715V2.78003Z" fill="#FFC700"/>
    <path d="M3.42748 2.78003H2.28748V3.92753H3.42748V2.78003Z" fill="#FFC700"/>
    <path d="M22.86 0.5H1.14001V1.64H22.86V0.5Z" fill="#FFC700"/>
  </g>
  <defs>
    <clipPath id="clip0_1188_2756">
      <rect width="24" height="24" fill="white" transform="translate(0 0.5)"/>
    </clipPath>
  </defs>
</svg>