<svg xmlns="http://www.w3.org/2000/svg" width="32" height="29" viewBox="0 0 32 29" fill="none">
  <path d="M1.51994 7.63033H30.4799V27.4677H31.9999V1.53192H30.4799V6.10823H1.51994V1.53192H-6.10352e-05V27.4677H1.51994V7.63033Z" fill="#FFC700"/>
  <path d="M30.4799 27.4678H1.5199V28.9999H30.4799V27.4678Z" fill="#FFC700"/>
  <path d="M4.56989 10.6846V24.4236H27.4299V10.6846H4.56989ZM13.7099 18.3152H12.1899V19.8373H10.6699V21.3694H9.13989V19.8373H10.6699V18.3152H12.1899V16.7931H10.6699V15.2609H9.13989V13.7388H10.6699V15.2609H12.1899V16.7931H13.7099V18.3152ZM22.8599 18.3152H16.7599V16.7931H22.8599V18.3152Z" fill="#FFC700"/>
  <path d="M10.67 3.05402H9.13995V4.58613H10.67V3.05402Z" fill="#FFC700"/>
  <path d="M7.61991 3.05402H6.09991V4.58613H7.61991V3.05402Z" fill="#FFC700"/>
  <path d="M4.56999 3.05402H3.04999V4.58613H4.56999V3.05402Z" fill="#FFC700"/>
  <path d="M30.48 0H1.51996V1.53211H30.48V0Z" fill="#FFC700"/>
</svg>