<svg xmlns="http://www.w3.org/2000/svg" width="32" height="32" viewBox="0 0 32 32" fill="none">
  <path d="M32 22.8599H26.9485V21.3299H28.6287V19.8099H3.37133V21.3299H5.05699V22.8599H0V31.9999H32V22.8599ZM6.73161 21.3299H25.2573V22.8599H6.73161V21.3299ZM30.3199 30.4799H1.68014V24.3799H30.3199V30.4799Z" fill="#235DD1"/>
  <path d="M30.3199 1.5199H28.6287V19.8099H30.3199V1.5199Z" fill="#235DD1"/>
  <path d="M23.5772 28.9499H25.2574V27.4299H26.9486V25.8999H18.5258V27.4299H23.5772V28.9499Z" fill="#235DD1"/>
  <path d="M21.8971 6.09985H20.2059V7.61985H21.8971V6.09985Z" fill="#235DD1"/>
  <path d="M11.7831 6.09985H10.103V7.61985H11.7831V6.09985Z" fill="#235DD1"/>
  <path d="M21.8971 9.13987H20.2059V7.61987H11.7831V9.13987H10.1029V10.6699H8.42279V15.2399H10.1029V12.1899H11.7831V15.2399H13.4743V13.7099H18.5257V15.2399H20.2059V12.1899H21.8971V15.2399H23.5772V10.6699H21.8971V9.13987ZM15.1544 10.6699H13.4743V9.13987H15.1544V10.6699ZM18.5257 10.6699H16.8456V9.13987H18.5257V10.6699Z" fill="#235DD1"/>
  <path d="M5.05695 18.2898H26.954V3.0498H5.05695V18.2898ZM6.73156 4.5698H25.2573V16.7598H6.73156V4.5698Z" fill="#235DD1"/>
  <path d="M6.73168 25.8999H5.05154V27.4299H6.73168V25.8999Z" fill="#235DD1"/>
  <path d="M28.6287 0H3.3714V1.52H28.6287V0Z" fill="#235DD1"/>
  <path d="M3.37134 1.5199H1.68015V19.8099H3.37134V1.5199Z" fill="#235DD1"/>
</svg>