<svg width="162" height="170" viewBox="0 0 162 170" fill="none" xmlns="http://www.w3.org/2000/svg">
<path fill-rule="evenodd" clip-rule="evenodd" d="M161 9.44444V144.556H153.727V153H95.8675L80.8846 168L65.9018 153H51.9091H8.27273V144.556H1V9.44444H8.27273V1H153.727V9.44444H161Z" fill="#FFF9E6"/>
<path d="M161 144.556V145.556H162V144.556H161ZM161 9.44444H162V8.44444H161V9.44444ZM153.727 144.556V143.556H152.727V144.556H153.727ZM153.727 153V154H154.727V153H153.727ZM95.8675 153V152H95.453L95.16 152.293L95.8675 153ZM80.8846 168L80.1771 168.707L80.8846 169.415L81.5922 168.707L80.8846 168ZM65.9018 153L66.6093 152.293L66.3163 152H65.9018V153ZM8.27273 153H7.27273V154H8.27273V153ZM8.27273 144.556H9.27273V143.556H8.27273V144.556ZM1 144.556H0V145.556H1V144.556ZM1 9.44444V8.44444H0V9.44444H1ZM8.27273 9.44444V10.4444H9.27273V9.44444H8.27273ZM8.27273 1V0H7.27273V1H8.27273ZM153.727 1H154.727V0H153.727V1ZM153.727 9.44444H152.727V10.4444H153.727V9.44444ZM162 144.556V9.44444H160V144.556H162ZM153.727 145.556H161V143.556H153.727V145.556ZM154.727 153V144.556H152.727V153H154.727ZM95.8675 154H153.727V152H95.8675V154ZM95.16 152.293L80.1771 167.293L81.5922 168.707L96.575 153.707L95.16 152.293ZM81.5922 167.293L66.6093 152.293L65.1943 153.707L80.1771 168.707L81.5922 167.293ZM51.9091 154H65.9018V152H51.9091V154ZM8.27273 154H51.9091V152H8.27273V154ZM7.27273 144.556V153H9.27273V144.556H7.27273ZM1 145.556H8.27273V143.556H1V145.556ZM0 9.44444V144.556H2V9.44444H0ZM8.27273 8.44444H1V10.4444H8.27273V8.44444ZM7.27273 1V9.44444H9.27273V1H7.27273ZM153.727 0H8.27273V2H153.727V0ZM154.727 9.44444V1H152.727V9.44444H154.727ZM161 8.44444H153.727V10.4444H161V8.44444Z" fill="#FFC700"/>
<path d="M19.2 12.7999H20V19.1999H19.2V19.9999H12.8V19.1999H12V12.7999H12.8V11.9999H19.2V12.7999Z" fill="#F86C14"/>
<path d="M18.2 11.8H19V18.2H18.2V19H11.8V18.2H11V11.8H11.8V11H18.2V11.8Z" fill="#FFC700"/>
<path d="M150.2 12.7999H151V19.1999H150.2V19.9999H143.8V19.1999H143V12.7999H143.8V11.9999H150.2V12.7999Z" fill="#F86C14"/>
<path d="M149.2 11.8H150V18.2H149.2V19H142.8V18.2H142V11.8H142.8V11H149.2V11.8Z" fill="#FFC700"/>
<path d="M19.2 136.8H20V143.2H19.2V144H12.8V143.2H12V136.8H12.8V136H19.2V136.8Z" fill="#F86C14"/>
<path d="M18.2 135.8H19V142.2H18.2V143H11.8V142.2H11V135.8H11.8V135H18.2V135.8Z" fill="#FFC700"/>
<path d="M150.2 136.8H151V143.2H150.2V144H143.8V143.2H143V136.8H143.8V136H150.2V136.8Z" fill="#F86C14"/>
<path d="M149.2 135.8H150V142.2H149.2V143H142.8V142.2H142V135.8H142.8V135H149.2V135.8Z" fill="#FFC700"/>
</svg>
