<svg xmlns="http://www.w3.org/2000/svg" width="32" height="32" viewBox="0 0 32 32" fill="none">
  <path d="M30.9814 23.5065V16.5066H31.4986V23.5065H30.9814Z" fill="#FFFBF6" stroke="#F86C14" stroke-width="1.00278"/>
  <path d="M29.4515 26.6993V24.5094H29.9787V26.6993H29.4515Z" fill="#FFFBF6" stroke="#F86C14" stroke-width="1.00278"/>
  <path d="M29.4515 15.5039V13.3036H29.9787V15.5039H29.4515Z" fill="#FFFBF6" stroke="#F86C14" stroke-width="1.00278"/>
  <path d="M27.9314 29.9023V27.702H28.4487V29.9023H27.9314Z" fill="#FFFBF6" stroke="#F86C14" stroke-width="1.00278"/>
  <path d="M27.9314 12.3009V11.6968H28.4487V12.3009H27.9314Z" fill="#FFFBF6" stroke="#F86C14" stroke-width="1.00278"/>
  <path d="M26.4014 31.4988V30.9053H26.9286V31.4988H26.4014Z" fill="#FFFBF6" stroke="#F86C14" stroke-width="1.00278"/>
  <path d="M26.4014 23.5066V21.3062H26.9286V23.5066H26.4014Z" fill="#FFFBF6" stroke="#F86C14" stroke-width="1.00278"/>
  <path d="M26.4014 18.6965V16.5066H26.9286V18.6965H26.4014Z" fill="#FFFBF6" stroke="#F86C14" stroke-width="1.00278"/>
  <path d="M26.4014 10.6938V10.1002H26.9286V10.6938H26.4014Z" fill="#FFFBF6" stroke="#F86C14" stroke-width="1.00278"/>
  <path d="M24.8815 25.1029V24.5094H25.3987V25.1029H24.8815Z" fill="#FFFBF6" stroke="#F86C14" stroke-width="1.00278"/>
  <path d="M24.8815 15.504V11.6968H25.3987V15.504H24.8815Z" fill="#FFFBF6" stroke="#F86C14" stroke-width="1.00278"/>
  <path d="M24.8815 5.8945V5.30095H25.3987V5.8945H24.8815Z" fill="#FFFBF6" stroke="#F86C14" stroke-width="1.00278"/>
  <path d="M23.3615 26.6992V26.1057H23.8787V26.6992H23.3615Z" fill="#FFFBF6" stroke="#F86C14" stroke-width="1.00278"/>
  <path d="M23.3615 20.3034V19.6993H25.3987V20.3034H23.3615Z" fill="#FFFBF6" stroke="#F86C14" stroke-width="1.00278"/>
  <path d="M23.3615 7.50131V6.89726H23.8787V7.50131H23.3615Z" fill="#FFFBF6" stroke="#F86C14" stroke-width="1.00278"/>
  <path d="M23.3615 4.298V3.70445H23.8787V4.298H23.3615Z" fill="#FFFBF6" stroke="#F86C14" stroke-width="1.00278"/>
  <path d="M21.8315 21.8997V21.3062H22.3587V21.8997H21.8315Z" fill="#FFFBF6" stroke="#F86C14" stroke-width="1.00278"/>
  <path d="M21.8315 9.09756V8.50401H22.3587V9.09756H21.8315Z" fill="#FFFBF6" stroke="#F86C14" stroke-width="1.00278"/>
  <path d="M21.8315 2.70181V2.09776H22.3587V2.70181H21.8315Z" fill="#FFFBF6" stroke="#F86C14" stroke-width="1.00278"/>
  <path d="M20.3114 31.4988V30.9053H20.8287V31.4988H20.3114Z" fill="#FFFBF6" stroke="#F86C14" stroke-width="1.00278"/>
  <path d="M20.3114 23.5064V22.9024H20.8287V23.5064H20.3114Z" fill="#FFFBF6" stroke="#F86C14" stroke-width="1.00278"/>
  <path d="M20.3114 10.6938V10.1002H20.8287V10.6938H20.3114Z" fill="#FFFBF6" stroke="#F86C14" stroke-width="1.00278"/>
  <path d="M20.3114 1.09494V0.501389H20.8287V1.09494H20.3114Z" fill="#FFFBF6" stroke="#F86C14" stroke-width="1.00278"/>
  <path d="M18.7914 29.9024V24.5094H19.3086V29.9024H18.7914Z" fill="#FFFBF6" stroke="#F86C14" stroke-width="1.00278"/>
  <path d="M17.2614 2.70176V0.501389H17.7887V2.70176H17.2614Z" fill="#FFFBF6" stroke="#F86C14" stroke-width="1.00278"/>
  <path d="M15.7414 7.50115V3.70445H16.2586V7.50115H15.7414Z" fill="#FFFBF6" stroke="#F86C14" stroke-width="1.00278"/>
  <path d="M14.2113 10.6939V8.50401H14.7386V10.6939H14.2113Z" fill="#FFFBF6" stroke="#F86C14" stroke-width="1.00278"/>
  <path d="M12.6915 29.9024V24.5094H13.2087V29.9024H12.6915Z" fill="#FFFBF6" stroke="#F86C14" stroke-width="1.00278"/>
  <path d="M11.1714 31.4988V30.9053H11.6887V31.4988H11.1714Z" fill="#FFFBF6" stroke="#F86C14" stroke-width="1.00278"/>
  <path d="M11.1714 23.5064V22.9024H11.6887V23.5064H11.1714Z" fill="#FFFBF6" stroke="#F86C14" stroke-width="1.00278"/>
  <path d="M11.1714 10.6938V10.1002H11.6887V10.6938H11.1714Z" fill="#FFFBF6" stroke="#F86C14" stroke-width="1.00278"/>
  <path d="M11.1714 1.09494V0.501389H11.6887V1.09494H11.1714Z" fill="#FFFBF6" stroke="#F86C14" stroke-width="1.00278"/>
  <path d="M9.6414 21.8997V21.3062H10.1686V21.8997H9.6414Z" fill="#FFFBF6" stroke="#F86C14" stroke-width="1.00278"/>
  <path d="M9.6414 9.09756V8.50401H10.1686V9.09756H9.6414Z" fill="#FFFBF6" stroke="#F86C14" stroke-width="1.00278"/>
  <path d="M9.6414 2.70181V2.09776H10.1686V2.70181H9.6414Z" fill="#FFFBF6" stroke="#F86C14" stroke-width="1.00278"/>
  <path d="M8.12151 26.6992V26.1057H8.63873V26.6992H8.12151Z" fill="#FFFBF6" stroke="#F86C14" stroke-width="1.00278"/>
  <path d="M6.60149 20.3034V19.6993H8.63871V20.3034H6.60149Z" fill="#FFFBF6" stroke="#F86C14" stroke-width="1.00278"/>
  <path d="M8.12151 7.50131V6.89726H8.63873V7.50131H8.12151Z" fill="#FFFBF6" stroke="#F86C14" stroke-width="1.00278"/>
  <path d="M8.12151 4.298V3.70445H8.63873V4.298H8.12151Z" fill="#FFFBF6" stroke="#F86C14" stroke-width="1.00278"/>
  <path d="M6.60149 25.1029V24.5094H7.11871V25.1029H6.60149Z" fill="#FFFBF6" stroke="#F86C14" stroke-width="1.00278"/>
  <path d="M6.60149 15.504V11.6968H7.11871V15.504H6.60149Z" fill="#FFFBF6" stroke="#F86C14" stroke-width="1.00278"/>
  <path d="M6.60149 5.8945V5.30095H7.11871V5.8945H6.60149Z" fill="#FFFBF6" stroke="#F86C14" stroke-width="1.00278"/>
  <path d="M5.07146 31.4988V30.9053H5.59868V31.4988H5.07146Z" fill="#FFFBF6" stroke="#F86C14" stroke-width="1.00278"/>
  <path d="M5.07146 23.5066V21.3062H5.59868V23.5066H5.07146Z" fill="#FFFBF6" stroke="#F86C14" stroke-width="1.00278"/>
  <path d="M5.07146 18.6965V16.5066H5.59868V18.6965H5.07146Z" fill="#FFFBF6" stroke="#F86C14" stroke-width="1.00278"/>
  <path d="M5.07146 10.6938V10.1002H5.59868V10.6938H5.07146Z" fill="#FFFBF6" stroke="#F86C14" stroke-width="1.00278"/>
  <path d="M3.55144 29.9023V27.702H4.06866V29.9023H3.55144Z" fill="#FFFBF6" stroke="#F86C14" stroke-width="1.00278"/>
  <path d="M3.55144 12.3009V11.6968H4.06866V12.3009H3.55144Z" fill="#FFFBF6" stroke="#F86C14" stroke-width="1.00278"/>
  <path d="M2.02141 26.6993V24.5094H2.54863V26.6993H2.02141Z" fill="#FFFBF6" stroke="#F86C14" stroke-width="1.00278"/>
  <path d="M2.02141 15.5039V13.3036H2.54863V15.5039H2.02141Z" fill="#FFFBF6" stroke="#F86C14" stroke-width="1.00278"/>
  <path d="M0.501389 23.5065V16.5066H1.01861V23.5065H0.501389Z" fill="#FFFBF6" stroke="#F86C14" stroke-width="1.00278"/>
</svg>