<svg width="1406" height="1781" viewBox="0 0 1406 1781" fill="none" xmlns="http://www.w3.org/2000/svg">
<circle cx="28.12" cy="45.5" r="4" fill="#363532"/>
<circle cx="28.12" cy="110.5" r="4" fill="#363532"/>
<circle cx="28.12" cy="175.5" r="4" fill="#363532"/>
<circle cx="28.12" cy="240.5" r="4" fill="#363532"/>
<circle cx="28.12" cy="305.5" r="4" fill="#363532"/>
<circle cx="28.12" cy="370.5" r="4" fill="#363532"/>
<circle cx="28.12" cy="435.5" r="4" fill="#363532"/>
<circle cx="28.12" cy="500.5" r="4" fill="#363532"/>
<circle cx="28.12" cy="565.5" r="4" fill="#363532"/>
<circle cx="28.12" cy="630.5" r="4" fill="#363532"/>
<circle cx="28.12" cy="695.5" r="4" fill="#363532"/>
<circle cx="28.12" cy="760.5" r="4" fill="#363532"/>
<circle cx="28.12" cy="825.5" r="4" fill="#363532"/>
<circle cx="28.12" cy="890.5" r="4" fill="#363532"/>
<circle cx="28.12" cy="955.5" r="4" fill="#363532"/>
<circle cx="28.12" cy="1020.5" r="4" fill="#363532"/>
<circle cx="28.12" cy="1085.5" r="4" fill="#363532"/>
<circle cx="28.12" cy="1150.5" r="4" fill="#363532"/>
<circle cx="28.12" cy="1215.5" r="4" fill="#363532"/>
<circle cx="28.12" cy="1280.5" r="4" fill="#363532"/>
<circle cx="28.12" cy="1345.5" r="4" fill="#363532"/>
<circle cx="28.12" cy="1410.5" r="4" fill="#363532"/>
<circle cx="28.12" cy="1475.5" r="4" fill="#363532"/>
<circle cx="28.12" cy="1540.5" r="4" fill="#363532"/>
<circle cx="28.12" cy="1605.5" r="4" fill="#363532"/>
<circle cx="28.12" cy="1670.5" r="4" fill="#363532"/>
<circle cx="28.12" cy="1735.5" r="4" fill="#363532"/>
<circle cx="84.3601" cy="45.5" r="4" fill="#363532"/>
<circle cx="84.3601" cy="110.5" r="4" fill="#363532"/>
<circle cx="84.3601" cy="175.5" r="4" fill="#363532"/>
<circle cx="84.3601" cy="240.5" r="4" fill="#363532"/>
<circle cx="84.3601" cy="305.5" r="4" fill="#363532"/>
<circle cx="84.3601" cy="370.5" r="4" fill="#363532"/>
<circle cx="84.3601" cy="435.5" r="4" fill="#363532"/>
<circle cx="84.3601" cy="500.5" r="4" fill="#363532"/>
<circle cx="84.3601" cy="565.5" r="4" fill="#363532"/>
<circle cx="84.3601" cy="630.5" r="4" fill="#363532"/>
<circle cx="84.3601" cy="695.5" r="4" fill="#363532"/>
<circle cx="84.3601" cy="760.5" r="4" fill="#363532"/>
<circle cx="84.3601" cy="825.5" r="4" fill="#363532"/>
<circle cx="84.3601" cy="890.5" r="4" fill="#363532"/>
<circle cx="84.3601" cy="955.5" r="4" fill="#363532"/>
<circle cx="84.3601" cy="1020.5" r="4" fill="#363532"/>
<circle cx="84.3601" cy="1085.5" r="4" fill="#363532"/>
<circle cx="84.3601" cy="1150.5" r="4" fill="#363532"/>
<circle cx="84.3601" cy="1215.5" r="4" fill="#363532"/>
<circle cx="84.3601" cy="1280.5" r="4" fill="#363532"/>
<circle cx="84.3601" cy="1345.5" r="4" fill="#363532"/>
<circle cx="84.3601" cy="1410.5" r="4" fill="#363532"/>
<circle cx="84.3601" cy="1475.5" r="4" fill="#363532"/>
<circle cx="84.3601" cy="1540.5" r="4" fill="#363532"/>
<circle cx="84.3601" cy="1605.5" r="4" fill="#363532"/>
<circle cx="84.3601" cy="1670.5" r="4" fill="#363532"/>
<circle cx="84.3601" cy="1735.5" r="4" fill="#363532"/>
<circle cx="140.6" cy="45.5" r="4" fill="#363532"/>
<circle cx="140.6" cy="110.5" r="4" fill="#363532"/>
<circle cx="140.6" cy="175.5" r="4" fill="#363532"/>
<circle cx="140.6" cy="240.5" r="4" fill="#363532"/>
<circle cx="140.6" cy="305.5" r="4" fill="#363532"/>
<circle cx="140.6" cy="370.5" r="4" fill="#363532"/>
<circle cx="140.6" cy="435.5" r="4" fill="#363532"/>
<circle cx="140.6" cy="500.5" r="4" fill="#363532"/>
<circle cx="140.6" cy="565.5" r="4" fill="#363532"/>
<circle cx="140.6" cy="630.5" r="4" fill="#363532"/>
<circle cx="140.6" cy="695.5" r="4" fill="#363532"/>
<circle cx="140.6" cy="760.5" r="4" fill="#363532"/>
<circle cx="140.6" cy="825.5" r="4" fill="#363532"/>
<circle cx="140.6" cy="890.5" r="4" fill="#363532"/>
<circle cx="140.6" cy="955.5" r="4" fill="#363532"/>
<circle cx="140.6" cy="1020.5" r="4" fill="#363532"/>
<circle cx="140.6" cy="1085.5" r="4" fill="#363532"/>
<circle cx="140.6" cy="1150.5" r="4" fill="#363532"/>
<circle cx="140.6" cy="1215.5" r="4" fill="#363532"/>
<circle cx="140.6" cy="1280.5" r="4" fill="#363532"/>
<circle cx="140.6" cy="1345.5" r="4" fill="#363532"/>
<circle cx="140.6" cy="1410.5" r="4" fill="#363532"/>
<circle cx="140.6" cy="1475.5" r="4" fill="#363532"/>
<circle cx="140.6" cy="1540.5" r="4" fill="#363532"/>
<circle cx="140.6" cy="1605.5" r="4" fill="#363532"/>
<circle cx="140.6" cy="1670.5" r="4" fill="#363532"/>
<circle cx="140.6" cy="1735.5" r="4" fill="#363532"/>
<circle cx="196.84" cy="45.5" r="4" fill="#363532"/>
<circle cx="196.84" cy="110.5" r="4" fill="#363532"/>
<circle cx="196.84" cy="175.5" r="4" fill="#363532"/>
<circle cx="196.84" cy="240.5" r="4" fill="#363532"/>
<circle cx="196.84" cy="305.5" r="4" fill="#363532"/>
<circle cx="196.84" cy="370.5" r="4" fill="#363532"/>
<circle cx="196.84" cy="435.5" r="4" fill="#363532"/>
<circle cx="196.84" cy="500.5" r="4" fill="#363532"/>
<circle cx="196.84" cy="565.5" r="4" fill="#363532"/>
<circle cx="196.84" cy="630.5" r="4" fill="#363532"/>
<circle cx="196.84" cy="695.5" r="4" fill="#363532"/>
<circle cx="196.84" cy="760.5" r="4" fill="#363532"/>
<circle cx="196.84" cy="825.5" r="4" fill="#363532"/>
<circle cx="196.84" cy="890.5" r="4" fill="#363532"/>
<circle cx="196.84" cy="955.5" r="4" fill="#363532"/>
<circle cx="196.84" cy="1020.5" r="4" fill="#363532"/>
<circle cx="196.84" cy="1085.5" r="4" fill="#363532"/>
<circle cx="196.84" cy="1150.5" r="4" fill="#363532"/>
<circle cx="196.84" cy="1215.5" r="4" fill="#363532"/>
<circle cx="196.84" cy="1280.5" r="4" fill="#363532"/>
<circle cx="196.84" cy="1345.5" r="4" fill="#363532"/>
<circle cx="196.84" cy="1410.5" r="4" fill="#363532"/>
<circle cx="196.84" cy="1475.5" r="4" fill="#363532"/>
<circle cx="196.84" cy="1540.5" r="4" fill="#363532"/>
<circle cx="196.84" cy="1605.5" r="4" fill="#363532"/>
<circle cx="196.84" cy="1670.5" r="4" fill="#363532"/>
<circle cx="196.84" cy="1735.5" r="4" fill="#363532"/>
<circle cx="253.08" cy="45.5" r="4" fill="#363532"/>
<circle cx="253.08" cy="110.5" r="4" fill="#363532"/>
<circle cx="253.08" cy="175.5" r="4" fill="#363532"/>
<circle cx="253.08" cy="240.5" r="4" fill="#363532"/>
<circle cx="253.08" cy="305.5" r="4" fill="#363532"/>
<circle cx="253.08" cy="370.5" r="4" fill="#363532"/>
<circle cx="253.08" cy="435.5" r="4" fill="#363532"/>
<circle cx="253.08" cy="500.5" r="4" fill="#363532"/>
<circle cx="253.08" cy="565.5" r="4" fill="#363532"/>
<circle cx="253.08" cy="630.5" r="4" fill="#363532"/>
<circle cx="253.08" cy="695.5" r="4" fill="#363532"/>
<circle cx="253.08" cy="760.5" r="4" fill="#363532"/>
<circle cx="253.08" cy="825.5" r="4" fill="#363532"/>
<circle cx="253.08" cy="890.5" r="4" fill="#363532"/>
<circle cx="253.08" cy="955.5" r="4" fill="#363532"/>
<circle cx="253.08" cy="1020.5" r="4" fill="#363532"/>
<circle cx="253.08" cy="1085.5" r="4" fill="#363532"/>
<circle cx="253.08" cy="1150.5" r="4" fill="#363532"/>
<circle cx="253.08" cy="1215.5" r="4" fill="#363532"/>
<circle cx="253.08" cy="1280.5" r="4" fill="#363532"/>
<circle cx="253.08" cy="1345.5" r="4" fill="#363532"/>
<circle cx="253.08" cy="1410.5" r="4" fill="#363532"/>
<circle cx="253.08" cy="1475.5" r="4" fill="#363532"/>
<circle cx="253.08" cy="1540.5" r="4" fill="#363532"/>
<circle cx="253.08" cy="1605.5" r="4" fill="#363532"/>
<circle cx="253.08" cy="1670.5" r="4" fill="#363532"/>
<circle cx="253.08" cy="1735.5" r="4" fill="#363532"/>
<circle cx="309.32" cy="45.5" r="4" fill="#363532"/>
<circle cx="309.32" cy="110.5" r="4" fill="#363532"/>
<circle cx="309.32" cy="175.5" r="4" fill="#363532"/>
<circle cx="309.32" cy="240.5" r="4" fill="#363532"/>
<circle cx="309.32" cy="305.5" r="4" fill="#363532"/>
<circle cx="309.32" cy="370.5" r="4" fill="#363532"/>
<circle cx="309.32" cy="435.5" r="4" fill="#363532"/>
<circle cx="309.32" cy="500.5" r="4" fill="#363532"/>
<circle cx="309.32" cy="565.5" r="4" fill="#363532"/>
<circle cx="309.32" cy="630.5" r="4" fill="#363532"/>
<circle cx="309.32" cy="695.5" r="4" fill="#363532"/>
<circle cx="309.32" cy="760.5" r="4" fill="#363532"/>
<circle cx="309.32" cy="825.5" r="4" fill="#363532"/>
<circle cx="309.32" cy="890.5" r="4" fill="#363532"/>
<circle cx="309.32" cy="955.5" r="4" fill="#363532"/>
<circle cx="309.32" cy="1020.5" r="4" fill="#363532"/>
<circle cx="309.32" cy="1085.5" r="4" fill="#363532"/>
<circle cx="309.32" cy="1150.5" r="4" fill="#363532"/>
<circle cx="309.32" cy="1215.5" r="4" fill="#363532"/>
<circle cx="309.32" cy="1280.5" r="4" fill="#363532"/>
<circle cx="309.32" cy="1345.5" r="4" fill="#363532"/>
<circle cx="309.32" cy="1410.5" r="4" fill="#363532"/>
<circle cx="309.32" cy="1475.5" r="4" fill="#363532"/>
<circle cx="309.32" cy="1540.5" r="4" fill="#363532"/>
<circle cx="309.32" cy="1605.5" r="4" fill="#363532"/>
<circle cx="309.32" cy="1670.5" r="4" fill="#363532"/>
<circle cx="309.32" cy="1735.5" r="4" fill="#363532"/>
<circle cx="365.56" cy="45.5" r="4" fill="#363532"/>
<circle cx="365.56" cy="110.5" r="4" fill="#363532"/>
<circle cx="365.56" cy="175.5" r="4" fill="#363532"/>
<circle cx="365.56" cy="240.5" r="4" fill="#363532"/>
<circle cx="365.56" cy="305.5" r="4" fill="#363532"/>
<circle cx="365.56" cy="370.5" r="4" fill="#363532"/>
<circle cx="365.56" cy="435.5" r="4" fill="#363532"/>
<circle cx="365.56" cy="500.5" r="4" fill="#363532"/>
<circle cx="365.56" cy="565.5" r="4" fill="#363532"/>
<circle cx="365.56" cy="630.5" r="4" fill="#363532"/>
<circle cx="365.56" cy="695.5" r="4" fill="#363532"/>
<circle cx="365.56" cy="760.5" r="4" fill="#363532"/>
<circle cx="365.56" cy="825.5" r="4" fill="#363532"/>
<circle cx="365.56" cy="890.5" r="4" fill="#363532"/>
<circle cx="365.56" cy="955.5" r="4" fill="#363532"/>
<circle cx="365.56" cy="1020.5" r="4" fill="#363532"/>
<circle cx="365.56" cy="1085.5" r="4" fill="#363532"/>
<circle cx="365.56" cy="1150.5" r="4" fill="#363532"/>
<circle cx="365.56" cy="1215.5" r="4" fill="#363532"/>
<circle cx="365.56" cy="1280.5" r="4" fill="#363532"/>
<circle cx="365.56" cy="1345.5" r="4" fill="#363532"/>
<circle cx="365.56" cy="1410.5" r="4" fill="#363532"/>
<circle cx="365.56" cy="1475.5" r="4" fill="#363532"/>
<circle cx="365.56" cy="1540.5" r="4" fill="#363532"/>
<circle cx="365.56" cy="1605.5" r="4" fill="#363532"/>
<circle cx="365.56" cy="1670.5" r="4" fill="#363532"/>
<circle cx="365.56" cy="1735.5" r="4" fill="#363532"/>
<circle cx="421.8" cy="45.5" r="4" fill="#363532"/>
<circle cx="421.8" cy="110.5" r="4" fill="#363532"/>
<circle cx="421.8" cy="175.5" r="4" fill="#363532"/>
<circle cx="421.8" cy="240.5" r="4" fill="#363532"/>
<circle cx="421.8" cy="305.5" r="4" fill="#363532"/>
<circle cx="421.8" cy="370.5" r="4" fill="#363532"/>
<circle cx="421.8" cy="435.5" r="4" fill="#363532"/>
<circle cx="421.8" cy="500.5" r="4" fill="#363532"/>
<circle cx="421.8" cy="565.5" r="4" fill="#363532"/>
<circle cx="421.8" cy="630.5" r="4" fill="#363532"/>
<circle cx="421.8" cy="695.5" r="4" fill="#363532"/>
<circle cx="421.8" cy="760.5" r="4" fill="#363532"/>
<circle cx="421.8" cy="825.5" r="4" fill="#363532"/>
<circle cx="421.8" cy="890.5" r="4" fill="#363532"/>
<circle cx="421.8" cy="955.5" r="4" fill="#363532"/>
<circle cx="421.8" cy="1020.5" r="4" fill="#363532"/>
<circle cx="421.8" cy="1085.5" r="4" fill="#363532"/>
<circle cx="421.8" cy="1150.5" r="4" fill="#363532"/>
<circle cx="421.8" cy="1215.5" r="4" fill="#363532"/>
<circle cx="421.8" cy="1280.5" r="4" fill="#363532"/>
<circle cx="421.8" cy="1345.5" r="4" fill="#363532"/>
<circle cx="421.8" cy="1410.5" r="4" fill="#363532"/>
<circle cx="421.8" cy="1475.5" r="4" fill="#363532"/>
<circle cx="421.8" cy="1540.5" r="4" fill="#363532"/>
<circle cx="421.8" cy="1605.5" r="4" fill="#363532"/>
<circle cx="421.8" cy="1670.5" r="4" fill="#363532"/>
<circle cx="421.8" cy="1735.5" r="4" fill="#363532"/>
<circle cx="478.04" cy="45.5" r="4" fill="#363532"/>
<circle cx="478.04" cy="110.5" r="4" fill="#363532"/>
<circle cx="478.04" cy="175.5" r="4" fill="#363532"/>
<circle cx="478.04" cy="240.5" r="4" fill="#363532"/>
<circle cx="478.04" cy="305.5" r="4" fill="#363532"/>
<circle cx="478.04" cy="370.5" r="4" fill="#363532"/>
<circle cx="478.04" cy="435.5" r="4" fill="#363532"/>
<circle cx="478.04" cy="500.5" r="4" fill="#363532"/>
<circle cx="478.04" cy="565.5" r="4" fill="#363532"/>
<circle cx="478.04" cy="630.5" r="4" fill="#363532"/>
<circle cx="478.04" cy="695.5" r="4" fill="#363532"/>
<circle cx="478.04" cy="760.5" r="4" fill="#363532"/>
<circle cx="478.04" cy="825.5" r="4" fill="#363532"/>
<circle cx="478.04" cy="890.5" r="4" fill="#363532"/>
<circle cx="478.04" cy="955.5" r="4" fill="#363532"/>
<circle cx="478.04" cy="1020.5" r="4" fill="#363532"/>
<circle cx="478.04" cy="1085.5" r="4" fill="#363532"/>
<circle cx="478.04" cy="1150.5" r="4" fill="#363532"/>
<circle cx="478.04" cy="1215.5" r="4" fill="#363532"/>
<circle cx="478.04" cy="1280.5" r="4" fill="#363532"/>
<circle cx="478.04" cy="1345.5" r="4" fill="#363532"/>
<circle cx="478.04" cy="1410.5" r="4" fill="#363532"/>
<circle cx="478.04" cy="1475.5" r="4" fill="#363532"/>
<circle cx="478.04" cy="1540.5" r="4" fill="#363532"/>
<circle cx="478.04" cy="1605.5" r="4" fill="#363532"/>
<circle cx="478.04" cy="1670.5" r="4" fill="#363532"/>
<circle cx="478.04" cy="1735.5" r="4" fill="#363532"/>
<circle cx="534.28" cy="45.5" r="4" fill="#363532"/>
<circle cx="534.28" cy="110.5" r="4" fill="#363532"/>
<circle cx="534.28" cy="175.5" r="4" fill="#363532"/>
<circle cx="534.28" cy="240.5" r="4" fill="#363532"/>
<circle cx="534.28" cy="305.5" r="4" fill="#363532"/>
<circle cx="534.28" cy="370.5" r="4" fill="#363532"/>
<circle cx="534.28" cy="435.5" r="4" fill="#363532"/>
<circle cx="534.28" cy="500.5" r="4" fill="#363532"/>
<circle cx="534.28" cy="565.5" r="4" fill="#363532"/>
<circle cx="534.28" cy="630.5" r="4" fill="#363532"/>
<circle cx="534.28" cy="695.5" r="4" fill="#363532"/>
<circle cx="534.28" cy="760.5" r="4" fill="#363532"/>
<circle cx="534.28" cy="825.5" r="4" fill="#363532"/>
<circle cx="534.28" cy="890.5" r="4" fill="#363532"/>
<circle cx="534.28" cy="955.5" r="4" fill="#363532"/>
<circle cx="534.28" cy="1020.5" r="4" fill="#363532"/>
<circle cx="534.28" cy="1085.5" r="4" fill="#363532"/>
<circle cx="534.28" cy="1150.5" r="4" fill="#363532"/>
<circle cx="534.28" cy="1215.5" r="4" fill="#363532"/>
<circle cx="534.28" cy="1280.5" r="4" fill="#363532"/>
<circle cx="534.28" cy="1345.5" r="4" fill="#363532"/>
<circle cx="534.28" cy="1410.5" r="4" fill="#363532"/>
<circle cx="534.28" cy="1475.5" r="4" fill="#363532"/>
<circle cx="534.28" cy="1540.5" r="4" fill="#363532"/>
<circle cx="534.28" cy="1605.5" r="4" fill="#363532"/>
<circle cx="534.28" cy="1670.5" r="4" fill="#363532"/>
<circle cx="534.28" cy="1735.5" r="4" fill="#363532"/>
<circle cx="590.52" cy="45.5" r="4" fill="#363532"/>
<circle cx="590.52" cy="110.5" r="4" fill="#363532"/>
<circle cx="590.52" cy="175.5" r="4" fill="#363532"/>
<circle cx="590.52" cy="240.5" r="4" fill="#363532"/>
<circle cx="590.52" cy="305.5" r="4" fill="#363532"/>
<circle cx="590.52" cy="370.5" r="4" fill="#363532"/>
<circle cx="590.52" cy="435.5" r="4" fill="#363532"/>
<circle cx="590.52" cy="500.5" r="4" fill="#363532"/>
<circle cx="590.52" cy="565.5" r="4" fill="#363532"/>
<circle cx="590.52" cy="630.5" r="4" fill="#363532"/>
<circle cx="590.52" cy="695.5" r="4" fill="#363532"/>
<circle cx="590.52" cy="760.5" r="4" fill="#363532"/>
<circle cx="590.52" cy="825.5" r="4" fill="#363532"/>
<circle cx="590.52" cy="890.5" r="4" fill="#363532"/>
<circle cx="590.52" cy="955.5" r="4" fill="#363532"/>
<circle cx="590.52" cy="1020.5" r="4" fill="#363532"/>
<circle cx="590.52" cy="1085.5" r="4" fill="#363532"/>
<circle cx="590.52" cy="1150.5" r="4" fill="#363532"/>
<circle cx="590.52" cy="1215.5" r="4" fill="#363532"/>
<circle cx="590.52" cy="1280.5" r="4" fill="#363532"/>
<circle cx="590.52" cy="1345.5" r="4" fill="#363532"/>
<circle cx="590.52" cy="1410.5" r="4" fill="#363532"/>
<circle cx="590.52" cy="1475.5" r="4" fill="#363532"/>
<circle cx="590.52" cy="1540.5" r="4" fill="#363532"/>
<circle cx="590.52" cy="1605.5" r="4" fill="#363532"/>
<circle cx="590.52" cy="1670.5" r="4" fill="#363532"/>
<circle cx="590.52" cy="1735.5" r="4" fill="#363532"/>
<circle cx="646.76" cy="45.5" r="4" fill="#363532"/>
<circle cx="646.76" cy="110.5" r="4" fill="#363532"/>
<circle cx="646.76" cy="175.5" r="4" fill="#363532"/>
<circle cx="646.76" cy="240.5" r="4" fill="#363532"/>
<circle cx="646.76" cy="305.5" r="4" fill="#363532"/>
<circle cx="646.76" cy="370.5" r="4" fill="#363532"/>
<circle cx="646.76" cy="435.5" r="4" fill="#363532"/>
<circle cx="646.76" cy="500.5" r="4" fill="#363532"/>
<circle cx="646.76" cy="565.5" r="4" fill="#363532"/>
<circle cx="646.76" cy="630.5" r="4" fill="#363532"/>
<circle cx="646.76" cy="695.5" r="4" fill="#363532"/>
<circle cx="646.76" cy="760.5" r="4" fill="#363532"/>
<circle cx="646.76" cy="825.5" r="4" fill="#363532"/>
<circle cx="646.76" cy="890.5" r="4" fill="#363532"/>
<circle cx="646.76" cy="955.5" r="4" fill="#363532"/>
<circle cx="646.76" cy="1020.5" r="4" fill="#363532"/>
<circle cx="646.76" cy="1085.5" r="4" fill="#363532"/>
<circle cx="646.76" cy="1150.5" r="4" fill="#363532"/>
<circle cx="646.76" cy="1215.5" r="4" fill="#363532"/>
<circle cx="646.76" cy="1280.5" r="4" fill="#363532"/>
<circle cx="646.76" cy="1345.5" r="4" fill="#363532"/>
<circle cx="646.76" cy="1410.5" r="4" fill="#363532"/>
<circle cx="646.76" cy="1475.5" r="4" fill="#363532"/>
<circle cx="646.76" cy="1540.5" r="4" fill="#363532"/>
<circle cx="646.76" cy="1605.5" r="4" fill="#363532"/>
<circle cx="646.76" cy="1670.5" r="4" fill="#363532"/>
<circle cx="646.76" cy="1735.5" r="4" fill="#363532"/>
<circle cx="703" cy="45.5" r="4" fill="#363532"/>
<circle cx="703" cy="110.5" r="4" fill="#363532"/>
<circle cx="703" cy="175.5" r="4" fill="#363532"/>
<circle cx="703" cy="240.5" r="4" fill="#363532"/>
<circle cx="703" cy="305.5" r="4" fill="#363532"/>
<circle cx="703" cy="370.5" r="4" fill="#363532"/>
<circle cx="703" cy="435.5" r="4" fill="#363532"/>
<circle cx="703" cy="500.5" r="4" fill="#363532"/>
<circle cx="703" cy="565.5" r="4" fill="#363532"/>
<circle cx="703" cy="630.5" r="4" fill="#363532"/>
<circle cx="703" cy="695.5" r="4" fill="#363532"/>
<circle cx="703" cy="760.5" r="4" fill="#363532"/>
<circle cx="703" cy="825.5" r="4" fill="#363532"/>
<circle cx="703" cy="890.5" r="4" fill="#363532"/>
<circle cx="703" cy="955.5" r="4" fill="#363532"/>
<circle cx="703" cy="1020.5" r="4" fill="#363532"/>
<circle cx="703" cy="1085.5" r="4" fill="#363532"/>
<circle cx="703" cy="1150.5" r="4" fill="#363532"/>
<circle cx="703" cy="1215.5" r="4" fill="#363532"/>
<circle cx="703" cy="1280.5" r="4" fill="#363532"/>
<circle cx="703" cy="1345.5" r="4" fill="#363532"/>
<circle cx="703" cy="1410.5" r="4" fill="#363532"/>
<circle cx="703" cy="1475.5" r="4" fill="#363532"/>
<circle cx="703" cy="1540.5" r="4" fill="#363532"/>
<circle cx="703" cy="1605.5" r="4" fill="#363532"/>
<circle cx="703" cy="1670.5" r="4" fill="#363532"/>
<circle cx="703" cy="1735.5" r="4" fill="#363532"/>
<circle cx="759.24" cy="45.5" r="4" fill="#363532"/>
<circle cx="759.24" cy="110.5" r="4" fill="#363532"/>
<circle cx="759.24" cy="175.5" r="4" fill="#363532"/>
<circle cx="759.24" cy="240.5" r="4" fill="#363532"/>
<circle cx="759.24" cy="305.5" r="4" fill="#363532"/>
<circle cx="759.24" cy="370.5" r="4" fill="#363532"/>
<circle cx="759.24" cy="435.5" r="4" fill="#363532"/>
<circle cx="759.24" cy="500.5" r="4" fill="#363532"/>
<circle cx="759.24" cy="565.5" r="4" fill="#363532"/>
<circle cx="759.24" cy="630.5" r="4" fill="#363532"/>
<circle cx="759.24" cy="695.5" r="4" fill="#363532"/>
<circle cx="759.24" cy="760.5" r="4" fill="#363532"/>
<circle cx="759.24" cy="825.5" r="4" fill="#363532"/>
<circle cx="759.24" cy="890.5" r="4" fill="#363532"/>
<circle cx="759.24" cy="955.5" r="4" fill="#363532"/>
<circle cx="759.24" cy="1020.5" r="4" fill="#363532"/>
<circle cx="759.24" cy="1085.5" r="4" fill="#363532"/>
<circle cx="759.24" cy="1150.5" r="4" fill="#363532"/>
<circle cx="759.24" cy="1215.5" r="4" fill="#363532"/>
<circle cx="759.24" cy="1280.5" r="4" fill="#363532"/>
<circle cx="759.24" cy="1345.5" r="4" fill="#363532"/>
<circle cx="759.24" cy="1410.5" r="4" fill="#363532"/>
<circle cx="759.24" cy="1475.5" r="4" fill="#363532"/>
<circle cx="759.24" cy="1540.5" r="4" fill="#363532"/>
<circle cx="759.24" cy="1605.5" r="4" fill="#363532"/>
<circle cx="759.24" cy="1670.5" r="4" fill="#363532"/>
<circle cx="759.24" cy="1735.5" r="4" fill="#363532"/>
<circle cx="815.48" cy="45.5" r="4" fill="#363532"/>
<circle cx="815.48" cy="110.5" r="4" fill="#363532"/>
<circle cx="815.48" cy="175.5" r="4" fill="#363532"/>
<circle cx="815.48" cy="240.5" r="4" fill="#363532"/>
<circle cx="815.48" cy="305.5" r="4" fill="#363532"/>
<circle cx="815.48" cy="370.5" r="4" fill="#363532"/>
<circle cx="815.48" cy="435.5" r="4" fill="#363532"/>
<circle cx="815.48" cy="500.5" r="4" fill="#363532"/>
<circle cx="815.48" cy="565.5" r="4" fill="#363532"/>
<circle cx="815.48" cy="630.5" r="4" fill="#363532"/>
<circle cx="815.48" cy="695.5" r="4" fill="#363532"/>
<circle cx="815.48" cy="760.5" r="4" fill="#363532"/>
<circle cx="815.48" cy="825.5" r="4" fill="#363532"/>
<circle cx="815.48" cy="890.5" r="4" fill="#363532"/>
<circle cx="815.48" cy="955.5" r="4" fill="#363532"/>
<circle cx="815.48" cy="1020.5" r="4" fill="#363532"/>
<circle cx="815.48" cy="1085.5" r="4" fill="#363532"/>
<circle cx="815.48" cy="1150.5" r="4" fill="#363532"/>
<circle cx="815.48" cy="1215.5" r="4" fill="#363532"/>
<circle cx="815.48" cy="1280.5" r="4" fill="#363532"/>
<circle cx="815.48" cy="1345.5" r="4" fill="#363532"/>
<circle cx="815.48" cy="1410.5" r="4" fill="#363532"/>
<circle cx="815.48" cy="1475.5" r="4" fill="#363532"/>
<circle cx="815.48" cy="1540.5" r="4" fill="#363532"/>
<circle cx="815.48" cy="1605.5" r="4" fill="#363532"/>
<circle cx="815.48" cy="1670.5" r="4" fill="#363532"/>
<circle cx="815.48" cy="1735.5" r="4" fill="#363532"/>
<circle cx="871.72" cy="45.5" r="4" fill="#363532"/>
<circle cx="871.72" cy="110.5" r="4" fill="#363532"/>
<circle cx="871.72" cy="175.5" r="4" fill="#363532"/>
<circle cx="871.72" cy="240.5" r="4" fill="#363532"/>
<circle cx="871.72" cy="305.5" r="4" fill="#363532"/>
<circle cx="871.72" cy="370.5" r="4" fill="#363532"/>
<circle cx="871.72" cy="435.5" r="4" fill="#363532"/>
<circle cx="871.72" cy="500.5" r="4" fill="#363532"/>
<circle cx="871.72" cy="565.5" r="4" fill="#363532"/>
<circle cx="871.72" cy="630.5" r="4" fill="#363532"/>
<circle cx="871.72" cy="695.5" r="4" fill="#363532"/>
<circle cx="871.72" cy="760.5" r="4" fill="#363532"/>
<circle cx="871.72" cy="825.5" r="4" fill="#363532"/>
<circle cx="871.72" cy="890.5" r="4" fill="#363532"/>
<circle cx="871.72" cy="955.5" r="4" fill="#363532"/>
<circle cx="871.72" cy="1020.5" r="4" fill="#363532"/>
<circle cx="871.72" cy="1085.5" r="4" fill="#363532"/>
<circle cx="871.72" cy="1150.5" r="4" fill="#363532"/>
<circle cx="871.72" cy="1215.5" r="4" fill="#363532"/>
<circle cx="871.72" cy="1280.5" r="4" fill="#363532"/>
<circle cx="871.72" cy="1345.5" r="4" fill="#363532"/>
<circle cx="871.72" cy="1410.5" r="4" fill="#363532"/>
<circle cx="871.72" cy="1475.5" r="4" fill="#363532"/>
<circle cx="871.72" cy="1540.5" r="4" fill="#363532"/>
<circle cx="871.72" cy="1605.5" r="4" fill="#363532"/>
<circle cx="871.72" cy="1670.5" r="4" fill="#363532"/>
<circle cx="871.72" cy="1735.5" r="4" fill="#363532"/>
<circle cx="927.96" cy="45.5" r="4" fill="#363532"/>
<circle cx="927.96" cy="110.5" r="4" fill="#363532"/>
<circle cx="927.96" cy="175.5" r="4" fill="#363532"/>
<circle cx="927.96" cy="240.5" r="4" fill="#363532"/>
<circle cx="927.96" cy="305.5" r="4" fill="#363532"/>
<circle cx="927.96" cy="370.5" r="4" fill="#363532"/>
<circle cx="927.96" cy="435.5" r="4" fill="#363532"/>
<circle cx="927.96" cy="500.5" r="4" fill="#363532"/>
<circle cx="927.96" cy="565.5" r="4" fill="#363532"/>
<circle cx="927.96" cy="630.5" r="4" fill="#363532"/>
<circle cx="927.96" cy="695.5" r="4" fill="#363532"/>
<circle cx="927.96" cy="760.5" r="4" fill="#363532"/>
<circle cx="927.96" cy="825.5" r="4" fill="#363532"/>
<circle cx="927.96" cy="890.5" r="4" fill="#363532"/>
<circle cx="927.96" cy="955.5" r="4" fill="#363532"/>
<circle cx="927.96" cy="1020.5" r="4" fill="#363532"/>
<circle cx="927.96" cy="1085.5" r="4" fill="#363532"/>
<circle cx="927.96" cy="1150.5" r="4" fill="#363532"/>
<circle cx="927.96" cy="1215.5" r="4" fill="#363532"/>
<circle cx="927.96" cy="1280.5" r="4" fill="#363532"/>
<circle cx="927.96" cy="1345.5" r="4" fill="#363532"/>
<circle cx="927.96" cy="1410.5" r="4" fill="#363532"/>
<circle cx="927.96" cy="1475.5" r="4" fill="#363532"/>
<circle cx="927.96" cy="1540.5" r="4" fill="#363532"/>
<circle cx="927.96" cy="1605.5" r="4" fill="#363532"/>
<circle cx="927.96" cy="1670.5" r="4" fill="#363532"/>
<circle cx="927.96" cy="1735.5" r="4" fill="#363532"/>
<circle cx="984.2" cy="45.5" r="4" fill="#363532"/>
<circle cx="984.2" cy="110.5" r="4" fill="#363532"/>
<circle cx="984.2" cy="175.5" r="4" fill="#363532"/>
<circle cx="984.2" cy="240.5" r="4" fill="#363532"/>
<circle cx="984.2" cy="305.5" r="4" fill="#363532"/>
<circle cx="984.2" cy="370.5" r="4" fill="#363532"/>
<circle cx="984.2" cy="435.5" r="4" fill="#363532"/>
<circle cx="984.2" cy="500.5" r="4" fill="#363532"/>
<circle cx="984.2" cy="565.5" r="4" fill="#363532"/>
<circle cx="984.2" cy="630.5" r="4" fill="#363532"/>
<circle cx="984.2" cy="695.5" r="4" fill="#363532"/>
<circle cx="984.2" cy="760.5" r="4" fill="#363532"/>
<circle cx="984.2" cy="825.5" r="4" fill="#363532"/>
<circle cx="984.2" cy="890.5" r="4" fill="#363532"/>
<circle cx="984.2" cy="955.5" r="4" fill="#363532"/>
<circle cx="984.2" cy="1020.5" r="4" fill="#363532"/>
<circle cx="984.2" cy="1085.5" r="4" fill="#363532"/>
<circle cx="984.2" cy="1150.5" r="4" fill="#363532"/>
<circle cx="984.2" cy="1215.5" r="4" fill="#363532"/>
<circle cx="984.2" cy="1280.5" r="4" fill="#363532"/>
<circle cx="984.2" cy="1345.5" r="4" fill="#363532"/>
<circle cx="984.2" cy="1410.5" r="4" fill="#363532"/>
<circle cx="984.2" cy="1475.5" r="4" fill="#363532"/>
<circle cx="984.2" cy="1540.5" r="4" fill="#363532"/>
<circle cx="984.2" cy="1605.5" r="4" fill="#363532"/>
<circle cx="984.2" cy="1670.5" r="4" fill="#363532"/>
<circle cx="984.2" cy="1735.5" r="4" fill="#363532"/>
<circle cx="1040.44" cy="45.5" r="4" fill="#363532"/>
<circle cx="1040.44" cy="110.5" r="4" fill="#363532"/>
<circle cx="1040.44" cy="175.5" r="4" fill="#363532"/>
<circle cx="1040.44" cy="240.5" r="4" fill="#363532"/>
<circle cx="1040.44" cy="305.5" r="4" fill="#363532"/>
<circle cx="1040.44" cy="370.5" r="4" fill="#363532"/>
<circle cx="1040.44" cy="435.5" r="4" fill="#363532"/>
<circle cx="1040.44" cy="500.5" r="4" fill="#363532"/>
<circle cx="1040.44" cy="565.5" r="4" fill="#363532"/>
<circle cx="1040.44" cy="630.5" r="4" fill="#363532"/>
<circle cx="1040.44" cy="695.5" r="4" fill="#363532"/>
<circle cx="1040.44" cy="760.5" r="4" fill="#363532"/>
<circle cx="1040.44" cy="825.5" r="4" fill="#363532"/>
<circle cx="1040.44" cy="890.5" r="4" fill="#363532"/>
<circle cx="1040.44" cy="955.5" r="4" fill="#363532"/>
<circle cx="1040.44" cy="1020.5" r="4" fill="#363532"/>
<circle cx="1040.44" cy="1085.5" r="4" fill="#363532"/>
<circle cx="1040.44" cy="1150.5" r="4" fill="#363532"/>
<circle cx="1040.44" cy="1215.5" r="4" fill="#363532"/>
<circle cx="1040.44" cy="1280.5" r="4" fill="#363532"/>
<circle cx="1040.44" cy="1345.5" r="4" fill="#363532"/>
<circle cx="1040.44" cy="1410.5" r="4" fill="#363532"/>
<circle cx="1040.44" cy="1475.5" r="4" fill="#363532"/>
<circle cx="1040.44" cy="1540.5" r="4" fill="#363532"/>
<circle cx="1040.44" cy="1605.5" r="4" fill="#363532"/>
<circle cx="1040.44" cy="1670.5" r="4" fill="#363532"/>
<circle cx="1040.44" cy="1735.5" r="4" fill="#363532"/>
<circle cx="1096.68" cy="45.5" r="4" fill="#363532"/>
<circle cx="1096.68" cy="110.5" r="4" fill="#363532"/>
<circle cx="1096.68" cy="175.5" r="4" fill="#363532"/>
<circle cx="1096.68" cy="240.5" r="4" fill="#363532"/>
<circle cx="1096.68" cy="305.5" r="4" fill="#363532"/>
<circle cx="1096.68" cy="370.5" r="4" fill="#363532"/>
<circle cx="1096.68" cy="435.5" r="4" fill="#363532"/>
<circle cx="1096.68" cy="500.5" r="4" fill="#363532"/>
<circle cx="1096.68" cy="565.5" r="4" fill="#363532"/>
<circle cx="1096.68" cy="630.5" r="4" fill="#363532"/>
<circle cx="1096.68" cy="695.5" r="4" fill="#363532"/>
<circle cx="1096.68" cy="760.5" r="4" fill="#363532"/>
<circle cx="1096.68" cy="825.5" r="4" fill="#363532"/>
<circle cx="1096.68" cy="890.5" r="4" fill="#363532"/>
<circle cx="1096.68" cy="955.5" r="4" fill="#363532"/>
<circle cx="1096.68" cy="1020.5" r="4" fill="#363532"/>
<circle cx="1096.68" cy="1085.5" r="4" fill="#363532"/>
<circle cx="1096.68" cy="1150.5" r="4" fill="#363532"/>
<circle cx="1096.68" cy="1215.5" r="4" fill="#363532"/>
<circle cx="1096.68" cy="1280.5" r="4" fill="#363532"/>
<circle cx="1096.68" cy="1345.5" r="4" fill="#363532"/>
<circle cx="1096.68" cy="1410.5" r="4" fill="#363532"/>
<circle cx="1096.68" cy="1475.5" r="4" fill="#363532"/>
<circle cx="1096.68" cy="1540.5" r="4" fill="#363532"/>
<circle cx="1096.68" cy="1605.5" r="4" fill="#363532"/>
<circle cx="1096.68" cy="1670.5" r="4" fill="#363532"/>
<circle cx="1096.68" cy="1735.5" r="4" fill="#363532"/>
<circle cx="1152.92" cy="45.5" r="4" fill="#363532"/>
<circle cx="1152.92" cy="110.5" r="4" fill="#363532"/>
<circle cx="1152.92" cy="175.5" r="4" fill="#363532"/>
<circle cx="1152.92" cy="240.5" r="4" fill="#363532"/>
<circle cx="1152.92" cy="305.5" r="4" fill="#363532"/>
<circle cx="1152.92" cy="370.5" r="4" fill="#363532"/>
<circle cx="1152.92" cy="435.5" r="4" fill="#363532"/>
<circle cx="1152.92" cy="500.5" r="4" fill="#363532"/>
<circle cx="1152.92" cy="565.5" r="4" fill="#363532"/>
<circle cx="1152.92" cy="630.5" r="4" fill="#363532"/>
<circle cx="1152.92" cy="695.5" r="4" fill="#363532"/>
<circle cx="1152.92" cy="760.5" r="4" fill="#363532"/>
<circle cx="1152.92" cy="825.5" r="4" fill="#363532"/>
<circle cx="1152.92" cy="890.5" r="4" fill="#363532"/>
<circle cx="1152.92" cy="955.5" r="4" fill="#363532"/>
<circle cx="1152.92" cy="1020.5" r="4" fill="#363532"/>
<circle cx="1152.92" cy="1085.5" r="4" fill="#363532"/>
<circle cx="1152.92" cy="1150.5" r="4" fill="#363532"/>
<circle cx="1152.92" cy="1215.5" r="4" fill="#363532"/>
<circle cx="1152.92" cy="1280.5" r="4" fill="#363532"/>
<circle cx="1152.92" cy="1345.5" r="4" fill="#363532"/>
<circle cx="1152.92" cy="1410.5" r="4" fill="#363532"/>
<circle cx="1152.92" cy="1475.5" r="4" fill="#363532"/>
<circle cx="1152.92" cy="1540.5" r="4" fill="#363532"/>
<circle cx="1152.92" cy="1605.5" r="4" fill="#363532"/>
<circle cx="1152.92" cy="1670.5" r="4" fill="#363532"/>
<circle cx="1152.92" cy="1735.5" r="4" fill="#363532"/>
<circle cx="1209.16" cy="45.5" r="4" fill="#363532"/>
<circle cx="1209.16" cy="110.5" r="4" fill="#363532"/>
<circle cx="1209.16" cy="175.5" r="4" fill="#363532"/>
<circle cx="1209.16" cy="240.5" r="4" fill="#363532"/>
<circle cx="1209.16" cy="305.5" r="4" fill="#363532"/>
<circle cx="1209.16" cy="370.5" r="4" fill="#363532"/>
<circle cx="1209.16" cy="435.5" r="4" fill="#363532"/>
<circle cx="1209.16" cy="500.5" r="4" fill="#363532"/>
<circle cx="1209.16" cy="565.5" r="4" fill="#363532"/>
<circle cx="1209.16" cy="630.5" r="4" fill="#363532"/>
<circle cx="1209.16" cy="695.5" r="4" fill="#363532"/>
<circle cx="1209.16" cy="760.5" r="4" fill="#363532"/>
<circle cx="1209.16" cy="825.5" r="4" fill="#363532"/>
<circle cx="1209.16" cy="890.5" r="4" fill="#363532"/>
<circle cx="1209.16" cy="955.5" r="4" fill="#363532"/>
<circle cx="1209.16" cy="1020.5" r="4" fill="#363532"/>
<circle cx="1209.16" cy="1085.5" r="4" fill="#363532"/>
<circle cx="1209.16" cy="1150.5" r="4" fill="#363532"/>
<circle cx="1209.16" cy="1215.5" r="4" fill="#363532"/>
<circle cx="1209.16" cy="1280.5" r="4" fill="#363532"/>
<circle cx="1209.16" cy="1345.5" r="4" fill="#363532"/>
<circle cx="1209.16" cy="1410.5" r="4" fill="#363532"/>
<circle cx="1209.16" cy="1475.5" r="4" fill="#363532"/>
<circle cx="1209.16" cy="1540.5" r="4" fill="#363532"/>
<circle cx="1209.16" cy="1605.5" r="4" fill="#363532"/>
<circle cx="1209.16" cy="1670.5" r="4" fill="#363532"/>
<circle cx="1209.16" cy="1735.5" r="4" fill="#363532"/>
<circle cx="1265.4" cy="45.5" r="4" fill="#363532"/>
<circle cx="1265.4" cy="110.5" r="4" fill="#363532"/>
<circle cx="1265.4" cy="175.5" r="4" fill="#363532"/>
<circle cx="1265.4" cy="240.5" r="4" fill="#363532"/>
<circle cx="1265.4" cy="305.5" r="4" fill="#363532"/>
<circle cx="1265.4" cy="370.5" r="4" fill="#363532"/>
<circle cx="1265.4" cy="435.5" r="4" fill="#363532"/>
<circle cx="1265.4" cy="500.5" r="4" fill="#363532"/>
<circle cx="1265.4" cy="565.5" r="4" fill="#363532"/>
<circle cx="1265.4" cy="630.5" r="4" fill="#363532"/>
<circle cx="1265.4" cy="695.5" r="4" fill="#363532"/>
<circle cx="1265.4" cy="760.5" r="4" fill="#363532"/>
<circle cx="1265.4" cy="825.5" r="4" fill="#363532"/>
<circle cx="1265.4" cy="890.5" r="4" fill="#363532"/>
<circle cx="1265.4" cy="955.5" r="4" fill="#363532"/>
<circle cx="1265.4" cy="1020.5" r="4" fill="#363532"/>
<circle cx="1265.4" cy="1085.5" r="4" fill="#363532"/>
<circle cx="1265.4" cy="1150.5" r="4" fill="#363532"/>
<circle cx="1265.4" cy="1215.5" r="4" fill="#363532"/>
<circle cx="1265.4" cy="1280.5" r="4" fill="#363532"/>
<circle cx="1265.4" cy="1345.5" r="4" fill="#363532"/>
<circle cx="1265.4" cy="1410.5" r="4" fill="#363532"/>
<circle cx="1265.4" cy="1475.5" r="4" fill="#363532"/>
<circle cx="1265.4" cy="1540.5" r="4" fill="#363532"/>
<circle cx="1265.4" cy="1605.5" r="4" fill="#363532"/>
<circle cx="1265.4" cy="1670.5" r="4" fill="#363532"/>
<circle cx="1265.4" cy="1735.5" r="4" fill="#363532"/>
<circle cx="1321.64" cy="45.5" r="4" fill="#363532"/>
<circle cx="1321.64" cy="110.5" r="4" fill="#363532"/>
<circle cx="1321.64" cy="175.5" r="4" fill="#363532"/>
<circle cx="1321.64" cy="240.5" r="4" fill="#363532"/>
<circle cx="1321.64" cy="305.5" r="4" fill="#363532"/>
<circle cx="1321.64" cy="370.5" r="4" fill="#363532"/>
<circle cx="1321.64" cy="435.5" r="4" fill="#363532"/>
<circle cx="1321.64" cy="500.5" r="4" fill="#363532"/>
<circle cx="1321.64" cy="565.5" r="4" fill="#363532"/>
<circle cx="1321.64" cy="630.5" r="4" fill="#363532"/>
<circle cx="1321.64" cy="695.5" r="4" fill="#363532"/>
<circle cx="1321.64" cy="760.5" r="4" fill="#363532"/>
<circle cx="1321.64" cy="825.5" r="4" fill="#363532"/>
<circle cx="1321.64" cy="890.5" r="4" fill="#363532"/>
<circle cx="1321.64" cy="955.5" r="4" fill="#363532"/>
<circle cx="1321.64" cy="1020.5" r="4" fill="#363532"/>
<circle cx="1321.64" cy="1085.5" r="4" fill="#363532"/>
<circle cx="1321.64" cy="1150.5" r="4" fill="#363532"/>
<circle cx="1321.64" cy="1215.5" r="4" fill="#363532"/>
<circle cx="1321.64" cy="1280.5" r="4" fill="#363532"/>
<circle cx="1321.64" cy="1345.5" r="4" fill="#363532"/>
<circle cx="1321.64" cy="1410.5" r="4" fill="#363532"/>
<circle cx="1321.64" cy="1475.5" r="4" fill="#363532"/>
<circle cx="1321.64" cy="1540.5" r="4" fill="#363532"/>
<circle cx="1321.64" cy="1605.5" r="4" fill="#363532"/>
<circle cx="1321.64" cy="1670.5" r="4" fill="#363532"/>
<circle cx="1321.64" cy="1735.5" r="4" fill="#363532"/>
<circle cx="1377.88" cy="45.5" r="4" fill="#363532"/>
<circle cx="1377.88" cy="110.5" r="4" fill="#363532"/>
<circle cx="1377.88" cy="175.5" r="4" fill="#363532"/>
<circle cx="1377.88" cy="240.5" r="4" fill="#363532"/>
<circle cx="1377.88" cy="305.5" r="4" fill="#363532"/>
<circle cx="1377.88" cy="370.5" r="4" fill="#363532"/>
<circle cx="1377.88" cy="435.5" r="4" fill="#363532"/>
<circle cx="1377.88" cy="500.5" r="4" fill="#363532"/>
<circle cx="1377.88" cy="565.5" r="4" fill="#363532"/>
<circle cx="1377.88" cy="630.5" r="4" fill="#363532"/>
<circle cx="1377.88" cy="695.5" r="4" fill="#363532"/>
<circle cx="1377.88" cy="760.5" r="4" fill="#363532"/>
<circle cx="1377.88" cy="825.5" r="4" fill="#363532"/>
<circle cx="1377.88" cy="890.5" r="4" fill="#363532"/>
<circle cx="1377.88" cy="955.5" r="4" fill="#363532"/>
<circle cx="1377.88" cy="1020.5" r="4" fill="#363532"/>
<circle cx="1377.88" cy="1085.5" r="4" fill="#363532"/>
<circle cx="1377.88" cy="1150.5" r="4" fill="#363532"/>
<circle cx="1377.88" cy="1215.5" r="4" fill="#363532"/>
<circle cx="1377.88" cy="1280.5" r="4" fill="#363532"/>
<circle cx="1377.88" cy="1345.5" r="4" fill="#363532"/>
<circle cx="1377.88" cy="1410.5" r="4" fill="#363532"/>
<circle cx="1377.88" cy="1475.5" r="4" fill="#363532"/>
<circle cx="1377.88" cy="1540.5" r="4" fill="#363532"/>
<circle cx="1377.88" cy="1605.5" r="4" fill="#363532"/>
<circle cx="1377.88" cy="1670.5" r="4" fill="#363532"/>
<circle cx="1377.88" cy="1735.5" r="4" fill="#363532"/>
</svg>
