<svg width="18" height="18" viewBox="0 0 18 18" fill="none" xmlns="http://www.w3.org/2000/svg">
<path d="M10.1676 9.45847H10.8601V10.151H11.5526V10.8435H12.2451V11.536H12.9376V12.2285H13.6301V12.921H14.3227V13.6135H15.0152V14.3061H15.7077V14.9986H15.0152V15.6911H14.3227V14.9986H13.6301V14.3061H12.9376V13.6135H12.2451V12.921H11.5526V12.2285H10.8601V11.536H10.1676V10.8435H9.47507V10.151H8.09004V10.8435H7.39753V11.536H6.70502V12.2285H6.0125V12.921H5.31999V13.6135H4.62748V14.3061H3.93496V14.9986H3.24245V15.6911H2.54994V14.9986H1.85742V14.3061H2.54994V13.6135H3.24245V12.921H3.93496V12.2285H4.62748V11.536H5.31999V10.8435H6.0125V10.151H6.70502V9.45847H7.39753V8.07344H6.70502V7.38093H6.0125V6.68841H5.31999V5.9959H4.62748V5.30339H3.93496V4.61087H3.24245V3.91836H2.54994V3.22585H1.85742V2.53333H2.54994V1.84082H3.24245V2.53333H3.93496V3.22585H4.62748V3.91836H5.31999V4.61087H6.0125V5.30339H6.70502V5.9959H7.39753V6.68841H8.09004V7.38093H9.47507V6.68841H10.1676V5.9959H10.8601V5.30339H11.5526V4.61087H12.2451V3.91836H12.9376V3.22585H13.6301V2.53333H14.3227V1.84082H15.0152V2.53333H15.7077V3.22585H15.0152V3.91836H14.3227V4.61087H13.6301V5.30339H12.9376V5.9959H12.2451V6.68841H11.5526V7.38093H10.8601V8.07344H10.1676V9.45847Z" fill="black"/>
</svg>
