<svg width="40" height="41" viewBox="0 0 40 41" fill="none" xmlns="http://www.w3.org/2000/svg">
<g clip-path="url(#clip0_10340_28276)">
<circle cx="20" cy="20.5" r="20" fill="url(#paint0_linear_10340_28276)"/>
<path d="M26 10.5V11.5H24V12.5H22V13.5H21V14.5H20V16.5H21V18.5H22V20.5H24V19.5H26V18.5H28V17.5H29V16.5H30V14.5H31V10.5H26ZM28 14.5V16.5H26V17.5H24V18.5H23V16.5H22V14.5H24V13.5H26V12.5H29V14.5H28Z" fill="#1A1918"/>
<path d="M20 17.5H19V16.5H18V15.5H16V14.5H14V13.5H9V16.5H10V18.5H11V20.5H12V21.5H13V22.5H15V23.5H19V30.5H21V19.5H20V17.5ZM13 20.5V18.5H12V16.5H11V15.5H14V16.5H16V17.5H18V19.5H19V21.5H15V20.5H13Z" fill="#1A1918"/>
</g>
<defs>
<linearGradient id="paint0_linear_10340_28276" x1="20" y1="0.5" x2="20" y2="40.5" gradientUnits="userSpaceOnUse">
<stop stop-color="#FF4D00"/>
<stop offset="1" stop-color="#FA4CD4"/>
</linearGradient>
<clipPath id="clip0_10340_28276">
<rect width="40" height="40" fill="white" transform="translate(0 0.5)"/>
</clipPath>
</defs>
</svg>
