<svg width="40" height="41" viewBox="0 0 40 41" fill="none" xmlns="http://www.w3.org/2000/svg">
<g clip-path="url(#clip0_10340_28268)">
<circle cx="20" cy="20.5" r="20" fill="#2A6F22"/>
<path d="M31 24.5V19.5H30V17.5H28V16.5H26V15.5H23V13.5H21V12.5H19V11.5H14V12.5H12V13.5H10V15.5H9V20.5H10V22.5H9V26.5H12V25.5H13V24.5H17V26.5H19V27.5H21V28.5H27V29.5H28V30.5H31V26.5H30V24.5H31ZM13 22.5V23.5H12V24.5H11V22.5H12V20.5H11V15.5H12V14.5H14V13.5H19V14.5H21V15.5H22V20.5H21V21.5H19V22.5H13ZM29 24.5H28V26.5H29V28.5H28V27.5H27V26.5H21V25.5H19V23.5H21V22.5H23V20.5H24V17.5H26V18.5H28V19.5H29V24.5Z" fill="#1A1918"/>
</g>
<defs>
<clipPath id="clip0_10340_28268">
<rect width="40" height="40" fill="white" transform="translate(0 0.5)"/>
</clipPath>
</defs>
</svg>
