<svg width="135" height="52" viewBox="0 0 135 52" fill="none" xmlns="http://www.w3.org/2000/svg">
<rect x="6" y="8" width="123" height="35" fill="#FFC700"/>
<rect x="9" y="43" width="117" height="3" fill="#FFC700"/>
<rect x="4" y="12" width="2" height="28" fill="#FFC700"/>
<rect x="129" y="12" width="2" height="28" fill="#FFC700"/>
<rect x="9" y="6" width="117" height="3" fill="#FFC700"/>
<rect x="6" y="3" width="123" height="3" fill="#FFEEB2"/>
<rect x="6" y="46" width="123" height="3" fill="#FFEEB2"/>
<rect x="2" y="6" width="4" height="3" fill="#FFEEB2"/>
<rect x="2" y="9" width="4" height="3" fill="white"/>
<rect x="2" y="40" width="4" height="3" fill="white"/>
<rect x="6" y="6" width="4" height="3" fill="white"/>
<rect x="129" y="9" width="4" height="3" fill="white"/>
<rect x="129" y="40" width="4" height="3" fill="white"/>
<rect x="6" y="43" width="4" height="3" fill="white"/>
<rect x="125" y="6" width="4" height="3" fill="white"/>
<rect x="125" y="43" width="4" height="3" fill="white"/>
<rect x="2" y="3" width="4" height="3" fill="#F3C05C"/>
<rect x="2" y="46" width="4" height="3" fill="#F3C05C"/>
<rect x="129" y="3" width="4" height="3" fill="#F3C05C"/>
<rect x="129" y="46" width="4" height="3" fill="#F3C05C"/>
<rect x="2" y="43" width="4" height="3" fill="#FFEEB2"/>
<rect x="129" y="6" width="4" height="3" fill="#FFEEB2"/>
<rect x="129" y="43" width="4" height="3" fill="#FFEEB2"/>
<rect x="2" y="2" width="131" height="48" rx="6" stroke="#ECAA00" stroke-width="4"/>
</svg>
