<svg xmlns="http://www.w3.org/2000/svg" width="205" height="52" viewBox="0 0 205 52" fill="none">
  <rect x="6" y="8" width="193" height="35" fill="#FFC700"/>
  <path d="M10 43H195V46H10V43Z" fill="#FFC700"/>
  <rect x="4" y="12" width="3.03704" height="28" fill="#FFC700"/>
  <rect x="199" y="12" width="3.03704" height="28" fill="#FFC700"/>
  <rect x="10" y="6" width="185" height="3" fill="#FFC700"/>
  <rect x="6" y="3" width="193" height="3" fill="#FFEEB2"/>
  <rect x="6" y="46" width="193" height="3" fill="#FFEEB2"/>
  <rect x="2" y="6" width="4" height="3" fill="#FFEEB2"/>
  <rect x="2" y="9" width="4" height="3" fill="white"/>
  <rect x="2" y="40" width="4" height="3" fill="white"/>
  <rect x="6" y="6" width="4" height="3" fill="white"/>
  <rect x="199" y="9" width="4" height="3" fill="white"/>
  <rect x="199" y="40" width="4" height="3" fill="white"/>
  <rect x="6" y="43" width="4" height="3" fill="white"/>
  <rect x="195" y="6" width="4" height="3" fill="white"/>
  <rect x="195" y="43" width="4" height="3" fill="white"/>
  <rect x="2" y="3" width="4" height="3" fill="#F3C05C"/>
  <rect x="2" y="46" width="4" height="3" fill="#F3C05C"/>
  <rect x="199" y="3" width="4" height="3" fill="#F3C05C"/>
  <rect x="199" y="46" width="4" height="3" fill="#F3C05C"/>
  <rect x="2" y="43" width="4" height="3" fill="#FFEEB2"/>
  <rect x="199" y="6" width="4" height="3" fill="#FFEEB2"/>
  <rect x="199" y="43" width="4" height="3" fill="#FFEEB2"/>
  <rect x="2" y="2" width="201" height="48" rx="6" stroke="#ECAA00" stroke-width="4"/>
</svg>