<svg width="31" height="31" viewBox="0 0 31 31" fill="none" xmlns="http://www.w3.org/2000/svg">
<path d="M27.9805 25.5V24.25H26.7305V23H25.4805V21.75H24.2305V20.5H21.7305V19.25H22.9805V16.75H24.2305V9.25H22.9805V6.75H21.7305V5.5H20.4805V4.25H19.2305V3H16.7305V1.75H9.23047V3H6.73047V4.25H5.48047V5.5H4.23047V6.75H2.98047V9.25H1.73047V16.75H2.98047V19.25H4.23047V20.5H5.48047V21.75H6.73047V23H9.23047V24.25H16.7305V23H19.2305V21.75H20.4805V24.25H21.7305V25.5H22.9805V26.75H24.2305V28H25.4805V29.25H27.9805V28H29.2305V25.5H27.9805ZM15.4805 19.25V20.5H10.4805V19.25H7.98047V18H6.73047V15.5H5.48047V10.5H6.73047V8H7.98047V6.75H10.4805V5.5H15.4805V6.75H17.9805V8H19.2305V10.5H20.4805V15.5H19.2305V18H17.9805V19.25H15.4805Z" fill="#FFFBF6"/>
</svg>
