<svg width="169" height="261" viewBox="0 0 169 261" fill="none" xmlns="http://www.w3.org/2000/svg">
<ellipse cx="85.6289" cy="246.398" rx="57.3867" ry="14.119" fill="url(#paint0_linear_8233_25252)"/>
<path d="M112.271 60.6507V57.083H108.703V49.9476H105.135V28.5415H101.567V21.4061H97.9998V17.8384H94.4321V14.2707H87.2967V10.703H83.729V3.56763H76.5936V10.703H73.0259V14.2707H65.8905V17.8384H62.3228V21.4061H58.7551V28.5415H55.1875V49.9476H51.6198V57.083H48.0521V60.6507H44.4844V64.2184H48.0521V67.7861H112.271V64.2184H115.838V60.6507H112.271ZM87.2967 21.4061V32.1092H83.729V42.8122H76.5936V32.1092H73.0259V21.4061H87.2967ZM76.5936 49.9476H83.729V57.083H76.5936V49.9476Z" fill="#DC4200"/>
<path fill-rule="evenodd" clip-rule="evenodd" d="M35.7341 71.1519H124.894V78.4726H133.588V213.893H124.894V213.973H35.7341V206.512H26.8789V78.6123H35.7341V71.1519ZM18.0154 93.5332H26.8766V184.129H18.0154V93.5332ZM18.0131 120.18H9.15186V176.669H18.0131V120.18ZM150.975 199.252V176.377H160.125V139.776H150.975V121.477H141.826V93.1117H133.591V206.572H141.826V199.252H150.975ZM53.4574 221.434V228.895H115.49V221.434H124.355V213.974H44.5988V221.434H53.4574Z" fill="#D59F52"/>
<rect x="113.461" y="110.499" width="15.5551" height="32.9401" fill="#1A1918"/>
<rect x="120.785" y="114.157" width="8.23503" height="11.895" fill="#FFFBF6"/>
<path d="M106.342 48.2778H54.4371V55.7386H106.342V48.2778Z" fill="#1A1918"/>
<path d="M115.204 228.534H53.1711V235.864H115.204V228.534Z" fill="#1A1918"/>
<path d="M43.9202 62.9179H35.6852V71.1529H44.3093L43.9202 62.9179Z" fill="#1A1918"/>
<path d="M115.204 63.1994H124.066V71.1529H115.204V63.1994Z" fill="#1A1918"/>
<path d="M106.342 55.7386H115.204V63.1994H106.342V55.7386Z" fill="#1A1918"/>
<path d="M43.9202 55.7386H54.4371V63.1994L43.9202 62.9179V55.7386Z" fill="#1A1918"/>
<path d="M35.6852 71.1529H26.5856V78.4729H35.6852V71.1529Z" fill="#1A1918"/>
<path d="M124.066 71.1529H132.928V78.4729H124.066V71.1529Z" fill="#1A1918"/>
<path d="M26.5856 78.4729H17.7237V93.0427H26.5856V78.4729Z" fill="#1A1918"/>
<path d="M17.7237 93.0427H8.86191V119.688H17.7237V93.0427Z" fill="#1A1918"/>
<path d="M132.928 78.4729H141.789V93.113H132.928V78.4729Z" fill="#1A1918"/>
<path d="M8.86191 119.688H6.10352e-05V176.177H8.86191V119.688Z" fill="#1A1918"/>
<path d="M150.976 93.113H141.789V121.82H150.976V93.113Z" fill="#1A1918"/>
<path d="M26.5856 183.638H17.7237V205.658H26.5856V183.638Z" fill="#1A1918"/>
<path d="M150.976 176.177H160.126V198.338H150.976V176.177Z" fill="#1A1918"/>
<path d="M150.976 121.82H160.126V139.939H150.976V121.82Z" fill="#1A1918"/>
<path d="M35.4474 205.658H26.5856V213.481H35.4474V205.658Z" fill="#1A1918"/>
<path d="M17.7237 176.177H8.86191V183.638H17.7237V176.177Z" fill="#1A1918"/>
<path d="M133.591 206.573H141.789V213.893H133.591V206.573Z" fill="#1A1918"/>
<path d="M141.789 198.338H150.976V206.573H141.789V198.338Z" fill="#1A1918"/>
<path d="M43.9202 213.481H35.4474V221.213H43.9202V213.481Z" fill="#1A1918"/>
<path d="M124.441 213.893H133.591V221.213H124.441V213.893Z" fill="#1A1918"/>
<path d="M53.1711 221.213H43.9202V228.534H53.1711V221.213Z" fill="#1A1918"/>
<path d="M115.204 221.213H124.441V228.534H115.204V221.213Z" fill="#1A1918"/>
<path d="M168.375 139.939H160.126V176.177H168.375V139.939Z" fill="#1A1918"/>
<rect x="54.9062" y="110.499" width="15.5551" height="32.9401" fill="#1A1918"/>
<rect x="54.9062" y="143.438" width="4.57502" height="47.5802" fill="#5C8EF3"/>
<rect x="124.445" y="143.438" width="4.57502" height="47.5802" fill="#5C8EF3"/>
<rect x="62.2266" y="114.157" width="8.23503" height="11.895" fill="#FFFBF6"/>
<rect width="7.32003" height="10.98" transform="matrix(-1 0 0 1 80.5234 150.758)" fill="#1A1918"/>
<rect width="6.40502" height="10.98" transform="matrix(-1 0 0 1 111.637 150.758)" fill="#1A1918"/>
<rect width="25.4752" height="6.6457" transform="matrix(-1 0 0 1 70.8906 236.813)" fill="#B17C31"/>
<rect width="21.9601" height="6.40502" transform="matrix(-1 0 0 1 127.191 236.77)" fill="#B17C31"/>
<rect width="25.6201" height="7.32003" transform="matrix(-1 0 0 1 105.227 161.739)" fill="#1A1918"/>
<rect width="25.6201" height="8.23503" transform="matrix(-1 0 0 1 70.4609 228.534)" fill="#1A1918"/>
<rect width="24.7051" height="8.23503" transform="matrix(-1 0 0 1 70.4609 243.173)" fill="#1A1918"/>
<rect width="23.7901" height="8.23503" transform="matrix(-1 0 0 1 129.02 243.173)" fill="#1A1918"/>
<path fill-rule="evenodd" clip-rule="evenodd" d="M106.351 55.7388H54.4459V62.9175H43.9266V71.1525H54.4418V78.1217H54.442V85.5821H86.0914V78.1217H100.017V71.1525H115.297V62.9175H106.351V55.7388Z" fill="#EBBA77"/>
<path fill-rule="evenodd" clip-rule="evenodd" d="M35.684 71.1519H43.9191V112.327H35.684V71.1519ZM26.5296 78.473H35.6796V183.641H44.3051V191.099H69.6252V198.56H35.6796V198.561H78.4887V206.022H87.3474V212.978H115.285L115.285 205.659H124.438V198.339H141.823V206.574H133.585V213.894H124.44V221.213H43.92V213.483H35.4424V206.022H35.4455V205.658H26.5296V183.64H17.7194V93.0442H26.5296V78.473ZM17.7171 119.689H8.8559V176.178H17.7171V119.689ZM115.291 221.213V228.533H53.0705L53.0705 221.213H115.291ZM150.973 198.338V191.018H124.438V198.338H150.973Z" fill="#B17C31"/>
<rect width="7.32003" height="22.8751" transform="matrix(-1 0 0 1 51.2422 228.534)" fill="#1A1918"/>
<rect width="7.32003" height="21.9601" transform="matrix(-1 0 0 1 72.2891 229.449)" fill="#1A1918"/>
<rect width="6.40502" height="22.8751" transform="matrix(-1 0 0 1 129.02 228.534)" fill="#1A1918"/>
<rect width="6.40502" height="21.9601" transform="matrix(-1 0 0 1 111.637 229.449)" fill="#1A1918"/>
<rect width="23.7901" height="8.23503" transform="matrix(-1 0 0 1 129.02 228.534)" fill="#1A1918"/>
<defs>
<linearGradient id="paint0_linear_8233_25252" x1="28.2422" y1="246.398" x2="143.016" y2="246.398" gradientUnits="userSpaceOnUse">
<stop stop-color="#F6D9A2"/>
<stop offset="0.535" stop-color="#EBBA77"/>
<stop offset="1" stop-color="#F6D9A2"/>
</linearGradient>
</defs>
</svg>
