<svg width="237" height="31" viewBox="0 0 237 31" fill="none" xmlns="http://www.w3.org/2000/svg">
<path d="M234.972 3.1671H236.622V16.5707H234.972V18.1146H233.288V9.69348H227.358V8.18469H233.288V3.1671H231.709V1.58813H234.972V3.1671ZM210.762 16.3602V14.676H212.762V13.0619H214.762V11.483H216.621V9.9391H218.2V4.18465H211.744V2.67586H227.604V4.18465H221.639V9.9391H223.218V11.4128H225.183V12.8865H227.113V14.3602H228.516V15.8339H225.534V14.3602H223.604V12.8865H221.639V11.4128H218.2V13.0619H216.341V14.676H214.341V16.3602H210.762ZM219.428 27.2024V22.1848H221.078V20.7813H222.727V19.2725H230.902V20.7813H232.587V22.1848H234.201V27.2024H232.587V28.641H230.902V30.1498H222.727V28.641H221.078V27.2024H219.428ZM222.727 27.2024H224.376V28.641H229.218V27.2024H230.902V22.2199H229.218V20.7813H224.376V22.2199H222.727V27.2024Z" fill="#1A1918"/>
<path fill-rule="evenodd" clip-rule="evenodd" d="M231.559 1.43823H235.122V3.01719H236.771V16.7208H235.122V18.2647H233.138V9.84358H227.208V8.03479H233.138V3.31719H231.559V1.43823ZM231.859 1.73823V3.01719H233.438V8.33479H227.508V9.54358H233.438V17.9647H234.822V16.4208H236.471V3.31719H234.822V1.73823H231.859ZM211.594 2.52596H227.754V4.33475H221.789V9.7892H223.368V11.2629H225.333V12.7366H227.262V14.2103H228.666V15.984H225.383V14.5103H223.454V13.0366H221.489V11.5629H218.35V13.212H216.49V14.8261H214.49V16.5103H210.611V14.5261H212.611V12.912H214.611V11.3331H216.471V9.7892H218.05V4.33475H211.594V2.52596ZM211.894 2.82596V4.03475H218.35V10.0892H216.771V11.6331H214.911V13.212H212.911V14.8261H210.911V16.2103H214.19V14.5261H216.19V12.912H218.05V11.2629H221.789V12.7366H223.754V14.2103H225.683V15.684H228.366V14.5103H226.962V13.0366H225.033V11.5629H223.068V10.0892H221.489V4.03475H227.454V2.82596H211.894ZM222.576 19.1226H231.052V20.6314H232.736V22.0349H234.35V27.3525H232.736V28.7911H231.052V30.2999H222.576V28.7911H220.927V27.3525H219.278V22.0349H220.927V20.6314H222.576V19.1226ZM222.876 19.4226V20.9314H221.227V22.3349H219.578V27.0525H221.227V28.4911H222.876V29.9999H230.752V28.4911H232.436V27.0525H234.05V22.3349H232.436V20.9314H230.752V19.4226H222.876ZM224.225 20.6314H229.368V22.07H231.052V27.3525H229.368V28.7911H224.225V27.3525H222.576V22.07H224.225V20.6314ZM224.525 20.9314V22.37H222.876V27.0525H224.525V28.4911H229.068V27.0525H230.752V22.37H229.068V20.9314H224.525Z" fill="#1A1918"/>
<path d="M200.284 16.0444V8.28996H194.003V6.78117H200.284V3.1671H198.705V1.58813H201.968V3.1671H203.617V14.5005H201.968V16.0444H200.284ZM177.582 15.2023V13.5181H179.582V11.904H181.582V10.3251H183.442V8.78119H185.021V3.51798H183.407V1.93902H186.845V3.51798H188.6V8.78119H190.179V10.2549H192.144V11.7286H194.073V13.2023H195.477V14.676H192.494V13.2023H190.565V11.7286H188.6V10.2549H185.021V11.904H183.161V13.5181H181.161V15.2023H177.582ZM184.459 28.2551V24.2199H186.214V22.641H198.88V19.3076H184.81V17.7988H202.389V22.5357H200.635V24.1147H187.968V28.2551H203.863V29.834H186.214V28.2551H184.459Z" fill="#1A1918"/>
<path fill-rule="evenodd" clip-rule="evenodd" d="M198.557 1.43823H202.12V3.01719H203.769V14.6506H202.12V16.1945H200.136V8.44005H193.855V6.63127H200.136V3.31719H198.557V1.43823ZM198.857 1.73823V3.01719H200.436V6.93127H194.155V8.14005H200.436V15.8945H201.82V14.3506H203.469V3.31719H201.82V1.73823H198.857ZM183.258 1.78911H186.997V3.36808H188.751V8.63129H190.33V10.105H192.295V11.5787H194.225V13.0524H195.629V14.8261H192.346V13.3524H190.416V11.8787H188.451V10.405H185.172V12.0541H183.313V13.6682H181.313V15.3524H177.434V13.3682H179.434V11.7541H181.434V10.1752H183.293V8.63129H184.872V3.66808H183.258V1.78911ZM183.558 2.08911V3.36808H185.172V8.93129H183.593V10.4752H181.734V12.0541H179.734V13.6682H177.734V15.0524H181.013V13.3682H183.013V11.7541H184.872V10.105H188.751V11.5787H190.716V13.0524H192.646V14.5261H195.329V13.3524H193.925V11.8787H191.995V10.405H190.03V8.93129H188.451V3.66808H186.697V2.08911H183.558ZM184.662 17.6489H202.541V22.6858H200.786V24.2648H188.12V28.1052H204.015V29.9841H186.065V28.4052H184.311V24.07H186.065V22.4911H198.732V19.4577H184.662V17.6489ZM184.962 17.9489V19.1577H199.032V22.7911H186.365V24.37H184.611V28.1052H186.365V29.6841H203.715V28.4052H187.82V23.9648H200.486V22.3858H202.241V17.9489H184.962Z" fill="#1A1918"/>
<path d="M169.57 3.1671H171.184V27.834H169.57V29.3779H167.921V13.5181H164.131V26.3954H162.588V27.9393H160.973V3.86886H159.395V2.2899H162.517V3.86886H164.131V12.0093H167.921V3.1671H166.342V1.58813H169.57V3.1671ZM144.307 21.3427V19.5883H145.815V17.9041H147.359V16.255H148.903V14.6409H150.307V5.23729H145.114V3.72851H158.096V5.23729H153.535V14.6409H154.903V16.1848H156.342V17.7988H157.78V19.4129H159.114V21.0269H156.623V19.4129H155.149V17.7988H153.535V16.1848H150.307V17.9041H148.517V19.5883H146.973V21.3427H144.307Z" fill="#1A1918"/>
<path fill-rule="evenodd" clip-rule="evenodd" d="M166.194 1.43823H169.722V3.01719H171.336V27.9841H169.722V29.528H167.772V13.6682H164.283V26.5455H162.739V28.0894H160.825V4.01896H159.246V2.13999H162.669V3.71896H164.283V11.8594H167.772V3.31719H166.194V1.43823ZM166.494 1.73823V3.01719H168.072V12.1594H163.983V4.01896H162.369V2.43999H159.546V3.71896H161.125V27.7894H162.439V26.2455H163.983V13.3682H168.072V29.228H169.422V27.6841H171.036V3.31719H169.422V1.73823H166.494ZM144.965 3.5786H158.248V5.38739H153.686V14.491H155.055V16.0349H156.493V17.6489H157.932V19.263H159.265V21.177H156.474V19.563H155V17.9489H153.386V16.3349H150.458V18.0542H148.669V19.7384H147.125V21.4928H144.158V19.4384H145.667V17.7542H147.211V16.1051H148.755V14.491H150.158V5.38739H144.965V3.5786ZM145.265 3.8786V5.08739H150.458V14.791H149.055V16.4051H147.511V18.0542H145.967V19.7384H144.458V21.1928H146.825V19.4384H148.369V17.7542H150.158V16.0349H153.686V17.6489H155.3V19.263H156.774V20.877H158.965V19.563H157.632V17.9489H156.193V16.3349H154.755V14.791H153.386V5.08739H157.948V3.8786H145.265Z" fill="#1A1918"/>
<path d="M125.499 4.32538V5.79908H101.569V4.32538H111.639V1.55343H109.885V0.149902H113.429V1.55343H115.218V4.32538H125.499ZM99.7793 26.3607V24.8168H112.13V21.9396H110.516V20.3606H113.99V21.9396H115.674V24.8168H127.429V26.3607H99.7793ZM105.078 15.9746V10.7114H106.867V9.44824H108.586V8.04472H118.271V9.44824H119.99V10.7114H121.78V15.9746H119.99V17.2729H118.271V18.7115H108.586V17.2729H106.867V15.9746H105.078ZM108.586 15.8694H110.06V17.2729H116.797V15.8694H118.271V10.8518H116.797V9.44824H110.06V10.8518H108.586V15.8694Z" fill="#1A1918"/>
<path fill-rule="evenodd" clip-rule="evenodd" d="M109.734 0H113.578V1.40352H115.368V4.17548H125.648V5.94918H101.418V4.17548H111.489V1.70352H109.734V0ZM110.034 0.3V1.40352H111.789V4.47548H101.718V5.64918H125.348V4.47548H115.068V1.70352H113.278V0.3H110.034ZM108.436 7.89482H118.42V9.29834H120.14V10.5615H121.929V16.1247H120.14V17.423H118.42V18.8616H108.436V17.423H106.717V16.1247H104.927V10.5615H106.717V9.29834H108.436V7.89482ZM108.736 8.19482V9.59834H107.017V10.8615H105.227V15.8247H107.017V17.123H108.736V18.5616H118.12V17.123H119.84V15.8247H121.629V10.8615H119.84V9.59834H118.12V8.19482H108.736ZM109.91 9.29834H116.947V10.7019H118.42V16.0195H116.947V17.423H109.91V16.0195H108.436V10.7019H109.91V9.29834ZM110.21 9.59834V11.0019H108.736V15.7195H110.21V17.123H116.647V15.7195H118.12V11.0019H116.647V9.59834H110.21ZM110.366 20.2107H114.14V21.7897H115.824V24.6669H127.578V26.5108H99.6289V24.6669H111.98V22.0897H110.366V20.2107ZM110.666 20.5107V21.7897H112.28V24.9669H99.9289V26.2108H127.278V24.9669H115.524V22.0897H113.84V20.5107H110.666Z" fill="#1A1918"/>
<path d="M89.0294 21.3076V10.8514H83.8013V9.30751H89.0294V3.1671H87.4505V1.58813H90.7137V3.1671H92.3628V19.7638H90.7137V21.3076H89.0294ZM65.9766 4.32501V2.74604H69.2047V4.32501H70.8889V7.72855H78.6784V2.92148H81.9065V14.9216H80.3627V16.3953H69.2047V14.8514H67.5555V4.32501H65.9766ZM70.8889 14.9216H78.6784V9.20225H70.8889V14.9216ZM72.9942 22.1147V20.5357H76.3275V22.1147H78.1521V28.0095H90.1522V26.5708H93.3102V28.0095H91.7663V29.5884H76.3626V28.0095H74.6082V22.1147H72.9942Z" fill="#1A1918"/>
<path fill-rule="evenodd" clip-rule="evenodd" d="M87.3001 1.43823H90.8633V3.01719H92.5124V19.9139H90.8633V21.4577H88.879V11.0015H83.6509V9.15761H88.879V3.31719H87.3001V1.43823ZM87.6001 1.73823V3.01719H89.179V9.45761H83.9509V10.7015H89.179V21.1577H90.5633V19.6139H92.2124V3.31719H90.5633V1.73823H87.6001ZM65.8262 2.59614H69.3543V4.1751H71.0385V7.57865H78.5281V2.77158H82.0562V15.0717H80.5123V16.5454H69.0543V15.0015H67.4051V4.4751H65.8262V2.59614ZM66.1262 2.89614V4.1751H67.7051V14.7015H69.3543V16.2454H80.2123V14.7717H81.7562V3.07158H78.8281V7.87865H70.7385V4.4751H69.0543V2.89614H66.1262ZM70.7385 9.05235H78.8281V15.0717H70.7385V9.05235ZM71.0385 9.35235V14.7717H78.5281V9.35235H71.0385ZM72.8438 20.3858H76.4771V21.9648H78.3017V27.8596H90.0019V26.4209H93.4598V28.1596H91.9159V29.7385H76.2122V28.1596H74.4578V22.2648H72.8438V20.3858ZM73.1438 20.6858V21.9648H74.7578V27.8596H76.5122V29.4385H91.6159V27.8596H93.1598V26.7209H90.3019V28.1596H78.0017V22.2648H76.1771V20.6858H73.1438Z" fill="#1A1918"/>
<path d="M56.0262 16.0444V3.1671H54.4472V1.58813H57.7104V3.1671H59.3596V14.5005H57.7104V16.0444H56.0262ZM33.3242 3.90395V2.32498H48.1665V3.79868H49.7454V12.5356H48.0963V14.0093H36.5523V12.5356H34.9032V3.90395H33.3242ZM38.2015 12.5356H46.4472V3.79868H38.2015V12.5356ZM40.2015 28.2551V24.2199H41.9559V22.641H54.6227V19.3076H40.5524V17.7988H58.1315V22.5357H56.3771V24.1147H43.7103V28.2551H59.6052V29.834H41.9559V28.2551H40.2015Z" fill="#1A1918"/>
<path fill-rule="evenodd" clip-rule="evenodd" d="M54.2968 1.43823H57.86V3.01719H59.5092V14.6506H57.86V16.1945H55.8758V3.31719H54.2968V1.43823ZM54.5968 1.73823V3.01719H56.1758V15.8945H57.56V14.3506H59.2092V3.31719H57.56V1.73823H54.5968ZM33.1738 2.17508H48.3161V3.64878H49.895V12.6857H48.2459V14.1594H36.4019V12.6857H34.7528V4.05404H33.1738V2.17508ZM33.4738 2.47508V3.75405H35.0528V12.3857H36.7019V13.8594H47.9459V12.3857H49.595V3.94878H48.0161V2.47508H33.4738ZM38.0511 3.64878H46.5968V12.6857H38.0511V3.64878ZM38.3511 3.94878V12.3857H46.2968V3.94878H38.3511ZM40.402 17.6489H58.2811V22.6858H56.5267V24.2648H43.8599V28.1052H59.7548V29.9841H41.8055V28.4052H40.0511V24.07H41.8055V22.4911H54.4723V19.4577H40.402V17.6489ZM40.702 17.9489V19.1577H54.7723V22.7911H42.1055V24.37H40.3511V28.1052H42.1055V29.6841H59.4548V28.4052H43.5599V23.9648H56.2267V22.3858H57.9811V17.9489H40.702Z" fill="#1A1918"/>
<path d="M24.0103 3.1671H25.6594V27.834H24.0103V29.3779H22.3261V3.1671H20.7471V1.58813H24.0103V3.1671ZM0.150391 4.95659V3.37763H3.37849V4.95659H5.02763V10.5707H13.6944V3.55307H16.8874V19.7287H15.3435V21.2375H3.37849V19.6585H1.72935V4.95659H0.150391ZM5.02763 19.7287H13.6944V12.0795H5.02763V19.7287Z" fill="#1A1918"/>
<path fill-rule="evenodd" clip-rule="evenodd" d="M20.5967 1.43823H24.1599V3.01719H25.809V27.9841H24.1599V29.528H22.1757V3.31719H20.5967V1.43823ZM20.8967 1.73823V3.01719H22.4757V29.228H23.8599V27.6841H25.509V3.31719H23.8599V1.73823H20.8967ZM0 3.22772H3.5281V4.80669H5.17724V10.4208H13.544V3.40316H17.037V19.8788H15.4931V21.3876H3.2281V19.8086H1.57896V5.10669H0V3.22772ZM0.3 3.52772V4.80669H1.87896V19.5086H3.5281V21.0876H15.1931V19.5788H16.737V3.70316H13.844V10.7208H4.87724V5.10669H3.2281V3.52772H0.3ZM4.87724 11.9296H13.844V19.8788H4.87724V11.9296ZM5.17724 12.2296V19.5788H13.544V12.2296H5.17724Z" fill="#1A1918"/>
</svg>
