<svg width="320" height="30" viewBox="0 0 320 30" fill="none" xmlns="http://www.w3.org/2000/svg">
<path d="M298.645 10.86V12.39H294.565V10.86H297.183V9.39795H299.665V7.93596H302.147V6.47396H303.847V3.58396H302.249V2.05396H305.649V3.58396H307.349V6.47396H309.049V7.93596H311.531V9.39795H314.013V10.86H316.631V12.39H312.551V10.86H310.103V9.39795H307.349V7.93596H303.847V9.39795H301.093V10.86H298.645ZM292.457 17.422V15.926H304.629V12.934H303.167V11.404H306.159V12.934H307.689V15.926H319.249V17.422H292.457ZM298.543 26.806V22.998H300.141V21.638H301.739V20.142H310.001V21.638H311.633V22.998H313.197V26.806H311.633V28.2H310.001V29.696H301.739V28.2H300.141V26.806H298.543ZM301.739 26.806H303.337V28.2H308.369V26.806H310.001V23.032H308.369V21.638H303.337V23.032H301.739V26.806Z" fill="#1A1918" stroke="#1A1918" stroke-width="0.3"/>
<path d="M283.567 8.99002H288.735V10.52H283.567V14.532H281.969V16.028H280.337V3.55002H278.807V2.02002H281.969V3.55002H283.567V8.99002ZM259.359 3.99202V2.46202H262.487V3.99202H264.119V6.74602H272.007V2.63202H275.135V12.9H273.639V14.328H262.487V12.832H260.889V3.99202H259.359ZM264.119 12.9H272.007V8.14002H264.119V12.9ZM265.343 27.86V23.95H267.043V22.42H278.977V19.19H265.683V17.728H282.377V22.318H280.677V23.848H268.743V27.86H283.805V29.39H267.043V27.86H265.343Z" fill="#1A1918" stroke="#1A1918" stroke-width="0.3"/>
<path d="M228.726 14.8039H219.954V13.3419H218.356V11.9479H216.758V6.84793H218.356V5.48793H219.954V4.05993H222.708V1.67993H225.938V4.05993H228.726V5.48793H230.358V6.84793H231.922V11.9479H230.358V13.3419H228.726V14.8039ZM219.954 11.9479H221.552V13.3419H227.094V11.9479H228.726V6.88193H227.094V5.48793H221.552V6.88193H219.954V11.9479ZM222.844 27.8599V23.9499H224.544V22.4199H236.818V19.1899H223.184V17.7279H240.218V22.3179H238.518V23.8479H226.244V27.8599H241.646V29.3899H224.544V27.8599H222.844ZM236.648 3.54993V2.01993H239.81V3.54993H241.408V14.5319H239.81V16.0279H238.178V3.54993H236.648Z" fill="#1A1918" stroke="#1A1918" stroke-width="0.3"/>
<path d="M208.72 3.55002H210.318V27.452H208.72V28.948H207.224V3.55002H205.694V2.02002H208.72V3.55002ZM183.934 5.62402V4.09402H195.766V5.55602H197.296V11.37H201.308V4.23002H199.778V2.70002H202.838V4.23002H204.3V26.058H202.838V27.554H201.308V12.832H197.296V19.258H195.698V20.72H187.062V19.258H185.464V5.62402H183.934ZM188.728 19.258H194.1V5.55602H188.728V19.258Z" fill="#1A1918" stroke="#1A1918" stroke-width="0.3"/>
<path d="M175.518 3.55002H177.116V27.486H175.518V28.982H173.886V3.55002H172.356V2.02002H175.518V3.55002ZM153.078 16.13V8.78602H154.676V7.42602H156.342V5.99802H159.266V2.93802H162.496V5.99802H165.454V7.42602H167.154V8.78602H168.718V16.13H167.154V17.524H165.454V19.02H156.342V17.524H154.676V16.13H153.078ZM156.342 16.13H157.94V17.524H163.822V16.13H165.454V8.82002H163.822V7.42602H157.94V8.82002H156.342V16.13Z" fill="#1A1918" stroke="#1A1918" stroke-width="0.3"/>
<path d="M118.907 14.43V13.002H115.575V14.6H113.773V16.164H111.835V17.796H108.367V16.164H110.305V14.6H112.243V13.07H114.045V11.574H115.643V7.188H108.945V5.828H115.643V2.53H113.943V1H117.275V2.53H118.873V5.828H125.197V7.188H118.839V11.574H120.437V13.002H122.341V14.43H124.211V15.858H125.571V17.286H122.681V15.858H120.811V14.43H118.907ZM116.595 26.84V22.488H118.193V21.128H119.791V19.666H128.053V21.128H129.685V22.488H131.249V26.84H129.685V28.234H128.053V29.696H119.791V28.234H118.193V26.84H116.595ZM119.791 26.84H121.389V28.234H126.421V26.84H128.053V22.522H126.421V21.128H121.389V22.522H119.791V26.84ZM124.789 11.404V10.01H130.365V3.55H128.835V2.02H131.997V3.55H133.595V17.048H131.997V18.544H130.365V11.404H124.789Z" fill="#1A1918" stroke="#1A1918" stroke-width="0.3"/>
<path d="M83.1599 14.6681V13.2741H81.5619V6.7121H83.1599V5.3521H84.8259V3.9241H88.4639V1.2041H91.6599V3.9241H95.2979V5.3521H96.9979V6.7121H98.5619V13.2741H96.9979V14.6681H95.2979V16.1641H84.8259V14.6681H83.1599ZM76.8359 25.3441V23.8481H84.0779V19.7341H82.5139V18.2041H85.6079V19.7341H87.2059V23.8481H93.9379V19.7341H92.3739V18.2041H95.4679V19.7341H97.0659V23.8481H103.628V25.3441H76.8359ZM84.8259 13.2741H86.4239V14.6681H93.6659V13.2741H95.2979V6.7461H93.6659V5.3521H86.4239V6.7461H84.8259V13.2741Z" fill="#1A1918" stroke="#1A1918" stroke-width="0.3"/>
<path d="M45.4172 16.504H36.6452V14.974H35.0472V13.58H33.4492V7.52802H35.0472V6.16802H36.6452V4.74002H39.3992V2.02002H42.6292V4.74002H45.4172V6.16802H47.0492V7.52802H48.6132V13.58H47.0492V14.974H45.4172V16.504ZM36.6452 13.58H38.2432V14.974H43.7852V13.58H45.4172V7.56202H43.7852V6.16802H38.2432V7.56202H36.6452V13.58ZM38.9912 21.91V20.38H42.2212V21.91H43.9552V27.622H55.6172V26.228H58.6772V27.622H57.1812V29.152H42.2552V27.622H40.5552V21.91H38.9912ZM52.9992 3.55002V2.02002H56.1612V3.55002H57.7592V19.632H56.1612V21.128H54.5292V3.55002H52.9992Z" fill="#1A1918" stroke="#1A1918" stroke-width="0.3"/>
<path d="M3.108 12.56V11.03H5.726V9.56796H8.208V8.10596H10.69V6.64396H12.39V3.58396H10.792V2.05396H14.192V3.58396H15.892V6.64396H17.592V8.10596H20.074V9.56796H22.556V11.03H25.174V12.56H21.094V11.03H18.646V9.56796H15.892V8.10596H12.39V9.56796H9.636V11.03H7.188V12.56H3.108ZM1 16.708V15.212H27.792V16.708H1ZM7.086 26.806V22.998H8.684V21.638H10.282V20.142H18.544V21.638H20.176V22.998H21.74V26.806H20.176V28.2H18.544V29.696H10.282V28.2H8.684V26.806H7.086ZM10.282 26.806H11.88V28.2H16.912V26.806H18.544V23.032H16.912V21.638H11.88V23.032H10.282V26.806Z" fill="#1A1918" stroke="#1A1918" stroke-width="0.3"/>
</svg>
