<svg width="228" height="30" viewBox="0 0 228 30" fill="none" xmlns="http://www.w3.org/2000/svg">
<path d="M222.266 3.19777V1.67627H225.411V3.19777H227V26.967H225.411V28.4547H223.788V3.19777H222.266ZM203.738 20.7796V19.089H206.206V17.3984H208.37V15.7079H210.534V14.0173H212.698V12.3268H214.862V5.15882H204.414V3.73875H216.688V5.09119H218.311V12.3268H216.62V14.0173H214.287V15.7079H212.157L212.123 17.3984H209.959V19.089H207.795V20.7796H203.738Z" fill="#1A1918" stroke="#1A1918" stroke-width="0.3"/>
<path d="M181.002 2.5215V5.97024H188.136V7.35649H170.183V5.97024H177.79V2.5215H176.1V1H179.413V2.5215H181.002ZM172.211 18.4127V12.8001H173.801V11.4476H175.39V10.0952H183.437V11.4476H185.06V12.8001H186.615V18.4127H185.06V19.799H183.437V21.2191H175.39V19.799H173.801V18.4127H172.211ZM175.39 18.4127H176.979V19.799H181.814V18.4127H183.437V12.8339H181.814V11.4476H176.979V12.8339H175.39V18.4127ZM189.624 3.19772V1.67622H192.769V3.19772H194.358V12.3605H199.497V13.8482H194.358V26.967H192.769V28.4546H191.146V3.19772H189.624Z" fill="#1A1918" stroke="#1A1918" stroke-width="0.3"/>
<path d="M146.196 10.6024V12.1577H142.274V10.6024H144.742V9.08093H147.21V7.62705H149.679V6.20699H151.369V3.46828H143.288V2.0144H162.561V3.46828H154.48V6.20699H156.17V7.62705H158.639V9.08093H161.107V10.6024H163.575V12.1577H159.653V10.6024H157.219V9.11474H154.581V7.59324H151.268V9.11474H148.63V10.6024H146.196ZM139.603 16.4179V14.9303H166.246V16.4179H139.603ZM145.655 26.3246V22.5378H147.244V21.1853H148.833V19.6976H157.049V21.1853H158.672V22.5378H160.228V26.3246H158.672V27.7109H157.049V29.1986H148.833V27.7109H147.244V26.3246H145.655ZM148.833 26.3246H150.422V27.7109H155.427V26.3246H157.049V22.5716H155.427V21.1853H150.422V22.5716H148.833V26.3246Z" fill="#1A1918" stroke="#1A1918" stroke-width="0.3"/>
<path d="M120.181 16.0798H111.458V14.5583H109.868V13.1721H108.279V7.15367H109.868V5.80123H111.458V4.38116H114.196V1.67627H117.408V4.38116H120.181V5.80123H121.804V7.15367H123.359V13.1721H121.804V14.5583H120.181V16.0798ZM111.458 13.1721H113.047V14.5583H118.558V13.1721H120.181V7.18748H118.558V5.80123H113.047V7.18748H111.458V13.1721ZM113.791 21.4558V19.9343H117.003V21.4558H118.727V27.1361H130.324V25.7498H133.367V27.1361H131.879V28.6576H117.036V27.1361H115.346V21.4558H113.791ZM127.721 3.19777V1.67627H130.865V3.19777H132.454V19.1904H130.865V20.6781H129.242V3.19777H127.721Z" fill="#1A1918" stroke="#1A1918" stroke-width="0.3"/>
<path d="M76.225 14.3892H67.5017V12.9354H65.9126V11.5491H64.3235V6.47743H65.9126V5.12498H67.5017V3.70491H70.2404V1.33813H73.4525V3.70491H76.225V5.12498H77.8479V6.47743H79.4033V11.5491H77.8479V12.9354H76.225V14.3892ZM67.5017 11.5491H69.0909V12.9354H74.6021V11.5491H76.225V6.51124H74.6021V5.12498H69.0909V6.51124H67.5017V11.5491ZM70.3757 27.3727V23.4844H72.0662V21.9629H84.2721V18.7509H70.7138V17.297H87.6532V21.8615H85.9626V23.383H73.7568V27.3727H89.0732V28.8942H72.0662V27.3727H70.3757ZM84.103 3.19775V1.67625H87.2474V3.19775H88.8366V14.1187H87.2474V15.6064H85.6245V3.19775H84.103Z" fill="#1A1918" stroke="#1A1918" stroke-width="0.3"/>
<path d="M56.3296 3.19777H57.9187V26.967H56.3296V28.4547H54.8419V3.19777H53.3204V1.67627H56.3296V3.19777ZM31.6813 5.26025V3.73875H43.4475V5.19263H44.9691V10.9743H48.9588V3.87399H47.4373V2.35249H50.4803V3.87399H51.9341V25.5807H50.4803V27.0684H48.9588V12.4282H44.9691V18.8185H43.3799V20.2724H34.7919V18.8185H33.2028V5.26025H31.6813ZM36.4486 18.8185H41.7908V5.19263H36.4486V18.8185Z" fill="#1A1918" stroke="#1A1918" stroke-width="0.3"/>
<path d="M23.3153 3.19777H24.9045V27.0008H23.3153V28.4885H21.6924V3.19777H20.1709V1.67627H23.3153V3.19777ZM1 15.7079V8.40468H2.58912V7.05224H4.24587V5.63217H7.15363V2.58917H10.3657V5.63217H13.3073V7.05224H14.9978V8.40468H16.5531V15.7079H14.9978V17.0941H13.3073V18.5818H4.24587V17.0941H2.58912V15.7079H1ZM4.24587 15.7079H5.83499V17.0941H11.6843V15.7079H13.3073V8.4385H11.6843V7.05224H5.83499V8.4385H4.24587V15.7079Z" fill="#1A1918" stroke="#1A1918" stroke-width="0.3"/>
</svg>
