<svg width="237" height="31" viewBox="0 0 237 31" fill="none" xmlns="http://www.w3.org/2000/svg">
<path d="M234.973 3.1671H236.622V16.5707H234.973V18.1146H233.288V9.69348H227.359V8.18469H233.288V3.1671H231.709V1.58813H234.973V3.1671ZM210.762 16.3602V14.676H212.762V13.0619H214.762V11.483H216.622V9.9391H218.201V4.18465H211.744V2.67586H227.604V4.18465H221.639V9.9391H223.218V11.4128H225.183V12.8865H227.113V14.3602H228.516V15.8339H225.534V14.3602H223.604V12.8865H221.639V11.4128H218.201V13.0619H216.341V14.676H214.341V16.3602H210.762ZM219.429 27.2024V22.1848H221.078V20.7813H222.727V19.2725H230.902V20.7813H232.587V22.1848H234.201V27.2024H232.587V28.641H230.902V30.1498H222.727V28.641H221.078V27.2024H219.429ZM222.727 27.2024H224.376V28.641H229.218V27.2024H230.902V22.2199H229.218V20.7813H224.376V22.2199H222.727V27.2024Z" fill="#1A1918"/>
<path fill-rule="evenodd" clip-rule="evenodd" d="M231.559 1.43823H235.123V3.01719H236.772V16.7208H235.123V18.2647H233.138V9.84358H227.208V8.03479H233.138V3.31719H231.559V1.43823ZM231.859 1.73823V3.01719H233.438V8.33479H227.508V9.54358H233.438V17.9647H234.823V16.4208H236.472V3.31719H234.823V1.73823H231.859ZM211.594 2.52596H227.754V4.33475H221.789V9.7892H223.368V11.2629H225.333V12.7366H227.263V14.2103H228.666V15.984H225.384V14.5103H223.454V13.0366H221.489V11.5629H218.35V13.212H216.491V14.8261H214.491V16.5103H210.612V14.5261H212.612V12.912H214.612V11.3331H216.472V9.7892H218.05V4.33475H211.594V2.52596ZM211.894 2.82596V4.03475H218.35V10.0892H216.772V11.6331H214.912V13.212H212.912V14.8261H210.912V16.2103H214.191V14.5261H216.191V12.912H218.05V11.2629H221.789V12.7366H223.754V14.2103H225.684V15.684H228.366V14.5103H226.963V13.0366H225.033V11.5629H223.068V10.0892H221.489V4.03475H227.454V2.82596H211.894ZM222.577 19.1226H231.052V20.6314H232.737V22.0349H234.351V27.3525H232.737V28.7911H231.052V30.2999H222.577V28.7911H220.928V27.3525H219.279V22.0349H220.928V20.6314H222.577V19.1226ZM222.877 19.4226V20.9314H221.228V22.3349H219.579V27.0525H221.228V28.4911H222.877V29.9999H230.752V28.4911H232.437V27.0525H234.051V22.3349H232.437V20.9314H230.752V19.4226H222.877ZM224.226 20.6314H229.368V22.07H231.052V27.3525H229.368V28.7911H224.226V27.3525H222.577V22.07H224.226V20.6314ZM224.526 20.9314V22.37H222.877V27.0525H224.526V28.4911H229.068V27.0525H230.752V22.37H229.068V20.9314H224.526Z" fill="#1A1918"/>
<path d="M200.285 16.0444V8.28996H194.004V6.78117H200.285V3.1671H198.706V1.58813H201.969V3.1671H203.618V14.5005H201.969V16.0444H200.285ZM177.583 15.2023V13.5181H179.583V11.904H181.583V10.3251H183.442V8.78119H185.021V3.51798H183.407V1.93902H186.846V3.51798H188.6V8.78119H190.179V10.2549H192.144V11.7286H194.074V13.2023H195.478V14.676H192.495V13.2023H190.565V11.7286H188.6V10.2549H185.021V11.904H183.162V13.5181H181.162V15.2023H177.583ZM184.46 28.2551V24.2199H186.214V22.641H198.881V19.3076H184.811V17.7988H202.39V22.5357H200.636V24.1147H187.969V28.2551H203.864V29.834H186.214V28.2551H184.46Z" fill="#1A1918"/>
<path fill-rule="evenodd" clip-rule="evenodd" d="M198.556 1.43823H202.119V3.01719H203.768V14.6506H202.119V16.1945H200.135V8.44005H193.854V6.63127H200.135V3.31719H198.556V1.43823ZM198.856 1.73823V3.01719H200.435V6.93127H194.154V8.14005H200.435V15.8945H201.819V14.3506H203.468V3.31719H201.819V1.73823H198.856ZM183.257 1.78911H186.996V3.36808H188.75V8.63129H190.329V10.105H192.294V11.5787H194.224V13.0524H195.628V14.8261H192.345V13.3524H190.415V11.8787H188.45V10.405H185.171V12.0541H183.312V13.6682H181.312V15.3524H177.433V13.3682H179.433V11.7541H181.433V10.1752H183.292V8.63129H184.871V3.66808H183.257V1.78911ZM183.557 2.08911V3.36808H185.171V8.93129H183.592V10.4752H181.733V12.0541H179.733V13.6682H177.733V15.0524H181.012V13.3682H183.012V11.7541H184.871V10.105H188.75V11.5787H190.715V13.0524H192.645V14.5261H195.328V13.3524H193.924V11.8787H191.994V10.405H190.029V8.93129H188.45V3.66808H186.696V2.08911H183.557ZM184.661 17.6489H202.54V22.6858H200.785V24.2648H188.119V28.1052H204.014V29.9841H186.064V28.4052H184.31V24.07H186.064V22.4911H198.731V19.4577H184.661V17.6489ZM184.961 17.9489V19.1577H199.031V22.7911H186.364V24.37H184.61V28.1052H186.364V29.6841H203.714V28.4052H187.819V23.9648H200.485V22.3858H202.24V17.9489H184.961Z" fill="#1A1918"/>
<path d="M169.571 3.1671H171.185V27.834H169.571V29.3779H167.922V13.5181H164.132V26.3954H162.588V27.9393H160.974V3.86886H159.395V2.2899H162.518V3.86886H164.132V12.0093H167.922V3.1671H166.343V1.58813H169.571V3.1671ZM144.307 21.3427V19.5883H145.816V17.9041H147.36V16.255H148.904V14.6409H150.307V5.23729H145.114V3.72851H158.097V5.23729H153.536V14.6409H154.904V16.1848H156.343V17.7988H157.781V19.4129H159.115V21.0269H156.623V19.4129H155.15V17.7988H153.536V16.1848H150.307V17.9041H148.518V19.5883H146.974V21.3427H144.307Z" fill="#1A1918"/>
<path fill-rule="evenodd" clip-rule="evenodd" d="M166.193 1.43823H169.721V3.01719H171.335V27.9841H169.721V29.528H167.772V13.6682H164.282V26.5455H162.738V28.0894H160.824V4.01896H159.245V2.13999H162.668V3.71896H164.282V11.8594H167.772V3.31719H166.193V1.43823ZM166.493 1.73823V3.01719H168.072V12.1594H163.982V4.01896H162.368V2.43999H159.545V3.71896H161.124V27.7894H162.438V26.2455H163.982V13.3682H168.072V29.228H169.421V27.6841H171.035V3.31719H169.421V1.73823H166.493ZM144.964 3.5786H158.247V5.38739H153.686V14.491H155.054V16.0349H156.493V17.6489H157.931V19.263H159.265V21.177H156.473V19.563H155V17.9489H153.386V16.3349H150.458V18.0542H148.668V19.7384H147.124V21.4928H144.157V19.4384H145.666V17.7542H147.21V16.1051H148.754V14.491H150.158V5.38739H144.964V3.5786ZM145.264 3.8786V5.08739H150.458V14.791H149.054V16.4051H147.51V18.0542H145.966V19.7384H144.457V21.1928H146.824V19.4384H148.368V17.7542H150.158V16.0349H153.686V17.6489H155.3V19.263H156.773V20.877H158.965V19.563H157.631V17.9489H156.193V16.3349H154.754V14.791H153.386V5.08739H157.947V3.8786H145.264Z" fill="#1A1918"/>
<path d="M125.498 4.32538V5.79908H101.568V4.32538H111.639V1.55343H109.884V0.149902H113.428V1.55343H115.218V4.32538H125.498ZM99.7789 26.3607V24.8168H112.13V21.9396H110.516V20.3606H113.99V21.9396H115.674V24.8168H127.428V26.3607H99.7789ZM105.077 15.9746V10.7114H106.867V9.44824H108.586V8.04472H118.27V9.44824H119.99V10.7114H121.779V15.9746H119.99V17.2729H118.27V18.7115H108.586V17.2729H106.867V15.9746H105.077ZM108.586 15.8694H110.06V17.2729H116.797V15.8694H118.27V10.8518H116.797V9.44824H110.06V10.8518H108.586V15.8694Z" fill="#1A1918"/>
<path fill-rule="evenodd" clip-rule="evenodd" d="M109.734 0H113.578V1.40352H115.368V4.17548H125.648V5.94918H101.418V4.17548H111.489V1.70352H109.734V0ZM110.034 0.3V1.40352H111.789V4.47548H101.718V5.64918H125.348V4.47548H115.068V1.70352H113.278V0.3H110.034ZM108.436 7.89482H118.42V9.29834H120.14V10.5615H121.929V16.1247H120.14V17.423H118.42V18.8616H108.436V17.423H106.717V16.1247H104.927V10.5615H106.717V9.29834H108.436V7.89482ZM108.736 8.19482V9.59834H107.017V10.8615H105.227V15.8247H107.017V17.123H108.736V18.5616H118.12V17.123H119.84V15.8247H121.629V10.8615H119.84V9.59834H118.12V8.19482H108.736ZM109.91 9.29834H116.947V10.7019H118.42V16.0195H116.947V17.423H109.91V16.0195H108.436V10.7019H109.91V9.29834ZM110.21 9.59834V11.0019H108.736V15.7195H110.21V17.123H116.647V15.7195H118.12V11.0019H116.647V9.59834H110.21ZM110.366 20.2107H114.14V21.7897H115.824V24.6669H127.578V26.5108H99.6289V24.6669H111.98V22.0897H110.366V20.2107ZM110.666 20.5107V21.7897H112.28V24.9669H99.9289V26.2108H127.278V24.9669H115.524V22.0897H113.84V20.5107H110.666Z" fill="#1A1918"/>
<path d="M89.0287 21.3076V10.8514H83.8006V9.30751H89.0287V3.1671H87.4497V1.58813H90.7129V3.1671H92.3621V19.7638H90.7129V21.3076H89.0287ZM65.9758 4.32501V2.74604H69.2039V4.32501H70.8882V7.72855H78.6777V2.92148H81.9058V14.9216H80.3619V16.3953H69.2039V14.8514H67.5548V4.32501H65.9758ZM70.8882 14.9216H78.6777V9.20225H70.8882V14.9216ZM72.9934 22.1147V20.5357H76.3268V22.1147H78.1514V28.0095H90.1515V26.5708H93.3094V28.0095H91.7656V29.5884H76.3619V28.0095H74.6075V22.1147H72.9934Z" fill="#1A1918"/>
<path fill-rule="evenodd" clip-rule="evenodd" d="M87.2997 1.43823H90.8629V3.01719H92.512V19.9139H90.8629V21.4577H88.8787V11.0015H83.6505V9.15761H88.8787V3.31719H87.2997V1.43823ZM87.5997 1.73823V3.01719H89.1787V9.45761H83.9505V10.7015H89.1787V21.1577H90.5629V19.6139H92.212V3.31719H90.5629V1.73823H87.5997ZM65.8258 2.59614H69.3539V4.1751H71.0381V7.57865H78.5277V2.77158H82.0558V15.0717H80.5119V16.5454H69.0539V15.0015H67.4048V4.4751H65.8258V2.59614ZM66.1258 2.89614V4.1751H67.7048V14.7015H69.3539V16.2454H80.2119V14.7717H81.7558V3.07158H78.8277V7.87865H70.7381V4.4751H69.0539V2.89614H66.1258ZM70.7381 9.05235H78.8277V15.0717H70.7381V9.05235ZM71.0381 9.35235V14.7717H78.5277V9.35235H71.0381ZM72.8434 20.3858H76.4768V21.9648H78.3014V27.8596H90.0015V26.4209H93.4594V28.1596H91.9155V29.7385H76.2119V28.1596H74.4575V22.2648H72.8434V20.3858ZM73.1434 20.6858V21.9648H74.7575V27.8596H76.5119V29.4385H91.6155V27.8596H93.1594V26.7209H90.3015V28.1596H78.0014V22.2648H76.1768V20.6858H73.1434Z" fill="#1A1918"/>
<path d="M56.0264 16.0444V3.1671H54.4475V1.58813H57.7107V3.1671H59.3598V14.5005H57.7107V16.0444H56.0264ZM33.3245 3.90395V2.32498H48.1667V3.79868H49.7457V12.5356H48.0965V14.0093H36.5526V12.5356H34.9034V3.90395H33.3245ZM38.2017 12.5356H46.4474V3.79868H38.2017V12.5356ZM40.2017 28.2551V24.2199H41.9561V22.641H54.6229V19.3076H40.5526V17.7988H58.1317V22.5357H56.3773V24.1147H43.7105V28.2551H59.6054V29.834H41.9561V28.2551H40.2017Z" fill="#1A1918"/>
<path fill-rule="evenodd" clip-rule="evenodd" d="M54.2975 1.43823H57.8607V3.01719H59.5098V14.6506H57.8607V16.1945H55.8764V3.31719H54.2975V1.43823ZM54.5975 1.73823V3.01719H56.1764V15.8945H57.5606V14.3506H59.2098V3.31719H57.5606V1.73823H54.5975ZM33.1744 2.17508H48.3167V3.64878H49.8957V12.6857H48.2465V14.1594H36.4025V12.6857H34.7534V4.05404H33.1744V2.17508ZM33.4744 2.47508V3.75405H35.0534V12.3857H36.7025V13.8594H47.9465V12.3857H49.5957V3.94878H48.0167V2.47508H33.4744ZM38.0517 3.64878H46.5974V12.6857H38.0517V3.64878ZM38.3517 3.94878V12.3857H46.2974V3.94878H38.3517ZM40.4026 17.6489H58.2817V22.6858H56.5273V24.2648H43.8605V28.1052H59.7554V29.9841H41.8061V28.4052H40.0517V24.07H41.8061V22.4911H54.4729V19.4577H40.4026V17.6489ZM40.7026 17.9489V19.1577H54.7729V22.7911H42.1061V24.37H40.3517V28.1052H42.1061V29.6841H59.4554V28.4052H43.5605V23.9648H56.2273V22.3858H57.9817V17.9489H40.7026Z" fill="#1A1918"/>
<path d="M24.0099 3.1671H25.6591V27.834H24.0099V29.3779H22.3257V3.1671H20.7467V1.58813H24.0099V3.1671ZM0.150024 4.95659V3.37763H3.37813V4.95659H5.02727V10.5707H13.694V3.55307H16.887V19.7287H15.3432V21.2375H3.37813V19.6585H1.72899V4.95659H0.150024ZM5.02727 19.7287H13.694V12.0795H5.02727V19.7287Z" fill="#1A1918"/>
<path fill-rule="evenodd" clip-rule="evenodd" d="M20.5967 1.43823H24.1599V3.01719H25.809V27.9841H24.1599V29.528H22.1757V3.31719H20.5967V1.43823ZM20.8967 1.73823V3.01719H22.4757V29.228H23.8599V27.6841H25.509V3.31719H23.8599V1.73823H20.8967ZM0 3.22772H3.5281V4.80669H5.17724V10.4208H13.544V3.40316H17.037V19.8788H15.4931V21.3876H3.2281V19.8086H1.57896V5.10669H0V3.22772ZM0.3 3.52772V4.80669H1.87896V19.5086H3.5281V21.0876H15.1931V19.5788H16.737V3.70316H13.844V10.7208H4.87724V5.10669H3.2281V3.52772H0.3ZM4.87724 11.9296H13.844V19.8788H4.87724V11.9296ZM5.17724 12.2296V19.5788H13.544V12.2296H5.17724Z" fill="#1A1918"/>
</svg>
