<svg width="190" height="30" viewBox="0 0 190 30" fill="none" xmlns="http://www.w3.org/2000/svg">
<path d="M187.468 3.8037H189V16.9418H187.468V18.3762H185.903V12.1495H180.948V10.7802H185.903V7.38977H180.948V6.02054H185.903V3.8037H184.436V2.33667H187.468V3.8037ZM165.202 15.2791V10.0956H166.799V8.7264H175.275V4.39051H165.854V3.02128H176.938V4.35791H178.535V8.7264H176.938V10.0956H168.429V15.2791H177.916V13.9099H180.785V15.3769H179.383V16.681H166.766V15.2791H165.202ZM170.678 21.6036V20.1692H188.022V27.4718H186.392V28.9062H184.762V21.6036H170.678Z" fill="#1A1918" stroke="#1A1918" stroke-width="0.3"/>
<path d="M146.181 15.3118H137.77V13.8448H136.238V12.5081H134.706V7.29205H136.238V5.98802H137.77V4.61879H140.411V2.01074H143.508V4.61879H146.181V5.98802H147.746V7.29205H149.246V12.5081H147.746V13.8448H146.181V15.3118ZM137.77 12.5081H139.303V13.8448H144.617V12.5081H146.181V7.32465H144.617V5.98802H139.303V7.32465H137.77V12.5081ZM139.694 19.8433V18.3763H142.693V19.8433H144.128V22.0927H154.397V18.5393H157.331V27.0806H155.929V28.4499H142.693V27.0154H141.161V19.8433H139.694ZM144.128 27.0806H154.397V23.462H144.128V27.0806ZM153.777 3.80378V2.33675H156.809V3.80378H158.341V15.6378H156.809V17.0722H155.244V3.80378H153.777Z" fill="#1A1918" stroke="#1A1918" stroke-width="0.3"/>
<path d="M116.416 4.87948V6.2487H94.1821V4.87948H103.538V2.30403H101.908V1H105.201V2.30403H106.864V4.87948H116.416ZM92.5194 25.3527V23.9183H103.995V21.245H102.495V19.778H105.723V21.245H107.288V23.9183H118.209V25.3527H92.5194ZM97.4421 15.7029V10.8128H99.1048V9.63917H100.702V8.33515H109.7V9.63917H111.297V10.8128H112.96V15.7029H111.297V16.9091H109.7V18.2457H100.702V16.9091H99.1048V15.7029H97.4421ZM100.702 15.6051H102.071V16.9091H108.331V15.6051H109.7V10.9432H108.331V9.63917H102.071V10.9432H100.702V15.6051Z" fill="#1A1918" stroke="#1A1918" stroke-width="0.3"/>
<path d="M82.5296 20.6582V10.9432H77.6721V9.50881H82.5296V3.8037H81.0626V2.33667H84.0944V3.8037H85.6267V19.2238H84.0944V20.6582H82.5296ZM61.111 4.87952V3.41249H64.1103V4.87952H65.6751V8.04178H72.9124V3.57549H75.9117V14.7249H74.4773V16.0941H64.1103V14.6597H62.578V4.87952H61.111ZM65.6751 14.7249H72.9124V9.41101H65.6751V14.7249ZM67.6311 21.408V19.941H70.7282V21.408H72.4234V26.885H83.5728V25.5483H86.5069V26.885H85.0725V28.352H70.7608V26.885H69.1307V21.408H67.6311Z" fill="#1A1918" stroke="#1A1918" stroke-width="0.3"/>
<path d="M37.5593 10.9432V12.4428H33.7776V10.9432H36.1575V9.47613H38.5373V8.07431H40.9172V6.70508H42.5472V4.06442H34.7556V2.6626H53.338V4.06442H45.5465V6.70508H47.1765V8.07431H49.5563V9.47613H51.9362V10.9432H54.316V12.4428H50.5344V10.9432H48.1871V9.50873H45.6443V8.0417H42.4494V9.50873H39.9066V10.9432H37.5593ZM31.2022 16.5505V15.116H56.8915V16.5505H31.2022ZM37.0377 26.1025V22.4512H38.5699V21.1472H40.1022V19.7127H48.0241V21.1472H49.5889V22.4512H51.0886V26.1025H49.5889V27.4391H48.0241V28.8735H40.1022V27.4391H38.5699V26.1025H37.0377ZM40.1022 26.1025H41.6344V27.4391H46.4593V26.1025H48.0241V22.4838H46.4593V21.1472H41.6344V22.4838H40.1022V26.1025Z" fill="#1A1918" stroke="#1A1918" stroke-width="0.3"/>
<path d="M12.4754 16.2245H4.06446V14.7575H2.53223V13.4209H1V7.61797H2.53223V6.31395H4.06446V4.94472H6.70511V2.33667H9.80217V4.94472H12.4754V6.31395H14.0403V7.61797H15.5399V13.4209H14.0403V14.7575H12.4754V16.2245ZM4.06446 13.4209H5.59669V14.7575H10.9106V13.4209H12.4754V7.65057H10.9106V6.31395H5.59669V7.65057H4.06446V13.4209ZM6.31391 21.408V19.941H9.41097V21.408H11.0736V26.885H22.2556V25.5483H25.1897V26.885H23.7553V28.352H9.44357V26.885H7.81353V21.408H6.31391ZM19.7454 3.8037V2.33667H22.7772V3.8037H24.3095V19.2238H22.7772V20.6582H21.2124V3.8037H19.7454Z" fill="#1A1918" stroke="#1A1918" stroke-width="0.3"/>
</svg>
