<svg width="294" height="30" viewBox="0 0 294 30" fill="none" xmlns="http://www.w3.org/2000/svg">
<path d="M288.71 2.78349V1.20337H291.976V2.78349H293.626V27.4685H291.976V29.0136H290.29V2.78349H288.71ZM269.468 21.0427V19.287H272.031V17.5313H274.278V15.7756H276.526V14.0199H278.773V12.2642H281.02V4.8201H270.17V3.34531H282.916V4.74987H284.602V12.2642H282.846V14.0199H280.423V15.7756H278.211L278.176 17.5313H275.929V19.287H273.681V21.0427H269.468Z" fill="#1A1918"/>
<path d="M240.659 13.3176V14.9328H238.658V16.6183H235.076V14.9328H237.078V13.3176H239.079V11.7375H240.94V10.1925H242.59V6.54063H235.673V5.13607H242.59V1.73003H240.835V0.149902H244.276V1.73003H245.926V5.13607H252.457V6.54063H245.891V10.1925H247.541V11.6673H249.508V13.142H251.439V14.6168H252.844V16.0916H249.859V14.6168H247.928V13.142H245.961V11.6673H242.52V13.3176H240.659ZM239.044 29.2944V27.6792H241.607V26.0288H243.96V24.4136H246.312V22.7983H248.209V21.1129H240.062V19.5328H259.375V21.1129H251.439V22.7983H253.335V24.4136H255.618V26.0288H257.9V27.6792H260.288V29.2944H256.39V27.6792H254.073V26.0639H251.58V24.4487H248.068V26.0639H245.505V27.6792H243.117V29.2944H239.044ZM254.81 2.78344V1.20332H258.076V2.78344H259.726V8.05052H265.063V9.63065H259.726V16.4076H258.076V17.9526H256.39V2.78344H254.81Z" fill="#1A1918"/>
<path d="M213.831 2.78349H215.481V27.4685H213.831V29.0136H212.145V2.78349H210.565V1.20337H213.831V2.78349ZM191.885 18.655V4.8201H193.605V3.34531H205.79V4.8201H195.361V18.655H205.579V17.1802H208.739V18.7603H207.159V20.1649H193.57V18.655H191.885Z" fill="#1A1918"/>
<path d="M181.16 2.78349H182.81V27.5037H181.16V29.0487H179.474V2.78349H177.894V1.20337H181.16V2.78349ZM157.985 15.7756V8.19103H159.635V6.78647H161.356V5.31169H164.375V2.15144H167.711V5.31169H170.766V6.78647H172.522V8.19103H174.137V15.7756H172.522V17.2153H170.766V18.7603H161.356V17.2153H159.635V15.7756H157.985ZM161.356 15.7756H163.006V17.2153H169.081V15.7756H170.766V8.22614H169.081V6.78647H163.006V8.22614H161.356V15.7756Z" fill="#1A1918"/>
<path d="M153.721 11.5971V13.1421H148.384V27.4685H146.733V29.0136H145.048V2.78349H143.468V1.20337H146.733V2.78349H148.384V11.5971H153.721ZM124.611 15.7756V8.19103H126.262V6.78647H127.982V5.31169H130.792V2.15144H134.127V5.31169H136.936V6.78647H138.692V8.19103H140.307V15.7756H138.692V17.2153H136.936V18.7603H127.982V17.2153H126.262V15.7756H124.611ZM127.982 15.7756H129.633V17.2153H135.251V15.7756H136.936V8.22614H135.251V6.78647H129.633V8.22614H127.982V15.7756Z" fill="#1A1918"/>
<path d="M103.191 2.78349H104.841V16.197H103.191V17.742H101.505V9.31467H95.5709V7.80477H101.505V2.78349H99.925V1.20337H103.191V2.78349ZM78.962 15.9863V14.3008H80.9635V12.6856H82.965V11.1055H84.8261V9.56047H86.4062V3.8018H79.9452V2.2919H95.8167V3.8018H89.8473V9.56047H91.4275V11.0353H93.3938V12.51H95.3251V13.9848H96.7297V15.4596H93.745V13.9848H91.8137V12.51H89.8473V11.0353H86.4062V12.6856H84.5451V14.3008H82.5437V15.9863H78.962ZM87.6352 26.8365V21.8152H89.2855V20.4107H90.9359V18.9008H99.1174V20.4107H100.803V21.8152H102.418V26.8365H100.803V28.2762H99.1174V29.7861H90.9359V28.2762H89.2855V26.8365H87.6352ZM90.9359 26.8365H92.5862V28.2762H97.4319V26.8365H99.1174V21.8503H97.4319V20.4107H92.5862V21.8503H90.9359V26.8365Z" fill="#1A1918"/>
<path d="M70.7303 2.78349H72.3807V27.4685H70.7303V29.0136H69.0448V2.78349H67.4647V1.20337H70.7303V2.78349ZM45.4132 21.4992V19.6733H47.1689V17.8473H48.9246V16.0214H50.6803V14.1955H52.436V12.3696H54.1917V4.8201H45.8697V3.34531H56.1229V4.74987H57.7031V7.80477H62.8648V3.48577H61.2847V1.90565H64.5503V3.48577H66.2006V26.0289H64.5503V27.5739H62.8648V17.11H57.0008V15.6352H62.8648V9.24444H57.7031V12.3696H55.9474V14.1955H53.8405V16.0214H52.0146V17.8473H50.2589V19.6733H48.5032V21.4992H45.4132Z" fill="#1A1918"/>
<path d="M25.432 2.78349H27.0824V27.4685H25.432V29.0136H23.7465V12.7909H19.4978V26.0289H17.8474V27.5739H16.162V3.48577H14.5818V1.90565H17.8474V3.48577H19.4978V11.281H23.7465V2.78349H22.1664V1.20337H25.432V2.78349ZM0.150024 4.5743V2.99418H3.59118V4.5743H5.34688V18.7954H11.0002V17.3206H14.1605V18.9008H12.5803V20.3053H3.55607V18.7954H1.76526V4.5743H0.150024Z" fill="#1A1918"/>
<path fill-rule="evenodd" clip-rule="evenodd" d="M288.56 1.05322H292.126V2.63335H293.776V27.6184H292.126V29.1634H290.14V2.93335H288.56V1.05322ZM288.86 1.35322V2.63335H290.44V28.8634H291.826V27.3184H293.476V2.93335H291.826V1.35322H288.86ZM270.02 3.19517H283.066V4.59972H284.752V12.4141H282.996V14.1698H280.573V15.9255H278.358L278.323 17.6812H276.079V19.4369H273.831V21.1926H269.318V19.1369H271.881V17.3812H274.128V15.6255H276.376V13.8698H278.623V12.1141H280.87V4.96995H270.02V3.19517ZM270.32 3.49517V4.66995H281.17V12.4141H278.923V14.1698H276.676V15.9255H274.428V17.6812H272.181V19.4369H269.618V20.8926H273.531V19.1369H275.779V17.3812H278.029L278.064 15.6255H280.273V13.8698H282.696V12.1141H284.452V4.89972H282.766V3.49517H270.32Z" fill="#1A1918"/>
<path fill-rule="evenodd" clip-rule="evenodd" d="M240.685 0H244.426V1.58012H246.076V4.98617H252.607V6.69073H246.041V10.0426H247.691V11.5174H249.658V12.9921H251.589V14.4669H252.994V16.2417H249.709V14.7669H247.778V13.2921H245.811V11.8174H242.67V13.4677H240.809V15.0829H238.808V16.7684H234.926V14.7829H236.928V13.1677H238.929V11.5876H240.79V10.0426H242.44V6.69073H235.523V4.98617H242.44V1.88013H240.685V0ZM240.985 0.3V1.58012H242.74V5.28617H235.823V6.39073H242.74V10.3426H241.09V11.8876H239.229V13.4677H237.228V15.0829H235.226V16.4684H238.508V14.7829H240.509V13.1677H242.37V11.5174H246.111V12.9921H248.078V14.4669H250.009V15.9417H252.694V14.7669H251.289V13.2921H249.358V11.8174H247.391V10.3426H245.741V6.39073H252.307V5.28617H245.776V1.88013H244.126V0.3H240.985ZM254.66 1.05342H258.226V2.63354H259.876V7.90062H265.213V9.78075H259.876V16.5577H258.226V18.1027H256.24V2.93354H254.66V1.05342ZM254.96 1.35342V2.63354H256.54V17.8027H257.926V16.2577H259.576V9.48075H264.913V8.20062H259.576V2.93354H257.926V1.35342H254.96ZM239.912 19.3829H259.525V21.263H251.589V22.6484H253.485V24.2637H255.768V25.8789H258.05V27.5293H260.438V29.4445H256.24V27.8293H253.923V26.214H251.43V24.5988H248.218V26.214H245.655V27.8293H243.267V29.4445H238.894V27.5293H241.457V25.8789H243.81V24.2637H246.162V22.6484H248.059V21.263H239.912V19.3829ZM240.212 19.6829V20.963H248.359V22.9484H246.462V24.5637H244.11V26.1789H241.757V27.8293H239.194V29.1445H242.967V27.5293H245.355V25.914H247.918V24.2988H251.73V25.914H254.223V27.5293H256.54V29.1445H260.138V27.8293H257.75V26.1789H255.468V24.5637H253.185V22.9484H251.289V20.963H259.225V19.6829H240.212Z" fill="#1A1918"/>
<path fill-rule="evenodd" clip-rule="evenodd" d="M210.415 1.05322H213.981V2.63335H215.631V27.6184H213.981V29.1634H211.995V2.93335H210.415V1.05322ZM210.715 1.35322V2.63335H212.295V28.8634H213.681V27.3184H215.331V2.93335H213.681V1.35322H210.715ZM193.455 3.19517H205.94V4.96995H195.511V18.5048H205.429V17.03H208.889V18.9102H207.309V20.3147H193.42V18.8048H191.735V4.66995H193.455V3.19517ZM193.755 3.49517V4.96995H192.035V18.5048H193.72V20.0147H207.009V18.6102H208.589V17.33H205.729V18.8048H195.211V4.66995H205.64V3.49517H193.755Z" fill="#1A1918"/>
<path fill-rule="evenodd" clip-rule="evenodd" d="M177.744 1.05322H181.31V2.63335H182.96V27.6535H181.31V29.1985H179.324V2.93335H177.744V1.05322ZM178.044 1.35322V2.63335H179.624V28.8985H181.01V27.3535H182.66V2.93335H181.01V1.35322H178.044ZM164.225 2.0013H167.861V5.16154H170.916V6.63633H172.672V8.04088H174.287V15.9255H172.672V17.3651H170.916V18.9102H161.206V17.3651H159.485V15.9255H157.835V8.04088H159.485V6.63633H161.206V5.16154H164.225V2.0013ZM164.525 2.3013V5.46154H161.506V6.93633H159.785V8.34088H158.135V15.6255H159.785V17.0651H161.506V18.6102H170.616V17.0651H172.372V15.6255H173.987V8.34088H172.372V6.93633H170.616V5.46154H167.561V2.3013H164.525ZM162.856 6.63633H169.231V8.076H170.916V15.9255H169.231V17.3651H162.856V15.9255H161.206V8.076H162.856V6.63633ZM163.156 6.93633V8.376H161.506V15.6255H163.156V17.0651H168.931V15.6255H170.616V8.376H168.931V6.93633H163.156Z" fill="#1A1918"/>
<path fill-rule="evenodd" clip-rule="evenodd" d="M143.318 1.05322H146.883V2.63335H148.534V11.4469H153.871V13.2919H148.534V27.6184H146.883V29.1634H144.898V2.93335H143.318V1.05322ZM143.618 1.35322V2.63335H145.198V28.8634H146.583V27.3184H148.234V12.9919H153.571V11.7469H148.234V2.93335H146.583V1.35322H143.618ZM130.641 2.0013H134.277V5.16154H137.086V6.63633H138.842V8.04088H140.457V15.9255H138.842V17.3651H137.086V18.9102H127.832V17.3651H126.112V15.9255H124.461V8.04088H126.112V6.63633H127.832V5.16154H130.641V2.0013ZM130.941 2.3013V5.46154H128.132V6.93633H126.412V8.34088H124.761V15.6255H126.412V17.0651H128.132V18.6102H136.786V17.0651H138.542V15.6255H140.157V8.34088H138.542V6.93633H136.786V5.46154H133.977V2.3013H130.941ZM129.483 6.63633H135.401V8.076H137.086V15.9255H135.401V17.3651H129.483V15.9255H127.832V8.076H129.483V6.63633ZM129.783 6.93633V8.376H128.132V15.6255H129.783V17.0651H135.101V15.6255H136.786V8.376H135.101V6.93633H129.783Z" fill="#1A1918"/>
<path fill-rule="evenodd" clip-rule="evenodd" d="M99.775 1.05322H103.341V2.63335H104.991V16.3468H103.341V17.8919H101.355V9.46453H95.4209V7.65463H101.355V2.93335H99.775V1.05322ZM100.075 1.35322V2.63335H101.655V7.95463H95.7209V9.16453H101.655V17.5919H103.041V16.0468H104.691V2.93335H103.041V1.35322H100.075ZM79.7952 2.14175H95.9667V3.95165H89.9973V9.41032H91.5774V10.8851H93.5438V12.3599H95.4751V13.8347H96.8796V15.6095H93.595V14.1347H91.6637V12.6599H89.6973V11.1851H86.5562V12.8355H84.6951V14.4507H82.6936V16.1362H78.812V14.1507H80.8135V12.5355H82.815V10.9553H84.676V9.41032H86.2562V3.95165H79.7952V2.14175ZM80.0952 2.44175V3.65165H86.5562V9.71032H84.976V11.2553H83.115V12.8355H81.1135V14.4507H79.112V15.8362H82.3936V14.1507H84.3951V12.5355H86.2562V10.8851H89.9973V12.3599H91.9637V13.8347H93.895V15.3095H96.5796V14.1347H95.1751V12.6599H93.2438V11.1851H91.2774V9.71032H89.6973V3.65165H95.6667V2.44175H80.0952ZM90.7858 18.7506H99.2674V20.2605H100.953V21.6651H102.568V26.9863H100.953V28.426H99.2674V29.9359H90.7858V28.426H89.1355V26.9863H87.4851V21.6651H89.1355V20.2605H90.7858V18.7506ZM91.0858 19.0506V20.5605H89.4355V21.9651H87.7851V26.6863H89.4355V28.126H91.0858V29.6359H98.9674V28.126H100.653V26.6863H102.268V21.9651H100.653V20.5605H98.9674V19.0506H91.0858ZM92.4362 20.2605H97.5819V21.7002H99.2674V26.9863H97.5819V28.426H92.4362V26.9863H90.7858V21.7002H92.4362V20.2605ZM92.7362 20.5605V22.0002H91.0858V26.6863H92.7362V28.126H97.2819V26.6863H98.9674V22.0002H97.2819V20.5605H92.7362Z" fill="#1A1918"/>
<path fill-rule="evenodd" clip-rule="evenodd" d="M67.3147 1.05322H70.8803V2.63335H72.5306V27.6184H70.8803V29.1634H68.8948V2.93335H67.3147V1.05322ZM67.6147 1.35322V2.63335H69.1948V28.8634H70.5803V27.3184H72.2306V2.93335H70.5803V1.35322H67.6147ZM61.1347 1.7555H64.7002V3.33562H66.3506V26.1787H64.7002V27.7237H62.7148V17.2598H56.8508V15.485H62.7148V9.3943H57.853V12.5194H56.0973V14.3454H53.9905V16.1713H52.1646V17.9972H50.4089V19.8231H48.6532V21.649H45.2632V19.5231H47.0189V17.6972H48.7746V15.8713H50.5303V14.0454H52.286V12.2194H54.0416V4.96995H45.7197V3.19517H56.2729V4.59972H57.853V7.65463H62.7148V3.63562H61.1347V1.7555ZM61.4347 2.0555V3.33562H63.0148V7.95463H57.553V4.89972H55.9729V3.49517H46.0197V4.66995H54.3416V12.5194H52.586V14.3454H50.8303V16.1713H49.0746V17.9972H47.3189V19.8231H45.5632V21.349H48.3532V19.5231H50.1089V17.6972H51.8646V15.8713H53.6905V14.0454H55.7973V12.2194H57.553V9.0943H63.0148V15.785H57.1508V16.9598H63.0148V27.4237H64.4002V25.8787H66.0506V3.63562H64.4002V2.0555H61.4347Z" fill="#1A1918"/>
<path fill-rule="evenodd" clip-rule="evenodd" d="M22.0164 1.05322H25.582V2.63335H27.2323V27.6184H25.582V29.1634H23.5965V12.9408H19.6477V26.1787H17.9974V27.7237H16.0119V3.63562H14.4318V1.7555H17.9974V3.33562H19.6477V11.1309H23.5965V2.93335H22.0164V1.05322ZM22.3164 1.35322V2.63335H23.8965V11.4309H19.3477V3.63562H17.6974V2.0555H14.7318V3.33562H16.3119V27.4237H17.6974V25.8787H19.3477V12.6408H23.8965V28.8634H25.282V27.3184H26.9323V2.93335H25.282V1.35322H22.3164ZM0 2.84403H3.74116V4.42415H5.49685V18.6453H10.8502V17.1705H14.3104V19.0506H12.7303V20.4552H3.40605V18.9453H1.61524V4.72415H0V2.84403ZM0.3 3.14403V4.42415H1.91524V18.6453H3.70605V20.1552H12.4303V18.7506H14.0104V17.4705H11.1502V18.9453H5.19685V4.72415H3.44116V3.14403H0.3Z" fill="#1A1918"/>
</svg>
