<svg width="110" height="95" viewBox="0 0 110 95" fill="none" xmlns="http://www.w3.org/2000/svg">
<g filter="url(#filter0_d_6864_10460)">
<circle cx="55" cy="47.5" r="40" fill="#FAFAFA"/>
</g>
<g clip-path="url(#clip0_6864_10460)">
<path fill-rule="evenodd" clip-rule="evenodd" d="M54.491 22.7998C48.3571 22.803 42.4243 24.9755 37.7535 28.9288C33.0828 32.8822 29.9785 38.3586 28.9959 44.3788C28.0133 50.3991 29.2164 56.5705 32.39 61.7897C35.5636 67.0089 40.5009 70.9355 46.319 72.8673C47.6025 73.1056 48.086 72.31 48.086 71.6336C48.086 70.9572 48.0603 68.996 48.0518 66.8519C40.8638 68.4047 39.345 63.8187 39.345 63.8187C38.1727 60.8407 36.4784 60.058 36.4784 60.058C34.1337 58.4669 36.6538 58.4967 36.6538 58.4967C39.2509 58.6796 40.6157 61.147 40.6157 61.147C42.9176 65.0737 46.6612 63.9378 48.1331 63.2741C48.3641 61.6108 49.0358 60.4791 49.776 59.8368C44.0342 59.1901 38.0015 56.9864 38.0015 47.1423C37.9659 44.5892 38.9187 42.1203 40.6628 40.2462C40.3975 39.5996 39.5118 36.9875 40.9152 33.4395C40.9152 33.4395 43.0844 32.7504 48.0218 36.0729C52.2568 34.9213 56.7251 34.9213 60.9601 36.0729C65.8932 32.7504 68.0581 33.4395 68.0581 33.4395C69.4658 36.979 68.5801 39.5911 68.3149 40.2462C70.0644 42.1206 71.0192 44.5938 70.9804 47.1508C70.9804 57.0162 64.9348 59.1901 59.1845 59.824C60.1086 60.6238 60.9344 62.1851 60.9344 64.5844C60.9344 68.0218 60.9045 70.787 60.9045 71.6336C60.9045 72.3185 61.3708 73.1183 62.68 72.8673C68.4988 70.9353 73.4365 67.008 76.6101 61.7879C79.7837 56.5678 80.9861 50.3954 80.0024 44.3746C79.0187 38.3539 75.9129 32.8774 71.2406 28.9247C66.5682 24.972 60.6341 22.801 54.4995 22.7998H54.491Z" fill="#DC4200"/>
<path d="M38.4379 59.6879C38.3822 59.8155 38.1769 59.8538 38.01 59.7645C37.8431 59.6752 37.7191 59.5092 37.779 59.3774C37.8389 59.2455 38.04 59.2114 38.2068 59.3008C38.3737 59.3901 38.502 59.5603 38.4379 59.6879Z" fill="#DC4200"/>
<path d="M39.4859 60.8491C39.3973 60.8935 39.2959 60.9059 39.1992 60.8841C39.1024 60.8624 39.0162 60.8079 38.9554 60.73C38.7885 60.5513 38.7543 60.3046 38.8826 60.1939C39.011 60.0833 39.242 60.1344 39.4089 60.3131C39.5758 60.4917 39.6143 60.7385 39.4859 60.8491Z" fill="#DC4200"/>
<path d="M40.5035 62.3252C40.3452 62.4358 40.0756 62.3252 39.9259 62.104C39.8844 62.0643 39.8515 62.0167 39.829 61.9641C39.8065 61.9114 39.7949 61.8548 39.7949 61.7977C39.7949 61.7405 39.8065 61.6839 39.829 61.6312C39.8515 61.5786 39.8844 61.531 39.9259 61.4913C40.0842 61.385 40.3537 61.4913 40.5035 61.7083C40.6532 61.9253 40.6575 62.2146 40.5035 62.3252Z" fill="#DC4200"/>
<path d="M41.8858 63.7549C41.7446 63.9123 41.4579 63.8698 41.2226 63.6571C40.9873 63.4444 40.9317 63.1551 41.0729 63.0019C41.2141 62.8488 41.5007 62.8913 41.7446 63.0998C41.9885 63.3082 42.0355 63.6018 41.8858 63.7549Z" fill="#DC4200"/>
<path d="M43.8237 64.5888C43.7595 64.7888 43.4686 64.8781 43.1777 64.793C42.8867 64.7079 42.6942 64.4697 42.7498 64.2655C42.8054 64.0613 43.1006 63.9677 43.3959 64.0613C43.6911 64.1549 43.8793 64.3804 43.8237 64.5888Z" fill="#DC4200"/>
<path d="M45.9382 64.7333C45.9382 64.9418 45.6986 65.1205 45.3906 65.1247C45.0825 65.129 44.8301 64.9588 44.8301 64.7504C44.8301 64.5419 45.0697 64.3632 45.3777 64.359C45.6858 64.3547 45.9382 64.5206 45.9382 64.7333Z" fill="#DC4200"/>
<path d="M47.9047 64.406C47.9432 64.6144 47.7293 64.8314 47.4212 64.8825C47.1132 64.9335 46.8436 64.8101 46.8051 64.6059C46.7666 64.4017 46.9891 64.1805 47.2886 64.1252C47.5881 64.0699 47.8662 64.1975 47.9047 64.406Z" fill="#DC4200"/>
</g>
<defs>
<filter id="filter0_d_6864_10460" x="0" y="-7.5" width="110" height="110" filterUnits="userSpaceOnUse" color-interpolation-filters="sRGB">
<feFlood flood-opacity="0" result="BackgroundImageFix"/>
<feColorMatrix in="SourceAlpha" type="matrix" values="0 0 0 0 0 0 0 0 0 0 0 0 0 0 0 0 0 0 127 0" result="hardAlpha"/>
<feOffset/>
<feGaussianBlur stdDeviation="7.5"/>
<feComposite in2="hardAlpha" operator="out"/>
<feColorMatrix type="matrix" values="0 0 0 0 0 0 0 0 0 0 0 0 0 0 0 0 0 0 0.25 0"/>
<feBlend mode="normal" in2="BackgroundImageFix" result="effect1_dropShadow_6864_10460"/>
<feBlend mode="normal" in="SourceGraphic" in2="effect1_dropShadow_6864_10460" result="shape"/>
</filter>
<clipPath id="clip0_6864_10460">
<rect x="28.5" y="21.5" width="52" height="52" rx="6" fill="white"/>
</clipPath>
</defs>
</svg>
