<svg width="52" height="52" viewBox="0 0 52 52" fill="none" xmlns="http://www.w3.org/2000/svg">
<path fill-rule="evenodd" clip-rule="evenodd" d="M25.991 1.2998C19.8571 1.30299 13.9243 3.47549 9.25354 7.42884C4.58276 11.3822 1.47853 16.8586 0.49591 22.8788C-0.486706 28.8991 0.716356 35.0705 3.89 40.2897C7.06365 45.5089 12.0009 49.4355 17.819 51.3673C19.1025 51.6056 19.586 50.81 19.586 50.1336C19.586 49.4572 19.5603 47.496 19.5518 45.3519C12.3638 46.9047 10.845 42.3187 10.845 42.3187C9.67266 39.3407 7.97836 38.558 7.97836 38.558C5.63373 36.9669 8.1538 36.9967 8.1538 36.9967C10.7509 37.1796 12.1157 39.647 12.1157 39.647C14.4176 43.5737 18.1612 42.4378 19.6331 41.7741C19.8641 40.1108 20.5358 38.9791 21.276 38.3368C15.5342 37.6901 9.50152 35.4864 9.50152 25.6423C9.46593 23.0892 10.4187 20.6203 12.1628 18.7462C11.8975 18.0996 11.0118 15.4875 12.4152 11.9395C12.4152 11.9395 14.5844 11.2504 19.5218 14.5729C23.7568 13.4213 28.2251 13.4213 32.4601 14.5729C37.3932 11.2504 39.5581 11.9395 39.5581 11.9395C40.9658 15.479 40.0801 18.0911 39.8149 18.7462C41.5644 20.6206 42.5192 23.0938 42.4804 25.6508C42.4804 35.5162 36.4348 37.6901 30.6845 38.324C31.6086 39.1238 32.4344 40.6851 32.4344 43.0844C32.4344 46.5218 32.4045 49.287 32.4045 50.1336C32.4045 50.8185 32.8708 51.6183 34.18 51.3673C39.9988 49.4353 44.9365 45.508 48.1101 40.2879C51.2837 35.0678 52.4861 28.8954 51.5024 22.8746C50.5187 16.8539 47.4129 11.3774 42.7406 7.42471C38.0682 3.47204 32.1341 1.30097 25.9995 1.2998H25.991Z" fill="#DC4200"/>
<path d="M9.93786 38.1879C9.88224 38.3155 9.67687 38.3538 9.51 38.2645C9.34314 38.1752 9.21907 38.0092 9.27897 37.8774C9.33887 37.7455 9.53996 37.7114 9.70683 37.8008C9.87369 37.8901 10.002 38.0603 9.93786 38.1879Z" fill="#DC4200"/>
<path d="M10.9859 39.3491C10.8973 39.3935 10.7959 39.4059 10.6992 39.3841C10.6024 39.3624 10.5162 39.3079 10.4554 39.23C10.2885 39.0513 10.2543 38.8046 10.3826 38.6939C10.511 38.5833 10.742 38.6344 10.9089 38.8131C11.0758 38.9917 11.1143 39.2385 10.9859 39.3491Z" fill="#DC4200"/>
<path d="M12.0035 40.8252C11.8452 40.9358 11.5756 40.8252 11.4259 40.604C11.3844 40.5643 11.3515 40.5167 11.329 40.4641C11.3065 40.4114 11.2949 40.3548 11.2949 40.2977C11.2949 40.2405 11.3065 40.1839 11.329 40.1312C11.3515 40.0786 11.3844 40.031 11.4259 39.9913C11.5842 39.885 11.8537 39.9913 12.0035 40.2083C12.1532 40.4253 12.1575 40.7146 12.0035 40.8252Z" fill="#DC4200"/>
<path d="M13.3858 42.2549C13.2446 42.4123 12.9579 42.3698 12.7226 42.1571C12.4873 41.9444 12.4317 41.6551 12.5729 41.5019C12.7141 41.3488 13.0007 41.3913 13.2446 41.5998C13.4885 41.8082 13.5355 42.1018 13.3858 42.2549Z" fill="#DC4200"/>
<path d="M15.3237 43.0888C15.2595 43.2888 14.9686 43.3781 14.6777 43.293C14.3867 43.2079 14.1942 42.9697 14.2498 42.7655C14.3054 42.5613 14.6006 42.4677 14.8959 42.5613C15.1911 42.6549 15.3793 42.8804 15.3237 43.0888Z" fill="#DC4200"/>
<path d="M17.4382 43.2333C17.4382 43.4418 17.1986 43.6205 16.8906 43.6247C16.5825 43.629 16.3301 43.4588 16.3301 43.2504C16.3301 43.0419 16.5697 42.8632 16.8777 42.859C17.1858 42.8547 17.4382 43.0206 17.4382 43.2333Z" fill="#DC4200"/>
<path d="M19.4047 42.906C19.4432 43.1144 19.2293 43.3314 18.9212 43.3825C18.6132 43.4335 18.3436 43.3101 18.3051 43.1059C18.2666 42.9017 18.4891 42.6805 18.7886 42.6252C19.0881 42.5699 19.3662 42.6975 19.4047 42.906Z" fill="#DC4200"/>
</svg>
