<svg width="102" height="95" viewBox="0 0 102 95" fill="none" xmlns="http://www.w3.org/2000/svg">
<g filter="url(#filter0_d_6864_10459)">
<circle cx="46.5" cy="47.5" r="40" fill="#FAFAFA"/>
</g>
<path d="M38.5575 47.2519C38.5575 43.0022 42.0017 39.5562 46.2514 39.5562C50.5012 39.5562 53.9472 43.0022 53.9472 47.2519C53.9472 51.5017 50.5012 54.9477 46.2514 54.9477C42.0017 54.9477 38.5575 51.5017 38.5575 47.2519M34.3973 47.2519C34.3973 53.7989 39.7044 59.106 46.2514 59.106C52.7985 59.106 58.1055 53.7989 58.1055 47.2519C58.1055 40.7049 52.7985 35.3978 46.2514 35.3978C39.7044 35.3978 34.3975 40.7045 34.3975 47.2519M55.8047 34.9278C55.8045 35.4757 55.9668 36.0114 56.271 36.4671C56.5752 36.9228 57.0077 37.278 57.5138 37.4879C58.0199 37.6978 58.5769 37.7528 59.1143 37.6462C59.6518 37.5395 60.1455 37.2758 60.5331 36.8886C60.9206 36.5013 61.1847 36.0078 61.2918 35.4705C61.3989 34.9331 61.3443 34.3761 61.1348 33.8698C60.9253 33.3635 60.5704 32.9307 60.115 32.6262C59.6595 32.3216 59.124 32.1589 58.5761 32.1587H58.575C57.8406 32.159 57.1363 32.4508 56.6169 32.97C56.0975 33.4893 55.8054 34.1934 55.8047 34.9278M36.9249 66.0431C34.6742 65.9406 33.4508 65.5657 32.6379 65.2489C31.5601 64.8293 30.791 64.3296 29.9825 63.5222C29.1739 62.7147 28.6735 61.9464 28.2557 60.8686C27.9388 60.056 27.5639 58.8323 27.4616 56.5816C27.3496 54.1482 27.3273 53.4172 27.3273 47.2523C27.3273 41.0874 27.3515 40.3584 27.4616 37.923C27.5641 35.6723 27.9417 34.451 28.2557 33.636C28.6753 32.5581 29.1751 31.7891 29.9825 30.9806C30.7899 30.172 31.5582 29.6715 32.6379 29.2538C33.4505 28.9369 34.6742 28.562 36.9249 28.4597C39.3583 28.3477 40.0893 28.3254 46.2514 28.3254C52.4136 28.3254 53.1453 28.3492 55.5807 28.46C57.8314 28.5625 59.0528 28.9402 59.8678 29.2542C60.9456 29.6719 61.7146 30.1735 62.5231 30.9809C63.3317 31.7884 63.8303 32.5585 64.2499 33.6363C64.5668 34.4489 64.9418 35.6726 65.0441 37.9234C65.156 40.3588 65.1783 41.0877 65.1783 47.2527C65.1783 53.4176 65.156 54.1465 65.0441 56.5819C64.9416 58.8327 64.5648 60.056 64.2499 60.869C63.8303 61.9468 63.3306 62.7158 62.5231 63.5225C61.7157 64.3292 60.9456 64.8297 59.8678 65.2493C59.0552 65.5662 57.8314 65.9411 55.5807 66.0434C53.1473 66.1554 52.4163 66.1777 46.2514 66.1777C40.0865 66.1777 39.3576 66.1554 36.9249 66.0434M36.7338 24.3063C34.2762 24.4182 32.5969 24.8079 31.1303 25.3786C29.6124 25.9679 28.3257 26.7585 27.0409 28.0413C25.756 29.3242 24.9674 30.611 24.3781 32.1308C23.8074 33.5983 23.4177 35.2767 23.3058 37.7343C23.1921 40.1957 23.166 40.9827 23.166 47.2519C23.166 53.5212 23.1921 54.3081 23.3058 56.7696C23.4177 59.2273 23.8074 60.9056 24.3781 62.3731C24.9674 63.891 25.7562 65.1802 27.0409 66.4625C28.3255 67.7448 29.6105 68.5343 31.1303 69.1253C32.5996 69.6959 34.2762 70.0856 36.7338 70.1975C39.1965 70.3094 39.9822 70.3373 46.2514 70.3373C52.5207 70.3373 53.3076 70.3113 55.7691 70.1975C58.2269 70.0856 59.9051 69.6959 61.3726 69.1253C62.8905 68.5343 64.1772 67.7453 65.462 66.4625C66.7468 65.1797 67.5338 63.891 68.1248 62.3731C68.6954 60.9056 69.087 59.2272 69.197 56.7696C69.309 54.3063 69.335 53.5212 69.335 47.2519C69.335 40.9827 69.309 40.1957 69.197 37.7343C69.0851 35.2765 68.6954 33.5974 68.1248 32.1308C67.5338 30.6129 66.7448 29.3262 65.462 28.0413C64.1792 26.7565 62.8905 25.9679 61.3744 25.3786C59.9051 24.8079 58.2267 24.4164 55.7709 24.3063C53.3091 24.1938 52.5225 24.1665 46.2542 24.1665C39.9859 24.1665 39.1975 24.1925 36.7347 24.3063" fill="#DC4200"/>
<defs>
<filter id="filter0_d_6864_10459" x="-8.5" y="-7.5" width="110" height="110" filterUnits="userSpaceOnUse" color-interpolation-filters="sRGB">
<feFlood flood-opacity="0" result="BackgroundImageFix"/>
<feColorMatrix in="SourceAlpha" type="matrix" values="0 0 0 0 0 0 0 0 0 0 0 0 0 0 0 0 0 0 127 0" result="hardAlpha"/>
<feOffset/>
<feGaussianBlur stdDeviation="7.5"/>
<feComposite in2="hardAlpha" operator="out"/>
<feColorMatrix type="matrix" values="0 0 0 0 0 0 0 0 0 0 0 0 0 0 0 0 0 0 0.25 0"/>
<feBlend mode="normal" in2="BackgroundImageFix" result="effect1_dropShadow_6864_10459"/>
<feBlend mode="normal" in="SourceGraphic" in2="effect1_dropShadow_6864_10459" result="shape"/>
</filter>
</defs>
</svg>
