<svg width="47" height="47" viewBox="0 0 47 47" fill="none" xmlns="http://www.w3.org/2000/svg">
<path d="M15.3915 23.0854C15.3915 18.8357 18.8357 15.3897 23.0854 15.3897C27.3352 15.3897 30.7812 18.8357 30.7812 23.0854C30.7812 27.3352 27.3352 30.7812 23.0854 30.7812C18.8357 30.7812 15.3915 27.3352 15.3915 23.0854ZM11.2313 23.0854C11.2313 29.6324 16.5384 34.9395 23.0854 34.9395C29.6324 34.9395 34.9395 29.6324 34.9395 23.0854C34.9395 16.5384 29.6324 11.2313 23.0854 11.2313C16.5384 11.2313 11.2315 16.538 11.2315 23.0854M32.6387 10.7613C32.6385 11.3092 32.8008 11.8449 33.105 12.3006C33.4092 12.7563 33.8417 13.1115 34.3478 13.3214C34.8539 13.5312 35.4109 13.5863 35.9483 13.4797C36.4857 13.373 36.9795 13.1093 37.367 12.7221C37.7546 12.3348 38.0187 11.8413 38.1258 11.304C38.2329 10.7666 38.1782 10.2096 37.9688 9.70332C37.7593 9.19704 37.4044 8.76424 36.949 8.45966C36.4935 8.15508 35.958 7.99239 35.4101 7.99217H35.409C34.6745 7.99251 33.9703 8.28434 33.4509 8.80354C32.9315 9.32275 32.6394 10.0269 32.6387 10.7613ZM13.7589 41.8766C11.5082 41.7741 10.2848 41.3992 9.47185 41.0824C8.39404 40.6628 7.62502 40.1631 6.81648 39.3556C6.00793 38.5482 5.50744 37.7799 5.08969 36.7021C4.77277 35.8895 4.39786 34.6658 4.29555 32.4151C4.18363 29.9817 4.16128 29.2507 4.16128 23.0858C4.16128 16.9209 4.18548 16.1919 4.29555 13.7565C4.39805 11.5058 4.77573 10.2845 5.08969 9.46945C5.50929 8.39164 6.00904 7.62262 6.81648 6.81408C7.62391 6.00553 8.3922 5.50504 9.47185 5.08729C10.2845 4.77037 11.5082 4.39546 13.7589 4.29315C16.1923 4.18123 16.9233 4.15888 23.0854 4.15888C29.2476 4.15888 29.9793 4.18271 32.4147 4.29352C34.6654 4.39602 35.8867 4.77369 36.7017 5.08766C37.7796 5.50541 38.5486 6.00701 39.3571 6.81445C40.1657 7.62188 40.6643 8.39201 41.0839 9.46982C41.4008 10.2824 41.7757 11.5061 41.8781 13.7569C41.99 16.1923 42.0123 16.9212 42.0123 23.0862C42.0123 29.2511 41.99 29.98 41.8781 32.4154C41.7756 34.6662 41.3988 35.8895 41.0839 36.7025C40.6643 37.7803 40.1646 38.5493 39.3571 39.356C38.5497 40.1627 37.7796 40.6632 36.7017 41.0828C35.8891 41.3997 34.6654 41.7746 32.4147 41.8769C29.9813 41.9889 29.2503 42.0112 23.0854 42.0112C16.9205 42.0112 16.1916 41.9889 13.7589 41.8769M13.5678 0.139805C11.1102 0.251724 9.43085 0.641405 7.96428 1.21208C6.44637 1.8014 5.15968 2.59203 3.87484 3.87484C2.59 5.15765 1.8014 6.44453 1.21208 7.96428C0.641405 9.43178 0.251724 11.1102 0.139805 13.5678C0.0260405 16.0292 0 16.8162 0 23.0854C0 29.3547 0.0260405 30.1416 0.139805 32.6031C0.251724 35.0608 0.641405 36.7391 1.21208 38.2066C1.8014 39.7245 2.59018 41.0137 3.87484 42.296C5.1595 43.5782 6.44453 44.3678 7.96428 44.9588C9.43363 45.5294 11.1102 45.9191 13.5678 46.031C16.0305 46.1429 16.8162 46.1708 23.0854 46.1708C29.3547 46.1708 30.1416 46.1448 32.6031 46.031C35.0608 45.9191 36.7391 45.5294 38.2066 44.9588C39.7245 44.3678 41.0112 43.5788 42.296 42.296C43.5808 41.0132 44.3678 39.7245 44.9588 38.2066C45.5294 36.7391 45.921 35.0607 46.031 32.6031C46.1429 30.1398 46.169 29.3547 46.169 23.0854C46.169 16.8162 46.1429 16.0292 46.031 13.5678C45.9191 11.11 45.5294 9.43085 44.9588 7.96428C44.3678 6.44637 43.5788 5.15968 42.296 3.87484C41.0132 2.59 39.7245 1.8014 38.2084 1.21208C36.7391 0.641405 35.0607 0.249877 32.6049 0.139805C30.1431 0.0273333 29.3565 0 23.0882 0C16.8199 0 16.0314 0.0260405 13.5687 0.139805" fill="#DC4200"/>
</svg>
