<svg width="115" height="95" viewBox="0 0 115 95" fill="none" xmlns="http://www.w3.org/2000/svg">
<g filter="url(#filter0_d_6864_10439)">
<circle cx="57.5" cy="49.5" r="42" fill="#FAFAFA"/>
<g clip-path="url(#clip0_6864_10439)">
<path d="M83.3877 36.5161C82.765 34.203 80.9413 32.3793 78.6283 31.7566C74.4026 30.6001 57.4999 30.6001 57.4999 30.6001C57.4999 30.6001 40.5972 30.6001 36.3715 31.7121C34.1029 32.3349 32.2348 34.203 31.612 36.5161C30.5 40.7417 30.5 49.5045 30.5 49.5045C30.5 49.5045 30.5 58.3117 31.612 62.4929C32.2348 64.8059 34.0585 66.6296 36.3715 67.2523C40.6416 68.4088 57.4999 68.4088 57.4999 68.4088C57.4999 68.4088 74.4026 68.4088 78.6283 67.2968C80.9413 66.6741 82.765 64.8504 83.3877 62.5374C84.4998 58.3117 84.4998 49.5489 84.4998 49.5489C84.4998 49.5489 84.5443 40.7417 83.3877 36.5161Z" fill="#DC4200"/>
<path d="M52.1172 57.5997L66.1731 49.5042L52.1172 41.4087V57.5997Z" fill="#FAFAFA"/>
</g>
</g>
<defs>
<filter id="filter0_d_6864_10439" x="0.5" y="-7.5" width="114" height="114" filterUnits="userSpaceOnUse" color-interpolation-filters="sRGB">
<feFlood flood-opacity="0" result="BackgroundImageFix"/>
<feColorMatrix in="SourceAlpha" type="matrix" values="0 0 0 0 0 0 0 0 0 0 0 0 0 0 0 0 0 0 127 0" result="hardAlpha"/>
<feOffset/>
<feGaussianBlur stdDeviation="7.5"/>
<feComposite in2="hardAlpha" operator="out"/>
<feColorMatrix type="matrix" values="0 0 0 0 0 0 0 0 0 0 0 0 0 0 0 0 0 0 0.25 0"/>
<feBlend mode="normal" in2="BackgroundImageFix" result="effect1_dropShadow_6864_10439"/>
<feBlend mode="normal" in="SourceGraphic" in2="effect1_dropShadow_6864_10439" result="shape"/>
</filter>
<clipPath id="clip0_6864_10439">
<rect x="30.5" y="22.5" width="54" height="54" rx="6" fill="white"/>
</clipPath>
</defs>
</svg>
