<svg width="187" height="275" viewBox="0 0 187 275" fill="none" xmlns="http://www.w3.org/2000/svg">
<path fill-rule="evenodd" clip-rule="evenodd" d="M26.668 16.5068H34.2869L34.2869 59.6806H26.668L26.668 16.5068ZM34.2883 22.8555H41.9072L41.9072 71.1099H48.255L48.255 113.014H41.9059V107.933H34.2883L34.2883 22.8555Z" fill="#FFC700"/>
<path fill-rule="evenodd" clip-rule="evenodd" d="M20.3179 36.8232H5.08008L5.08008 60.7431H12.7002L12.7002 93.9643H26.6681L26.6681 59.4135H20.3179V36.8232Z" fill="#FFC700"/>
<path fill-rule="evenodd" clip-rule="evenodd" d="M55.8728 1.26855L48.2539 1.26855L48.2539 72.3783H55.8728L55.8728 1.26855ZM62.2224 10.1569L55.8733 10.1569L55.8733 66.0288H62.2224L62.2224 10.1569Z" fill="#FFC700"/>
<path fill-rule="evenodd" clip-rule="evenodd" d="M76.1912 16.5049H68.5723L68.5723 78.7259H76.1912V16.5049ZM83.8115 22.8536H76.1926L76.1926 86.3444H83.8115L83.8115 22.8536Z" fill="#FFC700"/>
<path fill-rule="evenodd" clip-rule="evenodd" d="M118.094 16.5068H110.475L110.475 100.315H118.094L118.094 16.5068ZM125.714 22.8555H118.095L118.095 100.314H125.714L125.714 22.8555Z" fill="#FFC700"/>
<path fill-rule="evenodd" clip-rule="evenodd" d="M138.412 22.8535H130.793V100.312H138.412V22.8535ZM146.032 29.2022H138.413V114.28H146.032L146.032 29.2022Z" fill="#FFC700"/>
<path fill-rule="evenodd" clip-rule="evenodd" d="M97.1422 0L90.1582 0L90.1582 92.7659H97.1422L97.1422 0ZM104.127 9.4661L97.1425 9.4661L97.1425 104.125H104.127L104.127 9.4661Z" fill="#FFC700"/>
<path fill-rule="evenodd" clip-rule="evenodd" d="M158.732 36.8232H152.383V101.584H158.732V100.314H166.35V44.4419H158.732V36.8232Z" fill="#FFC700"/>
<path fill-rule="evenodd" clip-rule="evenodd" d="M102.858 96.5049H110.477V135.869H102.86V137.137H96.5107V105.392H102.858V96.5049Z" fill="#FFC700"/>
<path fill-rule="evenodd" clip-rule="evenodd" d="M62.2221 72.3779H55.873L55.873 128.25H62.2221L62.2221 72.3779ZM68.5726 78.7262H62.2235L62.2235 134.598H68.5726V78.7262Z" fill="#FFC700"/>
<rect x="73.6504" y="92.6953" width="16.5076" height="43.1738" fill="#FFC700"/>
<rect x="118.094" y="100.313" width="12.6982" height="35.5549" fill="#FFC700"/>
<path fill-rule="evenodd" clip-rule="evenodd" d="M166.348 1.26563L159.999 1.26563V22.8525L166.348 22.8525V1.26563ZM152.38 10.1553L159.999 10.1553L159.999 31.7422H152.38V22.853H144.762V16.504H152.38V10.1553Z" fill="#FFC700"/>
<path fill-rule="evenodd" clip-rule="evenodd" d="M172.696 2.53809L166.346 2.53809V22.8552H172.696V2.53809ZM166.347 22.8563H159.998V30.4752H166.347V22.8563Z" fill="#E25B00"/>
<rect x="166.348" y="44.4424" width="6.34909" height="44.4436" fill="#E25B00"/>
<path fill-rule="evenodd" clip-rule="evenodd" d="M55.8711 2.53809L62.2202 2.53809V10.1567L68.5688 10.1567L68.5688 78.7269H62.2197V72.3773H55.8711V66.0282H62.2197L62.2197 10.157H55.8711V2.53809ZM76.1888 78.7272H68.5699V128.25H76.1888L76.1888 78.7272ZM83.8067 30.4753H90.1558V92.6963H83.8077V92.6968H76.1888V86.3477H83.8067L83.8067 30.4753Z" fill="#E25B00"/>
<rect x="110.477" y="100.314" width="7.61891" height="35.5549" fill="#E25B00"/>
<path fill-rule="evenodd" clip-rule="evenodd" d="M138.412 22.8564H146.031V22.8576H152.38V31.7441H158.729V36.8234H152.38V115.554H146.03V29.2055H138.412V22.8564Z" fill="#E25B00"/>
<path fill-rule="evenodd" clip-rule="evenodd" d="M130.79 22.8564H125.711L125.711 100.315H130.79V22.8564ZM138.409 100.316H130.79V135.871H138.409V100.316Z" fill="#E25B00"/>
<path fill-rule="evenodd" clip-rule="evenodd" d="M96.5051 2.54199L104.124 2.54199V10.1609L96.5051 10.1609V2.54199ZM104.124 10.1611L110.473 10.1611L110.473 96.5087H104.124L104.124 10.1611ZM104.122 92.6973H90.1543V137.141H104.122V92.6973Z" fill="#E25B00"/>
<path fill-rule="evenodd" clip-rule="evenodd" d="M34.2891 16.5049H41.908V22.854H34.2891V16.5049ZM41.9094 22.8536H48.2585L48.2585 72.3764H41.9094L41.9094 22.8536ZM55.8742 72.3779H48.2553L48.2553 121.901H55.8742L55.8742 72.3779Z" fill="#E25B00"/>
<path fill-rule="evenodd" clip-rule="evenodd" d="M13.9668 30.4756H20.3159V36.8247H13.9668V30.4756ZM20.3173 36.8238H26.6664L26.6664 59.6805H20.3173L20.3173 36.8238ZM34.2834 59.682H26.6645L26.6645 102.856H34.2834L34.2834 59.682Z" fill="#E25B00"/>
<path d="M0 85.0771H20.3171V93.331H27.936V100.315H34.2851V106.664H41.904V113.013H48.2531V120.632H62.2211V127.616H76.1891V135.87H110.474V126.981H124.442V120.632H138.41V113.013H146.029V106.664H152.378V100.315H159.997V92.6961H166.346V85.0771H186.663V154.917H0L0 85.0771Z" fill="#DC4200"/>
<path d="M5.07927 154.917H181.584V204.44H5.07927L5.07927 154.917Z" fill="#DC4200"/>
<path d="M15.2378 204.44H171.425V256.503H15.2378L15.2378 204.44Z" fill="#DC4200"/>
<path d="M15.2378 256.503H60.9512V265.391H55.872V274.28H20.3171V265.391H15.2378V256.503Z" fill="#DC4200"/>
<path d="M125.712 256.503H171.425V265.391H166.346V274.28H130.791V265.391H125.712V256.503Z" fill="#DC4200"/>
<path d="M62 221.593H84.9565V167.407H62V221.593Z" fill="#FFC700"/>
<path d="M73.4783 233H84.9565V156H73.4783V233Z" fill="#FFC700"/>
<path d="M73.4783 221.593V233L116.522 233V221.593L73.4783 221.593Z" fill="#FFC700"/>
<path d="M105.043 210.185V221.593H128V210.185L105.043 210.185Z" fill="#FFC700"/>
<path d="M105.043 167.407V178.815H128V167.407H105.043Z" fill="#FFC700"/>
<path d="M73.4783 156L73.4783 167.407H116.522V156H73.4783Z" fill="#FFC700"/>
</svg>
