<svg width="260" height="294" viewBox="0 0 260 294" fill="none" xmlns="http://www.w3.org/2000/svg">
<path fill-rule="evenodd" clip-rule="evenodd" d="M62.3066 22.4092L70.5379 22.6436L69.2093 69.2875L60.978 69.0531L62.3066 22.4092ZM70.3449 29.5033L78.5762 29.7377L77.0913 81.8691L83.9499 82.0645L81.7627 158.849L74.9033 158.654L75.271 145.746L67.0405 145.511L70.3449 29.5033Z" fill="#FFC700"/>
<path fill-rule="evenodd" clip-rule="evenodd" d="M54.8219 44.1633L38.3594 43.6943L37.6233 69.5367L45.8552 69.7712L44.4491 119.136L59.5397 119.565L60.9868 68.7647L54.1267 68.5693L54.8219 44.1633Z" fill="#FFC700"/>
<path fill-rule="evenodd" clip-rule="evenodd" d="M94.327 6.84481L86.0957 6.61035L83.4572 99.2411L91.6885 99.4755L94.327 6.84481ZM100.914 16.6434L94.0542 16.448L91.7682 96.7015L98.6276 96.8969L100.914 16.6434Z" fill="#FFC700"/>
<path fill-rule="evenodd" clip-rule="evenodd" d="M115.811 23.9308L107.58 23.6963L104.835 120.054L113.067 120.288L115.811 23.9308ZM123.85 31.0246L115.619 30.7902L112.958 124.204L121.189 124.438L123.85 31.0246Z" fill="#FFC700"/>
<path fill-rule="evenodd" clip-rule="evenodd" d="M161.079 25.2227L152.848 24.9883L150.269 115.532L158.5 115.767L161.079 25.2227ZM169.117 32.3157L160.886 32.0812L158.502 115.766L166.734 116L169.117 32.3157Z" fill="#FFC700"/>
<path fill-rule="evenodd" clip-rule="evenodd" d="M182.837 32.7032L174.605 32.4688L171.466 142.694L179.697 142.928L182.837 32.7032ZM190.875 39.7971L182.644 39.5626L179.134 162.797L187.365 163.032L190.875 39.7971Z" fill="#FFC700"/>
<path fill-rule="evenodd" clip-rule="evenodd" d="M138.952 6.7452L131.406 6.53027L128.551 106.752L136.097 106.967L138.952 6.7452ZM146.206 17.1876L138.661 16.9727L135.748 119.24L143.293 119.455L146.206 17.1876Z" fill="#FFC700"/>
<path fill-rule="evenodd" clip-rule="evenodd" d="M204.357 48.421L197.498 48.2256L195.001 135.881L201.861 136.076L201.919 134.04L210.149 134.275L212.354 56.8873L204.123 56.6529L204.357 48.421Z" fill="#FFC700"/>
<path fill-rule="evenodd" clip-rule="evenodd" d="M142.157 111.181L150.389 111.415L148.585 174.721L140.354 174.486L140.907 155.079L134.049 154.883L135.026 120.586L141.884 120.782L142.157 111.181Z" fill="#FFC700"/>
<path fill-rule="evenodd" clip-rule="evenodd" d="M99 83.8643L92.1406 83.6689L89.6387 171.504L96.4981 171.699L99 83.8643ZM105.667 90.9182L98.8078 90.7228L96.4621 173.073L103.321 173.269L105.667 90.9182Z" fill="#FFC700"/>
<rect x="110.721" y="106.166" width="17.8417" height="70.8849" transform="rotate(1.63159 110.721 106.166)" fill="#FFC700"/>
<rect x="158.5" y="115.765" width="13.7244" height="57.5694" transform="rotate(1.63159 158.5 115.765)" fill="#FFC700"/>
<path fill-rule="evenodd" clip-rule="evenodd" d="M213.682 10.2395L206.823 10.0441L206.159 33.3661L213.018 33.5615L213.682 10.2395ZM198.316 19.4151L206.547 19.6495L205.883 42.9715L197.651 42.737L197.925 33.1331L189.695 32.8987L189.89 26.0393L198.12 26.2737L198.316 19.4151Z" fill="#FFC700"/>
<path fill-rule="evenodd" clip-rule="evenodd" d="M220.493 11.8097L213.634 11.6143L213.008 33.5644L219.868 33.7597L220.493 11.8097ZM213.009 33.5664L206.15 33.3711L205.916 41.6023L212.775 41.7977L213.009 33.5664Z" fill="#E25B00"/>
<rect x="212.35" y="56.8887" width="6.86218" height="69.3686" transform="rotate(1.63159 212.35 56.8887)" fill="#E25B00"/>
<path fill-rule="evenodd" clip-rule="evenodd" d="M94.2832 8.21582L101.143 8.41121L100.908 16.6425L94.0487 16.4471L94.2832 8.21582ZM92.3299 76.8082L99.1882 77.0035L100.908 16.6431L107.767 16.8385L105.657 90.9199L98.7973 90.7246L98.9928 83.8629L92.1345 83.6676L92.3299 76.8082ZM113.892 91.1543L105.66 90.9199L103.395 170.46L111.626 170.695L113.462 106.246L121.691 106.48L121.886 99.6209L113.657 99.3865L113.892 91.1543ZM123.606 39.2574L130.465 39.4528L128.55 106.675L121.691 106.48L123.606 39.2574Z" fill="#E25B00"/>
<rect x="150.268" y="115.53" width="8.23461" height="64.9511" transform="rotate(1.63159 150.268 115.53)" fill="#E25B00"/>
<path fill-rule="evenodd" clip-rule="evenodd" d="M182.834 32.707L191.065 32.9415L190.87 39.8009L182.639 39.5664L182.834 32.707ZM197.652 42.7392L204.509 42.9345L204.352 48.4221L197.496 48.2268L195.073 133.286L188.213 133.09L191.066 32.9433L197.925 33.1387L197.652 42.7392Z" fill="#E25B00"/>
<path fill-rule="evenodd" clip-rule="evenodd" d="M174.597 32.4727L169.109 32.3164L166.726 116.001L172.213 116.157L174.597 32.4727ZM180.443 116.393L172.212 116.159L171.118 154.571L179.349 154.806L180.443 116.393Z" fill="#E25B00"/>
<path fill-rule="evenodd" clip-rule="evenodd" d="M138.186 9.46987L146.417 9.70433L146.183 17.9356L137.952 17.7011L138.186 9.46987ZM146.184 17.9362L153.043 18.1316L150.386 111.419L143.526 111.224L146.184 17.9362ZM143.64 107.106L128.55 106.676L126.471 179.643L141.562 180.073L143.64 107.106Z" fill="#E25B00"/>
<path fill-rule="evenodd" clip-rule="evenodd" d="M70.5352 22.6416L78.7664 22.8761L78.571 29.7355L70.3398 29.501L70.5352 22.6416ZM78.5736 29.7345L85.433 29.9299L83.909 83.4332L77.0496 83.2378L78.5736 29.7345ZM92.1344 83.6702L83.9031 83.4358L82.3791 136.939L90.6104 137.173L92.1344 83.6702Z" fill="#E25B00"/>
<path fill-rule="evenodd" clip-rule="evenodd" d="M48.1523 37.1094L55.0117 37.3048L54.8164 44.1642L47.957 43.9688L48.1523 37.1094ZM54.8176 44.1633L61.677 44.3587L60.9736 69.0525L54.1142 68.8571L54.8176 44.1633ZM69.2025 69.288L60.9712 69.0536L58.8653 142.987L67.0965 143.221L69.2025 69.288Z" fill="#E25B00"/>
<path d="M31.6875 99.9082L52.692 97.942L53.4908 106.475L61.3675 105.738L62.0434 112.958L68.6073 112.344L69.2217 118.908L77.0984 118.17L77.7128 124.734L84.2768 124.12L85.0141 131.996L99.4547 130.645L100.131 137.865L114.571 136.513L115.37 145.046L150.815 141.728L149.955 132.539L164.395 131.187L163.781 124.623L178.222 123.271L177.484 115.395L185.361 114.657L184.747 108.093L191.31 107.479L190.696 100.915L198.573 100.178L197.835 92.3011L204.399 91.6866L203.662 83.8099L224.666 81.8437L231.425 154.047L38.4463 172.111L31.6875 99.9082Z" fill="#DC4200"/>
<path d="M43.6975 171.62L226.174 154.538L230.967 205.737L48.4901 222.818L43.6975 171.62Z" fill="#DC4200"/>
<path d="M58.9923 221.835L220.465 206.72L225.503 260.544L64.0307 275.659L58.9923 221.835Z" fill="#DC4200"/>
<path d="M64.0307 275.659L111.291 271.235L112.151 280.425L106.9 280.916L107.76 290.106L71.0023 293.547L70.1421 284.357L64.8909 284.849L64.0307 275.659Z" fill="#DC4200"/>
<path d="M178.243 264.968L225.503 260.544L226.363 269.733L221.112 270.225L221.972 279.414L185.214 282.855L184.354 273.666L179.103 274.157L178.243 264.968Z" fill="#DC4200"/>
<path d="M114.137 238.211L136.312 232.269L122.288 179.93L100.113 185.872L114.137 238.211Z" fill="#FFC700"/>
<path d="M128.177 246.259L139.264 243.288L119.335 168.912L108.248 171.882L128.177 246.259Z" fill="#FFC700"/>
<path d="M125.225 235.24L128.177 246.259L169.754 235.118L166.801 224.1L125.225 235.24Z" fill="#FFC700"/>
<path d="M152.762 216.052L155.714 227.07L177.888 221.129L174.936 210.11L152.762 216.052Z" fill="#FFC700"/>
<path d="M141.69 174.731L144.642 185.75L166.817 179.809L163.864 168.79L141.69 174.731Z" fill="#FFC700"/>
<path d="M108.248 171.882L111.2 182.901L152.777 171.761L149.825 160.742L108.248 171.882Z" fill="#FFC700"/>
<path d="M186.244 4.84911L176.546 6.24434L179.075 23.8223L188.773 22.4271L186.244 4.84911Z" fill="#FFC700"/>
<path d="M176.546 6.24434L171.697 6.94195L174.226 24.52L179.075 23.8223L176.546 6.24434Z" fill="#E25B00"/>
<path d="M185.547 0L175.849 1.39523L176.546 6.24434L186.244 4.84911L185.547 0Z" fill="#E25B00"/>
<path d="M183.924 23.1247L179.075 23.8223L179.773 28.6714L184.622 27.9738L183.924 23.1247Z" fill="#E25B00"/>
<path d="M5.32411 85.2262L12.278 83.3629L7.87999 66.9495L0.926151 68.8128L5.32411 85.2262Z" fill="#FFC700"/>
<path d="M9.72692 87.75L13.2038 86.8184L6.9541 63.494L3.47718 64.4257L9.72692 87.75Z" fill="#FFC700"/>
<path d="M8.80103 84.2945L9.72692 87.75L22.7654 84.2564L21.8395 80.8009L8.80103 84.2945Z" fill="#FFC700"/>
<path d="M17.4367 78.2771L18.3626 81.7325L25.3164 79.8693L24.3905 76.4138L17.4367 78.2771Z" fill="#FFC700"/>
<path d="M13.9646 65.3191L14.8905 68.7746L21.8443 66.9113L20.9184 63.4559L13.9646 65.3191Z" fill="#FFC700"/>
<path d="M3.47718 64.4257L4.40307 67.8811L17.4415 64.3875L16.5156 60.932L3.47718 64.4257Z" fill="#FFC700"/>
<path d="M224.902 44.3314L233.016 49.1176L244.313 29.9662L236.199 25.1799L224.902 44.3314Z" fill="#FFC700"/>
<path d="M226.58 50.7564L230.637 53.1495L246.691 25.9343L242.634 23.5411L226.58 50.7564Z" fill="#FFC700"/>
<path d="M228.959 46.7245L226.58 50.7564L241.794 59.7306L244.172 55.6987L228.959 46.7245Z" fill="#FFC700"/>
<path d="M242.494 49.2737L240.115 53.3056L248.229 58.0918L250.607 54.0599L242.494 49.2737Z" fill="#FFC700"/>
<path d="M251.412 34.1541L249.034 38.186L257.148 42.9722L259.526 38.9403L251.412 34.1541Z" fill="#FFC700"/>
<path d="M242.634 23.5411L240.256 27.573L255.469 36.5472L257.848 32.5153L242.634 23.5411Z" fill="#FFC700"/>
<path d="M16.0247 110.769L19.0515 108.26L13.1291 101.116L10.1023 103.625L16.0247 110.769Z" fill="#FFC700"/>
<path d="M18.7849 111.019L20.2983 109.764L11.8823 99.6119L10.3689 100.866L18.7849 111.019Z" fill="#FFC700"/>
<path d="M17.5381 109.515L18.7849 111.019L24.4601 106.314L23.2133 104.81L17.5381 109.515Z" fill="#FFC700"/>
<path d="M20.4531 104.561L21.6999 106.065L24.7267 103.556L23.4799 102.052L20.4531 104.561Z" fill="#FFC700"/>
<path d="M15.7775 98.9205L17.0244 100.425L20.0511 97.9155L18.8043 96.4114L15.7775 98.9205Z" fill="#FFC700"/>
<path d="M10.3689 100.866L11.6157 102.371L17.2909 97.666L16.0441 96.1619L10.3689 100.866Z" fill="#FFC700"/>
</svg>
