<svg width="23" height="22" viewBox="0 0 23 22" fill="none" xmlns="http://www.w3.org/2000/svg">
<g clip-path="url(#clip0_12503_77648)">
<path fill-rule="evenodd" clip-rule="evenodd" d="M11.8835 0.549805C9.28842 0.551151 6.7784 1.47029 4.80231 3.14286C2.82621 4.81543 1.51288 7.13238 1.09716 9.67939C0.681434 12.2264 1.19042 14.8374 2.53312 17.0455C3.87581 19.2537 5.96466 20.9149 8.42614 21.7322C8.96918 21.833 9.17373 21.4964 9.17373 21.2103C9.17373 20.9241 9.16287 20.0944 9.15925 19.1872C6.1182 19.8442 5.47561 17.9039 5.47561 17.9039C4.97963 16.644 4.26281 16.3129 4.26281 16.3129C3.27085 15.6397 4.33703 15.6523 4.33703 15.6523C5.43579 15.7297 6.01323 16.7736 6.01323 16.7736C6.98708 18.4349 8.57095 17.9543 9.19364 17.6736C9.29139 16.9698 9.57558 16.4911 9.88874 16.2193C7.45953 15.9457 4.90722 15.0134 4.90722 10.8485C4.89216 9.7684 5.29527 8.72385 6.03313 7.93098C5.92091 7.65741 5.5462 6.5523 6.13993 5.05123C6.13993 5.05123 7.05768 4.75965 9.14658 6.16533C10.9383 5.67814 12.8287 5.67814 14.6205 6.16533C16.7076 4.75965 17.6235 5.05123 17.6235 5.05123C18.219 6.5487 17.8443 7.65381 17.7321 7.93098C18.4723 8.72398 18.8762 9.77035 18.8598 10.8521C18.8598 15.026 16.3021 15.9457 13.8692 16.2139C14.2602 16.5523 14.6096 17.2128 14.6096 18.2279C14.6096 19.6822 14.5969 20.8521 14.5969 21.2103C14.5969 21.5 14.7942 21.8384 15.3481 21.7322C17.8099 20.9148 19.899 19.2533 21.2416 17.0448C22.5843 14.8363 23.093 12.2249 22.6768 9.67762C22.2606 7.13036 20.9466 4.8134 18.9699 3.14111C16.9931 1.46883 14.4825 0.550298 11.8871 0.549805H11.8835Z" fill="#FFFBF6"/>
<path d="M5.09163 16.1565C5.0681 16.2105 4.98121 16.2267 4.91061 16.1889C4.84002 16.1511 4.78753 16.0809 4.81287 16.0251C4.83821 15.9694 4.92329 15.955 4.99388 15.9928C5.06448 16.0305 5.11878 16.1025 5.09163 16.1565Z" fill="#FFFBF6"/>
<path d="M5.5351 16.648C5.49761 16.6668 5.45472 16.672 5.41378 16.6628C5.37283 16.6536 5.33638 16.6306 5.31064 16.5976C5.24005 16.522 5.22556 16.4176 5.27986 16.3708C5.33417 16.324 5.43192 16.3456 5.50252 16.4212C5.57311 16.4968 5.5894 16.6012 5.5351 16.648Z" fill="#FFFBF6"/>
<path d="M5.96591 17.2722C5.89893 17.319 5.78489 17.2722 5.72153 17.1787C5.70401 17.1619 5.69008 17.1417 5.68057 17.1195C5.67105 17.0972 5.66614 17.0733 5.66614 17.0491C5.66614 17.0249 5.67105 17.0009 5.68057 16.9787C5.69008 16.9564 5.70401 16.9363 5.72153 16.9195C5.78851 16.8745 5.90255 16.9195 5.96591 17.0113C6.02926 17.1031 6.03107 17.2254 5.96591 17.2722Z" fill="#FFFBF6"/>
<path d="M6.55061 17.8769C6.49087 17.9435 6.36959 17.9255 6.27004 17.8355C6.17048 17.7455 6.14694 17.6231 6.20667 17.5584C6.26641 17.4936 6.38769 17.5116 6.49087 17.5998C6.59405 17.6879 6.61396 17.8121 6.55061 17.8769Z" fill="#FFFBF6"/>
<path d="M7.37057 18.2298C7.34342 18.3144 7.22032 18.3522 7.09723 18.3162C6.97414 18.2802 6.89269 18.1794 6.91622 18.093C6.93975 18.0066 7.06465 17.967 7.18955 18.0066C7.31445 18.0462 7.3941 18.1416 7.37057 18.2298Z" fill="#FFFBF6"/>
<path d="M8.26484 18.2907C8.26484 18.3789 8.16348 18.4545 8.03315 18.4563C7.90282 18.4581 7.79602 18.3861 7.79602 18.2979C7.79602 18.2098 7.89738 18.1342 8.02771 18.1324C8.15804 18.1306 8.26484 18.2008 8.26484 18.2907Z" fill="#FFFBF6"/>
<path d="M9.09741 18.1526C9.11371 18.2408 9.0232 18.3326 8.89287 18.3542C8.76254 18.3758 8.6485 18.3236 8.63221 18.2372C8.61592 18.1508 8.71004 18.0572 8.83675 18.0338C8.96346 18.0104 9.08112 18.0644 9.09741 18.1526Z" fill="#FFFBF6"/>
</g>
<defs>
<clipPath id="clip0_12503_77648">
<rect x="0.88739" width="22" height="22" rx="2.75" fill="white"/>
</clipPath>
</defs>
</svg>
