<svg width="36" height="36" viewBox="0 0 36 36" fill="none" xmlns="http://www.w3.org/2000/svg">
<path fill-rule="evenodd" clip-rule="evenodd" d="M17.9934 0.899902C13.7469 0.902106 9.63962 2.40615 6.406 5.14308C3.17239 7.88002 1.0233 11.6714 0.343031 15.8392C-0.337241 20.0071 0.495648 24.2796 2.69279 27.8929C4.88993 31.5062 8.30803 34.2246 12.3359 35.562C13.2245 35.727 13.5592 35.1762 13.5592 34.7079C13.5592 34.2396 13.5415 32.8819 13.5355 31.3975C8.55929 32.4725 7.50777 29.2976 7.50777 29.2976C6.69617 27.2359 5.52319 26.694 5.52319 26.694C3.89999 25.5925 5.64464 25.6131 5.64464 25.6131C7.44261 25.7398 8.38751 27.448 8.38751 27.448C9.98109 30.1664 12.5729 29.38 13.5918 28.9206C13.7518 27.769 14.2168 26.9856 14.7293 26.5409C10.7542 26.0932 6.57768 24.5676 6.57768 17.7524C6.55304 15.9849 7.21268 14.2756 8.42009 12.9782C8.23644 12.5305 7.62329 10.7222 8.59484 8.26587C8.59484 8.26587 10.0966 7.78874 13.5148 10.0889C16.4467 9.29172 19.5401 9.29172 22.4721 10.0889C25.8873 7.78874 27.3861 8.26587 27.3861 8.26587C28.3606 10.7163 27.7475 12.5246 27.5638 12.9782C28.7751 14.2758 29.4361 15.9881 29.4092 17.7583C29.4092 24.5882 25.2238 26.0932 21.2428 26.532C21.8826 27.0857 22.4543 28.1666 22.4543 29.8277C22.4543 32.2074 22.4336 34.1218 22.4336 34.7079C22.4336 35.1821 22.7564 35.7358 23.6628 35.562C27.6912 34.2244 31.1096 31.5056 33.3067 27.8917C35.5038 24.2778 36.3363 20.0046 35.6552 15.8363C34.9742 11.6681 32.824 7.87669 29.5893 5.14022C26.3546 2.40376 22.2464 0.900709 17.9994 0.899902H17.9934Z" fill="#1A1918"/>
<path d="M6.87952 26.438C6.84102 26.5264 6.69884 26.5529 6.58332 26.491C6.4678 26.4292 6.38191 26.3143 6.42337 26.223C6.46484 26.1317 6.60406 26.1081 6.71958 26.17C6.8351 26.2318 6.92395 26.3496 6.87952 26.438Z" fill="#1A1918"/>
<path d="M7.60529 27.2419C7.54394 27.2726 7.47376 27.2812 7.40676 27.2662C7.33976 27.2511 7.28011 27.2134 7.238 27.1594C7.12248 27.0357 7.09877 26.8649 7.18763 26.7883C7.27649 26.7118 7.43645 26.7471 7.55197 26.8708C7.66749 26.9945 7.69415 27.1653 7.60529 27.2419Z" fill="#1A1918"/>
<path d="M8.31012 28.2638C8.20052 28.3404 8.0139 28.2638 7.91023 28.1107C7.88156 28.0832 7.85877 28.0502 7.84319 28.0138C7.82762 27.9774 7.81958 27.9382 7.81958 27.8986C7.81958 27.859 7.82762 27.8198 7.84319 27.7834C7.85877 27.747 7.88156 27.714 7.91023 27.6865C8.01982 27.6129 8.20644 27.6865 8.31012 27.8367C8.41379 27.987 8.41675 28.1872 8.31012 28.2638Z" fill="#1A1918"/>
<path d="M9.26682 29.2533C9.16908 29.3623 8.97062 29.3328 8.80771 29.1855C8.6448 29.0383 8.60628 28.838 8.70403 28.732C8.80178 28.626 9.00024 28.6554 9.16907 28.7997C9.33791 28.944 9.3705 29.1473 9.26682 29.2533Z" fill="#1A1918"/>
<path d="M10.6086 29.8308C10.5641 29.9693 10.3627 30.0311 10.1613 29.9722C9.95987 29.9133 9.82658 29.7484 9.86509 29.607C9.90359 29.4656 10.108 29.4008 10.3124 29.4656C10.5167 29.5304 10.6471 29.6865 10.6086 29.8308Z" fill="#1A1918"/>
<path d="M12.072 29.9309C12.072 30.0752 11.9061 30.1989 11.6928 30.2018C11.4796 30.2048 11.3048 30.087 11.3048 29.9426C11.3048 29.7983 11.4707 29.6746 11.6839 29.6717C11.8972 29.6687 12.072 29.7836 12.072 29.9309Z" fill="#1A1918"/>
<path d="M13.4345 29.7043C13.4611 29.8486 13.313 29.9988 13.0998 30.0342C12.8865 30.0695 12.6999 29.9841 12.6732 29.8427C12.6466 29.7014 12.8006 29.5482 13.0079 29.5099C13.2153 29.4716 13.4078 29.56 13.4345 29.7043Z" fill="#1A1918"/>
</svg>
