<svg width="86" height="101" viewBox="0 0 86 101" fill="none" xmlns="http://www.w3.org/2000/svg">
<path d="M65.101 43.4993H17.2875V37.4907H68.9567V43.3302H72.7304V67.179H68.9567V74.6212H65.101V78.5115L60.0705 78.5115V74.6213H63.516V67.179L65.101 67.179V43.4993ZM8.75562 91.9236H23.4402V68.1093H19.8306V64.3037H27.1319V68.1093H30.8235V91.9236H42.6297V66.4179H39.0201V62.6122H46.2393V66.4179H49.8489V91.9236H76.6694V96.8791H8.75562V91.9236Z" fill="#F86C14"/>
<path fill-rule="evenodd" clip-rule="evenodd" d="M65.101 43.4993H17.2875V37.4907H68.9567V43.3302H72.7304V67.179H68.9567V74.6212H65.101V78.5115L60.0705 78.5115V74.6213H63.516V67.179L65.101 67.179V43.4993ZM61.1102 47.516H13.2967L9.25447 42.029L13.2967 33.474H43.1221L69.1162 27.9711L72.7304 33.474L76.7212 39.3135V71.1957H72.9475V78.6379H69.0918V82.5282L57.6427 82.5282L53.8397 77.9195V74.1935L56.0797 70.6046H59.5252V63.1624H61.1102V47.516ZM4.76484 87.907H19.4494V72.126H15.8398V60.287L27.1319 54.4437L29.7304 58.4396H30.7287L34.8143 64.0926V87.907H38.6389V70.4346H36.0279V58.5956L46.2077 52.9453L48.7043 56.4417H49.8489L53.8397 62.4012V87.907H67.2499L76.6654 81.9154L80.6602 87.907V100.896H4.76484L0.77002 94.9019L4.76484 87.907ZM49.8489 91.9236V66.4179H46.2393V62.6122H39.0201V66.4179H42.6297V91.9236H30.8235V68.1093H27.1319V64.3037H19.8306V68.1093H23.4402V91.9236H8.75562V96.8791H76.6694V91.9236H49.8489Z" fill="#F86C14"/>
<path d="M61.1623 37.9445H13.3043V31.967H65.0216V37.7762H68.7988V61.5015H65.0216V68.9052H61.1623V72.7753L56.1271 72.7753V68.9052H59.5759V61.5015L61.1623 61.5015V37.9445ZM4.76451 86.1179H19.4628V62.427H15.8498V58.641H23.1579V62.427H26.8529V86.1179H38.6701V60.7444H35.0571V56.9584H42.283V60.7444H45.896V86.1179H72.7415V91.0477H4.76451V86.1179Z" fill="#FFC700"/>
<path fill-rule="evenodd" clip-rule="evenodd" d="M61.1623 37.9445H13.3043V31.967H65.0216V37.7762H68.7988V61.5015H65.0216V68.9052H61.1623V72.7753L56.1271 72.7753V68.9052H59.5759V61.5015L61.1623 61.5015V37.9445ZM57.1678 42.2283H9.25832V27.9711L69.0161 27.9711V33.7804H72.7933V65.4974H69.0161V72.9011H65.1568V76.7711L52.1326 76.7711V64.9093H55.5814V57.5057L57.1678 57.5057V42.2283ZM0.77002 82.1221H15.4683V66.4229H11.8553V54.6452H27.0336V58.4396H30.7287L30.8474 82.1221H35.6742V64.7402H33.0598V53.217H46.2775V56.7134H48.8919V82.1871H76.6654V95.1736H0.77002V82.1221ZM45.896 86.1179V60.7444H42.283V56.9584H35.0571V60.7444H38.6701V86.1179H26.8529V62.427H23.1579V58.641H15.8498V62.427H19.4628V86.1179H4.76451V91.0477H72.7415V86.1179H45.896Z" fill="#FFC700"/>
<path d="M10.7562 21.9773H31.5275H41.9132H62.6846V24.9742H10.7562L9.75757 22.9763L10.7562 21.9773Z" fill="#F86C14"/>
<path d="M69.6749 21.9773H70.6736V22.9763H69.6749V23.9752H68.6763V24.9742H62.6846V18.9804H63.6832V17.9814H64.6818V16.9825H65.6804V17.9814H66.6791V18.9804H67.6777V19.9794H68.6763V20.9783H69.6749V21.9773Z" fill="#F86C14"/>
<path d="M78.6627 11.9876H79.6613V13.9855H78.6627V14.9845H77.6641V15.9835H76.6654V16.9824H75.6668V17.9814H74.6682V18.9804H73.6696V19.9793H72.6709V20.9783H71.6723V19.9793H70.6737V18.9804H69.6751V17.9814H68.6764V16.9824H67.6778V15.9835H66.6792V14.9845H67.6778V13.9855H68.6764V12.9866H69.6751V11.9876H70.6737V10.9886H71.6723V9.98967H72.6709V8.9907H73.6696V7.99173H75.6668V8.9907H76.6654V9.98967H77.6641V10.9886H78.6627V11.9876Z" fill="#F86C14"/>
<path d="M84.6543 5.99379V8.99069H83.6556V9.98966H82.657V10.9886H80.6598V9.98966H79.6612V8.99069H78.6625V7.99173H77.6639V6.99276H76.6653V4.99482H77.6639V3.99586H78.6625V2.99689H81.6584V3.99586H82.657V4.99482H83.6556V5.99379H84.6543Z" fill="#F86C14"/>
<path d="M68.6762 19.9794H69.6748V20.9783H68.6762V21.9773H67.6775V22.9763H61.6858V16.9825H62.6844V15.9835H63.683V14.9845H64.6817V15.9835H65.6803V16.9825H66.6789V17.9814H67.6775V18.9804H68.6762V19.9794Z" fill="#FFC700"/>
<path d="M77.6639 9.98968H78.6625V11.9876H77.6639V12.9866H76.6653V13.9855H75.6667V14.9845H74.668V15.9835H73.6694V16.9825H72.6708V17.9814H71.6722V18.9804H70.6735V17.9814H69.6749V16.9825H68.6763V15.9835H67.6777V14.9845H66.679V13.9855H65.6804V12.9866H66.679V11.9876H67.6777V10.9886H68.6763V9.98968H69.6749V8.99071H70.6735V7.99174H71.6722V6.99277H72.6708V5.9938H74.668V6.99277H75.6667V7.99174H76.6653V8.99071H77.6639V9.98968Z" fill="#FFC700"/>
<path d="M83.6555 3.99587V6.99277H82.6569V7.99174H81.6582V8.99071H79.661V7.99174H78.6624V6.99277H77.6638V5.9938H76.6651V4.99483H75.6665V2.9969H76.6651V1.99793H77.6638V0.998962H80.6596V1.99793H81.6582V2.9969H82.6569V3.99587H83.6555Z" fill="#FFC700"/>
<path d="M9.75757 19.9794H30.5289H40.9146H61.686V22.9763H9.75757V19.9794Z" fill="#FFC700"/>
</svg>
