<svg width="40" height="41" viewBox="0 0 40 41" fill="none" xmlns="http://www.w3.org/2000/svg">
<g clip-path="url(#clip0_10340_28260)">
<circle cx="20" cy="20.5" r="20" fill="#235DD1"/>
<path d="M26 12.5V10.5H14V12.5H9V17.5H10V19.5H11V20.5H12V21.5H13V22.5H14V23.5H17V24.5H19V27.5H15V30.5H25V27.5H21V24.5H23V23.5H26V22.5H27V21.5H28V20.5H29V19.5H30V17.5H31V12.5H26ZM16 21.5H14V20.5H13V19.5H12V17.5H11V14.5H13V15.5H14V17.5H15V20.5H16V21.5ZM16 17.5V12.5H24V17.5H23V20.5H22V22.5H18V20.5H17V17.5H16ZM28 17.5V19.5H27V20.5H26V21.5H24V20.5H25V18.5H26V15.5H27V14.5H29V17.5H28Z" fill="#1A1918"/>
</g>
<defs>
<clipPath id="clip0_10340_28260">
<rect width="40" height="40" fill="white" transform="translate(0 0.5)"/>
</clipPath>
</defs>
</svg>
