<svg xmlns="http://www.w3.org/2000/svg" width="147" height="32" viewBox="0 0 147 32" fill="none">
  <path d="M17.1946 11.7226H9.69064V20.4867H17.2039C17.2531 20.1076 17.3086 19.6867 17.3732 19.1942H23.845V17.4105L24.9219 19.1942V24.9911C24.5462 25.0388 24.0397 25.0956 23.5101 25.1642C23.4639 25.5881 23.4177 26.009 23.3623 26.5164C22.8788 26.5523 22.4447 26.5851 21.9582 26.6209C21.912 27.1343 21.8719 27.5582 21.8319 28H5.9988L5.53726 26.2018H2.92188L2.46034 24.7862V23.2217L1.38341 23.0726L0.921875 21.7316V8.80623H3.41831V5.78537H23.2976L23.845 5.49005L24.9219 7.27789V13.0376L17.4102 13.0748C17.3486 12.6838 17.2809 12.2659 17.1946 11.7256V11.7226Z" fill="#F86C14"/>
  <path d="M16.1177 9.93724H8.61371V18.7013H16.127C16.1762 18.3222 16.2317 17.9013 16.2963 17.4088H23.845V23.2057C23.4693 23.2535 22.9628 23.3102 22.4332 23.3789C22.387 23.8027 22.3408 24.2236 22.2854 24.7311C21.8019 24.7669 21.3678 24.7997 20.8812 24.8356C20.8351 25.349 20.8081 25.76 20.768 26.2018H5.53726L5.39015 24.7977L2.46034 24.7862V21.8806L0.921875 21.7316V7.02086C1.32217 6.95817 1.75326 6.88951 2.34139 6.79698V4H22.2207C22.2884 4.36417 22.3623 4.77909 22.4578 5.28954C22.8458 5.34924 23.3184 5.41491 23.845 5.49252V11.2522L16.3333 11.2895C16.2717 10.8984 16.2039 10.4805 16.1177 9.94022V9.93724Z" fill="#FFC700"/>
  <path d="M51.9219 25.0202L50.4592 25.1476L50.3521 26.5004L48.9968 26.6408L48.7879 28H31.4378L31.132 26.8075C31.132 26.8075 30.9854 26.2109 30.9792 26.2128H29.9091L29.4505 24.7221H28.3805L27.9219 23.2314L29.1451 16.1743V7.32834C29.5306 7.26264 29.9113 7.18798 30.4345 7.09839C30.4957 6.72212 30.563 6.30105 30.6425 5.79039H45.4556L49.17 4L50.3932 5.79039V6.98137H50.6987L51.9219 8.77176V25.0202ZM36.7708 11.7331V20.4949H44.2116V11.7331H36.7708Z" fill="#F86C14"/>
  <path d="M50.6987 23.2298L49.236 23.3572L49.1289 24.71L47.7736 24.8504L47.5594 26.1942L30.9792 26.2112C30.8966 25.8289 30.8328 25.358 30.7258 24.8593C30.325 24.8175 29.9339 24.7758 29.4505 24.7221C29.3832 24.3159 29.3153 23.8947 29.2327 23.3871L27.9219 23.2298V5.53795C28.3074 5.47225 28.6881 5.39759 29.2113 5.308C29.2725 4.93173 29.3398 4.51066 29.4193 4H49.17V6.73844L50.6987 6.98137V23.2298ZM35.5476 9.94274V18.7046H42.9884V9.94274H35.5476Z" fill="#FFC700"/>
  <path d="M72.9219 25.9622V32H63.0757L62.6142 30.1888H61.5373L61.0757 28.5284H59.9988L59.5373 27.019V15.2453H57.0757L56.768 14.1887L56.6142 13.585H55.5373L54.9219 11.9246L56.1526 11.6226V9.50934H60.6144V1.8112H64.4604L67.0757 0L68.3065 1.8112V7.69815H71.6911L72.9219 9.50934V15.2614H68.4756L68.4603 25.9622H70.6911L71.6911 24.151L72.9219 25.9622Z" fill="#F86C14"/>
  <path d="M71.6911 24.151V30.1888H62.6142L62.4505 28.6482C61.9763 28.6119 61.5468 28.5647 61.0757 28.5284C61.0203 28.0567 60.9694 27.6776 60.914 27.2028C60.4983 27.1393 60.1285 27.1067 59.5373 27.019V13.585H56.6142L56.2767 12.0985C55.8795 12.0381 55.4423 12.0032 54.9219 11.9246V7.69815H59.3836V0H67.0757V7.69815H71.6911V13.4502H67.2448L67.2296 24.151H71.6911Z" fill="#FFC700"/>
  <path d="M99.9219 23.6797C99.4844 23.7185 99.0208 23.7543 98.4946 23.7991V26.5138H95.4931C95.4289 27.0782 95.383 27.4993 95.3279 27.986L79.5907 28L79.1321 26.2105H77.9091L77.4505 24.7207H76.3805L75.9219 23.2301L77.1448 20.7786V16.3873L78.5206 16.224L78.6735 14.8824H90.597L90.9028 13.3918L92.2786 13.2427V11.9012H84.7881L84.6353 13.2459H76.3805L75.9219 11.305L77.1448 8.96961C77.5517 8.89197 78.0351 8.80537 78.595 8.70085V5.93861L93.4509 6.00501L97.1703 4.00087L98.3932 6.08776V6.98214H98.6989L99.9219 8.91885V23.6797ZM84.7785 22.1447H92.2775V19.3437H84.7785V22.1447Z" fill="#F86C14"/>
  <path d="M98.6989 21.741C98.2614 21.7799 97.7979 21.8157 97.2717 21.8605V24.7243H94.2702L94.105 26.2105H79.1321L78.8263 24.8689L77.4505 24.7207L77.2977 23.3782L75.9219 23.2312V14.4487L77.2977 14.2854L77.4505 12.9438H89.3741L89.6798 11.4532L91.0556 11.3041V9.96254H83.5652L83.4123 11.3072H75.9219V7.031C76.3288 6.95336 76.8122 6.86676 77.3721 6.76224V4.00087L97.1799 4V6.74432C97.7031 6.82794 98.1727 6.89662 98.6989 6.98023V21.741ZM83.5555 20.2061H91.0546V17.4051H83.5555V20.2061Z" fill="#FFC700"/>
  <path d="M119.922 25.9622V32H110.623L110.187 30.1888H109.17L108.734 28.5284H107.717L107.281 27.019V15.2453H104.956L104.665 14.1887L104.52 13.585H103.503L102.922 11.9246L104.084 11.6226V9.50934H108.298V1.8112H111.931L114.401 0L115.563 1.8112V7.69815H118.759L119.922 9.50934V15.2614H115.723L115.708 25.9622H117.815L118.759 24.151L119.922 25.9622Z" fill="#F86C14"/>
  <path d="M118.759 24.151V30.1888H110.187L110.032 28.6482C109.584 28.6119 109.179 28.5647 108.734 28.5284C108.681 28.0567 108.633 27.6776 108.581 27.2028C108.188 27.1393 107.839 27.1067 107.281 27.019V13.585H104.52L104.201 12.0985C103.826 12.0381 103.413 12.0032 102.922 11.9246V7.69815H107.136V0H114.401V7.69815H118.759V13.4502H114.56L114.546 24.151H118.759Z" fill="#FFC700"/>
  <path d="M146.922 25.0202L145.459 25.1476L145.352 26.5004L143.997 26.6408L143.788 28H126.438L126.132 26.8075C126.132 26.8075 125.985 26.2109 125.979 26.2128H124.909L124.451 24.7221H123.38L122.922 23.2314L124.145 16.1743V7.32834C124.531 7.26264 124.911 7.18798 125.434 7.09839C125.496 6.72212 125.563 6.30105 125.643 5.79039H140.456L144.17 4L145.393 5.79039V6.98137H145.699L146.922 8.77176V25.0202ZM131.771 11.7331V20.4949H139.212V11.7331H131.771Z" fill="#F86C14"/>
  <path d="M145.699 23.2298L144.236 23.3572L144.129 24.71L142.774 24.8504L142.559 26.1942L125.979 26.2112C125.897 25.8289 125.833 25.358 125.726 24.8593C125.325 24.8175 124.934 24.7758 124.451 24.7221C124.383 24.3159 124.315 23.8947 124.233 23.3871L122.922 23.2298V5.53795C123.307 5.47225 123.688 5.39759 124.211 5.308C124.272 4.93173 124.34 4.51066 124.419 4H144.17V6.73844L145.699 6.98137V23.2298ZM130.548 9.94274V18.7046H137.988V9.94274H130.548Z" fill="#FFC700"/>
</svg>