<svg xmlns="http://www.w3.org/2000/svg" width="85" height="44" viewBox="0 0 85 44" fill="none">
  <path d="M77.4032 38.4413V36.0056L7.59679 36.0056V38.4413L77.4032 38.4413Z" fill="#DFDDDA"/>
  <path d="M5.25691 36.0056H7.59679V33.5699H5.25691V36.0056Z" fill="#DFDDDA"/>
  <path d="M2.91703 33.5699H5.25691V31.1341H2.91703V33.5699Z" fill="#DFDDDA"/>
  <path d="M77.4032 36.0056L79.7431 36.0056V33.5699H77.4032V36.0056Z" fill="#DFDDDA"/>
  <path d="M79.7431 33.5699H82.083V31.1341H79.7431V33.5699Z" fill="#DFDDDA"/>
  <path d="M77.4032 40.8771V38.4413L7.59679 38.4413V40.8771H77.4032Z" fill="#6A6967"/>
  <path d="M5.25691 38.4413L7.59679 38.4413V36.0056H5.25691V38.4413Z" fill="#6A6967"/>
  <path d="M2.91703 36.0056H5.25691V33.5699H2.91703V36.0056Z" fill="#6A6967"/>
  <path d="M77.4032 38.4413H79.7431V36.0056L77.4032 36.0056V38.4413Z" fill="#6A6967"/>
  <path d="M79.7431 36.0056H82.083V33.5699H79.7431V36.0056Z" fill="#6A6967"/>
  <path d="M77.4032 43.3128V40.8771H7.59679L7.59679 43.3128L77.4032 43.3128Z" fill="#1A1918"/>
  <path d="M84.4228 7.58874H82.083V36.0056H84.4229L84.4228 7.58874Z" fill="#1A1918"/>
  <path d="M0.577151 7.58874H2.91703L2.91703 36.0056H0.577148L0.577151 7.58874Z" fill="#1A1918"/>
  <path d="M79.7431 7.58874H82.083V5.15301H79.7431V7.58874Z" fill="#1A1918"/>
  <path d="M79.7431 38.4413H82.083V36.0056H79.7431V38.4413Z" fill="#1A1918"/>
  <path d="M5.25691 38.4413H2.91703L2.91703 36.0056H5.25691V38.4413Z" fill="#1A1918"/>
  <path d="M77.4032 40.8771H79.7431V38.4413H77.4032V40.8771Z" fill="#1A1918"/>
  <path d="M7.59679 40.8771H5.25691L5.25691 38.4413L7.59679 38.4413V40.8771Z" fill="#1A1918"/>
  <path d="M2.91703 7.58874H5.25691V5.15301H2.91703L2.91703 7.58874Z" fill="#1A1918"/>
  <path d="M7.59679 31.5401H9.93667V29.1044H7.59679V31.5401Z" fill="#1A1918"/>
  <path d="M75.0633 0.6875V3.12323H9.93667V0.6875H75.0633Z" fill="#1A1918"/>
  <path d="M7.59679 5.55896V3.12323H9.93667V5.55896H7.59679Z" fill="#1A1918"/>
  <path d="M7.59679 5.55896V29.1044H5.25691V5.55896H7.59679Z" fill="#1A1918"/>
  <path d="M77.4032 5.55896V3.12323H75.0633V5.55896H77.4032Z" fill="#1A1918"/>
  <path d="M77.4032 29.1044H79.7431V5.55896H77.4032V29.1044Z" fill="#1A1918"/>
  <path d="M75.0633 31.5401V29.1044H77.4032V31.5401H75.0633Z" fill="#1A1918"/>
  <path d="M75.0633 31.5401H9.93667V33.9758H75.0633V31.5401Z" fill="#1A1918"/>
  <path d="M2.91703 7.58874H5.25691L5.25691 31.1341H2.91703L2.91703 7.58874Z" fill="#AAA9A6"/>
  <path d="M82.083 7.58874H79.7431V31.1341H82.083V7.58874Z" fill="#AAA9A6"/>
  <path d="M5.25691 29.1044H7.59679V31.5401H5.25691V29.1044Z" fill="#AAA9A6"/>
  <path d="M79.7431 29.1044H77.4032V31.5401H79.7431V29.1044Z" fill="#AAA9A6"/>
  <path d="M7.59679 33.9758H77.4032V36.0056L7.59679 36.0056V33.9758Z" fill="#AAA9A6"/>
  <path d="M5.25691 31.5401H9.93667V33.9758H5.25691V31.5401Z" fill="#AAA9A6"/>
  <path d="M79.7431 31.5401H75.0633V33.9758H79.7431V31.5401Z" fill="#AAA9A6"/>
  <path d="M75.0633 31.5401V29.1044H9.93667V31.5401H75.0633Z" fill="#FFDA58"/>
  <path d="M7.59679 29.1044H9.93667V26.6686H7.59679V29.1044Z" fill="#FFDA58"/>
  <path d="M75.0633 29.1044H77.4032V26.6686H75.0633V29.1044Z" fill="#FFDA58"/>
  <path d="M75.0633 3.12323V5.55896H9.93667V3.12323H75.0633Z" fill="#FFDA58"/>
  <path d="M7.59679 5.55896H9.93667V7.9947H7.59679V5.55896Z" fill="#FFDA58"/>
  <path d="M75.0633 5.55896H77.4032V7.9947H75.0633V5.55896Z" fill="#FFDA58"/>
  <path d="M7.59679 7.9947H9.93667V10.4304H7.59679V7.9947Z" fill="#FFFCF4"/>
  <path d="M7.59679 26.6686H9.93667V24.2329H7.59679V26.6686Z" fill="#FFFCF4"/>
  <path d="M77.4032 7.9947H75.0633V10.4304H77.4032V7.9947Z" fill="#FFFCF4"/>
  <path d="M77.4032 26.6686H75.0633V24.2329H77.4032V26.6686Z" fill="#FFFCF4"/>
  <path d="M9.93667 5.55896H12.2765V7.99469L9.93667 7.9947V5.55896Z" fill="#FFFCF4"/>
  <path d="M9.93667 29.1044H12.2765V26.6686H9.93667V29.1044Z" fill="#FFFCF4"/>
  <path d="M75.0633 5.55896H72.7234V7.99469L75.0633 7.9947V5.55896Z" fill="#FFFCF4"/>
  <path d="M75.0633 29.1044H72.7234V26.6686H75.0633V29.1044Z" fill="#FFFCF4"/>
  <path d="M9.93667 10.4304H7.59679V24.2329H9.93667V26.6686H12.2765V29.1044H72.7234V26.6686H75.0633V24.2329H77.4032V10.4304H75.0633V7.9947L72.7234 7.99469V5.55896H12.2765V7.99469L9.93667 7.9947V10.4304Z" fill="#FFA000"/>
  <path d="M56.9094 18.2816H52.9252V17.5583H52.1994V16.8992H51.4736V14.0378H52.1994V13.3948H52.9252V12.7196H54.1761V11.4336H55.6431V12.7196H56.9094V13.3948H57.6507V14.0378H58.3611V16.8992H57.6507V17.5583H56.9094V18.2816ZM52.9252 16.8992H53.651V17.5583H56.1682V16.8992H56.9094V14.0539H56.1682V13.3948H53.651V14.0539H52.9252V16.8992ZM53.9908 20.8376V20.1142H55.4578V20.8376H56.2454V23.5382H61.5422V22.8792H62.9321V23.5382H62.2526V24.2616H55.4733V23.5382H54.7011V20.8376H53.9908ZM60.3531 12.157V11.4336H61.7893V12.157H62.5151V19.7606H61.7893V20.4679H61.0481V12.157H60.3531Z" fill="#FAFAFA"/>
  <path fill-rule="evenodd" clip-rule="evenodd" d="M57.0945 18.476H52.7397V17.7527H52.0139V17.0936H51.2881V13.8464H52.0139V13.2034H52.7397V12.5282H53.9905V11.2422H55.8282V12.5282H57.0945V13.2034H57.8358V13.8464H58.5461V17.0936H57.8358V17.7527H57.0945V18.476ZM57.6505 16.9007H58.3608V14.0393H57.6505V13.3963H56.9092V12.7211H55.6429V11.4351H54.1759V12.7211H52.925V13.3963H52.1992V14.0393H51.4734V16.9007H52.1992V17.5598H52.925V18.2831H56.9092V17.5598H57.6505V16.9007ZM53.8361 16.7078V17.3669H55.9826V16.7078H56.7239V14.2483H55.9826V13.5892H53.8361V14.2483H53.1103V16.7078H53.8361ZM52.925 14.0554H53.6508V13.3963H56.168V14.0554H56.9092V16.9007H56.168V17.5598H53.6508V16.9007H52.925V14.0554ZM53.8052 21.032V19.9228H55.6429V20.6462H56.4305V23.3468H61.3567V22.6878H63.1171V23.7326H62.4377V24.456H55.2877V23.7326H54.5156V21.032H53.8052ZM54.7009 20.8391V23.5397H55.473V24.2631H62.2524V23.5397H62.9318V22.8807H61.542V23.5397H56.2452V20.8391H55.4576V20.1157H53.9905V20.8391H54.7009ZM60.1676 12.3514V11.2422H61.9744V11.9656H62.7002V19.955H61.9744V20.6623H60.8625V12.3514H60.1676ZM61.0478 12.1585V20.4694H61.7891V19.7621H62.5149V12.1585H61.7891V11.4351H60.3529V12.1585H61.0478Z" fill="#FAFAFA"/>
  <path d="M38.3394 12.9916V12.3164H46.1534V12.9594H46.9255V17.573H46.1534V18.9876H45.3658V19.7271H43.9142V18.9876H44.64V17.573H45.3658V12.9916H38.3394ZM36.7334 22.1384V21.4311H48.9022V22.1384H36.7334Z" fill="#FAFAFA"/>
  <path fill-rule="evenodd" clip-rule="evenodd" d="M38.1558 13.186V12.125H46.3404V12.768H47.1126V17.7674H46.3404V19.182H45.5529V19.9215H43.7306V18.7962H44.4564V17.3816H45.1822V13.186H38.1558ZM45.3676 12.9931V17.5745H44.6417V18.9891H43.9159V19.7286H45.3676V18.9891H46.1551V17.5745H46.9273V12.9609H46.1551V12.3179H38.3412V12.9931H45.3676ZM36.5498 22.3328V21.2397H49.0892V22.3328H36.5498ZM36.7351 22.1399H48.9039V21.4326H36.7351V22.1399Z" fill="#FAFAFA"/>
  <path d="M24.4665 18.9585V18.2672H23.7253V15.647H24.482V14.9718H30.7363V12.6088H24.065V11.9336H31.5238V12.5927H32.2805V14.9718H31.5238V15.647H25.2541V18.2672H31.74V17.5921H33.099V18.3155H32.4349V18.9585H24.4665ZM22.2119 22.7844V22.0771H27.586V20.4052H26.8756V19.6819H28.4044V20.4052H29.1457V22.0771H34.3807V22.7844H22.2119Z" fill="#FAFAFA"/>
  <path fill-rule="evenodd" clip-rule="evenodd" d="M24.281 19.1509V18.4597H23.5397V15.4536H24.2964V14.7785H30.5507V12.8012H23.8795V11.7402H31.7089V12.3993H32.4656V15.1643H31.7089V15.8394H25.4392V18.0739H31.5545V17.3987H33.2841V18.5079H32.62V19.1509H24.281ZM32.4347 18.315H33.0987V17.5916H31.7398V18.2668H25.2539V15.6465H31.5236V14.9714H32.2803V12.5922H31.5236V11.9331H24.0648V12.6083H30.736V14.9714H24.4817V15.6465H23.7251V18.2668H24.4663V18.958H32.4347V18.315ZM22.0264 22.9768V21.8837H27.4004V20.5977H26.69V19.4885H28.5895V20.2119H29.3307V21.8837H34.5658V22.9768H22.0264ZM29.1454 22.0766V20.4048H28.4042V19.6814H26.8754V20.4048H27.5857V22.0766H22.2117V22.7839H34.3805V22.0766H29.1454Z" fill="#FAFAFA"/>
</svg>