<svg width="710" height="126" viewBox="0 0 710 126" fill="none" xmlns="http://www.w3.org/2000/svg">
<g filter="url(#filter0_d_5928_149)">
<path fill-rule="evenodd" clip-rule="evenodd" d="M679.673 23H30.3257V27.1667H23.4184V73H30.3257V77.1667H334.707L352.181 103H357.818L375.291 77.1667H679.673V73H686.582V27.1667H679.673V23Z" fill="#FAFAFA"/>
<path fill-rule="evenodd" clip-rule="evenodd" d="M26.9004 20H683.098V24.1346H690V76.2308H683.098V80.3654H377.396L359.94 106H350.059L332.603 80.3654H26.9004V76.2308H20V24.1346H26.9004V20ZM334.728 77.0577L352.184 102.692H357.815L375.271 77.0577H679.345V72.9231H686.247V27.4423H679.345V23.3077H30.6539V27.4423H23.7535V72.9231H30.6539V77.0577H334.728Z" fill="#363532"/>
<path d="M55.2329 56.7V47.775H56.4579V46.65H57.6329V45.5H63.8329V46.65H65.0079V47.775H66.1579V50.275H63.8329V47.8H62.6579V46.65H58.8079V47.8H57.6329V56.7H58.8079V57.85H62.6579V56.7H63.8329V53.95H66.1579V56.7H65.0079V57.85H63.8329V59H57.6329V57.85H56.4579V56.7H55.2329ZM78.1425 56.7H76.9175V47.775H78.1425V46.65H79.3175V45.5H85.8675V46.65H87.0425V47.775H88.2675V56.7H87.0425V57.85H85.8675V59H79.3175V57.85H78.1425V56.7ZM79.3175 56.7H80.4925V57.85H84.6925V56.7H85.8675V47.8H84.6925V46.65H80.4925V47.8H79.3175V56.7ZM165.216 56.45H167.516V57.75H166.341V59H161.516V57.75H160.391V47.1H158.066V46H160.391V42H162.666V46H167.141V47.1H162.666V57.75H165.216V56.45ZM357.003 56.625V53.925H358.203V52.725H359.403V51.525H365.728V47.8H364.553V46.65H361.553V47.8H360.378V50.025H358.053V47.775H359.203V46.65H360.378V45.5H365.728V46.65H366.903V47.775H368.078V59H366.853V57.8H365.728V59H359.478V57.8H358.203V56.6L357.003 56.625ZM359.453 56.6H360.628V57.8H364.603V56.6H365.728V52.725H360.628V53.95H359.453V56.6ZM497.941 56.45H500.241V57.75H499.066V59H494.241V57.75H493.116V47.1H490.791V46H493.116V42H495.391V46H499.866V47.1H495.391V57.75H497.941V56.45ZM511.087 56.7H509.862V47.775H511.087V46.65H512.262V45.5H518.812V46.65H519.987V47.775H521.212V56.7H519.987V57.85H518.812V59H512.262V57.85H511.087V56.7ZM512.262 56.7H513.437V57.85H517.637V56.7H518.812V47.8H517.637V46.65H513.437V47.8H512.262V56.7Z" fill="#F86C14"/>
<path d="M99.0112 48.975H100.161V47.85H101.261V46.7H102.536V45.5H107.511V41.625H106.386V40.5H108.711V41.625H109.811V59H107.511V57.8H106.336V59H101.361V57.8H100.186V56.625H99.0112V48.975ZM101.361 56.6H102.511V57.8H105.186V56.6H106.336V55.4H107.511V46.7H103.736V47.85H102.536V49H101.361V56.6ZM123.468 56.7H124.643V57.85H128.443V56.7H129.618V54.45H131.943V56.7H130.793V57.85H129.618V59H123.468V57.85H122.293V56.7H121.068V47.775H122.293V46.65H123.468V45.5H129.618V46.65H130.793V47.775H131.943V52.1H123.468V56.7ZM123.468 50.9H129.618V47.8H128.443V46.65H124.643V47.8H123.468V50.9ZM178.362 56.7H177.137V47.775H178.362V46.65H179.537V45.5H186.087V46.65H187.262V47.775H188.487V56.7H187.262V57.85H186.087V59H179.537V57.85H178.362V56.7ZM179.537 56.7H180.712V57.85H184.912V56.7H186.087V47.8H184.912V46.65H180.712V47.8H179.537V56.7ZM198.731 48.975H199.881V47.85H200.981V46.7H202.256V45.5H209.981V61.2H208.856V62.35H207.731V63.5H201.381V62.35H200.206V61.2H198.981V59.65H201.381V61.2H202.556V62.35H206.556V61.2H207.731V56.175H206.556V57.375H201.081V56.175H199.906V55H198.731V48.975ZM201.081 54.975H202.231V56.175H205.406V54.975H206.556V53.775H207.731V46.7H203.456V47.85H202.256V49H201.081V54.975ZM223.639 56.7H224.814V57.85H228.614V56.7H229.789V54.45H232.114V56.7H230.964V57.85H229.789V59H223.639V57.85H222.464V56.7H221.239V47.775H222.464V46.65H223.639V45.5H229.789V46.65H230.964V47.775H232.114V52.1H223.639V56.7ZM223.639 50.9H229.789V47.8H228.614V46.65H224.814V47.8H223.639V50.9ZM249.147 56.45H251.447V57.75H250.272V59H245.447V57.75H244.322V47.1H241.997V46H244.322V42H246.597V46H251.072V47.1H246.597V57.75H249.147V56.45ZM271.568 47.875H272.743V59H270.393V47.9H269.243V46.7H267.368V47.9H266.218V49.1H265.043V50.3H263.868V59H261.568V41.625H260.443V40.5H262.768V41.625H263.868V47.9H265.018V46.7H266.218V45.5H270.393V46.7H271.568V47.875ZM286.153 56.7H287.328V57.85H291.128V56.7H292.303V54.45H294.628V56.7H293.478V57.85H292.303V59H286.153V57.85H284.978V56.7H283.753V47.775H284.978V46.65H286.153V45.5H292.303V46.65H293.478V47.775H294.628V52.1H286.153V56.7ZM286.153 50.9H292.303V47.8H291.128V46.65H287.328V47.8H286.153V50.9ZM304.636 46.675V45.5H306.961V46.675H308.111V47.975H309.261V46.7H310.461V45.5H314.011V46.7H315.211V48H312.861V46.7H311.611V47.975H310.461V49.175H309.286V50.375H308.111V59H305.761V46.675H304.636ZM325.429 62.1V60.6H326.929V58.25H325.429V55.625H328.229V60.975H326.929V62.1H325.429ZM378.215 46.675V45.5H380.54V46.675H381.69V47.975H382.84V46.7H384.04V45.5H387.59V46.7H388.79V48H386.44V46.7H385.19V47.975H384.04V49.175H382.865V50.375H381.69V59H379.34V46.675H378.215ZM397.458 46.675V45.5H399.783V46.675H400.933V47.975H402.083V46.7H403.283V45.5H406.833V46.7H408.033V48H405.683V46.7H404.433V47.975H403.283V49.175H402.108V50.375H400.933V59H398.583V46.675H397.458ZM417.827 43.125V40.5H420.477V43.125H417.827ZM417.977 59V45.75H420.327V59H417.977ZM431.717 54.375V45.5H434.067V54.375H435.317V56.025H436.567V57.675H437.942V56.025H439.192V54.375H440.442V45.5H442.792V54.375H441.667V56.025H440.417V57.675H439.217V59H435.292V57.675H434.117V56.025H432.842V54.375H431.717ZM456.192 56.7H457.367V57.85H461.167V56.7H462.342V54.45H464.667V56.7H463.517V57.85H462.342V59H456.192V57.85H455.017V56.7H453.792V47.775H455.017V46.65H456.192V45.5H462.342V46.65H463.517V47.775H464.667V52.1H456.192V56.7ZM456.192 50.9H462.342V47.8H461.167V46.65H457.367V47.8H456.192V50.9ZM531.456 48.975H532.606V47.85H533.706V46.7H534.981V45.5H542.706V61.2H541.581V62.35H540.456V63.5H534.106V62.35H532.931V61.2H531.706V59.65H534.106V61.2H535.281V62.35H539.281V61.2H540.456V56.175H539.281V57.375H533.806V56.175H532.631V55H531.456V48.975ZM533.806 54.975H534.956V56.175H538.131V54.975H539.281V53.775H540.456V46.7H536.181V47.85H534.981V49H533.806V54.975ZM556.363 56.7H557.538V57.85H561.338V56.7H562.513V54.45H564.838V56.7H563.688V57.85H562.513V59H556.363V57.85H555.188V56.7H553.963V47.775H555.188V46.65H556.363V45.5H562.513V46.65H563.688V47.775H564.838V52.1H556.363V56.7ZM556.363 50.9H562.513V47.8H561.338V46.65H557.538V47.8H556.363V50.9ZM581.871 56.45H584.171V57.75H582.996V59H578.171V57.75H577.046V47.1H574.721V46H577.046V42H579.321V46H583.796V47.1H579.321V57.75H581.871V56.45ZM604.292 47.875H605.467V59H603.117V47.9H601.967V46.7H600.092V47.9H598.942V49.1H597.767V50.3H596.592V59H594.292V41.625H593.167V40.5H595.492V41.625H596.592V47.9H597.742V46.7H598.942V45.5H603.117V46.7H604.292V47.875ZM618.878 56.7H620.053V57.85H623.853V56.7H625.028V54.45H627.353V56.7H626.203V57.85H625.028V59H618.878V57.85H617.703V56.7H616.478V47.775H617.703V46.65H618.878V45.5H625.028V46.65H626.203V47.775H627.353V52.1H618.878V56.7ZM618.878 50.9H625.028V47.8H623.853V46.65H620.053V47.8H618.878V50.9ZM637.361 46.675V45.5H639.686V46.675H640.836V47.975H641.986V46.7H643.186V45.5H646.736V46.7H647.936V48H645.586V46.7H644.336V47.975H643.186V49.175H642.011V50.375H640.836V59H638.486V46.675H637.361ZM660.779 40.525V53.25H658.479V40.5L660.779 40.525ZM658.304 59V56.375H660.954V59H658.304Z" fill="#363532"/>
</g>
<defs>
<filter id="filter0_d_5928_149" x="0" y="0" width="710" height="126" filterUnits="userSpaceOnUse" color-interpolation-filters="sRGB">
<feFlood flood-opacity="0" result="BackgroundImageFix"/>
<feColorMatrix in="SourceAlpha" type="matrix" values="0 0 0 0 0 0 0 0 0 0 0 0 0 0 0 0 0 0 127 0" result="hardAlpha"/>
<feOffset/>
<feGaussianBlur stdDeviation="10"/>
<feComposite in2="hardAlpha" operator="out"/>
<feColorMatrix type="matrix" values="0 0 0 0 1 0 0 0 0 0.913725 0 0 0 0 0.458824 0 0 0 1 0"/>
<feBlend mode="normal" in2="BackgroundImageFix" result="effect1_dropShadow_5928_149"/>
<feBlend mode="normal" in="SourceGraphic" in2="effect1_dropShadow_5928_149" result="shape"/>
</filter>
</defs>
</svg>
