<svg width="670" height="86" viewBox="0 0 670 86" fill="none" xmlns="http://www.w3.org/2000/svg">
<path fill-rule="evenodd" clip-rule="evenodd" d="M659.673 3H10.3257V7.16667H3.41837V53H10.3257V57.1667H314.707L332.181 83H337.818L355.291 57.1667H659.673V53H666.582V7.16667H659.673V3Z" fill="#FAFAFA"/>
<path fill-rule="evenodd" clip-rule="evenodd" d="M6.90036 0H663.098V4.13462H670V56.2308H663.098V60.3654H357.396L339.94 86H330.059L312.603 60.3654H6.90036V56.2308H0V4.13462H6.90036V0ZM314.728 57.0577L332.184 82.6923H337.815L355.271 57.0577H659.345V52.9231H666.247V7.44231H659.345V3.30769H10.6539V7.44231H3.7535V52.9231H10.6539V57.0577H314.728Z" fill="#363532"/>
</svg>
