<svg width="588" height="86" viewBox="0 0 588 86" fill="none" xmlns="http://www.w3.org/2000/svg">
<path fill-rule="evenodd" clip-rule="evenodd" d="M578.937 3H9.06196V7.16667H3V53H9.06196V57.1667H276.191L291.526 83H296.473L311.808 57.1667H578.937V53H585V7.16667H578.937V3Z" fill="#FAFAFA"/>
<path fill-rule="evenodd" clip-rule="evenodd" d="M6.05584 0H581.943V4.13462H588V56.2308H581.943V60.3654H313.655L298.335 86H289.664L274.344 60.3654H6.05584V56.2308H0V4.13462H6.05584V0ZM276.209 57.0577L291.529 82.6923H296.47L311.79 57.0577H578.649V52.9231H584.706V7.44231H578.649V3.30769H9.34995V7.44231H3.29412V52.9231H9.34995V57.0577H276.209Z" fill="#363532"/>
</svg>
