<svg xmlns="http://www.w3.org/2000/svg" width="13" height="12" viewBox="0 0 13 12" fill="none">
  <g clip-path="url(#clip0_10197_13734)">
    <path d="M12.0137 5.5V6H10.5137V11H10.0137V11.5H8.01367V8H5.01367V11.5H3.01367V11H2.51367V6H1.01367V5.5H1.51367V5H2.01367V4.5H2.51367V4H3.01367V3.5H3.51367V3H4.01367V2.5H4.51367V2H5.01367V1.5H5.51367V1H6.01367V0.5H7.01367V1H7.51367V1.5H8.01367V2H8.51367V2.5H9.01367V3H9.51367V3.5H10.0137V4H10.5137V4.5H11.0137V5H11.5137V5.5H12.0137Z" fill="#F7F4F0"/>
  </g>
  <defs>
    <clipPath id="clip0_10197_13734">
      <rect width="12" height="12" fill="white" transform="translate(0.513672)"/>
    </clipPath>
  </defs>
</svg>