<svg width="203" height="18" viewBox="0 0 203 18" fill="none" xmlns="http://www.w3.org/2000/svg">
<path d="M189.494 9.89953H188.534V2.85953H189.514V2.01953H199.374V2.85953H190.514V5.71953H199.174V6.55953H190.514V9.89953H198.874V9.05953H200.674V9.95953H199.774V10.7595H189.494V9.89953ZM186.574 15.5195V14.6395H193.534V12.5595H192.614V11.6595H194.594V12.5595H195.554V14.6395H202.334V15.5195H186.574Z" fill="CURRENT"/>
<path fill-rule="evenodd" clip-rule="evenodd" d="M189.264 1.76953H199.624V3.10953H190.764V5.46953H199.424V6.80953H190.764V9.64953H198.624V8.80953H200.924V10.2095H200.024V11.0095H189.244V10.1495H188.284V2.60953H189.264V1.76953ZM189.764 2.26953V3.10953H188.784V9.64953H189.744V10.5095H199.524V9.70953H200.424V9.30953H199.124V10.1495H190.264V6.30953H198.924V5.96953H190.264V2.60953H199.124V2.26953H189.764ZM192.364 11.4095H194.844V12.3095H195.804V14.3895H202.584V15.7695H186.324V14.3895H193.284V12.8095H192.364V11.4095ZM192.864 11.9095V12.3095H193.784V14.8895H186.824V15.2695H202.084V14.8895H195.304V12.8095H194.344V11.9095H192.864Z" fill="CURRENT"/>
<path d="M181.606 2.30039H182.546V16.3804H181.606V17.2604H180.646V2.30039H179.746V1.40039H181.606V2.30039ZM168.406 9.70039V5.38039H169.346V4.58039H170.326V3.74039H172.046V1.94039H173.946V3.74039H175.686V4.58039H176.686V5.38039H177.606V9.70039H176.686V10.5204H175.686V11.4004H170.326V10.5204H169.346V9.70039H168.406ZM170.326 9.70039H171.266V10.5204H174.726V9.70039H175.686V5.40039H174.726V4.58039H171.266V5.40039H170.326V9.70039Z" fill="CURRENT"/>
<path fill-rule="evenodd" clip-rule="evenodd" d="M179.496 1.15039H181.856V2.05039H182.796V16.6304H181.856V17.5104H180.396V2.55039H179.496V1.15039ZM179.996 1.65039V2.05039H180.896V17.0104H181.356V16.1304H182.296V2.55039H181.356V1.65039H179.996ZM171.796 1.69039H174.196V3.49039H175.936V4.33039H176.936V5.13039H177.856V9.95039H176.936V10.7704H175.936V11.6504H170.076V10.7704H169.096V9.95039H168.156V5.13039H169.096V4.33039H170.076V3.49039H171.796V1.69039ZM172.296 2.19039V3.99039H170.576V4.83039H169.596V5.63039H168.656V9.45039H169.596V10.2704H170.576V11.1504H175.436V10.2704H176.436V9.45039H177.356V5.63039H176.436V4.83039H175.436V3.99039H173.696V2.19039H172.296ZM171.016 4.33039H174.976V5.15039H175.936V9.95039H174.976V10.7704H171.016V9.95039H170.076V5.15039H171.016V4.33039ZM171.516 4.83039V5.65039H170.576V9.45039H171.516V10.2704H174.476V9.45039H175.436V5.65039H174.476V4.83039H171.516Z" fill="CURRENT"/>
<path d="M163.918 2.30039H164.858V16.3604H163.918V17.2404H162.958V2.30039H162.058V1.40039H163.918V2.30039ZM150.098 12.1404V3.20039H151.078V2.36039H156.318V3.20039H152.058V6.80039H156.218V7.64039H152.058V12.1404H155.998V11.3004H157.798V12.2004H156.898V13.0004H151.058V12.1404H150.098ZM157.098 7.70039V6.84039H159.578V2.70039H158.678V1.80039H160.478V2.70039H161.358V15.5404H160.478V16.4204H159.578V7.70039H157.098Z" fill="CURRENT"/>
<path fill-rule="evenodd" clip-rule="evenodd" d="M161.808 1.15039H164.168V2.05039H165.108V16.6104H164.168V17.4904H162.708V2.55039H161.808V1.15039ZM162.308 1.65039V2.05039H163.208V16.9904H163.668V16.1104H164.608V2.55039H163.668V1.65039H162.308ZM158.428 1.55039H160.728V2.45039H161.608V15.7904H160.728V16.6704H159.328V7.95039H156.848V6.59039H159.328V2.95039H158.428V1.55039ZM158.928 2.05039V2.45039H159.828V7.09039H157.348V7.45039H159.828V16.1704H160.228V15.2904H161.108V2.95039H160.228V2.05039H158.928ZM150.828 2.11039H156.568V3.45039H152.308V6.55039H156.468V7.89039H152.308V11.8904H155.748V11.0504H158.048V12.4504H157.148V13.2504H150.808V12.3904H149.848V2.95039H150.828V2.11039ZM151.328 2.61039V3.45039H150.348V11.8904H151.308V12.7504H156.648V11.9504H157.548V11.5504H156.248V12.3904H151.808V7.39039H155.968V7.05039H151.808V2.95039H156.068V2.61039H151.328Z" fill="CURRENT"/>
<path d="M143.389 9.01883V7.05883H133.329V6.21883H143.389V3.13883H133.629V2.29883H144.389V3.09883H145.349V9.01883H144.389V10.7788H143.389V11.6988H141.509V10.7788H142.449V9.01883H143.389ZM131.349 14.9188V14.0388H137.009V10.7588H136.089V9.85883H137.969V10.7588H138.929V14.0388H147.109V14.9188H131.349Z" fill="CURRENT"/>
<path fill-rule="evenodd" clip-rule="evenodd" d="M133.379 2.04883H144.639V2.84883H145.599V9.26883H144.639V11.0288H143.639V11.9488H141.259V10.5288H142.199V8.76883H143.139V7.30883H133.079V5.96883H143.139V3.38883H133.379V2.04883ZM133.879 2.54883V2.88883H143.639V6.46883H133.579V6.80883H143.639V9.26883H142.699V11.0288H141.759V11.4488H143.139V10.5288H144.139V8.76883H145.099V3.34883H144.139V2.54883H133.879ZM135.839 9.60883H138.219V10.5088H139.179V13.7888H147.359V15.1688H131.099V13.7888H136.759V11.0088H135.839V9.60883ZM136.339 10.1088V10.5088H137.259V14.2888H131.599V14.6688H146.859V14.2888H138.679V11.0088H137.719V10.1088H136.339Z" fill="CURRENT"/>
<path d="M117.728 2.30039V1.40039H119.588V2.30039H120.528V16.3604H119.588V17.2404H118.628V2.30039H117.728ZM106.888 12.1404V7.76039H107.868V6.92039H113.148V3.06039H107.168V2.22039H114.168V3.04039H115.148V6.94039H114.168V7.76039H108.868V12.1404H114.788V11.3004H116.588V12.2004H115.688V13.0004H107.848V12.1404H106.888Z" fill="CURRENT"/>
<path fill-rule="evenodd" clip-rule="evenodd" d="M117.478 1.15039H119.838V2.05039H120.778V16.6104H119.838V17.4904H118.378V2.55039H117.478V1.15039ZM117.978 1.65039V2.05039H118.878V16.9904H119.338V16.1104H120.278V2.55039H119.338V1.65039H117.978ZM106.918 1.97039H114.418V2.79039H115.398V7.19039H114.418V8.01039H109.118V11.8904H114.538V11.0504H116.838V12.4504H115.938V13.2504H107.598V12.3904H106.638V7.51039H107.618V6.67039H112.898V3.31039H106.918V1.97039ZM107.418 2.47039V2.81039H113.398V7.17039H108.118V8.01039H107.138V11.8904H108.098V12.7504H115.438V11.9504H116.338V11.5504H115.038V12.3904H108.618V7.51039H113.918V6.69039H114.898V3.29039H113.918V2.47039H107.418Z" fill="CURRENT"/>
<path d="M104.559 7.32039V8.20039H101.519V16.3604H100.579V17.2404H99.6195V2.30039H98.7195V1.40039H100.579V2.30039H101.519V7.32039H104.559ZM87.9795 9.70039V5.38039H88.9195V4.58039H89.8995V3.74039H91.4995V1.94039H93.3995V3.74039H94.9995V4.58039H95.9995V5.38039H96.9195V9.70039H95.9995V10.5204H94.9995V11.4004H89.8995V10.5204H88.9195V9.70039H87.9795ZM89.8995 9.70039H90.8395V10.5204H94.0395V9.70039H94.9995V5.40039H94.0395V4.58039H90.8395V5.40039H89.8995V9.70039Z" fill="CURRENT"/>
<path fill-rule="evenodd" clip-rule="evenodd" d="M98.4695 1.15039H100.829V2.05039H101.769V7.07039H104.809V8.45039H101.769V16.6104H100.829V17.4904H99.3695V2.55039H98.4695V1.15039ZM98.9695 1.65039V2.05039H99.8695V16.9904H100.329V16.1104H101.269V7.95039H104.309V7.57039H101.269V2.55039H100.329V1.65039H98.9695ZM91.2495 1.69039H93.6495V3.49039H95.2495V4.33039H96.2495V5.13039H97.1695V9.95039H96.2495V10.7704H95.2495V11.6504H89.6495V10.7704H88.6695V9.95039H87.7295V5.13039H88.6695V4.33039H89.6495V3.49039H91.2495V1.69039ZM91.7495 2.19039V3.99039H90.1495V4.83039H89.1695V5.63039H88.2295V9.45039H89.1695V10.2704H90.1495V11.1504H94.7495V10.2704H95.7495V9.45039H96.6695V5.63039H95.7495V4.83039H94.7495V3.99039H93.1495V2.19039H91.7495ZM90.5895 4.33039H94.2895V5.15039H95.2495V9.95039H94.2895V10.7704H90.5895V9.95039H89.6495V5.15039H90.5895V4.33039ZM91.0895 4.83039V5.65039H90.1495V9.45039H91.0895V10.2704H93.7895V9.45039H94.7495V5.65039H93.7895V4.83039H91.0895Z" fill="CURRENT"/>
<path d="M78.3303 9.37961H85.2903V10.2596H69.5303V9.37961H76.4903V7.07961H72.6703V6.21961H71.6703V2.43961H72.6903V1.59961H82.3303V2.49961H73.7303V6.19961H81.5903V5.35961H83.3903V6.25961H82.4903V7.07961H78.3303V9.37961ZM73.1103 15.9796V13.7396H74.0503V12.9396H74.9903V12.0596H79.8503V12.9396H80.8103V13.7396H81.7303V15.9796H80.8103V16.7996H79.8503V17.6796H74.9903V16.7996H74.0503V15.9796H73.1103ZM74.9903 15.9796H75.9303V16.7996H78.8903V15.9796H79.8503V13.7596H78.8903V12.9396H75.9303V13.7596H74.9903V15.9796Z" fill="CURRENT"/>
<path fill-rule="evenodd" clip-rule="evenodd" d="M72.4403 1.34961H82.5803V2.74961H73.9803V5.94961H81.3403V5.10961H83.6403V6.50961H82.7403V7.32961H78.5803V9.12961H85.5403V10.5096H69.2803V9.12961H76.2403V7.32961H72.4203V6.46961H71.4203V2.18961H72.4403V1.34961ZM72.9403 1.84961V2.68961H71.9203V5.96961H72.9203V6.82961H76.7403V9.62961H69.7803V10.0096H85.0403V9.62961H78.0803V6.82961H82.2403V6.00961H83.1403V5.60961H81.8403V6.44961H73.4803V2.24961H82.0803V1.84961H72.9403ZM74.7403 11.8096H80.1003V12.6896H81.0603V13.4896H81.9803V16.2296H81.0603V17.0496H80.1003V17.9296H74.7403V17.0496H73.8003V16.2296H72.8603V13.4896H73.8003V12.6896H74.7403V11.8096ZM75.2403 12.3096V13.1896H74.3003V13.9896H73.3603V15.7296H74.3003V16.5496H75.2403V17.4296H79.6003V16.5496H80.5603V15.7296H81.4803V13.9896H80.5603V13.1896H79.6003V12.3096H75.2403ZM75.6803 12.6896H79.1403V13.5096H80.1003V16.2296H79.1403V17.0496H75.6803V16.2296H74.7403V13.5096H75.6803V12.6896ZM76.1803 13.1896V14.0096H75.2403V15.7296H76.1803V16.5496H78.6403V15.7296H79.6003V14.0096H78.6403V13.1896H76.1803Z" fill="CURRENT"/>
<path d="M54.13 3.03961V3.83961H43.71V3.03961H48.21V1.49961H47.21V0.599609H49.17V1.49961H50.11V3.03961H54.13ZM44.91 8.97961V6.59961H45.85V5.79961H46.79V4.99961H51.55V5.79961H52.51V6.59961H53.43V8.97961H52.51V9.79961H51.55V10.6396H46.79V9.79961H45.85V8.97961H44.91ZM46.79 8.97961H47.73V9.79961H50.59V8.97961H51.55V6.61961H50.59V5.79961H47.73V6.61961H46.79V8.97961ZM46.87 12.9396V12.0396H48.71V12.9396H49.59V13.9796H55.69V12.1396H57.49V16.5796H56.63V17.4196H48.71V16.5396H47.77V12.9396H46.87ZM49.59 16.5796H55.69V14.7796H49.59V16.5796ZM55.31 2.29961V1.39961H57.17V2.29961H58.11V6.17961H61.15V7.07961H58.11V10.3596H57.17V11.2396H56.21V2.29961H55.31Z" fill="CURRENT"/>
<path fill-rule="evenodd" clip-rule="evenodd" d="M46.96 0.349609H49.42V1.24961H50.36V2.78961H54.38V4.08961H43.46V2.78961H47.96V1.74961H46.96V0.349609ZM47.46 0.849609V1.24961H48.46V3.28961H43.96V3.58961H53.88V3.28961H49.86V1.74961H48.92V0.849609H47.46ZM55.06 1.14961H57.42V2.04961H58.36V5.92961H61.4V7.32961H58.36V10.6096H57.42V11.4896H55.96V2.54961H55.06V1.14961ZM55.56 1.64961V2.04961H56.46V10.9896H56.92V10.1096H57.86V6.82961H60.9V6.42961H57.86V2.54961H56.92V1.64961H55.56ZM46.54 4.74961H51.8V5.54961H52.76V6.34961H53.68V9.22961H52.76V10.0496H51.8V10.8896H46.54V10.0496H45.6V9.22961H44.66V6.34961H45.6V5.54961H46.54V4.74961ZM47.04 5.24961V6.04961H46.1V6.84961H45.16V8.72961H46.1V9.54961H47.04V10.3896H51.3V9.54961H52.26V8.72961H53.18V6.84961H52.26V6.04961H51.3V5.24961H47.04ZM47.48 5.54961H50.84V6.36961H51.8V9.22961H50.84V10.0496H47.48V9.22961H46.54V6.36961H47.48V5.54961ZM47.98 6.04961V6.86961H47.04V8.72961H47.98V9.54961H50.34V8.72961H51.3V6.86961H50.34V6.04961H47.98ZM46.62 11.7896H48.96V12.6896H49.84V13.7296H55.44V11.8896H57.74V16.8296H56.88V17.6696H48.46V16.7896H47.52V13.1896H46.62V11.7896ZM47.12 12.2896V12.6896H48.02V16.2896H48.96V17.1696H56.38V16.3296H57.24V12.3896H55.94V14.2296H49.34V13.1896H48.46V12.2896H47.12ZM49.34 14.5296H55.94V16.8296H49.34V14.5296ZM49.84 15.0296V16.3296H55.44V15.0296H49.84Z" fill="CURRENT"/>
<path d="M32.641 9.90039H27.881V9.06039H26.941V8.24039H26.001V4.64039H26.941V3.84039H27.881V3.00039H29.301V1.40039H31.201V3.00039H32.641V3.84039H33.601V4.64039H34.521V8.24039H33.601V9.06039H32.641V9.90039ZM27.881 8.24039H28.821V9.06039H31.681V8.24039H32.641V4.66039H31.681V3.84039H28.821V4.66039H27.881V8.24039ZM29.661 13.1004V12.2004H31.561V13.1004H32.601V16.4604H39.441V15.6404H41.241V16.4604H40.361V17.3604H31.581V16.4604H30.581V13.1004H29.661ZM35.621 8.52039V7.70039H38.801V5.16039H35.621V4.34039H38.801V2.30039H37.901V1.40039H39.761V2.30039H40.701V11.7604H39.761V12.6404H38.801V8.52039H35.621Z" fill="CURRENT"/>
<path fill-rule="evenodd" clip-rule="evenodd" d="M29.051 1.15039H31.451V2.75039H32.891V3.59039H33.851V4.39039H34.771V8.49039H33.851V9.31039H32.891V10.1504H27.631V9.31039H26.691V8.49039H25.751V4.39039H26.691V3.59039H27.631V2.75039H29.051V1.15039ZM29.551 1.65039V3.25039H28.131V4.09039H27.191V4.89039H26.251V7.99039H27.191V8.81039H28.131V9.65039H32.391V8.81039H33.351V7.99039H34.271V4.89039H33.351V4.09039H32.391V3.25039H30.951V1.65039H29.551ZM37.651 1.15039H40.011V2.05039H40.951V12.0104H40.011V12.8904H38.551V8.77039H35.371V7.45039H38.551V5.41039H35.371V4.09039H38.551V2.55039H37.651V1.15039ZM38.151 1.65039V2.05039H39.051V4.59039H35.871V4.91039H39.051V7.95039H35.871V8.27039H39.051V12.3904H39.511V11.5104H40.451V2.55039H39.511V1.65039H38.151ZM28.571 3.59039H31.931V4.41039H32.891V8.49039H31.931V9.31039H28.571V8.49039H27.631V4.41039H28.571V3.59039ZM29.071 4.09039V4.91039H28.131V7.99039H29.071V8.81039H31.431V7.99039H32.391V4.91039H31.431V4.09039H29.071ZM29.411 11.9504H31.811V12.8504H32.851V16.2104H39.191V15.3904H41.491V16.7104H40.611V17.6104H31.331V16.7104H30.331V13.3504H29.411V11.9504ZM29.911 12.4504V12.8504H30.831V16.2104H31.831V17.1104H40.111V16.2104H40.991V15.8904H39.691V16.7104H32.351V13.3504H31.311V12.4504H29.911Z" fill="CURRENT"/>
<path d="M17.915 2.94H13.835V16.8H11.875V2.94H7.83496V2H17.915V2.94Z" fill="CURRENT"/>
<path fill-rule="evenodd" clip-rule="evenodd" d="M7.58496 1.75H18.165V3.19H14.085V17.05H11.625V3.19H7.58496V1.75ZM8.08496 2.25V2.69H12.125V16.55H13.585V2.69H17.665V2.25H8.08496Z" fill="CURRENT"/>
<path d="M7.17727 2.88H4.85727V15.92H7.17727V16.8H0.697266V15.92H2.95727V2.88H0.697266V2H7.17727V2.88Z" fill="CURRENT"/>
<path fill-rule="evenodd" clip-rule="evenodd" d="M0.447266 1.75H7.42727V3.13H5.10727V15.67H7.42727V17.05H0.447266V15.67H2.70727V3.13H0.447266V1.75ZM0.947266 2.25V2.63H3.20727V16.17H0.947266V16.55H6.92727V16.17H4.60727V2.63H6.92727V2.25H0.947266Z" fill="CURRENT"/>
</svg>
