<svg width="588" height="86" viewBox="0 0 588 86" fill="none" xmlns="http://www.w3.org/2000/svg">
<path fill-rule="evenodd" clip-rule="evenodd" d="M578.937 3H9.06196V7.16667H3V53H9.06196V57.1667H276.191L291.526 83H296.473L311.808 57.1667H578.937V53H585V7.16667H578.937V3Z" fill="#FAFAFA"/>
<path fill-rule="evenodd" clip-rule="evenodd" d="M6.05584 0H581.943V4.13462H588V56.2308H581.943V60.3654H313.655L298.335 86H289.664L274.344 60.3654H6.05584V56.2308H0V4.13462H6.05584V0ZM276.209 57.0577L291.529 82.6923H296.47L311.79 57.0577H578.649V52.9231H584.706V7.44231H578.649V3.30769H9.34995V7.44231H3.29412V52.9231H9.34995V57.0577H276.209Z" fill="#363532"/>
<path d="M45.2329 37.7V28.775H46.4579V27.65H47.6329V26.5H53.8329V27.65H55.0079V28.775H56.1579V31.275H53.8329V28.8H52.6579V27.65H48.8079V28.8H47.6329V37.7H48.8079V38.85H52.6579V37.7H53.8329V34.95H56.1579V37.7H55.0079V38.85H53.8329V40H47.6329V38.85H46.4579V37.7H45.2329ZM64.6425 37.7H63.4175V28.775H64.6425V27.65H65.8175V26.5H72.3675V27.65H73.5425V28.775H74.7675V37.7H73.5425V38.85H72.3675V40H65.8175V38.85H64.6425V37.7ZM65.8175 37.7H66.9925V38.85H71.1925V37.7H72.3675V28.8H71.1925V27.65H66.9925V28.8H65.8175V37.7ZM82.0112 29.975H83.1612V28.85H84.2612V27.7H85.5362V26.5H90.5112V22.625H89.3862V21.5H91.7112V22.625H92.8112V40H90.5112V38.8H89.3362V40H84.3612V38.8H83.1862V37.625H82.0112V29.975ZM84.3612 37.6H85.5112V38.8H88.1862V37.6H89.3362V36.4H90.5112V27.7H86.7362V28.85H85.5362V30H84.3612V37.6ZM102.968 37.7H104.143V38.85H107.943V37.7H109.118V35.45H111.443V37.7H110.293V38.85H109.118V40H102.968V38.85H101.793V37.7H100.568V28.775H101.793V27.65H102.968V26.5H109.118V27.65H110.293V28.775H111.443V33.1H102.968V37.7ZM102.968 31.9H109.118V28.8H107.943V27.65H104.143V28.8H102.968V31.9ZM137.716 37.45H140.016V38.75H138.841V40H134.016V38.75H132.891V28.1H130.566V27H132.891V23H135.166V27H139.641V28.1H135.166V38.75H137.716V37.45ZM147.362 37.7H146.137V28.775H147.362V27.65H148.537V26.5H155.087V27.65H156.262V28.775H157.487V37.7H156.262V38.85H155.087V40H148.537V38.85H147.362V37.7ZM148.537 37.7H149.712V38.85H153.912V37.7H155.087V28.8H153.912V27.65H149.712V28.8H148.537V37.7ZM164.231 29.975H165.381V28.85H166.481V27.7H167.756V26.5H175.481V42.2H174.356V43.35H173.231V44.5H166.881V43.35H165.706V42.2H164.481V40.65H166.881V42.2H168.056V43.35H172.056V42.2H173.231V37.175H172.056V38.375H166.581V37.175H165.406V36H164.231V29.975ZM166.581 35.975H167.731V37.175H170.906V35.975H172.056V34.775H173.231V27.7H168.956V28.85H167.756V30H166.581V35.975ZM185.639 37.7H186.814V38.85H190.614V37.7H191.789V35.45H194.114V37.7H192.964V38.85H191.789V40H185.639V38.85H184.464V37.7H183.239V28.775H184.464V27.65H185.639V26.5H191.789V27.65H192.964V28.775H194.114V33.1H185.639V37.7ZM185.639 31.9H191.789V28.8H190.614V27.65H186.814V28.8H185.639V31.9ZM207.647 37.45H209.947V38.75H208.772V40H203.947V38.75H202.822V28.1H200.497V27H202.822V23H205.097V27H209.572V28.1H205.097V38.75H207.647V37.45ZM226.568 28.875H227.743V40H225.393V28.9H224.243V27.7H222.368V28.9H221.218V30.1H220.043V31.3H218.868V40H216.568V22.625H215.443V21.5H217.768V22.625H218.868V28.9H220.018V27.7H221.218V26.5H225.393V27.7H226.568V28.875ZM237.653 37.7H238.828V38.85H242.628V37.7H243.803V35.45H246.128V37.7H244.978V38.85H243.803V40H237.653V38.85H236.478V37.7H235.253V28.775H236.478V27.65H237.653V26.5H243.803V27.65H244.978V28.775H246.128V33.1H237.653V37.7ZM237.653 31.9H243.803V28.8H242.628V27.65H238.828V28.8H237.653V31.9ZM252.636 27.675V26.5H254.961V27.675H256.111V28.975H257.261V27.7H258.461V26.5H262.011V27.7H263.211V29H260.861V27.7H259.611V28.975H258.461V30.175H257.286V31.375H256.111V40H253.761V27.675H252.636ZM269.929 43.1V41.6H271.429V39.25H269.929V36.625H272.729V41.975H271.429V43.1H269.929ZM294.503 37.625V34.925H295.703V33.725H296.903V32.525H303.228V28.8H302.053V27.65H299.053V28.8H297.878V31.025H295.553V28.775H296.703V27.65H297.878V26.5H303.228V27.65H304.403V28.775H305.578V40H304.353V38.8H303.228V40H296.978V38.8H295.703V37.6L294.503 37.625ZM296.953 37.6H298.128V38.8H302.103V37.6H303.228V33.725H298.128V34.95H296.953V37.6ZM312.215 27.675V26.5H314.54V27.675H315.69V28.975H316.84V27.7H318.04V26.5H321.59V27.7H322.79V29H320.44V27.7H319.19V28.975H318.04V30.175H316.865V31.375H315.69V40H313.34V27.675H312.215ZM327.958 27.675V26.5H330.283V27.675H331.433V28.975H332.583V27.7H333.783V26.5H337.333V27.7H338.533V29H336.183V27.7H334.933V28.975H333.783V30.175H332.608V31.375H331.433V40H329.083V27.675H327.958ZM344.827 24.125V21.5H347.477V24.125H344.827ZM344.977 40V26.75H347.327V40H344.977ZM355.217 35.375V26.5H357.567V35.375H358.817V37.025H360.067V38.675H361.442V37.025H362.692V35.375H363.942V26.5H366.292V35.375H365.167V37.025H363.917V38.675H362.717V40H358.792V38.675H357.617V37.025H356.342V35.375H355.217ZM376.192 37.7H377.367V38.85H381.167V37.7H382.342V35.45H384.667V37.7H383.517V38.85H382.342V40H376.192V38.85H375.017V37.7H373.792V28.775H375.017V27.65H376.192V26.5H382.342V27.65H383.517V28.775H384.667V33.1H376.192V37.7ZM376.192 31.9H382.342V28.8H381.167V27.65H377.367V28.8H376.192V31.9ZM410.941 37.45H413.241V38.75H412.066V40H407.241V38.75H406.116V28.1H403.791V27H406.116V23H408.391V27H412.866V28.1H408.391V38.75H410.941V37.45ZM420.587 37.7H419.362V28.775H420.587V27.65H421.762V26.5H428.312V27.65H429.487V28.775H430.712V37.7H429.487V38.85H428.312V40H421.762V38.85H420.587V37.7ZM421.762 37.7H422.937V38.85H427.137V37.7H428.312V28.8H427.137V27.65H422.937V28.8H421.762V37.7ZM437.456 29.975H438.606V28.85H439.706V27.7H440.981V26.5H448.706V42.2H447.581V43.35H446.456V44.5H440.106V43.35H438.931V42.2H437.706V40.65H440.106V42.2H441.281V43.35H445.281V42.2H446.456V37.175H445.281V38.375H439.806V37.175H438.631V36H437.456V29.975ZM439.806 35.975H440.956V37.175H444.131V35.975H445.281V34.775H446.456V27.7H442.181V28.85H440.981V30H439.806V35.975ZM458.863 37.7H460.038V38.85H463.838V37.7H465.013V35.45H467.338V37.7H466.188V38.85H465.013V40H458.863V38.85H457.688V37.7H456.463V28.775H457.688V27.65H458.863V26.5H465.013V27.65H466.188V28.775H467.338V33.1H458.863V37.7ZM458.863 31.9H465.013V28.8H463.838V27.65H460.038V28.8H458.863V31.9ZM480.871 37.45H483.171V38.75H481.996V40H477.171V38.75H476.046V28.1H473.721V27H476.046V23H478.321V27H482.796V28.1H478.321V38.75H480.871V37.45ZM499.792 28.875H500.967V40H498.617V28.9H497.467V27.7H495.592V28.9H494.442V30.1H493.267V31.3H492.092V40H489.792V22.625H488.667V21.5H490.992V22.625H492.092V28.9H493.242V27.7H494.442V26.5H498.617V27.7H499.792V28.875ZM510.878 37.7H512.053V38.85H515.853V37.7H517.028V35.45H519.353V37.7H518.203V38.85H517.028V40H510.878V38.85H509.703V37.7H508.478V28.775H509.703V27.65H510.878V26.5H517.028V27.65H518.203V28.775H519.353V33.1H510.878V37.7ZM510.878 31.9H517.028V28.8H515.853V27.65H512.053V28.8H510.878V31.9ZM525.861 27.675V26.5H528.186V27.675H529.336V28.975H530.486V27.7H531.686V26.5H535.236V27.7H536.436V29H534.086V27.7H532.836V28.975H531.686V30.175H530.511V31.375H529.336V40H526.986V27.675H525.861ZM545.779 21.525V34.25H543.479V21.5L545.779 21.525ZM543.304 40V37.375H545.954V40H543.304Z" fill="#363532"/>
</svg>
