<svg width="40" height="41" viewBox="0 0 40 41" fill="none" xmlns="http://www.w3.org/2000/svg">
<g clip-path="url(#clip0_10340_28236)">
<circle cx="20" cy="20.5" r="20" fill="#FFA000"/>
<path d="M30 17.5V15.5H29V13.5H28V12.5H27V11.5H25V10.5H23V9.5H17V10.5H15V11.5H13V12.5H12V13.5H11V15.5H10V17.5H9V24.5H10V25.5H11V27.5H12V28.5H13V29.5H15V30.5H17V31.5H23V30.5H25V29.5H27V28.5H28V27.5H29V25.5H30V23.5H31V17.5H30ZM29 18.5V22.5H26V18.5H29ZM24 12.5H25V13.5H27V15.5H28V16.5H25V13.5H24V12.5ZM22 26.5V28.5H21V29.5H19V28.5H18V26.5H17V24.5H23V26.5H22ZM24 18.5V22.5H16V18.5H24ZM17 14.5H18V12.5H19V11.5H21V12.5H22V14.5H23V16.5H17V14.5ZM12 15.5H13V13.5H15V12.5H16V13.5H15V16.5H12V15.5ZM11 22.5V18.5H14V22.5H11ZM13 27.5V25.5H12V24.5H15V27.5H16V28.5H15V27.5H13ZM27 25.5V27.5H25V28.5H24V27.5H25V24.5H28V25.5H27Z" fill="#1A1918"/>
</g>
<defs>
<clipPath id="clip0_10340_28236">
<rect width="40" height="40" fill="white" transform="translate(0 0.5)"/>
</clipPath>
</defs>
</svg>
