<svg width="215" height="123" viewBox="0 0 215 123" fill="none" xmlns="http://www.w3.org/2000/svg">
<path d="M197 111V105L18 105V111L197 111Z" fill="#DFDDDA"/>
<path d="M12 105H18V99H12V105Z" fill="#DFDDDA"/>
<path d="M6 99H12V93H6V99Z" fill="#DFDDDA"/>
<path d="M197 105L203 105V99H197V105Z" fill="#DFDDDA"/>
<path d="M203 99H209V93H203V99Z" fill="#DFDDDA"/>
<path d="M197 117V111L18 111V117L197 117Z" fill="#6A6967"/>
<path d="M12 111L18 111V105H12V111Z" fill="#6A6967"/>
<path d="M6 105H12V99H6V105Z" fill="#6A6967"/>
<path d="M197 111H203V105L197 105V111Z" fill="#6A6967"/>
<path d="M203 105H209V99H203V105Z" fill="#6A6967"/>
<path d="M197 123V117L18 117L18 123L197 123Z" fill="#363532"/>
<path d="M215 35H209V105H215L215 35Z" fill="#363532"/>
<path d="M6.11959e-06 35H6.00001L6 105H0L6.11959e-06 35Z" fill="#363532"/>
<path d="M203 35H209V29H203V35Z" fill="#363532"/>
<path d="M203 111H209V105H203V111Z" fill="#363532"/>
<path d="M12 111H6.00001L6 105H12V111Z" fill="#363532"/>
<path d="M197 117H203V111H197V117Z" fill="#363532"/>
<path d="M18 117L12 117L12 111L18 111V117Z" fill="#363532"/>
<path d="M6.00001 35H12V29H6.00001L6.00001 35Z" fill="#363532"/>
<path d="M18 94H24V88H18V94Z" fill="#363532"/>
<path d="M191 0V6H24V0H191Z" fill="#363532"/>
<path d="M18 12V6H24V12H18Z" fill="#363532"/>
<path d="M18 12V88H12V12H18Z" fill="#363532"/>
<path d="M197 12V6H191V12H197Z" fill="#363532"/>
<path d="M197 88H203V12H197V88Z" fill="#363532"/>
<path d="M191 94V88H197V94H191Z" fill="#363532"/>
<path d="M191 94H24V100H191V94Z" fill="#363532"/>
<path d="M6.00001 35H12L12 93H6L6.00001 35Z" fill="#AAA9A6"/>
<path d="M209 35H203V93H209V35Z" fill="#AAA9A6"/>
<path d="M12 88H18V94H12V88Z" fill="#AAA9A6"/>
<path d="M203 88H197V94H203V88Z" fill="#AAA9A6"/>
<path d="M18 100H197V105L18 105V100Z" fill="#AAA9A6"/>
<path d="M12 94H24V100H12V94Z" fill="#AAA9A6"/>
<path d="M203 94H191V100H203V94Z" fill="#AAA9A6"/>
<path d="M191 76V70L24 70V76L191 76Z" fill="#FFEBA3"/>
<path d="M18 70H24V64H18V70Z" fill="#FFEBA3"/>
<path d="M191 70L197 70V64H191V70Z" fill="#FFEBA3"/>
<path d="M191 6V12H24V6H191Z" fill="#FFEBA3"/>
<path d="M18 12H24V18H18V12Z" fill="#FFEBA3"/>
<path d="M191 12H197V18H191V12Z" fill="#FFEBA3"/>
<path d="M18 18H24V24H18V18Z" fill="#FFA000"/>
<path d="M18 64H24V58H18V64Z" fill="#FFA000"/>
<path d="M197 18H191V24H197V18Z" fill="#FFA000"/>
<path d="M197 64H191V58H197V64Z" fill="#FFA000"/>
<path d="M24 12H30V18L24 18V12Z" fill="#FFA000"/>
<path d="M24 70H30V64H24V70Z" fill="#FFA000"/>
<path d="M191 12H185V18L191 18V12Z" fill="#FFA000"/>
<path d="M191 70L185 70V64H191V70Z" fill="#FFA000"/>
<path d="M24 24H18V58H24V64H30V70H185V64H191V58H197V24H191V18L185 18V12H30V18L24 18V24Z" fill="#FFC700"/>
<path d="M24 70H18V88H24V94H191V88H197V70L191 70V76L24 76V70Z" fill="#FFA000"/>
<path d="M161.668 51.8205V46.5217H165.06V51.8205H166.792V53.4455H172.602V51.8205H174.225V47.3342H172.385V45.5326H170.581V43.731H168.849V41.9647H167.117V40.1632H165.349V38.3969H163.689V36.5246H161.884V32.1443H163.617V30.5547H165.457V28.9297H174.442V30.5547H176.174V32.1443H177.834V36.7366H174.442V32.1796H172.71V30.5547H167.369V32.1796H165.673V36.1714H167.478V38.0083H169.282V39.8099H171.122V41.5762H172.854V43.3778H174.658V45.144H176.426V46.9456H178.05V51.8205H176.354V53.4455H174.55V55.0705H165.06V53.4455H163.328V51.8205H161.668Z" fill="#FB873F"/>
<path fill-rule="evenodd" clip-rule="evenodd" d="M160.719 52.7501V45.592H166.01V50.8908H167.742V52.5158H171.652V50.8908H173.276V48.2637H171.436V46.4622H169.632V44.6606H167.9V42.8943H166.167V41.0927H164.399V39.3264H162.739V37.4542H160.935V31.2146H162.667V29.625H164.508V28H175.392V29.625H177.124V31.2146H178.784V37.6661H173.493V33.1092H171.761V31.4842H168.319V33.1092H166.623V35.2417H168.428V37.0786H170.232V38.8802H172.072V40.6465H173.804V42.4481H175.608V44.2143H177.376V46.0159H179V52.7501H177.304V54.375H175.5V56H164.111V54.375H162.379V52.7501H160.719ZM165.674 32.1795H167.37V30.5546H172.71V32.1795H174.442V36.7365H177.834V32.1442H176.174V30.5546H174.442V28.9296H165.457V30.5546H163.617V32.1442H161.885V36.5246H163.689V38.3968H165.349V40.1631H167.117V41.9647H168.849V43.7309H170.581V45.5325H172.385V47.3341H174.226V51.8205H172.602V53.4454H166.792V51.8205H165.06V46.5216H161.668V51.8205H163.328V53.4454H165.06V55.0704H174.55V53.4454H176.355V51.8205H178.051V46.9456H176.427V45.144H174.659V43.3777H172.854V41.5761H171.122V39.8098H169.282V38.0082H167.478V36.1713H165.674V32.1795Z" fill="#FB873F"/>
<path d="M137.369 51.8205V28.9297H140.797V51.8205H142.493V53.4455H148.375V51.8205H150.107V28.9297H153.535V51.8205H151.875V53.4455H150.107V55.0705H140.797V53.4455H139.065V51.8205H137.369Z" fill="#FB873F"/>
<path fill-rule="evenodd" clip-rule="evenodd" d="M136.42 52.7501V28H141.747V50.8908H143.443V52.5158H147.426V50.8908H149.158V28H154.485V52.7501H152.825V54.375H151.057V56H139.848V54.375H138.116V52.7501H136.42ZM150.107 51.8205H148.375V53.4454H142.493V51.8205H140.798V28.9296H137.37V51.8205H139.065V53.4454H140.798V55.0704H150.107V53.4454H151.875V51.8205H153.535V28.9296H150.107V51.8205Z" fill="#FB873F"/>
<path d="M100.574 55.0705V28.9297H104.904V30.8373H107.069V33.9459H108.91V37.0898H110.75V40.2338H112.59V43.2011H114.358V46.3451H116.091V28.9297H117.967V55.0705H115.621V53.0922H113.709V49.9483H111.833V46.8043H109.956V43.6604H108.08V40.5164H106.203V37.4078H104.327V34.2638H102.451V55.0705H100.574Z" fill="#FB873F"/>
<path fill-rule="evenodd" clip-rule="evenodd" d="M99.625 56V28H105.854V29.9076H108.019V33.0162H109.86V36.1602H111.7V39.3041H113.54V42.2714H115.141V28H118.917V56H114.672V54.0218H112.76V50.8778H110.883V47.7339H109.007V44.5899H107.131V41.446H105.254V38.3373H103.401V56H99.625ZM102.451 34.2637H104.327V37.4077H106.204V40.5163H108.08V43.6603H109.957V46.8043H111.833V49.9482H113.709V53.0922H115.622V55.0704H117.967V28.9296H116.091V46.345H114.359V43.2011H112.591V40.2337H110.75V37.0898H108.91V33.9458H107.07V30.8372H104.905V28.9296H100.575V55.0704H102.451V34.2637Z" fill="#FB873F"/>
<path d="M93.7949 30.484H89.6091V53.5161H93.7949V55.0705H82.1035V53.5161H86.1811V30.484H82.1035V28.9297H93.7949V30.484Z" fill="#FB873F"/>
<path fill-rule="evenodd" clip-rule="evenodd" d="M94.7468 31.4135H90.561V52.5865H94.7468V56H81.1562V52.5865H85.2338V31.4135H81.1562V28H94.7468V31.4135ZM86.1834 30.4839V53.5161H82.1058V55.0704H93.7972V53.5161H89.6114V30.4839H93.7972V28.9296H82.1058V30.4839H86.1834Z" fill="#FB873F"/>
<path d="M60.4831 51.8205H58.7871V32.1443H60.4831V30.5547H62.179V28.9297H71.9218V30.5547H73.6539V32.1443H75.3138V51.8205H73.6539V53.4455H71.9218V55.0705H62.179V53.4455H60.4831V51.8205ZM62.179 51.8205H63.875V53.4455H70.1898V51.8205H71.9218V32.1796H70.1898V30.5547H63.875V32.1796H62.179V51.8205Z" fill="#FB873F"/>
<path fill-rule="evenodd" clip-rule="evenodd" d="M57.8379 52.7501V31.2146H59.5339V29.625H61.2298V28H72.8718V29.625H74.6038V31.2146H76.2637V52.7501H74.6038V54.375H72.8718V56H61.2298V54.375H59.5339V52.7501H57.8379ZM64.825 50.8908V52.5158H69.2406V50.8908H70.9726V33.1092H69.2406V31.4842H64.825V33.1092H63.129V50.8908H64.825ZM62.1794 32.1795H63.8754V30.5546H70.1901V32.1795H71.9222V51.8205H70.1901V53.4454H63.8754V51.8205H62.1794V32.1795ZM60.4834 51.8205V53.4454H62.1794V55.0704H71.9222V53.4454H73.6542V51.8205H75.3141V32.1442H73.6542V30.5546H71.9222V28.9296H62.1794V30.5546H60.4834V32.1442H58.7875V51.8205H60.4834Z" fill="#FB873F"/>
<path d="M35.9492 51.8205V46.1685H39.3412V51.8205H41.0732V53.4455H45.4394V51.8205H47.0632L47.0993 28.9297H50.4912V51.8205H49.1922V53.4455H47.388V55.0705H39.3412V53.4455H37.6091V51.8205H35.9492Z" fill="#FB873F"/>
<path fill-rule="evenodd" clip-rule="evenodd" d="M35 52.7501V45.2388H40.2911V50.8908H42.0232V52.5158H44.4902V50.8908H46.1155L46.1515 28H51.4412V52.7501H50.1421V54.375H48.3379V56H38.3919V54.375H36.6599V52.7501H35ZM47.0636 51.8205H45.4398V53.4454H41.0736V51.8205H39.3415V46.1684H35.9496V51.8205H37.6095V53.4454H39.3415V55.0704H47.3883V53.4454H49.1926V51.8205H50.4916V28.9296H47.0997L47.0636 51.8205Z" fill="#FB873F"/>
<path d="M161.668 48.8205V43.5217H165.06V48.8205H166.792V50.4455H172.602V48.8205H174.225V44.3342H172.385V42.5326H170.581V40.731H168.849V38.9647H167.117V37.1632H165.349V35.3969H163.689V33.5246H161.884V29.1443H163.617V27.5547H165.457V25.9297H174.442V27.5547H176.174V29.1443H177.834V33.7366H174.442V29.1796H172.71V27.5547H167.369V29.1796H165.673V33.1714H167.478V35.0083H169.282V36.8099H171.122V38.5762H172.854V40.3778H174.658V42.144H176.426V43.9456H178.05V48.8205H176.354V50.4455H174.55V52.0705H165.06V50.4455H163.328V48.8205H161.668Z" fill="#FAFAFA"/>
<path fill-rule="evenodd" clip-rule="evenodd" d="M160.719 49.7501V42.592H166.01V47.8908H167.742V49.5158H171.652V47.8908H173.276V45.2637H171.436V43.4622H169.632V41.6606H167.9V39.8943H166.167V38.0927H164.399V36.3264H162.739V34.4542H160.935V28.2146H162.667V26.625H164.508V25H175.392V26.625H177.124V28.2146H178.784V34.6661H173.493V30.1092H171.761V28.4842H168.319V30.1092H166.623V32.2417H168.428V34.0786H170.232V35.8802H172.072V37.6465H173.804V39.4481H175.608V41.2143H177.376V43.0159H179V49.7501H177.304V51.375H175.5V53H164.111V51.375H162.379V49.7501H160.719ZM165.674 29.1795H167.37V27.5546H172.71V29.1795H174.442V33.7365H177.834V29.1442H176.174V27.5546H174.442V25.9296H165.457V27.5546H163.617V29.1442H161.885V33.5246H163.689V35.3968H165.349V37.1631H167.117V38.9647H168.849V40.7309H170.581V42.5325H172.385V44.3341H174.226V48.8205H172.602V50.4454H166.792V48.8205H165.06V43.5216H161.668V48.8205H163.328V50.4454H165.06V52.0704H174.55V50.4454H176.355V48.8205H178.051V43.9456H176.427V42.144H174.659V40.3777H172.854V38.5761H171.122V36.8098H169.282V35.0082H167.478V33.1713H165.674V29.1795Z" fill="#FAFAFA"/>
<path d="M137.369 48.8205V25.9297H140.797V48.8205H142.493V50.4455H148.375V48.8205H150.107V25.9297H153.535V48.8205H151.875V50.4455H150.107V52.0705H140.797V50.4455H139.065V48.8205H137.369Z" fill="#FAFAFA"/>
<path fill-rule="evenodd" clip-rule="evenodd" d="M136.42 49.7501V25H141.747V47.8908H143.443V49.5158H147.426V47.8908H149.158V25H154.485V49.7501H152.825V51.375H151.057V53H139.848V51.375H138.116V49.7501H136.42ZM150.107 48.8205H148.375V50.4454H142.493V48.8205H140.798V25.9296H137.37V48.8205H139.065V50.4454H140.798V52.0704H150.107V50.4454H151.875V48.8205H153.535V25.9296H150.107V48.8205Z" fill="#FAFAFA"/>
<path d="M100.574 52.0705V25.9297H104.904V27.8373H107.069V30.9459H108.91V34.0898H110.75V37.2338H112.59V40.2011H114.358V43.3451H116.091V25.9297H117.967V52.0705H115.621V50.0922H113.709V46.9483H111.833V43.8043H109.956V40.6604H108.08V37.5164H106.203V34.4078H104.327V31.2638H102.451V52.0705H100.574Z" fill="#FAFAFA"/>
<path fill-rule="evenodd" clip-rule="evenodd" d="M99.625 53V25H105.854V26.9076H108.019V30.0162H109.86V33.1602H111.7V36.3041H113.54V39.2714H115.141V25H118.917V53H114.672V51.0218H112.76V47.8778H110.883V44.7339H109.007V41.5899H107.131V38.446H105.254V35.3373H103.401V53H99.625ZM102.451 31.2637H104.327V34.4077H106.204V37.5163H108.08V40.6603H109.957V43.8043H111.833V46.9482H113.709V50.0922H115.622V52.0704H117.967V25.9296H116.091V43.345H114.359V40.2011H112.591V37.2337H110.75V34.0898H108.91V30.9458H107.07V27.8372H104.905V25.9296H100.575V52.0704H102.451V31.2637Z" fill="#FAFAFA"/>
<path d="M93.7949 27.484H89.6091V50.5161H93.7949V52.0705H82.1035V50.5161H86.1811V27.484H82.1035V25.9297H93.7949V27.484Z" fill="#FAFAFA"/>
<path fill-rule="evenodd" clip-rule="evenodd" d="M94.7468 28.4135H90.561V49.5865H94.7468V53H81.1562V49.5865H85.2338V28.4135H81.1562V25H94.7468V28.4135ZM86.1834 27.4839V50.5161H82.1058V52.0704H93.7972V50.5161H89.6114V27.4839H93.7972V25.9296H82.1058V27.4839H86.1834Z" fill="#FAFAFA"/>
<path d="M60.4831 48.8205H58.7871V29.1443H60.4831V27.5547H62.179V25.9297H71.9218V27.5547H73.6539V29.1443H75.3138V48.8205H73.6539V50.4455H71.9218V52.0705H62.179V50.4455H60.4831V48.8205ZM62.179 48.8205H63.875V50.4455H70.1898V48.8205H71.9218V29.1796H70.1898V27.5547H63.875V29.1796H62.179V48.8205Z" fill="#FAFAFA"/>
<path fill-rule="evenodd" clip-rule="evenodd" d="M57.8379 49.7501V28.2146H59.5339V26.625H61.2298V25H72.8718V26.625H74.6038V28.2146H76.2637V49.7501H74.6038V51.375H72.8718V53H61.2298V51.375H59.5339V49.7501H57.8379ZM64.825 47.8908V49.5158H69.2406V47.8908H70.9726V30.1092H69.2406V28.4842H64.825V30.1092H63.129V47.8908H64.825ZM62.1794 29.1795H63.8754V27.5546H70.1901V29.1795H71.9222V48.8205H70.1901V50.4454H63.8754V48.8205H62.1794V29.1795ZM60.4834 48.8205V50.4454H62.1794V52.0704H71.9222V50.4454H73.6542V48.8205H75.3141V29.1442H73.6542V27.5546H71.9222V25.9296H62.1794V27.5546H60.4834V29.1442H58.7875V48.8205H60.4834Z" fill="#FAFAFA"/>
<path d="M35.9492 48.8205V43.1685H39.3412V48.8205H41.0732V50.4455H45.4394V48.8205H47.0632L47.0993 25.9297H50.4912V48.8205H49.1922V50.4455H47.388V52.0705H39.3412V50.4455H37.6091V48.8205H35.9492Z" fill="#FAFAFA"/>
<path fill-rule="evenodd" clip-rule="evenodd" d="M35 49.7501V42.2388H40.2911V47.8908H42.0232V49.5158H44.4902V47.8908H46.1155L46.1515 25H51.4412V49.7501H50.1421V51.375H48.3379V53H38.3919V51.375H36.6599V49.7501H35ZM47.0636 48.8205H45.4398V50.4454H41.0736V48.8205H39.3415V43.1684H35.9496V48.8205H37.6095V50.4454H39.3415V52.0704H47.3883V50.4454H49.1926V48.8205H50.4916V25.9296H47.0997L47.0636 48.8205Z" fill="#FAFAFA"/>
</svg>
