<svg xmlns="http://www.w3.org/2000/svg" width="144" height="31" viewBox="0 0 144 31" fill="none">
  <path d="M126.668 26.8205V21.5217H130.06V26.8205H131.792V28.4455H137.602V26.8205H139.225V22.3342H137.385V20.5326H135.581V18.731H133.849V16.9647H132.117V15.1632H130.349V13.3969H128.689V11.5246H126.884V7.1443H128.617V5.55465H130.457V3.92969H139.442V5.55465H141.174V7.1443H142.834V11.7366H139.442V7.17962H137.71V5.55465H132.369V7.17962H130.673V11.1714H132.478V13.0083H134.282V14.8099H136.122V16.5762H137.854V18.3778H139.658V20.144H141.426V21.9456H143.05V26.8205H141.354V28.4455H139.55V30.0705H130.06V28.4455H128.328V26.8205H126.668Z" fill="#FB873F"/>
  <path fill-rule="evenodd" clip-rule="evenodd" d="M125.719 27.7501V20.592H131.01V25.8908H132.742V27.5158H136.652V25.8908H138.276V23.2637H136.436V21.4622H134.632V19.6606H132.9V17.8943H131.167V16.0927H129.399V14.3264H127.739V12.4542H125.935V6.21461H127.667V4.62497H129.508V3H140.392V4.62497H142.124V6.21461H143.784V12.6661H138.493V8.10916H136.761V6.4842H133.319V8.10916H131.623V10.2417H133.428V12.0786H135.232V13.8802H137.072V15.6465H138.804V17.4481H140.608V19.2143H142.376V21.0159H144V27.7501H142.304V29.375H140.5V31H129.111V29.375H127.379V27.7501H125.719ZM130.674 7.17955H132.37V5.55458H137.71V7.17955H139.442V11.7365H142.834V7.14422H141.174V5.55458H139.442V3.92961H130.457V5.55458H128.617V7.14422H126.885V11.5246H128.689V13.3968H130.349V15.1631H132.117V16.9647H133.849V18.7309H135.581V20.5325H137.385V22.3341H139.226V26.8205H137.602V28.4454H131.792V26.8205H130.06V21.5216H126.668V26.8205H128.328V28.4454H130.06V30.0704H139.55V28.4454H141.355V26.8205H143.051V21.9456H141.427V20.144H139.659V18.3777H137.854V16.5761H136.122V14.8098H134.282V13.0082H132.478V11.1713H130.674V7.17955Z" fill="#FB873F"/>
  <path d="M102.369 26.8205V3.92969H105.797V26.8205H107.493V28.4455H113.375V26.8205H115.107V3.92969H118.535V26.8205H116.875V28.4455H115.107V30.0705H105.797V28.4455H104.065V26.8205H102.369Z" fill="#FB873F"/>
  <path fill-rule="evenodd" clip-rule="evenodd" d="M101.42 27.7501V3H106.747V25.8908H108.443V27.5158H112.426V25.8908H114.158V3H119.485V27.7501H117.825V29.375H116.057V31H104.848V29.375H103.116V27.7501H101.42ZM115.107 26.8205H113.375V28.4454H107.493V26.8205H105.798V3.92961H102.37V26.8205H104.065V28.4454H105.798V30.0704H115.107V28.4454H116.875V26.8205H118.535V3.92961H115.107V26.8205Z" fill="#FB873F"/>
  <path d="M65.5742 30.0705V3.92969H69.9043V5.83726H72.0694V8.94589H73.9097V12.0898H75.75V15.2338H77.5903V18.2011H79.3584V21.3451H81.0905V3.92969H82.9669V30.0705H80.6214V28.0922H78.7089V24.9483H76.8325V21.8043H74.9562V18.6604H73.0798V15.5164H71.2034V12.4078H69.327V9.26382H67.4506V30.0705H65.5742Z" fill="#FB873F"/>
  <path fill-rule="evenodd" clip-rule="evenodd" d="M64.625 31V3H70.8543V4.90757H73.0194V8.0162H74.8597V11.1602H76.7V14.3041H78.5403V17.2714H80.1413V3H83.9168V31H79.6722V29.0218H77.7597V25.8778H75.8833V22.7339H74.0069V19.5899H72.1305V16.446H70.2542V13.3373H68.4006V31H64.625ZM67.451 9.26374H69.3274V12.4077H71.2038V15.5163H73.0801V18.6603H74.9565V21.8043H76.8329V24.9482H78.7093V28.0922H80.6218V30.0704H82.9673V3.92961H81.0909V21.345H79.3588V18.2011H77.5907V15.2337H75.7504V12.0898H73.9101V8.94582H72.0698V5.83718H69.9047V3.92961H65.5746V30.0704H67.451V9.26374Z" fill="#FB873F"/>
  <path d="M58.7949 5.484H54.6091V28.5161H58.7949V30.0705H47.1035V28.5161H51.1811V5.484H47.1035V3.92969H58.7949V5.484Z" fill="#FB873F"/>
  <path fill-rule="evenodd" clip-rule="evenodd" d="M59.7468 6.41355H55.561V27.5865H59.7468V31H46.1562V27.5865H50.2338V6.41355H46.1562V3H59.7468V6.41355ZM51.1834 5.48393V28.5161H47.1058V30.0704H58.7972V28.5161H54.6114V5.48393H58.7972V3.92961H47.1058V5.48393H51.1834Z" fill="#FB873F"/>
  <path d="M25.4831 26.8205H23.7871V7.1443H25.4831V5.55465H27.179V3.92969H36.9218V5.55465H38.6539V7.1443H40.3138V26.8205H38.6539V28.4455H36.9218V30.0705H27.179V28.4455H25.4831V26.8205ZM27.179 26.8205H28.875V28.4455H35.1898V26.8205H36.9218V7.17962H35.1898V5.55465H28.875V7.17962H27.179V26.8205Z" fill="#FB873F"/>
  <path fill-rule="evenodd" clip-rule="evenodd" d="M22.8379 27.7501V6.21461H24.5339V4.62497H26.2298V3H37.8718V4.62497H39.6038V6.21461H41.2637V27.7501H39.6038V29.375H37.8718V31H26.2298V29.375H24.5339V27.7501H22.8379ZM29.825 25.8908V27.5158H34.2406V25.8908H35.9726V8.10916H34.2406V6.4842H29.825V8.10916H28.129V25.8908H29.825ZM27.1794 7.17955H28.8754V5.55458H35.1901V7.17955H36.9222V26.8205H35.1901V28.4454H28.8754V26.8205H27.1794V7.17955ZM25.4834 26.8205V28.4454H27.1794V30.0704H36.9222V28.4454H38.6542V26.8205H40.3141V7.14422H38.6542V5.55458H36.9222V3.92961H27.1794V5.55458H25.4834V7.14422H23.7875V26.8205H25.4834Z" fill="#FB873F"/>
  <path d="M0.949219 26.8205V21.1685H4.34115V26.8205H6.0732V28.4455H10.4394V26.8205H12.0632L12.0993 3.92969H15.4912V26.8205H14.1922V28.4455H12.388V30.0705H4.34115V28.4455H2.6091V26.8205H0.949219Z" fill="#FB873F"/>
  <path fill-rule="evenodd" clip-rule="evenodd" d="M0 27.7501V20.2388H5.29111V25.8908H7.02316V27.5158H9.49019V25.8908H11.1155L11.1515 3H16.4412V27.7501H15.1421V29.375H13.3379V31H3.39193V29.375H1.65988V27.7501H0ZM12.0636 26.8205H10.4398V28.4454H6.07357V26.8205H4.34152V21.1684H0.949589V26.8205H2.60947V28.4454H4.34152V30.0704H12.3883V28.4454H14.1926V26.8205H15.4916V3.92961H12.0997L12.0636 26.8205Z" fill="#FB873F"/>
  <path d="M126.668 23.8205V18.5217H130.06V23.8205H131.792V25.4455H137.602V23.8205H139.225V19.3342H137.385V17.5326H135.581V15.731H133.849V13.9647H132.117V12.1632H130.349V10.3969H128.689V8.52464H126.884V4.1443H128.617V2.55465H130.457V0.929688H139.442V2.55465H141.174V4.1443H142.834V8.73659H139.442V4.17962H137.71V2.55465H132.369V4.17962H130.673V8.17139H132.478V10.0083H134.282V11.8099H136.122V13.5762H137.854V15.3778H139.658V17.144H141.426V18.9456H143.05V23.8205H141.354V25.4455H139.55V27.0705H130.06V25.4455H128.328V23.8205H126.668Z" fill="#FFFBF6"/>
  <path fill-rule="evenodd" clip-rule="evenodd" d="M125.719 24.7501V17.592H131.01V22.8908H132.742V24.5158H136.652V22.8908H138.276V20.2637H136.436V18.4622H134.632V16.6606H132.9V14.8943H131.167V13.0927H129.399V11.3264H127.739V9.45418H125.935V3.21461H127.667V1.62497H129.508V0H140.392V1.62497H142.124V3.21461H143.784V9.66613H138.493V5.10916H136.761V3.4842H133.319V5.10916H131.623V7.2417H133.428V9.07862H135.232V10.8802H137.072V12.6465H138.804V14.4481H140.608V16.2143H142.376V18.0159H144V24.7501H142.304V26.375H140.5V28H129.111V26.375H127.379V24.7501H125.719ZM130.674 4.17955H132.37V2.55458H137.71V4.17955H139.442V8.73652H142.834V4.14422H141.174V2.55458H139.442V0.929615H130.457V2.55458H128.617V4.14422H126.885V8.52457H128.689V10.3968H130.349V12.1631H132.117V13.9647H133.849V15.7309H135.581V17.5325H137.385V19.3341H139.226V23.8205H137.602V25.4454H131.792V23.8205H130.06V18.5216H126.668V23.8205H128.328V25.4454H130.06V27.0704H139.55V25.4454H141.355V23.8205H143.051V18.9456H141.427V17.144H139.659V15.3777H137.854V13.5761H136.122V11.8098H134.282V10.0082H132.478V8.17132H130.674V4.17955Z" fill="#FFFBF6"/>
  <path d="M102.369 23.8205V0.929688H105.797V23.8205H107.493V25.4455H113.375V23.8205H115.107V0.929688H118.535V23.8205H116.875V25.4455H115.107V27.0705H105.797V25.4455H104.065V23.8205H102.369Z" fill="#FFFBF6"/>
  <path fill-rule="evenodd" clip-rule="evenodd" d="M101.42 24.7501V0H106.747V22.8908H108.443V24.5158H112.426V22.8908H114.158V0H119.485V24.7501H117.825V26.375H116.057V28H104.848V26.375H103.116V24.7501H101.42ZM115.107 23.8205H113.375V25.4454H107.493V23.8205H105.798V0.929615H102.37V23.8205H104.065V25.4454H105.798V27.0704H115.107V25.4454H116.875V23.8205H118.535V0.929615H115.107V23.8205Z" fill="#FFFBF6"/>
  <path d="M65.5742 27.0705V0.929688H69.9043V2.83726H72.0694V5.94589H73.9097V9.08985H75.75V12.2338H77.5903V15.2011H79.3584V18.3451H81.0905V0.929688H82.9669V27.0705H80.6214V25.0922H78.7089V21.9483H76.8325V18.8043H74.9562V15.6604H73.0798V12.5164H71.2034V9.40777H69.327V6.26382H67.4506V27.0705H65.5742Z" fill="#FFFBF6"/>
  <path fill-rule="evenodd" clip-rule="evenodd" d="M64.625 28V0H70.8543V1.90757H73.0194V5.0162H74.8597V8.16016H76.7V11.3041H78.5403V14.2714H80.1413V0H83.9168V28H79.6722V26.0218H77.7597V22.8778H75.8833V19.7339H74.0069V16.5899H72.1305V13.446H70.2542V10.3373H68.4006V28H64.625ZM67.451 6.26374H69.3274V9.4077H71.2038V12.5163H73.0801V15.6603H74.9565V18.8043H76.8329V21.9482H78.7093V25.0922H80.6218V27.0704H82.9673V0.929615H81.0909V18.345H79.3588V15.2011H77.5907V12.2337H75.7504V9.08978H73.9101V5.94582H72.0698V2.83718H69.9047V0.929615H65.5746V27.0704H67.451V6.26374Z" fill="#FFFBF6"/>
  <path d="M58.7949 2.484H54.6091V25.5161H58.7949V27.0705H47.1035V25.5161H51.1811V2.484H47.1035V0.929688H58.7949V2.484Z" fill="#FFFBF6"/>
  <path fill-rule="evenodd" clip-rule="evenodd" d="M59.7468 3.41355H55.561V24.5865H59.7468V28H46.1562V24.5865H50.2338V3.41355H46.1562V0H59.7468V3.41355ZM51.1834 2.48393V25.5161H47.1058V27.0704H58.7972V25.5161H54.6114V2.48393H58.7972V0.929615H47.1058V2.48393H51.1834Z" fill="#FFFBF6"/>
  <path d="M25.4831 23.8205H23.7871V4.1443H25.4831V2.55465H27.179V0.929688H36.9218V2.55465H38.6539V4.1443H40.3138V23.8205H38.6539V25.4455H36.9218V27.0705H27.179V25.4455H25.4831V23.8205ZM27.179 23.8205H28.875V25.4455H35.1898V23.8205H36.9218V4.17962H35.1898V2.55465H28.875V4.17962H27.179V23.8205Z" fill="#FFFBF6"/>
  <path fill-rule="evenodd" clip-rule="evenodd" d="M22.8379 24.7501V3.21461H24.5339V1.62497H26.2298V0H37.8718V1.62497H39.6038V3.21461H41.2637V24.7501H39.6038V26.375H37.8718V28H26.2298V26.375H24.5339V24.7501H22.8379ZM29.825 22.8908V24.5158H34.2406V22.8908H35.9726V5.10916H34.2406V3.4842H29.825V5.10916H28.129V22.8908H29.825ZM27.1794 4.17955H28.8754V2.55458H35.1901V4.17955H36.9222V23.8205H35.1901V25.4454H28.8754V23.8205H27.1794V4.17955ZM25.4834 23.8205V25.4454H27.1794V27.0704H36.9222V25.4454H38.6542V23.8205H40.3141V4.14422H38.6542V2.55458H36.9222V0.929615H27.1794V2.55458H25.4834V4.14422H23.7875V23.8205H25.4834Z" fill="#FFFBF6"/>
  <path d="M0.949219 23.8205V18.1685H4.34115V23.8205H6.0732V25.4455H10.4394V23.8205H12.0632L12.0993 0.929688H15.4912V23.8205H14.1922V25.4455H12.388V27.0705H4.34115V25.4455H2.6091V23.8205H0.949219Z" fill="#FFFBF6"/>
  <path fill-rule="evenodd" clip-rule="evenodd" d="M0 24.7501V17.2388H5.29111V22.8908H7.02316V24.5158H9.49019V22.8908H11.1155L11.1515 0H16.4412V24.7501H15.1421V26.375H13.3379V28H3.39193V26.375H1.65988V24.7501H0ZM12.0636 23.8205H10.4398V25.4454H6.07357V23.8205H4.34152V18.1684H0.949589V23.8205H2.60947V25.4454H4.34152V27.0704H12.3883V25.4454H14.1926V23.8205H15.4916V0.929615H12.0997L12.0636 23.8205Z" fill="#FFFBF6"/>
</svg>