<svg width="287" height="30" viewBox="0 0 287 30" fill="none" xmlns="http://www.w3.org/2000/svg">
<path d="M281.07 2.77476V1.16504H284.397V2.77476H286.078V27.9222H284.397V29.4961H282.68V2.77476H281.07ZM261.682 20.3744V12.5404H263.434V11.038H272.878V4.13408H262.182V2.63167H274.702V4.09831H276.455V11.0738H274.702V12.5404H265.223V20.3744H275.811V18.872H279.031V20.4817H277.421V21.9125H263.399V20.3744H261.682Z" fill="#1A1918" stroke="#1A1918" stroke-width="0.3"/>
<path d="M251.829 10.4656H257.266V12.0754H251.829V20.0524H250.148V21.6264H248.431V2.77476H246.821V1.16504H250.148V2.77476H251.829V10.4656ZM226.109 17.62V16.046H232.477V10.2152H230.831V8.60552H234.086V10.2152H235.696V16.046H246.106V17.62H226.109ZM227.898 3.74059V2.23818H242.35V3.66905H243.959V11.2526H242.35V12.8623H238.916V11.2526H240.597V3.74059H227.898ZM232.083 22.4491V20.8394H235.482V22.4491H237.413V28.101H249.933V26.6344H253.153V28.101H251.579V29.7107H235.517V28.101H233.729V22.4491H232.083Z" fill="#1A1918" stroke="#1A1918" stroke-width="0.3"/>
<path d="M193.986 15.4019H184.757V13.7922H183.076V12.3256H181.395V6.60212H183.076V5.17126H184.757V3.66885H187.655V0.807129H191.053V3.66885H193.986V5.17126H195.703V6.60212H197.349V12.3256H195.703V13.7922H193.986V15.4019ZM184.757 12.3256H186.438V13.7922H192.269V12.3256H193.986V6.63789H192.269V5.17126H186.438V6.63789H184.757V12.3256ZM186.868 20.3742V18.7644H190.159V20.3742H191.733V22.8424H203.001V18.9433H206.22V28.3155H204.682V29.8179H190.159V28.2439H188.477V20.3742H186.868ZM191.733 28.3155H203.001V24.3448H191.733V28.3155ZM202.321 2.77456V1.16484H205.648V2.77456H207.329V15.7596H205.648V17.3336H203.931V2.77456H202.321Z" fill="#1A1918" stroke="#1A1918" stroke-width="0.3"/>
<path d="M177.086 11.3957V12.9697H171.291V27.9222H169.609V29.4961H167.892V2.77476H166.283V1.16504H169.609V2.77476H171.291V11.3957H177.086ZM147.574 21.376V19.5874H149.935V17.7988H152.153V16.0102H154.371V14.2217H156.589V12.4331H158.806V4.84951H148.29V3.3471H160.738V4.77797H162.455V12.4331H160.667V14.2217H158.27V16.0102H156.088L156.052 17.7988H153.834V19.5874H151.616V21.376H147.574Z" fill="#1A1918" stroke="#1A1918" stroke-width="0.3"/>
<path d="M131.513 11.3957V12.9697H126.075V27.9222H124.394V29.4961H122.677V2.77476H121.067V1.16504H124.394V2.77476H126.075V11.3957H131.513ZM101.143 20.9467V19.2297H103.182V17.5842H105.221V15.9745H107.116V14.4005H108.726V4.88528H102.073V3.3471H118.671V4.88528H112.232V14.4005H113.841V15.9029H115.845V17.4769H117.812V19.0508H119.601V20.6248H116.202V19.0508H114.235V17.4769H112.232V15.9029H108.726V17.5842H106.83V19.2297H104.791V20.9467H101.143Z" fill="#1A1918" stroke="#1A1918" stroke-width="0.3"/>
<path d="M97.9789 8.49821V10.1079H92.5416V16.1175H90.8604V17.6915H89.1433V2.77476H87.5336V1.16504H90.8604V2.77476H92.5416V8.49821H97.9789ZM67.752 17.3696V15.581H70.2917V13.7924H72.4738V12.0038H74.6559V10.2152H76.8379V8.42666H78.8769V3.77636H68.7536V2.27396H80.8443V3.70482H82.6329V8.42666H80.7728V10.2152H78.5192V12.0038H76.3371V13.7924H74.1551V15.581H71.973V17.3696H67.752ZM72.438 21.2687V19.6589H91.4685V28.2441H89.7872V29.8181H75.729V28.2441H74.0477V21.2687H72.438ZM77.3745 28.2441H88.1417V21.1613H77.3745V28.2441Z" fill="#1A1918" stroke="#1A1918" stroke-width="0.3"/>
<path d="M47.4529 15.4019H38.2239V13.7922H36.5426V12.3256H34.8613V6.60212H36.5426V5.17126H38.2239V3.66885H41.1213V0.807129H44.5196V3.66885H47.4529V5.17126H49.1699V6.60212H50.8154V12.3256H49.1699V13.7922H47.4529V15.4019ZM38.2239 12.3256H39.9051V13.7922H45.7359V12.3256H47.4529V6.63789H45.7359V5.17126H39.9051V6.63789H38.2239V12.3256ZM40.3344 20.3742V18.7644H43.6254V20.3742H45.1993V22.8424H56.4673V18.9433H59.6868V28.3155H58.1486V29.8179H43.6254V28.2439H41.9441V20.3742H40.3344ZM45.1993 28.3155H56.4673V24.3448H45.1993V28.3155ZM55.7877 2.77456V1.16484H59.1144V2.77456H60.7957V15.7596H59.1144V17.3336H57.3974V2.77456H55.7877Z" fill="#1A1918" stroke="#1A1918" stroke-width="0.3"/>
<path d="M1.07812 17.5484V15.8314H3.04556V14.1859H5.19185V12.5762H7.15929V11.0022H8.94787V3.84791H7.30237V2.23818H10.808V3.84791H12.5966V11.0022H14.3136V12.5046H16.4241V14.007H18.3916V15.5094H20.0728V17.0118H16.7818V15.5094H14.7071V14.007H12.5966V12.5046H8.94787V14.1859H6.80157V15.8314H4.65528V17.5484H1.07812ZM6.80157 22.0914V20.4817H10.1999V22.0914H12.06V28.101H25.0093V26.6344H28.2287V28.101H26.6548V29.7107H10.2356V28.101H8.44706V22.0914H6.80157ZM22.2549 2.77476V1.16504H25.5816V2.77476H27.2629V19.6947H25.5816V21.2687H23.8646V2.77476H22.2549Z" fill="#1A1918" stroke="#1A1918" stroke-width="0.3"/>
</svg>
