<svg width="255" height="190" viewBox="0 0 255 190" fill="none" xmlns="http://www.w3.org/2000/svg">
<g filter="url(#filter0_d_5945_5554)">
<path d="M217 164V158H38V164H217Z" fill="#DFDDDA"/>
<path d="M32 158H38V152H32V158Z" fill="#DFDDDA"/>
<path d="M26 152H32V146H26V152Z" fill="#DFDDDA"/>
<path d="M217 158H223V152H217V158Z" fill="#DFDDDA"/>
<path d="M223 152H229V146H223V152Z" fill="#DFDDDA"/>
<path d="M217 170V164H38V170H217Z" fill="#6A6967"/>
<path d="M32 164H38V158H32V164Z" fill="#6A6967"/>
<path d="M26 158H32V152H26V158Z" fill="#6A6967"/>
<path d="M217 164H223V158H217V164Z" fill="#6A6967"/>
<path d="M223 158H229V152H223V158Z" fill="#6A6967"/>
<path d="M217 176V170H38L38 176H217Z" fill="#363532"/>
<path d="M235 88H229V158H235L235 88Z" fill="#363532"/>
<path d="M20 88H26L26 158H20L20 88Z" fill="#363532"/>
<path d="M223 88H229V82H223V88Z" fill="#363532"/>
<path d="M223 164H229V158H223V164Z" fill="#363532"/>
<path d="M32 164H26L26 158H32V164Z" fill="#363532"/>
<path d="M217 170H223V164H217V170Z" fill="#363532"/>
<path d="M38 170H32L32 164H38V170Z" fill="#363532"/>
<path d="M26 88H32V82H26L26 88Z" fill="#363532"/>
<path d="M38 147H44V141H38V147Z" fill="#363532"/>
<path d="M211 26V32H44V26H211Z" fill="#363532"/>
<path d="M38 38V32H44V38H38Z" fill="#363532"/>
<path d="M38 38V141H32V38H38Z" fill="#363532"/>
<path d="M217 38V32H211V38H217Z" fill="#363532"/>
<path d="M217 141H223V38H217V141Z" fill="#363532"/>
<path d="M211 147V141H217V147H211Z" fill="#363532"/>
<path d="M211 147H44V153H211V147Z" fill="#363532"/>
<path d="M26 88H32L32 146H26L26 88Z" fill="#AAA9A6"/>
<path d="M229 88H223V146H229V88Z" fill="#AAA9A6"/>
<path d="M32 141H38V147H32V141Z" fill="#AAA9A6"/>
<path d="M223 141H217V147H223V141Z" fill="#AAA9A6"/>
<path d="M38 153H217V158H38V153Z" fill="#AAA9A6"/>
<path d="M32 147H44V153H32V147Z" fill="#AAA9A6"/>
<path d="M223 147H211V153H223V147Z" fill="#AAA9A6"/>
<path d="M211 102V96L44 96V102L211 102Z" fill="#FFE37D"/>
<path d="M38 96H44V90H38V96Z" fill="#FFE37D"/>
<path d="M211 96L217 96V90H211V96Z" fill="#FFE37D"/>
<path d="M211 32V38H44V32H211Z" fill="#FFE37D"/>
<path d="M38 38H44V44H38V38Z" fill="#FFE37D"/>
<path d="M211 38H217V44H211V38Z" fill="#FFE37D"/>
<path d="M38 44H44V50H38V44Z" fill="#FFA000"/>
<path d="M38 90H44V84H38V90Z" fill="#FFA000"/>
<path d="M217 44H211V50H217V44Z" fill="#FFA000"/>
<path d="M217 90H211V84H217V90Z" fill="#FFA000"/>
<path d="M44 38H50V44L44 44V38Z" fill="#FFA000"/>
<path d="M44 96H50V90H44V96Z" fill="#FFA000"/>
<path d="M211 38H205V44L211 44V38Z" fill="#FFA000"/>
<path d="M211 96L205 96V90H211V96Z" fill="#FFA000"/>
<path d="M44 50H38V84H44V90H50V96H205V90H211V84H217V50H211V44L205 44V38H50V44L44 44V50Z" fill="#FFC700"/>
<path d="M44 96H38V141H44V147H211V141H217V96L211 96V102L44 102V96Z" fill="#FFA000"/>
<path d="M181.668 77.8205V72.5217H185.06V77.8205H186.792V79.4455H192.602V77.8205H194.225V73.3342H192.385V71.5326H190.581V69.731H188.849V67.9647H187.117V66.1632H185.349V64.3969H183.689V62.5246H181.884V58.1443H183.617V56.5547H185.457V54.9297H194.442V56.5547H196.174V58.1443H197.834V62.7366H194.442V58.1796H192.71V56.5547H187.369V58.1796H185.673V62.1714H187.478V64.0083H189.282V65.8099H191.122V67.5762H192.854V69.3778H194.658V71.144H196.426V72.9456H198.05V77.8205H196.354V79.4455H194.55V81.0705H185.06V79.4455H183.328V77.8205H181.668Z" fill="#FEA564"/>
<path fill-rule="evenodd" clip-rule="evenodd" d="M180.719 78.7501V71.592H186.01V76.8908H187.742V78.5158H191.652V76.8908H193.276V74.2637H191.436V72.4622H189.632V70.6606H187.9V68.8943H186.167V67.0927H184.399V65.3264H182.739V63.4542H180.935V57.2146H182.667V55.625H184.508V54H195.392V55.625H197.124V57.2146H198.784V63.6661H193.493V59.1092H191.761V57.4842H188.319V59.1092H186.623V61.2417H188.428V63.0786H190.232V64.8802H192.072V66.6465H193.804V68.4481H195.608V70.2143H197.376V72.0159H199V78.7501H197.304V80.375H195.5V82H184.111V80.375H182.379V78.7501H180.719ZM185.674 58.1795H187.37V56.5546H192.71V58.1795H194.442V62.7365H197.834V58.1442H196.174V56.5546H194.442V54.9296H185.457V56.5546H183.617V58.1442H181.885V62.5246H183.689V64.3968H185.349V66.1631H187.117V67.9647H188.849V69.7309H190.581V71.5325H192.385V73.3341H194.226V77.8205H192.602V79.4454H186.792V77.8205H185.06V72.5216H181.668V77.8205H183.328V79.4454H185.06V81.0704H194.55V79.4454H196.355V77.8205H198.051V72.9456H196.427V71.144H194.659V69.3777H192.854V67.5761H191.122V65.8098H189.282V64.0082H187.478V62.1713H185.674V58.1795Z" fill="#FEA564"/>
<path d="M157.369 77.8205V54.9297H160.797V77.8205H162.493V79.4455H168.375V77.8205H170.107V54.9297H173.535V77.8205H171.875V79.4455H170.107V81.0705H160.797V79.4455H159.065V77.8205H157.369Z" fill="#FEA564"/>
<path fill-rule="evenodd" clip-rule="evenodd" d="M156.42 78.7501V54H161.747V76.8908H163.443V78.5158H167.426V76.8908H169.158V54H174.485V78.7501H172.825V80.375H171.057V82H159.848V80.375H158.116V78.7501H156.42ZM170.107 77.8205H168.375V79.4454H162.493V77.8205H160.798V54.9296H157.37V77.8205H159.065V79.4454H160.798V81.0704H170.107V79.4454H171.875V77.8205H173.535V54.9296H170.107V77.8205Z" fill="#FEA564"/>
<path d="M120.574 81.0705V54.9297H124.904V56.8373H127.069V59.9459H128.91V63.0898H130.75V66.2338H132.59V69.2011H134.358V72.3451H136.091V54.9297H137.967V81.0705H135.621V79.0922H133.709V75.9483H131.833V72.8043H129.956V69.6604H128.08V66.5164H126.203V63.4078H124.327V60.2638H122.451V81.0705H120.574Z" fill="#FEA564"/>
<path fill-rule="evenodd" clip-rule="evenodd" d="M119.625 82V54H125.854V55.9076H128.019V59.0162H129.86V62.1602H131.7V65.3041H133.54V68.2714H135.141V54H138.917V82H134.672V80.0218H132.76V76.8778H130.883V73.7339H129.007V70.5899H127.131V67.446H125.254V64.3373H123.401V82H119.625ZM122.451 60.2637H124.327V63.4077H126.204V66.5163H128.08V69.6603H129.957V72.8043H131.833V75.9482H133.709V79.0922H135.622V81.0704H137.967V54.9296H136.091V72.345H134.359V69.2011H132.591V66.2337H130.75V63.0898H128.91V59.9458H127.07V56.8372H124.905V54.9296H120.575V81.0704H122.451V60.2637Z" fill="#FEA564"/>
<path d="M113.795 56.484H109.609V79.5161H113.795V81.0705H102.104V79.5161H106.181V56.484H102.104V54.9297H113.795V56.484Z" fill="#FEA564"/>
<path fill-rule="evenodd" clip-rule="evenodd" d="M114.747 57.4135H110.561V78.5865H114.747V82H101.156V78.5865H105.234V57.4135H101.156V54H114.747V57.4135ZM106.183 56.4839V79.5161H102.106V81.0704H113.797V79.5161H109.611V56.4839H113.797V54.9296H102.106V56.4839H106.183Z" fill="#FEA564"/>
<path d="M80.4831 77.8205H78.7871V58.1443H80.4831V56.5547H82.179V54.9297H91.9218V56.5547H93.6539V58.1443H95.3138V77.8205H93.6539V79.4455H91.9218V81.0705H82.179V79.4455H80.4831V77.8205ZM82.179 77.8205H83.875V79.4455H90.1898V77.8205H91.9218V58.1796H90.1898V56.5547H83.875V58.1796H82.179V77.8205Z" fill="#FEA564"/>
<path fill-rule="evenodd" clip-rule="evenodd" d="M77.8379 78.7501V57.2146H79.5339V55.625H81.2298V54H92.8718V55.625H94.6038V57.2146H96.2637V78.7501H94.6038V80.375H92.8718V82H81.2298V80.375H79.5339V78.7501H77.8379ZM84.825 76.8908V78.5158H89.2406V76.8908H90.9726V59.1092H89.2406V57.4842H84.825V59.1092H83.129V76.8908H84.825ZM82.1794 58.1795H83.8754V56.5546H90.1901V58.1795H91.9222V77.8205H90.1901V79.4454H83.8754V77.8205H82.1794V58.1795ZM80.4834 77.8205V79.4454H82.1794V81.0704H91.9222V79.4454H93.6542V77.8205H95.3141V58.1442H93.6542V56.5546H91.9222V54.9296H82.1794V56.5546H80.4834V58.1442H78.7875V77.8205H80.4834Z" fill="#FEA564"/>
<path d="M55.9492 77.8205V72.1685H59.3412V77.8205H61.0732V79.4455H65.4394V77.8205H67.0632L67.0993 54.9297H70.4912V77.8205H69.1922V79.4455H67.388V81.0705H59.3412V79.4455H57.6091V77.8205H55.9492Z" fill="#FEA564"/>
<path fill-rule="evenodd" clip-rule="evenodd" d="M55 78.7501V71.2388H60.2911V76.8908H62.0232V78.5158H64.4902V76.8908H66.1155L66.1515 54H71.4412V78.7501H70.1421V80.375H68.3379V82H58.3919V80.375H56.6599V78.7501H55ZM67.0636 77.8205H65.4398V79.4454H61.0736V77.8205H59.3415V72.1684H55.9496V77.8205H57.6095V79.4454H59.3415V81.0704H67.3883V79.4454H69.1926V77.8205H70.4916V54.9296H67.0997L67.0636 77.8205Z" fill="#FEA564"/>
<path d="M181.668 74.8205V69.5217H185.06V74.8205H186.792V76.4455H192.602V74.8205H194.225V70.3342H192.385V68.5326H190.581V66.731H188.849V64.9647H187.117V63.1632H185.349V61.3969H183.689V59.5246H181.884V55.1443H183.617V53.5547H185.457V51.9297H194.442V53.5547H196.174V55.1443H197.834V59.7366H194.442V55.1796H192.71V53.5547H187.369V55.1796H185.673V59.1714H187.478V61.0083H189.282V62.8099H191.122V64.5762H192.854V66.3778H194.658V68.144H196.426V69.9456H198.05V74.8205H196.354V76.4455H194.55V78.0705H185.06V76.4455H183.328V74.8205H181.668Z" fill="#FFEBA3"/>
<path fill-rule="evenodd" clip-rule="evenodd" d="M180.719 75.7501V68.592H186.01V73.8908H187.742V75.5158H191.652V73.8908H193.276V71.2637H191.436V69.4622H189.632V67.6606H187.9V65.8943H186.167V64.0927H184.399V62.3264H182.739V60.4542H180.935V54.2146H182.667V52.625H184.508V51H195.392V52.625H197.124V54.2146H198.784V60.6661H193.493V56.1092H191.761V54.4842H188.319V56.1092H186.623V58.2417H188.428V60.0786H190.232V61.8802H192.072V63.6465H193.804V65.4481H195.608V67.2143H197.376V69.0159H199V75.7501H197.304V77.375H195.5V79H184.111V77.375H182.379V75.7501H180.719ZM185.674 55.1795H187.37V53.5546H192.71V55.1795H194.442V59.7365H197.834V55.1442H196.174V53.5546H194.442V51.9296H185.457V53.5546H183.617V55.1442H181.885V59.5246H183.689V61.3968H185.349V63.1631H187.117V64.9647H188.849V66.7309H190.581V68.5325H192.385V70.3341H194.226V74.8205H192.602V76.4454H186.792V74.8205H185.06V69.5216H181.668V74.8205H183.328V76.4454H185.06V78.0704H194.55V76.4454H196.355V74.8205H198.051V69.9456H196.427V68.144H194.659V66.3777H192.854V64.5761H191.122V62.8098H189.282V61.0082H187.478V59.1713H185.674V55.1795Z" fill="#FFEBA3"/>
<path d="M157.369 74.8205V51.9297H160.797V74.8205H162.493V76.4455H168.375V74.8205H170.107V51.9297H173.535V74.8205H171.875V76.4455H170.107V78.0705H160.797V76.4455H159.065V74.8205H157.369Z" fill="#FFEBA3"/>
<path fill-rule="evenodd" clip-rule="evenodd" d="M156.42 75.7501V51H161.747V73.8908H163.443V75.5158H167.426V73.8908H169.158V51H174.485V75.7501H172.825V77.375H171.057V79H159.848V77.375H158.116V75.7501H156.42ZM170.107 74.8205H168.375V76.4454H162.493V74.8205H160.798V51.9296H157.37V74.8205H159.065V76.4454H160.798V78.0704H170.107V76.4454H171.875V74.8205H173.535V51.9296H170.107V74.8205Z" fill="#FFEBA3"/>
<path d="M120.574 78.0705V51.9297H124.904V53.8373H127.069V56.9459H128.91V60.0898H130.75V63.2338H132.59V66.2011H134.358V69.3451H136.091V51.9297H137.967V78.0705H135.621V76.0922H133.709V72.9483H131.833V69.8043H129.956V66.6604H128.08V63.5164H126.203V60.4078H124.327V57.2638H122.451V78.0705H120.574Z" fill="#FFEBA3"/>
<path fill-rule="evenodd" clip-rule="evenodd" d="M119.625 79V51H125.854V52.9076H128.019V56.0162H129.86V59.1602H131.7V62.3041H133.54V65.2714H135.141V51H138.917V79H134.672V77.0218H132.76V73.8778H130.883V70.7339H129.007V67.5899H127.131V64.446H125.254V61.3373H123.401V79H119.625ZM122.451 57.2637H124.327V60.4077H126.204V63.5163H128.08V66.6603H129.957V69.8043H131.833V72.9482H133.709V76.0922H135.622V78.0704H137.967V51.9296H136.091V69.345H134.359V66.2011H132.591V63.2337H130.75V60.0898H128.91V56.9458H127.07V53.8372H124.905V51.9296H120.575V78.0704H122.451V57.2637Z" fill="#FFEBA3"/>
<path d="M113.795 53.484H109.609V76.5161H113.795V78.0705H102.104V76.5161H106.181V53.484H102.104V51.9297H113.795V53.484Z" fill="#FFEBA3"/>
<path fill-rule="evenodd" clip-rule="evenodd" d="M114.747 54.4135H110.561V75.5865H114.747V79H101.156V75.5865H105.234V54.4135H101.156V51H114.747V54.4135ZM106.183 53.4839V76.5161H102.106V78.0704H113.797V76.5161H109.611V53.4839H113.797V51.9296H102.106V53.4839H106.183Z" fill="#FFEBA3"/>
<path d="M80.4831 74.8205H78.7871V55.1443H80.4831V53.5547H82.179V51.9297H91.9218V53.5547H93.6539V55.1443H95.3138V74.8205H93.6539V76.4455H91.9218V78.0705H82.179V76.4455H80.4831V74.8205ZM82.179 74.8205H83.875V76.4455H90.1898V74.8205H91.9218V55.1796H90.1898V53.5547H83.875V55.1796H82.179V74.8205Z" fill="#FFEBA3"/>
<path fill-rule="evenodd" clip-rule="evenodd" d="M77.8379 75.7501V54.2146H79.5339V52.625H81.2298V51H92.8718V52.625H94.6038V54.2146H96.2637V75.7501H94.6038V77.375H92.8718V79H81.2298V77.375H79.5339V75.7501H77.8379ZM84.825 73.8908V75.5158H89.2406V73.8908H90.9726V56.1092H89.2406V54.4842H84.825V56.1092H83.129V73.8908H84.825ZM82.1794 55.1795H83.8754V53.5546H90.1901V55.1795H91.9222V74.8205H90.1901V76.4454H83.8754V74.8205H82.1794V55.1795ZM80.4834 74.8205V76.4454H82.1794V78.0704H91.9222V76.4454H93.6542V74.8205H95.3141V55.1442H93.6542V53.5546H91.9222V51.9296H82.1794V53.5546H80.4834V55.1442H78.7875V74.8205H80.4834Z" fill="#FFEBA3"/>
<path d="M55.9492 74.8205V69.1685H59.3412V74.8205H61.0732V76.4455H65.4394V74.8205H67.0632L67.0993 51.9297H70.4912V74.8205H69.1922V76.4455H67.388V78.0705H59.3412V76.4455H57.6091V74.8205H55.9492Z" fill="#FFEBA3"/>
<path fill-rule="evenodd" clip-rule="evenodd" d="M55 75.7501V68.2388H60.2911V73.8908H62.0232V75.5158H64.4902V73.8908H66.1155L66.1515 51H71.4412V75.7501H70.1421V77.375H68.3379V79H58.3919V77.375H56.6599V75.7501H55ZM67.0636 74.8205H65.4398V76.4454H61.0736V74.8205H59.3415V69.1684H55.9496V74.8205H57.6095V76.4454H59.3415V78.0704H67.3883V76.4454H69.1926V74.8205H70.4916V51.9296H67.0997L67.0636 74.8205Z" fill="#FFEBA3"/>
</g>
<defs>
<filter id="filter0_d_5945_5554" x="0" y="0" width="255" height="190" filterUnits="userSpaceOnUse" color-interpolation-filters="sRGB">
<feFlood flood-opacity="0" result="BackgroundImageFix"/>
<feColorMatrix in="SourceAlpha" type="matrix" values="0 0 0 0 0 0 0 0 0 0 0 0 0 0 0 0 0 0 127 0" result="hardAlpha"/>
<feOffset dy="-6"/>
<feGaussianBlur stdDeviation="10"/>
<feComposite in2="hardAlpha" operator="out"/>
<feColorMatrix type="matrix" values="0 0 0 0 1 0 0 0 0 0.913412 0 0 0 0 0.458824 0 0 0 1 0"/>
<feBlend mode="normal" in2="BackgroundImageFix" result="effect1_dropShadow_5945_5554"/>
<feBlend mode="normal" in="SourceGraphic" in2="effect1_dropShadow_5945_5554" result="shape"/>
</filter>
</defs>
</svg>
