<svg width="26" height="26" viewBox="0 0 26 26" fill="none" xmlns="http://www.w3.org/2000/svg">
<path fill-rule="evenodd" clip-rule="evenodd" d="M0 11.255C0 5.6233 5.79871 0.984375 12.9891 0.984375C20.1702 0.984375 25.9968 5.61402 25.9968 11.255C25.9968 16.896 20.1888 21.5349 13.0077 21.5349C12.2224 21.5311 11.4383 21.4754 10.6604 21.368L5.39048 24.9214C5.32794 24.9751 5.24998 25.0076 5.16781 25.0142C5.06871 25.0139 4.97308 24.9777 4.89875 24.9121C4.84778 24.8608 4.8121 24.7963 4.79572 24.7258C4.77933 24.6553 4.78288 24.5818 4.80597 24.5132L6.03066 19.9391C2.41226 18.1114 0 14.9105 0 11.255ZM8.8648 8.30536C8.73238 8.39161 8.63655 8.52382 8.59574 8.6765L6.62882 14.0113C6.61839 14.04 6.60576 14.0694 6.59299 14.0992C6.56033 14.1753 6.52676 14.2535 6.52676 14.3268C6.51083 14.4189 6.51083 14.513 6.52676 14.6051C6.52184 14.6576 6.52184 14.7104 6.52676 14.7629C6.55394 14.9167 6.63643 15.0552 6.75871 15.1525C6.88421 15.2467 7.03788 15.2958 7.19477 15.2917C7.33961 15.3099 7.48628 15.2773 7.60978 15.1995C7.73328 15.1217 7.82598 15.0034 7.87206 14.8649L8.26174 13.7238H10.7018L11.0915 14.8649C11.1387 15.0008 11.2303 15.1167 11.3515 15.1942C11.4727 15.2716 11.6164 15.3059 11.7595 15.2917C11.8526 15.2939 11.9451 15.277 12.0313 15.2418C12.1175 15.2067 12.1955 15.1542 12.2605 15.0876C12.3276 15.0269 12.3806 14.9522 12.4159 14.8689C12.4511 14.7856 12.4678 14.6955 12.4646 14.6051C12.4678 14.5464 12.4678 14.4876 12.4646 14.4289C12.4324 14.2875 12.3921 14.1481 12.344 14.0113L10.4884 8.76925C10.4441 8.58349 10.3315 8.42122 10.173 8.31464C10.0234 8.22963 9.85318 8.18787 9.68126 8.19403H9.3287C9.16668 8.1868 9.0059 8.22539 8.8648 8.30536ZM8.64213 12.6753L9.52354 9.89196L10.3957 12.6753H8.64213ZM3.12956 9.63083H4.54908L4.55836 14.511C4.54919 14.5788 4.54919 14.6474 4.55836 14.7151C4.58886 14.8799 4.67781 15.0282 4.80886 15.1327C4.94652 15.2396 5.11707 15.2953 5.29131 15.2904C5.39093 15.2943 5.49028 15.2774 5.58296 15.2406C5.67564 15.2039 5.75959 15.1481 5.82944 15.077C5.90227 15.0026 5.95885 14.9138 5.99558 14.8164C6.03232 14.7189 6.04841 14.615 6.04283 14.511V9.63083H7.41596C7.61221 9.63981 7.80555 9.58078 7.96336 9.46378C8.03669 9.40524 8.0951 9.33021 8.13381 9.24474C8.17251 9.15927 8.19041 9.06586 8.18603 8.97213C8.19056 8.92585 8.19056 8.87922 8.18603 8.83294C8.17359 8.75426 8.14383 8.67935 8.0989 8.61356C8.05398 8.54778 7.99501 8.49274 7.92625 8.45251C7.77753 8.35571 7.60258 8.30709 7.42524 8.31332H3.14811C2.94842 8.31064 2.75319 8.37252 2.59144 8.48966C2.51826 8.54625 2.45982 8.61962 2.42106 8.7036C2.38229 8.78759 2.36436 8.87974 2.36877 8.97213C2.36426 9.02151 2.36426 9.07112 2.36877 9.1205C2.38352 9.19838 2.41421 9.27238 2.45892 9.33784C2.50362 9.4033 2.56137 9.45884 2.62855 9.50093C2.77985 9.59087 2.95361 9.63593 3.12956 9.63083ZM12.6771 8.97337C12.6677 8.76516 12.7411 8.5617 12.8812 8.40743C12.9525 8.33557 13.038 8.2794 13.1323 8.24264C13.2266 8.20589 13.3275 8.18926 13.4286 8.19394C13.6024 8.19191 13.772 8.2474 13.9111 8.35171C14.0399 8.46054 14.1255 8.61192 14.1523 8.77846C14.1614 8.84308 14.1614 8.90875 14.1523 8.97337V13.8536H16.7037C16.8806 13.8513 17.0544 13.8995 17.2048 13.9927C17.2723 14.0343 17.3303 14.0898 17.3751 14.1553C17.4199 14.2208 17.4503 14.295 17.4645 14.3731V14.5123C17.4689 14.6047 17.451 14.6967 17.4122 14.7807C17.3735 14.8647 17.315 14.9382 17.2419 14.9947C17.0801 15.1119 16.8849 15.1737 16.6852 15.171H13.5492C13.3495 15.1838 13.151 15.1318 12.9833 15.0226C12.8333 14.9104 12.7333 14.7439 12.705 14.5587C12.6982 14.4568 12.6982 14.3544 12.705 14.2525L12.6771 8.97337ZM17.8361 8.40677C17.6993 8.56304 17.6264 8.76511 17.6319 8.97271L17.5763 14.4652C17.5671 14.5329 17.5671 14.6017 17.5763 14.6694C17.6068 14.8342 17.6957 14.9824 17.8268 15.0868C17.9616 15.1924 18.1288 15.2482 18.3 15.2446C18.4024 15.2489 18.5046 15.2322 18.6004 15.1955C18.6961 15.1588 18.7833 15.1028 18.8566 15.0311C18.9934 14.8749 19.0663 14.6728 19.0608 14.4652V12.9158L19.8865 12.0529L21.6122 14.8363C21.6837 14.9668 21.7855 15.0782 21.9091 15.161C22.0233 15.221 22.1513 15.2499 22.2802 15.2446C22.4742 15.2473 22.6635 15.1852 22.8183 15.0683C22.9006 14.9983 22.9647 14.9094 23.0051 14.8093C23.0455 14.7091 23.061 14.6005 23.0503 14.493V14.4467C22.9991 14.2907 22.9239 14.1435 22.8276 14.0106V13.9178L20.972 11.0417L22.5121 9.35303C22.5801 9.27636 22.6392 9.19243 22.6884 9.10262C22.7368 9.01779 22.7623 8.92186 22.7626 8.82423C22.7581 8.80282 22.7581 8.78075 22.7626 8.75934C22.7664 8.74097 22.7664 8.72198 22.7626 8.70362C22.7494 8.62872 22.7213 8.55729 22.6798 8.49353C22.6384 8.42976 22.5845 8.37495 22.5214 8.33248C22.3875 8.24097 22.229 8.1924 22.0668 8.19328C21.9559 8.19111 21.8466 8.22012 21.7514 8.27687C21.6502 8.35747 21.5542 8.44414 21.4637 8.53656L19.1164 11.2458V8.97271C19.121 8.90785 19.121 8.84266 19.1164 8.7778C19.0864 8.61024 18.9976 8.45892 18.8659 8.35105C18.7141 8.24042 18.5287 8.18552 18.3411 8.19566C18.1535 8.2058 17.9751 8.28042 17.8361 8.40677Z" fill="#FFFBF6"/>
</svg>
