<svg width="14" height="14" viewBox="0 0 14 14" fill="none" xmlns="http://www.w3.org/2000/svg">
<path d="M8.55812 11.1914V12.2212H8.04322V12.7361H5.98364V12.2212H5.46875V11.1914H8.55812Z" fill="#DC4200"/>
<path d="M11.6502 9.64651V9.13162H11.1353V8.10183H10.6204V5.01246H10.1055V3.98268H9.5906V3.46778H9.07571V2.95289H8.04592V2.43799H7.53103V1.4082H6.50124V2.43799H5.98634V2.95289H4.95655V3.46778H4.44166V3.98268H3.92676V5.01246H3.41187V8.10183H2.89698V9.13162H2.38208V9.64651H1.86719V10.1614H2.38208V10.6763H11.6502V10.1614H12.1651V9.64651H11.6502ZM8.04592 3.98268V5.52736H7.53103V7.07204H6.50124V5.52736H5.98634V3.98268H8.04592ZM6.50124 8.10183H7.53103V9.13162H6.50124V8.10183Z" fill="#DC4200"/>
</svg>
