<svg width="18" height="19" viewBox="0 0 18 19" fill="none" xmlns="http://www.w3.org/2000/svg">
<g clip-path="url(#clip0_11154_10896)">
<path d="M17.2106 1.65576V7.3945H15.7759V6.67716H15.0586V5.95982H14.3413V6.67716H13.6239V7.3945H12.9066V8.11184H12.1892V8.82918H11.4719V9.54653H10.7545V10.2639H10.0372V10.9812H9.31986V11.6986H8.60252V12.4159H7.88518V13.1332H7.16784V13.8506H6.45049V13.1332H5.73315V12.4159H5.01581V11.6986H5.73315V10.9812H6.45049V10.2639H7.16784V9.54653H7.88518V8.82918H8.60252V8.11184H9.31986V7.3945H10.0372V6.67716H10.7545V5.95982H11.4719V5.24247H12.1892V4.52513H12.9066V3.80779H12.1892V3.09045H11.4719V1.65576H17.2106Z" fill="#363532"/>
<path d="M15.0586 11.6984V16.7198H14.3412V17.4371H2.14642V16.7198H1.42908V4.52496H2.14642V3.80762H8.6025V5.95964H3.5811V15.2851H12.9066V11.6984H15.0586Z" fill="#363532"/>
</g>
<defs>
<clipPath id="clip0_11154_10896">
<rect width="17.2162" height="17.2162" fill="white" transform="translate(0.711731 0.938477)"/>
</clipPath>
</defs>
</svg>
