<svg width="215" height="105" viewBox="0 0 215 105" fill="none" xmlns="http://www.w3.org/2000/svg">
<path d="M197 93V87L18 87V93L197 93Z" fill="#DFDDDA"/>
<path d="M12 87H18V81H12V87Z" fill="#DFDDDA"/>
<path d="M6 81H12V75H6V81Z" fill="#DFDDDA"/>
<path d="M197 87L203 87V81H197V87Z" fill="#DFDDDA"/>
<path d="M203 81H209V75H203V81Z" fill="#DFDDDA"/>
<path d="M197 99V93L18 93V99L197 99Z" fill="#6A6967"/>
<path d="M12 93L18 93V87H12V93Z" fill="#6A6967"/>
<path d="M6 87H12V81H6V87Z" fill="#6A6967"/>
<path d="M197 93H203V87L197 87V93Z" fill="#6A6967"/>
<path d="M203 87H209V81H203V87Z" fill="#6A6967"/>
<path d="M197 105V99L18 99L18 105L197 105Z" fill="#363532"/>
<path d="M215 17H209V87H215L215 17Z" fill="#363532"/>
<path d="M6.11959e-06 17H6.00001L6 87H0L6.11959e-06 17Z" fill="#363532"/>
<path d="M203 17H209V11H203V17Z" fill="#363532"/>
<path d="M203 93H209V87H203V93Z" fill="#363532"/>
<path d="M12 93H6.00001L6 87H12V93Z" fill="#363532"/>
<path d="M197 99H203V93H197V99Z" fill="#363532"/>
<path d="M18 99L12 99L12 93L18 93V99Z" fill="#363532"/>
<path d="M6.00001 17H12V11H6.00001L6.00001 17Z" fill="#363532"/>
<path d="M18 76H24V70H18V76Z" fill="#363532"/>
<path d="M191 0V6H24V0H191Z" fill="#363532"/>
<path d="M18 12V6H24V12H18Z" fill="#363532"/>
<path d="M18 12V70H12V12H18Z" fill="#363532"/>
<path d="M197 12V6H191V12H197Z" fill="#363532"/>
<path d="M197 70H203V12H197V70Z" fill="#363532"/>
<path d="M191 76V70H197V76H191Z" fill="#363532"/>
<path d="M191 76H24V82H191V76Z" fill="#363532"/>
<path d="M6.00001 17H12L12 75H6L6.00001 17Z" fill="#AAA9A6"/>
<path d="M209 17H203V75H209V17Z" fill="#AAA9A6"/>
<path d="M12 70H18V76H12V70Z" fill="#AAA9A6"/>
<path d="M203 70H197V76H203V70Z" fill="#AAA9A6"/>
<path d="M18 82H197V87L18 87V82Z" fill="#AAA9A6"/>
<path d="M12 76H24V82H12V76Z" fill="#AAA9A6"/>
<path d="M203 76H191V82H203V76Z" fill="#AAA9A6"/>
<path d="M191 76V70H24V76H191Z" fill="#FF7BE2"/>
<path d="M18 70H24V64H18V70Z" fill="#FF7BE2"/>
<path d="M191 70H197V64H191V70Z" fill="#FF7BE2"/>
<path d="M191 6V12H24V6H191Z" fill="#FF7BE2"/>
<path d="M18 12H24V18H18V12Z" fill="#FF7BE2"/>
<path d="M191 12H197V18H191V12Z" fill="#FF7BE2"/>
<path d="M18 18H24V24H18V18Z" fill="#FFFCF4"/>
<path d="M18 64H24V58H18V64Z" fill="#FFFCF4"/>
<path d="M197 18H191V24H197V18Z" fill="#FFFCF4"/>
<path d="M197 64H191V58H197V64Z" fill="#FFFCF4"/>
<path d="M24 12H30V18L24 18V12Z" fill="#FFFCF4"/>
<path d="M24 70H30V64H24V70Z" fill="#FFFCF4"/>
<path d="M191 12H185V18L191 18V12Z" fill="#FFFCF4"/>
<path d="M191 70H185V64H191V70Z" fill="#FFFCF4"/>
<path d="M24 24H18V58H24V64H30V70H185V64H191V58H197V24H191V18L185 18V12H30V18L24 18V24Z" fill="url(#paint0_linear_6378_8583)"/>
<path d="M140.89 45.16H131.86V43.585H130.215V42.15H128.57V35.92H130.215V34.52H131.86V33.05H134.695V30.25H138.02V33.05H140.89V34.52H142.57V35.92H144.18V42.15H142.57V43.585H140.89V45.16ZM131.86 42.15H133.505V43.585H139.21V42.15H140.89V35.955H139.21V34.52H133.505V35.955H131.86V42.15ZM134.275 50.725V49.15H137.6V50.725H139.385V56.605H151.39V55.17H154.54V56.605H153V58.18H137.635V56.605H135.885V50.725H134.275ZM148.695 31.825V30.25H151.95V31.825H153.595V48.38H151.95V49.92H150.27V31.825H148.695Z" fill="#363532"/>
<path fill-rule="evenodd" clip-rule="evenodd" d="M134.445 30H138.27V32.8H141.14V34.27H142.82V35.67H144.43V42.4H142.82V43.835H141.14V45.41H131.61V43.835H129.965V42.4H128.32V35.67H129.965V34.27H131.61V32.8H134.445V30ZM134.945 30.5V33.3H132.11V34.77H130.465V36.17H128.82V41.9H130.465V43.335H132.11V44.91H140.64V43.335H142.32V41.9H143.93V36.17H142.32V34.77H140.64V33.3H137.77V30.5H134.945ZM148.445 30H152.2V31.575H153.845V48.63H152.2V50.17H150.02V32.075H148.445V30ZM148.945 30.5V31.575H150.52V49.67H151.7V48.13H153.345V32.075H151.7V30.5H148.945ZM133.255 34.27H139.46V35.705H141.14V42.4H139.46V43.835H133.255V42.4H131.61V35.705H133.255V34.27ZM133.755 34.77V36.205H132.11V41.9H133.755V43.335H138.96V41.9H140.64V36.205H138.96V34.77H133.755ZM134.025 48.9H137.85V50.475H139.635V56.355H151.14V54.92H154.79V56.855H153.25V58.43H137.385V56.855H135.635V50.975H134.025V48.9ZM134.525 49.4V50.475H136.135V56.355H137.885V57.93H152.75V56.355H154.29V55.42H151.64V56.855H139.135V50.975H137.35V49.4H134.525Z" fill="#363532"/>
<path d="M98.8041 33.6448V32.1748H116.514V33.5748H118.264V43.6198H116.514V46.6998H114.729V48.3098H111.439V46.6998H113.084V43.6198H114.729V33.6448H98.8041ZM95.1641 53.5598V52.0198H122.744V53.5598H95.1641Z" fill="#363532"/>
<path fill-rule="evenodd" clip-rule="evenodd" d="M98.5541 31.9248H116.764V33.3248H118.514V43.8698H116.764V46.9498H114.979V48.5598H111.189V46.4498H112.834V43.3698H114.479V33.8948H98.5541V31.9248ZM99.0541 32.4248V33.3948H114.979V43.8698H113.334V46.9498H111.689V48.0598H114.479V46.4498H116.264V43.3698H118.014V33.8248H116.264V32.4248H99.0541ZM94.9141 51.7698H122.994V53.8098H94.9141V51.7698ZM95.4141 52.2698V53.3098H122.494V52.2698H95.4141Z" fill="#363532"/>
<path d="M67.36 46.63V45.125H65.68V39.42H67.395V37.95H81.57V32.805H66.45V31.335H83.355V32.77H85.07V37.95H83.355V39.42H69.145V45.125H83.845V43.655H86.925V45.23H85.42V46.63H67.36ZM62.25 54.96V53.42H74.43V49.78H72.82V48.205H76.285V49.78H77.965V53.42H89.83V54.96H62.25Z" fill="#363532"/>
<path fill-rule="evenodd" clip-rule="evenodd" d="M66.2 31.085H83.605V32.52H85.32V38.2H83.605V39.67H69.395V44.875H83.595V43.405H87.175V45.48H85.67V46.88H67.11V45.375H65.43V39.17H67.145V37.7H81.32V33.055H66.2V31.085ZM66.7 31.585V32.555H81.82V38.2H67.645V39.67H65.93V44.875H67.61V46.38H85.17V44.98H86.675V43.905H84.095V45.375H68.895V39.17H83.105V37.7H84.82V33.02H83.105V31.585H66.7ZM72.57 47.955H76.535V49.53H78.215V53.17H90.08V55.21H62V53.17H74.18V50.03H72.57V47.955ZM73.07 48.455V49.53H74.68V53.67H62.5V54.71H89.58V53.67H77.715V50.03H76.035V48.455H73.07Z" fill="#363532"/>
<defs>
<linearGradient id="paint0_linear_6378_8583" x1="107.5" y1="0" x2="107.5" y2="105" gradientUnits="userSpaceOnUse">
<stop stop-color="#FF4D00"/>
<stop offset="1" stop-color="#FA4CD4"/>
</linearGradient>
</defs>
</svg>
