<svg width="387" height="346" viewBox="0 0 387 346" fill="none" xmlns="http://www.w3.org/2000/svg">
<path fill-rule="evenodd" clip-rule="evenodd" d="M131.43 110.105H138.409V149.615H131.43V110.105ZM138.411 115.916H145.39L145.39 160.074H151.205V198.422H145.389V193.772H138.411V115.916Z" fill="#FFC700"/>
<path fill-rule="evenodd" clip-rule="evenodd" d="M125.612 128.697H111.652V150.587H118.633V180.988H131.429V149.37H125.612V128.697Z" fill="#FFC700"/>
<path fill-rule="evenodd" clip-rule="evenodd" d="M158.183 96.1606H151.203V161.235H158.183V96.1606ZM163.999 104.295H158.183V155.424H163.999L163.999 104.295Z" fill="#FFC700"/>
<path fill-rule="evenodd" clip-rule="evenodd" d="M176.796 110.104H169.816V167.044H176.796V110.104ZM183.777 115.914H176.797V174.016H183.777V115.914Z" fill="#FFC700"/>
<path fill-rule="evenodd" clip-rule="evenodd" d="M215.183 110.106H208.203V186.801H215.183V110.106ZM222.164 115.916H215.184V186.8H222.164V115.916Z" fill="#FFC700"/>
<path fill-rule="evenodd" clip-rule="evenodd" d="M233.796 115.914H226.816V186.798H233.796V115.914ZM240.777 121.724H233.797V199.581H240.777L240.777 121.724Z" fill="#FFC700"/>
<path fill-rule="evenodd" clip-rule="evenodd" d="M195.988 95H189.59V179.892H195.988V95ZM202.386 103.663H195.988V190.287H202.386V103.663Z" fill="#FFC700"/>
<path fill-rule="evenodd" clip-rule="evenodd" d="M252.41 128.698H246.594V187.962H252.41V186.799H259.389V135.67H252.41V128.698Z" fill="#FFC700"/>
<path fill-rule="evenodd" clip-rule="evenodd" d="M201.227 183.314H208.207V219.337H201.229V220.498H195.413V191.447H201.227V183.314Z" fill="#FFC700"/>
<path fill-rule="evenodd" clip-rule="evenodd" d="M164 161.235H158.184V212.365H164V161.235ZM169.818 167.044H164.001V218.174H169.818V167.044Z" fill="#FFC700"/>
<rect x="174.469" y="179.828" width="15.1224" height="39.5093" fill="#FFC700"/>
<rect x="215.184" y="186.799" width="11.6327" height="32.5371" fill="#FFC700"/>
<path fill-rule="evenodd" clip-rule="evenodd" d="M259.389 96.1577H253.572V115.912H259.389V96.1577ZM246.593 104.293H253.572L253.572 124.048H246.593V115.913H239.613V110.103H246.593V104.293Z" fill="#FFC700"/>
<path fill-rule="evenodd" clip-rule="evenodd" d="M265.206 97.3228H259.39V115.915H265.206V97.3228ZM259.391 115.916H253.574V122.889H259.391V115.916Z" fill="#E25B00"/>
<rect x="259.391" y="135.671" width="5.81634" height="40.6714" fill="#E25B00"/>
<path fill-rule="evenodd" clip-rule="evenodd" d="M158.188 97.3228H164.004V104.295H169.82V167.045H164.004V161.234H158.188V155.424H164.004V104.295H158.188V97.3228ZM176.8 167.045H169.821V212.365H176.8V179.829H183.779V179.829H189.595L189.595 122.889H183.778V174.019H176.8V167.045Z" fill="#E25B00"/>
<rect x="208.207" y="186.801" width="6.97959" height="32.5371" fill="#E25B00"/>
<path fill-rule="evenodd" clip-rule="evenodd" d="M233.801 115.917H240.78V115.919H246.596V124.051H252.413V128.699H246.596V200.748H240.78V121.728H233.801V115.917Z" fill="#E25B00"/>
<path fill-rule="evenodd" clip-rule="evenodd" d="M226.817 115.917H222.164V186.801H226.817V115.917ZM233.797 186.802H226.817V219.339H233.797V186.802Z" fill="#E25B00"/>
<path fill-rule="evenodd" clip-rule="evenodd" d="M195.411 97.3262H202.39V104.298H195.411V97.3262ZM202.39 104.299H208.207V183.317H202.39V104.299ZM202.39 179.83H189.594V220.501H202.39V179.83Z" fill="#E25B00"/>
<path fill-rule="evenodd" clip-rule="evenodd" d="M138.414 110.105H145.394V115.915H138.414V110.105ZM145.395 115.915H151.211V161.234H145.395V115.915ZM158.188 161.236H151.209V206.555H158.188V161.236Z" fill="#E25B00"/>
<path fill-rule="evenodd" clip-rule="evenodd" d="M119.797 122.89H125.613V128.7H119.797V122.89ZM125.615 128.7H131.431V149.616H125.615V128.7ZM138.409 149.618H131.429V189.127H138.409V149.618Z" fill="#E25B00"/>
<path d="M107 172.856H125.612V180.409H132.592V186.8H138.408V192.611H145.388V198.421H151.204V205.393H164V211.784H176.796V219.338H208.204V211.203H221V205.393H233.796V198.421H240.776V192.611H246.592V186.8H253.571V179.828H259.388V172.856H278V236.768H107V172.856Z" fill="#DC4200"/>
<path d="M111.653 236.768H273.347V282.088H111.653V236.768Z" fill="#DC4200"/>
<path d="M120.959 282.088H264.041V329.731H120.959V282.088Z" fill="#DC4200"/>
<path d="M120.959 329.731H162.837V337.866H158.184V346H125.612V337.866H120.959V329.731Z" fill="#DC4200"/>
<path d="M222.163 329.731H264.041V337.866H259.388V346H226.816V337.866H222.163V329.731Z" fill="#DC4200"/>
<path d="M374.107 133.678C373.834 133.738 373.564 133.737 373.297 133.675C373.052 133.663 372.826 133.762 372.619 133.973C372.28 133.882 371.969 133.72 371.687 133.485C371.426 133.301 371.123 133.224 370.778 133.256C370.774 132.839 370.606 132.525 370.273 132.312C369.962 132.15 369.648 132.048 369.331 132.008C369.322 131.714 369.237 131.452 369.077 131.223C368.967 130.973 368.832 130.733 368.671 130.504C368.583 130.304 368.484 130.078 368.374 129.828C368.337 129.605 368.399 129.339 368.562 129.028C368.075 128.465 367.689 127.857 367.403 127.205C367.117 126.554 366.82 125.877 366.512 125.175C366.452 124.903 366.336 124.774 366.163 124.79C366.013 124.857 365.843 124.811 365.655 124.655C365.507 124.182 365.262 123.692 364.919 123.184C364.599 122.727 364.267 122.245 363.925 121.738C363.605 121.281 363.309 120.812 363.039 120.333C362.791 119.904 362.715 119.459 362.812 118.998C362.486 118.663 362.245 118.32 362.091 117.969C361.937 117.618 361.797 117.232 361.672 116.808C361.439 116.552 361.15 116.439 360.805 116.471C360.661 116.415 360.53 116.323 360.414 116.195C360.348 116.044 360.243 115.941 360.098 115.885C359.835 116.24 359.463 116.552 358.983 116.823C358.553 117.071 358.35 117.429 358.376 117.896C357.823 118.139 357.351 118.496 356.959 118.967C356.589 119.488 356.244 119.998 355.924 120.497C355.676 121.024 355.456 121.479 355.265 121.862C355.146 122.273 355 122.487 354.827 122.503C354.768 123.186 354.797 123.592 354.913 123.721C355.029 123.849 355.095 123.999 355.111 124.172C354.96 124.238 354.861 124.49 354.814 124.929C354.818 125.346 354.868 125.802 354.966 126.298C355.063 126.793 355.2 127.241 355.376 127.642C355.552 128.043 355.752 128.224 355.974 128.186C356.078 128.559 356.174 128.846 356.262 129.046C356.4 129.225 356.517 129.353 356.611 129.431C356.777 129.538 356.919 129.655 357.035 129.783C357.151 129.912 357.289 130.09 357.449 130.319C357.588 130.497 357.665 130.673 357.68 130.845C357.718 131.068 357.806 131.268 357.944 131.447C358.127 131.725 358.359 131.982 358.642 132.216C358.924 132.451 359.045 132.727 359.005 133.044C359.243 133.178 359.551 133.401 359.928 133.714C359.894 133.909 359.946 134.095 360.084 134.274C360.222 134.452 360.285 134.664 360.272 134.908C360.282 135.203 360.381 135.428 360.569 135.585C360.758 135.741 360.857 135.967 360.866 136.262C360.904 136.484 360.881 136.704 360.796 136.92C360.762 137.115 360.774 137.348 360.834 137.621C360.511 137.703 360.145 137.893 359.737 138.192C359.401 138.519 359.146 138.481 358.97 138.081C358.712 138.313 358.464 138.362 358.226 138.228C358.009 138.143 357.761 138.193 357.482 138.375C357.177 138.09 356.836 137.791 356.459 137.479C356.155 137.194 355.772 137.003 355.31 136.907C355.373 136.64 355.285 136.44 355.046 136.305C354.829 136.221 354.652 136.09 354.514 135.911C354.375 135.733 354.313 135.521 354.325 135.277C354.337 135.032 354.185 134.89 353.868 134.85C353.783 134.11 353.585 133.659 353.274 133.496C353.035 133.362 352.889 133.097 352.836 132.702C352.726 132.452 352.587 132.273 352.421 132.167C352.327 132.089 352.211 131.961 352.072 131.782L351.342 130.937C351.245 130.442 351.091 130.091 350.88 129.884C350.692 129.728 350.542 129.524 350.432 129.274C350.278 128.923 350.186 128.575 350.154 128.23C350.145 127.936 349.962 127.657 349.607 127.394C349.447 127.166 349.457 126.982 349.635 126.844C349.786 126.778 349.879 126.647 349.913 126.453C349.681 126.196 349.56 125.921 349.55 125.626C349.54 125.331 349.47 125.034 349.338 124.733C349.413 124.222 349.513 123.699 349.638 123.166C349.836 122.661 349.961 122.128 350.014 121.566C350.221 121.356 350.37 121.081 350.461 120.743C350.574 120.454 350.676 120.14 350.767 119.801C351.131 119.402 351.387 118.961 351.534 118.478C351.681 117.995 351.901 117.54 352.192 117.113C352.299 116.947 352.467 116.784 352.696 116.623C352.947 116.513 353.151 116.364 353.308 116.175C353.55 115.77 353.719 115.337 353.816 114.876C353.963 114.393 354.396 114.083 355.115 113.947C355.564 113.332 356.017 112.864 356.475 112.543C357.006 112.251 357.386 112.024 357.615 111.864C357.822 111.653 358.029 111.443 358.236 111.233C358.493 111 358.748 110.829 358.999 110.718C359.25 110.608 359.462 110.545 359.634 110.529C359.857 110.491 360.094 110.417 360.345 110.307C360.446 110.263 360.636 110.149 360.915 109.967C361.194 109.785 361.474 109.602 361.753 109.42C362.054 109.288 362.305 109.177 362.506 109.089C362.779 109.029 362.96 109.099 363.048 109.3C363.384 108.973 363.735 108.819 364.102 108.837C364.492 108.905 364.84 108.812 365.148 108.558C365.358 108.764 365.611 108.862 365.906 108.852C366.251 108.82 366.54 108.933 366.773 109.189C367.102 108.985 367.35 108.936 367.517 109.042C367.733 109.126 368.022 109.239 368.383 109.379C368.562 109.241 368.846 109.206 369.236 109.274C369.675 109.32 370.111 109.428 370.545 109.596C371.028 109.743 371.462 109.911 371.845 110.102C372.228 110.292 372.503 110.441 372.669 110.547C373.397 110.705 374.022 110.969 374.544 111.338C375.137 111.735 375.776 111.963 376.461 112.021C376.621 112.25 376.784 112.417 376.951 112.523C377.189 112.658 377.414 112.828 377.624 113.035C377.769 113.091 377.949 113.161 378.166 113.245C378.433 113.308 378.638 113.367 378.783 113.423C378.949 113.529 379.062 113.719 379.122 113.991C379.232 114.242 379.356 114.457 379.494 114.635C379.837 115.142 380.23 115.628 380.672 116.091C381.166 116.532 381.597 116.97 381.968 117.405C382.361 117.89 382.642 118.395 382.812 118.918C383.004 119.491 382.994 120.153 382.784 120.903C383.052 121.921 383.101 122.647 382.932 123.08C382.762 123.513 382.748 124.027 382.89 124.622C382.548 125.071 382.303 125.537 382.156 126.021C382.059 126.482 381.973 126.968 381.898 127.479C381.64 127.712 381.383 127.944 381.126 128.177C380.89 128.459 380.799 128.798 380.853 129.193C380.291 129.141 379.993 129.212 379.958 129.406C379.924 129.601 379.817 129.767 379.638 129.905C379.51 130.022 379.348 130.063 379.153 130.029C378.981 130.045 378.866 130.125 378.81 130.269C378.603 130.479 378.421 130.679 378.264 130.867C378.129 131.106 377.958 131.33 377.751 131.541C377.594 131.729 377.379 131.854 377.106 131.914C376.905 132.002 376.809 132.193 376.819 132.488C376.351 132.514 375.888 132.687 375.43 133.008C374.994 133.379 374.553 133.602 374.107 133.678ZM375.079 126.885C375.292 126.552 375.441 126.278 375.526 126.061C375.682 125.873 375.973 125.716 376.397 125.589C376.503 125.423 376.513 125.24 376.425 125.039C376.337 124.839 376.335 124.63 376.419 124.414C376.671 124.303 376.849 124.165 376.956 123.999C377.113 123.81 377.295 123.611 377.502 123.4C377.144 122.721 376.994 122.039 377.054 121.355C377.163 120.65 376.938 120.001 376.379 119.41L375.376 118.146C374.82 117.972 374.368 117.692 374.019 117.307C373.743 116.95 373.391 116.626 372.964 116.336C372.775 116.179 372.581 116.145 372.38 116.233C372.179 116.321 372.009 116.276 371.871 116.098C371.727 116.042 371.611 115.913 371.523 115.713C371.457 115.563 371.391 115.412 371.325 115.262C370.979 115.294 370.698 115.268 370.482 115.183C370.337 115.127 370.171 115.021 369.982 114.865C369.816 114.758 369.624 114.663 369.408 114.579C369.241 114.472 368.996 114.46 368.673 114.543C368.328 114.575 368.036 114.523 367.797 114.389C367.58 114.305 367.35 114.257 367.105 114.245C366.898 114.455 366.694 114.604 366.493 114.692C366.364 114.809 366.33 115.003 366.389 115.276C366.361 115.348 366.413 115.534 366.545 115.835C366.727 116.114 366.895 116.429 367.049 116.78C367.276 117.158 367.43 117.509 367.511 117.832C367.665 118.183 367.75 118.445 367.766 118.617C368.149 118.808 368.443 119.067 368.647 119.396C369.027 120.126 369.323 120.594 369.533 120.801C369.744 121.007 369.94 121.25 370.122 121.528C370.282 121.757 370.381 121.983 370.419 122.205C370.479 122.478 370.589 122.728 370.749 122.957C370.909 123.186 371.058 123.389 371.197 123.568C371.407 123.774 371.567 124.003 371.677 124.253C371.879 125.121 372.103 125.77 372.352 126.199C372.622 126.678 372.881 127.132 373.129 127.561C373.848 127.425 374.498 127.2 375.079 126.885Z" fill="#FFC700"/>
<path d="M338.143 106.821C336.294 106.823 334.63 106.708 333.151 106.475C331.739 106.276 330.528 105.84 329.519 105.17C328.947 104.465 328.509 104.079 328.206 104.012C327.938 104.046 327.736 103.945 327.601 103.71C327.634 103.307 327.55 103.055 327.348 102.954C327.112 102.921 326.944 102.837 326.843 102.703C326.775 101.829 326.656 100.972 326.487 100.132C326.284 99.3595 325.913 98.5869 325.374 97.8147C325.542 97.4783 325.608 97.0917 325.574 96.6547C325.54 96.2178 325.489 95.7305 325.421 95.1929C325.42 94.6887 325.436 94.1509 325.469 93.5794C325.602 92.9742 325.92 92.3351 326.424 91.6621C326.726 91.2247 327.128 90.9216 327.632 90.7528C327.934 90.1474 328.219 89.4915 328.487 88.7853C328.788 88.0118 328.905 87.2721 328.836 86.5664C329.374 86.3303 329.776 85.9432 330.045 85.405C330.313 84.8668 330.699 84.5133 331.203 84.3445C331.37 84.0081 331.521 83.7054 331.655 83.4363C331.823 83.0999 331.923 82.7301 331.956 82.3267C332.426 82.0571 332.762 81.7205 332.963 81.3168C333.197 80.8459 333.483 80.4422 333.818 80.1055C334.154 79.6009 334.489 79.1802 334.825 78.8436C335.261 78.4732 335.411 77.9184 335.276 77.1792C335.545 76.9771 335.796 76.7246 336.031 76.4218C336.266 76.1189 336.535 75.9169 336.837 75.8156C336.937 75.2777 337.087 74.7228 337.288 74.1511C337.556 73.6129 337.824 73.0748 338.093 72.5366C338.361 71.9984 338.595 71.4435 338.796 70.8718C339.03 70.2328 339.147 69.5772 339.146 68.9049C339.111 68.3 338.842 67.6617 338.336 66.9902C337.831 66.3187 337.545 65.6301 337.476 64.9244C336.501 64.5225 335.425 64.1543 334.248 63.8199C333.105 63.4183 331.995 63.2854 330.92 63.4215C330.416 63.7583 330.047 63.9101 329.811 63.8769C329.609 63.7763 329.391 63.8775 329.156 64.1803C328.282 64.0808 327.728 64.0984 327.493 64.2332C327.291 64.3007 327.14 64.5194 327.04 64.8893C326.267 64.924 325.88 65.0254 325.881 65.1935C325.881 65.3616 325.78 65.4794 325.579 65.5469C324.638 65.7499 323.983 65.9694 323.613 66.2052C323.277 66.3738 322.942 66.5423 322.606 66.7109C322.505 66.7446 322.152 66.8628 321.547 67.0653C320.976 67.2006 320.859 67.3521 321.195 67.5196C321.061 67.6207 320.809 67.7891 320.44 68.0249C320.138 68.2942 319.785 68.5805 319.382 68.8836C319.08 69.1529 318.778 69.4222 318.476 69.6916C318.274 69.9272 318.174 70.129 318.174 70.297C317.133 70.5339 316.444 70.9886 316.109 71.6614C315.774 72.3341 315.372 73.0573 314.902 73.8311C314.802 74.0329 314.667 74.134 314.499 74.1342C314.432 74.1007 314.281 74.1513 314.046 74.2861C313.911 74.3872 313.727 74.5891 313.492 74.892C313.257 75.1948 313.023 75.7498 312.789 76.5568C312.117 76.8939 311.714 77.4491 311.581 78.2224C311.448 78.9956 310.995 79.5677 310.222 79.9386C310.122 80.3084 310.072 80.5774 310.072 80.7455C310.072 80.9135 310.09 81.216 310.124 81.6529C310.023 81.8547 309.722 82.3762 309.219 83.2172C308.749 83.991 308.38 84.3108 308.111 84.1768C307.843 84.715 307.625 85.0682 307.457 85.2365C307.323 85.3375 307.155 85.4218 306.953 85.4893C306.853 85.5231 306.685 85.6074 306.449 85.7422C306.248 85.8097 306.013 86.0285 305.745 86.3986C305.173 86.1978 304.551 86.0979 303.879 86.0989C303.24 86.0326 302.635 85.899 302.063 85.6982C301.623 83.8838 301.134 82.4224 300.594 81.314C300.762 80.9776 300.846 80.6414 300.845 80.3053C300.945 79.9354 301.113 79.599 301.348 79.2962C301.583 78.9933 301.683 78.7075 301.649 78.4386C301.682 78.2033 301.766 77.9511 301.9 77.682C302.168 77.1438 302.453 76.656 302.755 76.2186C303.09 75.7139 303.392 75.1925 303.66 74.6543C303.827 73.9818 303.995 73.5614 304.163 73.3931C304.398 73.2583 304.582 73.1404 304.717 73.0394C304.784 72.9048 304.834 72.7199 304.867 72.4846C305.001 72.2155 305.135 72.0304 305.27 71.9294C306.713 70.5492 307.618 69.1529 307.986 67.7407C308.387 66.2612 308.974 64.9999 309.745 63.9568C310.282 63.5526 310.534 63.3002 310.5 63.1994C310.466 63.0986 310.449 62.9642 310.449 62.7961C310.583 62.527 310.751 62.2747 310.952 62.0391C311.221 61.8371 311.405 61.5511 311.506 61.1812C311.606 60.8113 311.656 60.4583 311.655 60.1222C311.722 59.8196 311.621 59.5172 311.351 59.2151C311.518 58.2065 311.651 57.2652 311.751 56.3911C311.85 55.5171 311.765 54.929 311.496 54.6269C311.227 54.3248 310.907 54.2076 310.538 54.2754C310.168 54.3431 309.815 54.2932 309.479 54.1257C309.109 54.0254 308.907 53.9248 308.873 53.8241C308.873 53.656 308.772 53.4377 308.57 53.1691C308.166 53.136 307.746 53.0526 307.309 52.9188C306.972 52.7513 306.787 52.449 306.753 52.0121C306.283 52.2817 305.812 52.3832 305.342 52.3167C304.871 52.2502 304.434 52.4525 304.032 52.9236C303.393 52.6893 302.687 52.5895 301.914 52.6243C301.208 52.6925 300.536 52.6935 299.897 52.6272C299.629 53.1654 299.36 53.5355 299.092 53.7376C298.823 53.9397 298.555 54.0577 298.286 54.0917C298.017 54.1257 297.714 54.143 297.378 54.1435C297.042 54.144 296.672 54.2117 296.269 54.3468C295.934 55.0195 295.565 55.4234 295.162 55.5584C294.86 55.6597 294.49 55.9796 294.054 56.518C293.819 56.6528 293.618 57.0564 293.451 57.7289C293.317 58.3341 293.15 58.6705 292.948 58.738C292.747 58.8055 292.562 59.0075 292.395 59.3438C292.227 59.6802 292.043 60.0502 291.842 60.4538C291.674 60.7902 291.506 61.1266 291.339 61.4629C291.171 61.7993 291.02 61.934 290.886 61.8669C290.718 62.2033 290.551 62.5397 290.383 62.876C290.249 63.1451 290.064 63.4311 289.83 63.734C289.729 63.9358 289.595 64.1208 289.427 64.2891C289.259 64.4575 289.142 64.6089 289.075 64.7434C288.573 66.5928 288.004 67.9886 287.367 68.9306C286.998 69.6706 286.764 70.3936 286.664 71.0996C286.665 71.7719 286.246 72.2767 285.406 72.614C285.306 72.9839 285.188 73.3034 285.054 73.5725C284.988 73.8751 284.82 74.1274 284.551 74.3295C283.981 75.137 283.478 75.5579 283.041 75.5922C282.671 75.6599 282.184 75.627 281.578 75.4935C281.04 75.3934 280.486 75.243 279.914 75.0422C279.342 74.8413 278.922 74.5898 278.652 74.2877C278.484 73.7838 278.365 73.263 278.297 72.7253C278.229 72.1876 277.96 71.7174 277.488 71.3148C278.159 69.9693 278.728 68.5736 279.196 67.1276C279.698 65.6143 280.352 64.2185 281.157 62.94C281.357 62.0322 281.474 61.3766 281.507 60.9732C281.64 60.5361 281.825 60.1661 282.06 59.8632C282.16 59.6614 282.294 59.4763 282.462 59.308C282.697 59.1732 282.899 59.0217 283.066 58.8534C283.167 58.3154 283.351 57.9454 283.619 57.7434C283.821 57.3397 283.971 56.953 284.071 56.5831C284.205 56.1459 284.44 55.759 284.776 55.4224C285.01 55.1196 285.262 54.8671 285.531 54.665C285.799 54.463 286.017 54.1938 286.185 53.8574C286.52 53.3527 286.788 52.7305 286.989 51.9908C287.29 51.2172 287.39 50.5112 287.288 49.8728C287.389 49.839 287.507 49.6876 287.641 49.4185C287.808 49.0821 287.942 48.729 288.042 48.3591C288.243 47.9555 288.394 47.5687 288.494 47.1988C288.662 46.8625 288.746 46.6103 288.745 46.4422C289.014 46.4082 289.199 46.1222 289.299 45.5843C289.466 45.0799 289.735 44.8778 290.105 44.9781C290.104 44.642 289.986 44.3732 289.75 44.1719C289.616 43.9368 289.548 43.6512 289.548 43.3151C289.816 42.945 290.017 42.5413 290.151 42.1042C290.285 41.667 290.402 41.2635 290.502 40.8936C290.232 40.2554 290.03 39.7347 289.895 39.3316C289.86 38.8947 289.456 38.5255 288.683 38.2242C288.783 37.6862 288.665 37.2494 288.328 36.9138C288.092 36.5444 288.058 36.0235 288.225 35.351C288.292 35.0484 288.191 34.8301 287.921 34.696C287.652 34.562 287.551 34.3437 287.618 34.041C287.718 33.5031 287.919 33.0154 288.221 32.578C288.523 32.1406 288.724 31.653 288.824 31.115C289.529 30.8787 290.184 30.7433 290.789 30.7088C291.428 30.607 292.1 30.522 292.806 30.4537C293.008 30.7223 293.311 30.8732 293.714 30.9062C294.185 30.9727 294.521 31.1403 294.723 31.4089C294.959 31.6102 295.312 31.9962 295.784 32.5669C296.322 33.1711 296.827 33.6746 297.298 34.0772C297.097 34.3128 297.047 34.5818 297.148 34.8841C297.283 35.1192 297.199 35.2874 296.897 35.3887C296.864 35.624 296.948 36.044 297.151 36.6488C297.353 37.2535 297.455 37.7239 297.455 38.06C297.523 38.2616 297.557 38.5304 297.557 38.8666C297.558 39.2027 297.709 39.4041 298.012 39.4709C297.643 39.8748 297.442 40.5305 297.41 41.4381C297.411 42.2784 297.395 42.9843 297.363 43.5557C297.33 43.9591 297.246 44.3794 297.112 44.8165C296.979 45.2537 296.878 45.7076 296.812 46.1783C297.115 46.245 297.501 46.2277 297.971 46.1261C298.543 45.9908 299.131 45.8219 299.735 45.6194C300.34 45.4168 300.945 45.2142 301.55 45.0117C302.221 44.8426 302.81 44.7577 303.314 44.757C303.784 44.8235 304.289 44.9908 304.827 45.259C305.399 45.4598 305.92 45.3414 306.389 44.9037C307.096 45.3396 307.852 45.4226 308.659 45.1525C309.532 44.9159 310.07 44.6798 310.271 44.4443C311.247 45.0142 312.054 45.5004 312.693 45.9028C313.366 46.238 314.022 46.6908 314.661 47.2612C315.334 47.7644 315.974 48.2508 316.579 48.7205C317.252 49.2237 317.858 49.6094 318.396 49.8775C318.498 50.3479 318.532 50.7848 318.499 51.1882C318.533 51.6251 318.719 52.0113 319.055 52.347C319.022 52.5823 318.989 52.9857 318.956 53.5571C318.957 54.0613 318.975 54.6159 319.009 55.2209C319.077 55.7585 319.145 56.2962 319.213 56.8339C319.281 57.3716 319.349 57.7413 319.416 57.9428C319.72 58.6818 320.208 58.8828 320.879 58.5457C321.585 58.1413 321.971 57.7878 322.038 57.4852C322.206 57.485 322.575 57.4172 323.146 57.2819C323.718 57.1466 324.289 57.0113 324.86 56.876C325.465 56.6735 325.985 56.4711 326.422 56.2687C326.926 56.0999 327.211 55.9483 327.279 55.8137C327.413 55.8807 327.749 55.8802 328.287 55.8122C328.892 55.7777 329.48 55.6928 330.051 55.5576C330.69 55.4558 331.278 55.3709 331.815 55.3029C332.353 55.2349 332.639 55.1672 332.672 55.0999C333.042 55.2002 333.261 55.3512 333.328 55.5527C333.396 55.7543 333.615 55.9052 333.984 56.0055C334.388 56.0386 334.69 55.9373 334.891 55.7017C335.16 55.4996 335.429 55.3816 335.698 55.3476C336.269 55.5484 336.639 55.5647 336.807 55.3964C337.008 55.1608 337.26 55.0764 337.563 55.1432C338.303 55.8479 338.808 56.1833 339.077 56.1493C339.446 56.0815 339.917 56.1481 340.489 56.3489C341.464 56.5827 341.985 56.8845 342.053 57.2541C342.188 57.6573 342.323 57.9764 342.458 58.2115C342.525 58.413 342.677 58.6145 342.912 58.8158C343.148 59.0171 343.132 59.2188 342.863 59.4209C343.704 59.7558 344.225 60.2256 344.428 60.8303C344.698 61.4685 345.22 61.9383 345.993 62.2397C346.128 62.4748 346.179 62.71 346.145 62.9453C346.213 63.1469 346.28 63.3485 346.348 63.5501C346.819 64.1208 347.089 64.843 347.158 65.7168C347.294 66.6242 347.362 67.582 347.364 68.5904C347.365 69.5987 347.316 70.5399 347.217 71.414C347.184 72.3215 347.084 72.8595 346.916 73.0278C346.446 73.4654 346.262 73.7514 346.363 73.8857C346.464 74.02 346.515 74.1712 346.515 74.3392C346.549 74.7762 346.399 75.1629 346.063 75.4995C345.828 75.8024 345.627 76.122 345.459 76.4583C345.359 76.6602 345.292 76.8787 345.259 77.1141C345.259 77.2821 345.209 77.4671 345.108 77.6689C344.84 78.2071 344.488 78.6614 344.051 79.0317C343.716 79.3683 343.582 79.8895 343.65 80.5953C343.382 80.6293 343.029 80.9995 342.593 81.706C342.225 82.446 342.057 82.9505 342.091 83.2193C341.823 83.5894 341.521 83.9428 341.185 84.2794C340.917 84.6495 340.632 85.0533 340.33 85.4907C339.927 85.9619 339.642 86.4496 339.475 86.9541C339.341 87.3912 339.14 87.8789 338.872 88.4171C338.402 89.0228 338.168 89.4097 338.168 89.5777C338.236 89.7793 338.219 89.981 338.118 90.1828C337.816 90.4522 337.497 90.7551 337.162 91.0917C336.894 91.4619 336.558 91.7145 336.155 91.8495C336.054 92.2194 335.971 92.5556 335.904 92.8582C335.871 93.0936 335.804 93.3962 335.704 93.766C335.57 94.0351 335.368 94.2707 335.1 94.4728C334.932 94.6411 334.831 94.8429 334.798 95.0782C334.732 96.0531 334.582 96.6919 334.347 96.9948C334.18 97.3311 334.029 97.6339 333.895 97.903C333.862 98.3064 333.929 98.676 334.098 99.0119C334.3 99.2805 334.435 99.5996 334.503 99.9692C335.041 100.237 335.579 100.253 336.116 100.017C336.621 100.353 337.008 100.755 337.278 101.226C337.648 101.662 338.169 101.88 338.842 101.879C338.575 103.425 338.543 104.417 338.745 104.854C338.947 105.29 338.747 105.946 338.143 106.821Z" fill="#FFC700"/>
<path d="M260.73 42.1937C260.73 42.8923 260.624 43.5559 260.413 44.1845C260.202 44.7433 260.167 45.372 260.308 46.0705C259.815 47.0484 259.64 47.5723 259.78 47.6422C259.921 47.6422 259.956 47.7819 259.886 48.0613C259.534 48.201 259.358 48.4106 259.358 48.69C259.429 48.9694 259.393 49.2139 259.253 49.4234C258.831 50.8204 258.233 52.1127 257.459 53.3002C257.6 53.4399 257.67 53.6495 257.67 53.9289C257.67 54.2083 257.67 54.4527 257.67 54.6623C257.318 54.8719 256.967 55.0465 256.615 55.1862C256.334 55.256 256.017 55.3608 255.666 55.5005C255.666 56.199 255.525 56.7579 255.244 57.177C254.962 57.5961 254.681 58.085 254.4 58.6439C253.485 58.8534 252.817 59.2725 252.395 59.9012C251.973 60.46 251.445 60.9839 250.812 61.4729C249.476 61.8221 248.386 62.0666 247.542 62.2063C246.768 62.346 245.959 62.4508 245.115 62.5206C244.763 62.5206 244.517 62.5905 244.377 62.7302C244.306 62.8699 244.13 63.0096 243.849 63.1493C243.286 63.289 242.407 63.3589 241.212 63.3589C240.016 63.3589 239.101 63.4287 238.468 63.5684C237.273 63.5684 236.499 63.4636 236.147 63.2541C235.796 63.0445 235.338 62.9397 234.776 62.9397C234.213 62.2412 233.791 61.892 233.51 61.892C233.299 61.892 233.123 61.8221 232.982 61.6824C232.701 61.4729 232.455 61.2284 232.244 60.949C232.033 60.6696 231.787 60.3902 231.505 60.1107C231.364 59.971 231.224 59.6916 231.083 59.2725C230.942 58.8534 230.802 58.4343 230.661 58.0152C230.52 57.5961 230.38 57.2468 230.239 56.9674C230.098 56.6182 229.923 56.4435 229.712 56.4435C229.852 56.0244 229.817 55.6752 229.606 55.3957C229.395 55.0465 229.29 54.6623 229.29 54.2432C228.727 53.0557 228.34 52.0429 228.129 51.2046C227.988 50.2966 227.918 49.4583 227.918 48.69C227.918 48.4804 227.953 48.2709 228.024 48.0613C228.094 47.8517 228.129 47.6422 228.129 47.4326C228.129 47.1532 228.059 46.9087 227.918 46.6992C227.777 46.4198 227.707 46.1404 227.707 45.861C227.777 44.9529 227.883 44.1147 228.024 43.3463C228.235 42.5779 228.199 41.7397 227.918 40.8316C228.129 40.4824 228.305 40.0633 228.446 39.5743C228.657 39.0853 228.692 38.6313 228.551 38.2122C229.184 37.8629 229.606 37.339 229.817 36.6405C230.028 35.942 230.134 35.2435 230.134 34.545C230.415 34.4751 230.591 34.3354 230.661 34.1259C230.731 33.8464 230.837 33.602 230.978 33.3924C231.118 33.1829 231.259 33.0082 231.4 32.8685C231.54 32.7288 231.646 32.5542 231.716 32.3446C231.857 32.2049 231.892 32.0303 231.822 31.8207C231.822 31.5413 231.857 31.3318 231.927 31.1921C232.349 30.7031 232.631 30.284 232.771 29.9347C232.982 29.5156 233.264 29.2013 233.615 28.9917C233.545 28.5726 233.58 28.3631 233.721 28.3631C233.932 28.2932 234.108 28.1186 234.248 27.8392C234.53 27.6995 234.741 27.5947 234.881 27.5249C235.022 27.3851 235.268 27.3502 235.62 27.4201C235.972 27.3502 236.183 27.2105 236.253 27.001C236.394 26.7216 236.675 26.5819 237.097 26.5819C237.238 26.4421 237.343 26.3024 237.413 26.1627C237.554 25.9532 237.695 25.7786 237.835 25.6389C238.257 25.569 238.539 25.6738 238.679 25.9532C238.89 26.1627 239.101 26.3723 239.312 26.5819C239.664 26.5819 239.91 26.4771 240.051 26.2675C240.262 25.9881 240.473 25.9532 240.684 26.1627C241.176 26.3024 241.598 26.2675 241.95 26.058C242.372 25.8484 242.759 25.8833 243.111 26.1627C244.377 25.6738 245.186 25.4991 245.537 25.6389C245.959 25.7087 246.416 25.7436 246.909 25.7436C248.456 25.6738 249.687 25.8135 250.601 26.1627C251.516 26.512 252.465 26.6517 253.45 26.5819C254.575 27.2804 255.173 27.8741 255.244 28.3631C255.736 28.5726 256.052 28.8171 256.193 29.0965C256.404 29.3061 256.685 29.5855 257.037 29.9347C257.178 30.0744 257.389 30.1443 257.67 30.1443C257.951 30.1443 258.162 30.2141 258.303 30.3539C257.951 31.4016 257.951 32.0652 258.303 32.3446C258.725 32.5542 258.76 32.7637 258.409 32.9733C258.549 33.2527 258.725 33.4623 258.936 33.602C259.147 33.6718 259.323 33.8115 259.464 34.0211C259.323 34.7196 259.358 35.3133 259.569 35.8023C259.851 36.2214 260.026 36.6754 260.097 37.1644C260.097 37.5137 260.026 37.8979 259.886 38.317C259.815 38.6662 259.815 39.0155 259.886 39.3647C259.956 39.8537 260.097 40.3427 260.308 40.8316C260.519 41.2507 260.659 41.7048 260.73 42.1937ZM253.239 43.4511C253.169 43.1018 252.993 42.9621 252.711 43.032C252.5 43.032 252.395 42.8224 252.395 42.4033C252.395 41.3555 252.254 40.4125 251.973 39.5743C252.184 39.3647 252.289 39.0155 252.289 38.5265C252.289 38.0376 252.254 37.5486 252.184 37.0596C252.114 36.5008 252.008 36.0119 251.867 35.5927C251.727 35.1736 251.621 34.8942 251.551 34.7545C251.129 34.6148 250.777 34.3703 250.496 34.0211C250.285 33.602 249.968 33.3226 249.546 33.1829C249.406 33.113 249.195 33.113 248.913 33.1829C248.702 33.2527 248.526 33.2527 248.386 33.1829C247.893 32.624 247.401 32.4145 246.909 32.5542C246.416 32.6939 245.889 32.6939 245.326 32.5542C245.115 32.5542 244.869 32.4843 244.588 32.3446C244.377 32.1351 244.201 32.0652 244.06 32.1351C243.427 32.5542 242.9 32.7288 242.478 32.659C242.126 32.5891 241.774 32.624 241.423 32.7637C241.071 32.9034 240.719 33.1479 240.367 33.4972C240.086 33.7766 239.699 33.9512 239.207 34.0211C238.926 34.4402 238.609 34.8942 238.257 35.3832C237.976 35.8722 237.976 36.396 238.257 36.9549C237.484 37.3041 236.991 37.6883 236.78 38.1074C236.569 38.5265 236.358 38.9456 236.147 39.3647C235.936 39.714 235.796 40.0982 235.725 40.5173C235.655 40.9364 235.76 41.3555 236.042 41.7746C235.409 42.6827 235.127 43.7305 235.198 44.918C235.268 46.0356 235.057 47.0135 234.565 47.8517C234.987 48.69 235.268 49.4583 235.409 50.1569C235.62 50.7855 235.831 51.4142 236.042 52.0429C236.323 52.6715 236.64 53.3002 236.991 53.9289C237.343 54.4877 237.906 55.1513 238.679 55.9196C239.031 55.8498 239.418 55.8847 239.84 56.0244C240.262 56.1641 240.684 56.234 241.106 56.234C241.669 56.234 242.231 56.1641 242.794 56.0244C243.427 55.8149 243.99 55.5704 244.482 55.291C245.326 55.2211 246.135 55.0465 246.909 54.7671C247.682 54.4178 248.245 53.7892 248.597 52.8811C249.019 52.5318 249.37 52.1826 249.652 51.8333C250.004 51.4142 250.39 51.03 250.812 50.6807C251.234 49.8425 251.445 49.2837 251.445 49.0043C251.516 48.7249 251.692 48.4804 251.973 48.2709C252.043 47.9216 252.008 47.712 251.867 47.6422C251.797 47.5025 251.762 47.2929 251.762 47.0135C252.254 46.6643 252.536 46.1404 252.606 45.4419C252.747 44.6735 252.958 44.0099 253.239 43.4511Z" fill="#FFC700"/>
<path d="M208.67 42.7059C208.773 42.8099 208.721 43.2778 208.516 44.1097C208.31 44.9415 208.208 45.4615 208.208 45.6694C207.283 46.1893 206.872 46.6573 206.975 47.0732C207.078 47.3851 207.078 47.6971 206.975 48.009C206.153 48.529 205.486 49.1529 204.972 49.8807C204.458 50.5046 203.842 51.0765 203.123 51.5965C202.815 51.8044 202.455 51.9604 202.044 52.0644C201.634 52.0644 201.428 52.3243 201.428 52.8443C200.504 52.7403 199.836 52.9482 199.425 53.4682C199.117 53.9881 198.552 54.404 197.73 54.716C196.908 55.6518 196.087 56.1717 195.265 56.2757C194.443 56.2757 193.775 56.3277 193.262 56.4317C192.337 57.1596 191.413 57.6275 190.488 57.8355C189.667 58.0434 188.845 58.1474 188.023 58.1474C187.201 58.1474 186.38 58.1474 185.558 58.1474C184.736 58.1474 183.914 58.3034 183.093 58.6153C182.99 58.1994 182.733 58.0434 182.322 58.1474C181.911 58.1474 181.654 57.9914 181.552 57.6795C180.216 57.6795 179.035 57.4715 178.008 57.0556C177.083 56.5357 176.262 55.9638 175.543 55.3399C174.824 54.716 174.156 54.1441 173.54 53.6241C173.026 53.0002 172.564 52.6363 172.153 52.5323C172.05 51.5965 171.691 50.9206 171.074 50.5046C170.458 49.9847 169.893 49.3608 169.379 48.6329C169.174 48.217 169.02 47.7491 168.917 47.2292C168.814 46.7093 168.609 46.1893 168.301 45.6694C168.095 45.3575 167.787 45.0455 167.376 44.7336C166.965 44.3176 166.657 43.9537 166.452 43.6417C166.349 43.4338 166.298 43.1218 166.298 42.7059C166.298 42.29 166.246 41.978 166.144 41.7701C165.938 41.2501 165.733 40.8342 165.527 40.5223C165.425 40.1063 165.271 39.6384 165.065 39.1185C164.654 37.9747 164.449 36.8828 164.449 35.843C164.449 34.8032 164.449 33.7114 164.449 32.5675C164.449 32.0476 164.397 31.5277 164.295 31.0078C164.192 30.4879 164.141 29.968 164.141 29.448C164.141 28.9281 164.192 28.4602 164.295 28.0443C164.5 27.5244 164.654 27.0044 164.757 26.4845C164.552 24.8208 164.552 23.729 164.757 23.209C165.065 22.5851 165.065 21.9093 164.757 21.1814C165.168 20.7654 165.373 20.3495 165.373 19.9336C165.476 19.4137 165.63 18.9457 165.836 18.5298C166.657 17.6979 167.017 17.126 166.914 16.8141C166.811 16.5021 166.863 16.2422 167.068 16.0342C168.095 15.2023 168.866 14.3705 169.379 13.5386C169.893 12.6028 170.098 11.9269 169.996 11.5109C170.817 11.407 171.331 11.043 171.536 10.4191C171.742 9.79522 172.101 9.2753 172.615 8.85937C173.95 7.92352 174.824 7.29962 175.234 6.98767C175.645 6.67572 175.953 6.2078 176.159 5.5839C177.083 5.16796 178.008 4.49207 178.932 3.55623C179.343 3.45224 179.651 3.34826 179.857 3.24428C180.062 3.14029 180.422 3.14029 180.935 3.24428C181.244 2.93233 181.552 2.56838 181.86 2.15245C182.168 1.63254 182.476 1.26859 182.784 1.06063C183.503 0.540713 184.479 0.228763 185.712 0.12478C187.047 -0.0831866 188.126 -0.031195 188.948 0.280755C190.797 0.800671 192.081 0.956645 192.8 0.748679C193.621 0.540713 194.495 0.540713 195.419 0.748679C196.138 0.956645 196.652 1.11262 196.96 1.2166C197.371 1.32059 197.936 1.26859 198.655 1.06063C199.476 1.37258 200.093 1.89249 200.504 2.62038C200.915 3.24428 201.377 3.81618 201.89 4.3361C202.404 4.85602 202.918 5.32394 203.431 5.73987C204.048 6.15581 204.612 6.62373 205.126 7.14365C204.921 8.07949 204.972 8.75539 205.28 9.17132C205.691 9.48327 205.948 10.0032 206.051 10.7311C206.153 11.147 206.102 11.5109 205.896 11.8229C205.691 12.1348 205.742 12.5508 206.051 13.0707C205.64 13.7986 205.229 14.2145 204.818 14.3185C204.51 14.3185 204.561 14.6824 204.972 15.4103C204.15 15.5143 203.277 15.7223 202.353 16.0342C201.428 16.2422 200.555 16.2422 199.733 16.0342C198.809 15.8262 197.987 15.4103 197.268 14.7864C196.549 14.0585 195.727 13.5906 194.803 13.3826C194.803 12.5508 194.495 12.0309 193.878 11.8229C193.365 11.6149 192.902 11.251 192.491 10.7311C191.875 11.043 191.053 11.303 190.026 11.5109C189.102 11.7189 188.331 11.5629 187.715 11.043C186.482 11.355 185.404 11.9269 184.479 12.7587C183.658 13.4866 182.682 14.1625 181.552 14.7864C180.935 16.0342 180.473 16.6581 180.165 16.6581C179.96 16.6581 179.754 16.7621 179.549 16.9701C179.035 17.8019 178.419 18.5818 177.7 19.3097C176.981 20.0376 176.364 20.8174 175.851 21.6493C175.337 22.4812 174.978 23.365 174.772 24.3009C174.567 25.1327 174.772 26.0686 175.389 27.1084C174.464 27.7323 174.053 28.9281 174.156 30.6958C174.361 32.3596 174.567 33.6594 174.772 34.5952C174.772 35.3231 174.926 36.051 175.234 36.7789C175.543 37.4028 175.851 37.9747 176.159 38.4946C176.57 39.0145 176.981 39.4304 177.392 39.7424C177.905 40.0543 178.419 40.4183 178.932 40.8342C180.062 42.7059 180.935 44.0057 181.552 44.7336C182.271 45.3575 183.247 46.0334 184.479 46.7612C184.993 46.4493 185.712 46.6053 186.636 47.2292C187.561 47.7491 188.331 47.9051 188.948 47.6971C189.564 47.5931 190.078 47.3851 190.488 47.0732C190.899 46.7612 191.464 46.6053 192.183 46.6053C193.416 46.1893 194.032 45.8774 194.032 45.6694C194.135 45.4615 194.289 45.2535 194.495 45.0455C195.83 44.6296 196.652 44.0577 196.96 43.3298C197.268 42.6019 197.525 41.978 197.73 41.4581C198.347 41.7701 198.757 41.7181 198.963 41.3021C199.168 40.8862 199.476 40.5742 199.887 40.3663C200.196 40.1583 200.555 40.0543 200.966 40.0543C201.48 39.9503 201.685 39.6384 201.582 39.1185C202.096 39.2225 202.558 39.1185 202.969 38.8065C203.38 38.3906 203.739 38.0786 204.048 37.8707C205.486 37.9747 206.256 38.2346 206.359 38.6506C206.461 38.9625 206.77 39.1185 207.283 39.1185C207.283 39.6384 207.386 39.9503 207.591 40.0543C207.9 40.0543 208.054 40.3143 208.054 40.8342C208.259 41.2501 208.31 41.6141 208.208 41.926C208.208 42.238 208.362 42.4979 208.67 42.7059Z" fill="#FFC700"/>
<path d="M146.715 58.0414C146.672 58.3483 146.72 58.7967 146.858 59.3867C146.989 59.9019 146.875 60.2541 146.517 60.4433C146.706 60.8011 146.772 61.0587 146.713 61.2161C146.737 61.4403 146.731 61.7433 146.696 62.1249C146.098 62.1886 145.707 62.4191 145.523 62.8167C145.346 63.289 145.004 63.6277 144.497 63.8328C144.182 63.7152 143.834 63.6389 143.452 63.6039C143.079 63.6437 142.764 63.526 142.508 63.251C142.3 63.4243 142.042 63.4895 141.735 63.4466C141.503 63.3957 141.237 63.3862 140.938 63.418C140.714 63.4419 140.49 63.4657 140.266 63.4896C140.124 63.5802 139.937 63.6001 139.705 63.5493C139.34 63.6638 138.958 63.6288 138.56 63.4444C138.238 63.252 137.96 63.1304 137.728 63.0795C137.421 63.0366 137.085 63.0724 136.719 63.1869C136.428 63.2934 136.158 63.2465 135.91 63.0462C135.572 62.7043 135.29 62.5453 135.066 62.5692C134.924 62.6598 134.771 62.6384 134.606 62.5048C134.216 62.3951 133.814 62.1733 133.401 61.8394C133.07 61.5723 132.71 61.3839 132.32 61.2742L131.505 60.0005C131.222 60.1818 131.001 60.243 130.844 60.1842C130.679 60.0506 130.446 59.9998 130.147 60.0316C129.934 59.4496 129.804 58.9344 129.756 58.486C129.708 58.0376 129.478 57.6464 129.064 57.3125C128.816 57.1121 128.639 56.8665 128.532 56.5755C128.418 56.2098 128.233 55.8894 127.977 55.6143C127.787 55.2565 127.714 54.9242 127.757 54.6173C127.792 54.2356 127.715 53.8659 127.526 53.5082C127.337 53.1504 127.114 52.834 126.858 52.5589C126.669 52.2011 126.554 51.8354 126.514 51.4617C126.467 51.0133 126.464 50.6356 126.507 50.3287C126.617 49.9391 126.689 49.5535 126.724 49.1719C126.834 48.7823 126.831 48.4046 126.717 48.0389C126.677 47.6652 126.48 47.2327 126.125 46.7414C126.361 46.1117 126.376 45.5432 126.171 45.0359C125.957 44.454 125.782 43.868 125.643 43.2781C125.553 43.1365 125.533 42.9497 125.584 42.7175C125.627 42.4106 125.603 42.1864 125.512 42.0449C125.342 41.156 125.27 40.4834 125.297 40.027C125.324 39.5706 125.318 39.1556 125.278 38.7819C125.238 38.4083 125.165 38.0759 125.059 37.7849C124.944 37.4192 124.904 37.0455 124.939 36.6639C124.884 36.1407 124.911 35.6844 125.02 35.2948C125.122 34.8304 125.033 34.3486 124.753 33.8493C125.036 33.668 125.162 33.4279 125.13 33.129C125.098 32.83 125.149 32.5979 125.283 32.4325C124.931 31.2606 124.723 30.3757 124.66 29.7778C124.671 29.1719 124.607 28.574 124.469 27.9841C124.397 27.3115 124.326 26.6389 124.254 25.9662C124.257 25.2856 124.377 24.6305 124.612 24.0008C124.124 23.6748 123.952 23.1262 124.097 22.355C124.241 21.5838 124.286 20.9366 124.23 20.4134C123.828 19.4737 123.656 18.9251 123.715 18.7677C123.848 18.6023 123.87 18.4488 123.779 18.3073C123.172 16.8603 122.865 15.7592 122.861 15.0038C122.856 14.2485 122.739 13.5051 122.51 12.7737C122.478 12.4747 122.484 12.1718 122.526 11.8649C122.569 11.558 122.396 11.3497 122.006 11.24C121.967 10.8663 122.055 10.6302 122.271 10.5316C122.554 10.3503 122.676 10.0728 122.636 9.69913C122.671 9.31749 122.531 9.06784 122.216 8.95019C121.976 8.82458 121.874 8.57096 121.909 8.18932C121.853 7.66617 121.992 7.19786 122.326 6.78441C122.652 6.29622 122.596 5.77306 122.159 5.21494C122.418 4.80944 122.693 4.55341 122.984 4.44686C123.342 4.25761 123.534 3.9348 123.561 3.47843C124.116 3.72169 124.543 3.82741 124.842 3.79559C125.216 3.75582 125.597 3.79078 125.987 3.90048C126.318 4.16761 126.649 4.43473 126.979 4.70186C127.302 4.89425 127.658 5.0453 128.048 5.155C128.261 5.73698 128.413 6.09873 128.504 6.24024C128.594 6.38176 128.597 6.75942 128.511 7.37322C129.039 8.07286 129.195 8.47198 128.978 8.57058C128.837 8.66122 128.741 8.82263 128.69 9.05479C128.655 9.43643 128.777 9.87689 129.057 10.3762C129.329 10.8007 129.298 11.2197 128.964 11.6332C129.452 11.9591 129.707 12.5745 129.728 13.4793C129.74 14.3094 129.853 15.0154 130.066 15.5974C130.181 15.9631 130.13 16.1953 129.914 16.2939C129.69 16.3177 129.556 16.4831 129.513 16.79C129.702 17.1478 129.949 17.6884 130.253 18.4119C130.623 19.0527 130.641 19.5799 130.308 19.9933C130.595 20.5673 130.779 21.228 130.859 21.9754C131.005 22.6401 131.081 23.3501 131.085 24.1054C131.157 24.778 131.232 25.488 131.312 26.2354C131.458 26.9 131.754 27.5488 132.199 28.1817C132.164 28.5633 132.001 28.8074 131.711 28.9139C131.494 29.0126 131.443 29.2447 131.558 29.6104C131.89 31.3135 132.103 32.9537 132.195 34.5311C132.287 36.1085 132.35 37.7647 132.384 39.4995C132.837 40.2071 133.161 41.1174 133.355 42.2305C133.541 43.2689 133.64 44.2031 133.653 45.0331C133.671 46.6185 133.827 47.7356 134.123 48.3844C134.486 48.9504 134.64 49.6898 134.586 50.6026C135.028 51.916 135.538 52.8065 136.117 53.2739C136.688 53.6667 136.935 54.2073 136.857 54.8958C137.129 55.3204 137.339 55.5247 137.489 55.5088C137.638 55.4929 137.906 55.8801 138.293 56.6704C139.115 56.5829 139.916 56.6488 140.695 56.8682C141.474 57.0876 142.267 57.0788 143.073 56.8419C143.446 56.8021 143.645 56.8943 143.669 57.1185C143.76 57.26 143.959 57.3522 144.265 57.3952C144.498 57.446 144.722 57.4222 144.938 57.3236C145.146 57.1502 145.371 57.1264 145.611 57.252C145.768 57.3108 145.934 57.4444 146.107 57.6527C146.28 57.861 146.483 57.9905 146.715 58.0414Z" fill="#FFC700"/>
<path d="M100.138 58.9822C100.16 59.2817 100.117 59.569 100.009 59.8442C99.9577 60.1032 100.03 60.3581 100.224 60.609C100.074 60.957 99.8509 61.2647 99.5539 61.5318C99.3145 61.7828 99.1852 62.0944 99.1661 62.4667C98.7158 62.4102 98.3502 62.5439 98.0693 62.8677C97.8458 63.1753 97.6878 63.4951 97.5952 63.8269C97.2759 63.7946 96.9805 63.8473 96.7091 63.985C96.4217 64.066 96.1424 64.1754 95.871 64.3131C95.6411 64.3779 95.3824 64.4508 95.095 64.5318C94.8492 64.54 94.5714 64.4349 94.2616 64.2165C93.5783 64.6537 92.8631 64.9777 92.1159 65.1884C91.3687 65.399 90.5928 65.6178 89.7882 65.8447C89.4848 65.869 89.3284 65.9743 89.3188 66.1604C89.3667 66.3304 89.2917 66.5044 89.0938 66.6825C88.5605 66.7717 87.9938 66.9621 87.3935 67.2537C86.8507 67.529 86.2791 67.8125 85.6789 68.104C85.1361 68.3794 84.5853 68.6264 84.0265 68.8451C83.5252 69.0476 83.0335 69.0639 82.5513 68.8941C82.1394 69.1937 81.7323 69.4002 81.33 69.5136C80.9276 69.6271 80.4886 69.7203 80.0128 69.7933C79.6999 70.0038 79.5339 70.2952 79.5148 70.6675C79.4318 70.8132 79.3121 70.9387 79.1556 71.044C78.9832 71.0926 78.8555 71.1898 78.7725 71.3355C79.1142 71.6672 79.3936 72.1082 79.6108 72.6585C79.812 73.1521 80.1665 73.4191 80.6742 73.4594C80.8499 74.0825 81.1613 74.6368 81.6084 75.1222C82.113 75.5915 82.6095 76.0324 83.0981 76.445C83.6282 76.7848 84.0849 77.0841 84.4681 77.343C84.8928 77.529 85.1004 77.715 85.0908 77.9012C85.8189 78.0628 86.2611 78.091 86.4176 77.9857C86.574 77.8805 86.7465 77.8319 86.9349 77.8399C86.9828 78.0098 87.2398 78.1514 87.7061 78.2646C88.1563 78.3211 88.656 78.333 89.2052 78.3005C89.7545 78.2679 90.259 78.1869 90.7188 78.0572C91.1786 77.9276 91.4052 77.7414 91.3988 77.4986C91.8171 77.4418 92.1412 77.381 92.3711 77.3161C92.5851 77.1947 92.7415 77.0894 92.8405 77.0003C92.981 76.8384 93.1294 76.7048 93.2859 76.5996C93.4423 76.4943 93.6563 76.3729 93.9277 76.2352C94.1416 76.1137 94.3428 76.057 94.5311 76.065C94.777 76.0569 95.0069 75.992 95.2208 75.8706C95.5497 75.7167 95.8626 75.5062 96.1596 75.239C96.4565 74.9718 96.7726 74.8827 97.1079 74.9716C97.2899 74.7368 97.5788 74.4413 97.9747 74.0851C98.1791 74.1498 98.3882 74.1214 98.6022 73.9999C98.8161 73.8785 99.054 73.842 99.3158 73.8904C99.6351 73.9227 99.8938 73.8498 100.092 73.6717C100.29 73.4935 100.548 73.4206 100.868 73.4529C101.114 73.4447 101.347 73.5013 101.567 73.6226C101.771 73.6873 102.025 73.7075 102.329 73.6831C102.367 74.0392 102.515 74.4559 102.774 74.9334C103.074 75.3379 102.995 75.605 102.535 75.7347C102.746 76.0422 102.76 76.3133 102.578 76.5481C102.453 76.7666 102.468 77.0377 102.621 77.3614C102.267 77.6448 101.892 77.9646 101.496 78.3208C101.141 78.6042 100.876 78.9847 100.701 79.4623C100.423 79.3571 100.193 79.422 100.011 79.6567C99.8865 79.8753 99.7173 80.0453 99.5033 80.1668C99.2894 80.2882 99.0515 80.3247 98.7897 80.2762C98.5278 80.2278 98.3506 80.3695 98.2581 80.7013C97.447 80.6854 96.9297 80.8312 96.7062 81.1389C96.5243 81.3736 96.2161 81.4911 95.7819 81.4912C95.4945 81.5722 95.2806 81.6937 95.1401 81.8556C95.0411 81.9447 94.8847 82.0499 94.6707 82.1714L93.6458 82.8273C93.0966 82.8598 92.6943 82.9733 92.4388 83.1676C92.2409 83.3457 91.9982 83.4753 91.7108 83.5563C91.3085 83.6698 90.919 83.7184 90.5422 83.7024C90.2229 83.6701 89.894 83.824 89.5555 84.164C89.2841 84.3017 89.0878 84.2653 88.9664 84.0549C88.9185 83.885 88.7923 83.7677 88.588 83.703C88.2751 83.9135 87.959 84.0026 87.6396 83.9704C87.3203 83.9381 86.9882 83.9706 86.6434 84.0678C86.1037 83.9142 85.5561 83.7323 85.0005 83.522C84.4863 83.2389 83.9307 83.0287 83.3336 82.8913C83.1388 82.6405 82.8657 82.4423 82.5145 82.2967C82.2207 82.1349 81.8981 81.9813 81.5469 81.8357C81.1732 81.3907 80.7373 81.0549 80.2392 80.8285C79.741 80.602 79.2844 80.3027 78.8692 79.9306C78.7064 79.793 78.5563 79.5907 78.4189 79.3237C78.3391 79.0405 78.2097 78.8018 78.0309 78.6076C77.6317 78.2921 77.191 78.0494 76.7088 77.8796C76.2107 77.6531 75.944 77.1474 75.9088 76.3623C75.3148 75.796 74.8805 75.2458 74.6058 74.7117C74.3726 74.1048 74.1874 73.6678 74.05 73.4008C73.8552 73.15 73.6604 72.8991 73.4656 72.6483C73.2548 72.3408 73.1095 72.0454 73.0296 71.7622C72.9498 71.479 72.9146 71.2443 72.9242 71.0581C72.9178 70.8153 72.8746 70.5523 72.7948 70.2691C72.7628 70.1558 72.6702 69.9373 72.5169 69.6136C72.3636 69.2899 72.2103 68.9662 72.057 68.6425C71.9611 68.3026 71.8813 68.0194 71.8174 67.7928C71.795 67.4934 71.8988 67.3112 72.1287 67.2464C71.8285 66.8418 71.7167 66.4453 71.7933 66.0568C71.9273 65.6521 71.881 65.2677 71.6542 64.9035C71.9097 64.7092 72.0549 64.4542 72.09 64.1386C72.1091 63.7663 72.2751 63.4749 72.588 63.2643C72.4188 62.884 72.4044 62.6129 72.5448 62.451C72.6693 62.2324 72.8354 61.941 73.0429 61.5767C72.9215 61.3663 72.9279 61.0588 73.0619 60.6541C73.18 60.1927 73.3636 59.7435 73.6126 59.3064C73.8456 58.8126 74.0947 58.3755 74.3596 57.995C74.6246 57.6145 74.8274 57.3433 74.9678 57.1814C75.252 56.4287 75.6335 55.8013 76.1124 55.2994C76.6328 54.7246 76.9776 54.077 77.1467 53.3566C77.4181 53.219 77.6241 53.0692 77.7646 52.9073C77.9465 52.6725 78.1652 52.458 78.4207 52.2636C78.5037 52.1179 78.6074 51.9358 78.732 51.7172C78.8405 51.442 78.9363 51.2316 79.0193 51.0859C79.1597 50.9239 79.3817 50.8308 79.685 50.8064C79.9724 50.7254 80.223 50.6241 80.437 50.5027C81.0372 50.2111 81.6215 49.8629 82.1899 49.4581C82.7422 48.9966 83.2818 48.5998 83.8087 48.2678C84.393 47.9196 84.9805 47.6928 85.5712 47.5874C86.2194 47.4658 86.9315 47.5708 87.7074 47.9024C88.8474 47.7644 89.6377 47.8168 90.0784 48.0595C90.5191 48.3021 91.0715 48.391 91.7356 48.326C92.1668 48.7548 92.6314 49.0824 93.1296 49.3089C93.6117 49.4787 94.1227 49.6404 94.6623 49.794C94.8731 50.1015 95.0839 50.409 95.2947 50.7164C95.5629 51.0077 95.9142 51.1533 96.3485 51.1531C96.2048 51.744 96.2352 52.0718 96.4396 52.1365C96.6439 52.2011 96.8068 52.3387 96.9282 52.5491C97.0336 52.7028 97.0527 52.8809 96.9857 53.0832C96.9761 53.2694 97.0448 53.4029 97.1917 53.4838C97.3865 53.7346 97.5733 53.9571 97.7522 54.1513C97.9885 54.3293 98.204 54.5437 98.3989 54.7945C98.5777 54.9887 98.6783 55.2355 98.7007 55.5349C98.7646 55.7615 98.9562 55.891 99.2755 55.9232C99.2309 56.425 99.3459 56.943 99.6205 57.477C99.9527 57.9949 100.125 58.4966 100.138 58.9822ZM92.9628 56.9693C92.637 56.6942 92.364 56.496 92.1437 56.3747C91.9648 56.1805 91.8403 55.8487 91.77 55.3793C91.6071 55.2418 91.4107 55.2054 91.1808 55.2703C90.9509 55.3351 90.7258 55.3068 90.5055 55.1855C90.4256 54.9023 90.3042 54.6919 90.1414 54.5543C89.9625 54.3602 89.7757 54.1376 89.5809 53.8868C88.7922 54.1703 88.0339 54.2313 87.3058 54.0696C86.5618 53.8514 85.8274 53.9973 85.1026 54.5074L83.5843 55.3941C83.3098 55.9607 82.9378 56.4019 82.4685 56.7177C82.0406 56.9607 81.6367 57.2886 81.2568 57.7014C81.0588 57.8796 80.9918 58.0819 81.0557 58.3085C81.1196 58.5351 81.0446 58.7091 80.8306 58.8306C80.7476 58.9763 80.5912 59.0816 80.3613 59.1464C80.1889 59.195 80.0164 59.2436 79.844 59.2922C79.8249 59.6645 79.7531 59.96 79.6286 60.1785C79.5456 60.3242 79.4051 60.4861 79.2071 60.6643C79.0667 60.8262 78.9342 61.0164 78.8097 61.235C78.6692 61.3969 78.6181 61.6559 78.6565 62.012C78.6373 62.3843 78.5368 62.6878 78.3548 62.9226C78.2303 63.1411 78.1425 63.3799 78.0915 63.6389C78.2863 63.8898 78.4156 64.1285 78.4795 64.3551C78.5849 64.5088 78.7893 64.5735 79.0926 64.5491C79.1661 64.5895 79.3752 64.5612 79.7201 64.4639C80.0489 64.31 80.4145 64.1764 80.8169 64.0629C81.2607 63.8767 81.663 63.7632 82.0238 63.7226C82.4261 63.6092 82.7215 63.5565 82.9099 63.5645C83.1749 63.1841 83.5006 62.9088 83.8869 62.7387C84.7331 62.439 85.2839 62.192 85.5393 61.9976C85.7947 61.8033 86.0869 61.6292 86.4157 61.4753C86.6871 61.3377 86.9458 61.2647 87.1917 61.2566C87.495 61.2322 87.7824 61.1512 88.0538 61.0135C88.3252 60.8758 88.5678 60.7462 88.7818 60.6248C89.0372 60.4305 89.3086 60.2928 89.596 60.2118C90.5635 60.1224 91.2979 59.9765 91.7992 59.774C92.358 59.5553 92.888 59.3447 93.3893 59.1422C93.3541 58.3572 93.2119 57.6329 92.9628 56.9693Z" fill="#FFC700"/>
<path d="M42.0385 71.8299C41.8815 72.2029 41.8573 72.5485 41.9657 72.8667C42.1269 73.1314 42.2085 73.4231 42.2106 73.742C42.003 74.4874 41.9263 74.9397 41.9805 75.0987C42.034 75.1515 42.0615 75.2842 42.0629 75.4968C41.4843 76.4041 41.1697 77.044 41.119 77.4163C41.1211 77.7352 40.9902 78.0284 40.7262 78.2958C40.8881 78.6668 41.05 79.0377 41.2119 79.4087C41.3731 79.6734 41.4548 79.9651 41.4569 80.284C41.83 80.4409 42.0704 80.6254 42.1781 80.8372C42.2858 81.0491 42.4734 81.287 42.7409 81.551C42.6895 81.817 42.719 82.2686 42.8296 82.9056C42.9929 83.4891 43.2361 84.0987 43.5592 84.7343C43.8288 85.3171 44.1245 85.82 44.4461 86.2431C44.8206 86.6126 45.1937 86.7696 45.5653 86.7139C45.9455 87.9338 46.4034 88.8608 46.9391 89.495C47.4747 90.1292 48.2219 90.6025 49.1806 90.9151C49.2362 91.2867 49.4245 91.6309 49.7455 91.9477C50.1193 92.2109 50.2541 92.5023 50.1499 92.8219L51.9956 94.6432C52.4264 95.4906 52.7488 96.02 52.9628 96.2311C53.1761 96.336 53.4147 96.2547 53.6786 95.9872C53.8405 96.3582 54.0563 96.835 54.3259 97.4179C54.5948 97.8944 54.995 98.1309 55.5264 98.1274C55.5299 98.6588 55.8256 99.1617 56.4133 99.6361C56.9476 100.058 57.3756 100.48 57.6973 100.903C58.1802 101.591 58.6103 102.332 58.9876 103.127C59.4177 103.868 59.8741 104.582 60.357 105.27C61.1588 105.956 61.5343 106.485 61.4836 106.857C61.433 107.229 61.5685 107.627 61.8902 108.05C61.3609 108.372 61.1771 108.719 61.339 109.09C61.501 109.461 61.6365 109.859 61.7456 110.283C61.4302 110.817 61.0079 111.245 60.4786 111.567C60.0556 111.889 59.5519 112.078 58.9677 112.135C58.7066 112.828 58.337 113.202 57.8591 113.259C57.3812 113.315 57.0359 113.344 56.8233 113.345C56.0329 114.36 55.1854 114.791 54.2809 114.638C53.4827 114.483 52.5511 114.25 51.4861 113.939C50.4239 114.052 49.4937 114.032 48.6955 113.877C47.8966 113.617 46.9917 113.41 45.9809 113.258C45.5023 113.208 44.9976 113.238 44.4668 113.348C43.9354 113.351 43.4567 113.301 43.0309 113.198C42.8183 113.199 42.6318 113.121 42.4713 112.962C42.2573 112.751 42.044 112.646 41.8314 112.648C41.4056 112.544 41.0068 112.52 40.6352 112.576C40.21 112.579 39.7856 112.688 39.3618 112.903C39.1478 112.692 38.8811 112.534 38.5615 112.43C38.1884 112.273 37.8425 112.196 37.5236 112.198C37.2047 112.2 36.9397 112.308 36.7286 112.522C36.4639 112.683 36.3861 112.976 36.4952 113.401C37.7228 114.19 37.9414 115.092 37.151 116.107C37.3657 116.424 37.5276 116.795 37.6367 117.219C37.7451 117.538 37.933 117.829 38.2005 118.093C38.2019 118.305 38.177 118.545 38.1256 118.811C38.0742 119.077 38.0492 119.316 38.0506 119.529C38.1055 119.794 38.2136 120.059 38.3748 120.324C38.5353 120.482 38.643 120.694 38.6979 120.959C38.5965 121.704 38.6258 122.102 38.7856 122.154C38.9453 122.207 39.0259 122.339 39.0273 122.551C39.1365 122.976 39.1129 123.428 38.9566 123.907C38.7997 124.28 38.7758 124.679 38.8849 125.103C38.9398 125.369 39.0478 125.634 39.209 125.898C39.423 126.11 39.4248 126.375 39.2143 126.696C39.3213 126.801 39.4818 126.96 39.6958 127.171C39.8563 127.329 39.9372 127.515 39.9387 127.727C39.5748 128.952 39.421 129.803 39.4773 130.281C39.5336 130.759 39.4837 131.238 39.3274 131.717C39.0621 131.772 38.8505 131.933 38.6929 132.2C38.6415 132.466 38.5099 132.653 38.298 132.76C37.9805 132.975 37.6092 133.084 37.1841 133.087C36.8117 133.036 36.4943 133.251 36.2317 133.731C35.9122 133.627 35.4071 133.603 34.7166 133.661C34.0789 133.665 33.6794 133.535 33.5182 133.27C33.2008 133.485 32.8559 133.567 32.4835 133.516C32.1639 133.412 31.8187 133.441 31.4477 133.603C30.3813 133.079 29.5539 132.526 28.9654 131.945C28.3234 131.312 27.6037 130.971 26.8062 130.923C26.6457 130.765 26.5116 130.58 26.4039 130.368C26.2955 130.05 26.1086 129.918 25.8432 129.973C25.5779 130.028 25.3136 130.242 25.0503 130.616C24.7871 130.99 24.4689 131.098 24.0959 130.941C23.7228 130.785 23.5084 130.52 23.4528 130.149C23.3437 129.724 23.1822 129.406 22.9682 129.195C22.4874 128.826 21.9531 128.405 21.3654 127.93C20.7241 127.403 20.0843 127.088 19.4458 126.986C18.8046 126.459 18.296 125.905 17.9201 125.322C17.5435 124.634 16.9822 124.133 16.236 123.819C16.0748 123.554 15.9668 123.289 15.9119 123.024C15.8569 122.759 15.7489 122.494 15.5877 122.229C15.2146 122.072 14.7346 121.809 14.1475 121.441C13.5605 121.073 13.3183 120.623 13.4211 120.091C13.2064 119.773 12.9931 119.669 12.7812 119.776C12.5686 119.778 12.3286 119.646 12.0611 119.382C11.7401 119.066 11.4723 118.749 11.2576 118.431C11.0422 118.007 10.8004 117.61 10.5322 117.24C10.2105 116.817 9.9441 116.713 9.73294 116.927C9.52107 117.034 9.28139 116.956 9.01391 116.692C8.6366 115.898 8.39304 115.235 8.28322 114.704C8.1727 114.067 7.79892 113.804 7.1619 113.914C7.10558 113.436 6.81029 112.987 6.27602 112.565C5.79455 112.09 5.41971 111.667 5.15152 111.297L5.14093 109.703C5.08672 109.544 4.95298 109.412 4.7397 109.307C4.52571 109.096 4.39161 108.91 4.33741 108.751C4.75409 107.473 5.09546 106.86 5.36153 106.911C5.62761 106.962 5.99961 106.96 6.47756 106.904C7.16384 106.208 7.79944 105.885 8.38438 105.934C8.96861 105.877 9.65878 105.766 10.4549 105.602C11.1489 106.075 11.7634 106.576 12.2984 107.104C12.8334 107.632 13.3951 108.186 13.9836 108.767C14.2511 109.031 14.3324 109.27 14.2275 109.483C14.0691 109.643 13.9906 109.83 13.992 110.042C14.2602 110.413 14.5531 110.49 14.8705 110.276C15.1873 109.955 15.5061 109.953 15.8271 110.269C15.6159 110.483 15.5642 110.696 15.6719 110.908C15.7796 111.12 15.8342 111.332 15.8356 111.545C17.0153 113.131 18.1127 114.32 19.1278 115.11C20.1956 115.847 21.1578 116.691 22.0145 117.642C22.7135 118.86 23.3825 119.573 24.0217 119.781C24.7136 119.936 25.2208 120.278 25.5432 120.807C26.0218 120.857 26.5005 120.907 26.9791 120.957C27.4571 120.901 27.8041 121.138 28.0202 121.668C28.5003 121.93 29.0057 122.007 29.5364 121.897C30.0664 121.681 30.3828 121.307 30.4856 120.775C30.5348 120.19 30.3986 119.686 30.0769 119.263C29.808 118.786 29.7249 118.282 29.8277 117.75C29.4546 117.593 29.2938 117.381 29.3452 117.115C29.3431 116.796 29.2878 116.478 29.1794 116.16C29.0175 115.789 28.7757 115.392 28.454 114.969C28.1323 114.546 28.0492 114.041 28.2048 113.456C27.9394 113.511 27.7789 113.352 27.7233 112.98C27.667 112.503 27.5853 112.211 27.4783 112.105C27.2108 111.841 27.0764 111.603 27.075 111.39C27.0736 111.178 27.0454 110.939 26.9905 110.673C26.8821 110.355 26.7737 110.037 26.6653 109.719C26.5569 109.401 26.4217 109.056 26.2598 108.685C26.2056 108.526 26.1514 108.367 26.0972 108.208C26.0423 107.943 25.961 107.704 25.8533 107.492C25.4246 106.964 25.2363 106.619 25.2884 106.46C25.3405 106.3 25.3394 106.14 25.2852 105.981C25.2303 105.716 25.0698 105.558 24.8037 105.506C24.537 105.349 24.4821 105.083 24.639 104.71C24.3194 104.606 24.0527 104.448 23.8387 104.237C23.624 103.92 23.5951 103.574 23.7521 103.201C23.2199 103.099 22.9795 102.914 23.0309 102.648C23.0823 102.382 23.027 102.064 22.8651 101.693C22.7039 101.428 22.5431 101.216 22.3826 101.058C22.2221 100.9 22.0613 100.688 21.9001 100.424C21.4714 99.8949 21.2039 99.631 21.0976 99.6317C20.9378 99.5796 20.8041 99.4476 20.6964 99.2357C20.374 98.7064 20.2378 98.2024 20.2877 97.7238C20.337 97.1388 20.2004 96.5817 19.878 96.0524C20.5671 95.7821 20.9641 95.5403 21.069 95.327C21.1204 95.0609 21.1721 94.848 21.2242 94.6882C21.5395 94.1547 22.041 93.6464 22.7287 93.1635C23.4164 92.6807 24.0527 92.4638 24.6377 92.5131C25.7533 92.4525 26.3921 92.6077 26.554 92.9787C26.7159 93.3496 26.9306 93.6671 27.1981 93.931C27.4656 94.195 27.8126 94.4318 28.2392 94.6416C28.6123 94.7986 28.9325 95.009 29.2 95.273C29.7371 96.1197 30.2988 96.674 30.8852 96.9359C31.4715 97.1977 31.7137 97.6478 31.6116 98.2863C31.8784 98.4439 32.1181 98.5221 32.3307 98.5207C32.596 98.4657 32.8357 98.5439 33.0497 98.755C33.427 99.5497 33.7754 99.9992 34.095 100.103C34.3611 100.155 34.5744 100.26 34.7348 100.418C35.5908 101.263 36.2849 101.736 36.817 101.839C37.3491 101.942 37.8285 102.098 38.2551 102.308C38.8449 103.101 39.4609 103.814 40.1028 104.448C40.6878 104.497 41.2727 104.546 41.8576 104.596C42.3891 104.592 42.9216 104.748 43.4551 105.063C43.881 105.167 44.4117 105.057 45.0473 104.734C45.262 105.051 45.5292 105.262 45.8487 105.366C46.1148 105.418 46.3288 105.629 46.4907 106C47.1812 105.942 47.8721 105.938 48.5633 105.986C49.201 105.982 49.8388 105.978 50.4765 105.973C50.6349 105.813 50.58 105.548 50.3118 105.177C50.0436 104.807 49.749 104.464 49.428 104.147C49.0535 103.777 48.6794 103.461 48.3056 103.198C47.8784 102.882 47.5848 102.698 47.425 102.645C47.3687 102.168 47.1533 101.744 46.7788 101.374C46.4037 100.898 46.0031 100.609 45.5773 100.505C45.68 99.9732 45.4636 99.39 44.9279 98.7558C44.3922 98.1216 43.8851 97.7795 43.4064 97.7296C43.191 97.3058 43.0298 97.0412 42.9228 96.9356C42.8151 96.7237 42.5744 96.4862 42.2006 96.2229C41.9866 96.0118 41.8789 95.7999 41.8775 95.5873C41.9289 95.3212 41.874 95.0559 41.7128 94.7912C40.6999 94.3196 39.8995 93.8466 39.3118 93.3722C38.7233 92.7915 38.2411 92.2101 37.8652 91.628C37.6498 91.2043 37.4344 90.7805 37.219 90.3568C37.0029 89.8268 36.6284 89.4572 36.0956 89.2482C35.7696 88.1874 35.393 87.499 34.9658 87.183C34.5385 86.8669 34.5353 86.3887 34.9562 85.7481C34.7408 85.3244 34.5254 84.9006 34.31 84.4769C34.0946 84.0531 34.0651 83.6016 34.2213 83.1222C33.7405 82.7534 33.3921 82.304 33.176 81.774C32.9592 81.1376 32.7695 80.5809 32.6069 80.1036C32.9757 79.6229 33.1066 79.3297 32.9996 79.2241C32.8926 79.1185 32.8652 78.9858 32.9173 78.8261C32.9693 78.6663 33.0485 78.586 33.1548 78.5853C33.2076 78.5318 33.2604 78.4783 33.3132 78.4248C33.4188 78.3178 33.524 78.1577 33.6289 77.9444C33.6802 77.6783 33.7306 77.2528 33.7798 76.6679C34.5717 75.8654 34.8853 75.0662 34.7205 74.2701C34.5551 73.3677 34.7891 72.5955 35.4226 71.9535C35.6338 71.7396 35.8724 71.6582 36.1385 71.7096C36.4038 71.6547 36.6424 71.5734 36.8543 71.4657C37.1197 71.4108 37.3315 71.3031 37.4899 71.1426C37.7011 70.9286 37.8858 70.7414 38.0442 70.5809C38.4173 70.7378 38.7893 70.7354 39.1602 70.5735C39.5312 70.4116 39.9028 70.356 40.2752 70.4066C40.4371 70.7776 40.6525 71.2013 40.9214 71.6778C41.1896 72.0481 41.562 72.0988 42.0385 71.8299Z" fill="#FFC700"/>
</svg>
