<svg width="55" height="18" viewBox="0 0 55 18" fill="current" xmlns="http://www.w3.org/2000/svg">
<path d="M46.6321 9.43154H41.2981V8.50119H40.3264V7.65354H39.3547V3.97349H40.3264V3.14652H41.2981V2.27819H42.9727V0.624237H44.9368V2.27819H46.6321V3.14652H47.6245V3.97349H48.5755V7.65354H47.6245V8.50119H46.6321V9.43154ZM41.2981 7.65354H42.2698V8.50119H45.6397V7.65354H46.6321V3.99417H45.6397V3.14652H42.2698V3.99417H41.2981V7.65354ZM42.7246 12.7188V11.7884H44.6887V12.7188H45.7431V16.1921H52.8344V15.3444H54.6951V16.1921H53.7854V17.1224H44.7094V16.1921H43.6757V12.7188H42.7246ZM51.2425 1.55458V0.624237H53.1652V1.55458H54.1369V11.3336H53.1652V12.2433H52.1728V1.55458H51.2425Z" fill="current"/>
<path fill-rule="evenodd" clip-rule="evenodd" d="M42.8251 0.476562H45.0845V2.13052H46.7798V2.99884H47.7721V3.82582H48.7232V7.80121H47.7721V8.64887H46.7798V9.57921H41.1504V8.64887H40.1787V7.80121H39.207V3.82582H40.1787V2.99884H41.1504V2.13052H42.8251V0.476562ZM43.1204 0.771911V2.42586H41.4458V3.29419H40.4741V4.12117H39.5024V7.50586H40.4741V8.35352H41.4458V9.28386H46.4844V8.35352H47.4768V7.50586H48.4278V4.12117H47.4768V3.29419H46.4844V2.42586H44.7891V0.771911H43.1204ZM51.0948 0.476562H53.3129V1.40691H54.2846V11.4813H53.3129V12.3909H52.0252V1.70226H51.0948V0.476562ZM51.3902 0.771911V1.40691H52.3205V12.0956H53.0175V11.1859H53.9892V1.70226H53.0175V0.771911H51.3902ZM42.1221 2.99884H45.7874V3.84649H46.7798V7.80121H45.7874V8.64887H42.1221V7.80121H41.1504V3.84649H42.1221V2.99884ZM42.4175 3.29419V4.14184H41.4458V7.50586H42.4175V8.35352H45.4921V7.50586H46.4844V4.14184H45.4921V3.29419H42.4175ZM42.577 11.6407H44.8364V12.5711H45.8908V16.0444H52.6868V15.1967H54.8428V16.3397H53.9331V17.2701H44.5617V16.3397H43.528V12.8664H42.577V11.6407ZM42.8723 11.9361V12.5711H43.8233V16.0444H44.8571V16.9747H53.6378V16.0444H54.5474V15.4921H52.9821V16.3397H45.5954V12.8664H44.541V11.9361H42.8723Z" fill="current"/>
<path d="M21.7744 2.62928V1.76096H32.2356V2.58793H33.2694V8.52149H32.2356V10.3408H31.1812V11.2919H29.2378V10.3408H30.2095V8.52149H31.1812V2.62928H21.7744ZM19.6242 14.393V13.4834H35.9157V14.393H19.6242Z" fill="current"/>
<path fill-rule="evenodd" clip-rule="evenodd" d="M21.6267 1.61328H32.3833V2.44026H33.417V8.66916H32.3833V10.4885H31.3289V11.4395H29.0902V10.1932H30.0619V8.37382H31.0336V2.77696H21.6267V1.61328ZM21.9221 1.90863V2.48161H31.3289V8.66916H30.3572V10.4885H29.3855V11.1442H31.0336V10.1932H32.088V8.37382H33.1217V2.73561H32.088V1.90863H21.9221ZM19.4766 13.3357H36.0634V14.5407H19.4766V13.3357ZM19.7719 13.631V14.2454H35.768V13.631H19.7719Z" fill="current"/>
<path d="M3.19739 10.2996V9.41058H2.20502V6.04065H3.21806V5.17233H11.5912V2.13319H2.65985V1.26486H12.6456V2.11251H13.6586V5.17233H12.6456V6.04065H4.25178V9.41058H12.935V8.54226H14.7544V9.47261H13.8654V10.2996H3.19739ZM0.178924 15.2201V14.3104H7.37362V12.1603H6.4226V11.2299H8.46937V12.1603H9.46174V14.3104H16.4704V15.2201H0.178924Z" fill="current"/>
<path fill-rule="evenodd" clip-rule="evenodd" d="M2.51218 1.11719H12.7933V1.96484H13.8063V5.32H12.7933V6.18833H4.39946V9.26291H12.7874V8.39458H14.9021V9.62028H14.0131V10.4473H3.04972V9.55826H2.05734V5.89298H3.07039V5.02465H11.4435V2.28086H2.51218V1.11719ZM2.80753 1.41254V1.98551H11.7389V5.32H3.36574V6.18833H2.35269V9.26291H3.34506V10.1519H13.7177V9.32493H14.6067V8.68993H13.0827V9.55826H4.10411V5.89298H12.4979V5.02465H13.511V2.26019H12.4979V1.41254H2.80753ZM6.27492 11.0823H8.61704V12.0126H9.60941V14.1627H16.618V15.3678H0.03125V14.1627H7.22595V12.308H6.27492V11.0823ZM6.57027 11.3776V12.0126H7.5213V14.4581H0.326599V15.0724H16.3227V14.4581H9.31406V12.308H8.32169V11.3776H6.57027Z" fill="current"/>
</svg>
