<svg width="313" height="76" viewBox="0 0 313 76" fill="none" xmlns="http://www.w3.org/2000/svg">
<path fill-rule="evenodd" clip-rule="evenodd" d="M13.3709 8.55908H46.7314V11.2979H49.9843V16.7755H53.0649L53.0649 27.3889H56.4885V34.2362H59.9121V47.9306H56.4885V56.4897H53.0649L53.0649 59.2284H49.9843V61.9675H46.7314V61.9978H13.3709V8.55908ZM13.3706 11.3507H10.055V59.2062H13.3706V11.3507ZM6.73848 16.9338H10.0541V50.8315H6.73848V16.9338ZM6.73753 26.9036H3.42196V48.0398H6.73753V26.9036ZM20.0021 64.7895V67.581H43.2126V64.7895L46.5277 64.7895V61.9979H16.6855V64.7895H20.0021Z" fill="#D59F52"/>
<rect x="42.4531" y="23.2808" width="5.82016" height="2.7389" fill="#1A1918"/>
<path d="M39.7895 0H20.3684V2.79157H39.7895V0Z" fill="#1A1918"/>
<path d="M43.1053 67.4454H19.8947V70.1881H43.1053V67.4454Z" fill="#1A1918"/>
<path d="M16.4334 5.4778H13.3521V8.55906H16.5789L16.4334 5.4778Z" fill="#1A1918"/>
<path d="M43.1053 5.58315H46.4211V8.55906H43.1053V5.58315Z" fill="#1A1918"/>
<path d="M39.7895 2.79157H43.1053V5.58315H39.7895V2.79157Z" fill="#1A1918"/>
<path d="M16.4334 2.79157H20.3684V5.58315L16.4334 5.4778V2.79157Z" fill="#1A1918"/>
<path d="M13.3521 8.55906H9.94738V11.298H13.3521V8.55906Z" fill="#1A1918"/>
<path d="M46.4211 8.55906H49.7368V11.298H46.4211V8.55906Z" fill="#1A1918"/>
<path d="M9.94738 11.298H6.63158V16.7494H9.94738V11.298Z" fill="#1A1918"/>
<path d="M6.63158 16.7494H3.3158V26.7193H6.63158V16.7494Z" fill="#1A1918"/>
<path d="M49.7368 11.298H53.0526V16.7757H49.7368V11.298Z" fill="#1A1918"/>
<path d="M3.3158 26.7193H0V47.8555H3.3158V26.7193Z" fill="#1A1918"/>
<path d="M56.4898 16.7757H53.0526V27.5169H56.4898V16.7757Z" fill="#1A1918"/>
<path d="M9.94738 50.6471H6.63158V58.8863H9.94738V50.6471Z" fill="#1A1918"/>
<path d="M56.4898 47.8555H59.9134V56.1474H56.4898V47.8555Z" fill="#1A1918"/>
<path d="M56.4898 27.5169H59.9134V34.2965H56.4898V27.5169Z" fill="#1A1918"/>
<path d="M13.2632 58.8863H9.94738V61.8134H13.2632V58.8863Z" fill="#1A1918"/>
<path d="M6.63158 47.8555H3.3158V50.6471H6.63158V47.8555Z" fill="#1A1918"/>
<path d="M49.9849 59.2287H53.0526V61.9676H49.9849V59.2287Z" fill="#1A1918"/>
<path d="M53.0526 56.1474H56.4898V59.2287H53.0526V56.1474Z" fill="#1A1918"/>
<path d="M16.4334 61.8134H13.2632V64.7065H16.4334V61.8134Z" fill="#1A1918"/>
<path d="M46.5613 61.9676H49.9849V64.7065H46.5613V61.9676Z" fill="#1A1918"/>
<path d="M19.8947 64.7065H16.4334V67.4454H19.8947V64.7065Z" fill="#1A1918"/>
<path d="M43.1053 64.7065H46.5613V67.4454H43.1053V64.7065Z" fill="#1A1918"/>
<path d="M63 34.2965H59.9134V47.8555H63V34.2965Z" fill="#1A1918"/>
<rect x="20.541" y="23.2808" width="5.82016" height="2.7389" fill="#1A1918"/>
<rect x="15.0625" y="35.2632" width="5.82016" height="5.82016" fill="#FA4C4C"/>
<rect x="48.2734" y="35.2632" width="5.82016" height="5.82016" fill="#FA4C4C"/>
<rect width="2.7389" height="5.82016" transform="matrix(-1 0 0 1 30.1289 36.6328)" fill="#1A1918"/>
<rect width="2.39654" height="5.82016" transform="matrix(-1 0 0 1 41.7676 36.6328)" fill="#1A1918"/>
<rect width="9.53191" height="2.90102" transform="matrix(-1 0 0 1 39.4062 36.6328)" fill="#1A1918"/>
<rect width="9.58614" height="3.08126" transform="matrix(-1 0 0 1 39.3711 39.3716)" fill="#FAFAFA"/>
<rect width="9.53191" height="2.48659" transform="matrix(-1 0 0 1 26.5254 70.5435)" fill="#B17C31"/>
<rect width="8.21669" height="2.39654" transform="matrix(-1 0 0 1 47.5898 70.5264)" fill="#B17C31"/>
<rect width="9.58614" height="2.7389" transform="matrix(-1 0 0 1 39.3711 42.4531)" fill="#1A1918"/>
<rect width="9.58614" height="3.08126" transform="matrix(-1 0 0 1 26.3613 67.4458)" fill="#1A1918"/>
<rect width="9.24378" height="3.08126" transform="matrix(-1 0 0 1 26.3613 72.9233)" fill="#1A1918"/>
<rect width="8.90142" height="3.08126" transform="matrix(-1 0 0 1 48.2734 72.9233)" fill="#1A1918"/>
<path fill-rule="evenodd" clip-rule="evenodd" d="M39.7892 2.7915H20.3681V5.47755H16.4325V8.55881H20.3704V11.1664H37.423V8.55881H43.1367V5.47755H39.7892V2.7915ZM32.2131 11.1668H20.371V13.9583H32.2131V11.1668Z" fill="#EBBA77"/>
<path fill-rule="evenodd" clip-rule="evenodd" d="M13.3526 8.55908H16.4338V23.9654H13.3541V50.6473H16.5806V53.4382H26.0537V56.2298H13.3541V56.2302H29.3702V59.0218L32.6868 59.0218V61.6249H43.1407V58.8861H46.5637L46.5637 56.1472V53.4083H56.4922L56.4922 56.1472H53.0686V59.2282H49.988V61.9674H46.5643V64.7062H43.1407V67.445H19.8601V64.7062H16.4365V61.8133H13.2657V59.0218L13.265 59.0218V58.886H9.93048V50.6469H6.63413V16.7493H9.93048V11.2976H13.3526V8.55908ZM6.63317 26.719H3.3176V47.8552H6.63317V26.719Z" fill="#B17C31"/>
<rect width="2.7389" height="8.55906" transform="matrix(-1 0 0 1 19.1719 67.4458)" fill="#1A1918"/>
<rect width="2.7389" height="8.21669" transform="matrix(-1 0 0 1 27.0469 67.7876)" fill="#1A1918"/>
<rect width="2.39654" height="8.55906" transform="matrix(-1 0 0 1 48.2734 67.4458)" fill="#1A1918"/>
<rect width="2.39654" height="8.21669" transform="matrix(-1 0 0 1 41.7676 67.7876)" fill="#1A1918"/>
<rect width="8.90142" height="3.08126" transform="matrix(-1 0 0 1 48.2734 67.4458)" fill="#1A1918"/>
<path fill-rule="evenodd" clip-rule="evenodd" d="M299.629 8.55908H266.269V11.2979H263.016V16.7755H259.935L259.935 27.3889H256.512V34.2362H253.088V47.9306H256.512V56.4897H259.935L259.935 59.2284H263.016V61.9675H266.269V61.9978H299.629V8.55908ZM299.629 11.3507H302.945V59.2062H299.629V11.3507ZM306.262 16.9338H302.946V50.8315H306.262V16.9338ZM306.262 26.9036H309.578V48.0398H306.262V26.9036ZM292.998 64.7895V67.581H269.787V64.7895L266.472 64.7895V61.9979H296.314V64.7895H292.998Z" fill="#D59F52"/>
<rect width="5.82016" height="2.7389" transform="matrix(-1 0 0 1 270.547 23.2808)" fill="#1A1918"/>
<path d="M273.211 0H292.632V2.79157H273.211V0Z" fill="#1A1918"/>
<path d="M269.895 67.4454H293.105V70.1881H269.895V67.4454Z" fill="#1A1918"/>
<path d="M296.567 5.4778H299.648V8.55906H296.421L296.567 5.4778Z" fill="#1A1918"/>
<path d="M269.895 5.58315H266.579V8.55906H269.895V5.58315Z" fill="#1A1918"/>
<path d="M273.211 2.79157H269.895V5.58315H273.211V2.79157Z" fill="#1A1918"/>
<path d="M296.567 2.79157H292.632V5.58315L296.567 5.4778V2.79157Z" fill="#1A1918"/>
<path d="M299.648 8.55906H303.053V11.298H299.648V8.55906Z" fill="#1A1918"/>
<path d="M266.579 8.55906H263.263V11.298H266.579V8.55906Z" fill="#1A1918"/>
<path d="M303.053 11.298H306.368V16.7494H303.053V11.298Z" fill="#1A1918"/>
<path d="M306.368 16.7494H309.684V26.7193H306.368V16.7494Z" fill="#1A1918"/>
<path d="M263.263 11.298H259.947V16.7757H263.263V11.298Z" fill="#1A1918"/>
<path d="M309.684 26.7193H313V47.8555H309.684V26.7193Z" fill="#1A1918"/>
<path d="M256.51 16.7757H259.947V27.5169H256.51V16.7757Z" fill="#1A1918"/>
<path d="M303.053 50.6471H306.368V58.8863H303.053V50.6471Z" fill="#1A1918"/>
<path d="M256.51 47.8555H253.087V56.1474H256.51V47.8555Z" fill="#1A1918"/>
<path d="M256.51 27.5169H253.087V34.2965H256.51V27.5169Z" fill="#1A1918"/>
<path d="M299.737 58.8863H303.053V61.8134H299.737V58.8863Z" fill="#1A1918"/>
<path d="M306.368 47.8555H309.684V50.6471H306.368V47.8555Z" fill="#1A1918"/>
<path d="M263.015 59.2287H259.947V61.9676H263.015V59.2287Z" fill="#1A1918"/>
<path d="M259.947 56.1474H256.51V59.2287H259.947V56.1474Z" fill="#1A1918"/>
<path d="M296.567 61.8134H299.737V64.7065H296.567V61.8134Z" fill="#1A1918"/>
<path d="M266.439 61.9676H263.015V64.7065H266.439V61.9676Z" fill="#1A1918"/>
<path d="M293.105 64.7065H296.567V67.4454H293.105V64.7065Z" fill="#1A1918"/>
<path d="M269.895 64.7065H266.439V67.4454H269.895V64.7065Z" fill="#1A1918"/>
<path d="M250 34.2965H253.087V47.8555H250V34.2965Z" fill="#1A1918"/>
<rect width="5.82016" height="2.7389" transform="matrix(-1 0 0 1 292.459 23.2808)" fill="#1A1918"/>
<rect width="5.82016" height="5.82016" transform="matrix(-1 0 0 1 297.938 35.2632)" fill="#FA4C4C"/>
<rect width="5.82016" height="5.82016" transform="matrix(-1 0 0 1 264.727 35.2632)" fill="#FA4C4C"/>
<rect x="282.871" y="36.6328" width="2.7389" height="5.82016" fill="#1A1918"/>
<rect x="271.232" y="36.6328" width="2.39654" height="5.82016" fill="#1A1918"/>
<rect x="273.594" y="36.6328" width="9.53191" height="2.90102" fill="#1A1918"/>
<rect x="273.629" y="39.3716" width="9.58614" height="3.08126" fill="#FAFAFA"/>
<rect x="286.475" y="70.5435" width="9.53191" height="2.48659" fill="#B17C31"/>
<rect x="265.41" y="70.5264" width="8.21669" height="2.39654" fill="#B17C31"/>
<rect x="273.629" y="42.4531" width="9.58614" height="2.7389" fill="#1A1918"/>
<rect x="286.639" y="67.4458" width="9.58614" height="3.08126" fill="#1A1918"/>
<rect x="286.639" y="72.9233" width="9.24378" height="3.08126" fill="#1A1918"/>
<rect x="264.727" y="72.9233" width="8.90142" height="3.08126" fill="#1A1918"/>
<path fill-rule="evenodd" clip-rule="evenodd" d="M273.211 2.7915H292.632V5.47755H296.568V8.55881H292.63V11.1664H275.577V8.55881H269.863V5.47755H273.211V2.7915ZM280.787 11.1668H292.629V13.9583H280.787V11.1668Z" fill="#EBBA77"/>
<path fill-rule="evenodd" clip-rule="evenodd" d="M299.647 8.55908H296.566V23.9654H299.646V50.6473H296.419V53.4382H286.946V56.2298H299.646V56.2302H283.63V59.0218L280.313 59.0218V61.6249H269.859L269.859 58.8861H266.436L266.436 56.1472V53.4083H256.508V56.1472H259.931V59.2282H263.012V61.9674H266.436V64.7062H269.859V67.445H293.14V64.7062H296.564V61.8133H299.734L299.734 59.0218L299.735 59.0218V58.886H303.07V50.647H306.366V16.7493H303.07V11.2976H299.647V8.55908ZM306.367 26.719H309.682V47.8552H306.367V26.719Z" fill="#B17C31"/>
<rect x="293.828" y="67.4458" width="2.7389" height="8.55906" fill="#1A1918"/>
<rect x="285.953" y="67.7876" width="2.7389" height="8.21669" fill="#1A1918"/>
<rect x="264.727" y="67.4458" width="2.39654" height="8.55906" fill="#1A1918"/>
<rect x="271.232" y="67.7876" width="2.39654" height="8.21669" fill="#1A1918"/>
<rect x="264.727" y="67.4458" width="8.90142" height="3.08126" fill="#1A1918"/>
</svg>
