<svg width="215" height="150" viewBox="0 0 215 150" fill="none" xmlns="http://www.w3.org/2000/svg">
<path d="M197 138V132H18V138H197Z" fill="#DFDDDA"/>
<path d="M12 132H18V126H12V132Z" fill="#DFDDDA"/>
<path d="M6 126H12V120H6V126Z" fill="#DFDDDA"/>
<path d="M197 132H203V126H197V132Z" fill="#DFDDDA"/>
<path d="M203 126H209V120H203V126Z" fill="#DFDDDA"/>
<path d="M197 144V138H18V144H197Z" fill="#6A6967"/>
<path d="M12 138H18V132H12V138Z" fill="#6A6967"/>
<path d="M6 132H12V126H6V132Z" fill="#6A6967"/>
<path d="M197 138H203V132H197V138Z" fill="#6A6967"/>
<path d="M203 132H209V126H203V132Z" fill="#6A6967"/>
<path d="M197 150V144H18L18 150H197Z" fill="#363532"/>
<path d="M215 62H209V132H215L215 62Z" fill="#363532"/>
<path d="M6.11959e-06 62H6.00001L6 132H0L6.11959e-06 62Z" fill="#363532"/>
<path d="M203 62H209V56H203V62Z" fill="#363532"/>
<path d="M203 138H209V132H203V138Z" fill="#363532"/>
<path d="M12 138H6.00001L6 132H12V138Z" fill="#363532"/>
<path d="M197 144H203V138H197V144Z" fill="#363532"/>
<path d="M18 144H12L12 138H18V144Z" fill="#363532"/>
<path d="M6.00001 62H12V56H6.00001L6.00001 62Z" fill="#363532"/>
<path d="M18 121H24V115H18V121Z" fill="#363532"/>
<path d="M191 0V6H24V0H191Z" fill="#363532"/>
<path d="M18 12V6H24V12H18Z" fill="#363532"/>
<path d="M18 12V115H12V12H18Z" fill="#363532"/>
<path d="M197 12V6H191V12H197Z" fill="#363532"/>
<path d="M197 115H203V12H197V115Z" fill="#363532"/>
<path d="M191 121V115H197V121H191Z" fill="#363532"/>
<path d="M191 121H24V127H191V121Z" fill="#363532"/>
<path d="M6.00001 62H12L12 120H6L6.00001 62Z" fill="#AAA9A6"/>
<path d="M209 62H203V120H209V62Z" fill="#AAA9A6"/>
<path d="M12 115H18V121H12V115Z" fill="#AAA9A6"/>
<path d="M203 115H197V121H203V115Z" fill="#AAA9A6"/>
<path d="M18 127H197V132H18V127Z" fill="#AAA9A6"/>
<path d="M12 121H24V127H12V121Z" fill="#AAA9A6"/>
<path d="M203 121H191V127H203V121Z" fill="#AAA9A6"/>
<path d="M191 76V70L24 70V76L191 76Z" fill="#FFE37D"/>
<path d="M18 70H24V64H18V70Z" fill="#FFE37D"/>
<path d="M191 70L197 70V64H191V70Z" fill="#FFE37D"/>
<path d="M191 6V12H24V6H191Z" fill="#FFE37D"/>
<path d="M18 12H24V18H18V12Z" fill="#FFE37D"/>
<path d="M191 12H197V18H191V12Z" fill="#FFE37D"/>
<path d="M18 18H24V24H18V18Z" fill="#FFA000"/>
<path d="M18 64H24V58H18V64Z" fill="#FFA000"/>
<path d="M197 18H191V24H197V18Z" fill="#FFA000"/>
<path d="M197 64H191V58H197V64Z" fill="#FFA000"/>
<path d="M24 12H30V18L24 18V12Z" fill="#FFA000"/>
<path d="M24 70H30V64H24V70Z" fill="#FFA000"/>
<path d="M191 12H185V18L191 18V12Z" fill="#FFA000"/>
<path d="M191 70L185 70V64H191V70Z" fill="#FFA000"/>
<path d="M24 24H18V58H24V64H30V70H185V64H191V58H197V24H191V18L185 18V12H30V18L24 18V24Z" fill="#FFC700"/>
<path d="M24 70H18V115H24V121H191V115H197V70L191 70V76L24 76V70Z" fill="#FFA000"/>
<path d="M139.89 39.16H130.86V37.585H129.215V36.15H127.57V29.92H129.215V28.52H130.86V27.05H133.695V24.25H137.02V27.05H139.89V28.52H141.57V29.92H143.18V36.15H141.57V37.585H139.89V39.16ZM130.86 36.15H132.505V37.585H138.21V36.15H139.89V29.955H138.21V28.52H132.505V29.955H130.86V36.15ZM133.275 44.725V43.15H136.6V44.725H138.385V50.605H150.39V49.17H153.54V50.605H152V52.18H136.635V50.605H134.885V44.725H133.275ZM147.695 25.825V24.25H150.95V25.825H152.595V42.38H150.95V43.92H149.27V25.825H147.695Z" fill="#E25B00"/>
<path fill-rule="evenodd" clip-rule="evenodd" d="M133.445 24H137.27V26.8H140.14V28.27H141.82V29.67H143.43V36.4H141.82V37.835H140.14V39.41H130.61V37.835H128.965V36.4H127.32V29.67H128.965V28.27H130.61V26.8H133.445V24ZM133.945 24.5V27.3H131.11V28.77H129.465V30.17H127.82V35.9H129.465V37.335H131.11V38.91H139.64V37.335H141.32V35.9H142.93V30.17H141.32V28.77H139.64V27.3H136.77V24.5H133.945ZM147.445 24H151.2V25.575H152.845V42.63H151.2V44.17H149.02V26.075H147.445V24ZM147.945 24.5V25.575H149.52V43.67H150.7V42.13H152.345V26.075H150.7V24.5H147.945ZM132.255 28.27H138.46V29.705H140.14V36.4H138.46V37.835H132.255V36.4H130.61V29.705H132.255V28.27ZM132.755 28.77V30.205H131.11V35.9H132.755V37.335H137.96V35.9H139.64V30.205H137.96V28.77H132.755ZM133.025 42.9H136.85V44.475H138.635V50.355H150.14V48.92H153.79V50.855H152.25V52.43H136.385V50.855H134.635V44.975H133.025V42.9ZM133.525 43.4V44.475H135.135V50.355H136.885V51.93H151.75V50.355H153.29V49.42H150.64V50.855H138.135V44.975H136.35V43.4H133.525Z" fill="#E25B00"/>
<path d="M97.8041 27.6448V26.1748H115.514V27.5748H117.264V37.6198H115.514V40.6998H113.729V42.3098H110.439V40.6998H112.084V37.6198H113.729V27.6448H97.8041ZM94.1641 47.5598V46.0198H121.744V47.5598H94.1641Z" fill="#E25B00"/>
<path fill-rule="evenodd" clip-rule="evenodd" d="M97.5541 25.9248H115.764V27.3248H117.514V37.8698H115.764V40.9498H113.979V42.5598H110.189V40.4498H111.834V37.3698H113.479V27.8948H97.5541V25.9248ZM98.0541 26.4248V27.3948H113.979V37.8698H112.334V40.9498H110.689V42.0598H113.479V40.4498H115.264V37.3698H117.014V27.8248H115.264V26.4248H98.0541ZM93.9141 45.7698H121.994V47.8098H93.9141V45.7698ZM94.4141 46.2698V47.3098H121.494V46.2698H94.4141Z" fill="#E25B00"/>
<path d="M66.36 40.63V39.125H64.68V33.42H66.395V31.95H80.57V26.805H65.45V25.335H82.355V26.77H84.07V31.95H82.355V33.42H68.145V39.125H82.845V37.655H85.925V39.23H84.42V40.63H66.36ZM61.25 48.96V47.42H73.43V43.78H71.82V42.205H75.285V43.78H76.965V47.42H88.83V48.96H61.25Z" fill="#E25B00"/>
<path fill-rule="evenodd" clip-rule="evenodd" d="M65.2 25.085H82.605V26.52H84.32V32.2H82.605V33.67H68.395V38.875H82.595V37.405H86.175V39.48H84.67V40.88H66.11V39.375H64.43V33.17H66.145V31.7H80.32V27.055H65.2V25.085ZM65.7 25.585V26.555H80.82V32.2H66.645V33.67H64.93V38.875H66.61V40.38H84.17V38.98H85.675V37.905H83.095V39.375H67.895V33.17H82.105V31.7H83.82V27.02H82.105V25.585H65.7ZM71.57 41.955H75.535V43.53H77.215V47.17H89.08V49.21H61V47.17H73.18V44.03H71.57V41.955ZM72.07 42.455V43.53H73.68V47.67H61.5V48.71H88.58V47.67H76.715V44.03H75.035V42.455H72.07Z" fill="#E25B00"/>
</svg>
