<svg width="127" height="73" viewBox="0 0 127 73" fill="none" xmlns="http://www.w3.org/2000/svg">
<path d="M116.367 65.5674V62.0232L10.6326 62.0233V65.5674L116.367 65.5674Z" fill="#DFDDDA"/>
<path d="M7.08837 62.0233H10.6326V58.4791H7.08837V62.0233Z" fill="#DFDDDA"/>
<path d="M3.54419 58.4791H7.08837V54.9349H3.54419V58.4791Z" fill="#DFDDDA"/>
<path d="M116.367 62.0232L119.912 62.0233V58.4791H116.367V62.0232Z" fill="#DFDDDA"/>
<path d="M119.912 58.4791H123.456V54.9349H119.912V58.4791Z" fill="#DFDDDA"/>
<path d="M116.367 69.1116V65.5674L10.6326 65.5674V69.1116H116.367Z" fill="#6A6967"/>
<path d="M7.08837 65.5674L10.6326 65.5674V62.0233H7.08837V65.5674Z" fill="#6A6967"/>
<path d="M3.54419 62.0233H7.08837V58.4791H3.54419V62.0233Z" fill="#6A6967"/>
<path d="M116.367 65.5674H119.912V62.0233L116.367 62.0232V65.5674Z" fill="#6A6967"/>
<path d="M119.912 62.0233H123.456V58.4791H119.912V62.0233Z" fill="#6A6967"/>
<path d="M116.367 72.6558V69.1116H10.6326L10.6326 72.6558L116.367 72.6558Z" fill="#363532"/>
<path d="M127 20.6744H123.456V62.0233H127L127 20.6744Z" fill="#363532"/>
<path d="M3.61483e-06 20.6744H3.54419L3.54419 62.0233H0L3.61483e-06 20.6744Z" fill="#363532"/>
<path d="M119.912 20.6744H123.456V17.1302H119.912V20.6744Z" fill="#363532"/>
<path d="M119.912 65.5674H123.456V62.0233H119.912V65.5674Z" fill="#363532"/>
<path d="M7.08837 65.5674H3.54419L3.54419 62.0233H7.08837V65.5674Z" fill="#363532"/>
<path d="M116.367 69.1116H119.912V65.5674H116.367V69.1116Z" fill="#363532"/>
<path d="M10.6326 69.1116H7.08838L7.08837 65.5674L10.6326 65.5674V69.1116Z" fill="#363532"/>
<path d="M3.54419 20.6744H7.08838V17.1302H3.54419L3.54419 20.6744Z" fill="#363532"/>
<path d="M10.6326 55.5256H14.1767V51.9814H10.6326V55.5256Z" fill="#363532"/>
<path d="M112.823 0V3.54419H14.1767V0H112.823Z" fill="#363532"/>
<path d="M10.6326 7.08837V3.54419H14.1767V7.08837H10.6326Z" fill="#363532"/>
<path d="M10.6326 7.08837V51.9814H7.08837V7.08837H10.6326Z" fill="#363532"/>
<path d="M116.367 7.08837V3.54419H112.823V7.08837H116.367Z" fill="#363532"/>
<path d="M116.367 51.9814H119.912V7.08837H116.367V51.9814Z" fill="#363532"/>
<path d="M112.823 55.5256V51.9814H116.367V55.5256H112.823Z" fill="#363532"/>
<path d="M112.823 55.5256H14.1767V59.0698H112.823V55.5256Z" fill="#363532"/>
<path d="M3.54419 20.6744H7.08838L7.08837 54.9349H3.54419L3.54419 20.6744Z" fill="#AAA9A6"/>
<path d="M123.456 20.6744H119.912V54.9349H123.456V20.6744Z" fill="#AAA9A6"/>
<path d="M7.08837 51.9814H10.6326V55.5256H7.08837V51.9814Z" fill="#AAA9A6"/>
<path d="M119.912 51.9814H116.367V55.5256H119.912V51.9814Z" fill="#AAA9A6"/>
<path d="M10.6326 59.0698H116.367V62.0232L10.6326 62.0233V59.0698Z" fill="#AAA9A6"/>
<path d="M7.08837 55.5256H14.1767V59.0698H7.08837V55.5256Z" fill="#AAA9A6"/>
<path d="M119.912 55.5256H112.823V59.0698H119.912V55.5256Z" fill="#AAA9A6"/>
<path d="M112.823 44.893V41.3488L14.1767 41.3488V44.893L112.823 44.893Z" fill="#FFEBA3"/>
<path d="M10.6326 41.3488H14.1767V37.8046H10.6326V41.3488Z" fill="#FFEBA3"/>
<path d="M112.823 41.3488L116.367 41.3488V37.8046H112.823V41.3488Z" fill="#FFEBA3"/>
<path d="M112.823 3.54419V7.08837H14.1767V3.54419H112.823Z" fill="#FFEBA3"/>
<path d="M10.6326 7.08837H14.1767V10.6326H10.6326V7.08837Z" fill="#FFEBA3"/>
<path d="M112.823 7.08837H116.367V10.6326H112.823V7.08837Z" fill="#FFEBA3"/>
<path d="M10.6326 10.6326H14.1767V14.1767H10.6326V10.6326Z" fill="#FFA000"/>
<path d="M10.6326 37.8046H14.1767V34.2605H10.6326V37.8046Z" fill="#FFA000"/>
<path d="M116.367 10.6326H112.823V14.1767H116.367V10.6326Z" fill="#FFA000"/>
<path d="M116.367 37.8046H112.823V34.2605H116.367V37.8046Z" fill="#FFA000"/>
<path d="M14.1767 7.08837H17.7209V10.6326L14.1767 10.6326V7.08837Z" fill="#FFA000"/>
<path d="M14.1767 41.3488H17.7209V37.8046H14.1767V41.3488Z" fill="#FFA000"/>
<path d="M112.823 7.08837H109.279V10.6326L112.823 10.6326V7.08837Z" fill="#FFA000"/>
<path d="M112.823 41.3488L109.279 41.3488V37.8046H112.823V41.3488Z" fill="#FFA000"/>
<path d="M14.1767 14.1767H10.6326V34.2605H14.1767V37.8046H17.7209V41.3488H109.279V37.8046H112.823V34.2605H116.367V14.1767H112.823V10.6326L109.279 10.6326V7.08837H17.7209V10.6326L14.1767 10.6326V14.1767Z" fill="#FFC700"/>
<path d="M14.1767 41.3488H10.6326V51.9814H14.1767V55.5256H112.823V51.9814H116.367V41.3488L112.823 41.3488V44.893L14.1767 44.893V41.3488Z" fill="#FFA000"/>
<path d="M82.6321 24.4315H77.2981V23.5012H76.3264V22.6535H75.3547V18.9735H76.3264V18.1465H77.2981V17.2782H78.9727V15.6242H80.9368V17.2782H82.6321V18.1465H83.6245V18.9735H84.5755V22.6535H83.6245V23.5012H82.6321V24.4315ZM77.2981 22.6535H78.2698V23.5012H81.6397V22.6535H82.6321V18.9942H81.6397V18.1465H78.2698V18.9942H77.2981V22.6535ZM78.7246 27.7188V26.7884H80.6887V27.7188H81.7431V31.1921H88.8344V30.3444H90.6951V31.1921H89.7854V32.1224H80.7094V31.1921H79.6757V27.7188H78.7246ZM87.2425 16.5546V15.6242H89.1652V16.5546H90.1369V26.3336H89.1652V27.2433H88.1728V16.5546H87.2425Z" fill="#363532"/>
<path fill-rule="evenodd" clip-rule="evenodd" d="M78.8251 15.4766H81.0845V17.1305H82.7798V17.9988H83.7721V18.8258H84.7232V22.8012H83.7721V23.6489H82.7798V24.5792H77.1504V23.6489H76.1787V22.8012H75.207V18.8258H76.1787V17.9988H77.1504V17.1305H78.8251V15.4766ZM79.1204 15.7719V17.4259H77.4458V18.2942H76.4741V19.1212H75.5024V22.5059H76.4741V23.3535H77.4458V24.2839H82.4844V23.3535H83.4768V22.5059H84.4278V19.1212H83.4768V18.2942H82.4844V17.4259H80.7891V15.7719H79.1204ZM87.0948 15.4766H89.3129V16.4069H90.2846V26.4813H89.3129V27.3909H88.0252V16.7023H87.0948V15.4766ZM87.3902 15.7719V16.4069H88.3205V27.0956H89.0175V26.1859H89.9892V16.7023H89.0175V15.7719H87.3902ZM78.1221 17.9988H81.7874V18.8465H82.7798V22.8012H81.7874V23.6489H78.1221V22.8012H77.1504V18.8465H78.1221V17.9988ZM78.4175 18.2942V19.1418H77.4458V22.5059H78.4175V23.3535H81.4921V22.5059H82.4844V19.1418H81.4921V18.2942H78.4175ZM78.577 26.6407H80.8364V27.5711H81.8908V31.0444H88.6868V30.1967H90.8428V31.3397H89.9331V32.2701H80.5617V31.3397H79.528V27.8664H78.577V26.6407ZM78.8723 26.9361V27.5711H79.8233V31.0444H80.8571V31.9747H89.6378V31.0444H90.5475V30.4921H88.9821V31.3397H81.5954V27.8664H80.541V26.9361H78.8723Z" fill="#363532"/>
<path d="M57.7744 17.6293V16.761H68.2356V17.5879H69.2694V23.5215H68.2356V25.3408H67.1812V26.2919H65.2378V25.3408H66.2095V23.5215H67.1812V17.6293H57.7744ZM55.6242 29.393V28.4833H71.9157V29.393H55.6242Z" fill="#363532"/>
<path fill-rule="evenodd" clip-rule="evenodd" d="M57.6267 16.6133H68.3833V17.4403H69.417V23.6692H68.3833V25.4885H67.3289V26.4395H65.0902V25.1932H66.0619V23.3738H67.0336V17.777H57.6267V16.6133ZM57.9221 16.9086V17.4816H67.3289V23.6692H66.3572V25.4885H65.3855V26.1442H67.0336V25.1932H68.088V23.3738H69.1217V17.7356H68.088V16.9086H57.9221ZM55.4766 28.3357H72.0634V29.5407H55.4766V28.3357ZM55.7719 28.631V29.2454H71.768V28.631H55.7719Z" fill="#363532"/>
<path d="M39.1974 25.2996V24.4106H38.205V21.0407H39.2181V20.1723H47.5912V17.1332H38.6599V16.2649H48.6456V17.1125H49.6586V20.1723H48.6456V21.0407H40.2518V24.4106H48.935V23.5423H50.7544V24.4726H49.8654V25.2996H39.1974ZM36.1789 30.2201V29.3104H43.3736V27.1603H42.4226V26.2299H44.4694V27.1603H45.4617V29.3104H52.4704V30.2201H36.1789Z" fill="#363532"/>
<path fill-rule="evenodd" clip-rule="evenodd" d="M38.5122 16.1172H48.7933V16.9648H49.8063V20.32H48.7933V21.1883H40.3995V24.2629H48.7874V23.3946H50.9021V24.6203H50.0131V25.4473H39.0497V24.5583H38.0573V20.893H39.0704V20.0247H47.4435V17.2809H38.5122V16.1172ZM38.8075 16.4125V16.9855H47.7389V20.32H39.3657V21.1883H38.3527V24.2629H39.3451V25.1519H49.7177V24.3249H50.6067V23.6899H49.0827V24.5583H40.1041V20.893H48.4979V20.0247H49.511V17.2602H48.4979V16.4125H38.8075ZM42.2749 26.0823H44.617V27.0126H45.6094V29.1627H52.618V30.3678H36.0312V29.1627H43.2259V27.308H42.2749V26.0823ZM42.5703 26.3776V27.0126H43.5213V29.4581H36.3266V30.0724H52.3227V29.4581H45.3141V27.308H44.3217V26.3776H42.5703Z" fill="#363532"/>
</svg>
