<svg width="263" height="209" viewBox="0 0 263 209" fill="none" xmlns="http://www.w3.org/2000/svg">
<rect x="37" y="155" width="190" height="54" rx="27" fill="#FFA000"/>
<path d="M82.5029 176.619V179.256H63.9873V169.383H67.2393V176.619H82.5029ZM60.9404 185.262V182.596H85.1396V185.262H74.5635V194.607H71.2822V185.262H60.9404ZM96.5947 172.664C96.5947 175.901 98.7334 179.139 102.835 180.516L101.194 183.035C98.2354 182.068 96.1406 180.062 94.9834 177.571C93.8262 180.34 91.6289 182.566 88.4795 183.621L86.8096 181.043C91.0283 179.651 93.2842 176.136 93.2842 172.693V172.342H87.7764V169.734H102.073V172.342H96.5947V172.664ZM90.999 187.781V185.174H109.046V194.607H105.794V187.781H90.999ZM101.282 177.352V174.686H105.794V168.123H109.046V183.914H105.794V177.352H101.282ZM144.085 183.533V186.111H133.538V194.607H130.315V186.111H119.886V183.533H144.085ZM122.815 180.779V169.178H126.038V172.43H137.874V169.178H141.155V180.779H122.815ZM126.038 178.143H137.874V175.008H126.038V178.143ZM168.05 168.152V188.191H164.769V185.877H159.583V183.592H164.769V168.152H168.05ZM145.726 180.047C150.604 180.018 157.181 179.974 162.806 179.256L162.981 181.6C160.799 181.966 158.543 182.2 156.302 182.361V187.459H153.05V182.537C150.574 182.64 148.216 182.654 146.136 182.654L145.726 180.047ZM147.747 173.807C147.747 171.009 150.442 169.104 154.368 169.119C158.221 169.104 160.931 171.009 160.96 173.807C160.931 176.648 158.221 178.45 154.368 178.465C150.442 178.45 147.747 176.648 147.747 173.807ZM149.241 194.08V186.258H152.493V191.443H168.665V194.08H149.241ZM150.823 173.807C150.823 175.242 152.244 176.077 154.368 176.092C156.39 176.077 157.84 175.242 157.854 173.807C157.84 172.371 156.39 171.507 154.368 171.521C152.244 171.507 150.823 172.371 150.823 173.807ZM192.688 170.32C192.674 173.646 196.409 177.029 202.063 177.762L200.774 180.398C196.277 179.725 192.703 177.513 190.975 174.524C189.246 177.513 185.687 179.725 181.233 180.398L179.944 177.762C185.54 177.029 189.261 173.675 189.261 170.32V168.973H192.688V170.32ZM178.89 185.379V182.684H203.03V185.379H192.513V194.607H189.29V185.379H178.89Z" fill="#FFFBF6"/>
<path d="M0 12.3415H11.7767V24.6829H0V12.3415Z" fill="#FFA000"/>
<path d="M0 106.959H11.7767V94.6179H0V106.959Z" fill="#FFA000"/>
<path d="M262.67 12.3415H250.893V24.6829H262.67V12.3415Z" fill="#FFA000"/>
<path d="M262.67 106.959H250.893V94.6179H262.67V106.959Z" fill="#FFA000"/>
<path d="M11.7767 0H23.5535V12.3415L11.7767 12.3415V0Z" fill="#FFA000"/>
<path d="M11.7767 119.301H23.5535V106.959H11.7767V119.301Z" fill="#FFA000"/>
<path d="M250.893 0H239.116V12.3415L250.893 12.3415V0Z" fill="#FFA000"/>
<path d="M250.893 119.301L239.116 119.301V106.959H250.893V119.301Z" fill="#FFA000"/>
<path d="M11.7767 24.6829H0V94.6179H11.7767V106.959H23.5535V119.301H175.67H239.116V106.959H250.893V94.6179H262.67V24.6829H250.893V12.3415L239.116 12.3415V0H23.5535V12.3415L11.7767 12.3415V24.6829Z" fill="#FFC700"/>
<mask id="path-4-outside-1_12397_38263" maskUnits="userSpaceOnUse" x="19" y="30" width="223" height="66" fill="black">
<rect fill="white" x="19" y="30" width="223" height="66"/>
<path d="M21.0484 86.475H36.0484V45.075H32.5234V48.75H28.7734V52.5H21.5734V48.75H25.3234V45H28.8484V41.4H32.2234V37.95H36.0484V34.5H43.2484V86.475H55.3984V90H21.0484V86.475ZM111.397 68.325V83.1H107.872V86.55H104.422V90H80.5721V86.55H77.1221V83.1H73.5971V68.325H76.8221V64.95H80.2721V61.5H83.7971V58.05H79.8221V54.6H75.8471V41.325H79.3721V37.95H83.0471V34.5H101.947V37.95H105.622V41.325H109.147V54.6H105.172V58.05H101.197V61.5H104.722V64.95H108.172V68.325H111.397ZM84.1721 83.1V86.55H100.822V83.1H104.197V68.4H100.822V64.95H97.2221V61.5H87.7721V64.95H84.1721V68.4H80.7971V83.1H84.1721ZM87.3971 54.6V58.05H97.5971V54.6H101.947V41.4H98.3471V37.95H86.6471V41.4H83.0471V54.6H87.3971ZM129.971 82.35H133.421V78.3H136.871V74.325H140.321V70.05H143.771V65.925H147.221V61.8H150.671V57.675H154.346V53.7H158.246V41.4H154.871V37.95H140.546V41.4H137.171V53.85H129.971V41.4H133.496V37.95H136.946V34.5H158.471V37.95H161.921V41.4H165.596V53.7H162.221V58.125H158.771V61.875H155.471V65.925H151.946V70.125H148.571V74.325H145.271V78.375H141.821V82.35H138.371V86.4H166.346V90H129.971V82.35ZM239.819 35.625V64.275H236.294V67.575H232.694V56.325H220.919V53.25H232.694V44.625H220.919V41.55H232.694V35.625H229.319V32.25H236.294V35.625H239.819ZM183.419 34.575H213.494V37.725H216.869V58.425H213.344V61.575H190.319V58.425H186.794V37.95H183.419V34.575ZM209.819 58.425V37.725H193.844V58.425H209.819ZM202.694 76.275H206.219V73.275H209.744V70.05H227.594V73.275H231.194V76.275H234.644V87H231.194V90.075H227.594V93.3H209.744V90.075H206.219V87H202.694V76.275ZM213.269 87V90.075H223.994V87H227.594V76.35H223.994V73.275H213.269V76.35H209.744V87H213.269Z"/>
</mask>
<path d="M21.0484 86.475H36.0484V45.075H32.5234V48.75H28.7734V52.5H21.5734V48.75H25.3234V45H28.8484V41.4H32.2234V37.95H36.0484V34.5H43.2484V86.475H55.3984V90H21.0484V86.475ZM111.397 68.325V83.1H107.872V86.55H104.422V90H80.5721V86.55H77.1221V83.1H73.5971V68.325H76.8221V64.95H80.2721V61.5H83.7971V58.05H79.8221V54.6H75.8471V41.325H79.3721V37.95H83.0471V34.5H101.947V37.95H105.622V41.325H109.147V54.6H105.172V58.05H101.197V61.5H104.722V64.95H108.172V68.325H111.397ZM84.1721 83.1V86.55H100.822V83.1H104.197V68.4H100.822V64.95H97.2221V61.5H87.7721V64.95H84.1721V68.4H80.7971V83.1H84.1721ZM87.3971 54.6V58.05H97.5971V54.6H101.947V41.4H98.3471V37.95H86.6471V41.4H83.0471V54.6H87.3971ZM129.971 82.35H133.421V78.3H136.871V74.325H140.321V70.05H143.771V65.925H147.221V61.8H150.671V57.675H154.346V53.7H158.246V41.4H154.871V37.95H140.546V41.4H137.171V53.85H129.971V41.4H133.496V37.95H136.946V34.5H158.471V37.95H161.921V41.4H165.596V53.7H162.221V58.125H158.771V61.875H155.471V65.925H151.946V70.125H148.571V74.325H145.271V78.375H141.821V82.35H138.371V86.4H166.346V90H129.971V82.35ZM239.819 35.625V64.275H236.294V67.575H232.694V56.325H220.919V53.25H232.694V44.625H220.919V41.55H232.694V35.625H229.319V32.25H236.294V35.625H239.819ZM183.419 34.575H213.494V37.725H216.869V58.425H213.344V61.575H190.319V58.425H186.794V37.95H183.419V34.575ZM209.819 58.425V37.725H193.844V58.425H209.819ZM202.694 76.275H206.219V73.275H209.744V70.05H227.594V73.275H231.194V76.275H234.644V87H231.194V90.075H227.594V93.3H209.744V90.075H206.219V87H202.694V76.275ZM213.269 87V90.075H223.994V87H227.594V76.35H223.994V73.275H213.269V76.35H209.744V87H213.269Z" fill="#FB873F"/>
<path d="M21.0484 86.475V84.475H19.0484V86.475H21.0484ZM36.0484 86.475V88.475H38.0484V86.475H36.0484ZM36.0484 45.075H38.0484V43.075H36.0484V45.075ZM32.5234 45.075V43.075H30.5234V45.075H32.5234ZM32.5234 48.75V50.75H34.5234V48.75H32.5234ZM28.7734 48.75V46.75H26.7734V48.75H28.7734ZM28.7734 52.5V54.5H30.7734V52.5H28.7734ZM21.5734 52.5H19.5734V54.5H21.5734V52.5ZM21.5734 48.75V46.75H19.5734V48.75H21.5734ZM25.3234 48.75V50.75H27.3234V48.75H25.3234ZM25.3234 45V43H23.3234V45H25.3234ZM28.8484 45V47H30.8484V45H28.8484ZM28.8484 41.4V39.4H26.8484V41.4H28.8484ZM32.2234 41.4V43.4H34.2234V41.4H32.2234ZM32.2234 37.95V35.95H30.2234V37.95H32.2234ZM36.0484 37.95V39.95H38.0484V37.95H36.0484ZM36.0484 34.5V32.5H34.0484V34.5H36.0484ZM43.2484 34.5H45.2484V32.5H43.2484V34.5ZM43.2484 86.475H41.2484V88.475H43.2484V86.475ZM55.3984 86.475H57.3984V84.475H55.3984V86.475ZM55.3984 90V92H57.3984V90H55.3984ZM21.0484 90H19.0484V92H21.0484V90ZM21.0484 88.475H36.0484V84.475H21.0484V88.475ZM38.0484 86.475V45.075H34.0484V86.475H38.0484ZM36.0484 43.075H32.5234V47.075H36.0484V43.075ZM30.5234 45.075V48.75H34.5234V45.075H30.5234ZM32.5234 46.75H28.7734V50.75H32.5234V46.75ZM26.7734 48.75V52.5H30.7734V48.75H26.7734ZM28.7734 50.5H21.5734V54.5H28.7734V50.5ZM23.5734 52.5V48.75H19.5734V52.5H23.5734ZM21.5734 50.75H25.3234V46.75H21.5734V50.75ZM27.3234 48.75V45H23.3234V48.75H27.3234ZM25.3234 47H28.8484V43H25.3234V47ZM30.8484 45V41.4H26.8484V45H30.8484ZM28.8484 43.4H32.2234V39.4H28.8484V43.4ZM34.2234 41.4V37.95H30.2234V41.4H34.2234ZM32.2234 39.95H36.0484V35.95H32.2234V39.95ZM38.0484 37.95V34.5H34.0484V37.95H38.0484ZM36.0484 36.5H43.2484V32.5H36.0484V36.5ZM41.2484 34.5V86.475H45.2484V34.5H41.2484ZM43.2484 88.475H55.3984V84.475H43.2484V88.475ZM53.3984 86.475V90H57.3984V86.475H53.3984ZM55.3984 88H21.0484V92H55.3984V88ZM23.0484 90V86.475H19.0484V90H23.0484ZM111.397 68.325H113.397V66.325H111.397V68.325ZM111.397 83.1V85.1H113.397V83.1H111.397ZM107.872 83.1V81.1H105.872V83.1H107.872ZM107.872 86.55V88.55H109.872V86.55H107.872ZM104.422 86.55V84.55H102.422V86.55H104.422ZM104.422 90V92H106.422V90H104.422ZM80.5721 90H78.5721V92H80.5721V90ZM80.5721 86.55H82.5721V84.55H80.5721V86.55ZM77.1221 86.55H75.1221V88.55H77.1221V86.55ZM77.1221 83.1H79.1221V81.1H77.1221V83.1ZM73.5971 83.1H71.5971V85.1H73.5971V83.1ZM73.5971 68.325V66.325H71.5971V68.325H73.5971ZM76.8221 68.325V70.325H78.8221V68.325H76.8221ZM76.8221 64.95V62.95H74.8221V64.95H76.8221ZM80.2721 64.95V66.95H82.2721V64.95H80.2721ZM80.2721 61.5V59.5H78.2721V61.5H80.2721ZM83.7971 61.5V63.5H85.7971V61.5H83.7971ZM83.7971 58.05H85.7971V56.05H83.7971V58.05ZM79.8221 58.05H77.8221V60.05H79.8221V58.05ZM79.8221 54.6H81.8221V52.6H79.8221V54.6ZM75.8471 54.6H73.8471V56.6H75.8471V54.6ZM75.8471 41.325V39.325H73.8471V41.325H75.8471ZM79.3721 41.325V43.325H81.3721V41.325H79.3721ZM79.3721 37.95V35.95H77.3721V37.95H79.3721ZM83.0471 37.95V39.95H85.0471V37.95H83.0471ZM83.0471 34.5V32.5H81.0471V34.5H83.0471ZM101.947 34.5H103.947V32.5H101.947V34.5ZM101.947 37.95H99.9471V39.95H101.947V37.95ZM105.622 37.95H107.622V35.95H105.622V37.95ZM105.622 41.325H103.622V43.325H105.622V41.325ZM109.147 41.325H111.147V39.325H109.147V41.325ZM109.147 54.6V56.6H111.147V54.6H109.147ZM105.172 54.6V52.6H103.172V54.6H105.172ZM105.172 58.05V60.05H107.172V58.05H105.172ZM101.197 58.05V56.05H99.1971V58.05H101.197ZM101.197 61.5H99.1971V63.5H101.197V61.5ZM104.722 61.5H106.722V59.5H104.722V61.5ZM104.722 64.95H102.722V66.95H104.722V64.95ZM108.172 64.95H110.172V62.95H108.172V64.95ZM108.172 68.325H106.172V70.325H108.172V68.325ZM84.1721 83.1H86.1721V81.1H84.1721V83.1ZM84.1721 86.55H82.1721V88.55H84.1721V86.55ZM100.822 86.55V88.55H102.822V86.55H100.822ZM100.822 83.1V81.1H98.8221V83.1H100.822ZM104.197 83.1V85.1H106.197V83.1H104.197ZM104.197 68.4H106.197V66.4H104.197V68.4ZM100.822 68.4H98.8221V70.4H100.822V68.4ZM100.822 64.95H102.822V62.95H100.822V64.95ZM97.2221 64.95H95.2221V66.95H97.2221V64.95ZM97.2221 61.5H99.2221V59.5H97.2221V61.5ZM87.7721 61.5V59.5H85.7721V61.5H87.7721ZM87.7721 64.95V66.95H89.7721V64.95H87.7721ZM84.1721 64.95V62.95H82.1721V64.95H84.1721ZM84.1721 68.4V70.4H86.1721V68.4H84.1721ZM80.7971 68.4V66.4H78.7971V68.4H80.7971ZM80.7971 83.1H78.7971V85.1H80.7971V83.1ZM87.3971 54.6H89.3971V52.6H87.3971V54.6ZM87.3971 58.05H85.3971V60.05H87.3971V58.05ZM97.5971 58.05V60.05H99.5971V58.05H97.5971ZM97.5971 54.6V52.6H95.5971V54.6H97.5971ZM101.947 54.6V56.6H103.947V54.6H101.947ZM101.947 41.4H103.947V39.4H101.947V41.4ZM98.3471 41.4H96.3471V43.4H98.3471V41.4ZM98.3471 37.95H100.347V35.95H98.3471V37.95ZM86.6471 37.95V35.95H84.6471V37.95H86.6471ZM86.6471 41.4V43.4H88.6471V41.4H86.6471ZM83.0471 41.4V39.4H81.0471V41.4H83.0471ZM83.0471 54.6H81.0471V56.6H83.0471V54.6ZM109.397 68.325V83.1H113.397V68.325H109.397ZM111.397 81.1H107.872V85.1H111.397V81.1ZM105.872 83.1V86.55H109.872V83.1H105.872ZM107.872 84.55H104.422V88.55H107.872V84.55ZM102.422 86.55V90H106.422V86.55H102.422ZM104.422 88H80.5721V92H104.422V88ZM82.5721 90V86.55H78.5721V90H82.5721ZM80.5721 84.55H77.1221V88.55H80.5721V84.55ZM79.1221 86.55V83.1H75.1221V86.55H79.1221ZM77.1221 81.1H73.5971V85.1H77.1221V81.1ZM75.5971 83.1V68.325H71.5971V83.1H75.5971ZM73.5971 70.325H76.8221V66.325H73.5971V70.325ZM78.8221 68.325V64.95H74.8221V68.325H78.8221ZM76.8221 66.95H80.2721V62.95H76.8221V66.95ZM82.2721 64.95V61.5H78.2721V64.95H82.2721ZM80.2721 63.5H83.7971V59.5H80.2721V63.5ZM85.7971 61.5V58.05H81.7971V61.5H85.7971ZM83.7971 56.05H79.8221V60.05H83.7971V56.05ZM81.8221 58.05V54.6H77.8221V58.05H81.8221ZM79.8221 52.6H75.8471V56.6H79.8221V52.6ZM77.8471 54.6V41.325H73.8471V54.6H77.8471ZM75.8471 43.325H79.3721V39.325H75.8471V43.325ZM81.3721 41.325V37.95H77.3721V41.325H81.3721ZM79.3721 39.95H83.0471V35.95H79.3721V39.95ZM85.0471 37.95V34.5H81.0471V37.95H85.0471ZM83.0471 36.5H101.947V32.5H83.0471V36.5ZM99.9471 34.5V37.95H103.947V34.5H99.9471ZM101.947 39.95H105.622V35.95H101.947V39.95ZM103.622 37.95V41.325H107.622V37.95H103.622ZM105.622 43.325H109.147V39.325H105.622V43.325ZM107.147 41.325V54.6H111.147V41.325H107.147ZM109.147 52.6H105.172V56.6H109.147V52.6ZM103.172 54.6V58.05H107.172V54.6H103.172ZM105.172 56.05H101.197V60.05H105.172V56.05ZM99.1971 58.05V61.5H103.197V58.05H99.1971ZM101.197 63.5H104.722V59.5H101.197V63.5ZM102.722 61.5V64.95H106.722V61.5H102.722ZM104.722 66.95H108.172V62.95H104.722V66.95ZM106.172 64.95V68.325H110.172V64.95H106.172ZM108.172 70.325H111.397V66.325H108.172V70.325ZM82.1721 83.1V86.55H86.1721V83.1H82.1721ZM84.1721 88.55H100.822V84.55H84.1721V88.55ZM102.822 86.55V83.1H98.8221V86.55H102.822ZM100.822 85.1H104.197V81.1H100.822V85.1ZM106.197 83.1V68.4H102.197V83.1H106.197ZM104.197 66.4H100.822V70.4H104.197V66.4ZM102.822 68.4V64.95H98.8221V68.4H102.822ZM100.822 62.95H97.2221V66.95H100.822V62.95ZM99.2221 64.95V61.5H95.2221V64.95H99.2221ZM97.2221 59.5H87.7721V63.5H97.2221V59.5ZM85.7721 61.5V64.95H89.7721V61.5H85.7721ZM87.7721 62.95H84.1721V66.95H87.7721V62.95ZM82.1721 64.95V68.4H86.1721V64.95H82.1721ZM84.1721 66.4H80.7971V70.4H84.1721V66.4ZM78.7971 68.4V83.1H82.7971V68.4H78.7971ZM80.7971 85.1H84.1721V81.1H80.7971V85.1ZM85.3971 54.6V58.05H89.3971V54.6H85.3971ZM87.3971 60.05H97.5971V56.05H87.3971V60.05ZM99.5971 58.05V54.6H95.5971V58.05H99.5971ZM97.5971 56.6H101.947V52.6H97.5971V56.6ZM103.947 54.6V41.4H99.9471V54.6H103.947ZM101.947 39.4H98.3471V43.4H101.947V39.4ZM100.347 41.4V37.95H96.3471V41.4H100.347ZM98.3471 35.95H86.6471V39.95H98.3471V35.95ZM84.6471 37.95V41.4H88.6471V37.95H84.6471ZM86.6471 39.4H83.0471V43.4H86.6471V39.4ZM81.0471 41.4V54.6H85.0471V41.4H81.0471ZM83.0471 56.6H87.3971V52.6H83.0471V56.6ZM129.971 82.35V80.35H127.971V82.35H129.971ZM133.421 82.35V84.35H135.421V82.35H133.421ZM133.421 78.3V76.3H131.421V78.3H133.421ZM136.871 78.3V80.3H138.871V78.3H136.871ZM136.871 74.325V72.325H134.871V74.325H136.871ZM140.321 74.325V76.325H142.321V74.325H140.321ZM140.321 70.05V68.05H138.321V70.05H140.321ZM143.771 70.05V72.05H145.771V70.05H143.771ZM143.771 65.925V63.925H141.771V65.925H143.771ZM147.221 65.925V67.925H149.221V65.925H147.221ZM147.221 61.8V59.8H145.221V61.8H147.221ZM150.671 61.8V63.8H152.671V61.8H150.671ZM150.671 57.675V55.675H148.671V57.675H150.671ZM154.346 57.675V59.675H156.346V57.675H154.346ZM154.346 53.7V51.7H152.346V53.7H154.346ZM158.246 53.7V55.7H160.246V53.7H158.246ZM158.246 41.4H160.246V39.4H158.246V41.4ZM154.871 41.4H152.871V43.4H154.871V41.4ZM154.871 37.95H156.871V35.95H154.871V37.95ZM140.546 37.95V35.95H138.546V37.95H140.546ZM140.546 41.4V43.4H142.546V41.4H140.546ZM137.171 41.4V39.4H135.171V41.4H137.171ZM137.171 53.85V55.85H139.171V53.85H137.171ZM129.971 53.85H127.971V55.85H129.971V53.85ZM129.971 41.4V39.4H127.971V41.4H129.971ZM133.496 41.4V43.4H135.496V41.4H133.496ZM133.496 37.95V35.95H131.496V37.95H133.496ZM136.946 37.95V39.95H138.946V37.95H136.946ZM136.946 34.5V32.5H134.946V34.5H136.946ZM158.471 34.5H160.471V32.5H158.471V34.5ZM158.471 37.95H156.471V39.95H158.471V37.95ZM161.921 37.95H163.921V35.95H161.921V37.95ZM161.921 41.4H159.921V43.4H161.921V41.4ZM165.596 41.4H167.596V39.4H165.596V41.4ZM165.596 53.7V55.7H167.596V53.7H165.596ZM162.221 53.7V51.7H160.221V53.7H162.221ZM162.221 58.125V60.125H164.221V58.125H162.221ZM158.771 58.125V56.125H156.771V58.125H158.771ZM158.771 61.875V63.875H160.771V61.875H158.771ZM155.471 61.875V59.875H153.471V61.875H155.471ZM155.471 65.925V67.925H157.471V65.925H155.471ZM151.946 65.925V63.925H149.946V65.925H151.946ZM151.946 70.125V72.125H153.946V70.125H151.946ZM148.571 70.125V68.125H146.571V70.125H148.571ZM148.571 74.325V76.325H150.571V74.325H148.571ZM145.271 74.325V72.325H143.271V74.325H145.271ZM145.271 78.375V80.375H147.271V78.375H145.271ZM141.821 78.375V76.375H139.821V78.375H141.821ZM141.821 82.35V84.35H143.821V82.35H141.821ZM138.371 82.35V80.35H136.371V82.35H138.371ZM138.371 86.4H136.371V88.4H138.371V86.4ZM166.346 86.4H168.346V84.4H166.346V86.4ZM166.346 90V92H168.346V90H166.346ZM129.971 90H127.971V92H129.971V90ZM129.971 84.35H133.421V80.35H129.971V84.35ZM135.421 82.35V78.3H131.421V82.35H135.421ZM133.421 80.3H136.871V76.3H133.421V80.3ZM138.871 78.3V74.325H134.871V78.3H138.871ZM136.871 76.325H140.321V72.325H136.871V76.325ZM142.321 74.325V70.05H138.321V74.325H142.321ZM140.321 72.05H143.771V68.05H140.321V72.05ZM145.771 70.05V65.925H141.771V70.05H145.771ZM143.771 67.925H147.221V63.925H143.771V67.925ZM149.221 65.925V61.8H145.221V65.925H149.221ZM147.221 63.8H150.671V59.8H147.221V63.8ZM152.671 61.8V57.675H148.671V61.8H152.671ZM150.671 59.675H154.346V55.675H150.671V59.675ZM156.346 57.675V53.7H152.346V57.675H156.346ZM154.346 55.7H158.246V51.7H154.346V55.7ZM160.246 53.7V41.4H156.246V53.7H160.246ZM158.246 39.4H154.871V43.4H158.246V39.4ZM156.871 41.4V37.95H152.871V41.4H156.871ZM154.871 35.95H140.546V39.95H154.871V35.95ZM138.546 37.95V41.4H142.546V37.95H138.546ZM140.546 39.4H137.171V43.4H140.546V39.4ZM135.171 41.4V53.85H139.171V41.4H135.171ZM137.171 51.85H129.971V55.85H137.171V51.85ZM131.971 53.85V41.4H127.971V53.85H131.971ZM129.971 43.4H133.496V39.4H129.971V43.4ZM135.496 41.4V37.95H131.496V41.4H135.496ZM133.496 39.95H136.946V35.95H133.496V39.95ZM138.946 37.95V34.5H134.946V37.95H138.946ZM136.946 36.5H158.471V32.5H136.946V36.5ZM156.471 34.5V37.95H160.471V34.5H156.471ZM158.471 39.95H161.921V35.95H158.471V39.95ZM159.921 37.95V41.4H163.921V37.95H159.921ZM161.921 43.4H165.596V39.4H161.921V43.4ZM163.596 41.4V53.7H167.596V41.4H163.596ZM165.596 51.7H162.221V55.7H165.596V51.7ZM160.221 53.7V58.125H164.221V53.7H160.221ZM162.221 56.125H158.771V60.125H162.221V56.125ZM156.771 58.125V61.875H160.771V58.125H156.771ZM158.771 59.875H155.471V63.875H158.771V59.875ZM153.471 61.875V65.925H157.471V61.875H153.471ZM155.471 63.925H151.946V67.925H155.471V63.925ZM149.946 65.925V70.125H153.946V65.925H149.946ZM151.946 68.125H148.571V72.125H151.946V68.125ZM146.571 70.125V74.325H150.571V70.125H146.571ZM148.571 72.325H145.271V76.325H148.571V72.325ZM143.271 74.325V78.375H147.271V74.325H143.271ZM145.271 76.375H141.821V80.375H145.271V76.375ZM139.821 78.375V82.35H143.821V78.375H139.821ZM141.821 80.35H138.371V84.35H141.821V80.35ZM136.371 82.35V86.4H140.371V82.35H136.371ZM138.371 88.4H166.346V84.4H138.371V88.4ZM164.346 86.4V90H168.346V86.4H164.346ZM166.346 88H129.971V92H166.346V88ZM131.971 90V82.35H127.971V90H131.971ZM239.819 35.625H241.819V33.625H239.819V35.625ZM239.819 64.275V66.275H241.819V64.275H239.819ZM236.294 64.275V62.275H234.294V64.275H236.294ZM236.294 67.575V69.575H238.294V67.575H236.294ZM232.694 67.575H230.694V69.575H232.694V67.575ZM232.694 56.325H234.694V54.325H232.694V56.325ZM220.919 56.325H218.919V58.325H220.919V56.325ZM220.919 53.25V51.25H218.919V53.25H220.919ZM232.694 53.25V55.25H234.694V53.25H232.694ZM232.694 44.625H234.694V42.625H232.694V44.625ZM220.919 44.625H218.919V46.625H220.919V44.625ZM220.919 41.55V39.55H218.919V41.55H220.919ZM232.694 41.55V43.55H234.694V41.55H232.694ZM232.694 35.625H234.694V33.625H232.694V35.625ZM229.319 35.625H227.319V37.625H229.319V35.625ZM229.319 32.25V30.25H227.319V32.25H229.319ZM236.294 32.25H238.294V30.25H236.294V32.25ZM236.294 35.625H234.294V37.625H236.294V35.625ZM183.419 34.575V32.575H181.419V34.575H183.419ZM213.494 34.575H215.494V32.575H213.494V34.575ZM213.494 37.725H211.494V39.725H213.494V37.725ZM216.869 37.725H218.869V35.725H216.869V37.725ZM216.869 58.425V60.425H218.869V58.425H216.869ZM213.344 58.425V56.425H211.344V58.425H213.344ZM213.344 61.575V63.575H215.344V61.575H213.344ZM190.319 61.575H188.319V63.575H190.319V61.575ZM190.319 58.425H192.319V56.425H190.319V58.425ZM186.794 58.425H184.794V60.425H186.794V58.425ZM186.794 37.95H188.794V35.95H186.794V37.95ZM183.419 37.95H181.419V39.95H183.419V37.95ZM209.819 58.425V60.425H211.819V58.425H209.819ZM209.819 37.725H211.819V35.725H209.819V37.725ZM193.844 37.725V35.725H191.844V37.725H193.844ZM193.844 58.425H191.844V60.425H193.844V58.425ZM202.694 76.275V74.275H200.694V76.275H202.694ZM206.219 76.275V78.275H208.219V76.275H206.219ZM206.219 73.275V71.275H204.219V73.275H206.219ZM209.744 73.275V75.275H211.744V73.275H209.744ZM209.744 70.05V68.05H207.744V70.05H209.744ZM227.594 70.05H229.594V68.05H227.594V70.05ZM227.594 73.275H225.594V75.275H227.594V73.275ZM231.194 73.275H233.194V71.275H231.194V73.275ZM231.194 76.275H229.194V78.275H231.194V76.275ZM234.644 76.275H236.644V74.275H234.644V76.275ZM234.644 87V89H236.644V87H234.644ZM231.194 87V85H229.194V87H231.194ZM231.194 90.075V92.075H233.194V90.075H231.194ZM227.594 90.075V88.075H225.594V90.075H227.594ZM227.594 93.3V95.3H229.594V93.3H227.594ZM209.744 93.3H207.744V95.3H209.744V93.3ZM209.744 90.075H211.744V88.075H209.744V90.075ZM206.219 90.075H204.219V92.075H206.219V90.075ZM206.219 87H208.219V85H206.219V87ZM202.694 87H200.694V89H202.694V87ZM213.269 87H215.269V85H213.269V87ZM213.269 90.075H211.269V92.075H213.269V90.075ZM223.994 90.075V92.075H225.994V90.075H223.994ZM223.994 87V85H221.994V87H223.994ZM227.594 87V89H229.594V87H227.594ZM227.594 76.35H229.594V74.35H227.594V76.35ZM223.994 76.35H221.994V78.35H223.994V76.35ZM223.994 73.275H225.994V71.275H223.994V73.275ZM213.269 73.275V71.275H211.269V73.275H213.269ZM213.269 76.35V78.35H215.269V76.35H213.269ZM209.744 76.35V74.35H207.744V76.35H209.744ZM209.744 87H207.744V89H209.744V87ZM237.819 35.625V64.275H241.819V35.625H237.819ZM239.819 62.275H236.294V66.275H239.819V62.275ZM234.294 64.275V67.575H238.294V64.275H234.294ZM236.294 65.575H232.694V69.575H236.294V65.575ZM234.694 67.575V56.325H230.694V67.575H234.694ZM232.694 54.325H220.919V58.325H232.694V54.325ZM222.919 56.325V53.25H218.919V56.325H222.919ZM220.919 55.25H232.694V51.25H220.919V55.25ZM234.694 53.25V44.625H230.694V53.25H234.694ZM232.694 42.625H220.919V46.625H232.694V42.625ZM222.919 44.625V41.55H218.919V44.625H222.919ZM220.919 43.55H232.694V39.55H220.919V43.55ZM234.694 41.55V35.625H230.694V41.55H234.694ZM232.694 33.625H229.319V37.625H232.694V33.625ZM231.319 35.625V32.25H227.319V35.625H231.319ZM229.319 34.25H236.294V30.25H229.319V34.25ZM234.294 32.25V35.625H238.294V32.25H234.294ZM236.294 37.625H239.819V33.625H236.294V37.625ZM183.419 36.575H213.494V32.575H183.419V36.575ZM211.494 34.575V37.725H215.494V34.575H211.494ZM213.494 39.725H216.869V35.725H213.494V39.725ZM214.869 37.725V58.425H218.869V37.725H214.869ZM216.869 56.425H213.344V60.425H216.869V56.425ZM211.344 58.425V61.575H215.344V58.425H211.344ZM213.344 59.575H190.319V63.575H213.344V59.575ZM192.319 61.575V58.425H188.319V61.575H192.319ZM190.319 56.425H186.794V60.425H190.319V56.425ZM188.794 58.425V37.95H184.794V58.425H188.794ZM186.794 35.95H183.419V39.95H186.794V35.95ZM185.419 37.95V34.575H181.419V37.95H185.419ZM211.819 58.425V37.725H207.819V58.425H211.819ZM209.819 35.725H193.844V39.725H209.819V35.725ZM191.844 37.725V58.425H195.844V37.725H191.844ZM193.844 60.425H209.819V56.425H193.844V60.425ZM202.694 78.275H206.219V74.275H202.694V78.275ZM208.219 76.275V73.275H204.219V76.275H208.219ZM206.219 75.275H209.744V71.275H206.219V75.275ZM211.744 73.275V70.05H207.744V73.275H211.744ZM209.744 72.05H227.594V68.05H209.744V72.05ZM225.594 70.05V73.275H229.594V70.05H225.594ZM227.594 75.275H231.194V71.275H227.594V75.275ZM229.194 73.275V76.275H233.194V73.275H229.194ZM231.194 78.275H234.644V74.275H231.194V78.275ZM232.644 76.275V87H236.644V76.275H232.644ZM234.644 85H231.194V89H234.644V85ZM229.194 87V90.075H233.194V87H229.194ZM231.194 88.075H227.594V92.075H231.194V88.075ZM225.594 90.075V93.3H229.594V90.075H225.594ZM227.594 91.3H209.744V95.3H227.594V91.3ZM211.744 93.3V90.075H207.744V93.3H211.744ZM209.744 88.075H206.219V92.075H209.744V88.075ZM208.219 90.075V87H204.219V90.075H208.219ZM206.219 85H202.694V89H206.219V85ZM204.694 87V76.275H200.694V87H204.694ZM211.269 87V90.075H215.269V87H211.269ZM213.269 92.075H223.994V88.075H213.269V92.075ZM225.994 90.075V87H221.994V90.075H225.994ZM223.994 89H227.594V85H223.994V89ZM229.594 87V76.35H225.594V87H229.594ZM227.594 74.35H223.994V78.35H227.594V74.35ZM225.994 76.35V73.275H221.994V76.35H225.994ZM223.994 71.275H213.269V75.275H223.994V71.275ZM211.269 73.275V76.35H215.269V73.275H211.269ZM213.269 74.35H209.744V78.35H213.269V74.35ZM207.744 76.35V87H211.744V76.35H207.744ZM209.744 89H213.269V85H209.744V89Z" fill="#FB873F" mask="url(#path-4-outside-1_12397_38263)"/>
<mask id="path-6-outside-2_12397_38263" maskUnits="userSpaceOnUse" x="19" y="23" width="223" height="66" fill="black">
<rect fill="white" x="19" y="23" width="223" height="66"/>
<path d="M21.0484 79.475H36.0484V38.075H32.5234V41.75H28.7734V45.5H21.5734V41.75H25.3234V38H28.8484V34.4H32.2234V30.95H36.0484V27.5H43.2484V79.475H55.3984V83H21.0484V79.475ZM111.397 61.325V76.1H107.872V79.55H104.422V83H80.5721V79.55H77.1221V76.1H73.5971V61.325H76.8221V57.95H80.2721V54.5H83.7971V51.05H79.8221V47.6H75.8471V34.325H79.3721V30.95H83.0471V27.5H101.947V30.95H105.622V34.325H109.147V47.6H105.172V51.05H101.197V54.5H104.722V57.95H108.172V61.325H111.397ZM84.1721 76.1V79.55H100.822V76.1H104.197V61.4H100.822V57.95H97.2221V54.5H87.7721V57.95H84.1721V61.4H80.7971V76.1H84.1721ZM87.3971 47.6V51.05H97.5971V47.6H101.947V34.4H98.3471V30.95H86.6471V34.4H83.0471V47.6H87.3971ZM129.971 75.35H133.421V71.3H136.871V67.325H140.321V63.05H143.771V58.925H147.221V54.8H150.671V50.675H154.346V46.7H158.246V34.4H154.871V30.95H140.546V34.4H137.171V46.85H129.971V34.4H133.496V30.95H136.946V27.5H158.471V30.95H161.921V34.4H165.596V46.7H162.221V51.125H158.771V54.875H155.471V58.925H151.946V63.125H148.571V67.325H145.271V71.375H141.821V75.35H138.371V79.4H166.346V83H129.971V75.35ZM239.819 28.625V57.275H236.294V60.575H232.694V49.325H220.919V46.25H232.694V37.625H220.919V34.55H232.694V28.625H229.319V25.25H236.294V28.625H239.819ZM183.419 27.575H213.494V30.725H216.869V51.425H213.344V54.575H190.319V51.425H186.794V30.95H183.419V27.575ZM209.819 51.425V30.725H193.844V51.425H209.819ZM202.694 69.275H206.219V66.275H209.744V63.05H227.594V66.275H231.194V69.275H234.644V80H231.194V83.075H227.594V86.3H209.744V83.075H206.219V80H202.694V69.275ZM213.269 80V83.075H223.994V80H227.594V69.35H223.994V66.275H213.269V69.35H209.744V80H213.269Z"/>
</mask>
<path d="M21.0484 79.475H36.0484V38.075H32.5234V41.75H28.7734V45.5H21.5734V41.75H25.3234V38H28.8484V34.4H32.2234V30.95H36.0484V27.5H43.2484V79.475H55.3984V83H21.0484V79.475ZM111.397 61.325V76.1H107.872V79.55H104.422V83H80.5721V79.55H77.1221V76.1H73.5971V61.325H76.8221V57.95H80.2721V54.5H83.7971V51.05H79.8221V47.6H75.8471V34.325H79.3721V30.95H83.0471V27.5H101.947V30.95H105.622V34.325H109.147V47.6H105.172V51.05H101.197V54.5H104.722V57.95H108.172V61.325H111.397ZM84.1721 76.1V79.55H100.822V76.1H104.197V61.4H100.822V57.95H97.2221V54.5H87.7721V57.95H84.1721V61.4H80.7971V76.1H84.1721ZM87.3971 47.6V51.05H97.5971V47.6H101.947V34.4H98.3471V30.95H86.6471V34.4H83.0471V47.6H87.3971ZM129.971 75.35H133.421V71.3H136.871V67.325H140.321V63.05H143.771V58.925H147.221V54.8H150.671V50.675H154.346V46.7H158.246V34.4H154.871V30.95H140.546V34.4H137.171V46.85H129.971V34.4H133.496V30.95H136.946V27.5H158.471V30.95H161.921V34.4H165.596V46.7H162.221V51.125H158.771V54.875H155.471V58.925H151.946V63.125H148.571V67.325H145.271V71.375H141.821V75.35H138.371V79.4H166.346V83H129.971V75.35ZM239.819 28.625V57.275H236.294V60.575H232.694V49.325H220.919V46.25H232.694V37.625H220.919V34.55H232.694V28.625H229.319V25.25H236.294V28.625H239.819ZM183.419 27.575H213.494V30.725H216.869V51.425H213.344V54.575H190.319V51.425H186.794V30.95H183.419V27.575ZM209.819 51.425V30.725H193.844V51.425H209.819ZM202.694 69.275H206.219V66.275H209.744V63.05H227.594V66.275H231.194V69.275H234.644V80H231.194V83.075H227.594V86.3H209.744V83.075H206.219V80H202.694V69.275ZM213.269 80V83.075H223.994V80H227.594V69.35H223.994V66.275H213.269V69.35H209.744V80H213.269Z" fill="#FFFBF6"/>
<path d="M21.0484 79.475V77.475H19.0484V79.475H21.0484ZM36.0484 79.475V81.475H38.0484V79.475H36.0484ZM36.0484 38.075H38.0484V36.075H36.0484V38.075ZM32.5234 38.075V36.075H30.5234V38.075H32.5234ZM32.5234 41.75V43.75H34.5234V41.75H32.5234ZM28.7734 41.75V39.75H26.7734V41.75H28.7734ZM28.7734 45.5V47.5H30.7734V45.5H28.7734ZM21.5734 45.5H19.5734V47.5H21.5734V45.5ZM21.5734 41.75V39.75H19.5734V41.75H21.5734ZM25.3234 41.75V43.75H27.3234V41.75H25.3234ZM25.3234 38V36H23.3234V38H25.3234ZM28.8484 38V40H30.8484V38H28.8484ZM28.8484 34.4V32.4H26.8484V34.4H28.8484ZM32.2234 34.4V36.4H34.2234V34.4H32.2234ZM32.2234 30.95V28.95H30.2234V30.95H32.2234ZM36.0484 30.95V32.95H38.0484V30.95H36.0484ZM36.0484 27.5V25.5H34.0484V27.5H36.0484ZM43.2484 27.5H45.2484V25.5H43.2484V27.5ZM43.2484 79.475H41.2484V81.475H43.2484V79.475ZM55.3984 79.475H57.3984V77.475H55.3984V79.475ZM55.3984 83V85H57.3984V83H55.3984ZM21.0484 83H19.0484V85H21.0484V83ZM21.0484 81.475H36.0484V77.475H21.0484V81.475ZM38.0484 79.475V38.075H34.0484V79.475H38.0484ZM36.0484 36.075H32.5234V40.075H36.0484V36.075ZM30.5234 38.075V41.75H34.5234V38.075H30.5234ZM32.5234 39.75H28.7734V43.75H32.5234V39.75ZM26.7734 41.75V45.5H30.7734V41.75H26.7734ZM28.7734 43.5H21.5734V47.5H28.7734V43.5ZM23.5734 45.5V41.75H19.5734V45.5H23.5734ZM21.5734 43.75H25.3234V39.75H21.5734V43.75ZM27.3234 41.75V38H23.3234V41.75H27.3234ZM25.3234 40H28.8484V36H25.3234V40ZM30.8484 38V34.4H26.8484V38H30.8484ZM28.8484 36.4H32.2234V32.4H28.8484V36.4ZM34.2234 34.4V30.95H30.2234V34.4H34.2234ZM32.2234 32.95H36.0484V28.95H32.2234V32.95ZM38.0484 30.95V27.5H34.0484V30.95H38.0484ZM36.0484 29.5H43.2484V25.5H36.0484V29.5ZM41.2484 27.5V79.475H45.2484V27.5H41.2484ZM43.2484 81.475H55.3984V77.475H43.2484V81.475ZM53.3984 79.475V83H57.3984V79.475H53.3984ZM55.3984 81H21.0484V85H55.3984V81ZM23.0484 83V79.475H19.0484V83H23.0484ZM111.397 61.325H113.397V59.325H111.397V61.325ZM111.397 76.1V78.1H113.397V76.1H111.397ZM107.872 76.1V74.1H105.872V76.1H107.872ZM107.872 79.55V81.55H109.872V79.55H107.872ZM104.422 79.55V77.55H102.422V79.55H104.422ZM104.422 83V85H106.422V83H104.422ZM80.5721 83H78.5721V85H80.5721V83ZM80.5721 79.55H82.5721V77.55H80.5721V79.55ZM77.1221 79.55H75.1221V81.55H77.1221V79.55ZM77.1221 76.1H79.1221V74.1H77.1221V76.1ZM73.5971 76.1H71.5971V78.1H73.5971V76.1ZM73.5971 61.325V59.325H71.5971V61.325H73.5971ZM76.8221 61.325V63.325H78.8221V61.325H76.8221ZM76.8221 57.95V55.95H74.8221V57.95H76.8221ZM80.2721 57.95V59.95H82.2721V57.95H80.2721ZM80.2721 54.5V52.5H78.2721V54.5H80.2721ZM83.7971 54.5V56.5H85.7971V54.5H83.7971ZM83.7971 51.05H85.7971V49.05H83.7971V51.05ZM79.8221 51.05H77.8221V53.05H79.8221V51.05ZM79.8221 47.6H81.8221V45.6H79.8221V47.6ZM75.8471 47.6H73.8471V49.6H75.8471V47.6ZM75.8471 34.325V32.325H73.8471V34.325H75.8471ZM79.3721 34.325V36.325H81.3721V34.325H79.3721ZM79.3721 30.95V28.95H77.3721V30.95H79.3721ZM83.0471 30.95V32.95H85.0471V30.95H83.0471ZM83.0471 27.5V25.5H81.0471V27.5H83.0471ZM101.947 27.5H103.947V25.5H101.947V27.5ZM101.947 30.95H99.9471V32.95H101.947V30.95ZM105.622 30.95H107.622V28.95H105.622V30.95ZM105.622 34.325H103.622V36.325H105.622V34.325ZM109.147 34.325H111.147V32.325H109.147V34.325ZM109.147 47.6V49.6H111.147V47.6H109.147ZM105.172 47.6V45.6H103.172V47.6H105.172ZM105.172 51.05V53.05H107.172V51.05H105.172ZM101.197 51.05V49.05H99.1971V51.05H101.197ZM101.197 54.5H99.1971V56.5H101.197V54.5ZM104.722 54.5H106.722V52.5H104.722V54.5ZM104.722 57.95H102.722V59.95H104.722V57.95ZM108.172 57.95H110.172V55.95H108.172V57.95ZM108.172 61.325H106.172V63.325H108.172V61.325ZM84.1721 76.1H86.1721V74.1H84.1721V76.1ZM84.1721 79.55H82.1721V81.55H84.1721V79.55ZM100.822 79.55V81.55H102.822V79.55H100.822ZM100.822 76.1V74.1H98.8221V76.1H100.822ZM104.197 76.1V78.1H106.197V76.1H104.197ZM104.197 61.4H106.197V59.4H104.197V61.4ZM100.822 61.4H98.8221V63.4H100.822V61.4ZM100.822 57.95H102.822V55.95H100.822V57.95ZM97.2221 57.95H95.2221V59.95H97.2221V57.95ZM97.2221 54.5H99.2221V52.5H97.2221V54.5ZM87.7721 54.5V52.5H85.7721V54.5H87.7721ZM87.7721 57.95V59.95H89.7721V57.95H87.7721ZM84.1721 57.95V55.95H82.1721V57.95H84.1721ZM84.1721 61.4V63.4H86.1721V61.4H84.1721ZM80.7971 61.4V59.4H78.7971V61.4H80.7971ZM80.7971 76.1H78.7971V78.1H80.7971V76.1ZM87.3971 47.6H89.3971V45.6H87.3971V47.6ZM87.3971 51.05H85.3971V53.05H87.3971V51.05ZM97.5971 51.05V53.05H99.5971V51.05H97.5971ZM97.5971 47.6V45.6H95.5971V47.6H97.5971ZM101.947 47.6V49.6H103.947V47.6H101.947ZM101.947 34.4H103.947V32.4H101.947V34.4ZM98.3471 34.4H96.3471V36.4H98.3471V34.4ZM98.3471 30.95H100.347V28.95H98.3471V30.95ZM86.6471 30.95V28.95H84.6471V30.95H86.6471ZM86.6471 34.4V36.4H88.6471V34.4H86.6471ZM83.0471 34.4V32.4H81.0471V34.4H83.0471ZM83.0471 47.6H81.0471V49.6H83.0471V47.6ZM109.397 61.325V76.1H113.397V61.325H109.397ZM111.397 74.1H107.872V78.1H111.397V74.1ZM105.872 76.1V79.55H109.872V76.1H105.872ZM107.872 77.55H104.422V81.55H107.872V77.55ZM102.422 79.55V83H106.422V79.55H102.422ZM104.422 81H80.5721V85H104.422V81ZM82.5721 83V79.55H78.5721V83H82.5721ZM80.5721 77.55H77.1221V81.55H80.5721V77.55ZM79.1221 79.55V76.1H75.1221V79.55H79.1221ZM77.1221 74.1H73.5971V78.1H77.1221V74.1ZM75.5971 76.1V61.325H71.5971V76.1H75.5971ZM73.5971 63.325H76.8221V59.325H73.5971V63.325ZM78.8221 61.325V57.95H74.8221V61.325H78.8221ZM76.8221 59.95H80.2721V55.95H76.8221V59.95ZM82.2721 57.95V54.5H78.2721V57.95H82.2721ZM80.2721 56.5H83.7971V52.5H80.2721V56.5ZM85.7971 54.5V51.05H81.7971V54.5H85.7971ZM83.7971 49.05H79.8221V53.05H83.7971V49.05ZM81.8221 51.05V47.6H77.8221V51.05H81.8221ZM79.8221 45.6H75.8471V49.6H79.8221V45.6ZM77.8471 47.6V34.325H73.8471V47.6H77.8471ZM75.8471 36.325H79.3721V32.325H75.8471V36.325ZM81.3721 34.325V30.95H77.3721V34.325H81.3721ZM79.3721 32.95H83.0471V28.95H79.3721V32.95ZM85.0471 30.95V27.5H81.0471V30.95H85.0471ZM83.0471 29.5H101.947V25.5H83.0471V29.5ZM99.9471 27.5V30.95H103.947V27.5H99.9471ZM101.947 32.95H105.622V28.95H101.947V32.95ZM103.622 30.95V34.325H107.622V30.95H103.622ZM105.622 36.325H109.147V32.325H105.622V36.325ZM107.147 34.325V47.6H111.147V34.325H107.147ZM109.147 45.6H105.172V49.6H109.147V45.6ZM103.172 47.6V51.05H107.172V47.6H103.172ZM105.172 49.05H101.197V53.05H105.172V49.05ZM99.1971 51.05V54.5H103.197V51.05H99.1971ZM101.197 56.5H104.722V52.5H101.197V56.5ZM102.722 54.5V57.95H106.722V54.5H102.722ZM104.722 59.95H108.172V55.95H104.722V59.95ZM106.172 57.95V61.325H110.172V57.95H106.172ZM108.172 63.325H111.397V59.325H108.172V63.325ZM82.1721 76.1V79.55H86.1721V76.1H82.1721ZM84.1721 81.55H100.822V77.55H84.1721V81.55ZM102.822 79.55V76.1H98.8221V79.55H102.822ZM100.822 78.1H104.197V74.1H100.822V78.1ZM106.197 76.1V61.4H102.197V76.1H106.197ZM104.197 59.4H100.822V63.4H104.197V59.4ZM102.822 61.4V57.95H98.8221V61.4H102.822ZM100.822 55.95H97.2221V59.95H100.822V55.95ZM99.2221 57.95V54.5H95.2221V57.95H99.2221ZM97.2221 52.5H87.7721V56.5H97.2221V52.5ZM85.7721 54.5V57.95H89.7721V54.5H85.7721ZM87.7721 55.95H84.1721V59.95H87.7721V55.95ZM82.1721 57.95V61.4H86.1721V57.95H82.1721ZM84.1721 59.4H80.7971V63.4H84.1721V59.4ZM78.7971 61.4V76.1H82.7971V61.4H78.7971ZM80.7971 78.1H84.1721V74.1H80.7971V78.1ZM85.3971 47.6V51.05H89.3971V47.6H85.3971ZM87.3971 53.05H97.5971V49.05H87.3971V53.05ZM99.5971 51.05V47.6H95.5971V51.05H99.5971ZM97.5971 49.6H101.947V45.6H97.5971V49.6ZM103.947 47.6V34.4H99.9471V47.6H103.947ZM101.947 32.4H98.3471V36.4H101.947V32.4ZM100.347 34.4V30.95H96.3471V34.4H100.347ZM98.3471 28.95H86.6471V32.95H98.3471V28.95ZM84.6471 30.95V34.4H88.6471V30.95H84.6471ZM86.6471 32.4H83.0471V36.4H86.6471V32.4ZM81.0471 34.4V47.6H85.0471V34.4H81.0471ZM83.0471 49.6H87.3971V45.6H83.0471V49.6ZM129.971 75.35V73.35H127.971V75.35H129.971ZM133.421 75.35V77.35H135.421V75.35H133.421ZM133.421 71.3V69.3H131.421V71.3H133.421ZM136.871 71.3V73.3H138.871V71.3H136.871ZM136.871 67.325V65.325H134.871V67.325H136.871ZM140.321 67.325V69.325H142.321V67.325H140.321ZM140.321 63.05V61.05H138.321V63.05H140.321ZM143.771 63.05V65.05H145.771V63.05H143.771ZM143.771 58.925V56.925H141.771V58.925H143.771ZM147.221 58.925V60.925H149.221V58.925H147.221ZM147.221 54.8V52.8H145.221V54.8H147.221ZM150.671 54.8V56.8H152.671V54.8H150.671ZM150.671 50.675V48.675H148.671V50.675H150.671ZM154.346 50.675V52.675H156.346V50.675H154.346ZM154.346 46.7V44.7H152.346V46.7H154.346ZM158.246 46.7V48.7H160.246V46.7H158.246ZM158.246 34.4H160.246V32.4H158.246V34.4ZM154.871 34.4H152.871V36.4H154.871V34.4ZM154.871 30.95H156.871V28.95H154.871V30.95ZM140.546 30.95V28.95H138.546V30.95H140.546ZM140.546 34.4V36.4H142.546V34.4H140.546ZM137.171 34.4V32.4H135.171V34.4H137.171ZM137.171 46.85V48.85H139.171V46.85H137.171ZM129.971 46.85H127.971V48.85H129.971V46.85ZM129.971 34.4V32.4H127.971V34.4H129.971ZM133.496 34.4V36.4H135.496V34.4H133.496ZM133.496 30.95V28.95H131.496V30.95H133.496ZM136.946 30.95V32.95H138.946V30.95H136.946ZM136.946 27.5V25.5H134.946V27.5H136.946ZM158.471 27.5H160.471V25.5H158.471V27.5ZM158.471 30.95H156.471V32.95H158.471V30.95ZM161.921 30.95H163.921V28.95H161.921V30.95ZM161.921 34.4H159.921V36.4H161.921V34.4ZM165.596 34.4H167.596V32.4H165.596V34.4ZM165.596 46.7V48.7H167.596V46.7H165.596ZM162.221 46.7V44.7H160.221V46.7H162.221ZM162.221 51.125V53.125H164.221V51.125H162.221ZM158.771 51.125V49.125H156.771V51.125H158.771ZM158.771 54.875V56.875H160.771V54.875H158.771ZM155.471 54.875V52.875H153.471V54.875H155.471ZM155.471 58.925V60.925H157.471V58.925H155.471ZM151.946 58.925V56.925H149.946V58.925H151.946ZM151.946 63.125V65.125H153.946V63.125H151.946ZM148.571 63.125V61.125H146.571V63.125H148.571ZM148.571 67.325V69.325H150.571V67.325H148.571ZM145.271 67.325V65.325H143.271V67.325H145.271ZM145.271 71.375V73.375H147.271V71.375H145.271ZM141.821 71.375V69.375H139.821V71.375H141.821ZM141.821 75.35V77.35H143.821V75.35H141.821ZM138.371 75.35V73.35H136.371V75.35H138.371ZM138.371 79.4H136.371V81.4H138.371V79.4ZM166.346 79.4H168.346V77.4H166.346V79.4ZM166.346 83V85H168.346V83H166.346ZM129.971 83H127.971V85H129.971V83ZM129.971 77.35H133.421V73.35H129.971V77.35ZM135.421 75.35V71.3H131.421V75.35H135.421ZM133.421 73.3H136.871V69.3H133.421V73.3ZM138.871 71.3V67.325H134.871V71.3H138.871ZM136.871 69.325H140.321V65.325H136.871V69.325ZM142.321 67.325V63.05H138.321V67.325H142.321ZM140.321 65.05H143.771V61.05H140.321V65.05ZM145.771 63.05V58.925H141.771V63.05H145.771ZM143.771 60.925H147.221V56.925H143.771V60.925ZM149.221 58.925V54.8H145.221V58.925H149.221ZM147.221 56.8H150.671V52.8H147.221V56.8ZM152.671 54.8V50.675H148.671V54.8H152.671ZM150.671 52.675H154.346V48.675H150.671V52.675ZM156.346 50.675V46.7H152.346V50.675H156.346ZM154.346 48.7H158.246V44.7H154.346V48.7ZM160.246 46.7V34.4H156.246V46.7H160.246ZM158.246 32.4H154.871V36.4H158.246V32.4ZM156.871 34.4V30.95H152.871V34.4H156.871ZM154.871 28.95H140.546V32.95H154.871V28.95ZM138.546 30.95V34.4H142.546V30.95H138.546ZM140.546 32.4H137.171V36.4H140.546V32.4ZM135.171 34.4V46.85H139.171V34.4H135.171ZM137.171 44.85H129.971V48.85H137.171V44.85ZM131.971 46.85V34.4H127.971V46.85H131.971ZM129.971 36.4H133.496V32.4H129.971V36.4ZM135.496 34.4V30.95H131.496V34.4H135.496ZM133.496 32.95H136.946V28.95H133.496V32.95ZM138.946 30.95V27.5H134.946V30.95H138.946ZM136.946 29.5H158.471V25.5H136.946V29.5ZM156.471 27.5V30.95H160.471V27.5H156.471ZM158.471 32.95H161.921V28.95H158.471V32.95ZM159.921 30.95V34.4H163.921V30.95H159.921ZM161.921 36.4H165.596V32.4H161.921V36.4ZM163.596 34.4V46.7H167.596V34.4H163.596ZM165.596 44.7H162.221V48.7H165.596V44.7ZM160.221 46.7V51.125H164.221V46.7H160.221ZM162.221 49.125H158.771V53.125H162.221V49.125ZM156.771 51.125V54.875H160.771V51.125H156.771ZM158.771 52.875H155.471V56.875H158.771V52.875ZM153.471 54.875V58.925H157.471V54.875H153.471ZM155.471 56.925H151.946V60.925H155.471V56.925ZM149.946 58.925V63.125H153.946V58.925H149.946ZM151.946 61.125H148.571V65.125H151.946V61.125ZM146.571 63.125V67.325H150.571V63.125H146.571ZM148.571 65.325H145.271V69.325H148.571V65.325ZM143.271 67.325V71.375H147.271V67.325H143.271ZM145.271 69.375H141.821V73.375H145.271V69.375ZM139.821 71.375V75.35H143.821V71.375H139.821ZM141.821 73.35H138.371V77.35H141.821V73.35ZM136.371 75.35V79.4H140.371V75.35H136.371ZM138.371 81.4H166.346V77.4H138.371V81.4ZM164.346 79.4V83H168.346V79.4H164.346ZM166.346 81H129.971V85H166.346V81ZM131.971 83V75.35H127.971V83H131.971ZM239.819 28.625H241.819V26.625H239.819V28.625ZM239.819 57.275V59.275H241.819V57.275H239.819ZM236.294 57.275V55.275H234.294V57.275H236.294ZM236.294 60.575V62.575H238.294V60.575H236.294ZM232.694 60.575H230.694V62.575H232.694V60.575ZM232.694 49.325H234.694V47.325H232.694V49.325ZM220.919 49.325H218.919V51.325H220.919V49.325ZM220.919 46.25V44.25H218.919V46.25H220.919ZM232.694 46.25V48.25H234.694V46.25H232.694ZM232.694 37.625H234.694V35.625H232.694V37.625ZM220.919 37.625H218.919V39.625H220.919V37.625ZM220.919 34.55V32.55H218.919V34.55H220.919ZM232.694 34.55V36.55H234.694V34.55H232.694ZM232.694 28.625H234.694V26.625H232.694V28.625ZM229.319 28.625H227.319V30.625H229.319V28.625ZM229.319 25.25V23.25H227.319V25.25H229.319ZM236.294 25.25H238.294V23.25H236.294V25.25ZM236.294 28.625H234.294V30.625H236.294V28.625ZM183.419 27.575V25.575H181.419V27.575H183.419ZM213.494 27.575H215.494V25.575H213.494V27.575ZM213.494 30.725H211.494V32.725H213.494V30.725ZM216.869 30.725H218.869V28.725H216.869V30.725ZM216.869 51.425V53.425H218.869V51.425H216.869ZM213.344 51.425V49.425H211.344V51.425H213.344ZM213.344 54.575V56.575H215.344V54.575H213.344ZM190.319 54.575H188.319V56.575H190.319V54.575ZM190.319 51.425H192.319V49.425H190.319V51.425ZM186.794 51.425H184.794V53.425H186.794V51.425ZM186.794 30.95H188.794V28.95H186.794V30.95ZM183.419 30.95H181.419V32.95H183.419V30.95ZM209.819 51.425V53.425H211.819V51.425H209.819ZM209.819 30.725H211.819V28.725H209.819V30.725ZM193.844 30.725V28.725H191.844V30.725H193.844ZM193.844 51.425H191.844V53.425H193.844V51.425ZM202.694 69.275V67.275H200.694V69.275H202.694ZM206.219 69.275V71.275H208.219V69.275H206.219ZM206.219 66.275V64.275H204.219V66.275H206.219ZM209.744 66.275V68.275H211.744V66.275H209.744ZM209.744 63.05V61.05H207.744V63.05H209.744ZM227.594 63.05H229.594V61.05H227.594V63.05ZM227.594 66.275H225.594V68.275H227.594V66.275ZM231.194 66.275H233.194V64.275H231.194V66.275ZM231.194 69.275H229.194V71.275H231.194V69.275ZM234.644 69.275H236.644V67.275H234.644V69.275ZM234.644 80V82H236.644V80H234.644ZM231.194 80V78H229.194V80H231.194ZM231.194 83.075V85.075H233.194V83.075H231.194ZM227.594 83.075V81.075H225.594V83.075H227.594ZM227.594 86.3V88.3H229.594V86.3H227.594ZM209.744 86.3H207.744V88.3H209.744V86.3ZM209.744 83.075H211.744V81.075H209.744V83.075ZM206.219 83.075H204.219V85.075H206.219V83.075ZM206.219 80H208.219V78H206.219V80ZM202.694 80H200.694V82H202.694V80ZM213.269 80H215.269V78H213.269V80ZM213.269 83.075H211.269V85.075H213.269V83.075ZM223.994 83.075V85.075H225.994V83.075H223.994ZM223.994 80V78H221.994V80H223.994ZM227.594 80V82H229.594V80H227.594ZM227.594 69.35H229.594V67.35H227.594V69.35ZM223.994 69.35H221.994V71.35H223.994V69.35ZM223.994 66.275H225.994V64.275H223.994V66.275ZM213.269 66.275V64.275H211.269V66.275H213.269ZM213.269 69.35V71.35H215.269V69.35H213.269ZM209.744 69.35V67.35H207.744V69.35H209.744ZM209.744 80H207.744V82H209.744V80ZM237.819 28.625V57.275H241.819V28.625H237.819ZM239.819 55.275H236.294V59.275H239.819V55.275ZM234.294 57.275V60.575H238.294V57.275H234.294ZM236.294 58.575H232.694V62.575H236.294V58.575ZM234.694 60.575V49.325H230.694V60.575H234.694ZM232.694 47.325H220.919V51.325H232.694V47.325ZM222.919 49.325V46.25H218.919V49.325H222.919ZM220.919 48.25H232.694V44.25H220.919V48.25ZM234.694 46.25V37.625H230.694V46.25H234.694ZM232.694 35.625H220.919V39.625H232.694V35.625ZM222.919 37.625V34.55H218.919V37.625H222.919ZM220.919 36.55H232.694V32.55H220.919V36.55ZM234.694 34.55V28.625H230.694V34.55H234.694ZM232.694 26.625H229.319V30.625H232.694V26.625ZM231.319 28.625V25.25H227.319V28.625H231.319ZM229.319 27.25H236.294V23.25H229.319V27.25ZM234.294 25.25V28.625H238.294V25.25H234.294ZM236.294 30.625H239.819V26.625H236.294V30.625ZM183.419 29.575H213.494V25.575H183.419V29.575ZM211.494 27.575V30.725H215.494V27.575H211.494ZM213.494 32.725H216.869V28.725H213.494V32.725ZM214.869 30.725V51.425H218.869V30.725H214.869ZM216.869 49.425H213.344V53.425H216.869V49.425ZM211.344 51.425V54.575H215.344V51.425H211.344ZM213.344 52.575H190.319V56.575H213.344V52.575ZM192.319 54.575V51.425H188.319V54.575H192.319ZM190.319 49.425H186.794V53.425H190.319V49.425ZM188.794 51.425V30.95H184.794V51.425H188.794ZM186.794 28.95H183.419V32.95H186.794V28.95ZM185.419 30.95V27.575H181.419V30.95H185.419ZM211.819 51.425V30.725H207.819V51.425H211.819ZM209.819 28.725H193.844V32.725H209.819V28.725ZM191.844 30.725V51.425H195.844V30.725H191.844ZM193.844 53.425H209.819V49.425H193.844V53.425ZM202.694 71.275H206.219V67.275H202.694V71.275ZM208.219 69.275V66.275H204.219V69.275H208.219ZM206.219 68.275H209.744V64.275H206.219V68.275ZM211.744 66.275V63.05H207.744V66.275H211.744ZM209.744 65.05H227.594V61.05H209.744V65.05ZM225.594 63.05V66.275H229.594V63.05H225.594ZM227.594 68.275H231.194V64.275H227.594V68.275ZM229.194 66.275V69.275H233.194V66.275H229.194ZM231.194 71.275H234.644V67.275H231.194V71.275ZM232.644 69.275V80H236.644V69.275H232.644ZM234.644 78H231.194V82H234.644V78ZM229.194 80V83.075H233.194V80H229.194ZM231.194 81.075H227.594V85.075H231.194V81.075ZM225.594 83.075V86.3H229.594V83.075H225.594ZM227.594 84.3H209.744V88.3H227.594V84.3ZM211.744 86.3V83.075H207.744V86.3H211.744ZM209.744 81.075H206.219V85.075H209.744V81.075ZM208.219 83.075V80H204.219V83.075H208.219ZM206.219 78H202.694V82H206.219V78ZM204.694 80V69.275H200.694V80H204.694ZM211.269 80V83.075H215.269V80H211.269ZM213.269 85.075H223.994V81.075H213.269V85.075ZM225.994 83.075V80H221.994V83.075H225.994ZM223.994 82H227.594V78H223.994V82ZM229.594 80V69.35H225.594V80H229.594ZM227.594 67.35H223.994V71.35H227.594V67.35ZM225.994 69.35V66.275H221.994V69.35H225.994ZM223.994 64.275H213.269V68.275H223.994V64.275ZM211.269 66.275V69.35H215.269V66.275H211.269ZM213.269 67.35H209.744V71.35H213.269V67.35ZM207.744 69.35V80H211.744V69.35H207.744ZM209.744 82H213.269V78H209.744V82Z" fill="#FFFBF6" mask="url(#path-6-outside-2_12397_38263)"/>
<rect x="58" y="119" width="12" height="52" fill="#FFA000"/>
<rect x="192" y="119" width="12" height="52" fill="#FFA000"/>
</svg>
