<svg width="186" height="148" viewBox="0 0 186 148" fill="none" xmlns="http://www.w3.org/2000/svg">
<rect x="26.1707" y="109.756" width="134.39" height="38.1463" rx="19.0732" fill="#FFA000"/>
<path d="M58.3556 124.95V126.815H45.2592V119.832H47.5593V124.95H58.3556ZM43.1041 131.063V129.177H60.2206V131.063H52.7399V137.673H50.419V131.063H43.1041ZM68.323 122.152C68.323 124.442 69.8357 126.732 72.7368 127.706L71.5763 129.488C69.4834 128.804 68.0018 127.385 67.1832 125.623C66.3647 127.582 64.8106 129.157 62.5829 129.903L61.4018 128.079C64.3858 127.095 65.9814 124.608 65.9814 122.173V121.925H62.0856V120.08H72.198V121.925H68.323V122.152ZM64.365 132.845V131.001H77.1299V137.673H74.8297V132.845H64.365ZM71.6385 125.468V123.582H74.8297V118.941H77.1299V130.11H74.8297V125.468H71.6385ZM101.914 129.84V131.664H94.4536V137.673H92.1742V131.664H84.7971V129.84H101.914ZM86.8693 127.893V119.687H89.1488V121.987H97.5205V119.687H99.8414V127.893H86.8693ZM89.1488 126.028H97.5205V123.81H89.1488V126.028ZM118.864 118.961V133.135H116.543V131.498H112.876V129.882H116.543V118.961H118.864ZM103.074 127.374C106.524 127.354 111.176 127.323 115.155 126.815L115.279 128.473C113.736 128.732 112.14 128.898 110.555 129.012V132.617H108.255V129.136C106.504 129.208 104.835 129.219 103.364 129.219L103.074 127.374ZM104.504 122.961C104.504 120.982 106.41 119.635 109.187 119.645C111.912 119.635 113.829 120.982 113.85 122.961C113.829 124.971 111.912 126.245 109.187 126.255C106.41 126.245 104.504 124.971 104.504 122.961ZM105.561 137.3V131.768H107.861V135.435H119.3V137.3H105.561ZM106.68 122.961C106.68 123.976 107.685 124.567 109.187 124.577C110.617 124.567 111.643 123.976 111.653 122.961C111.643 121.945 110.617 121.334 109.187 121.344C107.685 121.334 106.68 121.945 106.68 122.961ZM136.292 120.495C136.281 122.847 138.923 125.24 142.923 125.758L142.011 127.623C138.83 127.147 136.302 125.582 135.079 123.468C133.857 125.582 131.339 127.147 128.189 127.623L127.278 125.758C131.235 125.24 133.867 122.867 133.867 120.495V119.541H136.292V120.495ZM126.532 131.146V129.239H143.607V131.146H136.167V137.673H133.888V131.146H126.532Z" fill="#FFFBF6"/>
<path d="M0 84.5056H8.32989V75.7762H0V84.5056Z" fill="#FFEBA3"/>
<path d="M177.461 84.5056L185.791 84.5056V75.7762H177.461V84.5056Z" fill="#FFEBA3"/>
<path d="M0 0.12207H8.32989V8.85141H0V0.12207Z" fill="#FFEBA3"/>
<path d="M177.461 0.12207H185.791V8.85141H177.461V0.12207Z" fill="#FFEBA3"/>
<path d="M0 8.85141H8.32989V17.5807H0V8.85141Z" fill="#FFA000"/>
<path d="M0 75.7762H8.32989V67.0469H0V75.7762Z" fill="#FFA000"/>
<path d="M185.791 8.85141H177.461V17.5807H185.791V8.85141Z" fill="#FFA000"/>
<path d="M185.791 75.7762H177.461V67.0469H185.791V75.7762Z" fill="#FFA000"/>
<path d="M8.32989 0.12207H16.6598V8.8514L8.32989 8.85141V0.12207Z" fill="#FFA000"/>
<path d="M8.32989 84.5056H16.6598V75.7762H8.32989V84.5056Z" fill="#FFA000"/>
<path d="M177.461 0.12207H169.131V8.8514L177.461 8.85141V0.12207Z" fill="#FFA000"/>
<path d="M177.461 84.5056L169.131 84.5056V75.7762H177.461V84.5056Z" fill="#FFA000"/>
<path d="M8.32989 17.5807H0V67.0469H8.32989V75.7762H16.6598V84.5056H124.254H169.131V75.7762H177.461V67.0469H185.791V17.5807H177.461V8.85141L169.131 8.8514V0.12207H16.6598V8.8514L8.32989 8.85141V17.5807Z" fill="#FFC700"/>
<mask id="path-4-outside-1_10928_27912" maskUnits="userSpaceOnUse" x="13.1951" y="21.2681" width="159" height="47" fill="black">
<rect fill="white" x="13.1951" y="21.2681" width="159" height="47"/>
<path d="M15.0708 64.39V61.8967H25.6806V32.6138H23.1873V35.2132H20.5348V37.8656H15.4421V35.2132H18.0946V32.5608H20.5879V30.0144H22.9751V27.5742H25.6806V25.1339H30.7732V61.8967H39.3671V64.39H15.0708ZM76.6948 49.0589H78.9759V59.5095H76.4826V61.9498H74.0424V64.39H57.1729V61.9498H54.7326V59.5095H52.2393V49.0589H54.5204V46.6717H56.9607V44.2315H59.454V41.7912H56.6424V39.351H53.8308V29.9614H56.3241V27.5742H58.9235V25.1339H72.2918V27.5742H74.8912V29.9614H77.3845V39.351H74.5729V41.7912H71.7613V44.2315H74.2546V46.6717H76.6948V49.0589ZM57.332 59.5095H59.7192V61.9498H71.496V59.5095H73.8832V49.112H71.496V46.6717H68.9497V44.2315H62.2656V46.6717H59.7192V49.112H57.332V59.5095ZM58.9235 39.351H62.0003V41.7912H69.2149V39.351H72.2918V30.0144H69.7454V27.5742H61.4698V30.0144H58.9235V39.351ZM92.1134 64.39V58.979H94.5536V56.1144H96.9939V53.3028H99.4341V50.279H101.874V47.3614H104.315V44.4437H106.755V41.526H109.354V38.7144H112.113V30.0144H109.726V27.5742H99.5932V30.0144H97.2061V38.8205H92.1134V30.0144H94.6067V27.5742H97.0469V25.1339H112.272V27.5742H114.712V30.0144H117.312V38.7144H114.924V41.8443H112.484V44.4967H110.15V47.3614H107.657V50.3321H105.269V53.3028H102.935V56.1675H100.495V58.979H98.0548V61.8437H117.842V64.39H92.1134ZM167.318 25.9296H169.811V46.1943H167.318V48.5284H164.772V40.5711H156.443V38.3961H164.772V32.2955H156.443V30.1205H164.772V25.9296H162.384V23.5425H167.318V25.9296ZM129.918 27.5742V25.187H151.191V27.415H153.578V42.0565H151.085V44.2845H134.799V42.0565H132.306V27.5742H129.918ZM137.292 42.0565H148.592V27.415H137.292V42.0565ZM143.552 62.2681V54.6821H146.045V52.5601H148.539V50.279H161.164V52.5601H163.711V54.6821H166.151V62.2681H163.711V64.4431H161.164V66.7242H148.539V64.4431H146.045V62.2681H143.552ZM148.539 62.2681H151.032V64.4431H158.618V62.2681H161.164V54.7351H158.618V52.5601H151.032V54.7351H148.539V62.2681Z"/>
</mask>
<path d="M15.0708 64.39V61.8967H25.6806V32.6138H23.1873V35.2132H20.5348V37.8656H15.4421V35.2132H18.0946V32.5608H20.5879V30.0144H22.9751V27.5742H25.6806V25.1339H30.7732V61.8967H39.3671V64.39H15.0708ZM76.6948 49.0589H78.9759V59.5095H76.4826V61.9498H74.0424V64.39H57.1729V61.9498H54.7326V59.5095H52.2393V49.0589H54.5204V46.6717H56.9607V44.2315H59.454V41.7912H56.6424V39.351H53.8308V29.9614H56.3241V27.5742H58.9235V25.1339H72.2918V27.5742H74.8912V29.9614H77.3845V39.351H74.5729V41.7912H71.7613V44.2315H74.2546V46.6717H76.6948V49.0589ZM57.332 59.5095H59.7192V61.9498H71.496V59.5095H73.8832V49.112H71.496V46.6717H68.9497V44.2315H62.2656V46.6717H59.7192V49.112H57.332V59.5095ZM58.9235 39.351H62.0003V41.7912H69.2149V39.351H72.2918V30.0144H69.7454V27.5742H61.4698V30.0144H58.9235V39.351ZM92.1134 64.39V58.979H94.5536V56.1144H96.9939V53.3028H99.4341V50.279H101.874V47.3614H104.315V44.4437H106.755V41.526H109.354V38.7144H112.113V30.0144H109.726V27.5742H99.5932V30.0144H97.2061V38.8205H92.1134V30.0144H94.6067V27.5742H97.0469V25.1339H112.272V27.5742H114.712V30.0144H117.312V38.7144H114.924V41.8443H112.484V44.4967H110.15V47.3614H107.657V50.3321H105.269V53.3028H102.935V56.1675H100.495V58.979H98.0548V61.8437H117.842V64.39H92.1134ZM167.318 25.9296H169.811V46.1943H167.318V48.5284H164.772V40.5711H156.443V38.3961H164.772V32.2955H156.443V30.1205H164.772V25.9296H162.384V23.5425H167.318V25.9296ZM129.918 27.5742V25.187H151.191V27.415H153.578V42.0565H151.085V44.2845H134.799V42.0565H132.306V27.5742H129.918ZM137.292 42.0565H148.592V27.415H137.292V42.0565ZM143.552 62.2681V54.6821H146.045V52.5601H148.539V50.279H161.164V52.5601H163.711V54.6821H166.151V62.2681H163.711V64.4431H161.164V66.7242H148.539V64.4431H146.045V62.2681H143.552ZM148.539 62.2681H151.032V64.4431H158.618V62.2681H161.164V54.7351H158.618V52.5601H151.032V54.7351H148.539V62.2681Z" fill="#FB873F"/>
<path d="M15.0708 64.39H13.6562V65.8047H15.0708V64.39ZM15.0708 61.8967V60.4821H13.6562V61.8967H15.0708ZM25.6806 61.8967V63.3114H27.0952V61.8967H25.6806ZM25.6806 32.6138H27.0952V31.1992H25.6806V32.6138ZM23.1873 32.6138V31.1992H21.7726V32.6138H23.1873ZM23.1873 35.2132V36.6278H24.6019V35.2132H23.1873ZM20.5348 35.2132V33.7986H19.1202V35.2132H20.5348ZM20.5348 37.8656V39.2803H21.9495V37.8656H20.5348ZM15.4421 37.8656H14.0275V39.2803H15.4421V37.8656ZM15.4421 35.2132V33.7986H14.0275V35.2132H15.4421ZM18.0946 35.2132V36.6278H19.5092V35.2132H18.0946ZM18.0946 32.5608V31.1461H16.6799V32.5608H18.0946ZM20.5879 32.5608V33.9754H22.0025V32.5608H20.5879ZM20.5879 30.0144V28.5998H19.1732V30.0144H20.5879ZM22.9751 30.0144V31.429H24.3897V30.0144H22.9751ZM22.9751 27.5742V26.1595H21.5604V27.5742H22.9751ZM25.6806 27.5742V28.9888H27.0952V27.5742H25.6806ZM25.6806 25.1339V23.7193H24.2659V25.1339H25.6806ZM30.7732 25.1339H32.1879V23.7193H30.7732V25.1339ZM30.7732 61.8967H29.3586V63.3114H30.7732V61.8967ZM39.3671 61.8967H40.7818V60.4821H39.3671V61.8967ZM39.3671 64.39V65.8047H40.7818V64.39H39.3671ZM16.4854 64.39V61.8967H13.6562V64.39H16.4854ZM15.0708 63.3114H25.6806V60.4821H15.0708V63.3114ZM27.0952 61.8967V32.6138H24.2659V61.8967H27.0952ZM25.6806 31.1992H23.1873V34.0284H25.6806V31.1992ZM21.7726 32.6138V35.2132H24.6019V32.6138H21.7726ZM23.1873 33.7986H20.5348V36.6278H23.1873V33.7986ZM19.1202 35.2132V37.8656H21.9495V35.2132H19.1202ZM20.5348 36.451H15.4421V39.2803H20.5348V36.451ZM16.8568 37.8656V35.2132H14.0275V37.8656H16.8568ZM15.4421 36.6278H18.0946V33.7986H15.4421V36.6278ZM19.5092 35.2132V32.5608H16.6799V35.2132H19.5092ZM18.0946 33.9754H20.5879V31.1461H18.0946V33.9754ZM22.0025 32.5608V30.0144H19.1732V32.5608H22.0025ZM20.5879 31.429H22.9751V28.5998H20.5879V31.429ZM24.3897 30.0144V27.5742H21.5604V30.0144H24.3897ZM22.9751 28.9888H25.6806V26.1595H22.9751V28.9888ZM27.0952 27.5742V25.1339H24.2659V27.5742H27.0952ZM25.6806 26.5486H30.7732V23.7193H25.6806V26.5486ZM29.3586 25.1339V61.8967H32.1879V25.1339H29.3586ZM30.7732 63.3114H39.3671V60.4821H30.7732V63.3114ZM37.9525 61.8967V64.39H40.7818V61.8967H37.9525ZM39.3671 62.9754H15.0708V65.8047H39.3671V62.9754ZM76.6948 49.0589H75.2802V50.4736H76.6948V49.0589ZM78.9759 49.0589H80.3906V47.6443H78.9759V49.0589ZM78.9759 59.5095V60.9242H80.3906V59.5095H78.9759ZM76.4826 59.5095V58.0949H75.068V59.5095H76.4826ZM76.4826 61.9498V63.3644H77.8973V61.9498H76.4826ZM74.0424 61.9498V60.5351H72.6278V61.9498H74.0424ZM74.0424 64.39V65.8047H75.457V64.39H74.0424ZM57.1729 64.39H55.7582V65.8047H57.1729V64.39ZM57.1729 61.9498H58.5875V60.5351H57.1729V61.9498ZM54.7326 61.9498H53.318V63.3644H54.7326V61.9498ZM54.7326 59.5095H56.1473V58.0949H54.7326V59.5095ZM52.2393 59.5095H50.8247V60.9242H52.2393V59.5095ZM52.2393 49.0589V47.6443H50.8247V49.0589H52.2393ZM54.5204 49.0589V50.4736H55.9351V49.0589H54.5204ZM54.5204 46.6717V45.2571H53.1058V46.6717H54.5204ZM56.9607 46.6717V48.0864H58.3753V46.6717H56.9607ZM56.9607 44.2315V42.8168H55.546V44.2315H56.9607ZM59.454 44.2315V45.6461H60.8686V44.2315H59.454ZM59.454 41.7912H60.8686V40.3766H59.454V41.7912ZM56.6424 41.7912H55.2278V43.2059H56.6424V41.7912ZM56.6424 39.351H58.057V37.9364H56.6424V39.351ZM53.8308 39.351H52.4162V40.7656H53.8308V39.351ZM53.8308 29.9614V28.5467H52.4162V29.9614H53.8308ZM56.3241 29.9614V31.376H57.7387V29.9614H56.3241ZM56.3241 27.5742V26.1595H54.9095V27.5742H56.3241ZM58.9235 27.5742V28.9888H60.3381V27.5742H58.9235ZM58.9235 25.1339V23.7193H57.5089V25.1339H58.9235ZM72.2918 25.1339H73.7064V23.7193H72.2918V25.1339ZM72.2918 27.5742H70.8771V28.9888H72.2918V27.5742ZM74.8912 27.5742H76.3058V26.1595H74.8912V27.5742ZM74.8912 29.9614H73.4765V31.376H74.8912V29.9614ZM77.3845 29.9614H78.7991V28.5467H77.3845V29.9614ZM77.3845 39.351V40.7656H78.7991V39.351H77.3845ZM74.5729 39.351V37.9364H73.1582V39.351H74.5729ZM74.5729 41.7912V43.2059H75.9875V41.7912H74.5729ZM71.7613 41.7912V40.3766H70.3467V41.7912H71.7613ZM71.7613 44.2315H70.3467V45.6461H71.7613V44.2315ZM74.2546 44.2315H75.6692V42.8168H74.2546V44.2315ZM74.2546 46.6717H72.84V48.0864H74.2546V46.6717ZM76.6948 46.6717H78.1095V45.2571H76.6948V46.6717ZM57.332 59.5095H55.9174V60.9242H57.332V59.5095ZM59.7192 59.5095H61.1339V58.0949H59.7192V59.5095ZM59.7192 61.9498H58.3046V63.3644H59.7192V61.9498ZM71.496 61.9498V63.3644H72.9107V61.9498H71.496ZM71.496 59.5095V58.0949H70.0814V59.5095H71.496ZM73.8832 59.5095V60.9242H75.2979V59.5095H73.8832ZM73.8832 49.112H75.2979V47.6973H73.8832V49.112ZM71.496 49.112H70.0814V50.5266H71.496V49.112ZM71.496 46.6717H72.9107V45.2571H71.496V46.6717ZM68.9497 46.6717H67.5351V48.0864H68.9497V46.6717ZM68.9497 44.2315H70.3643V42.8168H68.9497V44.2315ZM62.2656 44.2315V42.8168H60.8509V44.2315H62.2656ZM62.2656 46.6717V48.0864H63.6802V46.6717H62.2656ZM59.7192 46.6717V45.2571H58.3046V46.6717H59.7192ZM59.7192 49.112V50.5266H61.1339V49.112H59.7192ZM57.332 49.112V47.6973H55.9174V49.112H57.332ZM58.9235 39.351H57.5089V40.7656H58.9235V39.351ZM62.0003 39.351H63.4149V37.9364H62.0003V39.351ZM62.0003 41.7912H60.5857V43.2059H62.0003V41.7912ZM69.215 41.7912V43.2059H70.6296V41.7912H69.215ZM69.215 39.351V37.9364H67.8003V39.351H69.215ZM72.2918 39.351V40.7656H73.7064V39.351H72.2918ZM72.2918 30.0144H73.7064V28.5998H72.2918V30.0144ZM69.7454 30.0144H68.3308V31.429H69.7454V30.0144ZM69.7454 27.5742H71.1601V26.1595H69.7454V27.5742ZM61.4698 27.5742V26.1595H60.0552V27.5742H61.4698ZM61.4698 30.0144V31.429H62.8845V30.0144H61.4698ZM58.9235 30.0144V28.5998H57.5089V30.0144H58.9235ZM76.6948 50.4736H78.9759V47.6443H76.6948V50.4736ZM77.5613 49.0589V59.5095H80.3906V49.0589H77.5613ZM78.9759 58.0949H76.4826V60.9242H78.9759V58.0949ZM75.068 59.5095V61.9498H77.8973V59.5095H75.068ZM76.4826 60.5351H74.0424V63.3644H76.4826V60.5351ZM72.6278 61.9498V64.39H75.457V61.9498H72.6278ZM74.0424 62.9754H57.1729V65.8047H74.0424V62.9754ZM58.5875 64.39V61.9498H55.7582V64.39H58.5875ZM57.1729 60.5351H54.7326V63.3644H57.1729V60.5351ZM56.1473 61.9498V59.5095H53.318V61.9498H56.1473ZM54.7326 58.0949H52.2393V60.9242H54.7326V58.0949ZM53.654 59.5095V49.0589H50.8247V59.5095H53.654ZM52.2393 50.4736H54.5204V47.6443H52.2393V50.4736ZM55.9351 49.0589V46.6717H53.1058V49.0589H55.9351ZM54.5204 48.0864H56.9607V45.2571H54.5204V48.0864ZM58.3753 46.6717V44.2315H55.546V46.6717H58.3753ZM56.9607 45.6461H59.454V42.8168H56.9607V45.6461ZM60.8686 44.2315V41.7912H58.0393V44.2315H60.8686ZM59.454 40.3766H56.6424V43.2059H59.454V40.3766ZM58.057 41.7912V39.351H55.2278V41.7912H58.057ZM56.6424 37.9364H53.8308V40.7656H56.6424V37.9364ZM55.2454 39.351V29.9614H52.4162V39.351H55.2454ZM53.8308 31.376H56.3241V28.5467H53.8308V31.376ZM57.7387 29.9614V27.5742H54.9095V29.9614H57.7387ZM56.3241 28.9888H58.9235V26.1595H56.3241V28.9888ZM60.3381 27.5742V25.1339H57.5089V27.5742H60.3381ZM58.9235 26.5486H72.2918V23.7193H58.9235V26.5486ZM70.8771 25.1339V27.5742H73.7064V25.1339H70.8771ZM72.2918 28.9888H74.8912V26.1595H72.2918V28.9888ZM73.4765 27.5742V29.9614H76.3058V27.5742H73.4765ZM74.8912 31.376H77.3845V28.5467H74.8912V31.376ZM75.9698 29.9614V39.351H78.7991V29.9614H75.9698ZM77.3845 37.9364H74.5729V40.7656H77.3845V37.9364ZM73.1582 39.351V41.7912H75.9875V39.351H73.1582ZM74.5729 40.3766H71.7613V43.2059H74.5729V40.3766ZM70.3467 41.7912V44.2315H73.1759V41.7912H70.3467ZM71.7613 45.6461H74.2546V42.8168H71.7613V45.6461ZM72.84 44.2315V46.6717H75.6692V44.2315H72.84ZM74.2546 48.0864H76.6948V45.2571H74.2546V48.0864ZM75.2802 46.6717V49.0589H78.1095V46.6717H75.2802ZM57.332 60.9242H59.7192V58.0949H57.332V60.9242ZM58.3046 59.5095V61.9498H61.1339V59.5095H58.3046ZM59.7192 63.3644H71.496V60.5351H59.7192V63.3644ZM72.9107 61.9498V59.5095H70.0814V61.9498H72.9107ZM71.496 60.9242H73.8832V58.0949H71.496V60.9242ZM75.2979 59.5095V49.112H72.4686V59.5095H75.2979ZM73.8832 47.6973H71.496V50.5266H73.8832V47.6973ZM72.9107 49.112V46.6717H70.0814V49.112H72.9107ZM71.496 45.2571H68.9497V48.0864H71.496V45.2571ZM70.3643 46.6717V44.2315H67.5351V46.6717H70.3643ZM68.9497 42.8168H62.2656V45.6461H68.9497V42.8168ZM60.8509 44.2315V46.6717H63.6802V44.2315H60.8509ZM62.2656 45.2571H59.7192V48.0864H62.2656V45.2571ZM58.3046 46.6717V49.112H61.1339V46.6717H58.3046ZM59.7192 47.6973H57.332V50.5266H59.7192V47.6973ZM55.9174 49.112V59.5095H58.7467V49.112H55.9174ZM58.9235 40.7656H62.0003V37.9364H58.9235V40.7656ZM60.5857 39.351V41.7912H63.4149V39.351H60.5857ZM62.0003 43.2059H69.215V40.3766H62.0003V43.2059ZM70.6296 41.7912V39.351H67.8003V41.7912H70.6296ZM69.215 40.7656H72.2918V37.9364H69.215V40.7656ZM73.7064 39.351V30.0144H70.8771V39.351H73.7064ZM72.2918 28.5998H69.7454V31.429H72.2918V28.5998ZM71.1601 30.0144V27.5742H68.3308V30.0144H71.1601ZM69.7454 26.1595H61.4698V28.9888H69.7454V26.1595ZM60.0552 27.5742V30.0144H62.8845V27.5742H60.0552ZM61.4698 28.5998H58.9235V31.429H61.4698V28.5998ZM57.5089 30.0144V39.351H60.3381V30.0144H57.5089ZM92.1134 64.39H90.6987V65.8047H92.1134V64.39ZM92.1134 58.979V57.5644H90.6987V58.979H92.1134ZM94.5536 58.979V60.3937H95.9682V58.979H94.5536ZM94.5536 56.1144V54.6998H93.139V56.1144H94.5536ZM96.9939 56.1144V57.529H98.4085V56.1144H96.9939ZM96.9939 53.3028V51.8882H95.5792V53.3028H96.9939ZM99.4341 53.3028V54.7175H100.849V53.3028H99.4341ZM99.4341 50.279V48.8644H98.0195V50.279H99.4341ZM101.874 50.279V51.6937H103.289V50.279H101.874ZM101.874 47.3614V45.9467H100.46V47.3614H101.874ZM104.315 47.3614V48.776H105.729V47.3614H104.315ZM104.315 44.4437V43.029H102.9V44.4437H104.315ZM106.755 44.4437V45.8583H108.169V44.4437H106.755ZM106.755 41.526V40.1114H105.34V41.526H106.755ZM109.354 41.526V42.9406H110.769V41.526H109.354ZM109.354 38.7144V37.2998H107.94V38.7144H109.354ZM112.113 38.7144V40.129H113.527V38.7144H112.113ZM112.113 30.0144H113.527V28.5998H112.113V30.0144ZM109.726 30.0144H108.311V31.429H109.726V30.0144ZM109.726 27.5742H111.14V26.1595H109.726V27.5742ZM99.5932 27.5742V26.1595H98.1786V27.5742H99.5932ZM99.5932 30.0144V31.429H101.008V30.0144H99.5932ZM97.2061 30.0144V28.5998H95.7914V30.0144H97.2061ZM97.2061 38.8205V40.2351H98.6207V38.8205H97.2061ZM92.1134 38.8205H90.6987V40.2351H92.1134V38.8205ZM92.1134 30.0144V28.5998H90.6987V30.0144H92.1134ZM94.6067 30.0144V31.429H96.0213V30.0144H94.6067ZM94.6067 27.5742V26.1595H93.192V27.5742H94.6067ZM97.0469 27.5742V28.9888H98.4615V27.5742H97.0469ZM97.0469 25.1339V23.7193H95.6323V25.1339H97.0469ZM112.272 25.1339H113.687V23.7193H112.272V25.1339ZM112.272 27.5742H110.857V28.9888H112.272V27.5742ZM114.712 27.5742H116.127V26.1595H114.712V27.5742ZM114.712 30.0144H113.298V31.429H114.712V30.0144ZM117.312 30.0144H118.726V28.5998H117.312V30.0144ZM117.312 38.7144V40.129H118.726V38.7144H117.312ZM114.924 38.7144V37.2998H113.51V38.7144H114.924ZM114.924 41.8443V43.2589H116.339V41.8443H114.924ZM112.484 41.8443V40.4297H111.069V41.8443H112.484ZM112.484 44.4967V45.9114H113.899V44.4967H112.484ZM110.15 44.4967V43.0821H108.735V44.4967H110.15ZM110.15 47.3614V48.776H111.565V47.3614H110.15ZM107.657 47.3614V45.9467H106.242V47.3614H107.657ZM107.657 50.3321V51.7467H109.071V50.3321H107.657ZM105.269 50.3321V48.9175H103.855V50.3321H105.269ZM105.269 53.3028V54.7175H106.684V53.3028H105.269ZM102.935 53.3028V51.8882H101.521V53.3028H102.935ZM102.935 56.1675V57.5821H104.35V56.1675H102.935ZM100.495 56.1675V54.7528H99.0804V56.1675H100.495ZM100.495 58.979V60.3937H101.91V58.979H100.495ZM98.0548 58.979V57.5644H96.6402V58.979H98.0548ZM98.0548 61.8437H96.6402V63.2583H98.0548V61.8437ZM117.842 61.8437H119.257V60.429H117.842V61.8437ZM117.842 64.39V65.8047H119.257V64.39H117.842ZM93.528 64.39V58.979H90.6987V64.39H93.528ZM92.1134 60.3937H94.5536V57.5644H92.1134V60.3937ZM95.9682 58.979V56.1144H93.139V58.979H95.9682ZM94.5536 57.529H96.9939V54.6998H94.5536V57.529ZM98.4085 56.1144V53.3028H95.5792V56.1144H98.4085ZM96.9939 54.7175H99.4341V51.8882H96.9939V54.7175ZM100.849 53.3028V50.279H98.0195V53.3028H100.849ZM99.4341 51.6937H101.874V48.8644H99.4341V51.6937ZM103.289 50.279V47.3614H100.46V50.279H103.289ZM101.874 48.776H104.315V45.9467H101.874V48.776ZM105.729 47.3614V44.4437H102.9V47.3614H105.729ZM104.315 45.8583H106.755V43.029H104.315V45.8583ZM108.169 44.4437V41.526H105.34V44.4437H108.169ZM106.755 42.9406H109.354V40.1114H106.755V42.9406ZM110.769 41.526V38.7144H107.94V41.526H110.769ZM109.354 40.129H112.113V37.2998H109.354V40.129ZM113.527 38.7144V30.0144H110.698V38.7144H113.527ZM112.113 28.5998H109.726V31.429H112.113V28.5998ZM111.14 30.0144V27.5742H108.311V30.0144H111.14ZM109.726 26.1595H99.5932V28.9888H109.726V26.1595ZM98.1786 27.5742V30.0144H101.008V27.5742H98.1786ZM99.5932 28.5998H97.2061V31.429H99.5932V28.5998ZM95.7914 30.0144V38.8205H98.6207V30.0144H95.7914ZM97.2061 37.4059H92.1134V40.2351H97.2061V37.4059ZM93.528 38.8205V30.0144H90.6987V38.8205H93.528ZM92.1134 31.429H94.6067V28.5998H92.1134V31.429ZM96.0213 30.0144V27.5742H93.192V30.0144H96.0213ZM94.6067 28.9888H97.0469V26.1595H94.6067V28.9888ZM98.4615 27.5742V25.1339H95.6323V27.5742H98.4615ZM97.0469 26.5486H112.272V23.7193H97.0469V26.5486ZM110.857 25.1339V27.5742H113.687V25.1339H110.857ZM112.272 28.9888H114.712V26.1595H112.272V28.9888ZM113.298 27.5742V30.0144H116.127V27.5742H113.298ZM114.712 31.429H117.312V28.5998H114.712V31.429ZM115.897 30.0144V38.7144H118.726V30.0144H115.897ZM117.312 37.2998H114.924V40.129H117.312V37.2998ZM113.51 38.7144V41.8443H116.339V38.7144H113.51ZM114.924 40.4297H112.484V43.2589H114.924V40.4297ZM111.069 41.8443V44.4967H113.899V41.8443H111.069ZM112.484 43.0821H110.15V45.9114H112.484V43.0821ZM108.735 44.4967V47.3614H111.565V44.4967H108.735ZM110.15 45.9467H107.657V48.776H110.15V45.9467ZM106.242 47.3614V50.3321H109.071V47.3614H106.242ZM107.657 48.9175H105.269V51.7467H107.657V48.9175ZM103.855 50.3321V53.3028H106.684V50.3321H103.855ZM105.269 51.8882H102.935V54.7175H105.269V51.8882ZM101.521 53.3028V56.1675H104.35V53.3028H101.521ZM102.935 54.7528H100.495V57.5821H102.935V54.7528ZM99.0804 56.1675V58.979H101.91V56.1675H99.0804ZM100.495 57.5644H98.0548V60.3937H100.495V57.5644ZM96.6402 58.979V61.8437H99.4695V58.979H96.6402ZM98.0548 63.2583H117.842V60.429H98.0548V63.2583ZM116.427 61.8437V64.39H119.257V61.8437H116.427ZM117.842 62.9754H92.1134V65.8047H117.842V62.9754ZM167.318 25.9296H165.903V27.3443H167.318V25.9296ZM169.811 25.9296H171.226V24.515H169.811V25.9296ZM169.811 46.1943V47.6089H171.226V46.1943H169.811ZM167.318 46.1943V44.7797H165.903V46.1943H167.318ZM167.318 48.5284V49.9431H168.733V48.5284H167.318ZM164.772 48.5284H163.357V49.9431H164.772V48.5284ZM164.772 40.5711H166.186V39.1565H164.772V40.5711ZM156.443 40.5711H155.028V41.9858H156.443V40.5711ZM156.443 38.3961V36.9815H155.028V38.3961H156.443ZM164.772 38.3961V39.8107H166.186V38.3961H164.772ZM164.772 32.2955H166.186V30.8809H164.772V32.2955ZM156.443 32.2955H155.028V33.7101H156.443V32.2955ZM156.443 30.1205V28.7059H155.028V30.1205H156.443ZM164.772 30.1205V31.5351H166.186V30.1205H164.772ZM164.772 25.9296H166.186V24.515H164.772V25.9296ZM162.384 25.9296H160.97V27.3443H162.384V25.9296ZM162.384 23.5425V22.1278H160.97V23.5425H162.384ZM167.318 23.5425H168.733V22.1278H167.318V23.5425ZM129.918 27.5742H128.504V28.9888H129.918V27.5742ZM129.918 25.187V23.7723H128.504V25.187H129.918ZM151.191 25.187H152.606V23.7723H151.191V25.187ZM151.191 27.415H149.776V28.8297H151.191V27.415ZM153.578 27.415H154.993V26.0004H153.578V27.415ZM153.578 42.0565V43.4711H154.993V42.0565H153.578ZM151.085 42.0565V40.6418H149.67V42.0565H151.085ZM151.085 44.2845V45.6992H152.5V44.2845H151.085ZM134.799 44.2845H133.384V45.6992H134.799V44.2845ZM134.799 42.0565H136.214V40.6418H134.799V42.0565ZM132.306 42.0565H130.891V43.4711H132.306V42.0565ZM132.306 27.5742H133.72V26.1595H132.306V27.5742ZM137.292 42.0565H135.878V43.4711H137.292V42.0565ZM148.592 42.0565V43.4711H150.006V42.0565H148.592ZM148.592 27.415H150.006V26.0004H148.592V27.415ZM137.292 27.415V26.0004H135.878V27.415H137.292ZM143.552 62.2681H142.137V63.6827H143.552V62.2681ZM143.552 54.6821V53.2675H142.137V54.6821H143.552ZM146.045 54.6821V56.0967H147.46V54.6821H146.045ZM146.045 52.5601V51.1455H144.631V52.5601H146.045ZM148.539 52.5601V53.9748H149.953V52.5601H148.539ZM148.539 50.279V48.8644H147.124V50.279H148.539ZM161.164 50.279H162.579V48.8644H161.164V50.279ZM161.164 52.5601H159.75V53.9748H161.164V52.5601ZM163.711 52.5601H165.125V51.1455H163.711V52.5601ZM163.711 54.6821H162.296V56.0967H163.711V54.6821ZM166.151 54.6821H167.565V53.2675H166.151V54.6821ZM166.151 62.2681V63.6827H167.565V62.2681H166.151ZM163.711 62.2681V60.8534H162.296V62.2681H163.711ZM163.711 64.4431V65.8577H165.125V64.4431H163.711ZM161.164 64.4431V63.0284H159.75V64.4431H161.164ZM161.164 66.7242V68.1388H162.579V66.7242H161.164ZM148.539 66.7242H147.124V68.1388H148.539V66.7242ZM148.539 64.4431H149.953V63.0284H148.539V64.4431ZM146.045 64.4431H144.631V65.8577H146.045V64.4431ZM146.045 62.2681H147.46V60.8534H146.045V62.2681ZM148.539 62.2681H147.124V63.6827H148.539V62.2681ZM151.032 62.2681H152.447V60.8534H151.032V62.2681ZM151.032 64.4431H149.617V65.8577H151.032V64.4431ZM158.618 64.4431V65.8577H160.033V64.4431H158.618ZM158.618 62.2681V60.8534H157.203V62.2681H158.618ZM161.164 62.2681V63.6827H162.579V62.2681H161.164ZM161.164 54.7351H162.579V53.3205H161.164V54.7351ZM158.618 54.7351H157.203V56.1498H158.618V54.7351ZM158.618 52.5601H160.033V51.1455H158.618V52.5601ZM151.032 52.5601V51.1455H149.617V52.5601H151.032ZM151.032 54.7351V56.1498H152.447V54.7351H151.032ZM148.539 54.7351V53.3205H147.124V54.7351H148.539ZM167.318 27.3443H169.811V24.515H167.318V27.3443ZM168.397 25.9296V46.1943H171.226V25.9296H168.397ZM169.811 44.7797H167.318V47.6089H169.811V44.7797ZM165.903 46.1943V48.5284H168.733V46.1943H165.903ZM167.318 47.1138H164.772V49.9431H167.318V47.1138ZM166.186 48.5284V40.5711H163.357V48.5284H166.186ZM164.772 39.1565H156.443V41.9858H164.772V39.1565ZM157.858 40.5711V38.3961H155.028V40.5711H157.858ZM156.443 39.8107H164.772V36.9815H156.443V39.8107ZM166.186 38.3961V32.2955H163.357V38.3961H166.186ZM164.772 30.8809H156.443V33.7101H164.772V30.8809ZM157.858 32.2955V30.1205H155.028V32.2955H157.858ZM156.443 31.5351H164.772V28.7059H156.443V31.5351ZM166.186 30.1205V25.9296H163.357V30.1205H166.186ZM164.772 24.515H162.384V27.3443H164.772V24.515ZM163.799 25.9296V23.5425H160.97V25.9296H163.799ZM162.384 24.9571H167.318V22.1278H162.384V24.9571ZM165.903 23.5425V25.9296H168.733V23.5425H165.903ZM131.333 27.5742V25.187H128.504V27.5742H131.333ZM129.918 26.6016H151.191V23.7723H129.918V26.6016ZM149.776 25.187V27.415H152.606V25.187H149.776ZM151.191 28.8297H153.578V26.0004H151.191V28.8297ZM152.164 27.415V42.0565H154.993V27.415H152.164ZM153.578 40.6418H151.085V43.4711H153.578V40.6418ZM149.67 42.0565V44.2845H152.5V42.0565H149.67ZM151.085 42.8699H134.799V45.6992H151.085V42.8699ZM136.214 44.2845V42.0565H133.384V44.2845H136.214ZM134.799 40.6418H132.306V43.4711H134.799V40.6418ZM133.72 42.0565V27.5742H130.891V42.0565H133.72ZM132.306 26.1595H129.918V28.9888H132.306V26.1595ZM137.292 43.4711H148.592V40.6418H137.292V43.4711ZM150.006 42.0565V27.415H147.177V42.0565H150.006ZM148.592 26.0004H137.292V28.8297H148.592V26.0004ZM135.878 27.415V42.0565H138.707V27.415H135.878ZM144.967 62.2681V54.6821H142.137V62.2681H144.967ZM143.552 56.0967H146.045V53.2675H143.552V56.0967ZM147.46 54.6821V52.5601H144.631V54.6821H147.46ZM146.045 53.9748H148.539V51.1455H146.045V53.9748ZM149.953 52.5601V50.279H147.124V52.5601H149.953ZM148.539 51.6937H161.164V48.8644H148.539V51.6937ZM159.75 50.279V52.5601H162.579V50.279H159.75ZM161.164 53.9748H163.711V51.1455H161.164V53.9748ZM162.296 52.5601V54.6821H165.125V52.5601H162.296ZM163.711 56.0967H166.151V53.2675H163.711V56.0967ZM164.736 54.6821V62.2681H167.565V54.6821H164.736ZM166.151 60.8534H163.711V63.6827H166.151V60.8534ZM162.296 62.2681V64.4431H165.125V62.2681H162.296ZM163.711 63.0284H161.164V65.8577H163.711V63.0284ZM159.75 64.4431V66.7242H162.579V64.4431H159.75ZM161.164 65.3095H148.539V68.1388H161.164V65.3095ZM149.953 66.7242V64.4431H147.124V66.7242H149.953ZM148.539 63.0284H146.045V65.8577H148.539V63.0284ZM147.46 64.4431V62.2681H144.631V64.4431H147.46ZM146.045 60.8534H143.552V63.6827H146.045V60.8534ZM148.539 63.6827H151.032V60.8534H148.539V63.6827ZM149.617 62.2681V64.4431H152.447V62.2681H149.617ZM151.032 65.8577H158.618V63.0284H151.032V65.8577ZM160.033 64.4431V62.2681H157.203V64.4431H160.033ZM158.618 63.6827H161.164V60.8534H158.618V63.6827ZM162.579 62.2681V54.7351H159.75V62.2681H162.579ZM161.164 53.3205H158.618V56.1498H161.164V53.3205ZM160.033 54.7351V52.5601H157.203V54.7351H160.033ZM158.618 51.1455H151.032V53.9748H158.618V51.1455ZM149.617 52.5601V54.7351H152.447V52.5601H149.617ZM151.032 53.3205H148.539V56.1498H151.032V53.3205ZM147.124 54.7351V62.2681H149.953V54.7351H147.124Z" fill="#FB873F" mask="url(#path-4-outside-1_10928_27912)"/>
<mask id="path-6-outside-2_10928_27912" maskUnits="userSpaceOnUse" x="13.1951" y="16.3169" width="159" height="47" fill="black">
<rect fill="white" x="13.1951" y="16.3169" width="159" height="47"/>
<path d="M15.0708 59.4388V56.9456H25.6806V27.6626H23.1873V30.262H20.5348V32.9145H15.4421V30.262H18.0946V27.6096H20.5879V25.0632H22.9751V22.623H25.6806V20.1827H30.7732V56.9456H39.3671V59.4388H15.0708ZM76.6948 44.1077H78.9759V54.5584H76.4826V56.9986H74.0424V59.4388H57.1729V56.9986H54.7326V54.5584H52.2393V44.1077H54.5204V41.7206H56.9607V39.2803H59.454V36.8401H56.6424V34.3998H53.8308V25.0102H56.3241V22.623H58.9235V20.1827H72.2918V22.623H74.8912V25.0102H77.3845V34.3998H74.5729V36.8401H71.7613V39.2803H74.2546V41.7206H76.6948V44.1077ZM57.332 54.5584H59.7192V56.9986H71.496V54.5584H73.8832V44.1608H71.496V41.7206H68.9497V39.2803H62.2656V41.7206H59.7192V44.1608H57.332V54.5584ZM58.9235 34.3998H62.0003V36.8401H69.2149V34.3998H72.2918V25.0632H69.7454V22.623H61.4698V25.0632H58.9235V34.3998ZM92.1134 59.4388V54.0279H94.5536V51.1632H96.9939V48.3517H99.4341V45.3279H101.874V42.4102H104.315V39.4925H106.755V36.5748H109.354V33.7632H112.113V25.0632H109.726V22.623H99.5932V25.0632H97.2061V33.8693H92.1134V25.0632H94.6067V22.623H97.0469V20.1827H112.272V22.623H114.712V25.0632H117.312V33.7632H114.924V36.8931H112.484V39.5456H110.15V42.4102H107.657V45.3809H105.269V48.3517H102.935V51.2163H100.495V54.0279H98.0548V56.8925H117.842V59.4388H92.1134ZM167.318 20.9785H169.811V41.2431H167.318V43.5773H164.772V35.6199H156.443V33.4449H164.772V27.3443H156.443V25.1693H164.772V20.9785H162.384V18.5913H167.318V20.9785ZM129.918 22.623V20.2358H151.191V22.4638H153.578V37.1053H151.085V39.3334H134.799V37.1053H132.306V22.623H129.918ZM137.292 37.1053H148.592V22.4638H137.292V37.1053ZM143.552 57.3169V49.7309H146.045V47.609H148.539V45.3279H161.164V47.609H163.711V49.7309H166.151V57.3169H163.711V59.4919H161.164V61.773H148.539V59.4919H146.045V57.3169H143.552ZM148.539 57.3169H151.032V59.4919H158.618V57.3169H161.164V49.784H158.618V47.609H151.032V49.784H148.539V57.3169Z"/>
</mask>
<path d="M15.0708 59.4388V56.9456H25.6806V27.6626H23.1873V30.262H20.5348V32.9145H15.4421V30.262H18.0946V27.6096H20.5879V25.0632H22.9751V22.623H25.6806V20.1827H30.7732V56.9456H39.3671V59.4388H15.0708ZM76.6948 44.1077H78.9759V54.5584H76.4826V56.9986H74.0424V59.4388H57.1729V56.9986H54.7326V54.5584H52.2393V44.1077H54.5204V41.7206H56.9607V39.2803H59.454V36.8401H56.6424V34.3998H53.8308V25.0102H56.3241V22.623H58.9235V20.1827H72.2918V22.623H74.8912V25.0102H77.3845V34.3998H74.5729V36.8401H71.7613V39.2803H74.2546V41.7206H76.6948V44.1077ZM57.332 54.5584H59.7192V56.9986H71.496V54.5584H73.8832V44.1608H71.496V41.7206H68.9497V39.2803H62.2656V41.7206H59.7192V44.1608H57.332V54.5584ZM58.9235 34.3998H62.0003V36.8401H69.2149V34.3998H72.2918V25.0632H69.7454V22.623H61.4698V25.0632H58.9235V34.3998ZM92.1134 59.4388V54.0279H94.5536V51.1632H96.9939V48.3517H99.4341V45.3279H101.874V42.4102H104.315V39.4925H106.755V36.5748H109.354V33.7632H112.113V25.0632H109.726V22.623H99.5932V25.0632H97.2061V33.8693H92.1134V25.0632H94.6067V22.623H97.0469V20.1827H112.272V22.623H114.712V25.0632H117.312V33.7632H114.924V36.8931H112.484V39.5456H110.15V42.4102H107.657V45.3809H105.269V48.3517H102.935V51.2163H100.495V54.0279H98.0548V56.8925H117.842V59.4388H92.1134ZM167.318 20.9785H169.811V41.2431H167.318V43.5773H164.772V35.6199H156.443V33.4449H164.772V27.3443H156.443V25.1693H164.772V20.9785H162.384V18.5913H167.318V20.9785ZM129.918 22.623V20.2358H151.191V22.4638H153.578V37.1053H151.085V39.3334H134.799V37.1053H132.306V22.623H129.918ZM137.292 37.1053H148.592V22.4638H137.292V37.1053ZM143.552 57.3169V49.7309H146.045V47.609H148.539V45.3279H161.164V47.609H163.711V49.7309H166.151V57.3169H163.711V59.4919H161.164V61.773H148.539V59.4919H146.045V57.3169H143.552ZM148.539 57.3169H151.032V59.4919H158.618V57.3169H161.164V49.784H158.618V47.609H151.032V49.784H148.539V57.3169Z" fill="#FFFBF6"/>
<path d="M15.0708 59.4388H13.6562V60.8535H15.0708V59.4388ZM15.0708 56.9456V55.5309H13.6562V56.9456H15.0708ZM25.6806 56.9456V58.3602H27.0952V56.9456H25.6806ZM25.6806 27.6626H27.0952V26.248H25.6806V27.6626ZM23.1873 27.6626V26.248H21.7726V27.6626H23.1873ZM23.1873 30.262V31.6766H24.6019V30.262H23.1873ZM20.5348 30.262V28.8474H19.1202V30.262H20.5348ZM20.5348 32.9145V34.3291H21.9495V32.9145H20.5348ZM15.4421 32.9145H14.0275V34.3291H15.4421V32.9145ZM15.4421 30.262V28.8474H14.0275V30.262H15.4421ZM18.0946 30.262V31.6766H19.5092V30.262H18.0946ZM18.0946 27.6096V26.1949H16.6799V27.6096H18.0946ZM20.5879 27.6096V29.0242H22.0025V27.6096H20.5879ZM20.5879 25.0632V23.6486H19.1732V25.0632H20.5879ZM22.9751 25.0632V26.4779H24.3897V25.0632H22.9751ZM22.9751 22.623V21.2084H21.5604V22.623H22.9751ZM25.6806 22.623V24.0376H27.0952V22.623H25.6806ZM25.6806 20.1827V18.7681H24.2659V20.1827H25.6806ZM30.7732 20.1827H32.1879V18.7681H30.7732V20.1827ZM30.7732 56.9456H29.3586V58.3602H30.7732V56.9456ZM39.3671 56.9456H40.7818V55.5309H39.3671V56.9456ZM39.3671 59.4388V60.8535H40.7818V59.4388H39.3671ZM16.4854 59.4388V56.9456H13.6562V59.4388H16.4854ZM15.0708 58.3602H25.6806V55.5309H15.0708V58.3602ZM27.0952 56.9456V27.6626H24.2659V56.9456H27.0952ZM25.6806 26.248H23.1873V29.0773H25.6806V26.248ZM21.7726 27.6626V30.262H24.6019V27.6626H21.7726ZM23.1873 28.8474H20.5348V31.6766H23.1873V28.8474ZM19.1202 30.262V32.9145H21.9495V30.262H19.1202ZM20.5348 31.4998H15.4421V34.3291H20.5348V31.4998ZM16.8568 32.9145V30.262H14.0275V32.9145H16.8568ZM15.4421 31.6766H18.0946V28.8474H15.4421V31.6766ZM19.5092 30.262V27.6096H16.6799V30.262H19.5092ZM18.0946 29.0242H20.5879V26.1949H18.0946V29.0242ZM22.0025 27.6096V25.0632H19.1732V27.6096H22.0025ZM20.5879 26.4779H22.9751V23.6486H20.5879V26.4779ZM24.3897 25.0632V22.623H21.5604V25.0632H24.3897ZM22.9751 24.0376H25.6806V21.2084H22.9751V24.0376ZM27.0952 22.623V20.1827H24.2659V22.623H27.0952ZM25.6806 21.5974H30.7732V18.7681H25.6806V21.5974ZM29.3586 20.1827V56.9456H32.1879V20.1827H29.3586ZM30.7732 58.3602H39.3671V55.5309H30.7732V58.3602ZM37.9525 56.9456V59.4388H40.7818V56.9456H37.9525ZM39.3671 58.0242H15.0708V60.8535H39.3671V58.0242ZM76.6948 44.1077H75.2802V45.5224H76.6948V44.1077ZM78.9759 44.1077H80.3906V42.6931H78.9759V44.1077ZM78.9759 54.5584V55.973H80.3906V54.5584H78.9759ZM76.4826 54.5584V53.1437H75.068V54.5584H76.4826ZM76.4826 56.9986V58.4132H77.8973V56.9986H76.4826ZM74.0424 56.9986V55.584H72.6278V56.9986H74.0424ZM74.0424 59.4388V60.8535H75.457V59.4388H74.0424ZM57.1729 59.4388H55.7582V60.8535H57.1729V59.4388ZM57.1729 56.9986H58.5875V55.584H57.1729V56.9986ZM54.7326 56.9986H53.318V58.4132H54.7326V56.9986ZM54.7326 54.5584H56.1473V53.1437H54.7326V54.5584ZM52.2393 54.5584H50.8247V55.973H52.2393V54.5584ZM52.2393 44.1077V42.6931H50.8247V44.1077H52.2393ZM54.5204 44.1077V45.5224H55.9351V44.1077H54.5204ZM54.5204 41.7206V40.3059H53.1058V41.7206H54.5204ZM56.9607 41.7206V43.1352H58.3753V41.7206H56.9607ZM56.9607 39.2803V37.8657H55.546V39.2803H56.9607ZM59.454 39.2803V40.6949H60.8686V39.2803H59.454ZM59.454 36.8401H60.8686V35.4254H59.454V36.8401ZM56.6424 36.8401H55.2278V38.2547H56.6424V36.8401ZM56.6424 34.3998H58.057V32.9852H56.6424V34.3998ZM53.8308 34.3998H52.4162V35.8145H53.8308V34.3998ZM53.8308 25.0102V23.5956H52.4162V25.0102H53.8308ZM56.3241 25.0102V26.4248H57.7387V25.0102H56.3241ZM56.3241 22.623V21.2084H54.9095V22.623H56.3241ZM58.9235 22.623V24.0376H60.3381V22.623H58.9235ZM58.9235 20.1827V18.7681H57.5089V20.1827H58.9235ZM72.2918 20.1827H73.7064V18.7681H72.2918V20.1827ZM72.2918 22.623H70.8771V24.0376H72.2918V22.623ZM74.8912 22.623H76.3058V21.2084H74.8912V22.623ZM74.8912 25.0102H73.4765V26.4248H74.8912V25.0102ZM77.3845 25.0102H78.7991V23.5956H77.3845V25.0102ZM77.3845 34.3998V35.8145H78.7991V34.3998H77.3845ZM74.5729 34.3998V32.9852H73.1582V34.3998H74.5729ZM74.5729 36.8401V38.2547H75.9875V36.8401H74.5729ZM71.7613 36.8401V35.4254H70.3467V36.8401H71.7613ZM71.7613 39.2803H70.3467V40.6949H71.7613V39.2803ZM74.2546 39.2803H75.6692V37.8657H74.2546V39.2803ZM74.2546 41.7206H72.84V43.1352H74.2546V41.7206ZM76.6948 41.7206H78.1095V40.3059H76.6948V41.7206ZM57.332 54.5584H55.9174V55.973H57.332V54.5584ZM59.7192 54.5584H61.1339V53.1437H59.7192V54.5584ZM59.7192 56.9986H58.3046V58.4132H59.7192V56.9986ZM71.496 56.9986V58.4132H72.9107V56.9986H71.496ZM71.496 54.5584V53.1437H70.0814V54.5584H71.496ZM73.8832 54.5584V55.973H75.2979V54.5584H73.8832ZM73.8832 44.1608H75.2979V42.7462H73.8832V44.1608ZM71.496 44.1608H70.0814V45.5754H71.496V44.1608ZM71.496 41.7206H72.9107V40.3059H71.496V41.7206ZM68.9497 41.7206H67.5351V43.1352H68.9497V41.7206ZM68.9497 39.2803H70.3643V37.8657H68.9497V39.2803ZM62.2656 39.2803V37.8657H60.8509V39.2803H62.2656ZM62.2656 41.7206V43.1352H63.6802V41.7206H62.2656ZM59.7192 41.7206V40.3059H58.3046V41.7206H59.7192ZM59.7192 44.1608V45.5754H61.1339V44.1608H59.7192ZM57.332 44.1608V42.7462H55.9174V44.1608H57.332ZM58.9235 34.3998H57.5089V35.8145H58.9235V34.3998ZM62.0003 34.3998H63.4149V32.9852H62.0003V34.3998ZM62.0003 36.8401H60.5857V38.2547H62.0003V36.8401ZM69.215 36.8401V38.2547H70.6296V36.8401H69.215ZM69.215 34.3998V32.9852H67.8003V34.3998H69.215ZM72.2918 34.3998V35.8145H73.7064V34.3998H72.2918ZM72.2918 25.0632H73.7064V23.6486H72.2918V25.0632ZM69.7454 25.0632H68.3308V26.4779H69.7454V25.0632ZM69.7454 22.623H71.1601V21.2084H69.7454V22.623ZM61.4698 22.623V21.2084H60.0552V22.623H61.4698ZM61.4698 25.0632V26.4779H62.8845V25.0632H61.4698ZM58.9235 25.0632V23.6486H57.5089V25.0632H58.9235ZM76.6948 45.5224H78.9759V42.6931H76.6948V45.5224ZM77.5613 44.1077V54.5584H80.3906V44.1077H77.5613ZM78.9759 53.1437H76.4826V55.973H78.9759V53.1437ZM75.068 54.5584V56.9986H77.8973V54.5584H75.068ZM76.4826 55.584H74.0424V58.4132H76.4826V55.584ZM72.6278 56.9986V59.4388H75.457V56.9986H72.6278ZM74.0424 58.0242H57.1729V60.8535H74.0424V58.0242ZM58.5875 59.4388V56.9986H55.7582V59.4388H58.5875ZM57.1729 55.584H54.7326V58.4132H57.1729V55.584ZM56.1473 56.9986V54.5584H53.318V56.9986H56.1473ZM54.7326 53.1437H52.2393V55.973H54.7326V53.1437ZM53.654 54.5584V44.1077H50.8247V54.5584H53.654ZM52.2393 45.5224H54.5204V42.6931H52.2393V45.5224ZM55.9351 44.1077V41.7206H53.1058V44.1077H55.9351ZM54.5204 43.1352H56.9607V40.3059H54.5204V43.1352ZM58.3753 41.7206V39.2803H55.546V41.7206H58.3753ZM56.9607 40.6949H59.454V37.8657H56.9607V40.6949ZM60.8686 39.2803V36.8401H58.0393V39.2803H60.8686ZM59.454 35.4254H56.6424V38.2547H59.454V35.4254ZM58.057 36.8401V34.3998H55.2278V36.8401H58.057ZM56.6424 32.9852H53.8308V35.8145H56.6424V32.9852ZM55.2454 34.3998V25.0102H52.4162V34.3998H55.2454ZM53.8308 26.4248H56.3241V23.5956H53.8308V26.4248ZM57.7387 25.0102V22.623H54.9095V25.0102H57.7387ZM56.3241 24.0376H58.9235V21.2084H56.3241V24.0376ZM60.3381 22.623V20.1827H57.5089V22.623H60.3381ZM58.9235 21.5974H72.2918V18.7681H58.9235V21.5974ZM70.8771 20.1827V22.623H73.7064V20.1827H70.8771ZM72.2918 24.0376H74.8912V21.2084H72.2918V24.0376ZM73.4765 22.623V25.0102H76.3058V22.623H73.4765ZM74.8912 26.4248H77.3845V23.5956H74.8912V26.4248ZM75.9698 25.0102V34.3998H78.7991V25.0102H75.9698ZM77.3845 32.9852H74.5729V35.8145H77.3845V32.9852ZM73.1582 34.3998V36.8401H75.9875V34.3998H73.1582ZM74.5729 35.4254H71.7613V38.2547H74.5729V35.4254ZM70.3467 36.8401V39.2803H73.1759V36.8401H70.3467ZM71.7613 40.6949H74.2546V37.8657H71.7613V40.6949ZM72.84 39.2803V41.7206H75.6692V39.2803H72.84ZM74.2546 43.1352H76.6948V40.3059H74.2546V43.1352ZM75.2802 41.7206V44.1077H78.1095V41.7206H75.2802ZM57.332 55.973H59.7192V53.1437H57.332V55.973ZM58.3046 54.5584V56.9986H61.1339V54.5584H58.3046ZM59.7192 58.4132H71.496V55.584H59.7192V58.4132ZM72.9107 56.9986V54.5584H70.0814V56.9986H72.9107ZM71.496 55.973H73.8832V53.1437H71.496V55.973ZM75.2979 54.5584V44.1608H72.4686V54.5584H75.2979ZM73.8832 42.7462H71.496V45.5754H73.8832V42.7462ZM72.9107 44.1608V41.7206H70.0814V44.1608H72.9107ZM71.496 40.3059H68.9497V43.1352H71.496V40.3059ZM70.3643 41.7206V39.2803H67.5351V41.7206H70.3643ZM68.9497 37.8657H62.2656V40.6949H68.9497V37.8657ZM60.8509 39.2803V41.7206H63.6802V39.2803H60.8509ZM62.2656 40.3059H59.7192V43.1352H62.2656V40.3059ZM58.3046 41.7206V44.1608H61.1339V41.7206H58.3046ZM59.7192 42.7462H57.332V45.5754H59.7192V42.7462ZM55.9174 44.1608V54.5584H58.7467V44.1608H55.9174ZM58.9235 35.8145H62.0003V32.9852H58.9235V35.8145ZM60.5857 34.3998V36.8401H63.4149V34.3998H60.5857ZM62.0003 38.2547H69.215V35.4254H62.0003V38.2547ZM70.6296 36.8401V34.3998H67.8003V36.8401H70.6296ZM69.215 35.8145H72.2918V32.9852H69.215V35.8145ZM73.7064 34.3998V25.0632H70.8771V34.3998H73.7064ZM72.2918 23.6486H69.7454V26.4779H72.2918V23.6486ZM71.1601 25.0632V22.623H68.3308V25.0632H71.1601ZM69.7454 21.2084H61.4698V24.0376H69.7454V21.2084ZM60.0552 22.623V25.0632H62.8845V22.623H60.0552ZM61.4698 23.6486H58.9235V26.4779H61.4698V23.6486ZM57.5089 25.0632V34.3998H60.3381V25.0632H57.5089ZM92.1134 59.4388H90.6987V60.8535H92.1134V59.4388ZM92.1134 54.0279V52.6132H90.6987V54.0279H92.1134ZM94.5536 54.0279V55.4425H95.9682V54.0279H94.5536ZM94.5536 51.1632V49.7486H93.139V51.1632H94.5536ZM96.9939 51.1632V52.5779H98.4085V51.1632H96.9939ZM96.9939 48.3517V46.937H95.5792V48.3517H96.9939ZM99.4341 48.3517V49.7663H100.849V48.3517H99.4341ZM99.4341 45.3279V43.9132H98.0195V45.3279H99.4341ZM101.874 45.3279V46.7425H103.289V45.3279H101.874ZM101.874 42.4102V40.9956H100.46V42.4102H101.874ZM104.315 42.4102V43.8248H105.729V42.4102H104.315ZM104.315 39.4925V38.0779H102.9V39.4925H104.315ZM106.755 39.4925V40.9071H108.169V39.4925H106.755ZM106.755 36.5748V35.1602H105.34V36.5748H106.755ZM109.354 36.5748V37.9895H110.769V36.5748H109.354ZM109.354 33.7632V32.3486H107.94V33.7632H109.354ZM112.113 33.7632V35.1779H113.527V33.7632H112.113ZM112.113 25.0632H113.527V23.6486H112.113V25.0632ZM109.726 25.0632H108.311V26.4779H109.726V25.0632ZM109.726 22.623H111.14V21.2084H109.726V22.623ZM99.5932 22.623V21.2084H98.1786V22.623H99.5932ZM99.5932 25.0632V26.4779H101.008V25.0632H99.5932ZM97.2061 25.0632V23.6486H95.7914V25.0632H97.2061ZM97.2061 33.8693V35.284H98.6207V33.8693H97.2061ZM92.1134 33.8693H90.6987V35.284H92.1134V33.8693ZM92.1134 25.0632V23.6486H90.6987V25.0632H92.1134ZM94.6067 25.0632V26.4779H96.0213V25.0632H94.6067ZM94.6067 22.623V21.2084H93.192V22.623H94.6067ZM97.0469 22.623V24.0376H98.4615V22.623H97.0469ZM97.0469 20.1827V18.7681H95.6323V20.1827H97.0469ZM112.272 20.1827H113.687V18.7681H112.272V20.1827ZM112.272 22.623H110.857V24.0376H112.272V22.623ZM114.712 22.623H116.127V21.2084H114.712V22.623ZM114.712 25.0632H113.298V26.4779H114.712V25.0632ZM117.312 25.0632H118.726V23.6486H117.312V25.0632ZM117.312 33.7632V35.1779H118.726V33.7632H117.312ZM114.924 33.7632V32.3486H113.51V33.7632H114.924ZM114.924 36.8931V38.3077H116.339V36.8931H114.924ZM112.484 36.8931V35.4785H111.069V36.8931H112.484ZM112.484 39.5456V40.9602H113.899V39.5456H112.484ZM110.15 39.5456V38.1309H108.735V39.5456H110.15ZM110.15 42.4102V43.8248H111.565V42.4102H110.15ZM107.657 42.4102V40.9956H106.242V42.4102H107.657ZM107.657 45.3809V46.7956H109.071V45.3809H107.657ZM105.269 45.3809V43.9663H103.855V45.3809H105.269ZM105.269 48.3517V49.7663H106.684V48.3517H105.269ZM102.935 48.3517V46.937H101.521V48.3517H102.935ZM102.935 51.2163V52.6309H104.35V51.2163H102.935ZM100.495 51.2163V49.8017H99.0804V51.2163H100.495ZM100.495 54.0279V55.4425H101.91V54.0279H100.495ZM98.0548 54.0279V52.6132H96.6402V54.0279H98.0548ZM98.0548 56.8925H96.6402V58.3071H98.0548V56.8925ZM117.842 56.8925H119.257V55.4779H117.842V56.8925ZM117.842 59.4388V60.8535H119.257V59.4388H117.842ZM93.528 59.4388V54.0279H90.6987V59.4388H93.528ZM92.1134 55.4425H94.5536V52.6132H92.1134V55.4425ZM95.9682 54.0279V51.1632H93.139V54.0279H95.9682ZM94.5536 52.5779H96.9939V49.7486H94.5536V52.5779ZM98.4085 51.1632V48.3517H95.5792V51.1632H98.4085ZM96.9939 49.7663H99.4341V46.937H96.9939V49.7663ZM100.849 48.3517V45.3279H98.0195V48.3517H100.849ZM99.4341 46.7425H101.874V43.9132H99.4341V46.7425ZM103.289 45.3279V42.4102H100.46V45.3279H103.289ZM101.874 43.8248H104.315V40.9956H101.874V43.8248ZM105.729 42.4102V39.4925H102.9V42.4102H105.729ZM104.315 40.9071H106.755V38.0779H104.315V40.9071ZM108.169 39.4925V36.5748H105.34V39.4925H108.169ZM106.755 37.9895H109.354V35.1602H106.755V37.9895ZM110.769 36.5748V33.7632H107.94V36.5748H110.769ZM109.354 35.1779H112.113V32.3486H109.354V35.1779ZM113.527 33.7632V25.0632H110.698V33.7632H113.527ZM112.113 23.6486H109.726V26.4779H112.113V23.6486ZM111.14 25.0632V22.623H108.311V25.0632H111.14ZM109.726 21.2084H99.5932V24.0376H109.726V21.2084ZM98.1786 22.623V25.0632H101.008V22.623H98.1786ZM99.5932 23.6486H97.2061V26.4779H99.5932V23.6486ZM95.7914 25.0632V33.8693H98.6207V25.0632H95.7914ZM97.2061 32.4547H92.1134V35.284H97.2061V32.4547ZM93.528 33.8693V25.0632H90.6987V33.8693H93.528ZM92.1134 26.4779H94.6067V23.6486H92.1134V26.4779ZM96.0213 25.0632V22.623H93.192V25.0632H96.0213ZM94.6067 24.0376H97.0469V21.2084H94.6067V24.0376ZM98.4615 22.623V20.1827H95.6323V22.623H98.4615ZM97.0469 21.5974H112.272V18.7681H97.0469V21.5974ZM110.857 20.1827V22.623H113.687V20.1827H110.857ZM112.272 24.0376H114.712V21.2084H112.272V24.0376ZM113.298 22.623V25.0632H116.127V22.623H113.298ZM114.712 26.4779H117.312V23.6486H114.712V26.4779ZM115.897 25.0632V33.7632H118.726V25.0632H115.897ZM117.312 32.3486H114.924V35.1779H117.312V32.3486ZM113.51 33.7632V36.8931H116.339V33.7632H113.51ZM114.924 35.4785H112.484V38.3077H114.924V35.4785ZM111.069 36.8931V39.5456H113.899V36.8931H111.069ZM112.484 38.1309H110.15V40.9602H112.484V38.1309ZM108.735 39.5456V42.4102H111.565V39.5456H108.735ZM110.15 40.9956H107.657V43.8248H110.15V40.9956ZM106.242 42.4102V45.3809H109.071V42.4102H106.242ZM107.657 43.9663H105.269V46.7956H107.657V43.9663ZM103.855 45.3809V48.3517H106.684V45.3809H103.855ZM105.269 46.937H102.935V49.7663H105.269V46.937ZM101.521 48.3517V51.2163H104.35V48.3517H101.521ZM102.935 49.8017H100.495V52.6309H102.935V49.8017ZM99.0804 51.2163V54.0279H101.91V51.2163H99.0804ZM100.495 52.6132H98.0548V55.4425H100.495V52.6132ZM96.6402 54.0279V56.8925H99.4695V54.0279H96.6402ZM98.0548 58.3071H117.842V55.4779H98.0548V58.3071ZM116.427 56.8925V59.4388H119.257V56.8925H116.427ZM117.842 58.0242H92.1134V60.8535H117.842V58.0242ZM167.318 20.9785H165.903V22.3931H167.318V20.9785ZM169.811 20.9785H171.226V19.5638H169.811V20.9785ZM169.811 41.2431V42.6577H171.226V41.2431H169.811ZM167.318 41.2431V39.8285H165.903V41.2431H167.318ZM167.318 43.5773V44.9919H168.733V43.5773H167.318ZM164.772 43.5773H163.357V44.9919H164.772V43.5773ZM164.772 35.6199H166.186V34.2053H164.772V35.6199ZM156.443 35.6199H155.028V37.0346H156.443V35.6199ZM156.443 33.4449V32.0303H155.028V33.4449H156.443ZM164.772 33.4449V34.8596H166.186V33.4449H164.772ZM164.772 27.3443H166.186V25.9297H164.772V27.3443ZM156.443 27.3443H155.028V28.759H156.443V27.3443ZM156.443 25.1693V23.7547H155.028V25.1693H156.443ZM164.772 25.1693V26.584H166.186V25.1693H164.772ZM164.772 20.9785H166.186V19.5638H164.772V20.9785ZM162.384 20.9785H160.97V22.3931H162.384V20.9785ZM162.384 18.5913V17.1767H160.97V18.5913H162.384ZM167.318 18.5913H168.733V17.1767H167.318V18.5913ZM129.918 22.623H128.504V24.0376H129.918V22.623ZM129.918 20.2358V18.8212H128.504V20.2358H129.918ZM151.191 20.2358H152.606V18.8212H151.191V20.2358ZM151.191 22.4638H149.776V23.8785H151.191V22.4638ZM153.578 22.4638H154.993V21.0492H153.578V22.4638ZM153.578 37.1053V38.5199H154.993V37.1053H153.578ZM151.085 37.1053V35.6907H149.67V37.1053H151.085ZM151.085 39.3334V40.748H152.5V39.3334H151.085ZM134.799 39.3334H133.384V40.748H134.799V39.3334ZM134.799 37.1053H136.214V35.6907H134.799V37.1053ZM132.306 37.1053H130.891V38.5199H132.306V37.1053ZM132.306 22.623H133.72V21.2084H132.306V22.623ZM137.292 37.1053H135.878V38.5199H137.292V37.1053ZM148.592 37.1053V38.5199H150.006V37.1053H148.592ZM148.592 22.4638H150.006V21.0492H148.592V22.4638ZM137.292 22.4638V21.0492H135.878V22.4638H137.292ZM143.552 57.3169H142.137V58.7315H143.552V57.3169ZM143.552 49.7309V48.3163H142.137V49.7309H143.552ZM146.045 49.7309V51.1456H147.46V49.7309H146.045ZM146.045 47.609V46.1943H144.631V47.609H146.045ZM148.539 47.609V49.0236H149.953V47.609H148.539ZM148.539 45.3279V43.9132H147.124V45.3279H148.539ZM161.164 45.3279H162.579V43.9132H161.164V45.3279ZM161.164 47.609H159.75V49.0236H161.164V47.609ZM163.711 47.609H165.125V46.1943H163.711V47.609ZM163.711 49.7309H162.296V51.1456H163.711V49.7309ZM166.151 49.7309H167.565V48.3163H166.151V49.7309ZM166.151 57.3169V58.7315H167.565V57.3169H166.151ZM163.711 57.3169V55.9023H162.296V57.3169H163.711ZM163.711 59.4919V60.9065H165.125V59.4919H163.711ZM161.164 59.4919V58.0773H159.75V59.4919H161.164ZM161.164 61.773V63.1876H162.579V61.773H161.164ZM148.539 61.773H147.124V63.1876H148.539V61.773ZM148.539 59.4919H149.953V58.0773H148.539V59.4919ZM146.045 59.4919H144.631V60.9065H146.045V59.4919ZM146.045 57.3169H147.46V55.9023H146.045V57.3169ZM148.539 57.3169H147.124V58.7315H148.539V57.3169ZM151.032 57.3169H152.447V55.9023H151.032V57.3169ZM151.032 59.4919H149.617V60.9065H151.032V59.4919ZM158.618 59.4919V60.9065H160.033V59.4919H158.618ZM158.618 57.3169V55.9023H157.203V57.3169H158.618ZM161.164 57.3169V58.7315H162.579V57.3169H161.164ZM161.164 49.784H162.579V48.3693H161.164V49.784ZM158.618 49.784H157.203V51.1986H158.618V49.784ZM158.618 47.609H160.033V46.1943H158.618V47.609ZM151.032 47.609V46.1943H149.617V47.609H151.032ZM151.032 49.784V51.1986H152.447V49.784H151.032ZM148.539 49.784V48.3693H147.124V49.784H148.539ZM167.318 22.3931H169.811V19.5638H167.318V22.3931ZM168.397 20.9785V41.2431H171.226V20.9785H168.397ZM169.811 39.8285H167.318V42.6577H169.811V39.8285ZM165.903 41.2431V43.5773H168.733V41.2431H165.903ZM167.318 42.1626H164.772V44.9919H167.318V42.1626ZM166.186 43.5773V35.6199H163.357V43.5773H166.186ZM164.772 34.2053H156.443V37.0346H164.772V34.2053ZM157.858 35.6199V33.4449H155.028V35.6199H157.858ZM156.443 34.8596H164.772V32.0303H156.443V34.8596ZM166.186 33.4449V27.3443H163.357V33.4449H166.186ZM164.772 25.9297H156.443V28.759H164.772V25.9297ZM157.858 27.3443V25.1693H155.028V27.3443H157.858ZM156.443 26.584H164.772V23.7547H156.443V26.584ZM166.186 25.1693V20.9785H163.357V25.1693H166.186ZM164.772 19.5638H162.384V22.3931H164.772V19.5638ZM163.799 20.9785V18.5913H160.97V20.9785H163.799ZM162.384 20.0059H167.318V17.1767H162.384V20.0059ZM165.903 18.5913V20.9785H168.733V18.5913H165.903ZM131.333 22.623V20.2358H128.504V22.623H131.333ZM129.918 21.6504H151.191V18.8212H129.918V21.6504ZM149.776 20.2358V22.4638H152.606V20.2358H149.776ZM151.191 23.8785H153.578V21.0492H151.191V23.8785ZM152.164 22.4638V37.1053H154.993V22.4638H152.164ZM153.578 35.6907H151.085V38.5199H153.578V35.6907ZM149.67 37.1053V39.3334H152.5V37.1053H149.67ZM151.085 37.9187H134.799V40.748H151.085V37.9187ZM136.214 39.3334V37.1053H133.384V39.3334H136.214ZM134.799 35.6907H132.306V38.5199H134.799V35.6907ZM133.72 37.1053V22.623H130.891V37.1053H133.72ZM132.306 21.2084H129.918V24.0376H132.306V21.2084ZM137.292 38.5199H148.592V35.6907H137.292V38.5199ZM150.006 37.1053V22.4638H147.177V37.1053H150.006ZM148.592 21.0492H137.292V23.8785H148.592V21.0492ZM135.878 22.4638V37.1053H138.707V22.4638H135.878ZM144.967 57.3169V49.7309H142.137V57.3169H144.967ZM143.552 51.1456H146.045V48.3163H143.552V51.1456ZM147.46 49.7309V47.609H144.631V49.7309H147.46ZM146.045 49.0236H148.539V46.1943H146.045V49.0236ZM149.953 47.609V45.3279H147.124V47.609H149.953ZM148.539 46.7425H161.164V43.9132H148.539V46.7425ZM159.75 45.3279V47.609H162.579V45.3279H159.75ZM161.164 49.0236H163.711V46.1943H161.164V49.0236ZM162.296 47.609V49.7309H165.125V47.609H162.296ZM163.711 51.1456H166.151V48.3163H163.711V51.1456ZM164.736 49.7309V57.3169H167.565V49.7309H164.736ZM166.151 55.9023H163.711V58.7315H166.151V55.9023ZM162.296 57.3169V59.4919H165.125V57.3169H162.296ZM163.711 58.0773H161.164V60.9065H163.711V58.0773ZM159.75 59.4919V61.773H162.579V59.4919H159.75ZM161.164 60.3584H148.539V63.1876H161.164V60.3584ZM149.953 61.773V59.4919H147.124V61.773H149.953ZM148.539 58.0773H146.045V60.9065H148.539V58.0773ZM147.46 59.4919V57.3169H144.631V59.4919H147.46ZM146.045 55.9023H143.552V58.7315H146.045V55.9023ZM148.539 58.7315H151.032V55.9023H148.539V58.7315ZM149.617 57.3169V59.4919H152.447V57.3169H149.617ZM151.032 60.9065H158.618V58.0773H151.032V60.9065ZM160.033 59.4919V57.3169H157.203V59.4919H160.033ZM158.618 58.7315H161.164V55.9023H158.618V58.7315ZM162.579 57.3169V49.784H159.75V57.3169H162.579ZM161.164 48.3693H158.618V51.1986H161.164V48.3693ZM160.033 49.784V47.609H157.203V49.784H160.033ZM158.618 46.1943H151.032V49.0236H158.618V46.1943ZM149.617 47.609V49.784H152.447V47.609H149.617ZM151.032 48.3693H148.539V51.1986H151.032V48.3693ZM147.124 49.784V57.3169H149.953V49.784H147.124Z" fill="#FFFBF6" mask="url(#path-6-outside-2_10928_27912)"/>
<rect x="41.0244" y="84.2925" width="8.4878" height="36.7805" fill="#FFA000"/>
<rect x="135.805" y="84.2925" width="8.4878" height="36.7805" fill="#FFA000"/>
</svg>
