<svg xmlns="http://www.w3.org/2000/svg" width="222" height="31" viewBox="0 0 222 31" fill="none">
  <path d="M215.941 2.23419V0.608398H219.301V2.23419H220.999V27.6326H219.301V29.2223H217.567V2.23419H215.941ZM196.36 20.0095V12.0973H198.13V10.5799H207.668V3.60708H196.866V2.08967H209.511V3.57095H211.281V10.616H209.511V12.0973H199.936V20.0095H210.631V18.4921H213.882V20.1179H212.256V21.563H198.094V20.0095H196.36Z" fill="#1A1918" stroke="#1A1918" stroke-width="0.3"/>
  <path d="M186.409 10.0019H191.9V11.6276H186.409V19.6843H184.711V21.274H182.976V2.23419H181.351V0.608398H184.711V2.23419H186.409V10.0019ZM160.432 17.2276V15.6379H166.863V9.74895H165.201V8.12316H168.489V9.74895H170.115V15.6379H180.628V17.2276H160.432ZM162.239 3.20966V1.69226H176.835V3.1374H178.46V10.7967H176.835V12.4225H173.366V10.7967H175.064V3.20966H162.239ZM166.466 22.105V20.4792H169.898V22.105H171.849V27.8133H184.494V26.332H187.745V27.8133H186.156V29.4391H169.934V27.8133H168.128V22.105H166.466Z" fill="#1A1918" stroke="#1A1918" stroke-width="0.3"/>
  <path d="M140.706 2.23419H142.404V27.6326H140.706V29.2223H138.972V12.5309H134.781V26.1514H133.083V27.741H131.348V2.95676H129.723V1.33097H133.083V2.95676H134.781V10.9773H138.972V2.23419H137.346V0.608398H140.706V2.23419ZM115.741 20.0095V3.85998H117.511V2.34257H127.338V3.85998H119.281V10.5438H127.158V12.0612H119.281V20.0095H126.399V18.4921H129.65V20.1179H128.025V21.563H117.475V20.0095H115.741Z" fill="#1A1918" stroke="#1A1918" stroke-width="0.3"/>
  <path d="M111.281 8.08703V9.71282H105.79V16.0353H104.092V17.625H102.357V2.23419H100.732V0.608398H104.092V2.23419H105.79V8.08703H111.281ZM80.2467 15.4573V13.7231H82.306V12.0612H84.3654V10.4354H86.2802V8.84573H87.906V2.95676H86.2441V1.33097H89.7847V2.95676H91.5911V8.84573H93.2169V10.3631H95.2401V11.8805H97.2272V13.3979H98.6723V14.9153H95.6014V13.3979H93.6143V11.8805H91.5911V10.3631H87.906V12.0612H85.9912V13.7231H83.9318V15.4573H80.2467ZM88.7369 26.9823V21.8159H90.435V20.3708H92.133V18.8172H100.551V20.3708H102.285V21.8159H103.947V26.9823H102.285V28.4636H100.551V30.0171H92.133V28.4636H90.435V26.9823H88.7369ZM92.133 26.9823H93.8311V28.4636H98.8168V26.9823H100.551V21.8521H98.8168V20.3708H93.8311V21.8521H92.133V26.9823Z" fill="#1A1918" stroke="#1A1918" stroke-width="0.3"/>
  <path d="M59.5063 2.23419H61.2044V15.3128H59.5063V16.9024H57.7722V2.23419H56.1464V0.608398H59.5063V2.23419ZM34.9388 15.6379V13.9037H36.9982V12.2418H39.0575V10.616H41.0446V9.02638H42.8871V3.28192H35.9504V1.72839H52.8587V3.28192H46.4278V9.02638H48.2703V10.5438H50.3658V12.0612H52.3529V13.5786H53.798V15.096H50.7271V13.5786H48.74V12.0612H46.5V10.5438H42.8149V12.2418H40.6833V13.9037H38.624V15.6379H34.9388ZM40.5388 20.0095V18.3837H43.8626V20.0095H45.4523V22.5024H56.8328V18.5643H60.0844V28.0301H58.5309V29.5475H43.8626V27.9578H42.1646V20.0095H40.5388ZM45.4523 28.0301H56.8328V24.0198H45.4523V28.0301Z" fill="#1A1918" stroke="#1A1918" stroke-width="0.3"/>
  <path d="M4.82866 13.4342V3.71563H3.20287V2.08984H25.422V13.4342H23.724V15.0239H6.52671V13.4342H4.82866ZM0.999023 25.3928V23.8032H13.5718V18.7813H11.9099V17.1555H15.4866V18.7813H17.2208V23.8032H29.4684V25.3928H0.999023ZM8.33314 13.4342H21.9175V3.60725H8.33314V13.4342Z" fill="#1A1918" stroke="#1A1918" stroke-width="0.3"/>
</svg>