<svg width="40" height="41" viewBox="0 0 40 41" fill="none" xmlns="http://www.w3.org/2000/svg">
<g clip-path="url(#clip0_10340_28252)">
<circle cx="20" cy="20.5" r="20" fill="#E242BF"/>
<path d="M15 15.5H13V14.5H12V12.5H13V11.5H15V12.5H16V14.5H15V15.5Z" fill="#1A1918"/>
<path d="M13 19.5H14V22.5H13V23.5H10V22.5H9V19.5H10V18.5H13V19.5Z" fill="#1A1918"/>
<path d="M18 16.5H17V17.5H18V16.5Z" fill="#1A1918"/>
<path d="M24 23.5H23V24.5H24V23.5Z" fill="#1A1918"/>
<path d="M26 16.5H25V17.5H26V16.5Z" fill="#1A1918"/>
<path d="M17 15.5H16V16.5H17V15.5Z" fill="#1A1918"/>
<path d="M16 20.5H15V21.5H16V20.5Z" fill="#1A1918"/>
<path d="M24 22.5V19.5H23V18.5H22V17.5H19V18.5H18V19.5H17V22.5H18V23.5H19V24.5H22V23.5H23V22.5H24ZM19 22.5V19.5H22V22.5H19Z" fill="#1A1918"/>
<path d="M25 17.5H24V18.5H25V17.5Z" fill="#1A1918"/>
<path d="M25 24.5H24V25.5H25V24.5Z" fill="#1A1918"/>
<path d="M29 26.5H30V29.5H29V30.5H26V29.5H25V26.5H26V25.5H29V26.5Z" fill="#1A1918"/>
<path d="M30 13.5V15.5H29V16.5H27V15.5H26V13.5H27V12.5H29V13.5H30Z" fill="#1A1918"/>
</g>
<defs>
<clipPath id="clip0_10340_28252">
<rect width="40" height="40" fill="white" transform="translate(0 0.5)"/>
</clipPath>
</defs>
</svg>
