<svg width="91" height="73" viewBox="0 0 91 73" fill="none" xmlns="http://www.w3.org/2000/svg">
<path fill-rule="evenodd" clip-rule="evenodd" d="M12.7073 8.47168H43.401V10.9921H46.3936V16.0329H49.2277V55.0921H46.3936V57.6112H43.401V57.6385H43.214V60.2059H15.7575V57.6385H12.7073V55.0705H9.65739V11.0405H12.7073V8.47168ZM6.60485 16.178H9.65537V47.3659H6.60485V16.178ZM6.60282 25.351H3.5523V44.7976H6.60282V25.351ZM52.379 52.5699V44.6946H55.5273V32.0949H52.379V25.7954H49.2291V52.5699H52.379ZM18.807 60.2063V62.7748H40.1621V60.2063H18.807Z" fill="#D59F52"/>
<rect x="39.4629" y="22.0156" width="5.3549" height="11.3398" fill="#1A1918"/>
<rect x="41.9824" y="23.2771" width="2.83494" height="4.09492" fill="#FFFBF6"/>
<path d="M37.0121 0.59668H19.1436V3.1651H37.0121V0.59668Z" fill="#1A1918"/>
<path d="M40.0628 62.6505H18.7078V65.174H40.0628V62.6505Z" fill="#1A1918"/>
<path d="M15.5231 5.63658H12.6882V8.47153H15.657L15.5231 5.63658Z" fill="#1A1918"/>
<path d="M40.0628 5.73351H43.1136V8.47153H40.0628V5.73351Z" fill="#1A1918"/>
<path d="M37.0121 3.1651H40.0628V5.73351H37.0121V3.1651Z" fill="#1A1918"/>
<path d="M15.5231 3.1651H19.1436V5.73351L15.5231 5.63658V3.1651Z" fill="#1A1918"/>
<path d="M12.6882 8.47153H9.55558V10.9915H12.6882V8.47153Z" fill="#1A1918"/>
<path d="M43.1136 8.47153H46.1643V10.9915H43.1136V8.47153Z" fill="#1A1918"/>
<path d="M9.55558 10.9915H6.50486V16.0072H9.55558V10.9915Z" fill="#1A1918"/>
<path d="M6.50486 16.0072H3.45413V25.1801H6.50486V16.0072Z" fill="#1A1918"/>
<path d="M46.1643 10.9915H49.215V16.0314H46.1643V10.9915Z" fill="#1A1918"/>
<path d="M3.45413 25.1801H0.4034V44.6267H3.45413V25.1801Z" fill="#1A1918"/>
<path d="M52.3774 16.0314H49.215V25.9139H52.3774V16.0314Z" fill="#1A1918"/>
<path d="M9.55558 47.1951H6.50486V54.7756H9.55558V47.1951Z" fill="#1A1918"/>
<path d="M52.3774 44.6267H55.5273V52.2557H52.3774V44.6267Z" fill="#1A1918"/>
<path d="M52.3774 25.9139H55.5273V32.1515H52.3774V25.9139Z" fill="#1A1918"/>
<path d="M12.6063 54.7756H9.55558V57.4687H12.6063V54.7756Z" fill="#1A1918"/>
<path d="M6.50486 44.6267H3.45413V47.1951H6.50486V44.6267Z" fill="#1A1918"/>
<path d="M46.3925 55.0906H49.215V57.6106H46.3925V55.0906Z" fill="#1A1918"/>
<path d="M49.215 52.2557H52.3774V55.0906H49.215V52.2557Z" fill="#1A1918"/>
<path d="M15.5231 57.4687H12.6063V60.1305H15.5231V57.4687Z" fill="#1A1918"/>
<path d="M43.2426 57.6106H46.3925V60.1305H43.2426V57.6106Z" fill="#1A1918"/>
<path d="M18.7078 60.1305H15.5231V62.6505H18.7078V60.1305Z" fill="#1A1918"/>
<path d="M40.0628 60.1305H43.2426V62.6505H40.0628V60.1305Z" fill="#1A1918"/>
<path d="M58.3672 32.1515H55.5273V44.6267H58.3672V32.1515Z" fill="#1A1918"/>
<rect x="19.3047" y="22.0156" width="5.3549" height="11.3398" fill="#1A1918"/>
<rect x="21.8242" y="23.2771" width="2.83494" height="4.09492" fill="#FFFBF6"/>
<rect width="8.76993" height="2.28781" transform="matrix(-1 0 0 1 24.8086 65.5)" fill="#B17C31"/>
<rect width="7.55985" height="2.20496" transform="matrix(-1 0 0 1 44.1895 65.4858)" fill="#B17C31"/>
<rect width="8.81983" height="2.51995" transform="matrix(-1 0 0 1 37.2598 37.7673)" fill="#1A1918"/>
<rect width="8.81983" height="2.83494" transform="matrix(-1 0 0 1 24.6582 62.6492)" fill="#1A1918"/>
<rect width="8.50483" height="2.83494" transform="matrix(-1 0 0 1 24.6582 67.6899)" fill="#1A1918"/>
<rect width="8.18984" height="2.83494" transform="matrix(-1 0 0 1 44.8203 67.6899)" fill="#1A1918"/>
<path fill-rule="evenodd" clip-rule="evenodd" d="M37.0162 3.16748H19.1477V5.63944H15.5262V8.47439H19.1476V10.8695H34.837V8.47439H40.0957V5.63944H37.0162V3.16748ZM30.0429 10.8702H19.1475V13.4386H30.0429V10.8702Z" fill="#EBBA77"/>
<path fill-rule="evenodd" clip-rule="evenodd" d="M12.6906 8.47192H15.5255V22.6466H12.6906V8.47192ZM9.54048 10.9934H12.6904V47.1992H15.6605V49.7649H24.3753V52.3333H12.6904V52.3336H27.4248V54.902H12.607V54.7776H9.54048V47.1965H6.50888V16.0086H9.54048V10.9934ZM6.50686 25.1816H3.45634V44.6282H6.50686V25.1816ZM30.4774 54.9024V57.2987H40.0956V54.7783H43.2477V52.258H49.2325V55.093H46.3955V57.6132H43.2472V60.1336H40.0959V62.6512H18.6763V60.1336H15.5277V57.4709H12.6088V54.9024H30.4774ZM52.3809 52.2565V49.7365H43.246V52.2565H52.3809Z" fill="#B17C31"/>
<rect width="2.51995" height="7.87485" transform="matrix(-1 0 0 1 18.0449 62.6492)" fill="#1A1918"/>
<rect width="2.51995" height="7.55985" transform="matrix(-1 0 0 1 25.2891 62.9653)" fill="#1A1918"/>
<rect width="2.20496" height="7.87485" transform="matrix(-1 0 0 1 44.8203 62.6492)" fill="#1A1918"/>
<rect width="2.20496" height="7.55985" transform="matrix(-1 0 0 1 38.834 62.9653)" fill="#1A1918"/>
<rect width="8.18984" height="2.83494" transform="matrix(-1 0 0 1 44.8203 62.6492)" fill="#1A1918"/>
<rect x="18.043" y="33.9854" width="6.61487" height="2.83494" fill="#6A6967"/>
<rect x="39.4629" y="33.9854" width="6.61487" height="2.83494" fill="#6A6967"/>
<rect width="8.18984" height="2.83494" transform="matrix(-1 0 0 1 27.8066 48.4785)" fill="#1A1918"/>
<rect width="2.20496" height="7.87485" transform="matrix(-1 0 0 1 27.8066 43.4377)" fill="#1A1918"/>
<rect width="2.20496" height="7.55985" transform="matrix(-1 0 0 1 21.8223 43.7539)" fill="#1A1918"/>
<rect width="8.18984" height="2.83494" transform="matrix(-1 0 0 1 27.8066 43.4377)" fill="#1A1918"/>
<path d="M59.1143 67.9572L84.0957 63.5599L50.9576 45.9965L25.5602 47.9266L59.1143 67.9572Z" fill="#4E4C49"/>
<path d="M60.964 25.012L82.2686 35.734L81.8639 37.9163L60.5883 27.0384L60.964 25.012Z" fill="#6A6966"/>
<path d="M60.5812 27.0684L81.8568 37.9463L81.4811 39.9727L60.1766 29.2507L60.5812 27.0684Z" fill="#242321"/>
<path fill-rule="evenodd" clip-rule="evenodd" d="M84.784 34.041L84.3369 36.4524L88.712 38.6666L84.4925 61.4238L84.4933 61.4242L84.049 63.8203L84.0465 63.8189L62.952 67.3197L63.0111 67.3545L59.1139 67.9597L58.3492 67.5033L56.4921 66.407L56.5084 66.4044L25.5597 47.9291L25.6362 47.9222L51.0425 45.4869L55.3892 22.0434L58.9661 23.9537L59.4132 21.5424L84.784 34.041ZM32.0109 49.1115L53.225 47.0781L81.3848 62.3732L60.3411 65.7833L32.0109 49.1115ZM80.1378 59.0999L82.3151 60.2618L86.1472 39.5941L83.9457 38.5623L80.1378 59.0999ZM53.2317 44.7416L54.9424 45.6545L58.5469 26.2144L56.8339 25.3132L53.2317 44.7416ZM82.0795 35.722L78.6704 54.1086L57.8702 42.7692L61.1117 25.2869L82.0795 35.722ZM57.1437 46.6877L77.9718 57.8764L78.2792 56.2186L57.479 44.8792L57.1437 46.6877Z" fill="#242321"/>
<path d="M60.964 25.012L82.2716 35.7175L78.151 57.9416L56.9178 46.8347L60.964 25.012Z" fill="#8F8D89"/>
<path d="M71.6163 42.9221L67.9612 40.6511L68.3337 41.7824L68.8449 43.7361L68.1392 44.4019L67.1519 45.0156L70.8546 47.0299L71.6163 42.9221Z" fill="#FFFBF6"/>
<path d="M70.9664 40.146L69.6542 39.3716L69.4638 40.3985L70.776 41.173L70.9664 40.146Z" fill="#FFFBF6"/>
<path d="M86.2004 39.6361L80.0806 36.5247L76.2725 57.0636L82.3658 60.3172L86.2004 39.6361Z" fill="#8F8D89"/>
<path d="M61.3753 27.4806L56.8281 25.3098L53.2104 44.8217L57.7099 47.2493L61.3753 27.4806Z" fill="#8F8D89"/>
</svg>
