<svg width="127" height="89" viewBox="0 0 127 89" fill="none" xmlns="http://www.w3.org/2000/svg">
<path d="M116.367 81.5163V77.9721H10.6326V81.5163H116.367Z" fill="#DFDDDA"/>
<path d="M7.08837 77.9721H10.6326V74.4279H7.08837V77.9721Z" fill="#DFDDDA"/>
<path d="M3.54419 74.4279H7.08837V70.8837H3.54419V74.4279Z" fill="#DFDDDA"/>
<path d="M116.367 77.9721H119.912V74.4279H116.367V77.9721Z" fill="#DFDDDA"/>
<path d="M119.912 74.4279H123.456V70.8837H119.912V74.4279Z" fill="#DFDDDA"/>
<path d="M116.367 85.0605V81.5163H10.6326V85.0605H116.367Z" fill="#6A6967"/>
<path d="M7.08837 81.5163H10.6326V77.9721H7.08837V81.5163Z" fill="#6A6967"/>
<path d="M3.54419 77.9721H7.08837V74.4279H3.54419V77.9721Z" fill="#6A6967"/>
<path d="M116.367 81.5163H119.912V77.9721H116.367V81.5163Z" fill="#6A6967"/>
<path d="M119.912 77.9721H123.456V74.4279H119.912V77.9721Z" fill="#6A6967"/>
<path d="M116.367 88.6046V85.0605H10.6326L10.6326 88.6046H116.367Z" fill="#363532"/>
<path d="M127 36.6233H123.456V77.9721H127L127 36.6233Z" fill="#363532"/>
<path d="M3.61483e-06 36.6233H3.54419L3.54419 77.9721H0L3.61483e-06 36.6233Z" fill="#363532"/>
<path d="M119.912 36.6233H123.456V33.0791H119.912V36.6233Z" fill="#363532"/>
<path d="M119.912 81.5163H123.456V77.9721H119.912V81.5163Z" fill="#363532"/>
<path d="M7.08837 81.5163H3.54419L3.54419 77.9721H7.08837V81.5163Z" fill="#363532"/>
<path d="M116.367 85.0605H119.912V81.5163H116.367V85.0605Z" fill="#363532"/>
<path d="M10.6326 85.0605H7.08838L7.08837 81.5163H10.6326V85.0605Z" fill="#363532"/>
<path d="M3.54419 36.6233H7.08838V33.0791H3.54419L3.54419 36.6233Z" fill="#363532"/>
<path d="M10.6326 71.4744H14.1767V67.9302H10.6326V71.4744Z" fill="#363532"/>
<path d="M112.823 0V3.54419H14.1767V0H112.823Z" fill="#363532"/>
<path d="M10.6326 7.08837V3.54419H14.1767V7.08837H10.6326Z" fill="#363532"/>
<path d="M10.6326 7.08837V67.9302H7.08837V7.08837H10.6326Z" fill="#363532"/>
<path d="M116.367 7.08837V3.54419H112.823V7.08837H116.367Z" fill="#363532"/>
<path d="M116.367 67.9302H119.912V7.08837H116.367V67.9302Z" fill="#363532"/>
<path d="M112.823 71.4744V67.9302H116.367V71.4744H112.823Z" fill="#363532"/>
<path d="M112.823 71.4744H14.1767V75.0186H112.823V71.4744Z" fill="#363532"/>
<path d="M3.54419 36.6233H7.08838L7.08837 70.8837H3.54419L3.54419 36.6233Z" fill="#AAA9A6"/>
<path d="M123.456 36.6233H119.912V70.8837H123.456V36.6233Z" fill="#AAA9A6"/>
<path d="M7.08837 67.9302H10.6326V71.4744H7.08837V67.9302Z" fill="#AAA9A6"/>
<path d="M119.912 67.9302H116.367V71.4744H119.912V67.9302Z" fill="#AAA9A6"/>
<path d="M10.6326 75.0186H116.367V77.9721H10.6326V75.0186Z" fill="#AAA9A6"/>
<path d="M7.08837 71.4744H14.1767V75.0186H7.08837V71.4744Z" fill="#AAA9A6"/>
<path d="M119.912 71.4744H112.823V75.0186H119.912V71.4744Z" fill="#AAA9A6"/>
<path d="M112.823 44.893V41.3488L14.1767 41.3488V44.893L112.823 44.893Z" fill="#FFE37D"/>
<path d="M10.6326 41.3488H14.1767V37.8046H10.6326V41.3488Z" fill="#FFE37D"/>
<path d="M112.823 41.3488L116.367 41.3488V37.8046H112.823V41.3488Z" fill="#FFE37D"/>
<path d="M112.823 3.54419V7.08837H14.1767V3.54419H112.823Z" fill="#FFE37D"/>
<path d="M10.6326 7.08837H14.1767V10.6326H10.6326V7.08837Z" fill="#FFE37D"/>
<path d="M112.823 7.08837H116.367V10.6326H112.823V7.08837Z" fill="#FFE37D"/>
<path d="M10.6326 10.6326H14.1767V14.1767H10.6326V10.6326Z" fill="#FFA000"/>
<path d="M10.6326 37.8046H14.1767V34.2605H10.6326V37.8046Z" fill="#FFA000"/>
<path d="M116.367 10.6326H112.823V14.1767H116.367V10.6326Z" fill="#FFA000"/>
<path d="M116.367 37.8046H112.823V34.2605H116.367V37.8046Z" fill="#FFA000"/>
<path d="M14.1767 7.08837H17.7209V10.6326L14.1767 10.6326V7.08837Z" fill="#FFA000"/>
<path d="M14.1767 41.3488H17.7209V37.8046H14.1767V41.3488Z" fill="#FFA000"/>
<path d="M112.823 7.08837H109.279V10.6326L112.823 10.6326V7.08837Z" fill="#FFA000"/>
<path d="M112.823 41.3488L109.279 41.3488V37.8046H112.823V41.3488Z" fill="#FFA000"/>
<path d="M14.1767 14.1767H10.6326V34.2605H14.1767V37.8046H17.7209V41.3488H109.279V37.8046H112.823V34.2605H116.367V14.1767H112.823V10.6326L109.279 10.6326V7.08837H17.7209V10.6326L14.1767 10.6326V14.1767Z" fill="#FFC700"/>
<path d="M14.1767 41.3488H10.6326V67.9302H14.1767V71.4744H112.823V67.9302H116.367V41.3488L112.823 41.3488V44.893L14.1767 44.893V41.3488Z" fill="#FFA000"/>
</svg>
