<svg width="127" height="63" viewBox="0 0 127 63" fill="none" xmlns="http://www.w3.org/2000/svg">
<path d="M116.367 54.9349V51.3907L10.6326 51.3907V54.9349L116.367 54.9349Z" fill="#DFDDDA"/>
<path d="M7.08837 51.3907H10.6326V47.8465H7.08837V51.3907Z" fill="#DFDDDA"/>
<path d="M3.54419 47.8465H7.08837V44.3023H3.54419V47.8465Z" fill="#DFDDDA"/>
<path d="M116.367 51.3907L119.912 51.3907V47.8465H116.367V51.3907Z" fill="#DFDDDA"/>
<path d="M119.912 47.8465H123.456V44.3023H119.912V47.8465Z" fill="#DFDDDA"/>
<path d="M116.367 58.4791V54.9349L10.6326 54.9349V58.4791L116.367 58.4791Z" fill="#6A6967"/>
<path d="M7.08837 54.9349L10.6326 54.9349V51.3907H7.08837V54.9349Z" fill="#6A6967"/>
<path d="M3.54419 51.3907H7.08837V47.8465H3.54419V51.3907Z" fill="#6A6967"/>
<path d="M116.367 54.9349H119.912V51.3907L116.367 51.3907V54.9349Z" fill="#6A6967"/>
<path d="M119.912 51.3907H123.456V47.8465H119.912V51.3907Z" fill="#6A6967"/>
<path d="M116.367 62.0232V58.4791L10.6326 58.4791L10.6326 62.0233L116.367 62.0232Z" fill="#363532"/>
<path d="M127 10.0419H123.456V51.3907H127L127 10.0419Z" fill="#363532"/>
<path d="M3.61483e-06 10.0419H3.54419L3.54419 51.3907H0L3.61483e-06 10.0419Z" fill="#363532"/>
<path d="M119.912 10.0419H123.456V6.49767H119.912V10.0419Z" fill="#363532"/>
<path d="M119.912 54.9349H123.456V51.3907H119.912V54.9349Z" fill="#363532"/>
<path d="M7.08837 54.9349H3.54419L3.54419 51.3907H7.08837V54.9349Z" fill="#363532"/>
<path d="M116.367 58.4791H119.912V54.9349H116.367V58.4791Z" fill="#363532"/>
<path d="M10.6326 58.4791L7.08837 58.4791L7.08837 54.9349L10.6326 54.9349V58.4791Z" fill="#363532"/>
<path d="M3.54419 10.0419H7.08837V6.49767H3.54419L3.54419 10.0419Z" fill="#363532"/>
<path d="M10.6326 44.893H14.1767V41.3488H10.6326V44.893Z" fill="#363532"/>
<path d="M112.823 0V3.54419H14.1767V0H112.823Z" fill="#363532"/>
<path d="M10.6326 7.08837V3.54419H14.1767V7.08837H10.6326Z" fill="#363532"/>
<path d="M10.6326 7.08837V41.3488H7.08837V7.08837H10.6326Z" fill="#363532"/>
<path d="M116.367 7.08837V3.54419H112.823V7.08837H116.367Z" fill="#363532"/>
<path d="M116.367 41.3488H119.912V7.08837H116.367V41.3488Z" fill="#363532"/>
<path d="M112.823 44.893V41.3488H116.367V44.893H112.823Z" fill="#363532"/>
<path d="M112.823 44.893H14.1767V48.4372H112.823V44.893Z" fill="#363532"/>
<path d="M3.54419 10.0419H7.08837L7.08837 44.3023H3.54419L3.54419 10.0419Z" fill="#AAA9A6"/>
<path d="M123.456 10.0419H119.912V44.3023H123.456V10.0419Z" fill="#AAA9A6"/>
<path d="M7.08837 41.3488H10.6326V44.893H7.08837V41.3488Z" fill="#AAA9A6"/>
<path d="M119.912 41.3488H116.367V44.893H119.912V41.3488Z" fill="#AAA9A6"/>
<path d="M10.6326 48.4372H116.367V51.3907L10.6326 51.3907V48.4372Z" fill="#AAA9A6"/>
<path d="M7.08837 44.893H14.1767V48.4372H7.08837V44.893Z" fill="#AAA9A6"/>
<path d="M119.912 44.893H112.823V48.4372H119.912V44.893Z" fill="#AAA9A6"/>
<path d="M112.823 44.893V41.3488H14.1767V44.893H112.823Z" fill="#FF7BE2"/>
<path d="M10.6326 41.3488H14.1767V37.8046H10.6326V41.3488Z" fill="#FF7BE2"/>
<path d="M112.823 41.3488H116.367V37.8046H112.823V41.3488Z" fill="#FF7BE2"/>
<path d="M112.823 3.54419V7.08837H14.1767V3.54419H112.823Z" fill="#FF7BE2"/>
<path d="M10.6326 7.08837H14.1767V10.6326H10.6326V7.08837Z" fill="#FF7BE2"/>
<path d="M112.823 7.08837H116.367V10.6326H112.823V7.08837Z" fill="#FF7BE2"/>
<path d="M10.6326 10.6326H14.1767V14.1767H10.6326V10.6326Z" fill="#FFFCF4"/>
<path d="M10.6326 37.8046H14.1767V34.2605H10.6326V37.8046Z" fill="#FFFCF4"/>
<path d="M116.367 10.6326H112.823V14.1767H116.367V10.6326Z" fill="#FFFCF4"/>
<path d="M116.367 37.8046H112.823V34.2605H116.367V37.8046Z" fill="#FFFCF4"/>
<path d="M14.1767 7.08837H17.7209V10.6326L14.1767 10.6326V7.08837Z" fill="#FFFCF4"/>
<path d="M14.1767 41.3488H17.7209V37.8046H14.1767V41.3488Z" fill="#FFFCF4"/>
<path d="M112.823 7.08837H109.279V10.6326L112.823 10.6326V7.08837Z" fill="#FFFCF4"/>
<path d="M112.823 41.3488H109.279V37.8046H112.823V41.3488Z" fill="#FFFCF4"/>
<path d="M14.1767 14.1767H10.6326V34.2605H14.1767V37.8046H17.7209V41.3488H109.279V37.8046H112.823V34.2605H116.367V14.1767H112.823V10.6326L109.279 10.6326V7.08837H17.7209V10.6326L14.1767 10.6326V14.1767Z" fill="url(#paint0_linear_9732_22764)"/>
<defs>
<linearGradient id="paint0_linear_9732_22764" x1="63.5" y1="0" x2="63.5" y2="62.0233" gradientUnits="userSpaceOnUse">
<stop stop-color="#FF4D00"/>
<stop offset="1" stop-color="#FA4CD4"/>
</linearGradient>
</defs>
</svg>
