<svg width="127" height="73" viewBox="0 0 127 73" fill="none" xmlns="http://www.w3.org/2000/svg">
<path d="M116.367 65.5674V62.0232L10.6326 62.0233V65.5674L116.367 65.5674Z" fill="#DFDDDA"/>
<path d="M7.08837 62.0233H10.6326V58.4791H7.08837V62.0233Z" fill="#DFDDDA"/>
<path d="M3.54419 58.4791H7.08837V54.9349H3.54419V58.4791Z" fill="#DFDDDA"/>
<path d="M116.367 62.0232L119.912 62.0233V58.4791H116.367V62.0232Z" fill="#DFDDDA"/>
<path d="M119.912 58.4791H123.456V54.9349H119.912V58.4791Z" fill="#DFDDDA"/>
<path d="M116.367 69.1116V65.5674L10.6326 65.5674V69.1116L116.367 69.1116Z" fill="#6A6967"/>
<path d="M7.08837 65.5674L10.6326 65.5674V62.0233H7.08837V65.5674Z" fill="#6A6967"/>
<path d="M3.54419 62.0233H7.08837V58.4791H3.54419V62.0233Z" fill="#6A6967"/>
<path d="M116.367 65.5674H119.912V62.0233L116.367 62.0232V65.5674Z" fill="#6A6967"/>
<path d="M119.912 62.0233H123.456V58.4791H119.912V62.0233Z" fill="#6A6967"/>
<path d="M116.367 72.6558V69.1116L10.6326 69.1116L10.6326 72.6558L116.367 72.6558Z" fill="#363532"/>
<path d="M127 20.6744H123.456V62.0233H127L127 20.6744Z" fill="#363532"/>
<path d="M3.61483e-06 20.6744H3.54419L3.54419 62.0233H0L3.61483e-06 20.6744Z" fill="#363532"/>
<path d="M119.912 20.6744H123.456V17.1302H119.912V20.6744Z" fill="#363532"/>
<path d="M119.912 65.5674H123.456V62.0233H119.912V65.5674Z" fill="#363532"/>
<path d="M7.08837 65.5674H3.54419L3.54419 62.0233H7.08837V65.5674Z" fill="#363532"/>
<path d="M116.367 69.1116H119.912V65.5674H116.367V69.1116Z" fill="#363532"/>
<path d="M10.6326 69.1116L7.08838 69.1116L7.08837 65.5674L10.6326 65.5674V69.1116Z" fill="#363532"/>
<path d="M3.54419 20.6744H7.08838V17.1302H3.54419L3.54419 20.6744Z" fill="#363532"/>
<path d="M10.6326 55.5256H14.1767V51.9814H10.6326V55.5256Z" fill="#363532"/>
<path d="M112.823 0V3.54419H14.1767V0H112.823Z" fill="#363532"/>
<path d="M10.6326 7.08837V3.54419H14.1767V7.08837H10.6326Z" fill="#363532"/>
<path d="M10.6326 7.08837V51.9814H7.08837V7.08837H10.6326Z" fill="#363532"/>
<path d="M116.367 7.08837V3.54419H112.823V7.08837H116.367Z" fill="#363532"/>
<path d="M116.367 51.9814H119.912V7.08837H116.367V51.9814Z" fill="#363532"/>
<path d="M112.823 55.5256V51.9814H116.367V55.5256H112.823Z" fill="#363532"/>
<path d="M112.823 55.5256H14.1767V59.0698H112.823V55.5256Z" fill="#363532"/>
<path d="M3.54419 20.6744H7.08838L7.08837 54.9349H3.54419L3.54419 20.6744Z" fill="#AAA9A6"/>
<path d="M123.456 20.6744H119.912V54.9349H123.456V20.6744Z" fill="#AAA9A6"/>
<path d="M7.08837 51.9814H10.6326V55.5256H7.08837V51.9814Z" fill="#AAA9A6"/>
<path d="M119.912 51.9814H116.367V55.5256H119.912V51.9814Z" fill="#AAA9A6"/>
<path d="M10.6326 59.0698H116.367V62.0232L10.6326 62.0233V59.0698Z" fill="#AAA9A6"/>
<path d="M7.08837 55.5256H14.1767V59.0698H7.08837V55.5256Z" fill="#AAA9A6"/>
<path d="M119.912 55.5256H112.823V59.0698H119.912V55.5256Z" fill="#AAA9A6"/>
<path d="M112.823 44.893V41.3488L14.1767 41.3488V44.893L112.823 44.893Z" fill="#FFEBA3"/>
<path d="M10.6326 41.3488H14.1767V37.8046H10.6326V41.3488Z" fill="#FFEBA3"/>
<path d="M112.823 41.3488L116.367 41.3488V37.8046H112.823V41.3488Z" fill="#FFEBA3"/>
<path d="M112.823 3.54419V7.08837H14.1767V3.54419H112.823Z" fill="#FFEBA3"/>
<path d="M10.6326 7.08837H14.1767V10.6326H10.6326V7.08837Z" fill="#FFEBA3"/>
<path d="M112.823 7.08837H116.367V10.6326H112.823V7.08837Z" fill="#FFEBA3"/>
<path d="M10.6326 10.6326H14.1767V14.1767H10.6326V10.6326Z" fill="#FFA000"/>
<path d="M10.6326 37.8046H14.1767V34.2605H10.6326V37.8046Z" fill="#FFA000"/>
<path d="M116.367 10.6326H112.823V14.1767H116.367V10.6326Z" fill="#FFA000"/>
<path d="M116.367 37.8046H112.823V34.2605H116.367V37.8046Z" fill="#FFA000"/>
<path d="M14.1767 7.08837H17.7209V10.6326L14.1767 10.6326V7.08837Z" fill="#FFA000"/>
<path d="M14.1767 41.3488H17.7209V37.8046H14.1767V41.3488Z" fill="#FFA000"/>
<path d="M112.823 7.08837H109.279V10.6326L112.823 10.6326V7.08837Z" fill="#FFA000"/>
<path d="M112.823 41.3488L109.279 41.3488V37.8046H112.823V41.3488Z" fill="#FFA000"/>
<path d="M14.1767 14.1767H10.6326V34.2605H14.1767V37.8046H17.7209V41.3488H109.279V37.8046H112.823V34.2605H116.367V14.1767H112.823V10.6326L109.279 10.6326V7.08837H17.7209V10.6326L14.1767 10.6326V14.1767Z" fill="#FFC700"/>
<path d="M14.1767 41.3488H10.6326V51.9814H14.1767V55.5256H112.823V51.9814H116.367V41.3488L112.823 41.3488V44.893L14.1767 44.893V41.3488Z" fill="#FFA000"/>
</svg>
