<svg width="77" height="89" viewBox="0 0 77 89" fill="none" xmlns="http://www.w3.org/2000/svg">
<path fill-rule="evenodd" clip-rule="evenodd" d="M52.8176 69.4356H56.4936V66.3666H59.976L59.976 63.2976H63.8454V53.707H67.7148V38.3621H63.8454V30.6896H59.976L59.976 18.7973H56.4936V12.6593H52.6242V12.8511H47.3037V16.1119H41.7899H35.0184L33.9655 9.59031H23.4102V6.1377H18.5734L15.1134 9.59031V12.7181H11.3664V66.3412H15.1134V69.4694H18.8606V72.5973H52.5884V69.4694H52.8176V69.4356ZM7.61789 18.9745H11.3652V56.9575H7.61789V18.9745ZM7.61744 30.146H3.87016V53.8295H7.61744V30.146ZM22.6076 72.5975V75.7255H48.8403V72.5975H22.6076Z" fill="#D59F52"/>
<rect x="47.9805" y="27.6211" width="6.57798" height="12.276" fill="#1A1918"/>
<rect x="51.0742" y="27.6211" width="3.48246" height="4.98711" fill="#FAFAFA"/>
<path d="M31.7292 3.87803e-05H23.2165V3.06899H31.7292V3.87803e-05Z" fill="#1A1918"/>
<path d="M48.718 75.5739H22.4853V78.6472H48.718V75.5739Z" fill="#1A1918"/>
<path d="M18.5732 6.13802H15.0908V9.59063H18.5732V6.13802Z" fill="#1A1918"/>
<path d="M31.7292 12.6596V6.71341H35.0182V12.6596L37.0321 12.6596L38.3072 12.6596V16.1122H41.5962L41.9831 18.7976H38.3072V16.1122H31.7292V12.6596Z" fill="#1A1918"/>
<path d="M31.7292 3.06899H35.0182V6.90522H33.6639H31.7292V3.06899Z" fill="#1A1918"/>
<path d="M18.5732 3.06899H23.2165V6.13802H18.5732V3.06899Z" fill="#1A1918"/>
<path d="M15.0908 9.59063H11.2427V12.6596H15.0908V9.59063Z" fill="#1A1918"/>
<path d="M41.9831 18.7976L41.5962 16.1122H45.2721V12.6596L52.624 12.6596V16.1122H56.1064V12.6596H52.624V16.1122H45.2721V18.7976H41.9831Z" fill="#1A1918"/>
<path d="M11.2427 12.6596H7.49514V18.7681H11.2427V12.6596Z" fill="#1A1918"/>
<path d="M7.49514 18.7681H3.74762V29.9396H7.49514V18.7681Z" fill="#1A1918"/>
<path d="M56.1064 12.6596H59.9605V18.7976L56.1064 18.7976V12.6596Z" fill="#1A1918"/>
<path d="M3.74762 29.9396H8.39233e-05V53.6231H3.74762V29.9396Z" fill="#1A1918"/>
<path d="M63.8452 18.7976H59.9605V30.8333H63.8452V18.7976Z" fill="#1A1918"/>
<path d="M11.2427 56.7511H7.49514V65.9833H11.2427V56.7511Z" fill="#1A1918"/>
<path d="M63.8452 53.6231H67.7146V62.9143H63.8452V53.6231Z" fill="#1A1918"/>
<path d="M63.8452 30.8333H67.7146V38.4299H63.8452V30.8333Z" fill="#1A1918"/>
<path d="M14.9902 65.9833H11.2427V69.2632H14.9902V65.9833Z" fill="#1A1918"/>
<path d="M7.49514 53.6231H3.74762V56.7511H7.49514V53.6231Z" fill="#1A1918"/>
<path d="M56.4934 66.3669H59.9605V69.4359H56.4934V66.3669Z" fill="#1A1918"/>
<path d="M59.9605 62.9143H63.8452V66.3669H59.9605V62.9143Z" fill="#1A1918"/>
<path d="M18.5732 69.2632H14.9902V72.5049H18.5732V69.2632Z" fill="#1A1918"/>
<path d="M52.624 69.4359H56.4934V72.5049H52.624V69.4359Z" fill="#1A1918"/>
<path d="M22.4853 72.5049H18.5732V75.5739H22.4853V72.5049Z" fill="#1A1918"/>
<path d="M48.718 72.5049H52.624V75.5739H48.718V72.5049Z" fill="#1A1918"/>
<path d="M71.2031 38.4299H67.7146V53.6231H71.2031V38.4299Z" fill="#1A1918"/>
<rect x="23.2148" y="27.6211" width="6.57798" height="12.276" fill="#1A1918"/>
<rect x="26.3125" y="27.6211" width="3.48246" height="4.98711" fill="#FAFAFA"/>
<rect width="3.09552" height="6.5216" transform="matrix(-1 0 0 1 34.0508 42.9658)" fill="#1A1918"/>
<rect width="2.70858" height="6.5216" transform="matrix(-1 0 0 1 47.207 42.9658)" fill="#1A1918"/>
<rect width="10.773" height="3.25065" transform="matrix(-1 0 0 1 44.5391 42.9658)" fill="#1A1918"/>
<rect width="10.8343" height="3.45261" transform="matrix(-1 0 0 1 44.5 46.0352)" fill="#FAFAFA"/>
<rect width="10.773" height="2.78627" transform="matrix(-1 0 0 1 29.9766 79.0449)" fill="#B17C31"/>
<rect width="9.28656" height="2.68536" transform="matrix(-1 0 0 1 53.7852 79.0264)" fill="#B17C31"/>
<rect width="10.8343" height="3.06899" transform="matrix(-1 0 0 1 44.5 46.418)" fill="#1A1918"/>
<rect width="10.8343" height="3.45261" transform="matrix(-1 0 0 1 29.793 75.5742)" fill="#1A1918"/>
<rect width="10.4474" height="3.45261" transform="matrix(-1 0 0 1 29.793 81.7119)" fill="#1A1918"/>
<rect width="10.0604" height="3.45261" transform="matrix(-1 0 0 1 54.5586 81.7119)" fill="#1A1918"/>
<path fill-rule="evenodd" clip-rule="evenodd" d="M23.2133 3.06738H31.726V13.0416V16.1106H38.304V18.7959V21.8649H41.3995V18.7959H45.2689V16.1106H56.1033V18.7959H48.7514V21.8649H41.3995V24.5503H38.304V21.8649H35.5954V18.7959H27.8566V16.1106H25.535V13.0416H23.2133V3.06738ZM57.2641 18.7959H59.9727V21.4813H57.2641V18.7959Z" fill="#EBBA77"/>
<path fill-rule="evenodd" clip-rule="evenodd" d="M15.092 9.59082H18.5744V26.8539H15.0932V56.7521H18.7397V59.8795H29.447V63.0073H33.194V66.1354H14.9917V65.9836H11.2238V56.7514H7.49722V18.7683H11.2238V12.66H15.092V9.59082ZM7.49678 29.9402H3.7495V53.6238H7.49678V29.9402ZM36.9425 66.1355V69.0526H48.757L48.757 65.9836H52.6264L52.6264 62.9146V59.8457H63.8477V62.9146H59.9783V66.3673H56.4958V69.4362H52.6264V72.5052H48.7577V75.5742H22.4458V72.5052H18.5757V69.2635H14.9927V66.1355H36.9425Z" fill="#B17C31"/>
<rect width="3.09552" height="9.59059" transform="matrix(-1 0 0 1 21.668 75.5742)" fill="#1A1918"/>
<rect width="3.09552" height="9.20697" transform="matrix(-1 0 0 1 30.5664 75.957)" fill="#1A1918"/>
<rect width="2.70858" height="9.59059" transform="matrix(-1 0 0 1 54.5586 75.5742)" fill="#1A1918"/>
<rect width="2.70858" height="9.20697" transform="matrix(-1 0 0 1 47.207 75.957)" fill="#1A1918"/>
<rect width="10.0604" height="3.45261" transform="matrix(-1 0 0 1 54.5586 75.5742)" fill="#1A1918"/>
<rect x="59.9766" y="86.3145" width="3.09552" height="2.68536" fill="#1A1918"/>
<rect x="63.0703" y="84.0127" width="3.09552" height="2.68536" fill="#1A1918"/>
<rect x="8.51172" y="82.4785" width="3.09552" height="2.68536" fill="#1A1918"/>
<rect x="73.9062" y="86.3145" width="3.09552" height="2.68536" fill="#1A1918"/>
</svg>
