<svg width="149" height="171" viewBox="0 0 149 171" fill="none" xmlns="http://www.w3.org/2000/svg">
<path fill-rule="evenodd" clip-rule="evenodd" d="M52.2824 86.2004H90.4087V89.2635H94.1258L94.1258 95.3896H97.6472V107.259H101.56V114.917H105.473V130.232H101.56V139.804H97.6472V142.867H94.1258L94.1258 145.93H90.4087V145.964H90.1769V149.086H56.0716V145.964H52.2824V142.842H48.4935V89.3222H52.2824V86.2004ZM44.7031 95.5665H48.4923V133.476H44.7031V95.5665ZM44.7026 106.716H40.9134V130.354H44.7026V106.716ZM59.8605 149.086V152.208H86.3868V149.086H59.8605Z" fill="#D59F52"/>
<rect x="85.5176" y="102.665" width="6.65161" height="3.06306" fill="#1A1918"/>
<path d="M82.4737 76.6289H60.2782V79.7509H82.4737V76.6289Z" fill="#1A1918"/>
<path d="M86.2632 152.057H59.7368V155.124H86.2632V152.057Z" fill="#1A1918"/>
<path d="M55.781 82.755H52.2596V86.201H55.9474L55.781 82.755Z" fill="#1A1918"/>
<path d="M86.2632 82.8729H90.0526V86.201H86.2632V82.8729Z" fill="#1A1918"/>
<path d="M82.4737 79.7509H86.2632V82.8729H82.4737V79.7509Z" fill="#1A1918"/>
<path d="M55.781 79.7509H60.2782V82.8729L55.781 82.755V79.7509Z" fill="#1A1918"/>
<path d="M52.2596 86.201H48.3684V89.264H52.2596V86.201Z" fill="#1A1918"/>
<path d="M90.0526 86.201H93.8421V89.264H90.0526V86.201Z" fill="#1A1918"/>
<path d="M48.3684 89.264H44.5789V95.3607H48.3684V89.264Z" fill="#1A1918"/>
<path d="M44.5789 95.3607H40.7895V106.511H44.5789V95.3607Z" fill="#1A1918"/>
<path d="M93.8421 89.264H97.6316V95.3902H93.8421V89.264Z" fill="#1A1918"/>
<path d="M40.7895 106.511H37V130.148H40.7895V106.511Z" fill="#1A1918"/>
<path d="M101.56 95.3902H97.6316V107.403H101.56V95.3902Z" fill="#1A1918"/>
<path d="M48.3684 133.27H44.5789V142.485H48.3684V133.27Z" fill="#1A1918"/>
<path d="M101.56 130.148H105.472V139.422H101.56V130.148Z" fill="#1A1918"/>
<path d="M101.56 107.403H105.472V114.985H101.56V107.403Z" fill="#1A1918"/>
<path d="M52.1579 142.485H48.3684V145.758H52.1579V142.485Z" fill="#1A1918"/>
<path d="M44.5789 130.148H40.7895V133.27H44.5789V130.148Z" fill="#1A1918"/>
<path d="M94.1256 142.868H97.6316V145.931H94.1256V142.868Z" fill="#1A1918"/>
<path d="M97.6316 139.422H101.56V142.868H97.6316V139.422Z" fill="#1A1918"/>
<path d="M55.781 145.758H52.1579V148.994H55.781V145.758Z" fill="#1A1918"/>
<path d="M90.2129 145.931H94.1256V148.994H90.2129V145.931Z" fill="#1A1918"/>
<path d="M59.7368 148.994H55.781V152.057H59.7368V148.994Z" fill="#1A1918"/>
<path d="M86.2632 148.994H90.2129V152.057H86.2632V148.994Z" fill="#1A1918"/>
<path d="M109 114.985H105.472V130.148H109V114.985Z" fill="#1A1918"/>
<rect x="60.4766" y="102.665" width="6.65161" height="3.06306" fill="#1A1918"/>
<rect x="54.2168" y="116.066" width="6.65161" height="6.50901" fill="#FA4C4C"/>
<rect x="92.1699" y="116.066" width="6.65161" height="6.50901" fill="#FA4C4C"/>
<rect width="3.13017" height="6.50901" transform="matrix(-1 0 0 1 71.4316 117.597)" fill="#1A1918"/>
<rect width="2.7389" height="6.50901" transform="matrix(-1 0 0 1 84.7344 117.597)" fill="#1A1918"/>
<rect width="10.8936" height="3.24437" transform="matrix(-1 0 0 1 82.0371 117.597)" fill="#1A1918"/>
<rect width="10.9556" height="3.44595" transform="matrix(-1 0 0 1 81.9961 120.66)" fill="#FFFBF6"/>
<rect width="10.8936" height="2.78089" transform="matrix(-1 0 0 1 67.3125 155.521)" fill="#B17C31"/>
<rect width="9.39051" height="2.68018" transform="matrix(-1 0 0 1 91.3867 155.503)" fill="#B17C31"/>
<rect width="10.9556" height="3.06306" transform="matrix(-1 0 0 1 81.9961 124.106)" fill="#1A1918"/>
<rect width="10.9556" height="3.44595" transform="matrix(-1 0 0 1 67.127 152.057)" fill="#1A1918"/>
<rect width="10.5643" height="3.44595" transform="matrix(-1 0 0 1 67.127 158.183)" fill="#1A1918"/>
<rect width="10.173" height="3.44595" transform="matrix(-1 0 0 1 92.1699 158.183)" fill="#1A1918"/>
<path fill-rule="evenodd" clip-rule="evenodd" d="M82.4771 79.75H60.2817V82.754H55.7836V86.1999H60.2807V89.1168H79.7694V86.1999H86.3027V82.754H82.4771V79.75ZM73.8148 89.117H60.2809V92.2389H73.8148V89.117Z" fill="#EBBA77"/>
<path fill-rule="evenodd" clip-rule="evenodd" d="M52.2614 86.2004H55.7828V103.43H52.2623V133.27H55.9496V136.392H66.7768V139.513H70.5657V142.635H52.1597V142.484H48.3496V133.269H44.5813V95.3597H48.3496V89.2631H52.2614V86.2004ZM44.5809 106.51H40.7917V130.148H44.5809V106.51ZM74.3562 142.635V145.547H86.3029V142.484H90.2156L90.2156 139.421V136.358H101.562V139.421L97.6498 139.421V142.867H94.1283V145.93H90.2156V148.993L86.3037 148.993V152.056H59.6973V148.993L55.7838 148.993V145.757H52.1607L52.1607 142.635H74.3562Z" fill="#B17C31"/>
<rect width="3.13017" height="9.57207" transform="matrix(-1 0 0 1 58.9121 152.057)" fill="#1A1918"/>
<rect width="3.13017" height="9.18919" transform="matrix(-1 0 0 1 67.9102 152.44)" fill="#1A1918"/>
<rect width="2.7389" height="9.57207" transform="matrix(-1 0 0 1 92.1699 152.057)" fill="#1A1918"/>
<rect width="2.7389" height="9.18919" transform="matrix(-1 0 0 1 84.7344 152.44)" fill="#1A1918"/>
<rect width="10.173" height="3.44595" transform="matrix(-1 0 0 1 92.1699 152.057)" fill="#1A1918"/>
<path d="M126 7.9V43.3H123.05V46.25H117.15V49.2H99.45V46.25H78.8V49.2H75.85V81H69.95V10.85H67V4.95H69.95V2L75.85 2V4.95H78.8V10.85H75.85V13.8H78.8V10.85L99.45 10.85V13.8L117.15 13.8V10.85H123.05V7.9H126Z" fill="#EBBA77"/>
<path d="M78.8 10.85V4.95H75.85V2L69.95 2V4.95H67V10.85H69.95V81H75.85V49.2H78.8V46.25H99.45V49.2H117.15V46.25H123.05V43.3H126V7.9H123.05V10.85H117.15V13.8L99.45 13.8V10.85L78.8 10.85ZM78.8 10.85H75.85V13.8H78.8V10.85Z" stroke="black" stroke-width="3"/>
<path fill-rule="evenodd" clip-rule="evenodd" d="M4.63672 130.458L5.78574 130.173L7.39516 136.677L6.24614 136.962L4.63672 130.458ZM6.02266 131.13L7.17168 130.845L8.97049 138.115L9.9278 137.878L11.4899 144.191L10.5324 144.428L10.343 143.663L9.19416 143.947L6.02266 131.13Z" fill="#FFC700"/>
<path fill-rule="evenodd" clip-rule="evenodd" d="M4.43671 133.755L2.13867 134.324L3.03035 137.927L4.17961 137.643L5.41803 142.648L7.52456 142.127L6.23659 136.921L5.27883 137.158L4.43671 133.755Z" fill="#FFC700"/>
<path fill-rule="evenodd" clip-rule="evenodd" d="M8.47324 127.072L7.32422 127.356L9.97503 138.069L11.1241 137.785L8.47324 127.072ZM9.76214 128.174L8.80463 128.411L10.8874 136.828L11.8449 136.591L9.76214 128.174Z" fill="#FFC700"/>
<path fill-rule="evenodd" clip-rule="evenodd" d="M12.1061 128.609L10.957 128.893L13.2765 138.267L14.4255 137.983L12.1061 128.609ZM13.4918 129.281L12.3428 129.565L14.7096 139.131L15.8586 138.846L13.4918 129.281Z" fill="#FFC700"/>
<path fill-rule="evenodd" clip-rule="evenodd" d="M18.4244 127.046L17.2754 127.33L20.3996 139.956L21.5486 139.672L18.4244 127.046ZM19.8103 127.718L18.6613 128.002L21.5488 139.672L22.6978 139.387L19.8103 127.718Z" fill="#FFC700"/>
<path fill-rule="evenodd" clip-rule="evenodd" d="M21.7271 127.244L20.5781 127.528L23.4656 139.197L24.6146 138.913L21.7271 127.244ZM23.1131 127.916L21.9641 128.2L25.1356 141.017L26.2846 140.733L23.1131 127.916Z" fill="#FFC700"/>
<path fill-rule="evenodd" clip-rule="evenodd" d="M14.649 125.341L13.5957 125.602L17.0538 139.577L18.1071 139.316L14.649 125.341ZM16.0552 126.506L15.0019 126.767L18.5306 141.028L19.5839 140.767L16.0552 126.506Z" fill="#FFC700"/>
<path fill-rule="evenodd" clip-rule="evenodd" d="M25.311 128.59L24.3535 128.827L26.7676 138.583L27.7252 138.346L25.311 128.59ZM26.7442 129.453L25.5952 129.738L27.6779 138.155L28.827 137.871L26.7442 129.453Z" fill="#FFC700"/>
<path fill-rule="evenodd" clip-rule="evenodd" d="M19.1107 139.666L20.2598 139.382L21.7272 145.312L20.5785 145.596L20.6258 145.787L19.6683 146.024L18.4849 141.242L19.442 141.005L19.1107 139.666Z" fill="#FFC700"/>
<path fill-rule="evenodd" clip-rule="evenodd" d="M12.0806 137.548L11.123 137.785L13.2058 146.202L14.1633 145.965L12.0806 137.548ZM13.275 138.267L12.3174 138.504L14.4002 146.922L15.3577 146.685L13.275 138.267Z" fill="#FFC700"/>
<rect x="14.5625" y="140.182" width="2.56462" height="6.70042" transform="rotate(-13.8982 14.5625 140.182)" fill="#FFC700"/>
<rect x="21.5488" y="139.671" width="1.97279" height="5.51799" transform="rotate(-13.8982 21.5488 139.671)" fill="#FFC700"/>
<path fill-rule="evenodd" clip-rule="evenodd" d="M25.1345 122.949L24.1769 123.186L24.5083 124.525L23.3593 124.809L24.164 128.061L25.313 127.777L24.9817 126.438L25.9392 126.201L25.1345 122.949ZM22.447 126.05L23.596 125.766L23.8327 126.722L22.6836 127.007L22.447 126.05Z" fill="#FFC700"/>
<path fill-rule="evenodd" clip-rule="evenodd" d="M26.1395 122.904L25.182 123.141L25.9394 126.202L26.8969 125.965L26.1395 122.904ZM25.9395 126.202L24.982 126.439L25.266 127.586L26.2236 127.35L25.9395 126.202Z" fill="#E25B00"/>
<rect x="26.7441" y="129.454" width="0.986396" height="6.89749" transform="rotate(-13.8982 26.7441 129.454)" fill="#E25B00"/>
<path fill-rule="evenodd" clip-rule="evenodd" d="M8.51955 127.263L9.47707 127.026L9.76107 128.174L10.7186 127.937L13.2747 138.267L12.3172 138.504L12.0805 137.548L11.123 137.785L10.8863 136.828L11.8438 136.591L9.76105 128.174L8.80357 128.411L8.51955 127.263ZM14.4238 137.983L13.2748 138.267L15.1209 145.728L16.2699 145.444L14.4238 137.983ZM13.7741 130.43L14.7316 130.193L17.0511 139.567L16.0937 139.803L16.0938 139.804L14.9447 140.088L14.7081 139.131L15.8569 138.847L13.7741 130.43Z" fill="#E25B00"/>
<rect x="20.4004" y="139.956" width="1.18367" height="5.51799" transform="rotate(-13.8982 20.4004 139.956)" fill="#E25B00"/>
<path fill-rule="evenodd" clip-rule="evenodd" d="M21.7266 127.244L22.8756 126.96L22.8756 126.96L23.8331 126.723L24.1644 128.062L25.1219 127.825L25.3112 128.59L24.3537 128.827L27.2886 140.688L26.3311 140.925L23.1122 127.916L21.9632 128.201L21.7266 127.244Z" fill="#E25B00"/>
<path fill-rule="evenodd" clip-rule="evenodd" d="M20.5766 127.528L19.8105 127.718L22.698 139.387L23.4641 139.198L20.5766 127.528ZM24.6131 138.914L23.4641 139.198L24.7895 144.554L25.9385 144.27L24.6131 138.914Z" fill="#E25B00"/>
<path fill-rule="evenodd" clip-rule="evenodd" d="M14.6495 125.748L15.7986 125.463L16.0826 126.611L14.9336 126.895L14.6495 125.748ZM16.0825 126.611L17.04 126.374L20.2589 139.383L19.3013 139.62L16.0825 126.611ZM19.1587 139.045L17.0522 139.567L18.7089 146.262L20.8155 145.741L19.1587 139.045Z" fill="#E25B00"/>
<path fill-rule="evenodd" clip-rule="evenodd" d="M5.78516 130.173L6.93418 129.889L7.17086 130.845L6.02184 131.129L5.78516 130.173ZM7.17109 130.845L8.12861 130.608L9.97471 138.069L9.01719 138.306L7.17109 130.845ZM11.1233 137.785L9.97428 138.069L11.8204 145.53L12.9694 145.246L11.1233 137.785Z" fill="#E25B00"/>
<path fill-rule="evenodd" clip-rule="evenodd" d="M3.24219 133.036L4.1997 132.799L4.43638 133.755L3.47887 133.992L3.24219 133.036ZM4.4368 133.755L5.39432 133.518L6.24637 136.962L5.28885 137.199L4.4368 133.755ZM7.3951 136.678L6.24608 136.962L7.85551 143.466L9.00453 143.182L7.3951 136.678Z" fill="#E25B00"/>
<path d="M3.17188 141.783L6.23593 141.025L6.54361 142.268L7.69263 141.984L7.95298 143.036L8.9105 142.799L9.14718 143.756L10.2962 143.471L10.5329 144.428L11.4904 144.191L11.7744 145.339L13.8809 144.817L14.1413 145.87L16.2478 145.348L16.5555 146.592L21.7261 145.312L21.3948 143.973L23.5013 143.452L23.2646 142.496L25.3712 141.974L25.0871 140.827L26.2362 140.542L25.9995 139.586L26.957 139.349L26.7203 138.392L27.8693 138.108L27.5853 136.96L28.5428 136.723L28.2588 135.575L31.3229 134.817L33.9263 145.339L5.77535 152.305L3.17188 141.783Z" fill="#DC4200"/>
<path d="M6.54136 152.115L33.1603 145.528L35.0064 152.989L8.38747 159.576L6.54136 152.115Z" fill="#DC4200"/>
<path d="M9.91949 159.197L33.4744 153.368L35.4152 161.212L11.8603 167.04L9.91949 159.197Z" fill="#DC4200"/>
<path d="M11.8603 167.04L18.7544 165.334L19.0857 166.673L18.3197 166.863L18.6511 168.202L13.289 169.529L12.9576 168.19L12.1916 168.379L11.8603 167.04Z" fill="#DC4200"/>
<path d="M28.5211 162.917L35.4152 161.212L35.7465 162.551L34.9805 162.74L35.3119 164.079L29.9498 165.406L29.6184 164.067L28.8524 164.257L28.5211 162.917Z" fill="#DC4200"/>
<path fill-rule="evenodd" clip-rule="evenodd" d="M143.738 130.458L142.589 130.173L140.98 136.677L142.129 136.962L143.738 130.458ZM142.352 131.13L141.203 130.845L139.405 138.115L138.447 137.878L136.885 144.191L137.843 144.428L138.032 143.663L139.181 143.947L142.352 131.13Z" fill="#FFC700"/>
<path fill-rule="evenodd" clip-rule="evenodd" d="M143.938 133.755L146.236 134.324L145.345 137.927L144.195 137.643L142.957 142.648L140.85 142.127L142.138 136.921L143.096 137.158L143.938 133.755Z" fill="#FFC700"/>
<path fill-rule="evenodd" clip-rule="evenodd" d="M139.902 127.072L141.051 127.356L138.4 138.069L137.251 137.785L139.902 127.072ZM138.613 128.174L139.57 128.411L137.488 136.828L136.53 136.591L138.613 128.174Z" fill="#FFC700"/>
<path fill-rule="evenodd" clip-rule="evenodd" d="M136.269 128.609L137.418 128.893L135.099 138.267L133.949 137.983L136.269 128.609ZM134.883 129.281L136.032 129.565L133.665 139.131L132.516 138.846L134.883 129.281Z" fill="#FFC700"/>
<path fill-rule="evenodd" clip-rule="evenodd" d="M129.951 127.046L131.1 127.33L127.975 139.956L126.826 139.672L129.951 127.046ZM128.565 127.718L129.714 128.002L126.826 139.672L125.677 139.387L128.565 127.718Z" fill="#FFC700"/>
<path fill-rule="evenodd" clip-rule="evenodd" d="M126.648 127.244L127.797 127.528L124.909 139.197L123.76 138.913L126.648 127.244ZM125.262 127.916L126.411 128.2L123.239 141.017L122.09 140.733L125.262 127.916Z" fill="#FFC700"/>
<path fill-rule="evenodd" clip-rule="evenodd" d="M133.726 125.341L134.779 125.602L131.321 139.577L130.268 139.316L133.726 125.341ZM132.32 126.506L133.373 126.767L129.844 141.028L128.791 140.767L132.32 126.506Z" fill="#FFC700"/>
<path fill-rule="evenodd" clip-rule="evenodd" d="M123.064 128.59L124.021 128.827L121.607 138.583L120.65 138.346L123.064 128.59ZM121.631 129.453L122.78 129.738L120.697 138.155L119.548 137.871L121.631 129.453Z" fill="#FFC700"/>
<path fill-rule="evenodd" clip-rule="evenodd" d="M129.264 139.666L128.115 139.382L126.648 145.312L127.796 145.596L127.749 145.787L128.707 146.024L129.89 141.242L128.933 141.005L129.264 139.666Z" fill="#FFC700"/>
<path fill-rule="evenodd" clip-rule="evenodd" d="M136.294 137.548L137.252 137.785L135.169 146.202L134.212 145.965L136.294 137.548ZM135.1 138.267L136.058 138.504L133.975 146.922L133.017 146.685L135.1 138.267Z" fill="#FFC700"/>
<rect width="2.56462" height="6.70042" transform="matrix(-0.970724 -0.240197 -0.240197 0.970724 133.812 140.182)" fill="#FFC700"/>
<rect width="1.97279" height="5.51799" transform="matrix(-0.970724 -0.240197 -0.240197 0.970724 126.826 139.671)" fill="#FFC700"/>
<path fill-rule="evenodd" clip-rule="evenodd" d="M123.241 122.949L124.198 123.186L123.867 124.525L125.016 124.809L124.211 128.061L123.062 127.777L123.393 126.438L122.436 126.201L123.241 122.949ZM125.928 126.05L124.779 125.766L124.542 126.722L125.691 127.007L125.928 126.05Z" fill="#FFC700"/>
<path fill-rule="evenodd" clip-rule="evenodd" d="M122.235 122.904L123.193 123.141L122.436 126.202L121.478 125.965L122.235 122.904ZM122.435 126.202L123.393 126.439L123.109 127.586L122.151 127.35L122.435 126.202Z" fill="#E25B00"/>
<rect width="0.986396" height="6.89749" transform="matrix(-0.970724 -0.240197 -0.240197 0.970724 121.631 129.454)" fill="#E25B00"/>
<path fill-rule="evenodd" clip-rule="evenodd" d="M139.855 127.263L138.898 127.026L138.614 128.174L137.656 127.937L135.1 138.267L136.058 138.504L136.295 137.548L137.252 137.785L137.489 136.828L136.531 136.591L138.614 128.174L139.571 128.411L139.855 127.263ZM133.951 137.983L135.1 138.267L133.254 145.728L132.105 145.444L133.951 137.983ZM134.601 130.43L133.643 130.193L131.324 139.567L132.281 139.803L132.281 139.804L133.43 140.088L133.667 139.131L132.518 138.847L134.601 130.43Z" fill="#E25B00"/>
<rect width="1.18367" height="5.51799" transform="matrix(-0.970724 -0.240197 -0.240197 0.970724 127.975 139.956)" fill="#E25B00"/>
<path fill-rule="evenodd" clip-rule="evenodd" d="M126.648 127.244L125.499 126.96L125.499 126.96L124.542 126.723L124.211 128.062L123.253 127.825L123.064 128.59L124.021 128.827L121.086 140.688L122.044 140.925L125.263 127.916L126.412 128.201L126.648 127.244Z" fill="#E25B00"/>
<path fill-rule="evenodd" clip-rule="evenodd" d="M127.798 127.528L128.564 127.718L125.677 139.387L124.911 139.198L127.798 127.528ZM123.762 138.914L124.911 139.198L123.586 144.554L122.437 144.27L123.762 138.914Z" fill="#E25B00"/>
<path fill-rule="evenodd" clip-rule="evenodd" d="M133.725 125.748L132.576 125.463L132.292 126.611L133.441 126.895L133.725 125.748ZM132.293 126.611L131.335 126.374L128.116 139.383L129.074 139.62L132.293 126.611ZM129.216 139.045L131.323 139.567L129.666 146.262L127.56 145.741L129.216 139.045Z" fill="#E25B00"/>
<path fill-rule="evenodd" clip-rule="evenodd" d="M142.59 130.173L141.441 129.889L141.204 130.845L142.353 131.129L142.59 130.173ZM141.204 130.845L140.246 130.608L138.4 138.069L139.358 138.306L141.204 130.845ZM137.252 137.785L138.401 138.069L136.555 145.53L135.406 145.246L137.252 137.785Z" fill="#E25B00"/>
<path fill-rule="evenodd" clip-rule="evenodd" d="M145.133 133.036L144.175 132.799L143.939 133.755L144.896 133.992L145.133 133.036ZM143.938 133.755L142.981 133.518L142.129 136.962L143.086 137.199L143.938 133.755ZM140.98 136.678L142.129 136.962L140.519 143.466L139.37 143.182L140.98 136.678Z" fill="#E25B00"/>
<path d="M145.203 141.783L142.139 141.025L141.831 142.268L140.682 141.984L140.422 143.036L139.465 142.799L139.228 143.756L138.079 143.471L137.842 144.428L136.885 144.191L136.601 145.339L134.494 144.817L134.234 145.87L132.127 145.348L131.819 146.592L126.649 145.312L126.98 143.973L124.874 143.452L125.11 142.496L123.004 141.974L123.288 140.827L122.139 140.542L122.376 139.586L121.418 139.349L121.655 138.392L120.506 138.108L120.79 136.96L119.832 136.723L120.116 135.575L117.052 134.817L114.449 145.339L142.6 152.305L145.203 141.783Z" fill="#DC4200"/>
<path d="M141.834 152.115L115.215 145.528L113.369 152.989L139.988 159.576L141.834 152.115Z" fill="#DC4200"/>
<path d="M138.456 159.197L114.901 153.368L112.96 161.212L136.515 167.04L138.456 159.197Z" fill="#DC4200"/>
<path d="M136.515 167.04L129.621 165.334L129.289 166.673L130.055 166.863L129.724 168.202L135.086 169.529L135.417 168.19L136.183 168.379L136.515 167.04Z" fill="#DC4200"/>
<path d="M119.854 162.917L112.96 161.212L112.628 162.551L113.394 162.74L113.063 164.079L118.425 165.406L118.757 164.067L119.523 164.257L119.854 162.917Z" fill="#DC4200"/>
<path d="M91.6965 28.7158H90.8513V31.3721H90.2959V31.9276H89.6801V32.483H86.2994V31.9276H85.6836V31.3721H85.1161V24.6469H85.6836V24.1035H86.2994V23.5481H89.6801V24.1035H90.2959V24.6469H90.8513V26.2648H89.6801V24.6589H89.1006V24.1035H86.8669V24.6589H86.2994V31.3721H86.8669V31.9276H89.1006V31.3721H89.6801V28.7158H88.2313V28.1846H91.6965V28.7158ZM92.6596 31.3721V27.0617H93.2513V26.5184H93.8187V25.9629H96.9822V26.5184H97.5496V27.0617H98.1413V31.3721H97.5496V31.9276H96.9822V32.483H93.8187V31.9276H93.2513V31.3721H92.6596ZM94.3862 31.3721V31.9276H96.4147V31.3721H96.9822V27.0738H96.4147V26.5184H94.3862V27.0738H93.8187V31.3721H94.3862ZM99.5871 30.0319H100.167V29.4524H100.746V28.8728H103.801V27.0738H103.234V26.5184H101.785V27.0738H101.217V28.1484H100.094V27.0617H100.65V26.5184H101.217V25.9629H103.801V26.5184H104.368V27.0617H104.936V32.483H104.344V31.9034H103.801V32.483H100.782V31.9034H100.167V31.3238L99.5871 31.3359V30.0319ZM101.338 31.3238V31.9034H103.258V31.3238H103.801V29.4524H101.338V30.044H100.77V31.3238H101.338ZM107.996 24.0915V32.483H106.874V24.0915H106.33V23.5481H107.453V24.0915H107.996ZM111.527 29.7059H110.417V23.5481L111.527 23.5602V29.7059ZM110.332 31.2152H111.612V32.483H110.332V31.2152Z" fill="#A1380C"/>
</svg>
