<svg width="110" height="89" viewBox="0 0 110 89" fill="none" xmlns="http://www.w3.org/2000/svg">
<path fill-rule="evenodd" clip-rule="evenodd" d="M14.9687 9.77637H52.3147V12.9047H55.9557L55.9557 19.1614H59.405L59.405 31.2836H63.2377V39.1044H67.0703V54.7461H63.2377V64.5221H59.405L59.405 67.6504H55.9557L55.9557 70.7788H52.3147V70.8132H52.0876V74.0016H18.6803V70.8132H14.9687V67.6245H11.2573V12.9646H14.9687V9.77637ZM7.54442 19.342H11.2561V58.0594H7.54442V19.342ZM7.54397 30.7295H3.8323V54.871H7.54397V30.7295ZM22.3917 74.0018V77.1903H48.3751V74.0018H22.3917Z" fill="#D59F52"/>
<rect x="47.5234" y="26.5908" width="6.51548" height="14.0775" fill="#1A1918"/>
<rect x="50.5898" y="28.1553" width="3.44937" height="5.08353" fill="#FAFAFA"/>
<path d="M44.5439 0H22.8027V3.18849H44.5439V0Z" fill="#1A1918"/>
<path d="M48.2558 77.0351H22.2724V80.1678H48.2558V77.0351Z" fill="#1A1918"/>
<path d="M18.3975 6.25666H14.9482V9.77602H18.5605L18.3975 6.25666Z" fill="#1A1918"/>
<path d="M48.2558 6.37699H51.9678V9.77602H48.2558V6.37699Z" fill="#1A1918"/>
<path d="M44.5439 3.18849H48.2558V6.37699H44.5439V3.18849Z" fill="#1A1918"/>
<path d="M18.3975 3.18849H22.8027V6.37699L18.3975 6.25666V3.18849Z" fill="#1A1918"/>
<path d="M14.9482 9.77602H11.1367V12.9044H14.9482V9.77602Z" fill="#1A1918"/>
<path d="M51.9678 9.77602H55.6797V12.9044H51.9678V9.77602Z" fill="#1A1918"/>
<path d="M11.1367 12.9044H7.42474V19.131H11.1367V12.9044Z" fill="#1A1918"/>
<path d="M7.42474 19.131H3.71282V30.5184H7.42474V19.131Z" fill="#1A1918"/>
<path d="M55.6797 12.9044H59.3916V19.161H55.6797V12.9044Z" fill="#1A1918"/>
<path d="M3.71282 30.5184H0.000900269V54.6599H3.71282V30.5184Z" fill="#1A1918"/>
<path d="M63.2394 19.161H59.3916V31.4294H63.2394V19.161Z" fill="#1A1918"/>
<path d="M11.1367 57.8484H7.42474V67.259H11.1367V57.8484Z" fill="#1A1918"/>
<path d="M63.2394 54.6599H67.072V64.1307H63.2394V54.6599Z" fill="#1A1918"/>
<path d="M63.2394 31.4294H67.072V39.1729H63.2394V31.4294Z" fill="#1A1918"/>
<path d="M14.8486 67.259H11.1367V70.6023H14.8486V67.259Z" fill="#1A1918"/>
<path d="M7.42474 54.6599H3.71282V57.8484H7.42474V54.6599Z" fill="#1A1918"/>
<path d="M55.9573 67.6501H59.3916V70.7784H55.9573V67.6501Z" fill="#1A1918"/>
<path d="M59.3916 64.1307H63.2394V67.6501H59.3916V64.1307Z" fill="#1A1918"/>
<path d="M18.3975 70.6023H14.8486V73.9067H18.3975V70.6023Z" fill="#1A1918"/>
<path d="M52.1247 70.7784H55.9573V73.9067H52.1247V70.7784Z" fill="#1A1918"/>
<path d="M22.2724 73.9067H18.3975V77.0351H22.2724V73.9067Z" fill="#1A1918"/>
<path d="M48.2558 73.9067H52.1247V77.0351H48.2558V73.9067Z" fill="#1A1918"/>
<path d="M70.5273 39.1729H67.072V54.6599H70.5273V39.1729Z" fill="#1A1918"/>
<rect x="22.9961" y="26.5908" width="6.51548" height="14.0775" fill="#1A1918"/>
<rect x="26.0625" y="28.1553" width="3.44937" height="5.08353" fill="#FAFAFA"/>
<rect width="10.6707" height="2.84014" transform="matrix(-1 0 0 1 29.6914 80.5732)" fill="#B17C31"/>
<rect width="9.19832" height="2.73729" transform="matrix(-1 0 0 1 53.2734 80.5547)" fill="#B17C31"/>
<rect width="10.7314" height="3.12833" transform="matrix(-1 0 0 1 44.8438 46.1426)" fill="#1A1918"/>
<rect width="10.7314" height="3.51937" transform="matrix(-1 0 0 1 29.5117 77.0352)" fill="#1A1918"/>
<rect width="10.3481" height="3.51937" transform="matrix(-1 0 0 1 29.5117 83.292)" fill="#1A1918"/>
<rect width="9.96485" height="3.51937" transform="matrix(-1 0 0 1 54.0391 83.292)" fill="#1A1918"/>
<path fill-rule="evenodd" clip-rule="evenodd" d="M44.5457 3.18848H22.8044V6.25647H18.3984V9.77584H22.8035V12.7535H41.8934V9.77584H48.293V6.25647H44.5457V3.18848ZM36.0606 12.7536H22.8037V15.9421H36.0606V12.7536Z" fill="#EBBA77"/>
<path fill-rule="evenodd" clip-rule="evenodd" d="M14.9468 9.77637H18.3962V27.3732H14.9471V57.8495H18.5589V61.0375H29.1645V64.2258H32.8759V67.4142H14.8466V67.2596H11.1145V57.8488H7.42331V19.1314H11.1145V12.9049H14.9468V9.77637ZM7.42286 30.5193H3.71119V54.6608H7.42286V30.5193ZM36.5888 67.4144V70.3879H48.291V67.2596H52.1236V64.1313L52.1236 61.0029H63.2383L63.2383 64.1313L59.4056 64.1313V67.6506H55.9563V70.779H52.1236V73.9073H48.2918V77.0356H22.2298L22.2299 73.9073H18.3965L18.3965 70.6029H14.8475V67.4144H36.5888Z" fill="#B17C31"/>
<rect width="3.06611" height="9.77602" transform="matrix(-1 0 0 1 21.4609 77.0352)" fill="#1A1918"/>
<rect width="3.06611" height="9.38498" transform="matrix(-1 0 0 1 30.2773 77.4258)" fill="#1A1918"/>
<rect width="2.68284" height="9.77602" transform="matrix(-1 0 0 1 54.0391 77.0352)" fill="#1A1918"/>
<rect width="2.68284" height="9.38498" transform="matrix(-1 0 0 1 46.7578 77.4258)" fill="#1A1918"/>
<rect width="9.96485" height="3.51937" transform="matrix(-1 0 0 1 54.0391 77.0352)" fill="#1A1918"/>
<rect x="21.4609" y="41.4512" width="8.04853" height="3.51937" fill="#6A6967"/>
<rect x="47.5234" y="41.4512" width="8.04853" height="3.51937" fill="#6A6967"/>
<rect width="9.96485" height="3.51937" transform="matrix(-1 0 0 1 33.3438 59.4385)" fill="#1A1918"/>
<rect width="2.68284" height="9.77602" transform="matrix(-1 0 0 1 33.3438 53.1816)" fill="#1A1918"/>
<rect width="2.68284" height="9.38498" transform="matrix(-1 0 0 1 26.0625 53.5723)" fill="#1A1918"/>
<rect width="9.96485" height="3.51937" transform="matrix(-1 0 0 1 33.3438 53.1816)" fill="#1A1918"/>
<path d="M71.4815 83.5556L101.873 78.2347L61.4633 56.4254L30.555 58.7004L71.4815 83.5556Z" fill="#4E4C49"/>
<path d="M73.649 30.3093L99.6307 43.6364L99.1469 46.329L73.1998 32.8096L73.649 30.3093Z" fill="#6A6966"/>
<path d="M73.1841 32.8592L99.1313 46.3785L98.6821 48.8788L72.7004 35.5518L73.1841 32.8592Z" fill="#242321"/>
<path fill-rule="evenodd" clip-rule="evenodd" d="M102.691 41.6899L102.164 44.6654L107.531 47.4392L102.165 77.7526L102.025 77.6749L101.882 78.482L100.083 77.4883L101.78 78.5901L76.0546 82.7642L76.2605 82.8873L71.5184 83.6049L30.5233 58.7422L30.7235 58.725L30.6035 58.6531L61.4822 55.8401L66.6558 26.6108L71.0443 29.0022L71.571 26.0267L102.691 41.6899ZM38.2645 60.1671L64.4066 57.7855L98.7571 76.7562L72.8622 80.8553L38.2645 60.1671ZM97.1983 72.7197L99.8705 74.1701L104.403 48.5629L101.703 47.269L97.1983 72.7197ZM64.1773 54.7972L66.2769 55.9368L70.5506 31.7918L68.449 30.6634L64.1773 54.7972ZM99.3982 43.7434L95.3823 66.432L69.86 52.2408L73.6784 30.6681L99.3982 43.7434ZM69.0042 57.0761L94.5594 71.0813L94.9215 69.0356L69.3992 54.8444L69.0042 57.0761Z" fill="#242321"/>
<path d="M73.5854 30.3093L99.631 43.6655L94.6928 71.1888L68.7364 57.3355L73.5854 30.3093Z" fill="#8F8D89"/>
<path d="M86.6584 52.5514L82.1837 49.7197L82.6434 51.1242L83.2759 53.549L82.4164 54.3717L81.2128 55.1285L85.7446 57.642L86.6584 52.5514Z" fill="#FAFAFA"/>
<path d="M85.8531 49.1061L84.2468 48.1403L84.0184 49.4129L85.6247 50.3788L85.8531 49.1061Z" fill="#FAFAFA"/>
<path d="M104.398 48.4872L96.8892 44.6002L92.3082 70.0734L99.7853 74.1368L104.398 48.4872Z" fill="#8F8D89"/>
<path d="M74.1939 33.3911L68.6092 30.6774L64.2528 54.8814L69.7801 57.9137L74.1939 33.3911Z" fill="#8F8D89"/>
</svg>
