<svg width="400" height="300" viewBox="0 0 400 300" fill="none" xmlns="http://www.w3.org/2000/svg">
<g clip-path="url(#clip0_9193_21521)">
<rect width="400" height="300" fill="white"/>
<circle cx="5.109" cy="21.5914" r="2.23986" fill="#FFEBA3"/>
<circle cx="5.109" cy="57.9884" r="2.23986" fill="#FFEBA3"/>
<circle cx="5.109" cy="94.3868" r="2.23986" fill="#FFEBA3"/>
<circle cx="5.109" cy="130.784" r="2.23986" fill="#FFEBA3"/>
<circle cx="5.109" cy="167.182" r="2.23986" fill="#FFEBA3"/>
<circle cx="5.109" cy="203.58" r="2.23986" fill="#FFEBA3"/>
<circle cx="5.109" cy="239.978" r="2.23986" fill="#FFEBA3"/>
<circle cx="5.109" cy="276.375" r="2.23986" fill="#FFEBA3"/>
<circle cx="37.5875" cy="21.5914" r="2.23986" fill="#FFEBA3"/>
<circle cx="37.5875" cy="57.9884" r="2.23986" fill="#FFEBA3"/>
<circle cx="37.5875" cy="94.3868" r="2.23986" fill="#FFEBA3"/>
<circle cx="37.5875" cy="130.784" r="2.23986" fill="#FFEBA3"/>
<circle cx="37.5875" cy="167.182" r="2.23986" fill="#FFEBA3"/>
<circle cx="37.5875" cy="203.58" r="2.23986" fill="#FFEBA3"/>
<circle cx="37.5875" cy="239.978" r="2.23986" fill="#FFEBA3"/>
<circle cx="37.5875" cy="276.375" r="2.23986" fill="#FFEBA3"/>
<circle cx="70.0602" cy="21.5914" r="2.23986" fill="#FFEBA3"/>
<circle cx="70.0602" cy="57.9884" r="2.23986" fill="#FFEBA3"/>
<circle cx="70.0602" cy="94.3868" r="2.23986" fill="#FFEBA3"/>
<circle cx="70.0602" cy="130.784" r="2.23986" fill="#FFEBA3"/>
<circle cx="70.0602" cy="167.182" r="2.23986" fill="#FFEBA3"/>
<circle cx="70.0602" cy="203.58" r="2.23986" fill="#FFEBA3"/>
<circle cx="70.0602" cy="239.978" r="2.23986" fill="#FFEBA3"/>
<circle cx="70.0602" cy="276.375" r="2.23986" fill="#FFEBA3"/>
<circle cx="102.541" cy="21.5914" r="2.23986" fill="#FFEBA3"/>
<circle cx="102.541" cy="57.9884" r="2.23986" fill="#FFEBA3"/>
<circle cx="102.541" cy="94.3868" r="2.23986" fill="#FFEBA3"/>
<circle cx="102.541" cy="130.784" r="2.23986" fill="#FFEBA3"/>
<circle cx="102.541" cy="167.182" r="2.23986" fill="#FFEBA3"/>
<circle cx="102.541" cy="203.58" r="2.23986" fill="#FFEBA3"/>
<circle cx="102.541" cy="239.978" r="2.23986" fill="#FFEBA3"/>
<circle cx="102.541" cy="276.375" r="2.23986" fill="#FFEBA3"/>
<circle cx="135.017" cy="21.5914" r="2.23986" fill="#FFEBA3"/>
<circle cx="135.017" cy="57.9884" r="2.23986" fill="#FFEBA3"/>
<circle cx="135.017" cy="94.3868" r="2.23986" fill="#FFEBA3"/>
<circle cx="135.017" cy="130.784" r="2.23986" fill="#FFEBA3"/>
<circle cx="135.017" cy="167.182" r="2.23986" fill="#FFEBA3"/>
<circle cx="135.017" cy="203.58" r="2.23986" fill="#FFEBA3"/>
<circle cx="135.017" cy="239.978" r="2.23986" fill="#FFEBA3"/>
<circle cx="135.017" cy="276.375" r="2.23986" fill="#FFEBA3"/>
<circle cx="167.498" cy="21.5914" r="2.23986" fill="#FFEBA3"/>
<circle cx="167.498" cy="57.9884" r="2.23986" fill="#FFEBA3"/>
<circle cx="167.498" cy="94.3868" r="2.23986" fill="#FFEBA3"/>
<circle cx="167.498" cy="130.784" r="2.23986" fill="#FFEBA3"/>
<circle cx="167.498" cy="167.182" r="2.23986" fill="#FFEBA3"/>
<circle cx="167.498" cy="203.58" r="2.23986" fill="#FFEBA3"/>
<circle cx="167.498" cy="239.978" r="2.23986" fill="#FFEBA3"/>
<circle cx="167.498" cy="276.375" r="2.23986" fill="#FFEBA3"/>
<circle cx="199.974" cy="21.5914" r="2.23986" fill="#FFEBA3"/>
<circle cx="199.974" cy="57.9884" r="2.23986" fill="#FFEBA3"/>
<circle cx="199.974" cy="94.3868" r="2.23986" fill="#FFEBA3"/>
<circle cx="199.974" cy="130.784" r="2.23986" fill="#FFEBA3"/>
<circle cx="199.974" cy="167.182" r="2.23986" fill="#FFEBA3"/>
<circle cx="199.974" cy="203.58" r="2.23986" fill="#FFEBA3"/>
<circle cx="199.974" cy="239.978" r="2.23986" fill="#FFEBA3"/>
<circle cx="199.974" cy="276.375" r="2.23986" fill="#FFEBA3"/>
<circle cx="232.457" cy="21.5914" r="2.23986" fill="#FFEBA3"/>
<circle cx="232.457" cy="57.9884" r="2.23986" fill="#FFEBA3"/>
<circle cx="232.457" cy="94.3868" r="2.23986" fill="#FFEBA3"/>
<circle cx="232.457" cy="130.784" r="2.23986" fill="#FFEBA3"/>
<circle cx="232.457" cy="167.182" r="2.23986" fill="#FFEBA3"/>
<circle cx="232.457" cy="203.58" r="2.23986" fill="#FFEBA3"/>
<circle cx="232.457" cy="239.978" r="2.23986" fill="#FFEBA3"/>
<circle cx="232.457" cy="276.375" r="2.23986" fill="#FFEBA3"/>
<circle cx="264.933" cy="21.5914" r="2.23986" fill="#FFEBA3"/>
<circle cx="264.933" cy="57.9884" r="2.23986" fill="#FFEBA3"/>
<circle cx="264.933" cy="94.3868" r="2.23986" fill="#FFEBA3"/>
<circle cx="264.933" cy="130.784" r="2.23986" fill="#FFEBA3"/>
<circle cx="264.933" cy="167.182" r="2.23986" fill="#FFEBA3"/>
<circle cx="264.933" cy="203.58" r="2.23986" fill="#FFEBA3"/>
<circle cx="264.933" cy="239.978" r="2.23986" fill="#FFEBA3"/>
<circle cx="264.933" cy="276.375" r="2.23986" fill="#FFEBA3"/>
<circle cx="297.408" cy="21.5914" r="2.23986" fill="#FFEBA3"/>
<circle cx="297.408" cy="57.9884" r="2.23986" fill="#FFEBA3"/>
<circle cx="297.408" cy="94.3868" r="2.23986" fill="#FFEBA3"/>
<circle cx="297.408" cy="130.784" r="2.23986" fill="#FFEBA3"/>
<circle cx="297.408" cy="167.182" r="2.23986" fill="#FFEBA3"/>
<circle cx="297.408" cy="203.58" r="2.23986" fill="#FFEBA3"/>
<circle cx="297.408" cy="239.978" r="2.23986" fill="#FFEBA3"/>
<circle cx="297.408" cy="276.375" r="2.23986" fill="#FFEBA3"/>
<circle cx="329.886" cy="21.5914" r="2.23986" fill="#FFEBA3"/>
<circle cx="329.886" cy="57.9894" r="2.23986" fill="#FFEBA3"/>
<circle cx="329.886" cy="94.3868" r="2.23986" fill="#FFEBA3"/>
<circle cx="329.886" cy="130.785" r="2.23986" fill="#FFEBA3"/>
<circle cx="329.886" cy="167.182" r="2.23986" fill="#FFEBA3"/>
<circle cx="329.886" cy="203.58" r="2.23986" fill="#FFEBA3"/>
<circle cx="329.886" cy="239.978" r="2.23986" fill="#FFEBA3"/>
<circle cx="329.886" cy="276.375" r="2.23986" fill="#FFEBA3"/>
<circle cx="362.367" cy="21.5914" r="2.23986" fill="#FFEBA3"/>
<circle cx="362.367" cy="57.9894" r="2.23986" fill="#FFEBA3"/>
<circle cx="362.367" cy="94.3868" r="2.23986" fill="#FFEBA3"/>
<circle cx="362.367" cy="130.785" r="2.23986" fill="#FFEBA3"/>
<circle cx="362.367" cy="167.182" r="2.23986" fill="#FFEBA3"/>
<circle cx="362.367" cy="203.58" r="2.23986" fill="#FFEBA3"/>
<circle cx="362.367" cy="239.978" r="2.23986" fill="#FFEBA3"/>
<circle cx="362.367" cy="276.375" r="2.23986" fill="#FFEBA3"/>
<circle cx="394.839" cy="21.5914" r="2.23986" fill="#FFEBA3"/>
<circle cx="394.839" cy="57.9894" r="2.23986" fill="#FFEBA3"/>
<circle cx="394.839" cy="94.3868" r="2.23986" fill="#FFEBA3"/>
<circle cx="394.839" cy="130.785" r="2.23986" fill="#FFEBA3"/>
<circle cx="394.839" cy="167.182" r="2.23986" fill="#FFEBA3"/>
<circle cx="394.839" cy="203.58" r="2.23986" fill="#FFEBA3"/>
<circle cx="394.839" cy="239.978" r="2.23986" fill="#FFEBA3"/>
<circle cx="394.839" cy="276.375" r="2.23986" fill="#FFEBA3"/>
<rect x="186" y="207" width="97" height="14" fill="#8F8D89"/>
<path fill-rule="evenodd" clip-rule="evenodd" d="M278.436 56.9165H199.245V63.29H191.522V76.0356H184.209V100.731H176.083V116.664H167.955V148.53H176.083V168.445H184.209V174.818H191.522V181.192H199.245V181.262H199.727V187.757H270.566V181.262H278.436V174.766H286.306V63.4119H278.436V56.9165ZM294.178 76.4037H286.307V155.279H294.178V76.4037ZM294.179 99.6024H302.049V148.784H294.179V99.6024ZM262.694 187.758V194.253H207.597V187.758H262.694Z" fill="#D59F52"/>
<rect width="13.8159" height="28.6789" transform="matrix(-1 0 0 1 209.4 91.1709)" fill="#1A1918"/>
<rect width="7.3143" height="10.3563" transform="matrix(-1 0 0 1 202.896 94.3584)" fill="#FAFAFA"/>
<path d="M215.722 37H261.824V43.4957H215.722V37Z" fill="#1A1918"/>
<path d="M207.851 193.937H262.948V200.319H207.851V193.937Z" fill="#1A1918"/>
<path d="M271.165 49.7462H278.479V56.9159H270.819L271.165 49.7462Z" fill="#1A1918"/>
<path d="M207.851 49.9913H199.98V56.9159H207.851V49.9913Z" fill="#1A1918"/>
<path d="M215.722 43.4957H207.851V49.9913H215.722V43.4957Z" fill="#1A1918"/>
<path d="M271.165 43.4957H261.824V49.9913L271.165 49.7462V43.4957Z" fill="#1A1918"/>
<path d="M278.479 56.9159H286.561V63.289H278.479V56.9159Z" fill="#1A1918"/>
<path d="M199.98 56.9159H192.109V63.289H199.98V56.9159Z" fill="#1A1918"/>
<path d="M286.561 63.289H294.432V75.9739H286.561V63.289Z" fill="#1A1918"/>
<path d="M294.432 75.9739H302.303V99.1727H294.432V75.9739Z" fill="#1A1918"/>
<path d="M192.109 63.289H184.238V76.0351H192.109V63.289Z" fill="#1A1918"/>
<path d="M302.303 99.1727H310.174V148.354H302.303V99.1727Z" fill="#1A1918"/>
<path d="M176.079 76.0351H184.238V101.029H176.079V76.0351Z" fill="#1A1918"/>
<path d="M286.561 154.85H294.432V174.021H286.561V154.85Z" fill="#1A1918"/>
<path d="M176.079 148.354H167.952V167.648H176.079V148.354Z" fill="#1A1918"/>
<path d="M176.079 101.029H167.952V116.804H176.079V101.029Z" fill="#1A1918"/>
<path d="M278.69 174.021H286.561V180.832H278.69V174.021Z" fill="#1A1918"/>
<path d="M294.432 148.354H302.303V154.85H294.432V148.354Z" fill="#1A1918"/>
<path d="M191.52 174.818H184.238V181.191H191.52V174.818Z" fill="#1A1918"/>
<path d="M184.238 167.648H176.079V174.818H184.238V167.648Z" fill="#1A1918"/>
<path d="M271.165 180.832H278.69V187.564H271.165V180.832Z" fill="#1A1918"/>
<path d="M199.647 181.191H191.52V187.564H199.647V181.191Z" fill="#1A1918"/>
<path d="M262.948 187.564H271.165V193.937H262.948V187.564Z" fill="#1A1918"/>
<path d="M207.851 187.564H199.647V193.937H207.851V187.564Z" fill="#1A1918"/>
<path d="M160.625 116.804H167.952V148.354H160.625V116.804Z" fill="#1A1918"/>
<rect width="13.8159" height="28.6789" transform="matrix(-1 0 0 1 261.412 91.1709)" fill="#1A1918"/>
<rect width="7.3143" height="10.3563" transform="matrix(-1 0 0 1 254.908 94.3584)" fill="#FAFAFA"/>
<rect x="238.812" y="128.219" width="6.20537" height="7.44645" fill="#1A1918"/>
<rect x="216.473" y="128.219" width="22.3393" height="7.44645" fill="#FAFAFA"/>
<rect x="210.887" y="128.219" width="5.58484" height="7.44645" fill="#1A1918"/>
<rect x="210.887" y="123.254" width="34.1295" height="4.9643" fill="#1A1918"/>
<rect x="247.211" y="201.146" width="22.6269" height="5.78599" fill="#B17C31"/>
<rect x="197.207" y="201.107" width="19.5048" height="5.57645" fill="#B17C31"/>
<rect x="216.713" y="135.783" width="22.7556" height="6.37308" fill="#1A1918"/>
<rect x="247.596" y="193.938" width="22.7556" height="7.16972" fill="#1A1918"/>
<rect x="247.596" y="206.683" width="21.9429" height="7.16972" fill="#1A1918"/>
<rect x="195.584" y="206.683" width="21.1302" height="7.16972" fill="#1A1918"/>
<path fill-rule="evenodd" clip-rule="evenodd" d="M215.721 43.4966H261.822V49.7468H271.166V56.9165H261.82V62.9819H221.34V56.9165H207.775V49.7468H215.721V43.4966ZM233.707 62.9826H261.818V69.4782H233.707V62.9826Z" fill="#EBBA77"/>
<path fill-rule="evenodd" clip-rule="evenodd" d="M278.48 56.916H271.165V92.7646H278.479V154.852H270.821V161.346H248.333V167.842H240.463V174.337H278.694V174.022H286.606V154.85H294.434V75.9747H286.606V63.29H278.48V56.916ZM294.435 99.1743H302.305V148.356H294.435V99.1743ZM232.59 174.338V180.395H207.775V174.022H199.649L199.649 167.649L184.208 167.649V174.819H191.521V181.192H199.647V187.565L207.773 187.565V193.938H263.037V187.565L271.165 187.565V180.833H278.692V174.338H232.59ZM176.08 167.649V161.276H199.648V167.649H176.08Z" fill="#B17C31"/>
<rect x="264.662" y="193.938" width="6.5016" height="19.9159" fill="#1A1918"/>
<rect x="245.971" y="194.733" width="6.5016" height="19.1193" fill="#1A1918"/>
<rect x="195.584" y="193.938" width="5.6889" height="19.9159" fill="#1A1918"/>
<rect x="211.023" y="194.733" width="5.6889" height="19.1193" fill="#1A1918"/>
<rect x="195.584" y="193.938" width="21.1302" height="7.16972" fill="#1A1918"/>
<rect x="236.363" y="159.67" width="20.5744" height="7.2633" fill="#1A1918"/>
<rect x="236.363" y="146.757" width="5.53926" height="20.1758" fill="#1A1918"/>
<rect x="251.4" y="147.564" width="5.53926" height="19.3688" fill="#1A1918"/>
<rect x="236.363" y="146.757" width="20.5744" height="7.2633" fill="#1A1918"/>
<path d="M169.563 198.965L106.813 187.978L186.996 142.491L254.06 147.668L169.563 198.965Z" fill="#4E4C49"/>
<path d="M165.087 89.0723L111.445 116.576L112.444 122.134L166.015 94.233L165.087 89.0723Z" fill="#6A6966"/>
<path d="M166.046 94.334L112.475 122.235L113.403 127.396L167.045 99.8917L166.046 94.334Z" fill="#242321"/>
<path fill-rule="evenodd" clip-rule="evenodd" d="M105.128 112.551L106.216 118.693L95.1373 124.416L106.223 186.985L106.506 186.828L106.802 188.491L110.441 186.482L107.008 188.709L160.12 197.331L159.701 197.581L169.492 199.064L254.127 147.752L253.724 147.717L253.966 147.572L190.204 141.757L179.517 81.4389L170.458 86.3734L169.37 80.2316L105.128 112.551ZM238.139 150.694L184.178 145.773L113.259 184.926L166.711 193.391L238.139 150.694ZM116.475 176.594L110.959 179.587L101.595 126.737L107.169 124.067L116.475 176.594ZM184.641 139.61L180.307 141.961L171.478 92.1313L175.816 89.8029L184.641 139.61ZM111.926 116.791L120.223 163.622L172.91 134.339L165.02 89.8109L111.926 116.791ZM174.678 144.319L121.924 173.218L121.176 168.996L173.862 139.713L174.678 144.319Z" fill="#242321"/>
<path d="M165.215 89.0719L111.444 116.634L121.643 173.439L175.23 144.852L165.215 89.0719Z" fill="#8F8D89"/>
<path d="M138.23 134.976L147.468 129.132L146.519 132.031L145.213 137.035L146.988 138.733L149.473 140.295L140.117 145.482L138.23 134.976Z" fill="#FAFAFA"/>
<path d="M139.892 127.865L143.208 125.872L143.68 128.499L140.364 130.492L139.892 127.865Z" fill="#FAFAFA"/>
<path d="M101.602 126.587L117.103 118.566L126.564 171.139L110.98 180.034L101.602 126.587Z" fill="#8F8D89"/>
<path d="M164.211 95.3457L175.739 89.746L185.756 139.699L173.326 145.956L164.211 95.3457Z" fill="#8F8D89"/>
<path d="M97.1942 266.6V263.39H100.554V266.6H97.1942ZM118.493 266.6V263.39H121.853V266.6H118.493ZM139.792 266.6V263.39H143.152V266.6H139.792ZM166.311 252.56V253.94H162.831V252.56H165.021V251.21H167.211V249.92H169.401V248.66H170.901V246.14H163.731V244.85H180.831V246.14H173.661V248.66H175.161V249.92H177.351V251.21H179.541V252.56H181.731V253.94H178.251V252.56H176.091V251.24H173.751V249.89H170.811V251.24H168.471V252.56H166.311ZM160.461 257.6V256.28H184.101V257.6H174.201V262.28H172.851V263.6H171.501V257.6H160.461ZM163.491 262.55V261.2H166.431V262.52H167.841V266.78H178.341V265.52H180.981V266.87H179.691V268.04H166.191V266.78H164.841V262.55H163.491ZM208.534 245.45H209.944V266.54H208.534V267.86H207.094V245.45H205.744V244.1H208.534V245.45ZM188.134 246.98V245.63H190.894V246.98H192.304V251.78H199.714V245.78H202.444V259.61H201.124V260.9H190.894V259.55H189.484V246.98H188.134ZM192.304 259.61H199.714V253.07H192.304V259.61ZM222.736 251.81V253.19H219.256V251.81H221.446V250.46H223.636V249.17H225.826V247.91H227.326V245.84H220.156V244.55H237.256V245.84H230.086V247.91H231.586V249.17H233.776V250.46H235.966V251.81H238.156V253.19H234.676V251.81H232.516V250.49H230.176V249.14H227.236V250.49H224.896V251.81H222.736ZM216.886 256.58V255.26H240.526V256.58H230.086V260.09H232.366V261.41H233.806V262.61H235.186V265.97H233.806V267.2H232.366V268.52H225.076V267.2H223.666V265.97H222.256V262.61H223.666V261.41H225.076V260.09H227.326V256.58H216.886ZM225.076 265.97H226.486V267.2H230.926V265.97H232.366V262.64H230.926V261.41H226.486V262.64H225.076V265.97ZM256.218 266.6V263.39H259.578V266.6H256.218ZM277.516 266.6V263.39H280.876V266.6H277.516ZM298.815 266.6V263.39H302.175V266.6H298.815Z" fill="#1A1918"/>
<path d="M97.1942 266.6H96.9442V266.85H97.1942V266.6ZM97.1942 263.39V263.14H96.9442V263.39H97.1942ZM100.554 263.39H100.804V263.14H100.554V263.39ZM100.554 266.6V266.85H100.804V266.6H100.554ZM97.4442 266.6V263.39H96.9442V266.6H97.4442ZM97.1942 263.64H100.554V263.14H97.1942V263.64ZM100.304 263.39V266.6H100.804V263.39H100.304ZM100.554 266.35H97.1942V266.85H100.554V266.35ZM118.493 266.6H118.243V266.85H118.493V266.6ZM118.493 263.39V263.14H118.243V263.39H118.493ZM121.853 263.39H122.103V263.14H121.853V263.39ZM121.853 266.6V266.85H122.103V266.6H121.853ZM118.743 266.6V263.39H118.243V266.6H118.743ZM118.493 263.64H121.853V263.14H118.493V263.64ZM121.603 263.39V266.6H122.103V263.39H121.603ZM121.853 266.35H118.493V266.85H121.853V266.35ZM139.792 266.6H139.542V266.85H139.792V266.6ZM139.792 263.39V263.14H139.542V263.39H139.792ZM143.152 263.39H143.402V263.14H143.152V263.39ZM143.152 266.6V266.85H143.402V266.6H143.152ZM140.042 266.6V263.39H139.542V266.6H140.042ZM139.792 263.64H143.152V263.14H139.792V263.64ZM142.902 263.39V266.6H143.402V263.39H142.902ZM143.152 266.35H139.792V266.85H143.152V266.35ZM166.311 252.56V252.31H166.061V252.56H166.311ZM166.311 253.94V254.19H166.561V253.94H166.311ZM162.831 253.94H162.581V254.19H162.831V253.94ZM162.831 252.56V252.31H162.581V252.56H162.831ZM165.021 252.56V252.81H165.271V252.56H165.021ZM165.021 251.21V250.96H164.771V251.21H165.021ZM167.211 251.21V251.46H167.461V251.21H167.211ZM167.211 249.92V249.67H166.961V249.92H167.211ZM169.401 249.92V250.17H169.651V249.92H169.401ZM169.401 248.66V248.41H169.151V248.66H169.401ZM170.901 248.66V248.91H171.151V248.66H170.901ZM170.901 246.14H171.151V245.89H170.901V246.14ZM163.731 246.14H163.481V246.39H163.731V246.14ZM163.731 244.85V244.6H163.481V244.85H163.731ZM180.831 244.85H181.081V244.6H180.831V244.85ZM180.831 246.14V246.39H181.081V246.14H180.831ZM173.661 246.14V245.89H173.411V246.14H173.661ZM173.661 248.66H173.411V248.91H173.661V248.66ZM175.161 248.66H175.411V248.41H175.161V248.66ZM175.161 249.92H174.911V250.17H175.161V249.92ZM177.351 249.92H177.601V249.67H177.351V249.92ZM177.351 251.21H177.101V251.46H177.351V251.21ZM179.541 251.21H179.791V250.96H179.541V251.21ZM179.541 252.56H179.291V252.81H179.541V252.56ZM181.731 252.56H181.981V252.31H181.731V252.56ZM181.731 253.94V254.19H181.981V253.94H181.731ZM178.251 253.94H178.001V254.19H178.251V253.94ZM178.251 252.56H178.501V252.31H178.251V252.56ZM176.091 252.56H175.841V252.81H176.091V252.56ZM176.091 251.24H176.341V250.99H176.091V251.24ZM173.751 251.24H173.501V251.49H173.751V251.24ZM173.751 249.89H174.001V249.64H173.751V249.89ZM170.811 249.89V249.64H170.561V249.89H170.811ZM170.811 251.24V251.49H171.061V251.24H170.811ZM168.471 251.24V250.99H168.221V251.24H168.471ZM168.471 252.56V252.81H168.721V252.56H168.471ZM160.461 257.6H160.211V257.85H160.461V257.6ZM160.461 256.28V256.03H160.211V256.28H160.461ZM184.101 256.28H184.351V256.03H184.101V256.28ZM184.101 257.6V257.85H184.351V257.6H184.101ZM174.201 257.6V257.35H173.951V257.6H174.201ZM174.201 262.28V262.53H174.451V262.28H174.201ZM172.851 262.28V262.03H172.601V262.28H172.851ZM172.851 263.6V263.85H173.101V263.6H172.851ZM171.501 263.6H171.251V263.85H171.501V263.6ZM171.501 257.6H171.751V257.35H171.501V257.6ZM163.491 262.55H163.241V262.8H163.491V262.55ZM163.491 261.2V260.95H163.241V261.2H163.491ZM166.431 261.2H166.681V260.95H166.431V261.2ZM166.431 262.52H166.181V262.77H166.431V262.52ZM167.841 262.52H168.091V262.27H167.841V262.52ZM167.841 266.78H167.591V267.03H167.841V266.78ZM178.341 266.78V267.03H178.591V266.78H178.341ZM178.341 265.52V265.27H178.091V265.52H178.341ZM180.981 265.52H181.231V265.27H180.981V265.52ZM180.981 266.87V267.12H181.231V266.87H180.981ZM179.691 266.87V266.62H179.441V266.87H179.691ZM179.691 268.04V268.29H179.941V268.04H179.691ZM166.191 268.04H165.941V268.29H166.191V268.04ZM166.191 266.78H166.441V266.53H166.191V266.78ZM164.841 266.78H164.591V267.03H164.841V266.78ZM164.841 262.55H165.091V262.3H164.841V262.55ZM166.061 252.56V253.94H166.561V252.56H166.061ZM166.311 253.69H162.831V254.19H166.311V253.69ZM163.081 253.94V252.56H162.581V253.94H163.081ZM162.831 252.81H165.021V252.31H162.831V252.81ZM165.271 252.56V251.21H164.771V252.56H165.271ZM165.021 251.46H167.211V250.96H165.021V251.46ZM167.461 251.21V249.92H166.961V251.21H167.461ZM167.211 250.17H169.401V249.67H167.211V250.17ZM169.651 249.92V248.66H169.151V249.92H169.651ZM169.401 248.91H170.901V248.41H169.401V248.91ZM171.151 248.66V246.14H170.651V248.66H171.151ZM170.901 245.89H163.731V246.39H170.901V245.89ZM163.981 246.14V244.85H163.481V246.14H163.981ZM163.731 245.1H180.831V244.6H163.731V245.1ZM180.581 244.85V246.14H181.081V244.85H180.581ZM180.831 245.89H173.661V246.39H180.831V245.89ZM173.411 246.14V248.66H173.911V246.14H173.411ZM173.661 248.91H175.161V248.41H173.661V248.91ZM174.911 248.66V249.92H175.411V248.66H174.911ZM175.161 250.17H177.351V249.67H175.161V250.17ZM177.101 249.92V251.21H177.601V249.92H177.101ZM177.351 251.46H179.541V250.96H177.351V251.46ZM179.291 251.21V252.56H179.791V251.21H179.291ZM179.541 252.81H181.731V252.31H179.541V252.81ZM181.481 252.56V253.94H181.981V252.56H181.481ZM181.731 253.69H178.251V254.19H181.731V253.69ZM178.501 253.94V252.56H178.001V253.94H178.501ZM178.251 252.31H176.091V252.81H178.251V252.31ZM176.341 252.56V251.24H175.841V252.56H176.341ZM176.091 250.99H173.751V251.49H176.091V250.99ZM174.001 251.24V249.89H173.501V251.24H174.001ZM173.751 249.64H170.811V250.14H173.751V249.64ZM170.561 249.89V251.24H171.061V249.89H170.561ZM170.811 250.99H168.471V251.49H170.811V250.99ZM168.221 251.24V252.56H168.721V251.24H168.221ZM168.471 252.31H166.311V252.81H168.471V252.31ZM160.711 257.6V256.28H160.211V257.6H160.711ZM160.461 256.53H184.101V256.03H160.461V256.53ZM183.851 256.28V257.6H184.351V256.28H183.851ZM184.101 257.35H174.201V257.85H184.101V257.35ZM173.951 257.6V262.28H174.451V257.6H173.951ZM174.201 262.03H172.851V262.53H174.201V262.03ZM172.601 262.28V263.6H173.101V262.28H172.601ZM172.851 263.35H171.501V263.85H172.851V263.35ZM171.751 263.6V257.6H171.251V263.6H171.751ZM171.501 257.35H160.461V257.85H171.501V257.35ZM163.741 262.55V261.2H163.241V262.55H163.741ZM163.491 261.45H166.431V260.95H163.491V261.45ZM166.181 261.2V262.52H166.681V261.2H166.181ZM166.431 262.77H167.841V262.27H166.431V262.77ZM167.591 262.52V266.78H168.091V262.52H167.591ZM167.841 267.03H178.341V266.53H167.841V267.03ZM178.591 266.78V265.52H178.091V266.78H178.591ZM178.341 265.77H180.981V265.27H178.341V265.77ZM180.731 265.52V266.87H181.231V265.52H180.731ZM180.981 266.62H179.691V267.12H180.981V266.62ZM179.441 266.87V268.04H179.941V266.87H179.441ZM179.691 267.79H166.191V268.29H179.691V267.79ZM166.441 268.04V266.78H165.941V268.04H166.441ZM166.191 266.53H164.841V267.03H166.191V266.53ZM165.091 266.78V262.55H164.591V266.78H165.091ZM164.841 262.3H163.491V262.8H164.841V262.3ZM208.534 245.45H208.284V245.7H208.534V245.45ZM209.944 245.45H210.194V245.2H209.944V245.45ZM209.944 266.54V266.79H210.194V266.54H209.944ZM208.534 266.54V266.29H208.284V266.54H208.534ZM208.534 267.86V268.11H208.784V267.86H208.534ZM207.094 267.86H206.844V268.11H207.094V267.86ZM207.094 245.45H207.344V245.2H207.094V245.45ZM205.744 245.45H205.494V245.7H205.744V245.45ZM205.744 244.1V243.85H205.494V244.1H205.744ZM208.534 244.1H208.784V243.85H208.534V244.1ZM188.134 246.98H187.884V247.23H188.134V246.98ZM188.134 245.63V245.38H187.884V245.63H188.134ZM190.894 245.63H191.144V245.38H190.894V245.63ZM190.894 246.98H190.644V247.23H190.894V246.98ZM192.304 246.98H192.554V246.73H192.304V246.98ZM192.304 251.78H192.054V252.03H192.304V251.78ZM199.714 251.78V252.03H199.964V251.78H199.714ZM199.714 245.78V245.53H199.464V245.78H199.714ZM202.444 245.78H202.694V245.53H202.444V245.78ZM202.444 259.61V259.86H202.694V259.61H202.444ZM201.124 259.61V259.36H200.874V259.61H201.124ZM201.124 260.9V261.15H201.374V260.9H201.124ZM190.894 260.9H190.644V261.15H190.894V260.9ZM190.894 259.55H191.144V259.3H190.894V259.55ZM189.484 259.55H189.234V259.8H189.484V259.55ZM189.484 246.98H189.734V246.73H189.484V246.98ZM192.304 259.61H192.054V259.86H192.304V259.61ZM199.714 259.61V259.86H199.964V259.61H199.714ZM199.714 253.07H199.964V252.82H199.714V253.07ZM192.304 253.07V252.82H192.054V253.07H192.304ZM208.534 245.7H209.944V245.2H208.534V245.7ZM209.694 245.45V266.54H210.194V245.45H209.694ZM209.944 266.29H208.534V266.79H209.944V266.29ZM208.284 266.54V267.86H208.784V266.54H208.284ZM208.534 267.61H207.094V268.11H208.534V267.61ZM207.344 267.86V245.45H206.844V267.86H207.344ZM207.094 245.2H205.744V245.7H207.094V245.2ZM205.994 245.45V244.1H205.494V245.45H205.994ZM205.744 244.35H208.534V243.85H205.744V244.35ZM208.284 244.1V245.45H208.784V244.1H208.284ZM188.384 246.98V245.63H187.884V246.98H188.384ZM188.134 245.88H190.894V245.38H188.134V245.88ZM190.644 245.63V246.98H191.144V245.63H190.644ZM190.894 247.23H192.304V246.73H190.894V247.23ZM192.054 246.98V251.78H192.554V246.98H192.054ZM192.304 252.03H199.714V251.53H192.304V252.03ZM199.964 251.78V245.78H199.464V251.78H199.964ZM199.714 246.03H202.444V245.53H199.714V246.03ZM202.194 245.78V259.61H202.694V245.78H202.194ZM202.444 259.36H201.124V259.86H202.444V259.36ZM200.874 259.61V260.9H201.374V259.61H200.874ZM201.124 260.65H190.894V261.15H201.124V260.65ZM191.144 260.9V259.55H190.644V260.9H191.144ZM190.894 259.3H189.484V259.8H190.894V259.3ZM189.734 259.55V246.98H189.234V259.55H189.734ZM189.484 246.73H188.134V247.23H189.484V246.73ZM192.304 259.86H199.714V259.36H192.304V259.86ZM199.964 259.61V253.07H199.464V259.61H199.964ZM199.714 252.82H192.304V253.32H199.714V252.82ZM192.054 253.07V259.61H192.554V253.07H192.054ZM222.736 251.81V251.56H222.486V251.81H222.736ZM222.736 253.19V253.44H222.986V253.19H222.736ZM219.256 253.19H219.006V253.44H219.256V253.19ZM219.256 251.81V251.56H219.006V251.81H219.256ZM221.446 251.81V252.06H221.696V251.81H221.446ZM221.446 250.46V250.21H221.196V250.46H221.446ZM223.636 250.46V250.71H223.886V250.46H223.636ZM223.636 249.17V248.92H223.386V249.17H223.636ZM225.826 249.17V249.42H226.076V249.17H225.826ZM225.826 247.91V247.66H225.576V247.91H225.826ZM227.326 247.91V248.16H227.576V247.91H227.326ZM227.326 245.84H227.576V245.59H227.326V245.84ZM220.156 245.84H219.906V246.09H220.156V245.84ZM220.156 244.55V244.3H219.906V244.55H220.156ZM237.256 244.55H237.506V244.3H237.256V244.55ZM237.256 245.84V246.09H237.506V245.84H237.256ZM230.086 245.84V245.59H229.836V245.84H230.086ZM230.086 247.91H229.836V248.16H230.086V247.91ZM231.586 247.91H231.836V247.66H231.586V247.91ZM231.586 249.17H231.336V249.42H231.586V249.17ZM233.776 249.17H234.026V248.92H233.776V249.17ZM233.776 250.46H233.526V250.71H233.776V250.46ZM235.966 250.46H236.216V250.21H235.966V250.46ZM235.966 251.81H235.716V252.06H235.966V251.81ZM238.156 251.81H238.406V251.56H238.156V251.81ZM238.156 253.19V253.44H238.406V253.19H238.156ZM234.676 253.19H234.426V253.44H234.676V253.19ZM234.676 251.81H234.926V251.56H234.676V251.81ZM232.516 251.81H232.266V252.06H232.516V251.81ZM232.516 250.49H232.766V250.24H232.516V250.49ZM230.176 250.49H229.926V250.74H230.176V250.49ZM230.176 249.14H230.426V248.89H230.176V249.14ZM227.236 249.14V248.89H226.986V249.14H227.236ZM227.236 250.49V250.74H227.486V250.49H227.236ZM224.896 250.49V250.24H224.646V250.49H224.896ZM224.896 251.81V252.06H225.146V251.81H224.896ZM216.886 256.58H216.636V256.83H216.886V256.58ZM216.886 255.26V255.01H216.636V255.26H216.886ZM240.526 255.26H240.776V255.01H240.526V255.26ZM240.526 256.58V256.83H240.776V256.58H240.526ZM230.086 256.58V256.33H229.836V256.58H230.086ZM230.086 260.09H229.836V260.34H230.086V260.09ZM232.366 260.09H232.616V259.84H232.366V260.09ZM232.366 261.41H232.116V261.66H232.366V261.41ZM233.806 261.41H234.056V261.16H233.806V261.41ZM233.806 262.61H233.556V262.86H233.806V262.61ZM235.186 262.61H235.436V262.36H235.186V262.61ZM235.186 265.97V266.22H235.436V265.97H235.186ZM233.806 265.97V265.72H233.556V265.97H233.806ZM233.806 267.2V267.45H234.056V267.2H233.806ZM232.366 267.2V266.95H232.116V267.2H232.366ZM232.366 268.52V268.77H232.616V268.52H232.366ZM225.076 268.52H224.826V268.77H225.076V268.52ZM225.076 267.2H225.326V266.95H225.076V267.2ZM223.666 267.2H223.416V267.45H223.666V267.2ZM223.666 265.97H223.916V265.72H223.666V265.97ZM222.256 265.97H222.006V266.22H222.256V265.97ZM222.256 262.61V262.36H222.006V262.61H222.256ZM223.666 262.61V262.86H223.916V262.61H223.666ZM223.666 261.41V261.16H223.416V261.41H223.666ZM225.076 261.41V261.66H225.326V261.41H225.076ZM225.076 260.09V259.84H224.826V260.09H225.076ZM227.326 260.09V260.34H227.576V260.09H227.326ZM227.326 256.58H227.576V256.33H227.326V256.58ZM225.076 265.97H224.826V266.22H225.076V265.97ZM226.486 265.97H226.736V265.72H226.486V265.97ZM226.486 267.2H226.236V267.45H226.486V267.2ZM230.926 267.2V267.45H231.176V267.2H230.926ZM230.926 265.97V265.72H230.676V265.97H230.926ZM232.366 265.97V266.22H232.616V265.97H232.366ZM232.366 262.64H232.616V262.39H232.366V262.64ZM230.926 262.64H230.676V262.89H230.926V262.64ZM230.926 261.41H231.176V261.16H230.926V261.41ZM226.486 261.41V261.16H226.236V261.41H226.486ZM226.486 262.64V262.89H226.736V262.64H226.486ZM225.076 262.64V262.39H224.826V262.64H225.076ZM222.486 251.81V253.19H222.986V251.81H222.486ZM222.736 252.94H219.256V253.44H222.736V252.94ZM219.506 253.19V251.81H219.006V253.19H219.506ZM219.256 252.06H221.446V251.56H219.256V252.06ZM221.696 251.81V250.46H221.196V251.81H221.696ZM221.446 250.71H223.636V250.21H221.446V250.71ZM223.886 250.46V249.17H223.386V250.46H223.886ZM223.636 249.42H225.826V248.92H223.636V249.42ZM226.076 249.17V247.91H225.576V249.17H226.076ZM225.826 248.16H227.326V247.66H225.826V248.16ZM227.576 247.91V245.84H227.076V247.91H227.576ZM227.326 245.59H220.156V246.09H227.326V245.59ZM220.406 245.84V244.55H219.906V245.84H220.406ZM220.156 244.8H237.256V244.3H220.156V244.8ZM237.006 244.55V245.84H237.506V244.55H237.006ZM237.256 245.59H230.086V246.09H237.256V245.59ZM229.836 245.84V247.91H230.336V245.84H229.836ZM230.086 248.16H231.586V247.66H230.086V248.16ZM231.336 247.91V249.17H231.836V247.91H231.336ZM231.586 249.42H233.776V248.92H231.586V249.42ZM233.526 249.17V250.46H234.026V249.17H233.526ZM233.776 250.71H235.966V250.21H233.776V250.71ZM235.716 250.46V251.81H236.216V250.46H235.716ZM235.966 252.06H238.156V251.56H235.966V252.06ZM237.906 251.81V253.19H238.406V251.81H237.906ZM238.156 252.94H234.676V253.44H238.156V252.94ZM234.926 253.19V251.81H234.426V253.19H234.926ZM234.676 251.56H232.516V252.06H234.676V251.56ZM232.766 251.81V250.49H232.266V251.81H232.766ZM232.516 250.24H230.176V250.74H232.516V250.24ZM230.426 250.49V249.14H229.926V250.49H230.426ZM230.176 248.89H227.236V249.39H230.176V248.89ZM226.986 249.14V250.49H227.486V249.14H226.986ZM227.236 250.24H224.896V250.74H227.236V250.24ZM224.646 250.49V251.81H225.146V250.49H224.646ZM224.896 251.56H222.736V252.06H224.896V251.56ZM217.136 256.58V255.26H216.636V256.58H217.136ZM216.886 255.51H240.526V255.01H216.886V255.51ZM240.276 255.26V256.58H240.776V255.26H240.276ZM240.526 256.33H230.086V256.83H240.526V256.33ZM229.836 256.58V260.09H230.336V256.58H229.836ZM230.086 260.34H232.366V259.84H230.086V260.34ZM232.116 260.09V261.41H232.616V260.09H232.116ZM232.366 261.66H233.806V261.16H232.366V261.66ZM233.556 261.41V262.61H234.056V261.41H233.556ZM233.806 262.86H235.186V262.36H233.806V262.86ZM234.936 262.61V265.97H235.436V262.61H234.936ZM235.186 265.72H233.806V266.22H235.186V265.72ZM233.556 265.97V267.2H234.056V265.97H233.556ZM233.806 266.95H232.366V267.45H233.806V266.95ZM232.116 267.2V268.52H232.616V267.2H232.116ZM232.366 268.27H225.076V268.77H232.366V268.27ZM225.326 268.52V267.2H224.826V268.52H225.326ZM225.076 266.95H223.666V267.45H225.076V266.95ZM223.916 267.2V265.97H223.416V267.2H223.916ZM223.666 265.72H222.256V266.22H223.666V265.72ZM222.506 265.97V262.61H222.006V265.97H222.506ZM222.256 262.86H223.666V262.36H222.256V262.86ZM223.916 262.61V261.41H223.416V262.61H223.916ZM223.666 261.66H225.076V261.16H223.666V261.66ZM225.326 261.41V260.09H224.826V261.41H225.326ZM225.076 260.34H227.326V259.84H225.076V260.34ZM227.576 260.09V256.58H227.076V260.09H227.576ZM227.326 256.33H216.886V256.83H227.326V256.33ZM225.076 266.22H226.486V265.72H225.076V266.22ZM226.236 265.97V267.2H226.736V265.97H226.236ZM226.486 267.45H230.926V266.95H226.486V267.45ZM231.176 267.2V265.97H230.676V267.2H231.176ZM230.926 266.22H232.366V265.72H230.926V266.22ZM232.616 265.97V262.64H232.116V265.97H232.616ZM232.366 262.39H230.926V262.89H232.366V262.39ZM231.176 262.64V261.41H230.676V262.64H231.176ZM230.926 261.16H226.486V261.66H230.926V261.16ZM226.236 261.41V262.64H226.736V261.41H226.236ZM226.486 262.39H225.076V262.89H226.486V262.39ZM224.826 262.64V265.97H225.326V262.64H224.826ZM256.218 266.6H255.968V266.85H256.218V266.6ZM256.218 263.39V263.14H255.968V263.39H256.218ZM259.578 263.39H259.828V263.14H259.578V263.39ZM259.578 266.6V266.85H259.828V266.6H259.578ZM256.468 266.6V263.39H255.968V266.6H256.468ZM256.218 263.64H259.578V263.14H256.218V263.64ZM259.328 263.39V266.6H259.828V263.39H259.328ZM259.578 266.35H256.218V266.85H259.578V266.35ZM277.516 266.6H277.266V266.85H277.516V266.6ZM277.516 263.39V263.14H277.266V263.39H277.516ZM280.876 263.39H281.126V263.14H280.876V263.39ZM280.876 266.6V266.85H281.126V266.6H280.876ZM277.766 266.6V263.39H277.266V266.6H277.766ZM277.516 263.64H280.876V263.14H277.516V263.64ZM280.626 263.39V266.6H281.126V263.39H280.626ZM280.876 266.35H277.516V266.85H280.876V266.35ZM298.815 266.6H298.565V266.85H298.815V266.6ZM298.815 263.39V263.14H298.565V263.39H298.815ZM302.175 263.39H302.425V263.14H302.175V263.39ZM302.175 266.6V266.85H302.425V266.6H302.175ZM299.065 266.6V263.39H298.565V266.6H299.065ZM298.815 263.64H302.175V263.14H298.815V263.64ZM301.925 263.39V266.6H302.425V263.39H301.925ZM302.175 266.35H298.815V266.85H302.175V266.35Z" fill="#1A1918"/>
</g>
<defs>
<clipPath id="clip0_9193_21521">
<rect width="400" height="300" fill="white"/>
</clipPath>
</defs>
</svg>
