<svg width="123" height="29" viewBox="0 0 123 29" fill="none" xmlns="http://www.w3.org/2000/svg">
<path d="M100.523 15.0968H98.9114V2.94449H100.556V1.53455H117.106V2.94449H102.235V7.91285H116.771V9.32279H102.235V15.0968H116.267V13.6869H119.288V15.1975H117.778V16.5403H100.523V15.0968ZM95.6216 24.06V22.5829H122.075V24.06H95.6216Z" fill="#1A1918" stroke="#1A1918" stroke-width="0.5"/>
<path d="M87.6846 2.00455H89.1953V14.5262H87.6846V16.0032H86.174V2.00455H84.6633V0.493896H87.6846V2.00455ZM62.7085 15.6675V14.1569H64.2863V12.6462H65.8641V11.1356H67.4419V9.65851H69.0533V3.28021H64.0513V1.87027H76.6736V3.28021H72.1081V9.65851H73.6188V11.0349H75.1294V12.4112H76.6401V13.754H78.1507V15.164H75.2637V13.754H73.7531V12.4112H72.1753V11.0684H68.9861V12.6462H67.3076V14.1569H65.7298V15.6675H62.7085ZM70.3289 19.3267V17.8496H88.1882V26.3764H86.5097V27.8534H84.8312V19.3267H70.3289ZM75.9687 8.34928V7.00648H80.6013V2.67595H79.0907V1.1653H82.0448V2.67595H83.4884V14.4254H82.0448V15.9025H80.6013V8.34928H75.9687Z" fill="#1A1918" stroke="#1A1918" stroke-width="0.5"/>
<path d="M37.3823 16.2046V14.7611H35.771V9.28922H37.4159V7.87928H51.0117V2.94449H36.5095V1.53455H52.7238V2.91092H54.3687V7.87928H52.7238V9.28922H39.0944V14.7611H53.1938V13.3512H56.1479V14.8618H54.7044V16.2046H37.3823ZM32.4811 24.1943V22.7172H44.1635V19.2259H42.6192V17.7153H45.9427V19.2259H47.554V22.7172H58.9343V24.1943H32.4811Z" fill="#1A1918" stroke="#1A1918" stroke-width="0.5"/>
<path d="M25.0477 2.03809V3.54873H2.99221V2.03809H25.0477ZM0.910873 23.7579V22.2808H27.364V23.7579H0.910873ZM3.05935 16.2046V14.694H8.76625V13.0826H7.12132V5.26081H10.4783V13.0826H12.1233V14.694H15.9167V13.0826H17.5616V5.26081H20.9186V13.0826H19.2737V14.694H24.9806V16.2046H3.05935Z" fill="#1A1918" stroke="#1A1918" stroke-width="0.5"/>
</svg>
