<svg width="214" height="73" viewBox="0 0 214 73" fill="none" xmlns="http://www.w3.org/2000/svg">
<path d="M206.826 67.7538V65.3181L7.01964 65.3181V67.7538H206.826Z" fill="#DFDDDA"/>
<path d="M4.67976 65.3181H7.01964V62.8824H4.67976V65.3181Z" fill="#DFDDDA"/>
<path d="M2.33988 62.8824H4.67976V60.4466H2.33988V62.8824Z" fill="#DFDDDA"/>
<path d="M206.826 65.3181L209.166 65.3181V62.8824H206.826V65.3181Z" fill="#DFDDDA"/>
<path d="M209.166 62.8824H211.506V60.4466H209.166V62.8824Z" fill="#DFDDDA"/>
<path d="M206.826 70.1896V67.7538H7.01964V70.1896H206.826Z" fill="#6A6967"/>
<path d="M4.67976 67.7538H7.01964V65.3181H4.67976V67.7538Z" fill="#6A6967"/>
<path d="M2.33988 65.3181H4.67976V62.8824H2.33988V65.3181Z" fill="#6A6967"/>
<path d="M206.826 67.7538H209.166V65.3181L206.826 65.3181V67.7538Z" fill="#6A6967"/>
<path d="M209.166 65.3181H211.506V62.8824H209.166V65.3181Z" fill="#6A6967"/>
<path d="M206.826 72.6253V70.1896H7.01964L7.01964 72.6253H206.826Z" fill="#1A1918"/>
<path d="M213.846 6.90124H211.506V65.3181H213.846V6.90124Z" fill="#1A1918"/>
<path d="M2.38652e-06 6.90124H2.33988L2.33988 65.3181H0L2.38652e-06 6.90124Z" fill="#1A1918"/>
<path d="M209.166 6.90124H211.506V4.46551H209.166V6.90124Z" fill="#1A1918"/>
<path d="M209.166 67.7538H211.506V65.3181H209.166V67.7538Z" fill="#1A1918"/>
<path d="M4.67976 67.7538H2.33988L2.33988 65.3181H4.67976V67.7538Z" fill="#1A1918"/>
<path d="M206.826 70.1896H209.166V67.7538H206.826V70.1896Z" fill="#1A1918"/>
<path d="M7.01964 70.1896H4.67976L4.67976 67.7538H7.01964V70.1896Z" fill="#1A1918"/>
<path d="M2.33988 6.90124H4.67976V4.46551H2.33988L2.33988 6.90124Z" fill="#1A1918"/>
<path d="M7.01964 60.8526H9.35952V58.4169H7.01964V60.8526Z" fill="#1A1918"/>
<path d="M204.486 0V2.43573H9.35952V0H204.486Z" fill="#1A1918"/>
<path d="M7.01964 4.87146V2.43573H9.35952V4.87146H7.01964Z" fill="#1A1918"/>
<path d="M7.01964 4.87146V58.4169H4.67976V4.87146H7.01964Z" fill="#1A1918"/>
<path d="M206.826 4.87146V2.43573H204.486V4.87146H206.826Z" fill="#1A1918"/>
<path d="M206.826 58.4169H209.166V4.87146H206.826V58.4169Z" fill="#1A1918"/>
<path d="M204.486 60.8526V58.4169H206.826V60.8526H204.486Z" fill="#1A1918"/>
<path d="M204.486 60.8526H9.35952V63.2883H204.486V60.8526Z" fill="#1A1918"/>
<path d="M2.33988 6.90124H4.67976L4.67976 60.4466H2.33988L2.33988 6.90124Z" fill="#AAA9A6"/>
<path d="M211.506 6.90124H209.166V60.4466H211.506V6.90124Z" fill="#AAA9A6"/>
<path d="M4.67976 58.4169H7.01964V60.8526H4.67976V58.4169Z" fill="#AAA9A6"/>
<path d="M209.166 58.4169H206.826V60.8526H209.166V58.4169Z" fill="#AAA9A6"/>
<path d="M7.01964 63.2883H206.826V65.3181L7.01964 65.3181V63.2883Z" fill="#AAA9A6"/>
<path d="M4.67976 60.8526H9.35952V63.2883H4.67976V60.8526Z" fill="#AAA9A6"/>
<path d="M209.166 60.8526H204.486V63.2883H209.166V60.8526Z" fill="#AAA9A6"/>
<path d="M204.486 60.8526V58.4169H9.35952V60.8526H204.486Z" fill="#FFDA58"/>
<path d="M7.01964 58.4169H9.35952V55.9811H7.01964V58.4169Z" fill="#FFDA58"/>
<path d="M204.486 58.4169H206.826V55.9811H204.486V58.4169Z" fill="#FFDA58"/>
<path d="M204.486 2.43573V4.87146H9.35952V2.43573H204.486Z" fill="#FFDA58"/>
<path d="M7.01964 4.87146H9.35952V7.3072H7.01964V4.87146Z" fill="#FFDA58"/>
<path d="M204.486 4.87146H206.826V7.3072H204.486V4.87146Z" fill="#FFDA58"/>
<path d="M7.01964 7.3072H9.35952V9.74292H7.01964V7.3072Z" fill="#FFFCF4"/>
<path d="M7.01964 55.9811H9.35952V53.5454H7.01964V55.9811Z" fill="#FFFCF4"/>
<path d="M206.826 7.3072H204.486V9.74292H206.826V7.3072Z" fill="#FFFCF4"/>
<path d="M206.826 55.9811H204.486V53.5454H206.826V55.9811Z" fill="#FFFCF4"/>
<path d="M9.35952 4.87146H11.6994V7.30719L9.35952 7.3072V4.87146Z" fill="#FFFCF4"/>
<path d="M9.35952 58.4169H11.6994V55.9811H9.35952V58.4169Z" fill="#FFFCF4"/>
<path d="M204.486 4.87146H202.146V7.30719L204.486 7.3072V4.87146Z" fill="#FFFCF4"/>
<path d="M204.486 58.4169H202.146V55.9811H204.486V58.4169Z" fill="#FFFCF4"/>
<path d="M9.35952 9.74292H7.01964V53.5454H9.35952V55.9811H11.6994V58.4169H202.146V55.9811H204.486V53.5454H206.826V9.74292H204.486V7.3072L202.146 7.30719V4.87146H11.6994V7.30719L9.35952 7.3072V9.74292Z" fill="#FFA000"/>
<path d="M145.523 34.0969H143.911V21.9446H145.556V20.5347H162.106V21.9446H147.235V26.913H161.771V28.3229H147.235V34.0969H161.267V32.687H164.288V34.1977H162.778V35.5405H145.523V34.0969ZM140.622 43.0601V41.5831H167.075V43.0601H140.622Z" fill="#1A1918" stroke="#1A1918" stroke-width="0.5"/>
<path d="M132.685 21.0045H134.195V33.5262H132.685V35.0032H131.174V21.0045H129.663V19.4939H132.685V21.0045ZM107.709 34.6675V33.1569H109.286V31.6462H110.864V30.1356H112.442V28.6585H114.053V22.2802H109.051V20.8703H121.674V22.2802H117.108V28.6585H118.619V30.0349H120.129V31.4112H121.64V32.754H123.151V34.164H120.264V32.754H118.753V31.4112H117.175V30.0684H113.986V31.6462H112.308V33.1569H110.73V34.6675H107.709ZM115.329 38.3267V36.8496H133.188V45.3764H131.51V46.8534H129.831V38.3267H115.329ZM120.969 27.3493V26.0065H125.601V21.6759H124.091V20.1653H127.045V21.6759H128.488V33.4254H127.045V34.9025H125.601V27.3493H120.969Z" fill="#1A1918" stroke="#1A1918" stroke-width="0.5"/>
<path d="M82.3823 35.2048V33.7612H80.771V28.2893H82.4159V26.8794H96.0117V21.9446H81.5095V20.5347H97.7238V21.911H99.3687V26.8794H97.7238V28.2893H84.0944V33.7612H98.1938V32.3513H101.148V33.862H99.7044V35.2048H82.3823ZM77.4811 43.1944V41.7173H89.1635V38.2261H87.6192V36.7154H90.9427V38.2261H92.554V41.7173H103.934V43.1944H77.4811Z" fill="#1A1918" stroke="#1A1918" stroke-width="0.5"/>
<path d="M70.0477 21.0381V22.5487H47.9922V21.0381H70.0477ZM45.9109 42.7579V41.2808H72.364V42.7579H45.9109ZM48.0594 35.2046V33.694H53.7663V32.0826H52.1213V24.2608H55.4783V32.0826H57.1233V33.694H60.9167V32.0826H62.5616V24.2608H65.9186V32.0826H64.2737V33.694H69.9806V35.2046H48.0594Z" fill="#1A1918" stroke="#1A1918" stroke-width="0.5"/>
</svg>
