<svg xmlns="http://www.w3.org/2000/svg" width="50" height="50" viewBox="0 0 50 50" fill="none">
  <path d="M45.8333 16.6666V12.5H43.75V10.4166H41.6667V8.33329H37.5V6.24996H31.25V4.16663H18.75V6.24996H12.5V8.33329H8.33334V10.4166H6.25001V12.5H4.16668V16.6666H2.08334V29.1666H4.16668V33.3333H6.25001V37.5H4.16668V39.5833H2.08334V43.75H12.5V41.6666H14.5833V39.5833H18.75V41.6666H31.25V39.5833H37.5V37.5H41.6667V35.4166H43.75V33.3333H45.8333V29.1666H47.9167V16.6666H45.8333ZM14.5833 31.25H16.6667V29.1666H18.75V25H14.5833V14.5833H22.9167V31.25H20.8333V33.3333H14.5833V31.25ZM27.0833 31.25H29.1667V29.1666H31.25V25H27.0833V14.5833H35.4167V31.25H33.3333V33.3333H27.0833V31.25Z" fill="#FFA000"/>
</svg>