<svg width="14" height="13" viewBox="0 0 14 13" fill="none" xmlns="http://www.w3.org/2000/svg">
<g clip-path="url(#clip0_10118_19614)">
<path d="M11.0564 3.50902V6.53859H10.5515V7.04352H10.0466V7.54845H9.03673V8.05338H6.00716V6.53859H7.52194V7.04352H9.54166V6.53859H10.0466V6.03366H10.5515V4.01395H10.0466V3.00409H9.54166V2.49916H9.03673V1.99423H8.5318V1.4893H5.50223V1.99423H4.9973V2.49916H4.49237V3.00409H3.98744V4.01395H3.48251V6.03366H2.97758V5.52873H2.47266V4.01395H2.97758V3.50902H3.48251V2.49916H3.98744V1.99423H4.49237V1.4893H4.9973V0.984375H9.03673V1.4893H9.54166V1.99423H10.0466V2.49916H10.5515V3.50902H11.0564Z" fill="#FFA000"/>
<path d="M10.0474 4.51776V5.52762H9.5425V6.03255H9.03757V6.53748H8.02771V6.03255H5.50307V7.54733H4.99814V7.04241H4.49321V6.53748H3.98828V4.51776H4.49321V3.5079H4.99814V3.00298H5.50307V2.49805H8.53264V3.00298H9.03757V3.5079H9.5425V4.51776H10.0474Z" fill="black"/>
<path d="M12.0673 10.0714V11.5862H11.5624V12.0911H2.47368V11.5862H1.96875V10.0714H2.47368V9.5665H2.97861V9.06157H3.48354V8.55664H5.50325V9.06157H8.53282V8.55664H10.5525V9.06157H11.0575V9.5665H11.5624V10.0714H12.0673Z" fill="black"/>
</g>
<defs>
<clipPath id="clip0_10118_19614">
<rect width="12.1183" height="12.1183" fill="white" transform="translate(0.957031 0.478516)"/>
</clipPath>
</defs>
</svg>
