<svg width="52" height="64" viewBox="0 0 52 64" fill="none" xmlns="http://www.w3.org/2000/svg">
<path d="M40.1755 5.54199H16.6227V11.0838H11.0809V18.0111H5.53906V51.2621H11.0809V58.1893H40.1755V51.2621H45.7173V18.0111H40.1755V5.54199Z" fill="#FFB800"/>
<rect x="22.8594" y="31.8652" width="5.54183" height="20.0891" fill="#FFD582"/>
<rect x="16.625" width="23.5528" height="5.54183" fill="#190D11"/>
<rect x="11.082" y="5.54199" width="5.54183" height="5.54183" fill="#190D11"/>
<rect x="5.53906" y="45.7207" width="5.54183" height="5.54183" fill="#B96F3A"/>
<rect x="11.082" y="45.7207" width="5.54183" height="6.92728" fill="#BF6717"/>
<rect x="11.082" y="52.6475" width="11.7764" height="5.54183" fill="#BF6717"/>
<rect x="29.0938" y="24.9385" width="5.54183" height="5.54183" fill="#FFD582"/>
<rect x="40.1797" y="45.7207" width="5.54183" height="5.54183" fill="#DB954C"/>
<rect x="40.1797" y="40.1787" width="5.54183" height="5.54183" fill="#FFD582"/>
<rect x="22.8594" y="37.4072" width="5.54183" height="7.62001" fill="#190D11"/>
<rect x="17.3203" y="24.9385" width="5.54183" height="20.0891" fill="#FFD582"/>
<rect x="23.5547" y="11.084" width="5.54183" height="7.62001" fill="#FFD582"/>
<rect x="34.6367" y="40.1787" width="5.54183" height="11.0837" fill="#FFD582"/>
<rect x="34.6367" y="5.54199" width="5.54183" height="5.54183" fill="#FDFBFB"/>
<rect x="34.6367" y="24.9385" width="11.0837" height="5.54183" fill="#FDFBFB"/>
<rect x="34.6367" y="34.6367" width="11.0837" height="5.54183" fill="#FFD582"/>
<rect x="11.082" y="58.1895" width="29.0946" height="5.54183" fill="#190D11"/>
<rect y="18.0107" width="5.54183" height="33.251" fill="#190D11"/>
<rect x="5.53906" y="18.0107" width="5.54183" height="27.7091" fill="#BF6717"/>
<rect x="5.53906" y="11.084" width="5.54183" height="6.92728" fill="#190D11"/>
<rect x="11.082" y="11.084" width="5.54183" height="6.92728" fill="#BF6717"/>
<rect x="34.6367" y="11.084" width="5.54183" height="13.8546" fill="#FFD582"/>
<rect x="5.53906" y="51.2617" width="5.54183" height="6.92728" fill="#190D11"/>
<rect x="40.1797" y="51.2617" width="5.54183" height="6.92728" fill="#190D11"/>
<rect x="40.1797" y="5.54199" width="5.54183" height="12.4691" fill="#190D11"/>
<rect x="45.7188" y="18.0107" width="5.54183" height="33.251" fill="#190D11"/>
</svg>
