<svg width="54" height="83" viewBox="0 0 54 83" fill="none" xmlns="http://www.w3.org/2000/svg">
<rect x="8.24609" y="40.7305" width="37.1258" height="34.2329" fill="#EF4D3C"/>
<path d="M22.712 4.56938L23.1942 4.56941L23.1942 13.2482L30.6676 13.2482L30.6676 4.56941L41.516 4.56941L41.516 13.2482L49.2305 13.2482L49.2305 26.7485L45.3723 26.7485L45.3723 40.7309L8.24649 40.7309L8.24649 31.6905L4.14819 31.6905L4.14819 13.6097L12.1037 13.6097L12.1037 4.56933L22.712 4.56938Z" fill="#FFB800"/>
<rect x="0.53125" y="29.1592" width="3.85723" height="41.9474" fill="#190D11"/>
<rect x="4.38672" y="33.0166" width="3.85723" height="38.0901" fill="#FFCDA9"/>
<rect x="45.3711" y="33.0166" width="3.85723" height="32.7864" fill="#6E2B24"/>
<rect x="41.5156" y="40.7305" width="3.85723" height="34.2329" fill="#97372E"/>
<rect x="37.6562" y="65.8027" width="3.85723" height="9.16092" fill="#B14D43"/>
<rect x="49.2305" y="29.1592" width="3.85723" height="41.9474" fill="#190D11"/>
<rect x="4.38672" y="29.1592" width="3.85723" height="3.85723" fill="#190D11"/>
<rect x="11.6211" y="16.1406" width="3.85723" height="3.85723" fill="#190D11"/>
<rect x="18.8516" y="28.1943" width="3.85723" height="12.536" fill="#190D11"/>
<rect x="20.7812" y="17.1055" width="3.85723" height="17.8397" transform="rotate(-90 20.7812 17.1055)" fill="#190D11"/>
<rect x="45.3711" y="29.1592" width="3.85723" height="3.85723" fill="#190D11"/>
<rect x="8.24609" y="33.0166" width="3.85723" height="3.85723" fill="#190D11"/>
<rect x="8.24609" y="36.873" width="3.85723" height="3.85723" fill="#FFCDA9"/>
<rect x="41.5156" y="33.0166" width="3.85723" height="7.71445" fill="#190D11"/>
<rect x="12.1016" y="36.873" width="3.85723" height="3.85723" fill="#190D11"/>
<rect x="8.24609" y="4.56934" width="3.85723" height="7.71445" fill="#190D11"/>
<rect x="49.2305" y="13.248" width="3.85723" height="13.5003" fill="#190D11"/>
<rect x="23.6758" y="0.711914" width="3.85723" height="11.5717" transform="rotate(90 23.6758 0.711914)" fill="#190D11"/>
<rect x="19.8164" y="4.56934" width="3.85723" height="3.85723" transform="rotate(90 19.8164 4.56934)" fill="#FFDC83"/>
<rect x="41.5156" y="4.56934" width="3.85723" height="3.85723" transform="rotate(90 41.5156 4.56934)" fill="#FFDC83"/>
<rect x="19.3359" y="24.3369" width="3.85723" height="3.85723" transform="rotate(90 19.3359 24.3369)" fill="#BF6717"/>
<rect x="18.8516" y="36.873" width="3.85723" height="2.89292" transform="rotate(90 18.8516 36.873)" fill="#BF6717"/>
<rect x="11.6211" y="16.1406" width="3.85723" height="7.2323" transform="rotate(90 11.6211 16.1406)" fill="#FFDC83"/>
<rect x="15.4766" y="19.998" width="8.19661" height="3.85723" transform="rotate(90 15.4766 19.998)" fill="#BF6717"/>
<rect x="34.7656" y="17.1055" width="23.6255" height="3.85723" transform="rotate(90 34.7656 17.1055)" fill="#BF6717"/>
<rect x="41.5156" y="8.42578" width="8.67876" height="3.85723" transform="rotate(90 41.5156 8.42578)" fill="#BF6717"/>
<rect x="49.2305" y="17.1055" width="12.0538" height="3.85723" transform="rotate(90 49.2305 17.1055)" fill="#BF6717"/>
<rect x="41.5156" y="29.1592" width="11.5717" height="6.75015" transform="rotate(90 41.5156 29.1592)" fill="#BF6717"/>
<rect x="45.3711" y="13.248" width="3.85723" height="3.85723" transform="rotate(90 45.3711 13.248)" fill="#FFDC83"/>
<rect x="45.3711" y="29.1592" width="3.85723" height="3.85723" transform="rotate(90 45.3711 29.1592)" fill="#FFDC83"/>
<rect x="38.6211" y="25.3018" width="3.85723" height="3.85723" transform="rotate(90 38.6211 25.3018)" fill="#FFDC83"/>
<rect x="38.6211" y="17.1055" width="8.19661" height="3.85723" transform="rotate(90 38.6211 17.1055)" fill="#FFDC83"/>
<rect x="30.9102" y="13.248" width="3.85723" height="3.85723" transform="rotate(90 30.9102 13.248)" fill="#FFDC83"/>
<rect x="26.5664" y="28.1943" width="3.85723" height="3.85723" transform="rotate(90 26.5664 28.1943)" fill="#FFDC83"/>
<rect x="24.6367" y="17.1055" width="7.2323" height="3.85723" transform="rotate(90 24.6367 17.1055)" fill="#FFDC83"/>
<rect x="30.9102" y="32.0518" width="4.33938" height="3.85723" transform="rotate(-180 30.9102 32.0518)" fill="#FFDC83"/>
<rect x="41.5156" y="0.711914" width="3.85723" height="10.6074" transform="rotate(90 41.5156 0.711914)" fill="#190D11"/>
<rect x="45.3711" y="13.248" width="3.85723" height="8.67876" transform="rotate(-180 45.3711 13.248)" fill="#190D11"/>
<rect x="45.3711" y="13.248" width="3.85723" height="7.71445" transform="rotate(-90 45.3711 13.248)" fill="#190D11"/>
<rect x="30.9102" y="13.248" width="3.85723" height="8.67876" transform="rotate(-180 30.9102 13.248)" fill="#190D11"/>
<rect x="27.0508" y="13.248" width="3.85723" height="3.85723" transform="rotate(-180 27.0508 13.248)" fill="#190D11"/>
<rect x="4.38672" y="12.2832" width="11.0895" height="3.85723" fill="#190D11"/>
<rect x="0.53125" y="12.2832" width="3.85723" height="14.4646" fill="#190D11"/>
<rect x="15.9609" y="40.7305" width="21.6969" height="3.85723" fill="#190D11"/>
<rect x="37.6562" y="36.873" width="3.85723" height="3.85723" fill="#190D11"/>
<rect x="10.1758" y="74.9639" width="35.1972" height="3.85723" fill="#190D11"/>
<rect x="14.5117" y="78.8213" width="26.5184" height="3.85723" fill="#190D11"/>
<rect x="4.38672" y="71.1064" width="5.78584" height="3.85723" fill="#190D11"/>
<rect x="45.3711" y="74.9639" width="9.16092" height="3.85723" transform="rotate(-90 45.3711 74.9639)" fill="#190D11"/>
</svg>
