<svg width="77" height="77" viewBox="0 0 77 77" fill="none" xmlns="http://www.w3.org/2000/svg">
<rect x="4.71094" y="0.380859" width="8.40678" height="4.20339" fill="#190D11"/>
<rect x="4.71094" y="4.58398" width="8.40678" height="8.40678" fill="#BDB69F"/>
<rect x="55.1523" y="55.0254" width="8.40678" height="4.20339" fill="#BDB69F"/>
<rect x="59.3555" y="59.2285" width="8.40678" height="4.20339" fill="#BDB69F"/>
<rect x="63.5586" y="63.4316" width="8.40678" height="4.20339" fill="#BDB69F"/>
<rect x="13.1172" y="4.58398" width="4.20339" height="4.20339" fill="#190D11"/>
<rect x="13.1172" y="8.78711" width="4.20339" height="8.40678" fill="#767266"/>
<rect x="50.9492" y="46.6182" width="4.20339" height="12.6102" fill="#767266"/>
<rect x="59.3555" y="50.8213" width="4.20339" height="12.6102" transform="rotate(90 59.3555 50.8213)" fill="#767266"/>
<rect x="25.7266" y="21.3975" width="4.20339" height="8.40678" fill="#767266"/>
<rect x="38.3398" y="34.0078" width="4.20339" height="8.40678" fill="#767266"/>
<rect x="8.91406" y="12.9912" width="4.20339" height="4.20339" fill="#767266"/>
<rect x="21.5234" y="25.6016" width="4.20339" height="4.20339" fill="#767266"/>
<rect x="34.1328" y="38.2109" width="4.20339" height="4.20339" fill="#767266"/>
<rect x="17.3203" y="12.9912" width="4.20339" height="4.20339" fill="#87480D"/>
<rect x="13.1172" y="17.1943" width="4.20339" height="4.20339" fill="#87480D"/>
<rect x="38.3398" y="42.415" width="4.20339" height="4.20339" fill="#87480D"/>
<rect x="8.91406" y="29.8047" width="4.20339" height="4.20339" fill="#87480D"/>
<rect x="25.7266" y="38.2109" width="4.20339" height="4.20339" fill="#87480D"/>
<rect x="42.543" y="21.3975" width="4.20339" height="4.20339" fill="#87480D"/>
<rect x="55.1523" y="34.0078" width="4.20339" height="4.20339" fill="#87480D"/>
<rect x="17.3203" y="8.78711" width="8.40678" height="4.20339" fill="#190D11"/>
<rect x="4.71094" y="12.9912" width="4.20339" height="4.20339" fill="#190D11"/>
<rect x="8.91406" y="34.0078" width="4.20339" height="4.20339" fill="#190D11"/>
<rect x="17.3203" y="38.2109" width="4.20339" height="8.40678" fill="#190D11"/>
<rect x="21.5234" y="38.2109" width="4.20339" height="8.40678" fill="#BF6717"/>
<rect x="17.3203" y="25.6016" width="4.20339" height="8.40678" transform="rotate(90 17.3203 25.6016)" fill="#BF6717"/>
<rect x="34.1328" y="8.78711" width="4.20339" height="4.20339" transform="rotate(90 34.1328 8.78711)" fill="#BF6717"/>
<rect x="42.543" y="21.3975" width="4.20339" height="4.20339" transform="rotate(90 42.543 21.3975)" fill="#BF6717"/>
<rect x="55.1523" y="34.0078" width="4.20339" height="4.20339" transform="rotate(90 55.1523 34.0078)" fill="#BF6717"/>
<rect x="42.543" y="50.8213" width="4.20339" height="4.20339" transform="rotate(90 42.543 50.8213)" fill="#BF6717"/>
<rect x="42.543" y="25.6016" width="4.20339" height="4.20339" transform="rotate(90 42.543 25.6016)" fill="#F89202"/>
<rect x="55.1523" y="38.2109" width="4.20339" height="4.20339" transform="rotate(90 55.1523 38.2109)" fill="#F89202"/>
<rect x="21.5234" y="21.3975" width="4.20339" height="8.40678" transform="rotate(90 21.5234 21.3975)" fill="#F89202"/>
<rect x="34.1328" y="34.0078" width="4.20339" height="8.40678" transform="rotate(90 34.1328 34.0078)" fill="#F89202"/>
<rect x="46.7461" y="46.6182" width="4.20339" height="8.40678" transform="rotate(90 46.7461 46.6182)" fill="#F89202"/>
<rect x="34.1328" y="50.8213" width="4.20339" height="8.40678" fill="#F89202"/>
<rect x="25.7266" y="17.1943" width="4.20339" height="8.40678" transform="rotate(90 25.7266 17.1943)" fill="#FFB800"/>
<rect x="38.3398" y="29.8047" width="4.20339" height="8.40678" transform="rotate(90 38.3398 29.8047)" fill="#FFB800"/>
<rect x="50.9492" y="42.415" width="4.20339" height="8.40678" transform="rotate(90 50.9492 42.415)" fill="#FFB800"/>
<rect x="25.7266" y="12.9912" width="4.20339" height="4.20339" transform="rotate(90 25.7266 12.9912)" fill="#FDFBFB"/>
<rect x="29.9336" y="8.78711" width="8.40678" height="4.20339" transform="rotate(90 29.9336 8.78711)" fill="#FFB800"/>
<rect x="29.9336" y="50.8213" width="4.20339" height="8.40678" fill="#190D11"/>
<rect x="13.1172" y="29.8047" width="4.20339" height="4.20339" fill="#190D11"/>
<rect x="17.3203" y="25.6016" width="4.20339" height="4.20339" fill="#190D11"/>
<rect x="21.5234" y="34.0078" width="4.20339" height="4.20339" fill="#190D11"/>
<rect x="34.1328" y="42.415" width="4.20339" height="8.40678" fill="#190D11"/>
<rect x="21.5234" y="29.8047" width="8.40678" height="4.20339" fill="#190D11"/>
<rect x="21.5234" y="21.3975" width="4.20339" height="4.20339" fill="#190D11"/>
<rect x="29.9336" y="25.6016" width="4.20339" height="4.20339" fill="#190D11"/>
<rect x="34.1328" y="25.6016" width="4.20339" height="4.20339" fill="#FDFBFB"/>
<rect x="46.7461" y="38.2109" width="4.20339" height="4.20339" fill="#FDFBFB"/>
<rect x="42.543" y="38.2109" width="4.20339" height="4.20339" fill="#190D11"/>
<rect x="25.7266" y="17.1943" width="4.20339" height="4.20339" fill="#190D11"/>
<rect x="29.9336" y="12.9912" width="4.20339" height="4.20339" fill="#190D11"/>
<rect x="29.9336" y="21.3975" width="8.40678" height="4.20339" fill="#190D11"/>
<rect x="42.543" y="34.0078" width="8.40678" height="4.20339" fill="#190D11"/>
<rect x="38.3398" y="17.1943" width="8.40678" height="4.20339" fill="#190D11"/>
<rect x="50.9492" y="29.8047" width="8.40678" height="4.20339" fill="#190D11"/>
<rect x="46.7461" y="21.3975" width="4.20339" height="4.20339" fill="#190D11"/>
<rect x="59.3555" y="34.0078" width="4.20339" height="4.20339" fill="#190D11"/>
<rect x="42.543" y="25.6016" width="4.20339" height="4.20339" fill="#190D11"/>
<rect x="55.1523" y="38.2109" width="4.20339" height="4.20339" fill="#190D11"/>
<rect x="38.3398" y="29.8047" width="4.20339" height="4.20339" fill="#190D11"/>
<rect x="50.9492" y="42.415" width="4.20339" height="4.20339" fill="#190D11"/>
<rect x="34.1328" y="34.0078" width="4.20339" height="4.20339" fill="#190D11"/>
<rect x="46.7461" y="46.6182" width="4.20339" height="4.20339" fill="#190D11"/>
<rect x="55.1523" y="46.6182" width="4.20339" height="4.20339" fill="#190D11"/>
<rect x="46.7461" y="55.0254" width="4.20339" height="4.20339" fill="#190D11"/>
<rect x="59.3555" y="50.8213" width="4.20339" height="4.20339" fill="#190D11"/>
<rect x="50.9492" y="59.2285" width="4.20339" height="4.20339" fill="#190D11"/>
<rect x="55.1523" y="59.2285" width="4.20339" height="4.20339" fill="#767266"/>
<rect x="59.3555" y="63.4316" width="4.20339" height="4.20339" fill="#767266"/>
<rect x="63.5586" y="67.6348" width="4.20339" height="4.20339" fill="#767266"/>
<rect x="67.7617" y="67.6348" width="4.20339" height="4.20339" fill="#BDB69F"/>
<rect x="63.5586" y="55.0254" width="4.20339" height="4.20339" fill="#190D11"/>
<rect x="55.1523" y="63.4316" width="4.20339" height="4.20339" fill="#190D11"/>
<rect x="67.7617" y="59.2285" width="4.20339" height="4.20339" fill="#190D11"/>
<rect x="71.9648" y="63.4316" width="4.20339" height="8.40678" fill="#190D11"/>
<rect x="63.5586" y="76.042" width="4.20339" height="8.40678" transform="rotate(-90 63.5586 76.042)" fill="#190D11"/>
<rect x="59.3555" y="67.6348" width="4.20339" height="4.20339" fill="#190D11"/>
<rect x="29.9336" y="38.2109" width="4.20339" height="4.20339" fill="#190D11"/>
<rect x="42.543" y="50.8213" width="4.20339" height="4.20339" fill="#190D11"/>
<rect x="25.7266" y="42.415" width="4.20339" height="4.20339" fill="#190D11"/>
<rect x="38.3398" y="55.0254" width="4.20339" height="4.20339" fill="#190D11"/>
<rect x="21.5234" y="46.6182" width="4.20339" height="4.20339" fill="#190D11"/>
<rect x="34.1328" y="59.2285" width="4.20339" height="4.20339" fill="#190D11"/>
<rect x="34.1328" y="8.78711" width="4.20339" height="4.20339" fill="#190D11"/>
<rect x="25.7266" y="4.58398" width="8.40678" height="4.20339" fill="#190D11"/>
<rect x="8.91406" y="17.1943" width="4.20339" height="8.40678" fill="#190D11"/>
<rect x="4.71094" y="25.6016" width="4.20339" height="8.40678" fill="#190D11"/>
<rect x="0.507812" y="4.58398" width="4.20339" height="8.40678" fill="#190D11"/>
</svg>
