<svg width="76" height="81" viewBox="0 0 76 81" fill="none" xmlns="http://www.w3.org/2000/svg">
<path d="M19.8616 54.0313H5.68519L5.68507 72.3501H12.6224V76.149H19.8614V79.9479H59.5251V76.149H67.0658V72.3501H74.154L74.1541 53.2228L27.1005 27.1451L27.1006 25.1494H29.5135L29.5135 22.6797H51.8338L51.8338 25.1494H59.0728V31.1553H73.2492V20.4193H66.3118V12.4797H59.0728V8.68082H21.5205V12.4797H13.8291V20.4193H6.59006L6.59006 33.6243L55.5353 60.9434L55.5353 63.3514H51.1473L51.1473 66.5853L27.1006 66.8168L27.1006 63.5829H19.8616V54.0313Z" fill="#F86C14"/>
<path fill-rule="evenodd" clip-rule="evenodd" d="M4.6461 52.9918L16.8581 45.9494L20.9005 52.9918V57.7676L24.3478 55.9391L27.1006 59.6129L28.1395 62.5434L28.1395 65.7673L50.1082 65.5558L50.1082 62.312H54.4962V61.5536L5.55097 34.2345L1.37948 27.968L5.55097 19.3798H12.79V11.4403H20.4814V7.64137H60.1117V11.4403L63.7934 4.49228L67.3507 11.4403V19.3798L70.7838 12.484L74.2881 19.3798V32.1946H58.0337L55.8044 28.967L54.0376 26.1887H50.7947L48.8141 23.719H40.6736H30.5525L30.5525 26.1887H28.1395V26.5326L55.5353 36.9587L75.193 47.9474L75.1929 73.3894H68.1047V77.1883H60.5641V80.9872H18.8223L15.2029 77.1883H11.5834L8.86915 73.3894H4.64597L0.380859 66.9278L4.6461 52.9918ZM12.6224 72.3501V76.149H19.8614V79.9479H59.5251V76.149H67.0658V72.3501H74.154L74.1541 53.2228L27.1005 27.1451L27.1006 25.1494H29.5135L29.5135 22.6797H51.8338L51.8338 25.1494H59.0728V31.1553H73.2492V20.4193H66.3118V12.4797H59.0728V8.68082H21.5205V12.4797H13.8291V20.4193H6.59006L6.59006 33.6243L55.5353 60.9434L55.5353 63.3514H51.1473L51.1473 66.5853L27.1006 66.8168L27.1006 63.5829H19.8616V54.0313H5.68519L5.68507 72.3501H12.6224Z" fill="#F86C14"/>
<path d="M15.8668 47.3453H1.69046L1.69034 65.6641H8.62772V69.463H15.8667V73.2619H55.5304V69.463H63.071V65.6641H70.1592L70.1593 46.5368L23.1058 20.4591L23.1058 18.4635H25.5188L25.5188 15.9937H47.8391L47.8391 18.4635H55.0781V24.4693H69.2545V13.7333H62.3171V5.79375H55.0781V1.99485H17.5258V5.79375H9.83433V13.7333H2.59533L2.59533 26.9383L51.5406 54.2574L51.5406 56.6654H47.1526L47.1526 59.8994L23.1058 60.1308L23.1058 56.8969H15.8668V47.3453Z" fill="#FFC700"/>
<path fill-rule="evenodd" clip-rule="evenodd" d="M0.380992 45.9494H16.8581V55.9391H24.3405L24.3405 58.8838L45.9179 58.6761L45.9179 55.4304H50.306V54.9826L1.36071 27.968L1.36071 12.4982H8.59971V4.55869H16.2912V0.759796H56.3127V4.55869H63.7932V12.4982H70.7835V25.7044H53.8435V19.6985H46.6045L46.6045 17.2288H26.7535L26.7535 19.6985H24.3405V19.7314L71.394 45.8091L71.3939 66.8992H64.3057V70.6981H56.7651V74.497H14.6321V70.6981H7.3931V66.8992H0.380859L0.380992 45.9494ZM8.62772 65.6641V69.463H15.8667V73.2619H55.5304V69.463H63.071V65.6641H70.1592L70.1593 46.5368L23.1058 20.4591L23.1058 18.4635H25.5188L25.5188 15.9937H47.8391L47.8391 18.4635H55.0781V24.4693H69.2545V13.7333H62.3171V5.79375H55.0781V1.99485H17.5258V5.79375H9.83433V13.7333H2.59533L2.59533 26.9383L51.5406 54.2574L51.5406 56.6654H47.1526L47.1526 59.8994L23.1058 60.1308L23.1058 56.8969H15.8668V47.3453H1.69046L1.69034 65.6641H8.62772Z" fill="#FFC700"/>
</svg>
