<svg xmlns="http://www.w3.org/2000/svg" width="18" height="18" viewBox="0 0 18 18" fill="none">
  <g clip-path="url(#clip0_9098_24300)">
    <path d="M16.5 15V14.25H15.75V13.5H15V12.75H14.25V12H12.75V11.25H13.5V9.75H14.25V5.25H13.5V3.75H12.75V3H12V2.25H11.25V1.5H9.75V0.75H5.25V1.5H3.75V2.25H3V3H2.25V3.75H1.5V5.25H0.75V9.75H1.5V11.25H2.25V12H3V12.75H3.75V13.5H5.25V14.25H9.75V13.5H11.25V12.75H12V14.25H12.75V15H13.5V15.75H14.25V16.5H15V17.25H16.5V16.5H17.25V15H16.5ZM9 11.25V12H6V11.25H4.5V10.5H3.75V9H3V6H3.75V4.5H4.5V3.75H6V3H9V3.75H10.5V4.5H11.25V6H12V9H11.25V10.5H10.5V11.25H9Z" fill="#6A6967"/>
  </g>
  <defs>
    <clipPath id="clip0_9098_24300">
      <rect width="18" height="18" fill="white"/>
    </clipPath>
  </defs>
</svg>