<svg xmlns="http://www.w3.org/2000/svg" width="current" height="73" viewBox="0 0 214 73" fill="none">
  <path d="M206.826 67.7538V65.3181L7.01964 65.3181V67.7538H206.826Z" fill="#DFDDDA"/>
  <path d="M4.67976 65.3181H7.01964V62.8824H4.67976V65.3181Z" fill="#DFDDDA"/>
  <path d="M2.33988 62.8824H4.67976V60.4466H2.33988V62.8824Z" fill="#DFDDDA"/>
  <path d="M206.826 65.3181L209.166 65.3181V62.8824H206.826V65.3181Z" fill="#DFDDDA"/>
  <path d="M209.166 62.8824H211.506V60.4466H209.166V62.8824Z" fill="#DFDDDA"/>
  <path d="M206.826 70.1896V67.7538H7.01964V70.1896H206.826Z" fill="#6A6967"/>
  <path d="M4.67976 67.7538H7.01964V65.3181H4.67976V67.7538Z" fill="#6A6967"/>
  <path d="M2.33988 65.3181H4.67976V62.8824H2.33988V65.3181Z" fill="#6A6967"/>
  <path d="M206.826 67.7538H209.166V65.3181L206.826 65.3181V67.7538Z" fill="#6A6967"/>
  <path d="M209.166 65.3181H211.506V62.8824H209.166V65.3181Z" fill="#6A6967"/>
  <path d="M206.826 72.6253V70.1896H7.01964L7.01964 72.6253H206.826Z" fill="#1A1918"/>
  <path d="M213.846 6.90124H211.506V65.3181H213.846V6.90124Z" fill="#1A1918"/>
  <path d="M2.38652e-06 6.90124H2.33988L2.33988 65.3181H0L2.38652e-06 6.90124Z" fill="#1A1918"/>
  <path d="M209.166 6.90124H211.506V4.46551H209.166V6.90124Z" fill="#1A1918"/>
  <path d="M209.166 67.7538H211.506V65.3181H209.166V67.7538Z" fill="#1A1918"/>
  <path d="M4.67976 67.7538H2.33988L2.33988 65.3181H4.67976V67.7538Z" fill="#1A1918"/>
  <path d="M206.826 70.1896H209.166V67.7538H206.826V70.1896Z" fill="#1A1918"/>
  <path d="M7.01964 70.1896H4.67976L4.67976 67.7538H7.01964V70.1896Z" fill="#1A1918"/>
  <path d="M2.33988 6.90124H4.67976V4.46551H2.33988L2.33988 6.90124Z" fill="#1A1918"/>
  <path d="M7.01964 60.8526H9.35952V58.4169H7.01964V60.8526Z" fill="#1A1918"/>
  <path d="M204.486 0V2.43573H9.35952V0H204.486Z" fill="#1A1918"/>
  <path d="M7.01964 4.87146V2.43573H9.35952V4.87146H7.01964Z" fill="#1A1918"/>
  <path d="M7.01964 4.87146V58.4169H4.67976V4.87146H7.01964Z" fill="#1A1918"/>
  <path d="M206.826 4.87146V2.43573H204.486V4.87146H206.826Z" fill="#1A1918"/>
  <path d="M206.826 58.4169H209.166V4.87146H206.826V58.4169Z" fill="#1A1918"/>
  <path d="M204.486 60.8526V58.4169H206.826V60.8526H204.486Z" fill="#1A1918"/>
  <path d="M204.486 60.8526H9.35952V63.2883H204.486V60.8526Z" fill="#1A1918"/>
  <path d="M2.33988 6.90124H4.67976L4.67976 60.4466H2.33988L2.33988 6.90124Z" fill="#AAA9A6"/>
  <path d="M211.506 6.90124H209.166V60.4466H211.506V6.90124Z" fill="#AAA9A6"/>
  <path d="M4.67976 58.4169H7.01964V60.8526H4.67976V58.4169Z" fill="#AAA9A6"/>
  <path d="M209.166 58.4169H206.826V60.8526H209.166V58.4169Z" fill="#AAA9A6"/>
  <path d="M7.01964 63.2883H206.826V65.3181L7.01964 65.3181V63.2883Z" fill="#AAA9A6"/>
  <path d="M4.67976 60.8526H9.35952V63.2883H4.67976V60.8526Z" fill="#AAA9A6"/>
  <path d="M209.166 60.8526H204.486V63.2883H209.166V60.8526Z" fill="#AAA9A6"/>
  <path d="M204.486 60.8526V58.4169H9.35952V60.8526H204.486Z" fill="#FFDA58"/>
  <path d="M7.01964 58.4169H9.35952V55.9811H7.01964V58.4169Z" fill="#FFDA58"/>
  <path d="M204.486 58.4169H206.826V55.9811H204.486V58.4169Z" fill="#FFDA58"/>
  <path d="M204.486 2.43573V4.87146H9.35952V2.43573H204.486Z" fill="#FFDA58"/>
  <path d="M7.01964 4.87146H9.35952V7.3072H7.01964V4.87146Z" fill="#FFDA58"/>
  <path d="M204.486 4.87146H206.826V7.3072H204.486V4.87146Z" fill="#FFDA58"/>
  <path d="M7.01964 7.3072H9.35952V9.74292H7.01964V7.3072Z" fill="#FFFCF4"/>
  <path d="M7.01964 55.9811H9.35952V53.5454H7.01964V55.9811Z" fill="#FFFCF4"/>
  <path d="M206.826 7.3072H204.486V9.74292H206.826V7.3072Z" fill="#FFFCF4"/>
  <path d="M206.826 55.9811H204.486V53.5454H206.826V55.9811Z" fill="#FFFCF4"/>
  <path d="M9.35952 4.87146H11.6994V7.30719L9.35952 7.3072V4.87146Z" fill="#FFFCF4"/>
  <path d="M9.35952 58.4169H11.6994V55.9811H9.35952V58.4169Z" fill="#FFFCF4"/>
  <path d="M204.486 4.87146H202.146V7.30719L204.486 7.3072V4.87146Z" fill="#FFFCF4"/>
  <path d="M204.486 58.4169H202.146V55.9811H204.486V58.4169Z" fill="#FFFCF4"/>
  <path d="M9.35952 9.74292H7.01964V53.5454H9.35952V55.9811H11.6994V58.4169H202.146V55.9811H204.486V53.5454H206.826V9.74292H204.486V7.3072L202.146 7.30719V4.87146H11.6994V7.30719L9.35952 7.3072V9.74292Z" fill="#FFA000"/>
  <path d="M162.973 34.2421H174.737V35.7041H147.945V34.2421H159.709V30.7401H153.351V29.2781H151.651V25.6061H153.351V24.1101H166.951V20.8461H152.229V19.3501H168.719V20.9481H170.351V24.0081H168.719V25.5381H155.051V29.3121H168.481V27.9181H171.541V29.3121H170.045V30.7401H162.973V34.2421ZM151.821 40.1581V38.6621H170.283V45.5301H168.651V47.0261H167.019V40.1581H151.821Z" fill="#1A1918"/>
  <path fill-rule="evenodd" clip-rule="evenodd" d="M151.979 19.1001H168.969V20.6981H170.601V24.2581H168.969V25.7881H155.301V29.0621H168.231V27.6681H171.791V29.5621H170.295V30.9901H163.223V33.9921H174.987V35.9541H147.695V33.9921H159.459V30.9901H153.101V29.5281H151.401V25.3561H153.101V23.8601H166.701V21.0961H151.979V19.1001ZM152.479 19.6001V20.5961H167.201V24.3601H153.601V25.8561H151.901V29.0281H153.601V30.4901H159.959V34.4921H148.195V35.4541H174.487V34.4921H162.723V30.4901H169.795V29.0621H171.291V28.1681H168.731V29.5621H154.801V25.2881H168.469V23.7581H170.101V21.1981H168.469V19.6001H152.479ZM151.571 38.4121H170.533V45.7801H168.901V47.2761H166.769V40.4081H151.571V38.4121ZM152.071 38.9121V39.9081H167.269V46.7761H168.401V45.2801H170.033V38.9121H152.071Z" fill="#1A1918"/>
  <path d="M135.146 20.7102V19.1802H138.308V20.7102H139.906V44.6122H138.308V46.1082H136.676V20.7102H135.146ZM116.514 38.3902V36.6902H118.996V34.9902H121.172V33.2902H123.348V31.5902H125.524V29.8902H127.7V22.6822H117.194V21.2542H129.536V22.6142H131.168V29.8902H129.468V31.5902H127.122V33.2902H124.98L124.946 34.9902H122.77V36.6902H120.594V38.3902H116.514Z" fill="#1A1918"/>
  <path fill-rule="evenodd" clip-rule="evenodd" d="M134.896 18.9302H138.558V20.4602H140.156V44.8622H138.558V46.3582H136.426V20.9602H134.896V18.9302ZM135.396 19.4302V20.4602H136.926V45.8582H138.058V44.3622H139.656V20.9602H138.058V19.4302H135.396ZM116.944 21.0042H129.786V22.3642H131.418V30.1402H129.718V31.8402H127.372V33.5402H125.225L125.191 35.2402H123.02V36.9402H120.844V38.6402H116.264V36.4402H118.746V34.7402H120.922V33.0402H123.098V31.3402H125.274V29.6402H127.45V22.9322H116.944V21.0042ZM117.444 21.5042V22.4322H127.95V30.1402H125.774V31.8402H123.598V33.5402H121.422V35.2402H119.246V36.9402H116.764V38.1402H120.344V36.4402H122.52V34.7402H124.701L124.735 33.0402H126.872V31.3402H129.218V29.6402H130.918V22.8642H129.286V21.5042H117.444Z" fill="#1A1918"/>
  <path d="M93.6641 38.2882V29.7542H87.7481V28.3942H93.6641V25.2322H87.7481V23.8722H93.6641V20.7102H92.1341V19.1802H95.2961V20.7102H96.8941V36.7922H95.2961V38.2882H93.6641ZM71.4961 35.1942V33.5622H73.2641V31.9982H75.2021V30.4682H77.0041V28.9722H78.5341V21.7302H76.9701V20.2002H80.3021V21.7302H82.0021V28.9722H83.5321V30.4002H85.4361V31.8282H87.3061V33.2562H88.6661V34.6842H85.7761V33.2562H83.9061V31.8282H82.0021V30.4002H78.5341V31.9982H76.7321V33.5622H74.7941V35.1942H71.4961ZM77.4461 39.0702V37.5402H80.6761V39.0702H82.4441V44.7822H94.7521V43.3882H97.8121V44.7822H96.3161V46.3122H80.7101V44.7822H79.0101V39.0702H77.4461Z" fill="#1A1918"/>
  <path fill-rule="evenodd" clip-rule="evenodd" d="M91.8841 18.9302H95.5461V20.4602H97.1441V37.0422H95.5461V38.5382H93.4141V30.0042H87.4981V28.1442H93.4141V25.4822H87.4981V23.6222H93.4141V20.9602H91.8841V18.9302ZM92.3841 19.4302V20.4602H93.9141V24.1222H87.9981V24.9822H93.9141V28.6442H87.9981V29.5042H93.9141V38.0382H95.0461V36.5422H96.6441V20.9602H95.0461V19.4302H92.3841ZM76.7201 19.9502H80.5521V21.4802H82.2521V28.7222H83.7821V30.1502H85.6861V31.5782H87.5561V33.0062H88.9161V34.9342H85.5261V33.5062H83.6561V32.0782H81.7521V30.6502H78.7841V32.2482H76.9821V33.8122H75.0441V35.4442H71.2461V33.3122H73.0141V31.7482H74.9521V30.2182H76.7541V28.7222H78.2841V21.9802H76.7201V19.9502ZM77.2201 20.4502V21.4802H78.7841V29.2222H77.2541V30.7182H75.4521V32.2482H73.5141V33.8122H71.7461V34.9442H74.5441V33.3122H76.4821V31.7482H78.2841V30.1502H82.2521V31.5782H84.1561V33.0062H86.0261V34.4342H88.4161V33.5062H87.0561V32.0782H85.1861V30.6502H83.2821V29.2222H81.7521V21.9802H80.0521V20.4502H77.2201ZM77.1961 37.2902H80.9261V38.8202H82.6941V44.5322H94.5021V43.1382H98.0621V45.0322H96.5661V46.5622H80.4601V45.0322H78.7601V39.3202H77.1961V37.2902ZM77.6961 37.7902V38.8202H79.2601V44.5322H80.9601V46.0622H96.0661V44.5322H97.5621V43.6382H95.0021V45.0322H82.1941V39.3202H80.4261V37.7902H77.6961Z" fill="#1A1918"/>
  <path d="M63.866 20.7102H65.464V44.6122H63.866V46.1082H62.234V20.7102H60.704V19.1802H63.866V20.7102ZM39.25 38.3222V36.6222H40.78V34.9902H42.31V33.3922H43.84V31.8282H45.2V22.4442H43.636V20.9142H46.798V22.4442H48.396V31.8282H49.756V33.3242H51.15V34.8882H52.544V36.4522H53.836V38.0162H51.422V36.4522H49.994V34.8882H48.396V33.3242H45.2V34.9902H43.568V36.6222H41.902V38.3222H39.25ZM51.592 29.0402V27.6122H56.182V21.3902H54.652V19.8602H57.712V21.3902H59.31V43.2182H57.78V44.7142H56.182V29.0402H51.592Z" fill="#1A1918"/>
  <path fill-rule="evenodd" clip-rule="evenodd" d="M60.454 18.9302H64.116V20.4602H65.714V44.8622H64.116V46.3582H61.984V20.9602H60.454V18.9302ZM60.954 19.4302V20.4602H62.484V45.8582H63.616V44.3622H65.214V20.9602H63.616V19.4302H60.954ZM54.402 19.6102H57.962V21.1402H59.56V43.4682H58.03V44.9642H55.932V29.2902H51.342V27.3622H55.932V21.6402H54.402V19.6102ZM54.902 20.1102V21.1402H56.432V27.8622H51.842V28.7902H56.432V44.4642H57.53V42.9682H59.06V21.6402H57.462V20.1102H54.902ZM43.386 20.6642H47.048V22.1942H48.646V31.5782H50.006V33.0742H51.4V34.6382H52.794V36.2022H54.086V38.2662H51.172V36.7022H49.744V35.1382H48.146V33.5742H45.45V35.2402H43.818V36.8722H42.152V38.5722H39V36.3722H40.53V34.7402H42.06V33.1422H43.59V31.5782H44.95V22.6942H43.386V20.6642ZM43.886 21.1642V22.1942H45.45V32.0782H44.09V33.6422H42.56V35.2402H41.03V36.8722H39.5V38.0722H41.652V36.3722H43.318V34.7402H44.95V33.0742H48.646V34.6382H50.244V36.2022H51.672V37.7662H53.586V36.7022H52.294V35.1382H50.9V33.5742H49.506V32.0782H48.146V22.6942H46.548V21.1642H43.886Z" fill="#1A1918"/>
</svg>