<svg width="136" height="30" viewBox="0 0 136 30" fill="none" xmlns="http://www.w3.org/2000/svg">
<path d="M123.973 16.2422H135.737V17.7042H108.945V16.2422H120.709V12.7402H114.351V11.2782H112.651V7.60622H114.351V6.11022H127.951V2.84622H113.229V1.35022H129.719V2.94822H131.351V6.00822H129.719V7.53822H116.051V11.3122H129.481V9.91822H132.541V11.3122H131.045V12.7402H123.973V16.2422ZM112.821 22.1582V20.6622H131.283V27.5302H129.651V29.0262H128.019V22.1582H112.821Z" fill="#1A1918"/>
<path fill-rule="evenodd" clip-rule="evenodd" d="M112.979 1.10022H129.969V2.69822H131.601V6.25822H129.969V7.78822H116.301V11.0622H129.231V9.66822H132.791V11.5622H131.295V12.9902H124.223V15.9922H135.987V17.9542H108.695V15.9922H120.459V12.9902H114.101V11.5282H112.401V7.35622H114.101V5.86022H127.701V3.09622H112.979V1.10022ZM113.479 1.60022V2.59622H128.201V6.36022H114.601V7.85622H112.901V11.0282H114.601V12.4902H120.959V16.4922H109.195V17.4542H135.487V16.4922H123.723V12.4902H130.795V11.0622H132.291V10.1682H129.731V11.5622H115.801V7.28822H129.469V5.75822H131.101V3.19822H129.469V1.60022H113.479ZM112.571 20.4122H131.533V27.7802H129.901V29.2762H127.769V22.4082H112.571V20.4122ZM113.071 20.9122V21.9082H128.269V28.7762H129.401V27.2802H131.033V20.9122H113.071Z" fill="#1A1918"/>
<path d="M96.1459 2.71017V1.18018H99.3079V2.71017H100.906V26.6122H99.3079V28.1082H97.6759V2.71017H96.1459ZM77.5139 20.3902V18.6902H79.9959V16.9902H82.1719V15.2902H84.3479V13.5902H86.5239V11.8902H88.6999V4.68218H78.1939V3.25418H90.5359V4.61418H92.1679V11.8902H90.4679V13.5902H88.1219V15.2902H85.9799L85.9459 16.9902H83.7699V18.6902H81.5939V20.3902H77.5139Z" fill="#1A1918"/>
<path fill-rule="evenodd" clip-rule="evenodd" d="M95.8959 0.930176H99.5579V2.46017H101.156V26.8622H99.5579V28.3582H97.4259V2.96017H95.8959V0.930176ZM96.3959 1.43018V2.46017H97.9259V27.8582H99.0579V26.3622H100.656V2.96017H99.0579V1.43018H96.3959ZM77.9439 3.00418H90.7859V4.36418H92.4179V12.1402H90.7179V13.8402H88.3719V15.5402H86.225L86.191 17.2402H84.0199V18.9402H81.8439V20.6402H77.2639V18.4402H79.7459V16.7402H81.9219V15.0402H84.0979V13.3402H86.2739V11.6402H88.4499V4.93218H77.9439V3.00418ZM78.4439 3.50418V4.43218H88.9499V12.1402H86.7739V13.8402H84.5979V15.5402H82.4219V17.2402H80.2459V18.9402H77.7639V20.1402H81.3439V18.4402H83.5199V16.7402H85.7009L85.7349 15.0402H87.8719V13.3402H90.2179V11.6402H91.9179V4.86418H90.2859V3.50418H78.4439Z" fill="#1A1918"/>
<path d="M54.6646 20.2882V11.7542H48.7486V10.3942H54.6646V7.23217H48.7486V5.87218H54.6646V2.71017H53.1346V1.18018H56.2966V2.71017H57.8946V18.7922H56.2966V20.2882H54.6646ZM32.4966 17.1942V15.5622H34.2646V13.9982H36.2026V12.4682H38.0046V10.9722H39.5346V3.73018H37.9706V2.20017H41.3026V3.73018H43.0026V10.9722H44.5326V12.4002H46.4366V13.8282H48.3066V15.2562H49.6666V16.6842H46.7766V15.2562H44.9066V13.8282H43.0026V12.4002H39.5346V13.9982H37.7326V15.5622H35.7946V17.1942H32.4966ZM38.4466 21.0702V19.5402H41.6766V21.0702H43.4446V26.7822H55.7526V25.3882H58.8126V26.7822H57.3166V28.3122H41.7106V26.7822H40.0106V21.0702H38.4466Z" fill="#1A1918"/>
<path fill-rule="evenodd" clip-rule="evenodd" d="M52.8846 0.930176H56.5466V2.46017H58.1446V19.0422H56.5466V20.5382H54.4146V12.0042H48.4986V10.1442H54.4146V7.48217H48.4986V5.62218H54.4146V2.96017H52.8846V0.930176ZM53.3846 1.43018V2.46017H54.9146V6.12218H48.9986V6.98217H54.9146V10.6442H48.9986V11.5042H54.9146V20.0382H56.0466V18.5422H57.6446V2.96017H56.0466V1.43018H53.3846ZM37.7206 1.95017H41.5526V3.48018H43.2526V10.7222H44.7826V12.1502H46.6866V13.5782H48.5566V15.0062H49.9166V16.9342H46.5266V15.5062H44.6566V14.0782H42.7526V12.6502H39.7846V14.2482H37.9826V15.8122H36.0446V17.4442H32.2466V15.3122H34.0146V13.7482H35.9526V12.2182H37.7546V10.7222H39.2846V3.98018H37.7206V1.95017ZM38.2206 2.45017V3.48018H39.7846V11.2222H38.2546V12.7182H36.4526V14.2482H34.5146V15.8122H32.7466V16.9442H35.5446V15.3122H37.4826V13.7482H39.2846V12.1502H43.2526V13.5782H45.1566V15.0062H47.0266V16.4342H49.4166V15.5062H48.0566V14.0782H46.1866V12.6502H44.2826V11.2222H42.7526V3.98018H41.0526V2.45017H38.2206ZM38.1966 19.2902H41.9266V20.8202H43.6946V26.5322H55.5026V25.1382H59.0626V27.0322H57.5666V28.5622H41.4606V27.0322H39.7606V21.3202H38.1966V19.2902ZM38.6966 19.7902V20.8202H40.2606V26.5322H41.9606V28.0622H57.0666V26.5322H58.5626V25.6382H56.0026V27.0322H43.1946V21.3202H41.4266V19.7902H38.6966Z" fill="#1A1918"/>
<path d="M24.866 2.71017H26.464V26.6122H24.866V28.1082H23.234V2.71017H21.704V1.18018H24.866V2.71017ZM0.25 20.3222V18.6222H1.78V16.9902H3.31V15.3922H4.84V13.8282H6.2V4.44418H4.636V2.91418H7.798V4.44418H9.396V13.8282H10.756V15.3242H12.15V16.8882H13.544V18.4522H14.836V20.0162H12.422V18.4522H10.994V16.8882H9.396V15.3242H6.2V16.9902H4.568V18.6222H2.902V20.3222H0.25ZM12.592 11.0402V9.61217H17.182V3.39018H15.652V1.86018H18.712V3.39018H20.31V25.2182H18.78V26.7142H17.182V11.0402H12.592Z" fill="#1A1918"/>
<path fill-rule="evenodd" clip-rule="evenodd" d="M21.454 0.930176H25.116V2.46017H26.714V26.8622H25.116V28.3582H22.984V2.96017H21.454V0.930176ZM21.954 1.43018V2.46017H23.484V27.8582H24.616V26.3622H26.214V2.96017H24.616V1.43018H21.954ZM15.402 1.61018H18.962V3.14018H20.56V25.4682H19.03V26.9642H16.932V11.2902H12.342V9.36217H16.932V3.64018H15.402V1.61018ZM15.902 2.11018V3.14018H17.432V9.86217H12.842V10.7902H17.432V26.4642H18.53V24.9682H20.06V3.64018H18.462V2.11018H15.902ZM4.386 2.66418H8.048V4.19418H9.646V13.5782H11.006V15.0742H12.4V16.6382H13.794V18.2022H15.086V20.2662H12.172V18.7022H10.744V17.1382H9.146V15.5742H6.45V17.2402H4.818V18.8722H3.152V20.5722H0V18.3722H1.53V16.7402H3.06V15.1422H4.59V13.5782H5.95V4.69418H4.386V2.66418ZM4.886 3.16418V4.19418H6.45V14.0782H5.09V15.6422H3.56V17.2402H2.03V18.8722H0.5V20.0722H2.652V18.3722H4.318V16.7402H5.95V15.0742H9.646V16.6382H11.244V18.2022H12.672V19.7662H14.586V18.7022H13.294V17.1382H11.9V15.5742H10.506V14.0782H9.146V4.69418H7.548V3.16418H4.886Z" fill="#1A1918"/>
</svg>
