<svg width="24" height="24" viewBox="0 0 24 24" fill="none" xmlns="http://www.w3.org/2000/svg">
<path d="M14 13H15V14H16V15H17V16H16V17H15V16H14V15H13V14H11V15H10V16H9V17H8V16H7V15H8V14H9V13H10V11H9V10H8V9H7V8H8V7H9V8H10V9H11V10H13V9H14V8H15V7H16V8H17V9H16V10H15V11H14V13Z" fill="#DC4200"/>
<path d="M22 9V7H21V5H20V4H19V3H17V2H15V1H9V2H7V3H5V4H4V5H3V7H2V9H1V15H2V17H3V19H4V20H5V21H7V22H9V23H15V22H17V21H19V20H20V19H21V17H22V15H23V9H22ZM21 15H20V17H19V19H17V20H15V21H9V20H7V19H5V17H4V15H3V9H4V7H5V5H7V4H9V3H15V4H17V5H19V7H20V9H21V15Z" fill="#DC4200"/>
</svg>
