<svg width="74" height="17" viewBox="0 0 74 17" fill="current" xmlns="http://www.w3.org/2000/svg">
<path d="M70.9342 1.45005V0.550049H72.7942V1.45005H73.7342V15.51H72.7942V16.39H71.8342V1.45005H70.9342ZM59.9742 11.85V10.85H61.4342V9.85005H62.7142V8.85005H63.9942V7.85005H65.2742V6.85005H66.5542V2.61005H60.3742V1.77005H67.6342V2.57005H68.5942V6.85005H67.5942V7.85005H66.2142V8.85005H64.9542L64.9342 9.85005H63.6542V10.85H62.3742V11.85H59.9742Z" fill="current"/>
<path fill-rule="evenodd" clip-rule="evenodd" d="M70.7842 0.400024H72.9442V1.30002H73.8842V15.66H72.9442V16.54H71.6842V1.60002H70.7842V0.400024ZM71.0842 0.700024V1.30002H71.9842V16.24H72.6442V15.36H73.5842V1.60002H72.6442V0.700024H71.0842ZM60.2242 1.62002H67.7842V2.42002H68.7442V7.00002H67.7442V8.00002H66.3642V9.00002H65.1012L65.0813 10H63.8042V11H62.5242V12H59.8242V10.7H61.2842V9.70002H62.5642V8.70002H63.8442V7.70002H65.1242V6.70002H66.4042V2.76002H60.2242V1.62002ZM60.5242 1.92002V2.46002H66.7042V7.00002H65.4242V8.00002H64.1442V9.00002H62.8642V10H61.5842V11H60.1242V11.7H62.2242V10.7H63.5042V9.70002H64.7872L64.8072 8.70002H66.0642V7.70002H67.4442V6.70002H68.4442V2.72003H67.4842V1.92002H60.5242Z" fill="current"/>
<path d="M45.5266 1.05002V3.09002H49.7466V3.91002H39.1266V3.09002H43.6266V1.05002H42.6266V0.150024H44.5866V1.05002H45.5266ZM40.3266 10.45V7.13002H41.2666V6.33002H42.2066V5.53002H46.9666V6.33002H47.9266V7.13002H48.8466V10.45H47.9266V11.27H46.9666V12.11H42.2066V11.27H41.2666V10.45H40.3266ZM42.2066 10.45H43.1466V11.27H46.0066V10.45H46.9666V7.15003H46.0066V6.33002H43.1466V7.15003H42.2066V10.45ZM50.6266 1.45002V0.550025H52.4866V1.45002H53.4266V6.87002H56.4666V7.75003H53.4266V15.51H52.4866V16.39H51.5266V1.45002H50.6266Z" fill="current"/>
<path fill-rule="evenodd" clip-rule="evenodd" d="M42.4766 0H44.7366V0.9H45.6766V2.94H49.8966V4.06H38.9766V2.94H43.4766V1.2H42.4766V0ZM42.7766 0.3V0.9H43.7766V3.24H39.2766V3.76H49.5966V3.24H45.3766V1.2H44.4366V0.3H42.7766ZM50.4766 0.400001H52.6366V1.3H53.5766V6.72H56.6166V7.9H53.5766V15.66H52.6366V16.54H51.3766V1.6H50.4766V0.400001ZM50.7766 0.700001V1.3H51.6766V16.24H52.3366V15.36H53.2766V7.6H56.3166V7.02H53.2766V1.6H52.3366V0.700001H50.7766ZM42.0566 5.38H47.1166V6.18H48.0766V6.98H48.9966V10.6H48.0766V11.42H47.1166V12.26H42.0566V11.42H41.1166V10.6H40.1766V6.98H41.1166V6.18H42.0566V5.38ZM42.3566 5.68V6.48H41.4166V7.28H40.4766V10.3H41.4166V11.12H42.3566V11.96H46.8166V11.12H47.7766V10.3H48.6966V7.28H47.7766V6.48H46.8166V5.68H42.3566ZM42.9966 6.18H46.1566V7H47.1166V10.6H46.1566V11.42H42.9966V10.6H42.0566V7H42.9966V6.18ZM43.2966 6.48V7.3H42.3566V10.3H43.2966V11.12H45.8566V10.3H46.8166V7.3H45.8566V6.48H43.2966Z" fill="current"/>
<path d="M27.1588 8.50998H21.9988V7.60998H21.0588V6.78998H20.1188V3.58998H21.0588V2.78998H21.9988V1.94998H23.6188V0.349976H25.5188V1.94998H27.1588V2.78998H28.1188V3.58998H29.0388V6.78998H28.1188V7.60998H27.1588V8.50998ZM21.9988 6.78998H22.9388V7.60998H26.1988V6.78998H27.1588V3.60998H26.1988V2.78998H22.9388V3.60998H21.9988V6.78998ZM23.1788 11.29V10.39H25.0188V11.29H25.8988V12.67H32.1988V10.49H33.9988V15.73H33.1388V16.57H25.0188V15.69H24.0788V11.29H23.1788ZM25.8988 15.73H32.1988V13.51H25.8988V15.73ZM31.8188 1.44997V0.549975H33.6788V1.44997H34.6188V8.70998H33.6788V9.58998H32.7188V1.44997H31.8188Z" fill="current"/>
<path fill-rule="evenodd" clip-rule="evenodd" d="M23.4688 0.199951H25.6687V1.79995H27.3087V2.63995H28.2687V3.43995H29.1887V6.93995H28.2687V7.75995H27.3087V8.65995H21.8487V7.75995H20.9088V6.93995H19.9688V3.43995H20.9088V2.63995H21.8487V1.79995H23.4688V0.199951ZM23.7688 0.499951V2.09995H22.1487V2.93995H21.2088V3.73995H20.2688V6.63995H21.2088V7.45995H22.1487V8.35995H27.0087V7.45995H27.9688V6.63995H28.8888V3.73995H27.9688V2.93995H27.0087V2.09995H25.3687V0.499951H23.7688ZM31.6687 0.399951H33.8287V1.29995H34.7688V8.85995H33.8287V9.73995H32.5688V1.59995H31.6687V0.399951ZM31.9687 0.699951V1.29995H32.8687V9.43995H33.5287V8.55995H34.4688V1.59995H33.5287V0.699951H31.9687ZM22.7887 2.63995H26.3488V3.45995H27.3087V6.93995H26.3488V7.75995H22.7887V6.93995H21.8487V3.45995H22.7887V2.63995ZM23.0887 2.93995V3.75995H22.1487V6.63995H23.0887V7.45995H26.0487V6.63995H27.0087V3.75995H26.0487V2.93995H23.0887ZM23.0287 10.24H25.1687V11.14H26.0488V12.52H32.0487V10.34H34.1487V15.88H33.2887V16.72H24.8687V15.84H23.9288V11.44H23.0287V10.24ZM23.3287 10.54V11.14H24.2288V15.54H25.1687V16.42H32.9887V15.58H33.8487V10.64H32.3487V12.82H25.7488V11.44H24.8687V10.54H23.3287ZM25.7488 13.36H32.3487V15.88H25.7488V13.36ZM26.0488 13.66V15.58H32.0487V13.66H26.0488Z" fill="current"/>
<path d="M16.65 6.27005V7.15005H13.41V15.51H12.47V16.39H11.51V1.45005H10.61V0.550049H12.47V1.45005H13.41V6.27005H16.65ZM0.150024 11.85V10.85H1.47002V9.85005H2.71002V8.85005H3.95003V7.85005H5.19002V6.85005H6.43002V2.61005H0.550025V1.77005H7.51002V2.57005H8.47002V6.85005H7.47002V7.85005H6.13002V8.85005H4.91002L4.89002 9.85005H3.65002V10.85H2.41002V11.85H0.150024Z" fill="current"/>
<path fill-rule="evenodd" clip-rule="evenodd" d="M10.46 0.400024H12.62V1.30002H13.56V6.12002H16.8V7.30002H13.56V15.66H12.62V16.54H11.36V1.60002H10.46V0.400024ZM10.76 0.700024V1.30002H11.66V16.24H12.32V15.36H13.26V7.00002H16.5V6.42002H13.26V1.60002H12.32V0.700024H10.76ZM0.4 1.62002H7.66V2.42002H8.62V7.00002H7.62V8.00002H6.28V9.00002H5.05703L5.03703 10H3.8V11H2.56V12H0V10.7H1.32V9.70002H2.56V8.70002H3.8V7.70002H5.04V6.70002H6.28V2.76002H0.4V1.62002ZM0.7 1.92002V2.46002H6.58V7.00002H5.34V8.00002H4.1V9.00002H2.86V10H1.62V11H0.3V11.7H2.26V10.7H3.5V9.70002H4.74297L4.76297 8.70002H5.98V7.70002H7.32V6.70002H8.32V2.72003H7.36V1.92002H0.7Z" fill="current"/>
</svg>
