<svg width="450" height="357" viewBox="0 0 450 357" fill="none" xmlns="http://www.w3.org/2000/svg">
<path fill-rule="evenodd" clip-rule="evenodd" d="M163.43 121.106H170.409V160.615H163.43V121.106ZM170.41 126.916H177.39L177.39 171.074H183.206V209.422H177.39V204.772H170.41V126.916Z" fill="#FFC700"/>
<path fill-rule="evenodd" clip-rule="evenodd" d="M157.615 139.698H143.656V161.587H150.637V191.989H163.433V160.37H157.615V139.698Z" fill="#FFC700"/>
<path fill-rule="evenodd" clip-rule="evenodd" d="M190.183 107.161H183.203V172.235H190.183V107.161ZM196 115.295H190.184V166.425H196V115.295Z" fill="#FFC700"/>
<path fill-rule="evenodd" clip-rule="evenodd" d="M208.8 121.104H201.82V178.044H208.8V121.104ZM215.78 126.914H208.801V185.016H215.78V126.914Z" fill="#FFC700"/>
<path fill-rule="evenodd" clip-rule="evenodd" d="M247.183 121.106H240.203V197.801H247.183V121.106ZM254.163 126.916H247.184V197.8H254.163L254.163 126.916Z" fill="#FFC700"/>
<path fill-rule="evenodd" clip-rule="evenodd" d="M265.796 126.914H258.816V197.798H265.796V126.914ZM272.776 132.724H265.797V210.581H272.776V132.724Z" fill="#FFC700"/>
<path fill-rule="evenodd" clip-rule="evenodd" d="M227.988 106H221.59V190.892H227.988V106ZM234.386 114.663H227.988V201.287H234.386L234.386 114.663Z" fill="#FFC700"/>
<path fill-rule="evenodd" clip-rule="evenodd" d="M284.414 139.698H278.598V198.962H284.414V197.799H291.393L291.393 146.669H284.414V139.698Z" fill="#FFC700"/>
<path fill-rule="evenodd" clip-rule="evenodd" d="M233.231 194.314H240.211V230.337H233.234V231.498H227.417V202.447H233.231V194.314Z" fill="#FFC700"/>
<path fill-rule="evenodd" clip-rule="evenodd" d="M196.004 172.235H190.188V223.365H196.004V172.235ZM201.821 178.044H196.005V229.174H201.821V178.044Z" fill="#FFC700"/>
<rect x="206.473" y="190.827" width="15.1224" height="39.5093" fill="#FFC700"/>
<rect x="247.188" y="197.799" width="11.6327" height="32.5371" fill="#FFC700"/>
<path fill-rule="evenodd" clip-rule="evenodd" d="M291.392 107.158H285.576V115.293H278.597V121.103H271.617V126.913H278.597V135.048H285.576V126.913H291.392V107.158Z" fill="#FFC700"/>
<path fill-rule="evenodd" clip-rule="evenodd" d="M297.207 108.323H291.39V126.915H297.207V108.323ZM291.391 126.916H285.574V133.889H291.391V126.916Z" fill="#E25B00"/>
<rect x="291.387" y="146.671" width="5.81634" height="40.6714" fill="#E25B00"/>
<path fill-rule="evenodd" clip-rule="evenodd" d="M190.18 108.323H195.996V115.295H201.812V178.045H195.996V172.234H190.18V166.424H195.996V115.295H190.18V108.323ZM208.793 178.045H201.813V223.365H208.793V178.045ZM215.774 133.889H221.59V190.829H215.775V190.829H208.796V185.019H215.774V133.889Z" fill="#E25B00"/>
<rect x="240.207" y="197.8" width="6.97959" height="32.5371" fill="#E25B00"/>
<path fill-rule="evenodd" clip-rule="evenodd" d="M265.797 126.917H272.776V126.918H278.592V135.05H284.409V139.698H278.592V211.747H272.776V132.727H265.797V126.917Z" fill="#E25B00"/>
<path fill-rule="evenodd" clip-rule="evenodd" d="M258.813 126.916H254.16V197.801H258.813V126.916ZM265.793 197.801H258.813V230.339H265.793V197.801Z" fill="#E25B00"/>
<path fill-rule="evenodd" clip-rule="evenodd" d="M227.409 108.326H234.389V115.299H227.409V108.326ZM234.388 115.299H240.205V194.318H234.388V115.299ZM234.386 190.83H221.59V231.501H234.386V190.83Z" fill="#E25B00"/>
<path fill-rule="evenodd" clip-rule="evenodd" d="M170.414 121.104H177.394V126.915H170.414V121.104ZM177.394 126.914H183.211V172.234H177.394V126.914ZM190.188 172.235H183.209V217.555H190.188V172.235Z" fill="#E25B00"/>
<path fill-rule="evenodd" clip-rule="evenodd" d="M151.797 133.889H157.613V139.7H151.797V133.889ZM157.614 139.699H163.43V160.615H157.614V139.699ZM170.409 160.617H163.429V200.126H170.409V160.617Z" fill="#E25B00"/>
<path d="M139 183.856H157.612V191.409H164.592V197.801H170.408V203.611H177.388V209.421H183.204V216.393H196V222.784H208.796V230.338H240.204V222.203H253V216.393H265.796V209.421H272.776V203.611H278.592V197.801H285.571V190.828H291.388V183.856H310V247.768H139V183.856Z" fill="#DC4200"/>
<path d="M143.653 247.768H305.347V293.088H143.653V247.768Z" fill="#DC4200"/>
<path d="M152.959 293.088H296.041V340.731H152.959V293.088Z" fill="#DC4200"/>
<path d="M152.959 340.731H194.837V348.866H190.184V357H157.612V348.866H152.959V340.731Z" fill="#DC4200"/>
<path d="M254.163 340.731H296.041V348.866H291.388V357H258.816V348.866H254.163V340.731Z" fill="#DC4200"/>
<path fill-rule="evenodd" clip-rule="evenodd" d="M443.064 3H6.93518V7.16667H2.29592V53H6.93518V57.1667H211.371L223.107 83H226.893L238.629 57.1667H443.064V53H447.704V7.16667H443.064V3Z" fill="#F7F4F0"/>
<path fill-rule="evenodd" clip-rule="evenodd" d="M4.63457 0H445.365V4.13462H450V56.2308H445.365V60.3654H240.042L228.318 86H221.681L209.957 60.3654H4.63457V56.2308H0V4.13462H4.63457V0ZM211.384 57.0577L223.109 82.6923H226.891L238.615 57.0577H442.844V52.9231H447.479V7.44231H442.844V3.30769H7.15558V7.44231H2.52101V52.9231H7.15558V57.0577H211.384Z" fill="#DC4200"/>
<path d="M67.7263 27.9V29H63.6763V39.45H62.5013V40.55H61.3013V21.875H60.1763V20.75H62.5013V21.875H63.6763V27.9H67.7263ZM47.1013 34.875V33.625H48.7513V32.375H50.3013V31.125H51.8513V29.875H53.4013V28.625H54.9513V23.325H47.6013V22.275H56.3013V23.275H57.5013V28.625H56.2513V29.875H54.5763V31.125H53.0513L53.0263 32.375H51.4763V33.625H49.9263V34.875H47.1013ZM83.612 30.7H77.162V29.575H75.987V28.55H74.812V24.55H75.987V23.55H77.162V22.5H79.187V20.5H81.562V22.5H83.612V23.55H84.812V24.55H85.962V28.55H84.812V29.575H83.612V30.7ZM77.162 28.55H78.337V29.575H82.412V28.55H83.612V24.575H82.412V23.55H78.337V24.575H77.162V28.55ZM78.637 34.175V33.05H80.937V34.175H82.037V35.9H89.912V33.175H92.162V39.725H91.087V40.775H80.937V39.675H79.762V34.175H78.637ZM82.037 39.725H89.912V36.95H82.037V39.725ZM89.437 21.875V20.75H91.762V21.875H92.937V30.95H91.762V32.05H90.562V21.875H89.437ZM114.888 32.2V31H116.263V29.85H117.763V28.725H119.138V27.625H120.388V22.625H119.238V21.5H121.688V22.625H122.938V27.625H124.138V28.675H125.613V29.725H126.988V30.775H128.163V31.825H125.863V30.775H124.413V29.725H122.938V28.675H120.388V29.85H118.888V31H117.388V32.2H114.888ZM118.888 35.375V34.25H121.263V35.375H122.563V39.575H131.613V38.55H133.863V39.575H132.763V40.7H121.288V39.575H120.038V35.375H118.888ZM129.688 21.875V20.75H132.013V21.875H133.188V33.7H132.013V34.8H130.813V21.875H129.688ZM149.899 29.875V28.825H147.449V30H146.124V31.15H144.699V32.35H142.149V31.15H143.574V30H144.999V28.875H146.324V27.775H147.499V24.55H142.574V23.55H147.499V21.125H146.249V20H148.699V21.125H149.874V23.55H154.524V24.55H149.849V27.775H151.024V28.825H152.424V29.875H153.799V30.925H154.799V31.975H152.674V30.925H151.299V29.875H149.899ZM148.199 39V35.8H149.374V34.8H150.549V33.725H156.624V34.8H157.824V35.8H158.974V39H157.824V40.025H156.624V41.1H150.549V40.025H149.374V39H148.199ZM150.549 39H151.724V40.025H155.424V39H156.624V35.825H155.424V34.8H151.724V35.825H150.549V39ZM154.224 27.65V26.625H158.324V21.875H157.199V20.75H159.524V21.875H160.699V31.8H159.524V32.9H158.324V27.65H154.224ZM186.784 21.875H187.959V39.475H186.784V40.575H185.584V21.875H184.459V20.75H186.784V21.875ZM170.284 31.125V25.725H171.459V24.725H172.684V23.675H174.834V21.425H177.209V23.675H179.384V24.725H180.634V25.725H181.784V31.125H180.634V32.15H179.384V33.25H172.684V32.15H171.459V31.125H170.284ZM172.684 31.125H173.859V32.15H178.184V31.125H179.384V25.75H178.184V24.725H173.859V25.75H172.684V31.125ZM223.485 31.625V32.725H209.485V31.625H215.41V29.05H213.56V28H212.435V26.975H211.31V24H212.435V23H213.56V22H215.385V20.125H217.76V22H219.61V23H220.76V24H221.86V26.975H220.76V28H219.61V29.05H217.71V31.625H223.485ZM213.56 26.975H214.735V28H218.41V26.975H219.61V24.025H218.41V23H214.735V24.025H213.56V26.975ZM213.66 36V34.875H216.035V36H217.385V39.575H226.135V38.55H228.385V39.575H227.285V40.7H216.06V39.575H214.81V36H213.66ZM223.96 21.875V20.75H226.285V21.875H227.46V27.25H231.26V28.375H227.46V34.7H226.285V35.8H225.085V21.875H223.96ZM241.271 31.05H240.071V27.1H241.296V26.05H251.546V22.5H240.621V21.45H252.821V22.475H254.046V26.05H252.821V27.1H242.546V31.05H253.171V30H255.371V31.125H254.296V32.125H241.271V31.05ZM237.746 38.5V37.4H243.071V34.625H241.921V33.5H244.246V34.625H245.446V37.4H250.446V34.625H249.296V33.5H251.621V34.625H252.821V37.4H257.446V38.5H237.746ZM282.307 21.875H283.482V39.45H282.307V40.55H281.107V21.875H279.982V20.75H282.307V21.875ZM264.757 36.375V35.275H271.457V32.65H270.307V31.525H272.632V32.65H273.832V35.275H279.357V36.375H264.757ZM266.007 29.325V23.325H267.282V22.275H277.107V23.4H268.607V29.3H275.932V28.25H278.182V29.375H277.057V30.4H267.257V29.325H266.007ZM294.968 30.2H293.793V29.175H292.618V24.55H293.793V23.55H294.968V22.5H296.743V20.5H299.118V22.5H300.918V23.55H302.118V24.55H303.268V29.175H302.118V30.2H300.918V31.325H294.968V30.2ZM293.843 40.75V39.475H295.643V38.4H297.143V37.275H298.443V33.925H300.818V36.225H302.093V37.35H303.368V38.525H304.618V37.35H305.918V33.925H308.293V36.275H309.568V37.35H310.868V38.5H312.093V40.75H310.843V39.55H309.568V38.45H308.293V37.275H306.668V38.45H305.443V39.55H304.318V40.75H302.093V38.45H300.818V37.275H299.193V38.45H297.843V39.55H296.343V40.75H293.843ZM294.968 29.175H296.143V30.2H299.718V29.175H300.918V24.575H299.718V23.55H296.143V24.575H294.968V29.175ZM304.618 27.25V26.15H308.618V21.875H307.493V20.75H309.818V21.875H310.993V31.425H309.818V32.525H308.618V27.25H304.618ZM324.828 27.75V28.875H321.828V27.75H323.753V26.675H325.578V25.6H327.403V24.525H328.653V21.9H327.478V20.775H329.978V21.9H331.228V24.525H332.478V25.6H334.303V26.675H336.128V27.75H338.053V28.875H335.053V27.75H333.253V26.675H331.228V25.6H328.653V26.675H326.628V27.75H324.828ZM320.278 31.85V30.75H339.978V31.85H320.278ZM322.828 34.675V33.55H325.128V34.675H326.228V36.15H334.453V33.675H336.703V39.725H335.628V40.775H325.128V39.675H323.953V34.675H322.828ZM326.228 39.725H334.453V37.2H326.228V39.725ZM362.014 21.875V20.75H364.339V21.875H365.514V39.45H364.339V40.55H363.139V21.875H362.014ZM348.089 23.025V21.9H350.489V23H351.739V32.925H358.464V31.875H360.714V33H359.589V34H350.414V32.925H349.214V23.025H348.089ZM396.075 27.9V29H392.275V39.45H391.1V40.55H389.9V21.875H388.775V20.75H391.1V21.875H392.275V27.9H396.075ZM376.1 33.15V23.35H377.325V22.275H385.75V23.35H378.575V33.15H385.475V32.1H387.725V33.225H386.6V34.25H377.3V33.15H376.1ZM405.961 21.525V34.25H403.661V21.5L405.961 21.525ZM403.486 40V37.375H406.136V40H403.486Z" fill="#DC4200"/>
</svg>
