<svg width="1008" height="239" viewBox="0 0 1008 239" fill="none" xmlns="http://www.w3.org/2000/svg">
<path d="M0.339746 113L9 121.66L17.6603 113L9 104.34L0.339746 113ZM1007.66 113L999 104.34L990.34 113L999 121.66L1007.66 113ZM9 114.5H13.95V111.5H9V114.5ZM23.85 114.5H33.75V111.5H23.85V114.5ZM43.65 114.5H53.55V111.5H43.65V114.5ZM63.45 114.5H73.35V111.5H63.45V114.5ZM83.25 114.5H93.15V111.5H83.25V114.5ZM103.05 114.5H112.95V111.5H103.05V114.5ZM122.85 114.5H132.75V111.5H122.85V114.5ZM142.65 114.5H152.55V111.5H142.65V114.5ZM162.45 114.5H172.35V111.5H162.45V114.5ZM182.25 114.5H192.15V111.5H182.25V114.5ZM202.05 114.5H211.95V111.5H202.05V114.5ZM221.85 114.5H231.75V111.5H221.85V114.5ZM241.65 114.5H251.55V111.5H241.65V114.5ZM261.45 114.5H271.35V111.5H261.45V114.5ZM281.25 114.5H291.15V111.5H281.25V114.5ZM301.05 114.5H310.95V111.5H301.05V114.5ZM320.85 114.5H330.75V111.5H320.85V114.5ZM340.65 114.5H350.55V111.5H340.65V114.5ZM360.45 114.5H370.35V111.5H360.45V114.5ZM380.25 114.5H390.15V111.5H380.25V114.5ZM400.05 114.5H409.95V111.5H400.05V114.5ZM419.85 114.5H429.75V111.5H419.85V114.5ZM439.65 114.5H449.55V111.5H439.65V114.5ZM459.45 114.5H469.35V111.5H459.45V114.5ZM479.25 114.5H489.15V111.5H479.25V114.5ZM499.05 114.5H508.95V111.5H499.05V114.5ZM518.85 114.5H528.75V111.5H518.85V114.5ZM538.65 114.5H548.55V111.5H538.65V114.5ZM558.45 114.5H568.35V111.5H558.45V114.5ZM578.25 114.5H588.15V111.5H578.25V114.5ZM598.05 114.5H607.95V111.5H598.05V114.5ZM617.85 114.5H627.75V111.5H617.85V114.5ZM637.65 114.5H647.55V111.5H637.65V114.5ZM657.45 114.5H667.35V111.5H657.45V114.5ZM677.25 114.5H687.15V111.5H677.25V114.5ZM697.05 114.5H706.95V111.5H697.05V114.5ZM716.85 114.5H726.75V111.5H716.85V114.5ZM736.65 114.5H746.55V111.5H736.65V114.5ZM756.45 114.5H766.35V111.5H756.45V114.5ZM776.25 114.5H786.15V111.5H776.25V114.5ZM796.05 114.5H805.95V111.5H796.05V114.5ZM815.851 114.5H825.751V111.5H815.851V114.5ZM835.651 114.5H845.551V111.5H835.651V114.5ZM855.451 114.5H865.351V111.5H855.451V114.5ZM875.251 114.5H885.151V111.5H875.251V114.5ZM895.051 114.5H904.951V111.5H895.051V114.5ZM914.851 114.5H924.751V111.5H914.851V114.5ZM934.651 114.5H944.551V111.5H934.651V114.5ZM954.451 114.5H964.351V111.5H954.451V114.5ZM974.251 114.5H984.151V111.5H974.251V114.5ZM994.051 114.5H999V111.5H994.051V114.5Z" fill="#FFA000"/>
<path d="M10 238.66L18.6603 230L10 221.34L1.33975 230L10 238.66ZM11.5 230L11.5 225.125L8.5 225.125L8.5 230L11.5 230ZM11.5 215.375L11.5 205.625L8.5 205.625L8.5 215.375L11.5 215.375ZM11.5 195.875L11.5 186.125L8.5 186.125L8.5 195.875L11.5 195.875ZM11.5 176.375L11.5 166.625L8.5 166.625L8.5 176.375L11.5 176.375ZM11.5 156.875L11.5 147.125L8.50001 147.125L8.5 156.875L11.5 156.875ZM11.5 137.375L11.5 127.625L8.50001 127.625L8.50001 137.375L11.5 137.375ZM11.5 117.875L11.5 113L8.50001 113L8.50001 117.875L11.5 117.875Z" fill="#FFA000"/>
<path d="M341 238.66L349.66 230L341 221.34L332.34 230L341 238.66ZM342.5 230L342.5 225.125L339.5 225.125L339.5 230L342.5 230ZM342.5 215.375L342.5 205.625L339.5 205.625L339.5 215.375L342.5 215.375ZM342.5 195.875L342.5 186.125L339.5 186.125L339.5 195.875L342.5 195.875ZM342.5 176.375L342.5 166.625L339.5 166.625L339.5 176.375L342.5 176.375ZM342.5 156.875L342.5 147.125L339.5 147.125L339.5 156.875L342.5 156.875ZM342.5 137.375L342.5 127.625L339.5 127.625L339.5 137.375L342.5 137.375ZM342.5 117.875L342.5 113L339.5 113L339.5 117.875L342.5 117.875Z" fill="#FFA000"/>
<path d="M670 238.66L678.66 230L670 221.34L661.34 230L670 238.66ZM671.5 230L671.5 225.125L668.5 225.125L668.5 230L671.5 230ZM671.5 215.375L671.5 205.625L668.5 205.625L668.5 215.375L671.5 215.375ZM671.5 195.875L671.5 186.125L668.5 186.125L668.5 195.875L671.5 195.875ZM671.5 176.375L671.5 166.625L668.5 166.625L668.5 176.375L671.5 176.375ZM671.5 156.875L671.5 147.125L668.5 147.125L668.5 156.875L671.5 156.875ZM671.5 137.375L671.5 127.625L668.5 127.625L668.5 137.375L671.5 137.375ZM671.5 117.875L671.5 113L668.5 113L668.5 117.875L671.5 117.875Z" fill="#FFA000"/>
<path d="M509 0.339746L500.34 9L509 17.6603L517.66 9L509 0.339746ZM507.5 9L507.5 14.05L510.5 14.05L510.5 9L507.5 9ZM507.5 24.15L507.5 34.25L510.5 34.25L510.5 24.15L507.5 24.15ZM507.5 44.35L507.5 54.45L510.5 54.45L510.5 44.35L507.5 44.35ZM507.5 64.55L507.5 74.65L510.5 74.65L510.5 64.55L507.5 64.55ZM507.5 84.75L507.5 94.85L510.5 94.85L510.5 84.75L507.5 84.75ZM507.5 104.95L507.5 110L510.5 110L510.5 104.95L507.5 104.95Z" fill="#FFA000"/>
<path d="M999 238.66L1007.66 230L999 221.34L990.34 230L999 238.66ZM1000.5 230L1000.5 225.125L997.5 225.125L997.5 230L1000.5 230ZM1000.5 215.375L1000.5 205.625L997.5 205.625L997.5 215.375L1000.5 215.375ZM1000.5 195.875L1000.5 186.125L997.5 186.125L997.5 195.875L1000.5 195.875ZM1000.5 176.375L1000.5 166.625L997.5 166.625L997.5 176.375L1000.5 176.375ZM1000.5 156.875L1000.5 147.125L997.5 147.125L997.5 156.875L1000.5 156.875ZM1000.5 137.375L1000.5 127.625L997.5 127.625L997.5 137.375L1000.5 137.375ZM1000.5 117.875L1000.5 113L997.5 113L997.5 117.875L1000.5 117.875Z" fill="#FFA000"/>
</svg>
