<svg width="186" height="149" viewBox="0 0 186 149" fill="none" xmlns="http://www.w3.org/2000/svg">
<rect x="26.8781" y="110.22" width="131.732" height="38.1463" rx="19.0732" fill="#FFA000"/>
<path d="M74.4669 121.207V123.03H63.3598V121.207H67.7737V119.321H70.0738V121.207H74.4669ZM64.3131 127.175C64.3131 125.123 66.2091 123.756 68.9134 123.756C71.6176 123.756 73.4826 125.123 73.493 127.175C73.4826 129.226 71.6176 130.594 68.9134 130.594C66.2091 130.594 64.3131 129.226 64.3131 127.175ZM65.6393 133.847V132.003H78.114V138.137H75.8139V133.847H65.6393ZM66.5511 127.175C66.5407 128.232 67.4939 128.822 68.9134 128.812C70.3329 128.822 71.2964 128.232 71.2964 127.175C71.2964 126.118 70.3329 125.496 68.9134 125.496C67.4939 125.496 66.5407 126.118 66.5511 127.175ZM75.8139 131.133V119.404H78.114V124.377H80.725V126.263H78.114V131.133H75.8139ZM97.0334 121.124V123.03C97.0334 125.362 97.0334 127.869 96.3496 131.547L94.0908 131.319C94.7332 127.848 94.7332 125.299 94.7332 123.03V122.968H83.3982V121.124H97.0334ZM81.6783 135.712V133.827H85.5119V127.859H87.812V133.827H90.1951V127.859H92.4538V133.827H98.7533V135.712H81.6783ZM114.813 120.958C114.803 123.31 117.445 125.703 121.444 126.222L120.532 128.086C117.351 127.61 114.823 126.045 113.601 123.932C112.378 126.045 109.86 127.61 106.711 128.086L105.799 126.222C109.757 125.703 112.389 123.331 112.389 120.958V120.005H114.813V120.958ZM105.053 131.609V129.703H122.128V131.609H114.689V138.137H112.409V131.609H105.053Z" fill="#FFFBF6"/>
<path d="M0 84.9689H8.32989V76.2396H0V84.9689Z" fill="#FFEBA3"/>
<path d="M177.461 84.9689L185.791 84.9689V76.2396H177.461V84.9689Z" fill="#FFEBA3"/>
<path d="M0 0.585449H8.32989V9.31479H0V0.585449Z" fill="#FFEBA3"/>
<path d="M177.461 0.585449H185.791V9.31479H177.461V0.585449Z" fill="#FFEBA3"/>
<path d="M0 9.31479H8.32989V18.0441H0V9.31479Z" fill="#FFA000"/>
<path d="M0 76.2396H8.32989V67.5103H0V76.2396Z" fill="#FFA000"/>
<path d="M185.791 9.31479H177.461V18.0441H185.791V9.31479Z" fill="#FFA000"/>
<path d="M185.791 76.2396H177.461V67.5103H185.791V76.2396Z" fill="#FFA000"/>
<path d="M8.32989 0.585449H16.6598V9.31478L8.32989 9.31479V0.585449Z" fill="#FFA000"/>
<path d="M8.32989 84.9689H16.6598V76.2396H8.32989V84.9689Z" fill="#FFA000"/>
<path d="M177.461 0.585449H169.131V9.31478L177.461 9.31479V0.585449Z" fill="#FFA000"/>
<path d="M177.461 84.9689L169.131 84.9689V76.2396H177.461V84.9689Z" fill="#FFA000"/>
<path d="M8.32989 18.0441H0V67.5103H8.32989V76.2396H16.6598V84.9689H124.254H169.131V76.2396H177.461V67.5103H185.791V18.0441H177.461V9.31479L169.131 9.31478V0.585449H16.6598V9.31478L8.32989 9.31479V18.0441Z" fill="#FFC700"/>
<mask id="path-4-outside-1_10928_27913" maskUnits="userSpaceOnUse" x="31.2926" y="21.7319" width="121" height="46" fill="black">
<rect fill="white" x="31.2926" y="21.7319" width="121" height="46"/>
<path d="M32.8547 64.8539V59.4429H35.295V56.5783H37.7352V53.7667H40.1755V50.7429H42.6157V47.8252H45.056V44.9075H47.4962V41.9899H50.0956V39.1783H52.8541V30.4783H50.4669V28.038H40.3346V30.4783H37.9474V39.2844H32.8547V30.4783H35.348V28.038H37.7883V25.5978H53.0133V28.038H55.4535V30.4783H58.0529V39.1783H55.6657V42.3082H53.2255V44.9606H50.8913V47.8252H48.398V50.796H46.0108V53.7667H43.6767V56.6313H41.2364V59.4429H38.7962V62.3075H58.5834V64.8539H32.8547ZM72.0922 64.8539V59.4429H74.5324V56.5783H76.9727V53.7667H79.4129V50.7429H81.8532V47.8252H84.2934V44.9075H86.7336V41.9899H89.333V39.1783H92.0916V30.4783H89.7044V28.038H79.5721V30.4783H77.1849V39.2844H72.0922V30.4783H74.5855V28.038H77.0257V25.5978H92.2507V28.038H94.691V30.4783H97.2904V39.1783H94.9032V42.3082H92.4629V44.9606H90.1288V47.8252H87.6355V50.796H85.2483V53.7667H82.9141V56.6313H80.4739V59.4429H78.0336V62.3075H97.8208V64.8539H72.0922ZM148.145 26.3935H150.639V63.6868H148.145V66.021H145.599V41.5124H139.445V61.5118H136.952V63.846H134.406V27.4545H132.019V25.0673H136.952V27.4545H139.445V39.2313H145.599V26.3935H143.212V24.0063H148.145V26.3935ZM110.428 54.6685V51.91H113.08V49.1514H115.733V46.3929H118.385V43.6344H121.038V40.8758H123.69V29.4703H111.117V27.2423H126.608V29.3643H128.995V40.8758H126.342V43.6344H123.16V46.3929H120.401V49.1514H117.749V51.91H115.096V54.6685H110.428Z"/>
</mask>
<path d="M32.8547 64.8539V59.4429H35.295V56.5783H37.7352V53.7667H40.1755V50.7429H42.6157V47.8252H45.056V44.9075H47.4962V41.9899H50.0956V39.1783H52.8541V30.4783H50.4669V28.038H40.3346V30.4783H37.9474V39.2844H32.8547V30.4783H35.348V28.038H37.7883V25.5978H53.0133V28.038H55.4535V30.4783H58.0529V39.1783H55.6657V42.3082H53.2255V44.9606H50.8913V47.8252H48.398V50.796H46.0108V53.7667H43.6767V56.6313H41.2364V59.4429H38.7962V62.3075H58.5834V64.8539H32.8547ZM72.0922 64.8539V59.4429H74.5324V56.5783H76.9727V53.7667H79.4129V50.7429H81.8532V47.8252H84.2934V44.9075H86.7336V41.9899H89.333V39.1783H92.0916V30.4783H89.7044V28.038H79.5721V30.4783H77.1849V39.2844H72.0922V30.4783H74.5855V28.038H77.0257V25.5978H92.2507V28.038H94.691V30.4783H97.2904V39.1783H94.9032V42.3082H92.4629V44.9606H90.1288V47.8252H87.6355V50.796H85.2483V53.7667H82.9141V56.6313H80.4739V59.4429H78.0336V62.3075H97.8208V64.8539H72.0922ZM148.145 26.3935H150.639V63.6868H148.145V66.021H145.599V41.5124H139.445V61.5118H136.952V63.846H134.406V27.4545H132.019V25.0673H136.952V27.4545H139.445V39.2313H145.599V26.3935H143.212V24.0063H148.145V26.3935ZM110.428 54.6685V51.91H113.08V49.1514H115.733V46.3929H118.385V43.6344H121.038V40.8758H123.69V29.4703H111.117V27.2423H126.608V29.3643H128.995V40.8758H126.342V43.6344H123.16V46.3929H120.401V49.1514H117.749V51.91H115.096V54.6685H110.428Z" fill="#FB873F"/>
<path d="M32.8547 64.8539H31.4401V66.2685H32.8547V64.8539ZM32.8547 59.4429V58.0283H31.4401V59.4429H32.8547ZM35.295 59.4429V60.8575H36.7096V59.4429H35.295ZM35.295 56.5783V55.1636H33.8803V56.5783H35.295ZM37.7352 56.5783V57.9929H39.1499V56.5783H37.7352ZM37.7352 53.7667V52.3521H36.3206V53.7667H37.7352ZM40.1755 53.7667V55.1813H41.5901V53.7667H40.1755ZM40.1755 50.7429V49.3283H38.7608V50.7429H40.1755ZM42.6157 50.7429V52.1575H44.0303V50.7429H42.6157ZM42.6157 47.8252V46.4106H41.2011V47.8252H42.6157ZM45.056 47.8252V49.2399H46.4706V47.8252H45.056ZM45.056 44.9075V43.4929H43.6413V44.9075H45.056ZM47.4962 44.9075V46.3222H48.9108V44.9075H47.4962ZM47.4962 41.9899V40.5752H46.0816V41.9899H47.4962ZM50.0956 41.9899V43.4045H51.5102V41.9899H50.0956ZM50.0956 39.1783V37.7636H48.681V39.1783H50.0956ZM52.8541 39.1783V40.5929H54.2688V39.1783H52.8541ZM52.8541 30.4783H54.2688V29.0636H52.8541V30.4783ZM50.4669 30.4783H49.0523V31.8929H50.4669V30.4783ZM50.4669 28.038H51.8816V26.6234H50.4669V28.038ZM40.3346 28.038V26.6234H38.92V28.038H40.3346ZM40.3346 30.4783V31.8929H41.7492V30.4783H40.3346ZM37.9474 30.4783V29.0636H36.5328V30.4783H37.9474ZM37.9474 39.2844V40.699H39.3621V39.2844H37.9474ZM32.8547 39.2844H31.4401V40.699H32.8547V39.2844ZM32.8547 30.4783V29.0636H31.4401V30.4783H32.8547ZM35.348 30.4783V31.8929H36.7627V30.4783H35.348ZM35.348 28.038V26.6234H33.9334V28.038H35.348ZM37.7883 28.038V29.4527H39.2029V28.038H37.7883ZM37.7883 25.5978V24.1832H36.3736V25.5978H37.7883ZM53.0133 25.5978H54.4279V24.1832H53.0133V25.5978ZM53.0133 28.038H51.5986V29.4527H53.0133V28.038ZM55.4535 28.038H56.8682V26.6234H55.4535V28.038ZM55.4535 30.4783H54.0389V31.8929H55.4535V30.4783ZM58.0529 30.4783H59.4675V29.0636H58.0529V30.4783ZM58.0529 39.1783V40.5929H59.4675V39.1783H58.0529ZM55.6657 39.1783V37.7636H54.2511V39.1783H55.6657ZM55.6657 42.3082V43.7228H57.0803V42.3082H55.6657ZM53.2255 42.3082V40.8935H51.8108V42.3082H53.2255ZM53.2255 44.9606V46.3752H54.6401V44.9606H53.2255ZM50.8913 44.9606V43.546H49.4767V44.9606H50.8913ZM50.8913 47.8252V49.2399H52.306V47.8252H50.8913ZM48.398 47.8252V46.4106H46.9834V47.8252H48.398ZM48.398 50.796V52.2106H49.8127V50.796H48.398ZM46.0108 50.796V49.3813H44.5962V50.796H46.0108ZM46.0108 53.7667V55.1813H47.4255V53.7667H46.0108ZM43.6767 53.7667V52.3521H42.2621V53.7667H43.6767ZM43.6767 56.6313V58.046H45.0913V56.6313H43.6767ZM41.2364 56.6313V55.2167H39.8218V56.6313H41.2364ZM41.2364 59.4429V60.8575H42.6511V59.4429H41.2364ZM38.7962 59.4429V58.0283H37.3816V59.4429H38.7962ZM38.7962 62.3075H37.3816V63.7222H38.7962V62.3075ZM58.5834 62.3075H59.998V60.8929H58.5834V62.3075ZM58.5834 64.8539V66.2685H59.998V64.8539H58.5834ZM34.2694 64.8539V59.4429H31.4401V64.8539H34.2694ZM32.8547 60.8575H35.295V58.0283H32.8547V60.8575ZM36.7096 59.4429V56.5783H33.8803V59.4429H36.7096ZM35.295 57.9929H37.7352V55.1636H35.295V57.9929ZM39.1499 56.5783V53.7667H36.3206V56.5783H39.1499ZM37.7352 55.1813H40.1755V52.3521H37.7352V55.1813ZM41.5901 53.7667V50.7429H38.7608V53.7667H41.5901ZM40.1755 52.1575H42.6157V49.3283H40.1755V52.1575ZM44.0303 50.7429V47.8252H41.2011V50.7429H44.0303ZM42.6157 49.2399H45.056V46.4106H42.6157V49.2399ZM46.4706 47.8252V44.9075H43.6413V47.8252H46.4706ZM45.056 46.3222H47.4962V43.4929H45.056V46.3222ZM48.9108 44.9075V41.9899H46.0816V44.9075H48.9108ZM47.4962 43.4045H50.0956V40.5752H47.4962V43.4045ZM51.5102 41.9899V39.1783H48.681V41.9899H51.5102ZM50.0956 40.5929H52.8541V37.7636H50.0956V40.5929ZM54.2688 39.1783V30.4783H51.4395V39.1783H54.2688ZM52.8541 29.0636H50.4669V31.8929H52.8541V29.0636ZM51.8816 30.4783V28.038H49.0523V30.4783H51.8816ZM50.4669 26.6234H40.3346V29.4527H50.4669V26.6234ZM38.92 28.038V30.4783H41.7492V28.038H38.92ZM40.3346 29.0636H37.9474V31.8929H40.3346V29.0636ZM36.5328 30.4783V39.2844H39.3621V30.4783H36.5328ZM37.9474 37.8697H32.8547V40.699H37.9474V37.8697ZM34.2694 39.2844V30.4783H31.4401V39.2844H34.2694ZM32.8547 31.8929H35.348V29.0636H32.8547V31.8929ZM36.7627 30.4783V28.038H33.9334V30.4783H36.7627ZM35.348 29.4527H37.7883V26.6234H35.348V29.4527ZM39.2029 28.038V25.5978H36.3736V28.038H39.2029ZM37.7883 27.0124H53.0133V24.1832H37.7883V27.0124ZM51.5986 25.5978V28.038H54.4279V25.5978H51.5986ZM53.0133 29.4527H55.4535V26.6234H53.0133V29.4527ZM54.0389 28.038V30.4783H56.8682V28.038H54.0389ZM55.4535 31.8929H58.0529V29.0636H55.4535V31.8929ZM56.6383 30.4783V39.1783H59.4675V30.4783H56.6383ZM58.0529 37.7636H55.6657V40.5929H58.0529V37.7636ZM54.2511 39.1783V42.3082H57.0803V39.1783H54.2511ZM55.6657 40.8935H53.2255V43.7228H55.6657V40.8935ZM51.8108 42.3082V44.9606H54.6401V42.3082H51.8108ZM53.2255 43.546H50.8913V46.3752H53.2255V43.546ZM49.4767 44.9606V47.8252H52.306V44.9606H49.4767ZM50.8913 46.4106H48.398V49.2399H50.8913V46.4106ZM46.9834 47.8252V50.796H49.8127V47.8252H46.9834ZM48.398 49.3813H46.0108V52.2106H48.398V49.3813ZM44.5962 50.796V53.7667H47.4255V50.796H44.5962ZM46.0108 52.3521H43.6767V55.1813H46.0108V52.3521ZM42.2621 53.7667V56.6313H45.0913V53.7667H42.2621ZM43.6767 55.2167H41.2364V58.046H43.6767V55.2167ZM39.8218 56.6313V59.4429H42.6511V56.6313H39.8218ZM41.2364 58.0283H38.7962V60.8575H41.2364V58.0283ZM37.3816 59.4429V62.3075H40.2108V59.4429H37.3816ZM38.7962 63.7222H58.5834V60.8929H38.7962V63.7222ZM57.1688 62.3075V64.8539H59.998V62.3075H57.1688ZM58.5834 63.4393H32.8547V66.2685H58.5834V63.4393ZM72.0922 64.8539H70.6775V66.2685H72.0922V64.8539ZM72.0922 59.4429V58.0283H70.6775V59.4429H72.0922ZM74.5324 59.4429V60.8575H75.9471V59.4429H74.5324ZM74.5324 56.5783V55.1636H73.1178V56.5783H74.5324ZM76.9727 56.5783V57.9929H78.3873V56.5783H76.9727ZM76.9727 53.7667V52.3521H75.558V53.7667H76.9727ZM79.4129 53.7667V55.1813H80.8275V53.7667H79.4129ZM79.4129 50.7429V49.3283H77.9983V50.7429H79.4129ZM81.8532 50.7429V52.1575H83.2678V50.7429H81.8532ZM81.8532 47.8252V46.4106H80.4385V47.8252H81.8532ZM84.2934 47.8252V49.2399H85.708V47.8252H84.2934ZM84.2934 44.9075V43.4929H82.8788V44.9075H84.2934ZM86.7336 44.9075V46.3222H88.1483V44.9075H86.7336ZM86.7336 41.9899V40.5752H85.319V41.9899H86.7336ZM89.333 41.9899V43.4045H90.7477V41.9899H89.333ZM89.333 39.1783V37.7636H87.9184V39.1783H89.333ZM92.0916 39.1783V40.5929H93.5062V39.1783H92.0916ZM92.0916 30.4783H93.5062V29.0636H92.0916V30.4783ZM89.7044 30.4783H88.2897V31.8929H89.7044V30.4783ZM89.7044 28.038H91.119V26.6234H89.7044V28.038ZM79.5721 28.038V26.6234H78.1574V28.038H79.5721ZM79.5721 30.4783V31.8929H80.9867V30.4783H79.5721ZM77.1849 30.4783V29.0636H75.7702V30.4783H77.1849ZM77.1849 39.2844V40.699H78.5995V39.2844H77.1849ZM72.0922 39.2844H70.6775V40.699H72.0922V39.2844ZM72.0922 30.4783V29.0636H70.6775V30.4783H72.0922ZM74.5855 30.4783V31.8929H76.0001V30.4783H74.5855ZM74.5855 28.038V26.6234H73.1708V28.038H74.5855ZM77.0257 28.038V29.4527H78.4403V28.038H77.0257ZM77.0257 25.5978V24.1832H75.6111V25.5978H77.0257ZM92.2507 25.5978H93.6654V24.1832H92.2507V25.5978ZM92.2507 28.038H90.8361V29.4527H92.2507V28.038ZM94.691 28.038H96.1056V26.6234H94.691V28.038ZM94.691 30.4783H93.2763V31.8929H94.691V30.4783ZM97.2904 30.4783H98.705V29.0636H97.2904V30.4783ZM97.2904 39.1783V40.5929H98.705V39.1783H97.2904ZM94.9032 39.1783V37.7636H93.4885V39.1783H94.9032ZM94.9032 42.3082V43.7228H96.3178V42.3082H94.9032ZM92.4629 42.3082V40.8935H91.0483V42.3082H92.4629ZM92.4629 44.9606V46.3752H93.8775V44.9606H92.4629ZM90.1288 44.9606V43.546H88.7141V44.9606H90.1288ZM90.1288 47.8252V49.2399H91.5434V47.8252H90.1288ZM87.6355 47.8252V46.4106H86.2208V47.8252H87.6355ZM87.6355 50.796V52.2106H89.0501V50.796H87.6355ZM85.2483 50.796V49.3813H83.8336V50.796H85.2483ZM85.2483 53.7667V55.1813H86.6629V53.7667H85.2483ZM82.9141 53.7667V52.3521H81.4995V53.7667H82.9141ZM82.9141 56.6313V58.046H84.3288V56.6313H82.9141ZM80.4739 56.6313V55.2167H79.0593V56.6313H80.4739ZM80.4739 59.4429V60.8575H81.8885V59.4429H80.4739ZM78.0336 59.4429V58.0283H76.619V59.4429H78.0336ZM78.0336 62.3075H76.619V63.7222H78.0336V62.3075ZM97.8208 62.3075H99.2355V60.8929H97.8208V62.3075ZM97.8208 64.8539V66.2685H99.2355V64.8539H97.8208ZM73.5068 64.8539V59.4429H70.6775V64.8539H73.5068ZM72.0922 60.8575H74.5324V58.0283H72.0922V60.8575ZM75.9471 59.4429V56.5783H73.1178V59.4429H75.9471ZM74.5324 57.9929H76.9727V55.1636H74.5324V57.9929ZM78.3873 56.5783V53.7667H75.558V56.5783H78.3873ZM76.9727 55.1813H79.4129V52.3521H76.9727V55.1813ZM80.8275 53.7667V50.7429H77.9983V53.7667H80.8275ZM79.4129 52.1575H81.8532V49.3283H79.4129V52.1575ZM83.2678 50.7429V47.8252H80.4385V50.7429H83.2678ZM81.8532 49.2399H84.2934V46.4106H81.8532V49.2399ZM85.708 47.8252V44.9075H82.8788V47.8252H85.708ZM84.2934 46.3222H86.7336V43.4929H84.2934V46.3222ZM88.1483 44.9075V41.9899H85.319V44.9075H88.1483ZM86.7336 43.4045H89.333V40.5752H86.7336V43.4045ZM90.7477 41.9899V39.1783H87.9184V41.9899H90.7477ZM89.333 40.5929H92.0916V37.7636H89.333V40.5929ZM93.5062 39.1783V30.4783H90.6769V39.1783H93.5062ZM92.0916 29.0636H89.7044V31.8929H92.0916V29.0636ZM91.119 30.4783V28.038H88.2897V30.4783H91.119ZM89.7044 26.6234H79.5721V29.4527H89.7044V26.6234ZM78.1574 28.038V30.4783H80.9867V28.038H78.1574ZM79.5721 29.0636H77.1849V31.8929H79.5721V29.0636ZM75.7702 30.4783V39.2844H78.5995V30.4783H75.7702ZM77.1849 37.8697H72.0922V40.699H77.1849V37.8697ZM73.5068 39.2844V30.4783H70.6775V39.2844H73.5068ZM72.0922 31.8929H74.5855V29.0636H72.0922V31.8929ZM76.0001 30.4783V28.038H73.1708V30.4783H76.0001ZM74.5855 29.4527H77.0257V26.6234H74.5855V29.4527ZM78.4403 28.038V25.5978H75.6111V28.038H78.4403ZM77.0257 27.0124H92.2507V24.1832H77.0257V27.0124ZM90.8361 25.5978V28.038H93.6654V25.5978H90.8361ZM92.2507 29.4527H94.691V26.6234H92.2507V29.4527ZM93.2763 28.038V30.4783H96.1056V28.038H93.2763ZM94.691 31.8929H97.2904V29.0636H94.691V31.8929ZM95.8757 30.4783V39.1783H98.705V30.4783H95.8757ZM97.2904 37.7636H94.9032V40.5929H97.2904V37.7636ZM93.4885 39.1783V42.3082H96.3178V39.1783H93.4885ZM94.9032 40.8935H92.4629V43.7228H94.9032V40.8935ZM91.0483 42.3082V44.9606H93.8775V42.3082H91.0483ZM92.4629 43.546H90.1288V46.3752H92.4629V43.546ZM88.7141 44.9606V47.8252H91.5434V44.9606H88.7141ZM90.1288 46.4106H87.6355V49.2399H90.1288V46.4106ZM86.2208 47.8252V50.796H89.0501V47.8252H86.2208ZM87.6355 49.3813H85.2483V52.2106H87.6355V49.3813ZM83.8336 50.796V53.7667H86.6629V50.796H83.8336ZM85.2483 52.3521H82.9141V55.1813H85.2483V52.3521ZM81.4995 53.7667V56.6313H84.3288V53.7667H81.4995ZM82.9141 55.2167H80.4739V58.046H82.9141V55.2167ZM79.0593 56.6313V59.4429H81.8885V56.6313H79.0593ZM80.4739 58.0283H78.0336V60.8575H80.4739V58.0283ZM76.619 59.4429V62.3075H79.4483V59.4429H76.619ZM78.0336 63.7222H97.8208V60.8929H78.0336V63.7222ZM96.4062 62.3075V64.8539H99.2355V62.3075H96.4062ZM97.8208 63.4393H72.0922V66.2685H97.8208V63.4393ZM148.145 26.3935H146.731V27.8082H148.145V26.3935ZM150.639 26.3935H152.053V24.9789H150.639V26.3935ZM150.639 63.6868V65.1014H152.053V63.6868H150.639ZM148.145 63.6868V62.2722H146.731V63.6868H148.145ZM148.145 66.021V67.4356H149.56V66.021H148.145ZM145.599 66.021H144.185V67.4356H145.599V66.021ZM145.599 41.5124H147.014V40.0978H145.599V41.5124ZM139.445 41.5124V40.0978H138.031V41.5124H139.445ZM139.445 61.5118V62.9264H140.86V61.5118H139.445ZM136.952 61.5118V60.0972H135.538V61.5118H136.952ZM136.952 63.846V65.2606H138.367V63.846H136.952ZM134.406 63.846H132.991V65.2606H134.406V63.846ZM134.406 27.4545H135.82V26.0399H134.406V27.4545ZM132.019 27.4545H130.604V28.8691H132.019V27.4545ZM132.019 25.0673V23.6527H130.604V25.0673H132.019ZM136.952 25.0673H138.367V23.6527H136.952V25.0673ZM136.952 27.4545H135.538V28.8691H136.952V27.4545ZM139.445 27.4545H140.86V26.0399H139.445V27.4545ZM139.445 39.2313H138.031V40.646H139.445V39.2313ZM145.599 39.2313V40.646H147.014V39.2313H145.599ZM145.599 26.3935H147.014V24.9789H145.599V26.3935ZM143.212 26.3935H141.797V27.8082H143.212V26.3935ZM143.212 24.0063V22.5917H141.797V24.0063H143.212ZM148.145 24.0063H149.56V22.5917H148.145V24.0063ZM110.428 54.6685H109.013V56.0832H110.428V54.6685ZM110.428 51.91V50.4953H109.013V51.91H110.428ZM113.08 51.91V53.3246H114.495V51.91H113.08ZM113.08 49.1514V47.7368H111.666V49.1514H113.08ZM115.733 49.1514V50.5661H117.147V49.1514H115.733ZM115.733 46.3929V44.9783H114.318V46.3929H115.733ZM118.385 46.3929V47.8075H119.8V46.3929H118.385ZM118.385 43.6344V42.2197H116.97V43.6344H118.385ZM121.038 43.6344V45.049H122.452V43.6344H121.038ZM121.038 40.8758V39.4612H119.623V40.8758H121.038ZM123.69 40.8758V42.2905H125.105V40.8758H123.69ZM123.69 29.4703H125.105V28.0557H123.69V29.4703ZM111.117 29.4703H109.703V30.885H111.117V29.4703ZM111.117 27.2423V25.8277H109.703V27.2423H111.117ZM126.608 27.2423H128.022V25.8277H126.608V27.2423ZM126.608 29.3643H125.193V30.7789H126.608V29.3643ZM128.995 29.3643H130.41V27.9496H128.995V29.3643ZM128.995 40.8758V42.2905H130.41V40.8758H128.995ZM126.342 40.8758V39.4612H124.928V40.8758H126.342ZM126.342 43.6344V45.049H127.757V43.6344H126.342ZM123.16 43.6344V42.2197H121.745V43.6344H123.16ZM123.16 46.3929V47.8075H124.574V46.3929H123.16ZM120.401 46.3929V44.9783H118.986V46.3929H120.401ZM120.401 49.1514V50.5661H121.816V49.1514H120.401ZM117.749 49.1514V47.7368H116.334V49.1514H117.749ZM117.749 51.91V53.3246H119.163V51.91H117.749ZM115.096 51.91V50.4953H113.681V51.91H115.096ZM115.096 54.6685V56.0832H116.511V54.6685H115.096ZM148.145 27.8082H150.639V24.9789H148.145V27.8082ZM149.224 26.3935V63.6868H152.053V26.3935H149.224ZM150.639 62.2722H148.145V65.1014H150.639V62.2722ZM146.731 63.6868V66.021H149.56V63.6868H146.731ZM148.145 64.6063H145.599V67.4356H148.145V64.6063ZM147.014 66.021V41.5124H144.185V66.021H147.014ZM145.599 40.0978H139.445V42.9271H145.599V40.0978ZM138.031 41.5124V61.5118H140.86V41.5124H138.031ZM139.445 60.0972H136.952V62.9264H139.445V60.0972ZM135.538 61.5118V63.846H138.367V61.5118H135.538ZM136.952 62.4313H134.406V65.2606H136.952V62.4313ZM135.82 63.846V27.4545H132.991V63.846H135.82ZM134.406 26.0399H132.019V28.8691H134.406V26.0399ZM133.433 27.4545V25.0673H130.604V27.4545H133.433ZM132.019 26.4819H136.952V23.6527H132.019V26.4819ZM135.538 25.0673V27.4545H138.367V25.0673H135.538ZM136.952 28.8691H139.445V26.0399H136.952V28.8691ZM138.031 27.4545V39.2313H140.86V27.4545H138.031ZM139.445 40.646H145.599V37.8167H139.445V40.646ZM147.014 39.2313V26.3935H144.185V39.2313H147.014ZM145.599 24.9789H143.212V27.8082H145.599V24.9789ZM144.627 26.3935V24.0063H141.797V26.3935H144.627ZM143.212 25.421H148.145V22.5917H143.212V25.421ZM146.731 24.0063V26.3935H149.56V24.0063H146.731ZM111.842 54.6685V51.91H109.013V54.6685H111.842ZM110.428 53.3246H113.08V50.4953H110.428V53.3246ZM114.495 51.91V49.1514H111.666V51.91H114.495ZM113.08 50.5661H115.733V47.7368H113.08V50.5661ZM117.147 49.1514V46.3929H114.318V49.1514H117.147ZM115.733 47.8075H118.385V44.9783H115.733V47.8075ZM119.8 46.3929V43.6344H116.97V46.3929H119.8ZM118.385 45.049H121.038V42.2197H118.385V45.049ZM122.452 43.6344V40.8758H119.623V43.6344H122.452ZM121.038 42.2905H123.69V39.4612H121.038V42.2905ZM125.105 40.8758V29.4703H122.275V40.8758H125.105ZM123.69 28.0557H111.117V30.885H123.69V28.0557ZM112.532 29.4703V27.2423H109.703V29.4703H112.532ZM111.117 28.6569H126.608V25.8277H111.117V28.6569ZM125.193 27.2423V29.3643H128.022V27.2423H125.193ZM126.608 30.7789H128.995V27.9496H126.608V30.7789ZM127.58 29.3643V40.8758H130.41V29.3643H127.58ZM128.995 39.4612H126.342V42.2905H128.995V39.4612ZM124.928 40.8758V43.6344H127.757V40.8758H124.928ZM126.342 42.2197H123.16V45.049H126.342V42.2197ZM121.745 43.6344V46.3929H124.574V43.6344H121.745ZM123.16 44.9783H120.401V47.8075H123.16V44.9783ZM118.986 46.3929V49.1514H121.816V46.3929H118.986ZM120.401 47.7368H117.749V50.5661H120.401V47.7368ZM116.334 49.1514V51.91H119.163V49.1514H116.334ZM117.749 50.4953H115.096V53.3246H117.749V50.4953ZM113.681 51.91V54.6685H116.511V51.91H113.681ZM115.096 53.2539H110.428V56.0832H115.096V53.2539Z" fill="#FB873F" mask="url(#path-4-outside-1_10928_27913)"/>
<mask id="path-6-outside-2_10928_27913" maskUnits="userSpaceOnUse" x="31.2926" y="16.7803" width="121" height="46" fill="black">
<rect fill="white" x="31.2926" y="16.7803" width="121" height="46"/>
<path d="M32.8547 59.9022V54.4912H35.295V51.6266H37.7352V48.815H40.1755V45.7912H42.6157V42.8736H45.056V39.9559H47.4962V37.0382H50.0956V34.2266H52.8541V25.5266H50.4669V23.0864H40.3346V25.5266H37.9474V34.3327H32.8547V25.5266H35.348V23.0864H37.7883V20.6461H53.0133V23.0864H55.4535V25.5266H58.0529V34.2266H55.6657V37.3565H53.2255V40.0089H50.8913V42.8736H48.398V45.8443H46.0108V48.815H43.6767V51.6797H41.2364V54.4912H38.7962V57.3559H58.5834V59.9022H32.8547ZM72.0922 59.9022V54.4912H74.5324V51.6266H76.9727V48.815H79.4129V45.7912H81.8532V42.8736H84.2934V39.9559H86.7336V37.0382H89.333V34.2266H92.0916V25.5266H89.7044V23.0864H79.5721V25.5266H77.1849V34.3327H72.0922V25.5266H74.5855V23.0864H77.0257V20.6461H92.2507V23.0864H94.691V25.5266H97.2904V34.2266H94.9032V37.3565H92.4629V40.0089H90.1288V42.8736H87.6355V45.8443H85.2483V48.815H82.9141V51.6797H80.4739V54.4912H78.0336V57.3559H97.8208V59.9022H72.0922ZM148.145 21.4419H150.639V58.7352H148.145V61.0693H145.599V36.5608H139.445V56.5602H136.952V58.8943H134.406V22.5028H132.019V20.1156H136.952V22.5028H139.445V34.2797H145.599V21.4419H143.212V19.0547H148.145V21.4419ZM110.428 49.7169V46.9583H113.08V44.1998H115.733V41.4412H118.385V38.6827H121.038V35.9242H123.69V24.5187H111.117V22.2906H126.608V24.4126H128.995V35.9242H126.342V38.6827H123.16V41.4412H120.401V44.1998H117.749V46.9583H115.096V49.7169H110.428Z"/>
</mask>
<path d="M32.8547 59.9022V54.4912H35.295V51.6266H37.7352V48.815H40.1755V45.7912H42.6157V42.8736H45.056V39.9559H47.4962V37.0382H50.0956V34.2266H52.8541V25.5266H50.4669V23.0864H40.3346V25.5266H37.9474V34.3327H32.8547V25.5266H35.348V23.0864H37.7883V20.6461H53.0133V23.0864H55.4535V25.5266H58.0529V34.2266H55.6657V37.3565H53.2255V40.0089H50.8913V42.8736H48.398V45.8443H46.0108V48.815H43.6767V51.6797H41.2364V54.4912H38.7962V57.3559H58.5834V59.9022H32.8547ZM72.0922 59.9022V54.4912H74.5324V51.6266H76.9727V48.815H79.4129V45.7912H81.8532V42.8736H84.2934V39.9559H86.7336V37.0382H89.333V34.2266H92.0916V25.5266H89.7044V23.0864H79.5721V25.5266H77.1849V34.3327H72.0922V25.5266H74.5855V23.0864H77.0257V20.6461H92.2507V23.0864H94.691V25.5266H97.2904V34.2266H94.9032V37.3565H92.4629V40.0089H90.1288V42.8736H87.6355V45.8443H85.2483V48.815H82.9141V51.6797H80.4739V54.4912H78.0336V57.3559H97.8208V59.9022H72.0922ZM148.145 21.4419H150.639V58.7352H148.145V61.0693H145.599V36.5608H139.445V56.5602H136.952V58.8943H134.406V22.5028H132.019V20.1156H136.952V22.5028H139.445V34.2797H145.599V21.4419H143.212V19.0547H148.145V21.4419ZM110.428 49.7169V46.9583H113.08V44.1998H115.733V41.4412H118.385V38.6827H121.038V35.9242H123.69V24.5187H111.117V22.2906H126.608V24.4126H128.995V35.9242H126.342V38.6827H123.16V41.4412H120.401V44.1998H117.749V46.9583H115.096V49.7169H110.428Z" fill="#FFFBF6"/>
<path d="M32.8547 59.9022H31.4401V61.3169H32.8547V59.9022ZM32.8547 54.4912V53.0766H31.4401V54.4912H32.8547ZM35.295 54.4912V55.9059H36.7096V54.4912H35.295ZM35.295 51.6266V50.212H33.8803V51.6266H35.295ZM37.7352 51.6266V53.0412H39.1499V51.6266H37.7352ZM37.7352 48.815V47.4004H36.3206V48.815H37.7352ZM40.1755 48.815V50.2297H41.5901V48.815H40.1755ZM40.1755 45.7912V44.3766H38.7608V45.7912H40.1755ZM42.6157 45.7912V47.2059H44.0303V45.7912H42.6157ZM42.6157 42.8736V41.4589H41.2011V42.8736H42.6157ZM45.056 42.8736V44.2882H46.4706V42.8736H45.056ZM45.056 39.9559V38.5412H43.6413V39.9559H45.056ZM47.4962 39.9559V41.3705H48.9108V39.9559H47.4962ZM47.4962 37.0382V35.6236H46.0816V37.0382H47.4962ZM50.0956 37.0382V38.4528H51.5102V37.0382H50.0956ZM50.0956 34.2266V32.812H48.681V34.2266H50.0956ZM52.8541 34.2266V35.6412H54.2688V34.2266H52.8541ZM52.8541 25.5266H54.2688V24.112H52.8541V25.5266ZM50.4669 25.5266H49.0523V26.9412H50.4669V25.5266ZM50.4669 23.0864H51.8816V21.6717H50.4669V23.0864ZM40.3346 23.0864V21.6717H38.92V23.0864H40.3346ZM40.3346 25.5266V26.9412H41.7492V25.5266H40.3346ZM37.9474 25.5266V24.112H36.5328V25.5266H37.9474ZM37.9474 34.3327V35.7473H39.3621V34.3327H37.9474ZM32.8547 34.3327H31.4401V35.7473H32.8547V34.3327ZM32.8547 25.5266V24.112H31.4401V25.5266H32.8547ZM35.348 25.5266V26.9412H36.7627V25.5266H35.348ZM35.348 23.0864V21.6717H33.9334V23.0864H35.348ZM37.7883 23.0864V24.501H39.2029V23.0864H37.7883ZM37.7883 20.6461V19.2315H36.3736V20.6461H37.7883ZM53.0133 20.6461H54.4279V19.2315H53.0133V20.6461ZM53.0133 23.0864H51.5986V24.501H53.0133V23.0864ZM55.4535 23.0864H56.8682V21.6717H55.4535V23.0864ZM55.4535 25.5266H54.0389V26.9412H55.4535V25.5266ZM58.0529 25.5266H59.4675V24.112H58.0529V25.5266ZM58.0529 34.2266V35.6412H59.4675V34.2266H58.0529ZM55.6657 34.2266V32.812H54.2511V34.2266H55.6657ZM55.6657 37.3565V38.7711H57.0803V37.3565H55.6657ZM53.2255 37.3565V35.9419H51.8108V37.3565H53.2255ZM53.2255 40.0089V41.4236H54.6401V40.0089H53.2255ZM50.8913 40.0089V38.5943H49.4767V40.0089H50.8913ZM50.8913 42.8736V44.2882H52.306V42.8736H50.8913ZM48.398 42.8736V41.4589H46.9834V42.8736H48.398ZM48.398 45.8443V47.2589H49.8127V45.8443H48.398ZM46.0108 45.8443V44.4297H44.5962V45.8443H46.0108ZM46.0108 48.815V50.2297H47.4255V48.815H46.0108ZM43.6767 48.815V47.4004H42.2621V48.815H43.6767ZM43.6767 51.6797V53.0943H45.0913V51.6797H43.6767ZM41.2364 51.6797V50.265H39.8218V51.6797H41.2364ZM41.2364 54.4912V55.9059H42.6511V54.4912H41.2364ZM38.7962 54.4912V53.0766H37.3816V54.4912H38.7962ZM38.7962 57.3559H37.3816V58.7705H38.7962V57.3559ZM58.5834 57.3559H59.998V55.9412H58.5834V57.3559ZM58.5834 59.9022V61.3169H59.998V59.9022H58.5834ZM34.2694 59.9022V54.4912H31.4401V59.9022H34.2694ZM32.8547 55.9059H35.295V53.0766H32.8547V55.9059ZM36.7096 54.4912V51.6266H33.8803V54.4912H36.7096ZM35.295 53.0412H37.7352V50.212H35.295V53.0412ZM39.1499 51.6266V48.815H36.3206V51.6266H39.1499ZM37.7352 50.2297H40.1755V47.4004H37.7352V50.2297ZM41.5901 48.815V45.7912H38.7608V48.815H41.5901ZM40.1755 47.2059H42.6157V44.3766H40.1755V47.2059ZM44.0303 45.7912V42.8736H41.2011V45.7912H44.0303ZM42.6157 44.2882H45.056V41.4589H42.6157V44.2882ZM46.4706 42.8736V39.9559H43.6413V42.8736H46.4706ZM45.056 41.3705H47.4962V38.5412H45.056V41.3705ZM48.9108 39.9559V37.0382H46.0816V39.9559H48.9108ZM47.4962 38.4528H50.0956V35.6236H47.4962V38.4528ZM51.5102 37.0382V34.2266H48.681V37.0382H51.5102ZM50.0956 35.6412H52.8541V32.812H50.0956V35.6412ZM54.2688 34.2266V25.5266H51.4395V34.2266H54.2688ZM52.8541 24.112H50.4669V26.9412H52.8541V24.112ZM51.8816 25.5266V23.0864H49.0523V25.5266H51.8816ZM50.4669 21.6717H40.3346V24.501H50.4669V21.6717ZM38.92 23.0864V25.5266H41.7492V23.0864H38.92ZM40.3346 24.112H37.9474V26.9412H40.3346V24.112ZM36.5328 25.5266V34.3327H39.3621V25.5266H36.5328ZM37.9474 32.9181H32.8547V35.7473H37.9474V32.9181ZM34.2694 34.3327V25.5266H31.4401V34.3327H34.2694ZM32.8547 26.9412H35.348V24.112H32.8547V26.9412ZM36.7627 25.5266V23.0864H33.9334V25.5266H36.7627ZM35.348 24.501H37.7883V21.6717H35.348V24.501ZM39.2029 23.0864V20.6461H36.3736V23.0864H39.2029ZM37.7883 22.0608H53.0133V19.2315H37.7883V22.0608ZM51.5986 20.6461V23.0864H54.4279V20.6461H51.5986ZM53.0133 24.501H55.4535V21.6717H53.0133V24.501ZM54.0389 23.0864V25.5266H56.8682V23.0864H54.0389ZM55.4535 26.9412H58.0529V24.112H55.4535V26.9412ZM56.6383 25.5266V34.2266H59.4675V25.5266H56.6383ZM58.0529 32.812H55.6657V35.6412H58.0529V32.812ZM54.2511 34.2266V37.3565H57.0803V34.2266H54.2511ZM55.6657 35.9419H53.2255V38.7711H55.6657V35.9419ZM51.8108 37.3565V40.0089H54.6401V37.3565H51.8108ZM53.2255 38.5943H50.8913V41.4236H53.2255V38.5943ZM49.4767 40.0089V42.8736H52.306V40.0089H49.4767ZM50.8913 41.4589H48.398V44.2882H50.8913V41.4589ZM46.9834 42.8736V45.8443H49.8127V42.8736H46.9834ZM48.398 44.4297H46.0108V47.2589H48.398V44.4297ZM44.5962 45.8443V48.815H47.4255V45.8443H44.5962ZM46.0108 47.4004H43.6767V50.2297H46.0108V47.4004ZM42.2621 48.815V51.6797H45.0913V48.815H42.2621ZM43.6767 50.265H41.2364V53.0943H43.6767V50.265ZM39.8218 51.6797V54.4912H42.6511V51.6797H39.8218ZM41.2364 53.0766H38.7962V55.9059H41.2364V53.0766ZM37.3816 54.4912V57.3559H40.2108V54.4912H37.3816ZM38.7962 58.7705H58.5834V55.9412H38.7962V58.7705ZM57.1688 57.3559V59.9022H59.998V57.3559H57.1688ZM58.5834 58.4876H32.8547V61.3169H58.5834V58.4876ZM72.0922 59.9022H70.6775V61.3169H72.0922V59.9022ZM72.0922 54.4912V53.0766H70.6775V54.4912H72.0922ZM74.5324 54.4912V55.9059H75.9471V54.4912H74.5324ZM74.5324 51.6266V50.212H73.1178V51.6266H74.5324ZM76.9727 51.6266V53.0412H78.3873V51.6266H76.9727ZM76.9727 48.815V47.4004H75.558V48.815H76.9727ZM79.4129 48.815V50.2297H80.8275V48.815H79.4129ZM79.4129 45.7912V44.3766H77.9983V45.7912H79.4129ZM81.8532 45.7912V47.2059H83.2678V45.7912H81.8532ZM81.8532 42.8736V41.4589H80.4385V42.8736H81.8532ZM84.2934 42.8736V44.2882H85.708V42.8736H84.2934ZM84.2934 39.9559V38.5412H82.8788V39.9559H84.2934ZM86.7336 39.9559V41.3705H88.1483V39.9559H86.7336ZM86.7336 37.0382V35.6236H85.319V37.0382H86.7336ZM89.333 37.0382V38.4528H90.7477V37.0382H89.333ZM89.333 34.2266V32.812H87.9184V34.2266H89.333ZM92.0916 34.2266V35.6412H93.5062V34.2266H92.0916ZM92.0916 25.5266H93.5062V24.112H92.0916V25.5266ZM89.7044 25.5266H88.2897V26.9412H89.7044V25.5266ZM89.7044 23.0864H91.119V21.6717H89.7044V23.0864ZM79.5721 23.0864V21.6717H78.1574V23.0864H79.5721ZM79.5721 25.5266V26.9412H80.9867V25.5266H79.5721ZM77.1849 25.5266V24.112H75.7702V25.5266H77.1849ZM77.1849 34.3327V35.7473H78.5995V34.3327H77.1849ZM72.0922 34.3327H70.6775V35.7473H72.0922V34.3327ZM72.0922 25.5266V24.112H70.6775V25.5266H72.0922ZM74.5855 25.5266V26.9412H76.0001V25.5266H74.5855ZM74.5855 23.0864V21.6717H73.1708V23.0864H74.5855ZM77.0257 23.0864V24.501H78.4403V23.0864H77.0257ZM77.0257 20.6461V19.2315H75.6111V20.6461H77.0257ZM92.2507 20.6461H93.6654V19.2315H92.2507V20.6461ZM92.2507 23.0864H90.8361V24.501H92.2507V23.0864ZM94.691 23.0864H96.1056V21.6717H94.691V23.0864ZM94.691 25.5266H93.2763V26.9412H94.691V25.5266ZM97.2904 25.5266H98.705V24.112H97.2904V25.5266ZM97.2904 34.2266V35.6412H98.705V34.2266H97.2904ZM94.9032 34.2266V32.812H93.4885V34.2266H94.9032ZM94.9032 37.3565V38.7711H96.3178V37.3565H94.9032ZM92.4629 37.3565V35.9419H91.0483V37.3565H92.4629ZM92.4629 40.0089V41.4236H93.8775V40.0089H92.4629ZM90.1288 40.0089V38.5943H88.7141V40.0089H90.1288ZM90.1288 42.8736V44.2882H91.5434V42.8736H90.1288ZM87.6355 42.8736V41.4589H86.2208V42.8736H87.6355ZM87.6355 45.8443V47.2589H89.0501V45.8443H87.6355ZM85.2483 45.8443V44.4297H83.8336V45.8443H85.2483ZM85.2483 48.815V50.2297H86.6629V48.815H85.2483ZM82.9141 48.815V47.4004H81.4995V48.815H82.9141ZM82.9141 51.6797V53.0943H84.3288V51.6797H82.9141ZM80.4739 51.6797V50.265H79.0593V51.6797H80.4739ZM80.4739 54.4912V55.9059H81.8885V54.4912H80.4739ZM78.0336 54.4912V53.0766H76.619V54.4912H78.0336ZM78.0336 57.3559H76.619V58.7705H78.0336V57.3559ZM97.8208 57.3559H99.2355V55.9412H97.8208V57.3559ZM97.8208 59.9022V61.3169H99.2355V59.9022H97.8208ZM73.5068 59.9022V54.4912H70.6775V59.9022H73.5068ZM72.0922 55.9059H74.5324V53.0766H72.0922V55.9059ZM75.9471 54.4912V51.6266H73.1178V54.4912H75.9471ZM74.5324 53.0412H76.9727V50.212H74.5324V53.0412ZM78.3873 51.6266V48.815H75.558V51.6266H78.3873ZM76.9727 50.2297H79.4129V47.4004H76.9727V50.2297ZM80.8275 48.815V45.7912H77.9983V48.815H80.8275ZM79.4129 47.2059H81.8532V44.3766H79.4129V47.2059ZM83.2678 45.7912V42.8736H80.4385V45.7912H83.2678ZM81.8532 44.2882H84.2934V41.4589H81.8532V44.2882ZM85.708 42.8736V39.9559H82.8788V42.8736H85.708ZM84.2934 41.3705H86.7336V38.5412H84.2934V41.3705ZM88.1483 39.9559V37.0382H85.319V39.9559H88.1483ZM86.7336 38.4528H89.333V35.6236H86.7336V38.4528ZM90.7477 37.0382V34.2266H87.9184V37.0382H90.7477ZM89.333 35.6412H92.0916V32.812H89.333V35.6412ZM93.5062 34.2266V25.5266H90.6769V34.2266H93.5062ZM92.0916 24.112H89.7044V26.9412H92.0916V24.112ZM91.119 25.5266V23.0864H88.2897V25.5266H91.119ZM89.7044 21.6717H79.5721V24.501H89.7044V21.6717ZM78.1574 23.0864V25.5266H80.9867V23.0864H78.1574ZM79.5721 24.112H77.1849V26.9412H79.5721V24.112ZM75.7702 25.5266V34.3327H78.5995V25.5266H75.7702ZM77.1849 32.9181H72.0922V35.7473H77.1849V32.9181ZM73.5068 34.3327V25.5266H70.6775V34.3327H73.5068ZM72.0922 26.9412H74.5855V24.112H72.0922V26.9412ZM76.0001 25.5266V23.0864H73.1708V25.5266H76.0001ZM74.5855 24.501H77.0257V21.6717H74.5855V24.501ZM78.4403 23.0864V20.6461H75.6111V23.0864H78.4403ZM77.0257 22.0608H92.2507V19.2315H77.0257V22.0608ZM90.8361 20.6461V23.0864H93.6654V20.6461H90.8361ZM92.2507 24.501H94.691V21.6717H92.2507V24.501ZM93.2763 23.0864V25.5266H96.1056V23.0864H93.2763ZM94.691 26.9412H97.2904V24.112H94.691V26.9412ZM95.8757 25.5266V34.2266H98.705V25.5266H95.8757ZM97.2904 32.812H94.9032V35.6412H97.2904V32.812ZM93.4885 34.2266V37.3565H96.3178V34.2266H93.4885ZM94.9032 35.9419H92.4629V38.7711H94.9032V35.9419ZM91.0483 37.3565V40.0089H93.8775V37.3565H91.0483ZM92.4629 38.5943H90.1288V41.4236H92.4629V38.5943ZM88.7141 40.0089V42.8736H91.5434V40.0089H88.7141ZM90.1288 41.4589H87.6355V44.2882H90.1288V41.4589ZM86.2208 42.8736V45.8443H89.0501V42.8736H86.2208ZM87.6355 44.4297H85.2483V47.2589H87.6355V44.4297ZM83.8336 45.8443V48.815H86.6629V45.8443H83.8336ZM85.2483 47.4004H82.9141V50.2297H85.2483V47.4004ZM81.4995 48.815V51.6797H84.3288V48.815H81.4995ZM82.9141 50.265H80.4739V53.0943H82.9141V50.265ZM79.0593 51.6797V54.4912H81.8885V51.6797H79.0593ZM80.4739 53.0766H78.0336V55.9059H80.4739V53.0766ZM76.619 54.4912V57.3559H79.4483V54.4912H76.619ZM78.0336 58.7705H97.8208V55.9412H78.0336V58.7705ZM96.4062 57.3559V59.9022H99.2355V57.3559H96.4062ZM97.8208 58.4876H72.0922V61.3169H97.8208V58.4876ZM148.145 21.4419H146.731V22.8565H148.145V21.4419ZM150.639 21.4419H152.053V20.0272H150.639V21.4419ZM150.639 58.7352V60.1498H152.053V58.7352H150.639ZM148.145 58.7352V57.3205H146.731V58.7352H148.145ZM148.145 61.0693V62.4839H149.56V61.0693H148.145ZM145.599 61.0693H144.185V62.4839H145.599V61.0693ZM145.599 36.5608H147.014V35.1461H145.599V36.5608ZM139.445 36.5608V35.1461H138.031V36.5608H139.445ZM139.445 56.5602V57.9748H140.86V56.5602H139.445ZM136.952 56.5602V55.1455H135.538V56.5602H136.952ZM136.952 58.8943V60.3089H138.367V58.8943H136.952ZM134.406 58.8943H132.991V60.3089H134.406V58.8943ZM134.406 22.5028H135.82V21.0882H134.406V22.5028ZM132.019 22.5028H130.604V23.9175H132.019V22.5028ZM132.019 20.1156V18.701H130.604V20.1156H132.019ZM136.952 20.1156H138.367V18.701H136.952V20.1156ZM136.952 22.5028H135.538V23.9175H136.952V22.5028ZM139.445 22.5028H140.86V21.0882H139.445V22.5028ZM139.445 34.2797H138.031V35.6943H139.445V34.2797ZM145.599 34.2797V35.6943H147.014V34.2797H145.599ZM145.599 21.4419H147.014V20.0272H145.599V21.4419ZM143.212 21.4419H141.797V22.8565H143.212V21.4419ZM143.212 19.0547V17.64H141.797V19.0547H143.212ZM148.145 19.0547H149.56V17.64H148.145V19.0547ZM110.428 49.7169H109.013V51.1315H110.428V49.7169ZM110.428 46.9583V45.5437H109.013V46.9583H110.428ZM113.08 46.9583V48.373H114.495V46.9583H113.08ZM113.08 44.1998V42.7852H111.666V44.1998H113.08ZM115.733 44.1998V45.6144H117.147V44.1998H115.733ZM115.733 41.4412V40.0266H114.318V41.4412H115.733ZM118.385 41.4412V42.8559H119.8V41.4412H118.385ZM118.385 38.6827V37.2681H116.97V38.6827H118.385ZM121.038 38.6827V40.0973H122.452V38.6827H121.038ZM121.038 35.9242V34.5095H119.623V35.9242H121.038ZM123.69 35.9242V37.3388H125.105V35.9242H123.69ZM123.69 24.5187H125.105V23.1041H123.69V24.5187ZM111.117 24.5187H109.703V25.9333H111.117V24.5187ZM111.117 22.2906V20.876H109.703V22.2906H111.117ZM126.608 22.2906H128.022V20.876H126.608V22.2906ZM126.608 24.4126H125.193V25.8272H126.608V24.4126ZM128.995 24.4126H130.41V22.998H128.995V24.4126ZM128.995 35.9242V37.3388H130.41V35.9242H128.995ZM126.342 35.9242V34.5095H124.928V35.9242H126.342ZM126.342 38.6827V40.0973H127.757V38.6827H126.342ZM123.16 38.6827V37.2681H121.745V38.6827H123.16ZM123.16 41.4412V42.8559H124.574V41.4412H123.16ZM120.401 41.4412V40.0266H118.986V41.4412H120.401ZM120.401 44.1998V45.6144H121.816V44.1998H120.401ZM117.749 44.1998V42.7852H116.334V44.1998H117.749ZM117.749 46.9583V48.373H119.163V46.9583H117.749ZM115.096 46.9583V45.5437H113.681V46.9583H115.096ZM115.096 49.7169V51.1315H116.511V49.7169H115.096ZM148.145 22.8565H150.639V20.0272H148.145V22.8565ZM149.224 21.4419V58.7352H152.053V21.4419H149.224ZM150.639 57.3205H148.145V60.1498H150.639V57.3205ZM146.731 58.7352V61.0693H149.56V58.7352H146.731ZM148.145 59.6547H145.599V62.4839H148.145V59.6547ZM147.014 61.0693V36.5608H144.185V61.0693H147.014ZM145.599 35.1461H139.445V37.9754H145.599V35.1461ZM138.031 36.5608V56.5602H140.86V36.5608H138.031ZM139.445 55.1455H136.952V57.9748H139.445V55.1455ZM135.538 56.5602V58.8943H138.367V56.5602H135.538ZM136.952 57.4797H134.406V60.3089H136.952V57.4797ZM135.82 58.8943V22.5028H132.991V58.8943H135.82ZM134.406 21.0882H132.019V23.9175H134.406V21.0882ZM133.433 22.5028V20.1156H130.604V22.5028H133.433ZM132.019 21.5303H136.952V18.701H132.019V21.5303ZM135.538 20.1156V22.5028H138.367V20.1156H135.538ZM136.952 23.9175H139.445V21.0882H136.952V23.9175ZM138.031 22.5028V34.2797H140.86V22.5028H138.031ZM139.445 35.6943H145.599V32.865H139.445V35.6943ZM147.014 34.2797V21.4419H144.185V34.2797H147.014ZM145.599 20.0272H143.212V22.8565H145.599V20.0272ZM144.627 21.4419V19.0547H141.797V21.4419H144.627ZM143.212 20.4693H148.145V17.64H143.212V20.4693ZM146.731 19.0547V21.4419H149.56V19.0547H146.731ZM111.842 49.7169V46.9583H109.013V49.7169H111.842ZM110.428 48.373H113.08V45.5437H110.428V48.373ZM114.495 46.9583V44.1998H111.666V46.9583H114.495ZM113.08 45.6144H115.733V42.7852H113.08V45.6144ZM117.147 44.1998V41.4412H114.318V44.1998H117.147ZM115.733 42.8559H118.385V40.0266H115.733V42.8559ZM119.8 41.4412V38.6827H116.97V41.4412H119.8ZM118.385 40.0973H121.038V37.2681H118.385V40.0973ZM122.452 38.6827V35.9242H119.623V38.6827H122.452ZM121.038 37.3388H123.69V34.5095H121.038V37.3388ZM125.105 35.9242V24.5187H122.275V35.9242H125.105ZM123.69 23.1041H111.117V25.9333H123.69V23.1041ZM112.532 24.5187V22.2906H109.703V24.5187H112.532ZM111.117 23.7053H126.608V20.876H111.117V23.7053ZM125.193 22.2906V24.4126H128.022V22.2906H125.193ZM126.608 25.8272H128.995V22.998H126.608V25.8272ZM127.58 24.4126V35.9242H130.41V24.4126H127.58ZM128.995 34.5095H126.342V37.3388H128.995V34.5095ZM124.928 35.9242V38.6827H127.757V35.9242H124.928ZM126.342 37.2681H123.16V40.0973H126.342V37.2681ZM121.745 38.6827V41.4412H124.574V38.6827H121.745ZM123.16 40.0266H120.401V42.8559H123.16V40.0266ZM118.986 41.4412V44.1998H121.816V41.4412H118.986ZM120.401 42.7852H117.749V45.6144H120.401V42.7852ZM116.334 44.1998V46.9583H119.163V44.1998H116.334ZM117.749 45.5437H115.096V48.373H117.749V45.5437ZM113.681 46.9583V49.7169H116.511V46.9583H113.681ZM115.096 48.3022H110.428V51.1315H115.096V48.3022Z" fill="#FFFBF6" mask="url(#path-6-outside-2_10928_27913)"/>
<rect x="41.0244" y="84.7559" width="8.4878" height="36.7805" fill="#FFA000"/>
<rect x="135.805" y="84.7559" width="8.4878" height="36.7805" fill="#FFA000"/>
</svg>
