<svg width="263" height="209" viewBox="0 0 263 209" fill="none" xmlns="http://www.w3.org/2000/svg">
<rect x="38" y="155" width="185" height="54" rx="27" fill="#FFA000"/>
<path d="M104.66 170.672V173.25H88.957V170.672H95.1973V168.006H98.4492V170.672H104.66ZM90.3047 179.109C90.3047 176.209 92.9854 174.275 96.8086 174.275C100.632 174.275 103.269 176.209 103.283 179.109C103.269 182.01 100.632 183.943 96.8086 183.943C92.9854 183.943 90.3047 182.01 90.3047 179.109ZM92.1797 188.543V185.936H109.816V194.607H106.564V188.543H92.1797ZM93.4688 179.109C93.4541 180.604 94.8018 181.438 96.8086 181.424C98.8154 181.438 100.178 180.604 100.178 179.109C100.178 177.615 98.8154 176.736 96.8086 176.736C94.8018 176.736 93.4541 177.615 93.4688 179.109ZM106.564 184.705V168.123H109.816V175.154H113.508V177.82H109.816V184.705H106.564ZM136.564 170.555V173.25C136.564 176.546 136.564 180.091 135.598 185.291L132.404 184.969C133.312 180.062 133.312 176.458 133.312 173.25V173.162H117.287V170.555H136.564ZM114.855 191.18V188.514H120.275V180.076H123.527V188.514H126.896V180.076H130.09V188.514H138.996V191.18H114.855ZM161.701 170.32C161.687 173.646 165.422 177.029 171.076 177.762L169.787 180.398C165.29 179.725 161.716 177.513 159.987 174.524C158.259 177.513 154.699 179.725 150.246 180.398L148.957 177.762C154.553 177.029 158.273 173.675 158.273 170.32V168.973H161.701V170.32ZM147.902 185.379V182.684H172.043V185.379H161.525V194.607H158.303V185.379H147.902Z" fill="#FFFBF6"/>
<path d="M0 12.3415H11.7767V24.6829H0V12.3415Z" fill="#FFA000"/>
<path d="M0 106.959H11.7767V94.6179H0V106.959Z" fill="#FFA000"/>
<path d="M262.67 12.3415H250.893V24.6829H262.67V12.3415Z" fill="#FFA000"/>
<path d="M262.67 106.959H250.893V94.6179H262.67V106.959Z" fill="#FFA000"/>
<path d="M11.7767 0H23.5535V12.3415L11.7767 12.3415V0Z" fill="#FFA000"/>
<path d="M11.7767 119.301H23.5535V106.959H11.7767V119.301Z" fill="#FFA000"/>
<path d="M250.893 0H239.116V12.3415L250.893 12.3415V0Z" fill="#FFA000"/>
<path d="M250.893 119.301L239.116 119.301V106.959H250.893V119.301Z" fill="#FFA000"/>
<path d="M11.7767 24.6829H0V94.6179H11.7767V106.959H23.5535V119.301H175.67H239.116V106.959H250.893V94.6179H262.67V24.6829H250.893V12.3415L239.116 12.3415V0H23.5535V12.3415L11.7767 12.3415V24.6829Z" fill="#FFC700"/>
<mask id="path-4-outside-1_12397_38274" maskUnits="userSpaceOnUse" x="44" y="30" width="171" height="64" fill="black">
<rect fill="white" x="44" y="30" width="171" height="64"/>
<path d="M46.2603 82.35H49.7103V78.3H53.1603V74.325H56.6103V70.05H60.0603V65.925H63.5103V61.8H66.9603V57.675H70.6353V53.7H74.5353V41.4H71.1603V37.95H56.8353V41.4H53.4603V53.85H46.2603V41.4H49.7853V37.95H53.2353V34.5H74.7603V37.95H78.2103V41.4H81.8853V53.7H78.5103V58.125H75.0603V61.875H71.7603V65.925H68.2353V70.125H64.8603V74.325H61.5603V78.375H58.1103V82.35H54.6603V86.4H82.6353V90H46.2603V82.35ZM101.734 82.35H105.184V78.3H108.634V74.325H112.084V70.05H115.534V65.925H118.984V61.8H122.434V57.675H126.109V53.7H130.009V41.4H126.634V37.95H112.309V41.4H108.934V53.85H101.734V41.4H105.259V37.95H108.709V34.5H130.234V37.95H133.684V41.4H137.359V53.7H133.984V58.125H130.534V61.875H127.234V65.925H123.709V70.125H120.334V74.325H117.034V78.375H113.584V82.35H110.134V86.4H138.109V90H101.734V82.35ZM212.783 35.625V88.35H209.258V91.65H205.658V57H196.958V85.275H193.433V88.575H189.833V37.125H186.458V33.75H193.433V37.125H196.958V53.775H205.658V35.625H202.283V32.25H209.258V35.625H212.783ZM155.933 71.7H159.683V67.8H163.433V63.9H167.183V60H170.933V56.1H174.683V39.975H156.908V36.825H178.808V39.825H182.183V56.1H178.433V60H173.933V63.9H170.033V67.8H166.283V71.7H162.533V75.6H155.933V71.7Z"/>
</mask>
<path d="M46.2603 82.35H49.7103V78.3H53.1603V74.325H56.6103V70.05H60.0603V65.925H63.5103V61.8H66.9603V57.675H70.6353V53.7H74.5353V41.4H71.1603V37.95H56.8353V41.4H53.4603V53.85H46.2603V41.4H49.7853V37.95H53.2353V34.5H74.7603V37.95H78.2103V41.4H81.8853V53.7H78.5103V58.125H75.0603V61.875H71.7603V65.925H68.2353V70.125H64.8603V74.325H61.5603V78.375H58.1103V82.35H54.6603V86.4H82.6353V90H46.2603V82.35ZM101.734 82.35H105.184V78.3H108.634V74.325H112.084V70.05H115.534V65.925H118.984V61.8H122.434V57.675H126.109V53.7H130.009V41.4H126.634V37.95H112.309V41.4H108.934V53.85H101.734V41.4H105.259V37.95H108.709V34.5H130.234V37.95H133.684V41.4H137.359V53.7H133.984V58.125H130.534V61.875H127.234V65.925H123.709V70.125H120.334V74.325H117.034V78.375H113.584V82.35H110.134V86.4H138.109V90H101.734V82.35ZM212.783 35.625V88.35H209.258V91.65H205.658V57H196.958V85.275H193.433V88.575H189.833V37.125H186.458V33.75H193.433V37.125H196.958V53.775H205.658V35.625H202.283V32.25H209.258V35.625H212.783ZM155.933 71.7H159.683V67.8H163.433V63.9H167.183V60H170.933V56.1H174.683V39.975H156.908V36.825H178.808V39.825H182.183V56.1H178.433V60H173.933V63.9H170.033V67.8H166.283V71.7H162.533V75.6H155.933V71.7Z" fill="#FB873F"/>
<path d="M46.2603 82.35V80.35H44.2603V82.35H46.2603ZM49.7103 82.35V84.35H51.7103V82.35H49.7103ZM49.7103 78.3V76.3H47.7103V78.3H49.7103ZM53.1603 78.3V80.3H55.1603V78.3H53.1603ZM53.1603 74.325V72.325H51.1603V74.325H53.1603ZM56.6103 74.325V76.325H58.6103V74.325H56.6103ZM56.6103 70.05V68.05H54.6103V70.05H56.6103ZM60.0603 70.05V72.05H62.0603V70.05H60.0603ZM60.0603 65.925V63.925H58.0603V65.925H60.0603ZM63.5103 65.925V67.925H65.5103V65.925H63.5103ZM63.5103 61.8V59.8H61.5103V61.8H63.5103ZM66.9603 61.8V63.8H68.9603V61.8H66.9603ZM66.9603 57.675V55.675H64.9603V57.675H66.9603ZM70.6353 57.675V59.675H72.6353V57.675H70.6353ZM70.6353 53.7V51.7H68.6353V53.7H70.6353ZM74.5353 53.7V55.7H76.5353V53.7H74.5353ZM74.5353 41.4H76.5353V39.4H74.5353V41.4ZM71.1603 41.4H69.1603V43.4H71.1603V41.4ZM71.1603 37.95H73.1603V35.95H71.1603V37.95ZM56.8353 37.95V35.95H54.8353V37.95H56.8353ZM56.8353 41.4V43.4H58.8353V41.4H56.8353ZM53.4603 41.4V39.4H51.4603V41.4H53.4603ZM53.4603 53.85V55.85H55.4603V53.85H53.4603ZM46.2603 53.85H44.2603V55.85H46.2603V53.85ZM46.2603 41.4V39.4H44.2603V41.4H46.2603ZM49.7853 41.4V43.4H51.7853V41.4H49.7853ZM49.7853 37.95V35.95H47.7853V37.95H49.7853ZM53.2353 37.95V39.95H55.2353V37.95H53.2353ZM53.2353 34.5V32.5H51.2353V34.5H53.2353ZM74.7603 34.5H76.7603V32.5H74.7603V34.5ZM74.7603 37.95H72.7603V39.95H74.7603V37.95ZM78.2103 37.95H80.2103V35.95H78.2103V37.95ZM78.2103 41.4H76.2103V43.4H78.2103V41.4ZM81.8853 41.4H83.8853V39.4H81.8853V41.4ZM81.8853 53.7V55.7H83.8853V53.7H81.8853ZM78.5103 53.7V51.7H76.5103V53.7H78.5103ZM78.5103 58.125V60.125H80.5103V58.125H78.5103ZM75.0603 58.125V56.125H73.0603V58.125H75.0603ZM75.0603 61.875V63.875H77.0603V61.875H75.0603ZM71.7603 61.875V59.875H69.7603V61.875H71.7603ZM71.7603 65.925V67.925H73.7603V65.925H71.7603ZM68.2353 65.925V63.925H66.2353V65.925H68.2353ZM68.2353 70.125V72.125H70.2353V70.125H68.2353ZM64.8603 70.125V68.125H62.8603V70.125H64.8603ZM64.8603 74.325V76.325H66.8603V74.325H64.8603ZM61.5603 74.325V72.325H59.5603V74.325H61.5603ZM61.5603 78.375V80.375H63.5603V78.375H61.5603ZM58.1103 78.375V76.375H56.1103V78.375H58.1103ZM58.1103 82.35V84.35H60.1103V82.35H58.1103ZM54.6603 82.35V80.35H52.6603V82.35H54.6603ZM54.6603 86.4H52.6603V88.4H54.6603V86.4ZM82.6353 86.4H84.6353V84.4H82.6353V86.4ZM82.6353 90V92H84.6353V90H82.6353ZM46.2603 90H44.2603V92H46.2603V90ZM46.2603 84.35H49.7103V80.35H46.2603V84.35ZM51.7103 82.35V78.3H47.7103V82.35H51.7103ZM49.7103 80.3H53.1603V76.3H49.7103V80.3ZM55.1603 78.3V74.325H51.1603V78.3H55.1603ZM53.1603 76.325H56.6103V72.325H53.1603V76.325ZM58.6103 74.325V70.05H54.6103V74.325H58.6103ZM56.6103 72.05H60.0603V68.05H56.6103V72.05ZM62.0603 70.05V65.925H58.0603V70.05H62.0603ZM60.0603 67.925H63.5103V63.925H60.0603V67.925ZM65.5103 65.925V61.8H61.5103V65.925H65.5103ZM63.5103 63.8H66.9603V59.8H63.5103V63.8ZM68.9603 61.8V57.675H64.9603V61.8H68.9603ZM66.9603 59.675H70.6353V55.675H66.9603V59.675ZM72.6353 57.675V53.7H68.6353V57.675H72.6353ZM70.6353 55.7H74.5353V51.7H70.6353V55.7ZM76.5353 53.7V41.4H72.5353V53.7H76.5353ZM74.5353 39.4H71.1603V43.4H74.5353V39.4ZM73.1603 41.4V37.95H69.1603V41.4H73.1603ZM71.1603 35.95H56.8353V39.95H71.1603V35.95ZM54.8353 37.95V41.4H58.8353V37.95H54.8353ZM56.8353 39.4H53.4603V43.4H56.8353V39.4ZM51.4603 41.4V53.85H55.4603V41.4H51.4603ZM53.4603 51.85H46.2603V55.85H53.4603V51.85ZM48.2603 53.85V41.4H44.2603V53.85H48.2603ZM46.2603 43.4H49.7853V39.4H46.2603V43.4ZM51.7853 41.4V37.95H47.7853V41.4H51.7853ZM49.7853 39.95H53.2353V35.95H49.7853V39.95ZM55.2353 37.95V34.5H51.2353V37.95H55.2353ZM53.2353 36.5H74.7603V32.5H53.2353V36.5ZM72.7603 34.5V37.95H76.7603V34.5H72.7603ZM74.7603 39.95H78.2103V35.95H74.7603V39.95ZM76.2103 37.95V41.4H80.2103V37.95H76.2103ZM78.2103 43.4H81.8853V39.4H78.2103V43.4ZM79.8853 41.4V53.7H83.8853V41.4H79.8853ZM81.8853 51.7H78.5103V55.7H81.8853V51.7ZM76.5103 53.7V58.125H80.5103V53.7H76.5103ZM78.5103 56.125H75.0603V60.125H78.5103V56.125ZM73.0603 58.125V61.875H77.0603V58.125H73.0603ZM75.0603 59.875H71.7603V63.875H75.0603V59.875ZM69.7603 61.875V65.925H73.7603V61.875H69.7603ZM71.7603 63.925H68.2353V67.925H71.7603V63.925ZM66.2353 65.925V70.125H70.2353V65.925H66.2353ZM68.2353 68.125H64.8603V72.125H68.2353V68.125ZM62.8603 70.125V74.325H66.8603V70.125H62.8603ZM64.8603 72.325H61.5603V76.325H64.8603V72.325ZM59.5603 74.325V78.375H63.5603V74.325H59.5603ZM61.5603 76.375H58.1103V80.375H61.5603V76.375ZM56.1103 78.375V82.35H60.1103V78.375H56.1103ZM58.1103 80.35H54.6603V84.35H58.1103V80.35ZM52.6603 82.35V86.4H56.6603V82.35H52.6603ZM54.6603 88.4H82.6353V84.4H54.6603V88.4ZM80.6353 86.4V90H84.6353V86.4H80.6353ZM82.6353 88H46.2603V92H82.6353V88ZM48.2603 90V82.35H44.2603V90H48.2603ZM101.734 82.35V80.35H99.7339V82.35H101.734ZM105.184 82.35V84.35H107.184V82.35H105.184ZM105.184 78.3V76.3H103.184V78.3H105.184ZM108.634 78.3V80.3H110.634V78.3H108.634ZM108.634 74.325V72.325H106.634V74.325H108.634ZM112.084 74.325V76.325H114.084V74.325H112.084ZM112.084 70.05V68.05H110.084V70.05H112.084ZM115.534 70.05V72.05H117.534V70.05H115.534ZM115.534 65.925V63.925H113.534V65.925H115.534ZM118.984 65.925V67.925H120.984V65.925H118.984ZM118.984 61.8V59.8H116.984V61.8H118.984ZM122.434 61.8V63.8H124.434V61.8H122.434ZM122.434 57.675V55.675H120.434V57.675H122.434ZM126.109 57.675V59.675H128.109V57.675H126.109ZM126.109 53.7V51.7H124.109V53.7H126.109ZM130.009 53.7V55.7H132.009V53.7H130.009ZM130.009 41.4H132.009V39.4H130.009V41.4ZM126.634 41.4H124.634V43.4H126.634V41.4ZM126.634 37.95H128.634V35.95H126.634V37.95ZM112.309 37.95V35.95H110.309V37.95H112.309ZM112.309 41.4V43.4H114.309V41.4H112.309ZM108.934 41.4V39.4H106.934V41.4H108.934ZM108.934 53.85V55.85H110.934V53.85H108.934ZM101.734 53.85H99.7339V55.85H101.734V53.85ZM101.734 41.4V39.4H99.7339V41.4H101.734ZM105.259 41.4V43.4H107.259V41.4H105.259ZM105.259 37.95V35.95H103.259V37.95H105.259ZM108.709 37.95V39.95H110.709V37.95H108.709ZM108.709 34.5V32.5H106.709V34.5H108.709ZM130.234 34.5H132.234V32.5H130.234V34.5ZM130.234 37.95H128.234V39.95H130.234V37.95ZM133.684 37.95H135.684V35.95H133.684V37.95ZM133.684 41.4H131.684V43.4H133.684V41.4ZM137.359 41.4H139.359V39.4H137.359V41.4ZM137.359 53.7V55.7H139.359V53.7H137.359ZM133.984 53.7V51.7H131.984V53.7H133.984ZM133.984 58.125V60.125H135.984V58.125H133.984ZM130.534 58.125V56.125H128.534V58.125H130.534ZM130.534 61.875V63.875H132.534V61.875H130.534ZM127.234 61.875V59.875H125.234V61.875H127.234ZM127.234 65.925V67.925H129.234V65.925H127.234ZM123.709 65.925V63.925H121.709V65.925H123.709ZM123.709 70.125V72.125H125.709V70.125H123.709ZM120.334 70.125V68.125H118.334V70.125H120.334ZM120.334 74.325V76.325H122.334V74.325H120.334ZM117.034 74.325V72.325H115.034V74.325H117.034ZM117.034 78.375V80.375H119.034V78.375H117.034ZM113.584 78.375V76.375H111.584V78.375H113.584ZM113.584 82.35V84.35H115.584V82.35H113.584ZM110.134 82.35V80.35H108.134V82.35H110.134ZM110.134 86.4H108.134V88.4H110.134V86.4ZM138.109 86.4H140.109V84.4H138.109V86.4ZM138.109 90V92H140.109V90H138.109ZM101.734 90H99.7339V92H101.734V90ZM101.734 84.35H105.184V80.35H101.734V84.35ZM107.184 82.35V78.3H103.184V82.35H107.184ZM105.184 80.3H108.634V76.3H105.184V80.3ZM110.634 78.3V74.325H106.634V78.3H110.634ZM108.634 76.325H112.084V72.325H108.634V76.325ZM114.084 74.325V70.05H110.084V74.325H114.084ZM112.084 72.05H115.534V68.05H112.084V72.05ZM117.534 70.05V65.925H113.534V70.05H117.534ZM115.534 67.925H118.984V63.925H115.534V67.925ZM120.984 65.925V61.8H116.984V65.925H120.984ZM118.984 63.8H122.434V59.8H118.984V63.8ZM124.434 61.8V57.675H120.434V61.8H124.434ZM122.434 59.675H126.109V55.675H122.434V59.675ZM128.109 57.675V53.7H124.109V57.675H128.109ZM126.109 55.7H130.009V51.7H126.109V55.7ZM132.009 53.7V41.4H128.009V53.7H132.009ZM130.009 39.4H126.634V43.4H130.009V39.4ZM128.634 41.4V37.95H124.634V41.4H128.634ZM126.634 35.95H112.309V39.95H126.634V35.95ZM110.309 37.95V41.4H114.309V37.95H110.309ZM112.309 39.4H108.934V43.4H112.309V39.4ZM106.934 41.4V53.85H110.934V41.4H106.934ZM108.934 51.85H101.734V55.85H108.934V51.85ZM103.734 53.85V41.4H99.7339V53.85H103.734ZM101.734 43.4H105.259V39.4H101.734V43.4ZM107.259 41.4V37.95H103.259V41.4H107.259ZM105.259 39.95H108.709V35.95H105.259V39.95ZM110.709 37.95V34.5H106.709V37.95H110.709ZM108.709 36.5H130.234V32.5H108.709V36.5ZM128.234 34.5V37.95H132.234V34.5H128.234ZM130.234 39.95H133.684V35.95H130.234V39.95ZM131.684 37.95V41.4H135.684V37.95H131.684ZM133.684 43.4H137.359V39.4H133.684V43.4ZM135.359 41.4V53.7H139.359V41.4H135.359ZM137.359 51.7H133.984V55.7H137.359V51.7ZM131.984 53.7V58.125H135.984V53.7H131.984ZM133.984 56.125H130.534V60.125H133.984V56.125ZM128.534 58.125V61.875H132.534V58.125H128.534ZM130.534 59.875H127.234V63.875H130.534V59.875ZM125.234 61.875V65.925H129.234V61.875H125.234ZM127.234 63.925H123.709V67.925H127.234V63.925ZM121.709 65.925V70.125H125.709V65.925H121.709ZM123.709 68.125H120.334V72.125H123.709V68.125ZM118.334 70.125V74.325H122.334V70.125H118.334ZM120.334 72.325H117.034V76.325H120.334V72.325ZM115.034 74.325V78.375H119.034V74.325H115.034ZM117.034 76.375H113.584V80.375H117.034V76.375ZM111.584 78.375V82.35H115.584V78.375H111.584ZM113.584 80.35H110.134V84.35H113.584V80.35ZM108.134 82.35V86.4H112.134V82.35H108.134ZM110.134 88.4H138.109V84.4H110.134V88.4ZM136.109 86.4V90H140.109V86.4H136.109ZM138.109 88H101.734V92H138.109V88ZM103.734 90V82.35H99.7339V90H103.734ZM212.783 35.625H214.783V33.625H212.783V35.625ZM212.783 88.35V90.35H214.783V88.35H212.783ZM209.258 88.35V86.35H207.258V88.35H209.258ZM209.258 91.65V93.65H211.258V91.65H209.258ZM205.658 91.65H203.658V93.65H205.658V91.65ZM205.658 57H207.658V55H205.658V57ZM196.958 57V55H194.958V57H196.958ZM196.958 85.275V87.275H198.958V85.275H196.958ZM193.433 85.275V83.275H191.433V85.275H193.433ZM193.433 88.575V90.575H195.433V88.575H193.433ZM189.833 88.575H187.833V90.575H189.833V88.575ZM189.833 37.125H191.833V35.125H189.833V37.125ZM186.458 37.125H184.458V39.125H186.458V37.125ZM186.458 33.75V31.75H184.458V33.75H186.458ZM193.433 33.75H195.433V31.75H193.433V33.75ZM193.433 37.125H191.433V39.125H193.433V37.125ZM196.958 37.125H198.958V35.125H196.958V37.125ZM196.958 53.775H194.958V55.775H196.958V53.775ZM205.658 53.775V55.775H207.658V53.775H205.658ZM205.658 35.625H207.658V33.625H205.658V35.625ZM202.283 35.625H200.283V37.625H202.283V35.625ZM202.283 32.25V30.25H200.283V32.25H202.283ZM209.258 32.25H211.258V30.25H209.258V32.25ZM209.258 35.625H207.258V37.625H209.258V35.625ZM155.933 71.7V69.7H153.933V71.7H155.933ZM159.683 71.7V73.7H161.683V71.7H159.683ZM159.683 67.8V65.8H157.683V67.8H159.683ZM163.433 67.8V69.8H165.433V67.8H163.433ZM163.433 63.9V61.9H161.433V63.9H163.433ZM167.183 63.9V65.9H169.183V63.9H167.183ZM167.183 60V58H165.183V60H167.183ZM170.933 60V62H172.933V60H170.933ZM170.933 56.1V54.1H168.933V56.1H170.933ZM174.683 56.1V58.1H176.683V56.1H174.683ZM174.683 39.975H176.683V37.975H174.683V39.975ZM156.908 39.975H154.908V41.975H156.908V39.975ZM156.908 36.825V34.825H154.908V36.825H156.908ZM178.808 36.825H180.808V34.825H178.808V36.825ZM178.808 39.825H176.808V41.825H178.808V39.825ZM182.183 39.825H184.183V37.825H182.183V39.825ZM182.183 56.1V58.1H184.183V56.1H182.183ZM178.433 56.1V54.1H176.433V56.1H178.433ZM178.433 60V62H180.433V60H178.433ZM173.933 60V58H171.933V60H173.933ZM173.933 63.9V65.9H175.933V63.9H173.933ZM170.033 63.9V61.9H168.033V63.9H170.033ZM170.033 67.8V69.8H172.033V67.8H170.033ZM166.283 67.8V65.8H164.283V67.8H166.283ZM166.283 71.7V73.7H168.283V71.7H166.283ZM162.533 71.7V69.7H160.533V71.7H162.533ZM162.533 75.6V77.6H164.533V75.6H162.533ZM155.933 75.6H153.933V77.6H155.933V75.6ZM210.783 35.625V88.35H214.783V35.625H210.783ZM212.783 86.35H209.258V90.35H212.783V86.35ZM207.258 88.35V91.65H211.258V88.35H207.258ZM209.258 89.65H205.658V93.65H209.258V89.65ZM207.658 91.65V57H203.658V91.65H207.658ZM205.658 55H196.958V59H205.658V55ZM194.958 57V85.275H198.958V57H194.958ZM196.958 83.275H193.433V87.275H196.958V83.275ZM191.433 85.275V88.575H195.433V85.275H191.433ZM193.433 86.575H189.833V90.575H193.433V86.575ZM191.833 88.575V37.125H187.833V88.575H191.833ZM189.833 35.125H186.458V39.125H189.833V35.125ZM188.458 37.125V33.75H184.458V37.125H188.458ZM186.458 35.75H193.433V31.75H186.458V35.75ZM191.433 33.75V37.125H195.433V33.75H191.433ZM193.433 39.125H196.958V35.125H193.433V39.125ZM194.958 37.125V53.775H198.958V37.125H194.958ZM196.958 55.775H205.658V51.775H196.958V55.775ZM207.658 53.775V35.625H203.658V53.775H207.658ZM205.658 33.625H202.283V37.625H205.658V33.625ZM204.283 35.625V32.25H200.283V35.625H204.283ZM202.283 34.25H209.258V30.25H202.283V34.25ZM207.258 32.25V35.625H211.258V32.25H207.258ZM209.258 37.625H212.783V33.625H209.258V37.625ZM155.933 73.7H159.683V69.7H155.933V73.7ZM161.683 71.7V67.8H157.683V71.7H161.683ZM159.683 69.8H163.433V65.8H159.683V69.8ZM165.433 67.8V63.9H161.433V67.8H165.433ZM163.433 65.9H167.183V61.9H163.433V65.9ZM169.183 63.9V60H165.183V63.9H169.183ZM167.183 62H170.933V58H167.183V62ZM172.933 60V56.1H168.933V60H172.933ZM170.933 58.1H174.683V54.1H170.933V58.1ZM176.683 56.1V39.975H172.683V56.1H176.683ZM174.683 37.975H156.908V41.975H174.683V37.975ZM158.908 39.975V36.825H154.908V39.975H158.908ZM156.908 38.825H178.808V34.825H156.908V38.825ZM176.808 36.825V39.825H180.808V36.825H176.808ZM178.808 41.825H182.183V37.825H178.808V41.825ZM180.183 39.825V56.1H184.183V39.825H180.183ZM182.183 54.1H178.433V58.1H182.183V54.1ZM176.433 56.1V60H180.433V56.1H176.433ZM178.433 58H173.933V62H178.433V58ZM171.933 60V63.9H175.933V60H171.933ZM173.933 61.9H170.033V65.9H173.933V61.9ZM168.033 63.9V67.8H172.033V63.9H168.033ZM170.033 65.8H166.283V69.8H170.033V65.8ZM164.283 67.8V71.7H168.283V67.8H164.283ZM166.283 69.7H162.533V73.7H166.283V69.7ZM160.533 71.7V75.6H164.533V71.7H160.533ZM162.533 73.6H155.933V77.6H162.533V73.6ZM157.933 75.6V71.7H153.933V75.6H157.933Z" fill="#FB873F" mask="url(#path-4-outside-1_12397_38274)"/>
<mask id="path-6-outside-2_12397_38274" maskUnits="userSpaceOnUse" x="44" y="23" width="171" height="64" fill="black">
<rect fill="white" x="44" y="23" width="171" height="64"/>
<path d="M46.2603 75.35H49.7103V71.3H53.1603V67.325H56.6103V63.05H60.0603V58.925H63.5103V54.8H66.9603V50.675H70.6353V46.7H74.5353V34.4H71.1603V30.95H56.8353V34.4H53.4603V46.85H46.2603V34.4H49.7853V30.95H53.2353V27.5H74.7603V30.95H78.2103V34.4H81.8853V46.7H78.5103V51.125H75.0603V54.875H71.7603V58.925H68.2353V63.125H64.8603V67.325H61.5603V71.375H58.1103V75.35H54.6603V79.4H82.6353V83H46.2603V75.35ZM101.734 75.35H105.184V71.3H108.634V67.325H112.084V63.05H115.534V58.925H118.984V54.8H122.434V50.675H126.109V46.7H130.009V34.4H126.634V30.95H112.309V34.4H108.934V46.85H101.734V34.4H105.259V30.95H108.709V27.5H130.234V30.95H133.684V34.4H137.359V46.7H133.984V51.125H130.534V54.875H127.234V58.925H123.709V63.125H120.334V67.325H117.034V71.375H113.584V75.35H110.134V79.4H138.109V83H101.734V75.35ZM212.783 28.625V81.35H209.258V84.65H205.658V50H196.958V78.275H193.433V81.575H189.833V30.125H186.458V26.75H193.433V30.125H196.958V46.775H205.658V28.625H202.283V25.25H209.258V28.625H212.783ZM155.933 64.7H159.683V60.8H163.433V56.9H167.183V53H170.933V49.1H174.683V32.975H156.908V29.825H178.808V32.825H182.183V49.1H178.433V53H173.933V56.9H170.033V60.8H166.283V64.7H162.533V68.6H155.933V64.7Z"/>
</mask>
<path d="M46.2603 75.35H49.7103V71.3H53.1603V67.325H56.6103V63.05H60.0603V58.925H63.5103V54.8H66.9603V50.675H70.6353V46.7H74.5353V34.4H71.1603V30.95H56.8353V34.4H53.4603V46.85H46.2603V34.4H49.7853V30.95H53.2353V27.5H74.7603V30.95H78.2103V34.4H81.8853V46.7H78.5103V51.125H75.0603V54.875H71.7603V58.925H68.2353V63.125H64.8603V67.325H61.5603V71.375H58.1103V75.35H54.6603V79.4H82.6353V83H46.2603V75.35ZM101.734 75.35H105.184V71.3H108.634V67.325H112.084V63.05H115.534V58.925H118.984V54.8H122.434V50.675H126.109V46.7H130.009V34.4H126.634V30.95H112.309V34.4H108.934V46.85H101.734V34.4H105.259V30.95H108.709V27.5H130.234V30.95H133.684V34.4H137.359V46.7H133.984V51.125H130.534V54.875H127.234V58.925H123.709V63.125H120.334V67.325H117.034V71.375H113.584V75.35H110.134V79.4H138.109V83H101.734V75.35ZM212.783 28.625V81.35H209.258V84.65H205.658V50H196.958V78.275H193.433V81.575H189.833V30.125H186.458V26.75H193.433V30.125H196.958V46.775H205.658V28.625H202.283V25.25H209.258V28.625H212.783ZM155.933 64.7H159.683V60.8H163.433V56.9H167.183V53H170.933V49.1H174.683V32.975H156.908V29.825H178.808V32.825H182.183V49.1H178.433V53H173.933V56.9H170.033V60.8H166.283V64.7H162.533V68.6H155.933V64.7Z" fill="#FFFBF6"/>
<path d="M46.2603 75.35V73.35H44.2603V75.35H46.2603ZM49.7103 75.35V77.35H51.7103V75.35H49.7103ZM49.7103 71.3V69.3H47.7103V71.3H49.7103ZM53.1603 71.3V73.3H55.1603V71.3H53.1603ZM53.1603 67.325V65.325H51.1603V67.325H53.1603ZM56.6103 67.325V69.325H58.6103V67.325H56.6103ZM56.6103 63.05V61.05H54.6103V63.05H56.6103ZM60.0603 63.05V65.05H62.0603V63.05H60.0603ZM60.0603 58.925V56.925H58.0603V58.925H60.0603ZM63.5103 58.925V60.925H65.5103V58.925H63.5103ZM63.5103 54.8V52.8H61.5103V54.8H63.5103ZM66.9603 54.8V56.8H68.9603V54.8H66.9603ZM66.9603 50.675V48.675H64.9603V50.675H66.9603ZM70.6353 50.675V52.675H72.6353V50.675H70.6353ZM70.6353 46.7V44.7H68.6353V46.7H70.6353ZM74.5353 46.7V48.7H76.5353V46.7H74.5353ZM74.5353 34.4H76.5353V32.4H74.5353V34.4ZM71.1603 34.4H69.1603V36.4H71.1603V34.4ZM71.1603 30.95H73.1603V28.95H71.1603V30.95ZM56.8353 30.95V28.95H54.8353V30.95H56.8353ZM56.8353 34.4V36.4H58.8353V34.4H56.8353ZM53.4603 34.4V32.4H51.4603V34.4H53.4603ZM53.4603 46.85V48.85H55.4603V46.85H53.4603ZM46.2603 46.85H44.2603V48.85H46.2603V46.85ZM46.2603 34.4V32.4H44.2603V34.4H46.2603ZM49.7853 34.4V36.4H51.7853V34.4H49.7853ZM49.7853 30.95V28.95H47.7853V30.95H49.7853ZM53.2353 30.95V32.95H55.2353V30.95H53.2353ZM53.2353 27.5V25.5H51.2353V27.5H53.2353ZM74.7603 27.5H76.7603V25.5H74.7603V27.5ZM74.7603 30.95H72.7603V32.95H74.7603V30.95ZM78.2103 30.95H80.2103V28.95H78.2103V30.95ZM78.2103 34.4H76.2103V36.4H78.2103V34.4ZM81.8853 34.4H83.8853V32.4H81.8853V34.4ZM81.8853 46.7V48.7H83.8853V46.7H81.8853ZM78.5103 46.7V44.7H76.5103V46.7H78.5103ZM78.5103 51.125V53.125H80.5103V51.125H78.5103ZM75.0603 51.125V49.125H73.0603V51.125H75.0603ZM75.0603 54.875V56.875H77.0603V54.875H75.0603ZM71.7603 54.875V52.875H69.7603V54.875H71.7603ZM71.7603 58.925V60.925H73.7603V58.925H71.7603ZM68.2353 58.925V56.925H66.2353V58.925H68.2353ZM68.2353 63.125V65.125H70.2353V63.125H68.2353ZM64.8603 63.125V61.125H62.8603V63.125H64.8603ZM64.8603 67.325V69.325H66.8603V67.325H64.8603ZM61.5603 67.325V65.325H59.5603V67.325H61.5603ZM61.5603 71.375V73.375H63.5603V71.375H61.5603ZM58.1103 71.375V69.375H56.1103V71.375H58.1103ZM58.1103 75.35V77.35H60.1103V75.35H58.1103ZM54.6603 75.35V73.35H52.6603V75.35H54.6603ZM54.6603 79.4H52.6603V81.4H54.6603V79.4ZM82.6353 79.4H84.6353V77.4H82.6353V79.4ZM82.6353 83V85H84.6353V83H82.6353ZM46.2603 83H44.2603V85H46.2603V83ZM46.2603 77.35H49.7103V73.35H46.2603V77.35ZM51.7103 75.35V71.3H47.7103V75.35H51.7103ZM49.7103 73.3H53.1603V69.3H49.7103V73.3ZM55.1603 71.3V67.325H51.1603V71.3H55.1603ZM53.1603 69.325H56.6103V65.325H53.1603V69.325ZM58.6103 67.325V63.05H54.6103V67.325H58.6103ZM56.6103 65.05H60.0603V61.05H56.6103V65.05ZM62.0603 63.05V58.925H58.0603V63.05H62.0603ZM60.0603 60.925H63.5103V56.925H60.0603V60.925ZM65.5103 58.925V54.8H61.5103V58.925H65.5103ZM63.5103 56.8H66.9603V52.8H63.5103V56.8ZM68.9603 54.8V50.675H64.9603V54.8H68.9603ZM66.9603 52.675H70.6353V48.675H66.9603V52.675ZM72.6353 50.675V46.7H68.6353V50.675H72.6353ZM70.6353 48.7H74.5353V44.7H70.6353V48.7ZM76.5353 46.7V34.4H72.5353V46.7H76.5353ZM74.5353 32.4H71.1603V36.4H74.5353V32.4ZM73.1603 34.4V30.95H69.1603V34.4H73.1603ZM71.1603 28.95H56.8353V32.95H71.1603V28.95ZM54.8353 30.95V34.4H58.8353V30.95H54.8353ZM56.8353 32.4H53.4603V36.4H56.8353V32.4ZM51.4603 34.4V46.85H55.4603V34.4H51.4603ZM53.4603 44.85H46.2603V48.85H53.4603V44.85ZM48.2603 46.85V34.4H44.2603V46.85H48.2603ZM46.2603 36.4H49.7853V32.4H46.2603V36.4ZM51.7853 34.4V30.95H47.7853V34.4H51.7853ZM49.7853 32.95H53.2353V28.95H49.7853V32.95ZM55.2353 30.95V27.5H51.2353V30.95H55.2353ZM53.2353 29.5H74.7603V25.5H53.2353V29.5ZM72.7603 27.5V30.95H76.7603V27.5H72.7603ZM74.7603 32.95H78.2103V28.95H74.7603V32.95ZM76.2103 30.95V34.4H80.2103V30.95H76.2103ZM78.2103 36.4H81.8853V32.4H78.2103V36.4ZM79.8853 34.4V46.7H83.8853V34.4H79.8853ZM81.8853 44.7H78.5103V48.7H81.8853V44.7ZM76.5103 46.7V51.125H80.5103V46.7H76.5103ZM78.5103 49.125H75.0603V53.125H78.5103V49.125ZM73.0603 51.125V54.875H77.0603V51.125H73.0603ZM75.0603 52.875H71.7603V56.875H75.0603V52.875ZM69.7603 54.875V58.925H73.7603V54.875H69.7603ZM71.7603 56.925H68.2353V60.925H71.7603V56.925ZM66.2353 58.925V63.125H70.2353V58.925H66.2353ZM68.2353 61.125H64.8603V65.125H68.2353V61.125ZM62.8603 63.125V67.325H66.8603V63.125H62.8603ZM64.8603 65.325H61.5603V69.325H64.8603V65.325ZM59.5603 67.325V71.375H63.5603V67.325H59.5603ZM61.5603 69.375H58.1103V73.375H61.5603V69.375ZM56.1103 71.375V75.35H60.1103V71.375H56.1103ZM58.1103 73.35H54.6603V77.35H58.1103V73.35ZM52.6603 75.35V79.4H56.6603V75.35H52.6603ZM54.6603 81.4H82.6353V77.4H54.6603V81.4ZM80.6353 79.4V83H84.6353V79.4H80.6353ZM82.6353 81H46.2603V85H82.6353V81ZM48.2603 83V75.35H44.2603V83H48.2603ZM101.734 75.35V73.35H99.7339V75.35H101.734ZM105.184 75.35V77.35H107.184V75.35H105.184ZM105.184 71.3V69.3H103.184V71.3H105.184ZM108.634 71.3V73.3H110.634V71.3H108.634ZM108.634 67.325V65.325H106.634V67.325H108.634ZM112.084 67.325V69.325H114.084V67.325H112.084ZM112.084 63.05V61.05H110.084V63.05H112.084ZM115.534 63.05V65.05H117.534V63.05H115.534ZM115.534 58.925V56.925H113.534V58.925H115.534ZM118.984 58.925V60.925H120.984V58.925H118.984ZM118.984 54.8V52.8H116.984V54.8H118.984ZM122.434 54.8V56.8H124.434V54.8H122.434ZM122.434 50.675V48.675H120.434V50.675H122.434ZM126.109 50.675V52.675H128.109V50.675H126.109ZM126.109 46.7V44.7H124.109V46.7H126.109ZM130.009 46.7V48.7H132.009V46.7H130.009ZM130.009 34.4H132.009V32.4H130.009V34.4ZM126.634 34.4H124.634V36.4H126.634V34.4ZM126.634 30.95H128.634V28.95H126.634V30.95ZM112.309 30.95V28.95H110.309V30.95H112.309ZM112.309 34.4V36.4H114.309V34.4H112.309ZM108.934 34.4V32.4H106.934V34.4H108.934ZM108.934 46.85V48.85H110.934V46.85H108.934ZM101.734 46.85H99.7339V48.85H101.734V46.85ZM101.734 34.4V32.4H99.7339V34.4H101.734ZM105.259 34.4V36.4H107.259V34.4H105.259ZM105.259 30.95V28.95H103.259V30.95H105.259ZM108.709 30.95V32.95H110.709V30.95H108.709ZM108.709 27.5V25.5H106.709V27.5H108.709ZM130.234 27.5H132.234V25.5H130.234V27.5ZM130.234 30.95H128.234V32.95H130.234V30.95ZM133.684 30.95H135.684V28.95H133.684V30.95ZM133.684 34.4H131.684V36.4H133.684V34.4ZM137.359 34.4H139.359V32.4H137.359V34.4ZM137.359 46.7V48.7H139.359V46.7H137.359ZM133.984 46.7V44.7H131.984V46.7H133.984ZM133.984 51.125V53.125H135.984V51.125H133.984ZM130.534 51.125V49.125H128.534V51.125H130.534ZM130.534 54.875V56.875H132.534V54.875H130.534ZM127.234 54.875V52.875H125.234V54.875H127.234ZM127.234 58.925V60.925H129.234V58.925H127.234ZM123.709 58.925V56.925H121.709V58.925H123.709ZM123.709 63.125V65.125H125.709V63.125H123.709ZM120.334 63.125V61.125H118.334V63.125H120.334ZM120.334 67.325V69.325H122.334V67.325H120.334ZM117.034 67.325V65.325H115.034V67.325H117.034ZM117.034 71.375V73.375H119.034V71.375H117.034ZM113.584 71.375V69.375H111.584V71.375H113.584ZM113.584 75.35V77.35H115.584V75.35H113.584ZM110.134 75.35V73.35H108.134V75.35H110.134ZM110.134 79.4H108.134V81.4H110.134V79.4ZM138.109 79.4H140.109V77.4H138.109V79.4ZM138.109 83V85H140.109V83H138.109ZM101.734 83H99.7339V85H101.734V83ZM101.734 77.35H105.184V73.35H101.734V77.35ZM107.184 75.35V71.3H103.184V75.35H107.184ZM105.184 73.3H108.634V69.3H105.184V73.3ZM110.634 71.3V67.325H106.634V71.3H110.634ZM108.634 69.325H112.084V65.325H108.634V69.325ZM114.084 67.325V63.05H110.084V67.325H114.084ZM112.084 65.05H115.534V61.05H112.084V65.05ZM117.534 63.05V58.925H113.534V63.05H117.534ZM115.534 60.925H118.984V56.925H115.534V60.925ZM120.984 58.925V54.8H116.984V58.925H120.984ZM118.984 56.8H122.434V52.8H118.984V56.8ZM124.434 54.8V50.675H120.434V54.8H124.434ZM122.434 52.675H126.109V48.675H122.434V52.675ZM128.109 50.675V46.7H124.109V50.675H128.109ZM126.109 48.7H130.009V44.7H126.109V48.7ZM132.009 46.7V34.4H128.009V46.7H132.009ZM130.009 32.4H126.634V36.4H130.009V32.4ZM128.634 34.4V30.95H124.634V34.4H128.634ZM126.634 28.95H112.309V32.95H126.634V28.95ZM110.309 30.95V34.4H114.309V30.95H110.309ZM112.309 32.4H108.934V36.4H112.309V32.4ZM106.934 34.4V46.85H110.934V34.4H106.934ZM108.934 44.85H101.734V48.85H108.934V44.85ZM103.734 46.85V34.4H99.7339V46.85H103.734ZM101.734 36.4H105.259V32.4H101.734V36.4ZM107.259 34.4V30.95H103.259V34.4H107.259ZM105.259 32.95H108.709V28.95H105.259V32.95ZM110.709 30.95V27.5H106.709V30.95H110.709ZM108.709 29.5H130.234V25.5H108.709V29.5ZM128.234 27.5V30.95H132.234V27.5H128.234ZM130.234 32.95H133.684V28.95H130.234V32.95ZM131.684 30.95V34.4H135.684V30.95H131.684ZM133.684 36.4H137.359V32.4H133.684V36.4ZM135.359 34.4V46.7H139.359V34.4H135.359ZM137.359 44.7H133.984V48.7H137.359V44.7ZM131.984 46.7V51.125H135.984V46.7H131.984ZM133.984 49.125H130.534V53.125H133.984V49.125ZM128.534 51.125V54.875H132.534V51.125H128.534ZM130.534 52.875H127.234V56.875H130.534V52.875ZM125.234 54.875V58.925H129.234V54.875H125.234ZM127.234 56.925H123.709V60.925H127.234V56.925ZM121.709 58.925V63.125H125.709V58.925H121.709ZM123.709 61.125H120.334V65.125H123.709V61.125ZM118.334 63.125V67.325H122.334V63.125H118.334ZM120.334 65.325H117.034V69.325H120.334V65.325ZM115.034 67.325V71.375H119.034V67.325H115.034ZM117.034 69.375H113.584V73.375H117.034V69.375ZM111.584 71.375V75.35H115.584V71.375H111.584ZM113.584 73.35H110.134V77.35H113.584V73.35ZM108.134 75.35V79.4H112.134V75.35H108.134ZM110.134 81.4H138.109V77.4H110.134V81.4ZM136.109 79.4V83H140.109V79.4H136.109ZM138.109 81H101.734V85H138.109V81ZM103.734 83V75.35H99.7339V83H103.734ZM212.783 28.625H214.783V26.625H212.783V28.625ZM212.783 81.35V83.35H214.783V81.35H212.783ZM209.258 81.35V79.35H207.258V81.35H209.258ZM209.258 84.65V86.65H211.258V84.65H209.258ZM205.658 84.65H203.658V86.65H205.658V84.65ZM205.658 50H207.658V48H205.658V50ZM196.958 50V48H194.958V50H196.958ZM196.958 78.275V80.275H198.958V78.275H196.958ZM193.433 78.275V76.275H191.433V78.275H193.433ZM193.433 81.575V83.575H195.433V81.575H193.433ZM189.833 81.575H187.833V83.575H189.833V81.575ZM189.833 30.125H191.833V28.125H189.833V30.125ZM186.458 30.125H184.458V32.125H186.458V30.125ZM186.458 26.75V24.75H184.458V26.75H186.458ZM193.433 26.75H195.433V24.75H193.433V26.75ZM193.433 30.125H191.433V32.125H193.433V30.125ZM196.958 30.125H198.958V28.125H196.958V30.125ZM196.958 46.775H194.958V48.775H196.958V46.775ZM205.658 46.775V48.775H207.658V46.775H205.658ZM205.658 28.625H207.658V26.625H205.658V28.625ZM202.283 28.625H200.283V30.625H202.283V28.625ZM202.283 25.25V23.25H200.283V25.25H202.283ZM209.258 25.25H211.258V23.25H209.258V25.25ZM209.258 28.625H207.258V30.625H209.258V28.625ZM155.933 64.7V62.7H153.933V64.7H155.933ZM159.683 64.7V66.7H161.683V64.7H159.683ZM159.683 60.8V58.8H157.683V60.8H159.683ZM163.433 60.8V62.8H165.433V60.8H163.433ZM163.433 56.9V54.9H161.433V56.9H163.433ZM167.183 56.9V58.9H169.183V56.9H167.183ZM167.183 53V51H165.183V53H167.183ZM170.933 53V55H172.933V53H170.933ZM170.933 49.1V47.1H168.933V49.1H170.933ZM174.683 49.1V51.1H176.683V49.1H174.683ZM174.683 32.975H176.683V30.975H174.683V32.975ZM156.908 32.975H154.908V34.975H156.908V32.975ZM156.908 29.825V27.825H154.908V29.825H156.908ZM178.808 29.825H180.808V27.825H178.808V29.825ZM178.808 32.825H176.808V34.825H178.808V32.825ZM182.183 32.825H184.183V30.825H182.183V32.825ZM182.183 49.1V51.1H184.183V49.1H182.183ZM178.433 49.1V47.1H176.433V49.1H178.433ZM178.433 53V55H180.433V53H178.433ZM173.933 53V51H171.933V53H173.933ZM173.933 56.9V58.9H175.933V56.9H173.933ZM170.033 56.9V54.9H168.033V56.9H170.033ZM170.033 60.8V62.8H172.033V60.8H170.033ZM166.283 60.8V58.8H164.283V60.8H166.283ZM166.283 64.7V66.7H168.283V64.7H166.283ZM162.533 64.7V62.7H160.533V64.7H162.533ZM162.533 68.6V70.6H164.533V68.6H162.533ZM155.933 68.6H153.933V70.6H155.933V68.6ZM210.783 28.625V81.35H214.783V28.625H210.783ZM212.783 79.35H209.258V83.35H212.783V79.35ZM207.258 81.35V84.65H211.258V81.35H207.258ZM209.258 82.65H205.658V86.65H209.258V82.65ZM207.658 84.65V50H203.658V84.65H207.658ZM205.658 48H196.958V52H205.658V48ZM194.958 50V78.275H198.958V50H194.958ZM196.958 76.275H193.433V80.275H196.958V76.275ZM191.433 78.275V81.575H195.433V78.275H191.433ZM193.433 79.575H189.833V83.575H193.433V79.575ZM191.833 81.575V30.125H187.833V81.575H191.833ZM189.833 28.125H186.458V32.125H189.833V28.125ZM188.458 30.125V26.75H184.458V30.125H188.458ZM186.458 28.75H193.433V24.75H186.458V28.75ZM191.433 26.75V30.125H195.433V26.75H191.433ZM193.433 32.125H196.958V28.125H193.433V32.125ZM194.958 30.125V46.775H198.958V30.125H194.958ZM196.958 48.775H205.658V44.775H196.958V48.775ZM207.658 46.775V28.625H203.658V46.775H207.658ZM205.658 26.625H202.283V30.625H205.658V26.625ZM204.283 28.625V25.25H200.283V28.625H204.283ZM202.283 27.25H209.258V23.25H202.283V27.25ZM207.258 25.25V28.625H211.258V25.25H207.258ZM209.258 30.625H212.783V26.625H209.258V30.625ZM155.933 66.7H159.683V62.7H155.933V66.7ZM161.683 64.7V60.8H157.683V64.7H161.683ZM159.683 62.8H163.433V58.8H159.683V62.8ZM165.433 60.8V56.9H161.433V60.8H165.433ZM163.433 58.9H167.183V54.9H163.433V58.9ZM169.183 56.9V53H165.183V56.9H169.183ZM167.183 55H170.933V51H167.183V55ZM172.933 53V49.1H168.933V53H172.933ZM170.933 51.1H174.683V47.1H170.933V51.1ZM176.683 49.1V32.975H172.683V49.1H176.683ZM174.683 30.975H156.908V34.975H174.683V30.975ZM158.908 32.975V29.825H154.908V32.975H158.908ZM156.908 31.825H178.808V27.825H156.908V31.825ZM176.808 29.825V32.825H180.808V29.825H176.808ZM178.808 34.825H182.183V30.825H178.808V34.825ZM180.183 32.825V49.1H184.183V32.825H180.183ZM182.183 47.1H178.433V51.1H182.183V47.1ZM176.433 49.1V53H180.433V49.1H176.433ZM178.433 51H173.933V55H178.433V51ZM171.933 53V56.9H175.933V53H171.933ZM173.933 54.9H170.033V58.9H173.933V54.9ZM168.033 56.9V60.8H172.033V56.9H168.033ZM170.033 58.8H166.283V62.8H170.033V58.8ZM164.283 60.8V64.7H168.283V60.8H164.283ZM166.283 62.7H162.533V66.7H166.283V62.7ZM160.533 64.7V68.6H164.533V64.7H160.533ZM162.533 66.6H155.933V70.6H162.533V66.6ZM157.933 68.6V64.7H153.933V68.6H157.933Z" fill="#FFFBF6" mask="url(#path-6-outside-2_12397_38274)"/>
<rect x="58" y="119" width="12" height="52" fill="#FFA000"/>
<rect x="192" y="119" width="12" height="52" fill="#FFA000"/>
</svg>
