<svg xmlns="http://www.w3.org/2000/svg" width="50" height="50" viewBox="0 0 50 50" fill="none">
  <path d="M4.16668 27.0833V25H2.08334V20.8333H4.16668V18.75H14.5833V25H16.6667V27.0833H4.16668Z" fill="#FFA000"/>
  <path d="M10.4167 14.5833H8.33334V10.4166H10.4167V8.33325H14.5833V10.4166H16.6667V12.4999H14.5833V16.6666H10.4167V14.5833Z" fill="#FFA000"/>
  <path d="M16.6667 14.5834H18.75V12.5001H20.8333V10.4167H29.1667V12.5001H31.25V14.5834H33.3333V22.9167H31.25V25.0001H29.1667V27.0834H20.8333V25.0001H18.75V22.9167H16.6667V14.5834Z" fill="#FFA000"/>
  <path d="M39.5833 37.5H41.6667V43.75H39.5833V45.8333H10.4167V43.75H8.33334V37.5H10.4167V35.4167H12.5V33.3333H16.6667V31.25H33.3333V33.3333H37.5V35.4167H39.5833V37.5Z" fill="#FFA000"/>
  <path d="M47.9167 20.8333V25H45.8333V27.0833H33.3333V25H35.4167V18.75H45.8333V20.8333H47.9167Z" fill="#FFA000"/>
  <path d="M35.4167 12.4999H33.3333V10.4166H35.4167V8.33325H39.5833V10.4166H41.6667V14.5833H39.5833V16.6666H35.4167V12.4999Z" fill="#FFA000"/>
</svg>