<svg xmlns="http://www.w3.org/2000/svg" width="51" height="51" viewBox="0 0 51 51" fill="none">
  <path d="M34 42.5H31.875V44.625H4.25V42.5H2.125V36.125H4.25V34H6.375V31.875H8.5V29.75H27.625V31.875H29.75V34H31.875V36.125H34V42.5Z" fill="#FFA000"/>
  <path d="M27.625 25.5V23.375H29.75V10.625H38.25V12.75H40.375V23.375H38.25V25.5H27.625Z" fill="#FFA000"/>
  <path d="M48.875 36.125V42.5H46.75V44.625H34V42.5H36.125V34H34V31.875H31.875V29.75H42.5V31.875H44.625V34H46.75V36.125H48.875Z" fill="#FFA000"/>
  <path d="M25.5 6.375V8.5H23.375V10.625H21.25V8.5H19.125V6.375H17V8.5H14.875V10.625H12.75V8.5H10.625V6.375H8.5V21.25H10.625V23.375H12.75V25.5H23.375V23.375H25.5V21.25H27.625V6.375H25.5ZM23.375 19.125H21.25V21.25H14.875V19.125H12.75V14.875H23.375V19.125Z" fill="#FFA000"/>
</svg>