<svg xmlns="http://www.w3.org/2000/svg" width="35" height="46" viewBox="0 0 35 46" fill="none">
  <path d="M2.625 24.9712L6.875 24.9712L6.875 27.0741L9 27.0741L9 29.177L11.125 29.177L11.125 31.2799L13.25 31.2799L13.25 33.3828L15.375 33.3828L15.375 35.4856L19.625 35.4856L19.625 33.3828L21.75 33.3828L21.75 31.2799L23.875 31.2799L23.875 29.177L26 29.177L26 27.0741L28.125 27.0741L28.125 24.9712L32.375 24.9712L32.375 27.0741L34.5 27.0741L34.5 31.2799L32.375 31.2799L32.375 33.3828L30.25 33.3828L30.25 35.4856L28.125 35.4856L28.125 37.5885L26 37.5885L26 39.6914L23.875 39.6914L23.875 41.7943L21.75 41.7943L21.75 43.8972L19.625 43.8972L19.625 46.0001L15.375 46.0001L15.375 43.8972L13.25 43.8972L13.25 41.7943L11.125 41.7943L11.125 39.6914L9 39.6914L9 37.5885L6.875 37.5885L6.875 35.4856L4.75 35.4856L4.75 33.3828L2.625 33.3828L2.625 31.2799L0.500001 31.2799L0.500002 27.0741L2.625 27.0741L2.625 24.9712Z" fill="#FFC700"/>
  <path d="M2.625 3.99107L6.875 3.99107L6.875 6.09396L9 6.09396L9 8.19684L11.125 8.19684L11.125 10.2997L13.25 10.2997L13.25 12.4026L15.375 12.4026L15.375 14.5055L19.625 14.5055L19.625 12.4026L21.75 12.4026L21.75 10.2997L23.875 10.2997L23.875 8.19684L26 8.19684L26 6.09396L28.125 6.09396L28.125 3.99107L32.375 3.99108L32.375 6.09396L34.5 6.09396L34.5 10.2997L32.375 10.2997L32.375 12.4026L30.25 12.4026L30.25 14.5055L28.125 14.5055L28.125 16.6084L26 16.6084L26 18.7113L23.875 18.7113L23.875 20.8141L21.75 20.8141L21.75 22.917L19.625 22.917L19.625 25.0199L15.375 25.0199L15.375 22.917L13.25 22.917L13.25 20.8141L11.125 20.8141L11.125 18.7112L9 18.7112L9 16.6084L6.875 16.6084L6.875 14.5055L4.75 14.5055L4.75 12.4026L2.625 12.4026L2.625 10.2997L0.500001 10.2997L0.500002 6.09395L2.625 6.09396L2.625 3.99107Z" fill="#FFC700"/>
  <path d="M2.625 20.9804L6.875 20.9804L6.875 23.0833L9 23.0833L9 25.1862L11.125 25.1862L11.125 27.289L13.25 27.289L13.25 29.3919L15.375 29.3919L15.375 31.4948L19.625 31.4948L19.625 29.3919L21.75 29.3919L21.75 27.289L23.875 27.289L23.875 25.1862L26 25.1862L26 23.0833L28.125 23.0833L28.125 20.9804L32.375 20.9804L32.375 23.0833L34.5 23.0833L34.5 27.289L32.375 27.289L32.375 29.3919L30.25 29.3919L30.25 31.4948L28.125 31.4948L28.125 33.5977L26 33.5977L26 35.7006L23.875 35.7006L23.875 37.8035L21.75 37.8035L21.75 39.9063L19.625 39.9063L19.625 42.0092L15.375 42.0092L15.375 39.9063L13.25 39.9063L13.25 37.8035L11.125 37.8034L11.125 35.7006L9 35.7006L9 33.5977L6.875 33.5977L6.875 31.4948L4.75 31.4948L4.75 29.3919L2.625 29.3919L2.625 27.289L0.500001 27.289L0.500002 23.0833L2.625 23.0833L2.625 20.9804Z" fill="#FFA000"/>
  <path d="M2.625 -1.61354e-05L6.875 -1.57642e-05L6.875 2.10287L9 2.10287L9 4.20575L11.125 4.20575L11.125 6.30863L13.25 6.30863L13.25 8.41151L15.375 8.41151L15.375 10.5144L19.625 10.5144L19.625 8.41151L21.75 8.41152L21.75 6.30863L23.875 6.30863L23.875 4.20575L26 4.20575L26 2.10287L28.125 2.10287L28.125 -1.39082e-05L32.375 -1.3537e-05L32.375 2.10287L34.5 2.10287L34.5 6.30863L32.375 6.30863L32.375 8.41152L30.25 8.41152L30.25 10.5144L28.125 10.5144L28.125 12.6173L26 12.6173L26 14.7202L23.875 14.7202L23.875 16.823L21.75 16.823L21.75 18.9259L19.625 18.9259L19.625 21.0288L15.375 21.0288L15.375 18.9259L13.25 18.9259L13.25 16.823L11.125 16.823L11.125 14.7202L9 14.7202L9 12.6173L6.875 12.6173L6.875 10.5144L4.75 10.5144L4.75 8.41151L2.625 8.41151L2.625 6.30863L0.500001 6.30863L0.500002 2.10287L2.625 2.10287L2.625 -1.61354e-05Z" fill="#FFA000"/>
</svg>