<svg width="90" height="90" viewBox="0 0 90 90" fill="none" xmlns="http://www.w3.org/2000/svg">
<path d="M82.7751 75.5488V68.3232H79.1623V61.0976H75.5495V53.872H71.9367V46.6464H68.3239V39.4208H64.7111V32.1952H61.0983V24.9695H57.4855V17.7439H53.8727V10.5183H50.2599V6.90552H43.0343V10.5183H39.4215V17.7439H35.8087V24.9695H32.1959V32.1952H28.5831V39.4208H24.9703V46.6464H21.3575V53.872H17.7447V61.0976H14.1319V68.3232H10.5191V75.5488H6.90625V82.7744H10.5191V86.3872H82.7751V82.7744H86.388V75.5488H82.7751ZM39.4215 43.0336H53.8727V53.872H50.2599V64.7104H43.0343V53.872H39.4215V43.0336ZM43.0343 68.3232H50.2599V75.5488H43.0343V68.3232Z" fill="#F86C14"/>
<path d="M79.4822 72.2561V65.0305H75.8694V57.8049H72.2566V50.5793H68.6438V43.3536H65.031V36.128H61.4182V28.9024H57.8054V21.6768H54.1925V14.4512H50.5797V7.2256H46.9669V3.61279H39.7413V7.2256H36.1285V14.4512H32.5157V21.6768H28.9029V28.9024H25.2901V36.128H21.6773V43.3536H18.0645V50.5793H14.4517V57.8049H10.8389V65.0305H7.22609V72.2561H3.61328V79.4817H7.22609V83.0945H79.4822V79.4817H83.095V72.2561H79.4822ZM36.1285 39.7408H50.5797V50.5793H46.9669V61.4177H39.7413V50.5793H36.1285V39.7408ZM39.7413 65.0305H46.9669V72.2561H39.7413V65.0305Z" fill="#DC4200"/>
</svg>
