<svg width="84" height="94" viewBox="0 0 84 94" fill="none" xmlns="http://www.w3.org/2000/svg">
<path d="M25.4713 30.681H21.612V21.0058H25.4713V17.6405H29.4949V14.107H36.6387V9.23371H52.0116V14.107H59.1554V17.6405H63.2611V21.0058H67.0383V30.681H63.2611V34.1305H59.1554V37.8323H29.4949V34.1305H25.4713V30.681ZM8.14543 46.2524H80.5048V52.8133H62.2757V61.9124H58.7448V65.446H69.748V85.8188H65.8066V89.5206H61.8651V71.0115H17.0958V65.446H26.4567V52.8133H8.14543V46.2524ZM33.3542 30.681V34.1305H55.214V30.681H59.1554V21.0899H55.214V17.6405H33.3542V21.0899H29.4949V30.681H33.3542ZM55.0498 65.446V52.8133H33.6826V61.9124H30.1518V65.446H55.0498Z" fill="#F86C14"/>
<path fill-rule="evenodd" clip-rule="evenodd" d="M18.1168 34.1774L14.1372 28.4634L18.1168 25.8434V17.5094H21.9761V14.1441H25.9997V10.6106H33.1435V-0.00723267H51.5456L55.0807 4.98761H58.5359L61.0725 8.48399H62.5704L65.027 11.9804H66.5649L70.5335 17.5094V34.1774H66.7563V37.6268H62.6506V41.3287H25.9997V37.6268H23.1248L21.6268 35.4561L21.9761 34.1774H18.1168ZM52.0116 14.107V9.23371H36.6387V14.107H29.4949V17.6405H25.4713V21.0058H21.612V30.681H25.4713V34.1305H29.4949V37.8323H59.1554V34.1305H63.2611V30.681H67.0383V21.0058H63.2611V17.6405H59.1554V14.107H52.0116ZM55.6602 24.5863H51.7188V21.1369H36.8494V24.5863H32.99V27.1846H36.8494V30.6341H51.7188V27.1846H55.6602V24.5863ZM59.1554 30.681H55.214V34.1305H33.3542V30.681H29.4949V21.0899H33.3542V17.6405H55.214V21.0899H59.1554V30.681ZM4.65025 42.756H44.3251H64.1626L80.0463 37.9535L84 42.756V56.3097H65.7709V61.9496L69.5607 56.3097L73.2432 61.9496V89.3151H69.3018V93.017H58.37L54.5814 87.9019L58.37 83.7624V74.5079H13.6006L9.64337 68.9215L13.6006 61.9496H22.9615V56.3097H4.65025L0.655762 50.4406L4.65025 42.756ZM26.4567 52.8133V65.446H17.0958V71.0115H61.8651V89.5206H65.8066V85.8188H69.748V65.446H58.7448V61.9124H62.2757V52.8133H80.5048V46.2524H8.14543V52.8133H26.4567ZM37.1778 61.9496H51.5546V56.3097H37.1778V61.9496ZM55.0498 52.8133V65.446H30.1518V61.9124H33.6826V52.8133H55.0498Z" fill="#F86C14"/>
<path d="M21.5173 24.9345H17.658V15.2593H21.5173V11.894H25.5409V8.36046H32.6847V3.4872H48.0576V8.36046H55.2015V11.894H59.3071V15.2593H63.0843V24.9345H59.3071V28.384H55.2015V32.0858H25.5409V28.384H21.5173V24.9345ZM4.19147 40.5059H76.5509V47.0668H58.3217V56.1659H54.7909V59.6994H65.794V80.0723H61.8526V83.7741H57.9112V65.265H13.1418V59.6994H22.5027V47.0668H4.19147V40.5059ZM29.4002 24.9345V28.384H51.26V24.9345H55.2015V15.3434H51.26V11.894H29.4002V15.3434H25.5409V24.9345H29.4002ZM51.0958 59.6994V47.0668H29.7287V56.1659H26.1978V59.6994H51.0958Z" fill="#FFC700"/>
<path fill-rule="evenodd" clip-rule="evenodd" d="M14.1372 28.4634V11.7629H18.0222V8.39763H22.0457V4.86407H29.1896V-0.00918579H51.5528V4.9876H58.576V8.48399H62.5704V11.9804H66.5795V28.4309H62.8023V31.8803H58.6966V35.4561H21.6269V31.8803H18.0222V28.4634H14.1372ZM48.0576 8.36046V3.4872H32.6847V8.36046H25.5409V11.894H21.5173V15.2593H17.658V24.9345H21.5173V28.384H25.5409V32.0858H55.2015V28.384H59.3071V24.9345H63.0843V15.2593H59.3071V11.894H55.2015V8.36046H48.0576ZM51.7063 18.8398H47.7649V15.3904H32.8954V18.8398H29.0361V21.4381H32.8954V24.8876H47.7649V21.4381H51.7063V18.8398ZM55.2015 24.9345H51.26V28.384H29.4002V24.9345H25.5409V15.3434H29.4002V11.894H51.26V15.3434H55.2015V24.9345ZM0.696289 38.0085L80.0493 37.9456L80.046 50.5632H61.8169V56.2031H69.5608V83.5686H65.3478V87.9019H54.416V68.9215H9.64662V56.2031H19.0075V50.5632H0.696289V38.0085ZM22.5027 47.0668V59.6994H13.1418V65.265H57.9112V83.7741H61.8526V80.0723H65.794V59.6994H54.7909V56.1659H58.3217V47.0668H76.5509V40.5059H4.19147V47.0668H22.5027ZM33.2238 56.2031H47.6006V50.5632H33.2238V56.2031ZM51.0958 47.0668V59.6994H26.1978V56.1659H29.7287V47.0668H51.0958Z" fill="#FFC700"/>
</svg>
